<svg width="20" height="20" viewBox="0 0 20 20" fill="none" xmlns="http://www.w3.org/2000/svg">
<g clip-path="url(#clip0_996_11454)">
<path d="M16.5491 3.75391C15.4509 1.54297 12.933 0 10 0C7.06696 0 4.54911 1.54297 3.45089 3.75391C2.71875 3.80859 2.14286 4.34375 2.14286 5V7.5C2.14286 8.15625 2.71875 8.69141 3.45089 8.74609C4.54911 10.957 7.06696 12.5 10 12.5C12.933 12.5 15.4509 10.957 16.5491 8.74609C17.2812 8.69141 17.8571 8.15625 17.8571 7.5V5C17.8571 4.34375 17.2812 3.80859 16.5491 3.75391ZM15 5.625V6.25C15 8.32031 13.0804 10 10.7143 10H9.28571C6.91964 10 5 8.32031 5 6.25V5.625C5 4.58984 5.95982 3.75 7.14286 3.75H12.8571C14.0402 3.75 15 4.58984 15 5.625ZM8.45089 6.35547L8.18304 5.52734C8.14286 5.39844 8.00893 5.3125 7.85714 5.3125C7.70536 5.3125 7.57143 5.39844 7.53125 5.52734L7.26339 6.35547L6.31696 6.58984C6.16964 6.625 6.07143 6.74219 6.07143 6.875C6.07143 7.00781 6.16964 7.125 6.31696 7.16016L7.26339 7.39453L7.53125 8.22266C7.57143 8.35156 7.70536 8.4375 7.85714 8.4375C8.00893 8.4375 8.14286 8.35156 8.18304 8.22266L8.45089 7.39453L9.39732 7.16016C9.54464 7.125 9.64286 7.00781 9.64286 6.875C9.64286 6.74219 9.54464 6.625 9.39732 6.58984L8.45089 6.35547ZM5.03125 12.3633C2.08482 13.3828 0 15.8984 0 18.8398C0 19.4805 0.59375 20 1.32589 20H5.71429V17.5C5.71429 16.8086 6.35268 16.25 7.14286 16.25H12.8571C13.6473 16.25 14.2857 16.8086 14.2857 17.5V20H18.6741C19.4062 20 20 19.4805 20 18.8398C20 15.8984 17.9152 13.3828 14.9688 12.3633C13.567 13.2344 11.8527 13.75 10 13.75C8.14732 13.75 6.43304 13.2344 5.03125 12.3633ZM7.85714 17.5C7.46429 17.5 7.14286 17.7812 7.14286 18.125V20H8.57143V18.125C8.57143 17.7812 8.25 17.5 7.85714 17.5ZM12.1429 18.75C12.3323 18.75 12.514 18.6842 12.6479 18.5669C12.7819 18.4497 12.8571 18.2908 12.8571 18.125C12.8571 17.9592 12.7819 17.8003 12.6479 17.6831C12.514 17.5658 12.3323 17.5 12.1429 17.5C11.9534 17.5 11.7717 17.5658 11.6378 17.6831C11.5038 17.8003 11.4286 17.9592 11.4286 18.125C11.4286 18.2908 11.5038 18.4497 11.6378 18.5669C11.7717 18.6842 11.9534 18.75 12.1429 18.75Z" fill="#0FE983"/>
</g>
<defs>
<clipPath id="clip0_996_11454">
<rect width="20" height="20" fill="white"/>
</clipPath>
</defs>
</svg>
