<svg width="24" height="24" viewBox="0 0 24 24" fill="none" xmlns="http://www.w3.org/2000/svg">
<path d="M7.725 20.525L5.375 21.45C5.04167 21.5833 4.729 21.55 4.437 21.35C4.145 21.15 3.99934 20.875 4 20.525V16.075C4 15.7416 4.07934 15.425 4.238 15.125C4.39667 14.825 4.61734 14.5833 4.9 14.4L6 13.675C6.11667 15.025 6.29567 16.1916 6.537 17.175C6.77834 18.1583 7.17434 19.275 7.725 20.525ZM11.225 3.22495C11.325 3.12495 11.446 3.05428 11.588 3.01295C11.73 2.97162 11.8673 2.95062 12 2.94995C12.1333 2.94995 12.271 2.97095 12.413 3.01295C12.555 3.05495 12.6757 3.12562 12.775 3.22495C13.925 4.27495 14.8333 5.64562 15.5 7.33695C16.1667 9.02828 16.5 10.8076 16.5 12.675C16.5 13.9583 16.3917 15.0833 16.175 16.05C15.9583 17.0166 15.625 18.075 15.175 19.225C15.0917 19.4416 14.9667 19.625 14.8 19.775C14.6333 19.9249 14.4333 20 14.2 20H9.8C9.56667 20 9.36667 19.9249 9.2 19.775C9.03334 19.625 8.90834 19.4416 8.825 19.225C8.375 18.075 8.04167 17.0123 7.825 16.037C7.60834 15.0616 7.5 13.941 7.5 12.675C7.5 10.8083 7.83334 9.02895 8.5 7.33695C9.16667 5.64495 10.075 4.27428 11.225 3.22495ZM12 13C12.55 13 13.021 12.8043 13.413 12.413C13.805 12.0216 14.0007 11.5506 14 11C14 10.45 13.804 9.97895 13.412 9.58695C13.02 9.19495 12.5493 8.99928 12 8.99995C11.45 8.99995 10.979 9.19595 10.587 9.58795C10.195 9.97995 9.99934 10.4506 10 11C10 11.55 10.196 12.021 10.588 12.413C10.98 12.805 11.4507 13.0006 12 13ZM16.275 20.525C16.825 19.275 17.221 18.1583 17.463 17.175C17.705 16.1916 17.884 15.025 18 13.675L19.1 14.4C19.3833 14.5833 19.6043 14.825 19.763 15.125C19.9217 15.425 20.0007 15.7416 20 16.075V20.525C20 20.875 19.8543 21.15 19.563 21.35C19.2717 21.55 18.959 21.5833 18.625 21.45L16.275 20.525Z" fill="#0FE983"/>
</svg>
