<svg width="81" height="80" viewBox="0 0 81 80" fill="none" xmlns="http://www.w3.org/2000/svg">
<path fill-rule="evenodd" clip-rule="evenodd" d="M79.0048 39.495C79.0048 43.3441 78.5198 47.0258 77.5497 50.4565C75.6095 57.4853 71.8908 63.6773 66.7978 68.5305C63.2408 71.9612 58.9562 74.7225 54.2674 76.5634C50.0637 78.2369 45.4557 79.1573 40.6861 79.1573C40.0394 79.1573 39.3118 79.1574 38.6651 79.0737C37.695 78.99 36.644 78.9063 35.674 78.8226C28.3174 77.8185 21.5267 74.6389 16.1104 69.8693C14.0894 68.1121 12.23 66.1039 10.5324 63.9283C9.31974 62.3385 8.18796 60.5813 7.21786 58.7404C6.97534 58.3221 6.73282 57.82 6.4903 57.4016C6.24778 56.8996 6.00526 56.4812 5.84358 55.9791C5.19685 54.473 4.63096 52.8831 4.14591 51.2933C3.82255 50.1218 3.49918 48.9504 3.25665 47.7789C3.09497 46.9421 2.93329 46.1054 2.85245 45.185C2.60992 43.3441 2.44824 41.5032 2.44824 39.5787C2.44824 38.4909 2.44825 37.4031 2.60993 36.3153C2.69078 35.6459 2.69077 34.9765 2.85245 34.3071C3.33749 30.3743 4.38842 26.6926 5.9244 23.2619C6.65197 21.5884 7.54123 19.9149 8.51133 18.4087C10.1281 15.8147 11.9875 13.3881 14.1702 11.2126C21.0417 4.26747 30.5001 0 40.8478 0C41.252 0 41.6562 0 42.0604 0C42.4646 0 42.9497 1.91394e-06 43.3539 0.0836778C45.5366 0.251029 47.7193 0.585733 49.7403 1.08779C50.9529 1.42249 52.1656 1.75719 53.2973 2.17557C54.1057 2.4266 54.8333 2.7613 55.6417 3.09601C56.2076 3.34703 56.7735 3.59806 57.3394 3.84909C57.4202 3.93277 57.501 3.93277 57.6627 4.01644C61.3814 5.85731 64.7768 8.36758 67.687 11.3799C68.0913 11.7983 68.4955 12.2167 68.8997 12.6351C69.1422 12.9698 69.4656 13.2208 69.7081 13.5555C70.1931 14.0575 70.5973 14.6433 71.0015 15.1453C72.5375 17.1535 73.831 19.3291 74.9628 21.5884C76.2562 24.266 77.3071 27.111 78.0347 30.0396C78.6006 33.052 79.0048 36.2316 79.0048 39.495Z" fill="url(#paint0_radial_168_73121)"/>
<path opacity="0.5" fill-rule="evenodd" clip-rule="evenodd" d="M57.5008 3.84904C57.3391 3.84904 57.2583 3.84904 57.0966 3.93271C56.6924 4.01639 56.2882 3.93271 55.884 3.84904C55.5606 3.76536 55.3989 3.59801 54.9947 3.59801C54.5097 3.51433 54.1055 3.34698 53.6204 3.26331C53.1354 3.17963 52.7312 3.01228 52.2461 2.84493C51.8419 2.67758 51.6802 2.76125 51.3569 2.84493C51.0335 2.9286 50.791 2.76125 50.4677 2.67757C50.1443 2.51022 49.74 2.51022 49.4167 2.42655C48.4466 2.2592 47.4765 1.92449 46.5064 1.67346C45.9405 1.50611 45.3746 1.50611 44.7279 1.50611C44.2429 1.50611 43.8387 1.67346 43.3536 1.67346C43.0303 1.67346 42.7877 1.58979 42.4644 1.58979C42.141 1.50611 41.8176 1.58979 41.4943 1.58979C41.0092 1.50611 40.7667 1.42244 40.2816 1.58979C39.8774 1.67346 39.6349 1.67347 39.2307 1.75714C38.8265 1.75714 38.3415 1.92449 37.9373 2.00817C37.2097 2.17552 36.4013 2.34287 35.6737 2.34287C35.1887 2.34287 34.5419 2.17552 34.1377 2.34287C33.8952 2.42655 33.7335 2.76125 33.491 2.9286C33.0868 3.34698 32.6826 3.68169 32.3592 4.10006C32.0359 4.51844 31.7125 5.0205 31.7125 5.60623C31.7125 6.10828 31.955 6.69402 32.1975 7.11239C32.4401 7.61445 32.5209 8.03283 32.0359 8.36753C31.47 8.78591 30.7424 9.12062 30.0957 9.37164C29.6106 9.53899 29.2064 9.62267 28.8831 9.28797C28.7214 9.20429 28.6405 8.95326 28.4789 8.78591C28.3172 8.70224 28.0746 8.78591 27.913 8.86959C27.4279 9.03694 26.9429 9.20429 26.4578 9.28797C26.1345 9.37164 25.8919 9.53899 25.5686 9.53899C25.2452 9.62267 25.0027 9.37164 24.5985 9.45532C24.1134 9.539 23.5475 9.79002 23.0625 9.79002C22.6583 9.79002 22.1732 9.62267 21.8499 9.45532C21.6882 9.37164 21.6073 9.20429 21.3648 9.28797C21.2031 9.28797 20.9606 9.539 20.8798 9.70635C20.7181 9.8737 20.7181 10.1247 20.5564 10.2921C20.3947 10.5431 20.3139 10.7105 20.1522 10.9615C19.9097 11.3799 19.6672 11.7982 19.4246 12.2166C19.263 12.4676 19.1013 12.886 18.8587 13.1371C18.7779 13.3044 18.5354 13.3881 18.3737 13.4718C17.9695 13.7228 17.5653 14.0575 17.1611 14.3085C16.4335 14.8942 15.7059 15.5637 14.9784 16.1494C14.4125 16.5678 13.6041 16.8188 12.9573 17.1535C12.5531 17.3208 12.1489 17.4882 11.7447 17.6556C11.583 17.7392 11.3405 17.7392 11.2597 17.9066C11.098 18.0739 11.0172 18.2413 10.9363 18.4923C10.613 18.9107 10.2087 19.4127 9.96621 19.9148C9.80453 20.2495 9.72369 20.5005 9.56201 20.8352C9.40033 21.2536 9.15782 21.672 9.07698 22.174C8.75362 23.0945 8.7536 24.0986 8.34939 25.019C8.18771 25.5211 7.86435 26.0231 7.62183 26.5252C7.21762 27.362 7.13679 28.3661 7.05595 29.2865C6.97511 29.7886 7.05593 30.458 7.13677 30.96C7.21762 31.5457 7.21762 32.1315 7.21762 32.7172C7.21762 33.3029 6.81342 33.9723 6.49006 34.3907C6.16669 34.8091 5.6008 34.9765 5.19659 35.3948C4.87323 35.7295 4.46902 36.0642 4.30733 36.5663C4.22649 36.7337 4.30733 36.9847 4.30733 37.2357C4.22649 37.7378 4.06482 38.1561 4.06482 38.6582C3.98398 39.2439 3.98397 39.8297 3.98397 40.4991C3.98397 40.8338 3.98397 41.0848 3.98397 41.4195C3.98397 41.7542 4.06483 42.0052 4.14567 42.2563C4.14567 42.4236 4.14567 42.6746 4.14567 42.842C4.14567 43.093 4.30733 43.344 4.30733 43.5114C4.46902 44.0971 4.54988 44.5992 4.63072 45.1849C4.71156 45.687 4.95408 46.189 5.03492 46.6911C5.27745 47.3605 5.35827 48.0299 5.51995 48.783C5.60079 49.285 5.6008 49.8708 5.68164 50.3728C5.76248 50.7912 5.84334 51.2096 5.84334 51.628C5.84334 52.2974 5.68164 52.8831 5.68164 53.5525C5.68164 54.6403 6.08584 55.7281 6.32836 56.8159C6.4092 57.1506 6.49006 57.4016 6.5709 57.7363C3.90314 52.381 2.448 46.2727 2.448 39.8297C2.448 31.9641 4.6307 24.6843 8.43024 18.576C10.0471 15.982 11.9064 13.5554 14.0891 11.4635C20.9606 4.51845 30.419 0.250977 40.7667 0.250977C41.5751 0.250977 42.4644 0.250975 43.2728 0.334651C48.2849 0.250975 53.1354 1.67347 57.5008 3.84904Z" fill="url(#paint1_linear_168_73121)"/>
<path fill-rule="evenodd" clip-rule="evenodd" d="M18.7778 38.5746C31.1465 40.5829 30.4189 44.0136 44.8087 39.9135C59.1984 35.8133 69.546 13.4719 69.546 13.4719C69.546 13.4719 70.2736 11.7984 69.6269 10.7943C69.3843 10.3759 67.525 11.2126 67.525 11.2126C67.8484 18.4088 58.1474 33.3031 47.153 37.5705C45.9404 37.9889 44.8087 38.1563 43.6769 38.4073C43.1918 38.1563 41.8984 36.9011 47.8806 32.7173C54.9946 27.7804 58.1474 25.9396 57.5007 20.7517C56.854 15.5638 63.1596 7.44722 63.1596 7.44722C63.1596 7.44722 63.6446 5.27164 62.432 3.93283C60.896 2.17564 57.5007 3.93283 57.5007 3.93283C57.5007 3.93283 56.6115 14.0576 44.2428 19.4965C31.8741 24.9355 24.9217 22.2578 20.233 20.7517C15.4633 19.2455 14.089 11.129 14.089 11.129C14.089 11.129 10.047 10.2922 8.59183 12.8861C7.5409 14.8107 9.07688 17.2373 9.07688 17.2373C9.07688 17.2373 16.5951 20.0823 23.3049 22.7599C30.0147 25.4375 42.9493 23.0109 47.4764 20.7517C52.0844 18.4924 52.0844 14.8107 55.7222 11.4637C57.2582 10.1248 58.7942 9.12073 60.0876 8.535C60.0876 8.535 56.0456 14.978 56.5306 19.4965C57.0157 24.015 54.2671 23.8477 47.4764 31.7969C42.7068 37.3195 38.5839 39.1604 36.5629 39.6624C31.389 40.1645 26.6194 39.5787 20.233 37.7379C9.80444 34.8092 3.57967 30.1234 3.57967 30.1234C3.57967 30.1234 2.69042 29.705 2.36705 30.7091C2.20537 31.1275 3.17547 32.3826 3.17547 32.3826C3.17547 32.3826 6.40913 36.4827 18.7778 38.5746Z" fill="url(#paint2_linear_168_73121)"/>
<path fill-rule="evenodd" clip-rule="evenodd" d="M27.5085 76.5631C27.5085 76.5631 24.4366 74.5548 22.173 68.4465C19.9095 62.3382 20.152 62.7566 15.8674 58.9075C11.5828 55.0584 4.14545 51.293 4.14545 51.293C4.14545 51.293 3.6604 51.4603 3.6604 51.6277C3.6604 52.3808 4.54966 52.5481 4.54966 52.5481C4.54966 52.5481 11.502 55.6441 15.8674 60.581C20.2328 65.5179 24.9216 74.3875 21.6071 73.8854C21.6071 73.8854 22.3347 76.061 24.1132 76.5631C25.8109 77.0651 27.5085 76.5631 27.5085 76.5631Z" fill="url(#paint3_radial_168_73121)"/>
<path d="M57.9861 47.0261C59.4412 45.4362 61.1389 43.3443 68.0912 43.2607C75.0435 43.177 78.6005 44.7668 78.6005 44.7668C78.6005 44.7668 80.0557 44.3484 80.2174 42.4239C80.3791 40.4994 78.9239 39.5789 78.9239 39.5789C78.843 40.1646 78.1155 44.1811 72.2141 41.8382C72.2141 41.7545 74.316 39.8299 74.7202 35.8135C75.2052 31.7971 76.5795 26.0234 76.5795 26.0234C76.5795 26.0234 77.3879 24.6009 76.9029 23.4295C76.7412 23.0111 75.3669 22.8438 75.3669 22.8438C76.5795 30.9603 73.5884 40.6667 70.3547 41.8382C66.4744 41.9218 61.7047 42.5913 59.522 44.0974C56.8543 45.9383 54.1865 54.1385 52.4889 59.9121C52.0847 61.3346 51.1954 62.9245 50.0636 64.4307C45.7791 65.5184 47.1533 60.1632 45.294 58.5733C43.4346 56.9835 39.9585 57.8203 37.6141 56.9835C35.3505 56.0631 34.7038 54.2222 32.2786 53.8875C29.8533 53.5528 25.973 58.3223 21.5267 56.3978C17.0804 54.4732 2.36734 36.3992 2.36734 36.3992C2.36734 36.3992 1.07388 36.0645 0.75052 36.985C0.507996 37.7381 2.20568 39.6626 2.20568 39.6626C2.20568 39.6626 12.4725 55.6447 22.2543 57.7366C32.036 59.8285 40.9286 57.9039 44.0005 60.5816C47.0725 63.3429 47.315 67.694 47.315 67.7777C44.1622 71.2921 40.3627 74.3044 38.5842 75.2248C35.5122 76.8147 30.5001 77.9025 30.5001 77.9025C31.2276 78.7392 32.6019 79.4086 34.0571 79.827C36.2398 80.4127 37.6141 79.3249 37.6141 79.3249C37.6141 79.3249 36.4015 78.2372 38.0183 76.8147C42.1412 73.2166 45.1323 71.7104 49.4169 70.6227C52.0038 69.9533 52.8122 71.2084 53.1356 70.79C57.1777 72.1288 60.3304 69.0328 63.7258 66.1042C67.1211 63.2592 71.5674 62.8408 71.5674 62.8408C71.5674 62.8408 73.8309 62.4224 74.4776 61.4183C75.0435 60.4979 73.7501 59.4101 73.7501 59.4101C73.7501 59.4101 71.8099 60.2469 68.0912 62.1714C64.4534 64.0959 60.4921 69.7022 55.965 69.5349C53.459 69.4512 54.0248 66.8572 53.7823 66.4389C53.7823 66.2715 53.7823 66.1042 53.7823 65.8531C53.7015 64.0123 53.2973 62.2551 53.2973 60.9163C53.2973 60.5816 53.2973 60.2468 53.3781 59.9121C54.0248 57.8203 56.5309 48.5322 57.9861 47.0261ZM50.1445 64.347C49.336 65.4348 48.4468 66.5225 47.4767 67.6103L50.1445 64.347ZM53.6206 67.1919C53.7015 67.6103 53.7823 68.0287 53.7015 68.5308C53.7015 68.7818 53.6206 68.9491 53.4589 69.0328C53.2972 69.1165 53.2164 69.1165 53.0547 69.1165C52.893 69.2002 52.6506 69.2002 52.4889 69.2838C52.1655 69.3675 51.8421 69.2838 51.5996 69.2838C51.2762 69.2838 50.9529 69.2838 50.6295 69.2838C50.4678 69.2838 50.3061 69.2002 50.1445 69.2002C49.9828 69.2002 49.7403 69.2002 49.6594 69.1165C49.3361 68.9491 49.0935 68.5308 48.851 68.4471C48.851 68.1124 48.851 67.8614 49.0127 67.6103C49.0127 67.5266 49.0935 67.443 49.0935 67.2756C49.1744 67.1083 49.1744 66.9409 49.2552 66.7736C49.4169 66.3552 49.5786 65.9368 49.9019 65.6021C49.9828 65.4348 50.1444 65.1837 50.2253 65.0164C50.387 64.7654 50.5487 64.598 50.7104 64.4307C50.9529 64.1796 51.1954 63.9286 51.5188 63.7612C51.7613 63.5939 52.1655 63.4265 52.4889 63.5102C52.8122 63.5939 52.8931 64.0123 52.9739 64.2633C53.0547 64.4306 53.0548 64.6817 53.1356 64.849C53.2164 65.1001 53.2973 65.3511 53.3781 65.6021C53.4589 65.9368 53.459 66.1878 53.5398 66.5225C53.5398 66.6899 53.5398 66.9409 53.6206 67.1919Z" fill="url(#paint4_linear_168_73121)"/>
<path fill-rule="evenodd" clip-rule="evenodd" d="M9.96655 11.9657C9.96655 11.9657 11.6642 15.6474 16.1105 18.9945C16.1105 18.9945 14.6553 13.6392 13.6044 11.4636C13.6044 11.4636 12.1493 10.0412 9.96655 11.9657Z" fill="#FFFF0E"/>
<path fill-rule="evenodd" clip-rule="evenodd" d="M33.3296 23.2618C33.3296 23.2618 36.3207 22.0066 37.2908 22.5087C37.2908 22.425 34.3805 23.2618 33.3296 23.2618Z" fill="#FFFF0E"/>
<path fill-rule="evenodd" clip-rule="evenodd" d="M43.435 20.3331C44.0008 20.1658 44.5667 19.9984 45.0518 19.7474C45.5368 19.58 45.941 19.329 46.4261 19.078C46.992 18.7433 47.5579 18.4086 48.0429 17.9902C48.2046 17.9065 48.2854 17.8229 48.4471 17.7392C48.6088 17.6555 48.7705 17.4881 48.9321 17.4045C49.0938 17.3208 49.1747 17.1534 49.3363 17.0698C49.498 16.9861 49.5789 16.8187 49.7406 16.7351C49.9831 16.5677 50.2256 16.3167 50.3873 16.1493C50.4681 16.0657 50.549 15.982 50.7107 15.8146C50.7915 15.731 50.8723 15.731 50.9532 15.731C50.9532 15.8146 50.8724 15.982 50.8724 16.0657C50.7915 16.233 50.7106 16.3167 50.6298 16.484C50.4681 16.8187 50.1448 16.9861 49.9022 17.3208C49.7406 17.4882 49.5789 17.6555 49.3363 17.8229C49.0938 17.9902 48.7705 18.1576 48.4471 18.3249C48.1238 18.4923 47.8004 18.5759 47.5578 18.7433C47.3153 18.9106 46.9919 19.078 46.7494 19.1617C46.5877 19.2453 46.3452 19.4127 46.1836 19.4964C46.0219 19.58 45.8602 19.6637 45.6985 19.7474C45.456 19.9147 45.2135 19.9984 44.9709 20.1658C44.8093 20.2494 44.7284 20.2495 44.5667 20.3331C44.3242 20.5005 43.92 20.5842 43.5966 20.5842C43.5158 20.5842 43.3541 20.5842 43.2733 20.5842C43.1924 20.5842 43.1116 20.5005 43.1116 20.5005C43.2733 20.4168 43.3541 20.3331 43.435 20.3331Z" fill="#FFFF0E"/>
<path fill-rule="evenodd" clip-rule="evenodd" d="M51.5189 14.8942C51.3572 14.9779 51.2764 15.0616 51.1147 15.2289C51.1147 15.3126 51.0338 15.3963 51.1955 15.3963C51.3572 15.3963 51.438 15.3126 51.5997 15.1452C51.6806 15.0616 51.7614 14.8942 51.6806 14.8105C51.5998 14.7269 51.4381 14.8105 51.3572 14.8942H51.5189Z" fill="#FFFF0E"/>
<path fill-rule="evenodd" clip-rule="evenodd" d="M58.0671 4.09976C57.9862 4.26712 57.8246 4.43447 57.7437 4.60182C57.6629 4.76917 57.6629 4.85284 57.5821 5.0202C57.5012 5.27122 57.4204 5.60593 57.3395 5.85696C57.1779 6.35901 57.097 6.94474 56.8545 7.4468C56.7736 7.69782 56.6928 7.86518 56.5311 8.1162C56.4503 8.19988 56.3694 8.36723 56.3694 8.45091C56.2886 8.53458 56.2886 8.61826 56.2077 8.78561C56.1269 8.86929 56.1269 8.95296 56.0461 9.03664C55.9652 9.12032 55.9652 9.28767 55.8844 9.37134C55.8035 9.45502 55.6419 9.70604 55.7227 9.78972C55.8036 9.78972 55.8035 9.70605 55.8844 9.70605C55.9652 9.62237 56.1269 9.53869 56.2077 9.37134C56.4503 9.20399 56.612 8.95296 56.7736 8.70194C56.8545 8.61826 56.9353 8.53458 57.0162 8.36723C57.097 8.19988 57.2587 8.1162 57.3395 7.94885C57.5012 7.69782 57.7437 7.4468 57.9054 7.27945C57.9862 7.19577 58.0671 7.02842 58.148 6.94474C58.2288 6.86107 58.3096 6.77739 58.3905 6.61004C58.7138 6.27534 58.9563 5.94063 59.2797 5.60593C59.5222 5.3549 59.6839 5.0202 59.9264 4.76917C60.0881 4.51814 60.2498 4.26712 60.3306 4.01609C60.4115 3.93241 60.4923 3.68139 60.4923 3.59771C60.4115 3.43036 60.2498 3.34668 60.0881 3.34668C59.8456 3.34668 59.6031 3.34668 59.3606 3.34668C59.118 3.43036 58.9563 3.51403 58.7138 3.59771C58.5521 3.68139 58.3905 3.84874 58.148 3.93241C58.0671 4.09976 57.9054 4.18344 58.0671 4.09976Z" fill="#FFFF0E"/>
<path fill-rule="evenodd" clip-rule="evenodd" d="M60.007 8.86994C59.9261 9.0373 59.8453 9.20465 59.7644 9.372C59.6836 9.45567 59.6027 9.62303 59.5219 9.7067C59.3602 9.95773 59.2794 10.2088 59.1177 10.3761C58.8751 10.7945 58.5518 11.2129 58.3901 11.6312C58.3093 11.7986 58.2285 11.9659 58.1476 12.1333C58.0668 12.3007 57.9859 12.5517 57.9859 12.719C57.9051 12.8864 57.9051 13.0537 57.8242 13.3048C57.8242 13.4721 57.7434 13.6395 57.7434 13.8068C57.9051 13.6395 57.9859 13.3884 58.1476 13.2211C58.2285 13.0537 58.3093 12.8864 58.4709 12.8027C58.6326 12.719 58.7135 12.5517 58.7943 12.3843C58.8752 12.217 59.0368 12.1333 59.1177 11.966C59.1985 11.7986 59.2794 11.7149 59.3602 11.5476C59.4411 11.4639 59.5219 11.2965 59.6027 11.1292C59.6836 10.9618 59.7644 10.7945 59.8453 10.6271C59.9261 10.2924 60.0878 9.95773 60.1686 9.62302C60.1686 9.45567 60.2495 9.28832 60.1686 9.12097C60.1686 9.03729 60.007 8.70259 60.007 8.86994Z" fill="#FFFF0E"/>
<path fill-rule="evenodd" clip-rule="evenodd" d="M57.3392 14.3083C57.2583 14.5593 57.1775 14.7267 57.1775 14.9777C57.1775 15.0614 57.1775 15.1451 57.1775 15.1451C57.2583 15.1451 57.3392 15.1451 57.3392 15.0614C57.42 15.0614 57.42 14.9777 57.42 14.8941C57.5008 14.8104 57.5817 14.643 57.5008 14.4757C57.5008 14.3083 57.3392 14.2247 57.2583 14.392L57.3392 14.3083Z" fill="#FFFF0E"/>
<path fill-rule="evenodd" clip-rule="evenodd" d="M53.3779 25.7719C52.9737 26.1903 52.4078 26.6087 52.0844 27.1108C52.0844 27.1944 51.8419 27.3618 51.9227 27.4455C52.0036 27.5291 52.1652 27.4455 52.2461 27.4455C52.4886 27.3618 52.7311 27.1944 52.9737 27.1108C53.1354 27.0271 53.297 26.8597 53.4587 26.776C53.8629 26.525 54.1863 26.1903 54.5097 25.7719C54.6714 25.6046 54.7522 25.4372 54.833 25.2699C54.833 25.1862 54.9139 25.0189 54.9139 25.0189C54.833 24.7678 54.348 25.0189 54.2671 25.1025C54.1863 25.1862 54.0246 25.2699 53.9438 25.3536C53.8629 25.4372 53.7821 25.5209 53.7013 25.5209C53.6204 25.6046 53.5396 25.6883 53.3779 25.7719C53.3779 25.8556 53.297 25.9393 53.3779 25.7719Z" fill="#FFFF0E"/>
<path fill-rule="evenodd" clip-rule="evenodd" d="M51.4381 27.8643C51.2764 27.9479 51.1147 28.0316 51.0339 28.1153C51.0339 28.199 50.8722 28.2826 50.9531 28.3663C51.0339 28.45 51.1956 28.3663 51.1956 28.3663C51.2764 28.3663 51.3572 28.2826 51.4381 28.199C51.4381 28.0316 51.4381 28.0316 51.4381 27.8643Z" fill="#FFFF0E"/>
<path fill-rule="evenodd" clip-rule="evenodd" d="M41.4945 37.6543C41.1712 37.9053 40.767 38.1564 40.3628 38.4074C39.8777 38.6584 39.3927 38.8258 38.9885 39.0768C38.2609 39.4952 37.5333 39.8299 36.8058 40.1646C36.7249 40.2482 35.5931 40.6666 35.9973 40.9177C36.159 41.0013 36.4016 41.0013 36.5632 41.0013C36.7249 41.0013 36.8866 41.085 37.0483 41.085C37.21 41.085 37.3716 41.085 37.5333 41.085C38.4226 41.085 39.3927 40.834 40.2011 40.4993C40.3628 40.4156 40.6053 40.3319 40.767 40.2482C40.8478 40.1646 40.9286 40.0809 41.0903 39.9972C41.252 39.8299 41.4137 39.6625 41.4945 39.4115C41.6562 39.0768 41.7371 38.8258 41.7371 38.4074C41.7371 38.24 41.6562 38.1564 41.5754 37.989C41.5754 37.9053 41.4945 37.8216 41.4945 37.6543Z" fill="#FFFF0E"/>
<path fill-rule="evenodd" clip-rule="evenodd" d="M35.1891 40.4991C35.0274 40.4154 34.7849 40.248 34.5424 40.248C34.4616 40.248 34.3807 40.248 34.2999 40.248C34.1382 40.248 33.8957 40.3317 33.734 40.4154C33.5723 40.5828 33.9765 40.7501 34.1382 40.8338C34.2999 40.9175 34.6232 40.9175 34.7849 40.8338C34.9466 40.8338 35.1891 40.6664 35.1891 40.4991C35.27 40.4991 35.27 40.4991 35.27 40.4991H35.1891Z" fill="#FFFF0E"/>
<path fill-rule="evenodd" clip-rule="evenodd" d="M46.9106 37.9052C47.7191 37.6542 48.5275 37.3194 49.2551 36.9011C49.5784 36.7337 49.8209 36.5664 50.1443 36.399C50.306 36.3153 50.5485 36.148 50.7102 36.0643C50.791 36.0643 51.2761 35.7296 51.3569 35.897C51.4377 36.0643 50.9527 36.399 50.8719 36.4827C50.7102 36.65 50.4676 36.8174 50.2251 36.9847C50.0634 37.1521 49.8209 37.1521 49.6593 37.3194C49.4167 37.4868 49.1742 37.5705 48.8509 37.7378C48.6892 37.8215 48.4466 37.9052 48.285 37.9889C48.1233 38.0725 47.9616 38.0725 47.7999 38.1562C47.719 38.1562 47.5574 38.1562 47.4765 38.1562C47.3149 38.0725 46.9915 38.1562 46.9106 37.9052Z" fill="#FFFF0E"/>
<path fill-rule="evenodd" clip-rule="evenodd" d="M64.9383 42.5072C65.3425 42.5072 65.8276 42.5909 66.2318 42.5072C66.5552 42.4236 66.7977 42.4236 67.121 42.3399C67.6869 42.2562 68.3337 42.0889 68.8996 42.0889C69.1421 42.0889 69.3846 42.0889 69.6271 42.0889C69.7888 42.0889 69.9505 42.0889 70.0313 42.0889C70.1121 42.0889 70.2739 42.1725 70.2739 42.2562C70.4356 42.4236 70.2738 42.4236 70.193 42.4236C69.9505 42.5072 69.7888 42.6746 69.5463 42.6746C69.1421 42.7583 68.8187 42.8419 68.4145 42.9256C68.172 42.9256 67.9294 42.9256 67.6061 42.9256C67.2827 43.0093 66.9594 43.0093 66.5551 43.0093C66.2318 43.0093 65.9893 43.0093 65.6659 43.0093C65.4234 43.0093 65.2617 42.9256 65.0192 42.9256C64.8575 42.9256 64.6958 42.9256 64.615 42.842C64.6958 42.9256 64.5341 42.7583 64.9383 42.5072Z" fill="#FFFF0E"/>
<path fill-rule="evenodd" clip-rule="evenodd" d="M74.6394 42.9255C75.1245 43.0092 75.4478 43.0092 75.9329 42.9255C76.2563 42.8418 76.5796 42.8418 76.8221 42.7582C77.2263 42.6745 77.7114 42.5071 78.1156 42.2561C78.3581 42.0888 78.7623 41.8377 79.0048 41.9214C79.2474 42.0051 79.4899 42.2561 79.4899 42.5071C79.4899 42.8418 79.1665 43.0092 79.0048 43.1765C78.6815 43.4276 78.1156 43.5949 77.7114 43.5949C77.2263 43.5949 76.6605 43.5112 76.1754 43.4276C76.0137 43.4276 75.852 43.3439 75.6903 43.3439C75.5286 43.2602 75.2053 43.2602 74.6394 42.9255Z" fill="#FFFF0E"/>
<path fill-rule="evenodd" clip-rule="evenodd" d="M75.7711 23.3457C75.7711 23.6804 75.5286 24.6008 75.9328 24.8519C76.1753 25.0192 76.2562 24.6008 76.2562 24.4335C76.337 24.1825 76.1753 23.5131 75.7711 23.3457Z" fill="#FFFF0E"/>
<path fill-rule="evenodd" clip-rule="evenodd" d="M3.57992 31.5456C3.98412 32.0477 4.22664 32.5498 4.71169 32.8008C5.03505 32.9681 5.27758 33.2192 5.60094 33.3028C5.92431 33.3865 6.32853 33.4702 6.65189 33.4702C6.81358 33.4702 6.89441 33.4702 6.89441 33.2192C6.89441 33.1355 6.81356 32.9681 6.73272 32.8845C6.65187 32.7171 6.49019 32.6334 6.32851 32.4661C6.16683 32.2987 6.08599 32.1314 5.9243 31.964C5.35842 31.462 4.79254 31.1273 4.06497 30.8762C3.82244 30.7926 3.82244 30.7926 3.57992 30.8762C3.41823 30.9599 3.41824 30.9599 3.3374 31.1273C3.3374 31.3783 3.49908 31.6293 3.66076 31.8803L3.57992 31.5456Z" fill="#FFFF0E"/>
<path fill-rule="evenodd" clip-rule="evenodd" d="M3.90354 39.328C4.46942 40.3321 5.19699 41.1689 5.92456 42.0893C6.40961 42.6751 6.73299 43.5118 7.29887 44.0976C7.37972 44.1812 8.43064 45.1017 8.43064 44.5996C8.43064 44.5159 8.10729 44.0139 8.10729 43.9302C7.9456 43.6792 7.78391 43.3445 7.54139 43.0935C7.37971 42.8424 7.1372 42.6751 7.05636 42.424C6.89468 42.173 6.73299 42.0057 6.57131 41.7546C6.32879 41.5036 6.16709 41.0852 6.00541 40.8342C5.84373 40.5832 5.60122 40.2485 5.43954 39.9974C5.19701 39.5791 4.87364 39.1607 4.46943 38.9933C4.38859 38.9097 4.22691 38.826 4.06523 38.9097C3.66102 39.1607 3.8227 39.6627 3.90354 39.328Z" fill="#FFFF0E"/>
<path fill-rule="evenodd" clip-rule="evenodd" d="M40.7671 57.9876C41.6563 57.8202 42.303 57.6529 43.1923 57.9039C43.5965 57.9876 44.0007 58.1549 44.4049 58.2386C44.6474 58.3223 45.0516 58.4059 45.2133 58.5733C45.375 58.8243 45.375 59.159 45.1325 59.3264C44.89 59.5774 44.3241 59.4937 44.0007 59.4937C43.354 59.41 42.7881 59.3264 42.1414 59.159C41.818 59.0754 41.333 58.908 41.0096 58.657C40.9288 58.5733 40.6054 58.2386 40.7671 57.9876Z" fill="#FFFF0E"/>
<path fill-rule="evenodd" clip-rule="evenodd" d="M52.4889 62.6729C52.0846 62.5892 52.0038 61.7525 52.1655 61.4178C52.2463 61.2504 52.3272 60.9157 52.5697 60.832C52.7314 60.7483 52.8122 60.9157 52.9739 60.9157C52.8122 61.3341 52.5697 61.6688 52.3272 62.0035L52.4889 62.6729Z" fill="#FFFF0E"/>
<path fill-rule="evenodd" clip-rule="evenodd" d="M68.5764 62.4223C69.1423 62.0039 69.5465 61.7529 70.1932 61.5855C70.5166 61.5018 70.84 61.4182 71.1633 61.3345C71.5675 61.2508 71.8909 60.9998 72.2951 60.9998C72.4568 60.9998 72.5377 60.9998 72.6993 60.9161C72.861 60.9161 72.7802 60.8324 72.9419 60.9161C73.2652 61.0834 73.1035 61.3345 72.9419 61.5018C72.5377 61.8365 72.2143 62.0039 71.7292 62.0876C71.4059 62.1712 71.2442 62.3386 70.9208 62.4223C70.7591 62.5059 70.5974 62.5059 70.4358 62.5896C69.7082 62.757 68.9806 62.5896 68.5764 62.4223Z" fill="#FFFF0E"/>
<path fill-rule="evenodd" clip-rule="evenodd" d="M17.1611 60.9995C17.4845 61.7526 17.8079 62.5057 18.2929 63.1751C18.5354 63.5098 18.6971 63.7609 19.0205 63.9282C19.263 64.0119 19.5055 64.0956 19.5055 63.6772C19.5055 63.5098 19.3438 63.1751 19.263 63.0078C18.9396 62.422 18.5354 62.0037 18.2121 61.5016C18.0504 61.3343 17.8887 60.9995 17.727 60.9159C17.4845 60.8322 17.0803 60.6648 17.1611 60.9995Z" fill="#FFFF0E"/>
<path fill-rule="evenodd" clip-rule="evenodd" d="M32.1169 77.9021C33.0061 77.7348 33.7337 77.4001 34.5421 77.1491C34.8655 76.9817 35.1888 76.9817 35.593 76.9817L35.6739 76.898C35.7547 76.898 35.9164 76.898 35.9972 76.898C36.0781 76.898 36.4823 76.8144 36.5631 76.898C36.8865 77.1491 36.2397 77.8185 36.0781 77.9021C35.5122 78.4879 34.6229 78.8226 33.7337 78.7389C33.3295 78.6552 32.9253 78.4879 32.5211 78.4042C32.2785 78.4042 31.7126 78.2368 31.7126 77.9021C31.7935 77.9858 31.7935 77.9021 32.1169 77.9021Z" fill="#FFFF0E"/>
<path fill-rule="evenodd" clip-rule="evenodd" d="M46.9921 68.9487C46.2645 69.4508 45.3752 69.9528 44.8093 70.7896C44.4051 71.3753 45.1327 71.208 45.4561 71.1243C45.6986 71.0406 45.9411 70.9569 46.1028 70.7896C46.2645 70.6222 46.4262 70.5386 46.5878 70.2875C46.7495 70.1202 46.8304 70.0365 46.9921 69.9528C47.0729 69.7855 47.1537 69.5345 47.3154 69.4508C47.3154 69.3671 47.2346 69.3671 47.2346 69.2834L46.9921 68.9487Z" fill="#FFFF0E"/>
<path fill-rule="evenodd" clip-rule="evenodd" d="M26.1347 56.8159C26.7006 56.5649 27.2665 56.3975 27.7515 56.0628C28.2366 55.8118 28.7216 55.4771 29.2067 55.2261C29.8534 54.8914 30.5001 54.473 31.2277 54.3893C31.4702 54.3893 31.7127 54.222 31.9553 54.3893C32.1978 54.473 32.2786 54.5567 32.4403 54.724C32.8445 55.3098 32.0361 55.8118 31.6319 56.0628C31.3085 56.3139 31.066 56.5649 30.6618 56.7322C30.2576 56.8996 29.8534 56.9833 29.4492 57.1506C28.8025 57.4017 28.0749 57.7364 27.3473 57.82C26.9431 57.9037 26.6198 57.7364 26.2964 57.4853C26.1347 57.4017 25.973 57.2343 25.8922 57.067C25.8113 56.9833 25.7305 56.8159 26.1347 56.8159Z" fill="#FFFF0E"/>
<defs>
<radialGradient id="paint0_radial_168_73121" cx="0" cy="0" r="1" gradientUnits="userSpaceOnUse" gradientTransform="translate(16.974 20.9609) scale(61.5213 63.6786)">
<stop offset="0.00558659" stop-color="#9D9D94"/>
<stop offset="0.2018" stop-color="#DFD2C1"/>
<stop offset="0.3542" stop-color="#C2B5A2"/>
<stop offset="0.4919" stop-color="#D5C8B5"/>
<stop offset="0.6209" stop-color="#A09277"/>
<stop offset="0.7437" stop-color="#847B60"/>
<stop offset="0.8606" stop-color="#736950"/>
<stop offset="0.942708" stop-color="#A09277"/>
</radialGradient>
<linearGradient id="paint1_linear_168_73121" x1="2.39359" y1="28.627" x2="57.4866" y2="28.627" gradientUnits="userSpaceOnUse">
<stop offset="0.0111732" stop-color="#D7CAB7"/>
<stop offset="0.2983" stop-color="#E1DAC0"/>
<stop offset="0.695" stop-color="#EDE0CE"/>
<stop offset="0.8659" stop-color="#C3B6A2"/>
<stop offset="1" stop-color="#9A968B"/>
</linearGradient>
<linearGradient id="paint2_linear_168_73121" x1="2.21831" y1="22.4355" x2="69.8808" y2="22.4355" gradientUnits="userSpaceOnUse">
<stop offset="0.00558659" stop-color="#FFB80B"/>
<stop offset="0.388" stop-color="#FFB60C"/>
<stop offset="0.5789" stop-color="#FEAE10"/>
<stop offset="0.7274" stop-color="#FCA117"/>
<stop offset="0.8539" stop-color="#FA8E21"/>
<stop offset="0.9655" stop-color="#F7762E"/>
<stop offset="1" stop-color="#F66D33"/>
</linearGradient>
<radialGradient id="paint3_radial_168_73121" cx="0" cy="0" r="1" gradientUnits="userSpaceOnUse" gradientTransform="translate(8.15824 58.0515) scale(19.4525 20.1346)">
<stop offset="0.00558659" stop-color="#FFB80B"/>
<stop offset="0.388" stop-color="#FFB60C"/>
<stop offset="0.5789" stop-color="#FEAE10"/>
<stop offset="0.7274" stop-color="#FCA117"/>
<stop offset="0.8539" stop-color="#FA8E21"/>
<stop offset="0.9655" stop-color="#F7762E"/>
<stop offset="1" stop-color="#F66D33"/>
</radialGradient>
<linearGradient id="paint4_linear_168_73121" x1="0.914547" y1="51.3363" x2="80.2487" y2="51.3363" gradientUnits="userSpaceOnUse">
<stop offset="0.00558659" stop-color="#FFB80B"/>
<stop offset="0.388" stop-color="#FFB60C"/>
<stop offset="0.5789" stop-color="#FEAE10"/>
<stop offset="0.7274" stop-color="#FCA117"/>
<stop offset="0.8539" stop-color="#FA8E21"/>
<stop offset="0.9655" stop-color="#F7762E"/>
<stop offset="1" stop-color="#F66D33"/>
</linearGradient>
</defs>
</svg>
