<svg width="72" height="72" viewBox="0 0 72 72" fill="none" xmlns="http://www.w3.org/2000/svg">
<path opacity="0.92" fill-rule="evenodd" clip-rule="evenodd" d="M71.6226 36.2317C71.6226 46.4322 67.3203 55.5918 60.3812 62.0452C57.0504 65.0984 53.1645 67.5965 48.8623 69.1925C44.9764 70.6497 40.7435 71.4824 36.3719 71.4824C34.7759 71.4824 33.2493 71.3436 31.7227 71.2048C30.3348 70.9966 28.947 70.7885 27.6286 70.4415C24.4366 69.6088 21.4528 68.3598 18.6771 66.7638C16.9423 65.7229 15.2769 64.6127 13.6809 63.2942C10.0032 60.241 7.0194 56.4245 4.86827 52.1916C3.48045 49.4854 2.50897 46.6403 1.81506 43.5871C1.32932 41.2278 1.05176 38.7991 1.05176 36.3011C1.05176 29.3619 3.0641 22.8392 6.53366 17.3573C7.99088 15.0674 9.72565 12.9162 11.738 10.9733C18.122 4.79747 26.7959 0.980957 36.3025 0.980957C37.0658 0.980957 37.8291 0.980951 38.5924 1.05034C42.6171 1.32791 46.4336 2.22999 49.9725 3.68721C50.597 3.96477 51.2216 4.24234 51.7767 4.5199C54.3442 5.76894 56.7035 7.29555 58.8546 9.16911C59.6179 9.79363 60.3118 10.4182 60.9363 11.0427C61.2139 11.2509 61.4221 11.5284 61.6302 11.806C67.8755 18.1206 71.6226 26.7251 71.6226 36.2317Z" fill="url(#paint0_radial_168_74990)"/>
<path fill-rule="evenodd" clip-rule="evenodd" d="M71.744 36.3986C71.744 46.5082 67.4056 55.5847 60.4492 62.0047C57.1581 65.0302 53.1937 67.4653 48.9301 69.0888C45.0405 70.5646 40.7769 71.3763 36.3637 71.3763C34.7929 71.3763 33.2221 71.3025 31.7262 71.0811C30.305 70.9335 28.9586 70.6384 27.6122 70.2694C24.3958 69.4577 21.4038 68.2032 18.6362 66.6536C16.841 65.6205 15.1954 64.5136 13.6246 63.1853C9.95945 60.1599 6.89266 56.3964 4.72347 52.1902C3.37708 49.5337 2.32989 46.6558 1.65669 43.6303C1.13309 41.269 0.908691 38.9076 0.908691 36.3986C0.908691 29.4621 2.92828 23.0422 6.44387 17.6553C7.93986 15.3678 9.66025 13.2278 11.6798 11.3092C18.0378 5.18438 26.7894 1.42096 36.3637 1.42096C37.1117 1.42096 37.9345 1.42096 38.6825 1.49476C42.7217 1.78993 46.5365 2.67543 50.0521 4.15128C50.6505 4.37266 51.2489 4.66783 51.8473 4.963C54.3905 6.21748 56.784 7.76712 59.028 9.53814C59.776 10.1285 60.4492 10.7926 61.1224 11.4568C61.3468 11.6781 61.646 11.8995 61.8704 12.1947C68.004 18.467 71.744 27.027 71.744 36.3986Z" fill="url(#paint1_radial_168_74990)"/>
<path d="M69.9793 25.4673C68.3066 20.4433 65.51 15.9163 61.8707 12.1947C61.7185 11.9945 61.532 11.8283 61.3576 11.6729C61.2749 11.5992 61.1949 11.528 61.1227 11.4568C60.4495 10.7926 59.7763 10.1285 59.0283 9.53814C56.7843 7.76712 54.3908 6.21748 51.8476 4.963C51.2492 4.66785 50.6507 4.37265 50.0524 4.15128C46.5368 2.67543 42.722 1.78993 38.6828 1.49476C37.9348 1.42096 37.112 1.42096 36.364 1.42096C26.7897 1.42096 18.0381 5.18438 11.6802 11.3092C9.66056 13.2278 7.94017 15.3678 6.44417 17.6553C3.88263 21.5803 2.1153 26.0538 1.34473 30.8759C2.98885 33.2878 9.4445 30.4897 17.6405 26.9373C22.7304 24.7312 28.4916 22.2341 34.1883 20.5133C48.3201 16.1905 59.9026 22.1563 65.7076 25.1462C67.6658 26.1548 68.9665 26.8247 69.4859 26.6469C69.8554 26.5288 70.0158 26.1128 69.9793 25.4673Z" fill="url(#paint2_linear_168_74990)"/>
<path opacity="0.4" d="M60.4495 62.0047C67.4059 55.5847 71.7443 46.5082 71.7443 36.3986C71.7443 27.027 68.0043 18.467 61.8707 12.1947C61.741 12.024 61.5862 11.878 61.4354 11.7424C61.446 11.7684 61.4551 11.792 61.4622 11.813C61.5122 12.1105 61.4949 12.4413 61.4783 12.7606C61.4701 12.916 61.4622 13.0687 61.4622 13.2135C61.4622 13.3978 61.4064 13.5636 61.3507 13.7295C61.2949 13.8953 61.2392 14.0611 61.2392 14.2454C61.2392 14.2885 61.242 14.3344 61.2449 14.3815C61.2569 14.5759 61.27 14.7901 61.0905 14.9088C60.9418 14.6877 60.6445 14.3191 60.4215 14.2454C60.1996 14.1354 59.9409 14.1531 59.6729 14.1714C59.4022 14.1899 59.122 14.2091 58.8605 14.098C58.7194 14.042 58.5775 13.986 58.4352 13.9298C57.0788 13.3943 55.6787 12.8417 54.4005 12.1079C53.7315 11.7025 53.1926 11.1497 52.6537 10.5968C52.1148 10.044 51.5758 9.49121 50.9068 9.08581C50.3942 8.83166 49.8463 8.89299 49.2873 8.95554C49.0358 8.9837 48.782 9.0121 48.5282 9.0121C47.9314 9.05762 47.3629 9.1875 46.8053 9.3149C46.46 9.39377 46.1189 9.4717 45.7779 9.52807C45.4712 9.58335 45.1646 9.60754 44.858 9.63172C44.3469 9.67203 43.8359 9.71234 43.3249 9.89661C42.8511 10.0532 42.4043 10.2364 41.9614 10.4179C41.3619 10.6637 40.7698 10.9064 40.1285 11.076C39.9199 11.1277 39.7204 11.1975 39.5236 11.2665C39.1596 11.394 38.8049 11.5182 38.4189 11.5182C38.1711 11.5673 37.9233 11.5509 37.6755 11.5346C37.5516 11.5264 37.4277 11.5182 37.3039 11.5182C36.9817 11.5428 36.6596 11.5755 36.3375 11.6083C35.6933 11.6738 35.0491 11.7393 34.4049 11.7393C33.2155 11.7393 32.1005 11.7393 30.9112 11.5919C30.682 11.5635 30.4445 11.5296 30.2018 11.495C29.1857 11.35 28.0803 11.1923 27.1202 11.3708C26.6742 11.4813 26.191 11.6103 25.7078 11.7393C25.2247 11.8683 24.7415 11.9973 24.2955 12.1079C23.7227 12.2215 23.3705 12.554 23.001 12.9029C22.891 13.0068 22.7795 13.1121 22.6602 13.2135C22.2885 13.582 21.7682 13.9506 21.3222 14.2454C20.9848 14.5242 20.69 14.5921 20.3412 14.6724C20.2289 14.6983 20.1109 14.7255 19.9842 14.7614C19.786 14.8105 19.5795 14.8515 19.373 14.8924C18.96 14.9743 18.5471 15.0562 18.2002 15.2036C17.8212 15.3647 17.4816 15.5649 17.124 15.7756C16.9907 15.8542 16.8549 15.9343 16.7135 16.0144C15.5985 16.5304 14.4092 17.12 13.4429 17.8571C12.4022 18.6679 11.5845 19.3313 11.2129 20.5843C10.8412 21.9848 11.0642 23.6064 11.5845 24.9331C12.1049 26.2599 12.9225 27.2918 13.8145 28.3237C13.8566 28.3654 13.9001 28.4071 13.9441 28.4492C14.2111 28.7049 14.4941 28.9759 14.5579 29.3556C14.6074 29.5522 14.5909 29.7488 14.5744 29.9453C14.5661 30.0436 14.5579 30.1419 14.5579 30.2402C14.5579 30.6413 14.5187 31.0328 14.4795 31.4251C14.4106 32.114 14.3415 32.8056 14.4835 33.557C14.6818 34.4907 15.0121 35.3588 15.3425 36.2269C15.5077 36.661 15.6729 37.095 15.8215 37.5373C16.0416 38.1045 16.2876 38.6459 16.5289 39.1767C16.6952 39.5426 16.8592 39.9036 17.0109 40.2645C17.033 40.3156 17.055 40.3674 17.0773 40.4197C17.2802 40.8958 17.501 41.4139 17.9029 41.8124C17.9784 41.8873 18.0539 41.9574 18.1282 42.0264C18.3465 42.229 18.5542 42.4219 18.7205 42.6969C18.783 42.7743 18.8422 42.8518 18.9009 42.9285C19.1215 43.2171 19.3346 43.4959 19.6869 43.7288C20.3113 44.1268 20.8554 44.6044 21.3995 45.0821C21.7623 45.4005 22.125 45.7189 22.5115 46.0138C22.9751 46.3815 23.4675 46.5199 23.9708 46.6613C24.2746 46.7467 24.5824 46.8332 24.8902 46.972C25.076 47.0457 25.2247 47.1562 25.3734 47.2668C25.522 47.3774 25.6707 47.4879 25.8565 47.5616C26.2282 47.7091 26.5999 47.8565 26.9715 47.9302C27.2224 48.0013 27.4733 48.0381 27.7159 48.0736C27.9764 48.1119 28.2272 48.1487 28.4582 48.225C28.5573 48.2496 28.6564 48.2823 28.7555 48.3151C28.9537 48.3806 29.152 48.4461 29.3502 48.4461C30.0935 48.5198 30.9855 48.2987 31.7289 48.0776C32.165 47.9112 32.5557 47.6999 32.942 47.4909C33.4116 47.2368 33.8747 46.9863 34.4049 46.8245C34.6731 46.7359 34.9145 46.7272 35.1613 46.7183C35.3249 46.7125 35.4908 46.7065 35.6685 46.6771C36.1698 46.615 36.6711 46.3957 37.1279 46.1959C37.2129 46.1587 37.2965 46.1222 37.3782 46.0875C37.6265 45.9336 37.8489 45.7411 38.0725 45.5476C38.3842 45.2778 38.6982 45.0061 39.0879 44.8344C39.6082 44.6133 40.1285 44.5396 40.7232 44.5396C40.8173 44.5396 40.9114 44.549 41.0043 44.5584C41.2783 44.5859 41.5418 44.6123 41.7639 44.3922C41.8985 44.292 41.9875 44.1465 42.079 43.9967C42.1895 43.8158 42.3039 43.6286 42.5072 43.5077C42.755 43.3603 43.0027 43.3439 43.2505 43.3275C43.3744 43.3193 43.4983 43.3111 43.6222 43.2865C44.1791 43.1761 44.3605 42.5277 44.5102 41.9925C44.5604 41.8134 44.6069 41.6469 44.6629 41.5175L45.7779 39.0852C45.8251 38.9822 45.8723 38.8816 45.9187 38.7826C46.2379 38.1023 46.5212 37.4986 46.5212 36.7265C46.5212 36.4808 46.5873 36.2351 46.6533 35.9894C46.6864 35.8665 46.7194 35.7437 46.7442 35.6209C46.7442 35.3766 46.6932 35.1829 46.6334 34.956C46.621 34.9091 46.6083 34.8606 46.5955 34.8101C46.5132 34.5243 46.3853 34.2612 46.2623 34.0082C46.1631 33.8043 46.0672 33.6069 46.0008 33.4096C45.8807 33.1118 45.7606 32.9583 45.6012 32.7548C45.5633 32.7065 45.5233 32.6554 45.4805 32.5988C45.356 32.4753 45.2778 32.3289 45.1942 32.1722C45.1281 32.0484 45.0587 31.9182 44.9602 31.788C44.5682 31.2698 44.2337 31.0362 43.8051 30.737C43.7461 30.6958 43.6852 30.6533 43.6222 30.6087C43.5097 30.529 43.411 30.4527 43.3188 30.3814C42.9845 30.123 42.7342 29.9294 42.2099 29.8716C41.8754 29.8348 41.5408 29.8532 41.2063 29.8716C40.8718 29.89 40.5374 29.9085 40.2029 29.8716C39.8195 29.8241 39.5288 29.654 39.2312 29.4799C39.0672 29.384 38.9011 29.2868 38.7162 29.2082C38.5991 29.1584 38.4932 29.1087 38.3928 29.0614C38.0469 28.8987 37.7647 28.766 37.3039 28.766C37.16 28.766 37.0049 28.7547 36.8446 28.7431C36.4251 28.7126 35.9707 28.6797 35.5942 28.8397C35.4254 28.9234 35.2885 29.0282 35.1554 29.1301C34.9368 29.2975 34.7283 29.4573 34.4049 29.5031C34.2394 29.5236 34.0855 29.5327 33.9367 29.5415C33.5506 29.5643 33.1988 29.5851 32.7695 29.7979C32.5353 29.9306 32.3011 30.0335 32.0736 30.1333C31.7958 30.2553 31.5281 30.3729 31.2829 30.535C31.1701 30.6245 31.0231 30.7207 30.8688 30.8217C30.5148 31.0535 30.1227 31.3102 30.0192 31.5669C29.9368 31.7711 29.9686 32.0659 30.0006 32.3633C30.0264 32.6027 30.0523 32.8439 30.0192 33.0411C29.9903 33.2699 29.9279 33.4988 29.8666 33.7233C29.77 34.0774 29.6764 34.4206 29.7219 34.7363C29.7849 35.1737 29.9547 35.5581 30.1408 35.9794C30.1743 36.0551 30.2082 36.1319 30.2422 36.2105C30.2549 36.2483 30.2676 36.285 30.28 36.3208C30.4125 36.7037 30.5078 36.9791 30.1679 37.3161C29.8705 37.6847 29.7219 37.9058 29.8705 38.4218C30.3165 39.6748 31.2829 39.8222 32.4722 39.7485C32.7237 39.7485 32.9578 39.6624 33.1997 39.5735C33.4584 39.4784 33.7259 39.38 34.0332 39.38C34.3428 39.3459 34.6364 39.4065 34.9289 39.4668C35.2684 39.5369 35.6064 39.6066 35.9659 39.5274C36.4118 39.4537 36.8579 39.38 37.2295 39.0852C37.5268 38.7903 37.8242 38.4955 38.1959 38.2744C38.2447 38.2453 38.291 38.2188 38.3349 38.1936C38.6249 38.0275 38.8101 37.9214 38.9392 37.5373C39.0135 37.353 39.0693 37.1872 39.125 37.0213C39.1808 36.8555 39.2365 36.6896 39.3109 36.5054C39.3417 36.4288 39.3791 36.3426 39.4188 36.2509C39.5703 35.9013 39.7569 35.4706 39.7569 35.1786C39.7569 34.8867 39.477 34.5485 39.2498 34.2739C39.1902 34.2019 39.1342 34.1343 39.0879 34.073C38.5675 33.4096 37.8985 32.8199 37.0065 32.8936C36.9817 32.8986 36.9485 32.9048 36.9083 32.9124C36.3479 33.018 34.4247 33.3802 34.7022 33.9993C34.7022 34.0835 34.7993 34.1677 34.8964 34.252C34.9692 34.3152 35.042 34.3783 35.0739 34.4415C35.1775 34.5443 35.245 34.7187 35.3016 34.8649C35.3262 34.9284 35.3487 34.9866 35.3712 35.0312C35.391 35.0804 35.4096 35.1283 35.4277 35.1751C35.545 35.4785 35.6438 35.7339 35.9659 35.9894C36.3375 36.2842 36.6349 36.2842 37.1552 36.2842C37.2069 36.2842 37.2707 36.2922 37.339 36.3007C37.5652 36.3288 37.8414 36.3632 37.8985 36.1368C37.8985 36.5753 37.4463 36.7285 37.0311 36.8692C36.8879 36.9176 36.7492 36.9646 36.6349 37.0213C36.1145 37.3161 35.4455 37.6847 34.7765 37.611C33.8102 37.4636 33.6615 36.5054 33.9589 35.6946C34.1075 35.3997 34.2562 35.0312 34.0332 34.7363C33.8699 34.5744 33.5073 34.4915 33.2373 34.4298C33.1386 34.4073 33.0522 34.3875 32.9925 34.3678C32.1749 33.9993 31.8775 33.2622 32.0262 32.4514C32.1005 32.0092 32.6952 31.2721 33.0669 31.1246C33.214 31.0955 33.3378 31.0894 33.4568 31.0835C33.6384 31.0746 33.8087 31.0663 34.0332 30.9772C34.8509 30.6087 35.5942 30.3876 36.4862 30.3876C37.0336 30.3876 37.5004 30.5075 37.9756 30.6296C38.1457 30.6733 38.3169 30.7172 38.4932 30.7561C38.9392 30.9035 39.2365 30.9772 39.6825 30.9772C39.8013 30.9772 39.9354 30.9697 40.0749 30.9619C40.3717 30.9452 40.6933 30.9271 40.9462 30.9772C41.6322 31.0819 41.9436 31.7808 42.226 32.4149C42.3415 32.674 42.4521 32.9223 42.5815 33.1148C42.6906 33.2499 42.7896 33.3851 42.886 33.5166C43.0524 33.7437 43.2109 33.96 43.3992 34.1467C43.5158 34.2623 43.6616 34.3851 43.816 34.5152C44.154 34.7999 44.5331 35.1193 44.7372 35.4734C44.8858 35.842 44.9602 36.5054 44.7372 36.8739C44.4398 37.1687 43.9195 37.2425 43.5479 37.2425C43.4442 37.2425 43.3451 37.238 43.2505 37.2337C42.8023 37.2135 42.4554 37.1978 42.2099 37.6847C42.1281 37.8468 42.0688 38.0535 42.0073 38.268C41.957 38.4436 41.9051 38.6244 41.8382 38.7903C41.8174 38.8315 41.7909 38.9129 41.7585 39.012C41.675 39.2679 41.5529 39.6423 41.3922 39.7485C41.208 39.8398 41.0524 39.7615 40.9076 39.6886C40.8186 39.6438 40.7337 39.6011 40.6489 39.6011C40.3515 39.5274 40.1285 39.6748 39.9056 39.8222C39.563 40.026 39.4098 40.2299 39.2134 40.4914C39.1967 40.5136 39.1797 40.5362 39.1622 40.5593C38.7162 41.149 38.3445 41.5175 37.7499 41.9598C36.8579 42.6969 35.8172 43.1391 34.6279 42.9917C34.1075 42.918 33.5872 42.8443 33.1412 42.6232C32.7665 42.4639 32.3917 42.3811 31.9893 42.2922C31.8329 42.2576 31.6723 42.2222 31.5059 42.1809C30.3909 41.9598 29.4245 41.2964 28.5325 40.633C28.4755 40.5906 28.4239 40.5509 28.3752 40.5134C28.17 40.3553 28.0152 40.2362 27.7149 40.1171C27.6034 40.0434 27.5105 40.0249 27.4175 40.0065C27.3246 39.9881 27.2317 39.9697 27.1202 39.8959C26.898 39.7197 26.729 39.4118 26.5654 39.1139C26.4554 38.9134 26.3478 38.7174 26.2282 38.5692C25.7079 37.9058 25.3362 37.3162 25.2619 36.5054C25.212 36.0605 25.229 35.5824 25.2457 35.1156C25.2538 34.8864 25.2619 34.66 25.2619 34.4415C25.2619 33.1885 25.2619 32.0829 25.8565 30.9772C26.0128 30.7293 26.1428 30.4943 26.2686 30.267C26.442 29.9536 26.6075 29.6546 26.8229 29.3556C27.0613 29.0516 27.2373 28.7012 27.4153 28.3468C27.6257 27.928 27.8387 27.5037 28.1609 27.1444C28.5325 26.7021 29.1272 26.2599 29.6475 26.0388C30.1528 25.8718 30.7057 25.7993 31.2523 25.7278C31.6707 25.673 32.0854 25.6187 32.4722 25.5228C33.5567 25.2539 34.5621 24.9066 35.5461 24.5667C35.911 24.4407 36.2729 24.3157 36.6349 24.196C37.9168 23.742 39.0296 24.3507 40.1642 24.9712C40.8717 25.3582 41.5877 25.7498 42.3585 25.8913C43.3502 26.0701 44.0412 26.6555 44.7465 27.253C45.2042 27.6408 45.668 28.0336 46.2239 28.3237C46.7011 28.6195 47.0826 29.0103 47.4453 29.3817C47.5344 29.473 47.6225 29.5632 47.7105 29.6505C47.7611 29.7173 47.8117 29.788 47.8631 29.8599C48.0385 30.1049 48.224 30.364 48.4538 30.535C48.6272 30.7069 48.8511 30.8537 49.0813 31.0047C49.246 31.1127 49.4139 31.2228 49.5689 31.3458C49.829 31.5669 50.052 31.8065 50.275 32.046C50.498 32.2856 50.721 32.5251 50.9812 32.7462C51.3528 33.0411 51.6502 33.3359 51.7988 33.7781C51.9677 34.1968 52.158 34.6261 52.3493 35.0579C52.6632 35.7664 52.9803 36.4818 53.2112 37.1687C53.5085 37.8321 53.7315 38.3481 53.7315 39.0852C53.6943 39.4537 53.62 39.8222 53.5457 40.1908C53.4713 40.5593 53.397 40.9279 53.3598 41.2964C53.2793 41.8287 53.2376 42.361 53.1961 42.8898C53.1227 43.8256 53.0501 44.7504 52.7652 45.6452C52.7528 45.682 52.7405 45.7188 52.7281 45.7558C52.4424 46.6087 52.1396 47.5124 51.4272 48.0776C50.9917 48.4662 50.4798 48.6777 49.966 48.89C49.6027 49.0402 49.2385 49.1906 48.8998 49.4043C48.1565 49.7729 47.5619 50.2888 47.4132 51.0996C47.376 51.2655 47.3435 51.4313 47.311 51.5972C47.2134 52.0947 47.1159 52.5922 46.8929 53.0898C46.108 54.6464 44.7403 55.5288 43.3668 56.415C42.6591 56.8717 41.9498 57.3294 41.3179 57.8808C40.3515 58.6916 39.3852 59.6498 38.5675 60.608C38.5059 60.6779 38.4422 60.7519 38.3764 60.8283C37.8866 61.3969 37.2813 62.0997 36.5605 62.2296C36.4614 62.2542 36.3623 62.2624 36.2632 62.2706C36.065 62.2869 35.8667 62.3033 35.6685 62.4507C35.4949 62.6229 35.5015 62.7503 35.513 62.9722C35.5162 63.0353 35.5199 63.1062 35.5199 63.1878C35.5199 64.5883 33.6615 65.0305 32.5465 65.178C30.2009 65.4228 27.9579 66.0234 25.6471 66.6421C25.1751 66.7685 24.7003 66.8956 24.2212 67.0207C23.6265 67.1681 23.0505 67.3339 22.4744 67.4998C22.0017 67.6358 21.529 67.7719 21.0461 67.8978C23.1198 68.8793 25.3085 69.688 27.6125 70.2694C28.9589 70.6384 30.3053 70.9335 31.7265 71.0811C33.2224 71.3025 34.7932 71.3763 36.364 71.3763C40.7772 71.3763 45.0408 70.5646 48.9304 69.0887C53.194 67.4653 57.1583 65.0301 60.4495 62.0047Z" fill="url(#paint3_radial_168_74990)"/>
<path opacity="0.3" fill-rule="evenodd" clip-rule="evenodd" d="M14.4443 46.224C14.2361 46.918 14.1667 47.6813 14.0973 48.4446C14.3055 48.3752 14.5831 48.8609 14.7912 48.9303C15.2076 49.0691 15.5546 49.0691 15.9015 49.2773C16.2485 49.4854 16.5954 49.9712 16.9424 50.0406C17.1505 50.1099 17.4975 50.0406 17.7751 50.0406C18.3302 50.0406 18.8159 50.0406 19.3017 50.1793C19.8568 50.3181 20.5507 50.4569 21.1058 50.3875C21.4528 50.3181 22.0773 50.1794 22.3549 49.9018C22.6324 49.6242 22.7712 48.9303 22.8406 48.514C22.91 47.3343 22.0079 46.1547 21.1058 45.4608C20.6201 45.1138 20.1344 45.1138 19.5792 44.8362C18.9547 44.4893 18.3996 44.3505 17.7057 44.1423C17.2893 44.0035 16.7342 43.8647 16.3179 43.8647C15.9015 43.8647 15.4158 44.1423 15.0688 44.2117C14.6525 44.3505 14.3055 44.3505 14.0279 44.6974C13.7504 45.1832 13.8892 45.7383 14.4443 46.224Z" fill="url(#paint4_linear_168_74990)"/>
<path opacity="0.3" fill-rule="evenodd" clip-rule="evenodd" d="M23.743 50.3875C23.5348 50.665 21.5919 52.3304 22.5633 53.0243C22.6327 53.0937 23.0491 53.1631 23.1185 53.1631C23.396 53.2325 23.4654 53.1631 23.743 53.0243C24.2287 52.7468 24.2981 52.261 24.1593 51.7059C24.1593 51.5671 24.0206 51.2895 23.9512 51.1508C23.8818 50.9426 23.6736 50.9426 23.6042 50.665L23.743 50.3875Z" fill="url(#paint5_linear_168_74990)"/>
<path opacity="0.3" fill-rule="evenodd" clip-rule="evenodd" d="M34.9146 7.78132C35.2616 7.57314 36.3718 6.94863 36.9963 6.87924C37.2045 6.87924 37.4821 6.94862 37.6902 6.94862C38.176 6.94862 38.5923 6.87924 38.9393 7.22619C39.2168 7.50376 39.3556 7.78132 39.1475 8.12827C38.8699 8.61401 38.176 8.96097 37.6902 9.16914C36.6494 9.79366 35.2615 10.3488 34.0125 10.21C33.041 10.1406 32.1389 9.37732 31.2369 8.89158C30.6123 8.54462 29.4327 7.9201 30.196 7.1568C30.8205 6.53228 31.792 6.18532 32.6941 6.11593C33.1104 6.11593 34.0819 5.97715 34.3595 6.18533C34.7064 6.46289 34.3595 7.57315 35.0534 7.50376L34.9146 7.78132Z" fill="url(#paint6_linear_168_74990)"/>
<path opacity="0.5" fill-rule="evenodd" clip-rule="evenodd" d="M1.39893 41.1586L2.50918 46.2935C2.50918 46.2935 8.61561 49.9019 22.8408 48.5834C37.066 47.265 40.3968 40.3259 45.9481 36.3012C51.4994 32.2765 62.255 29.0845 65.0306 25.8925C67.8063 22.7699 65.447 16.4553 65.447 16.4553L64.3367 14.9287C64.3367 14.9287 66.3491 20.3412 63.9204 24.2965C61.5611 28.2518 50.9442 30.1254 45.1848 35.1909C39.4253 40.2565 27.6982 44.1424 17.6365 44.2118C7.78292 44.2812 1.39893 41.1586 1.39893 41.1586Z" fill="#BDFFE8" fill-opacity="0.5"/>
<path opacity="0.5" fill-rule="evenodd" clip-rule="evenodd" d="M6.11768 54.4815L8.33819 57.7429C8.33819 57.7429 18.5387 60.7267 33.8741 57.7429C49.2096 54.759 60.7979 46.0852 66.141 41.1584C71.5536 36.2316 70.8596 29.3619 70.8596 29.3619L70.3739 27.2802C70.3739 27.2802 69.4024 34.4274 63.4348 41.1584C57.4671 47.8893 47.4748 53.9958 33.1108 56.4938C18.8163 59.0613 6.11768 54.4815 6.11768 54.4815Z" fill="#BDFFE8" fill-opacity="0.5"/>
<path opacity="0.5" fill-rule="evenodd" clip-rule="evenodd" d="M3.48047 23.4636C3.48047 23.4636 23.5345 30.3334 39.0087 27.2802C54.483 24.2963 58.6464 14.304 58.924 9.16906L56.079 7.01794C56.079 7.01794 56.1484 17.2878 46.3642 23.533C36.5801 29.7089 11.4605 26.0311 4.72951 20.688L3.48047 23.4636Z" fill="#BDFFE8" fill-opacity="0.5"/>
<path opacity="0.5" fill-rule="evenodd" clip-rule="evenodd" d="M5.6316 35.5377C5.83978 36.7868 8.61542 35.052 10.7666 30.8885C12.8483 26.7251 13.2646 18.0512 12.1544 17.3573C11.1135 16.5246 4.105 27.0026 5.6316 35.5377Z" fill="white"/>
<path opacity="0.5" fill-rule="evenodd" clip-rule="evenodd" d="M5.84012 37.3419C4.38291 37.6195 4.4523 40.4645 5.35438 41.6442C6.25647 42.8238 7.43612 42.2687 7.50551 39.7706C7.5749 38.3134 7.01977 37.1337 5.84012 37.3419Z" fill="white"/>
<path opacity="0.5" fill-rule="evenodd" clip-rule="evenodd" d="M47.4746 4.3811C47.4746 4.3811 48.8624 4.72806 49.2788 6.60162C49.2788 6.67101 47.891 6.25467 47.4746 4.3811Z" fill="white"/>
<path opacity="0.5" fill-rule="evenodd" clip-rule="evenodd" d="M21.8691 5.00573C21.8691 5.00573 22.91 3.7567 24.9917 3.20157C26.6571 2.78522 27.6286 2.85461 27.9756 2.78522C27.9756 2.78522 24.4366 5.21391 21.8691 5.00573Z" fill="white"/>
<defs>
<radialGradient id="paint0_radial_168_74990" cx="0" cy="0" r="1" gradientUnits="userSpaceOnUse" gradientTransform="translate(36.3397 36.2415) scale(35.2781 35.2781)">
<stop stop-color="#004858"/>
<stop offset="1" stop-color="#008BAB"/>
</radialGradient>
<radialGradient id="paint1_radial_168_74990" cx="0" cy="0" r="1" gradientUnits="userSpaceOnUse" gradientTransform="translate(26.2868 26.4914) scale(51.9805 51.2807)">
<stop offset="0.00558659" stop-color="#00CEC0"/>
<stop offset="0.2576" stop-color="#00CCC0"/>
<stop offset="0.3833" stop-color="#00C4C1"/>
<stop offset="0.4811" stop-color="#00B7C2"/>
<stop offset="0.5645" stop-color="#00A4C4"/>
<stop offset="0.6387" stop-color="#008CC6"/>
<stop offset="0.7054" stop-color="#006EC8"/>
<stop offset="0.729167" stop-color="#0068C9"/>
<stop offset="0.770833" stop-color="#0767CB"/>
<stop offset="0.854167" stop-color="#1A66CF"/>
<stop offset="1" stop-color="#3A63D6"/>
</radialGradient>
<linearGradient id="paint2_linear_168_74990" x1="14.8484" y1="6.22185" x2="49.5695" y2="52.6717" gradientUnits="userSpaceOnUse">
<stop offset="0.0167598" stop-color="#B1FDF9"/>
<stop offset="1" stop-color="#37C7D1" stop-opacity="0"/>
</linearGradient>
<radialGradient id="paint3_radial_168_74990" cx="0" cy="0" r="1" gradientUnits="userSpaceOnUse" gradientTransform="translate(42.2293 40.8912) scale(31.6838 31.4175)">
<stop stop-color="#1372B3"/>
<stop offset="1" stop-color="white"/>
</radialGradient>
<linearGradient id="paint4_linear_168_74990" x1="13.9078" y1="47.1604" x2="22.8511" y2="47.1604" gradientUnits="userSpaceOnUse">
<stop stop-color="#B8C2FF"/>
<stop offset="1" stop-color="#7D72B3"/>
</linearGradient>
<linearGradient id="paint5_linear_168_74990" x1="22.2602" y1="51.7987" x2="24.1027" y2="51.7987" gradientUnits="userSpaceOnUse">
<stop stop-color="#B8C2FF"/>
<stop offset="1" stop-color="#7D72B3"/>
</linearGradient>
<linearGradient id="paint6_linear_168_74990" x1="30.0054" y1="8.2239" x2="39.2664" y2="8.2239" gradientUnits="userSpaceOnUse">
<stop stop-color="#B8C2FF"/>
<stop offset="1" stop-color="#7D72B3"/>
</linearGradient>
</defs>
</svg>
