<svg width="81" height="80" viewBox="0 0 81 80" fill="none" xmlns="http://www.w3.org/2000/svg">
<path fill-rule="evenodd" clip-rule="evenodd" d="M80.2485 39.9999C80.2485 43.7974 79.7453 47.5949 78.655 51.0548C76.6423 58.1434 72.7846 64.3881 67.5011 69.2826C63.8111 72.7425 59.3663 75.5274 54.5022 77.3839C50.1413 79.0717 45.361 79.9999 40.4131 79.9999C39.7421 79.9999 38.9874 79.9999 38.3165 79.9156C37.3101 79.8312 36.2198 79.7468 35.2135 79.6624C27.5819 78.6497 20.5373 75.443 14.9184 70.6328C12.8218 68.8607 10.8929 66.8354 9.13176 64.6413C7.8738 62.9535 6.69972 61.2658 5.60949 59.4092C5.3579 58.9873 5.10629 58.5653 4.93856 58.059C4.68697 57.5527 4.43539 57.1307 4.26766 56.6244C3.59675 55.1054 3.0097 53.5021 2.50651 51.8987C2.17105 50.7172 1.83559 49.5358 1.584 48.3544C1.41627 47.5105 1.24855 46.6666 1.16468 45.7383C0.913089 43.8818 0.745361 42.0253 0.745361 40.0843C0.745361 38.9873 0.745372 37.8902 0.9131 36.7932C0.996964 36.1181 1.08082 35.443 1.16468 34.7679C1.66787 30.8016 2.75811 27.0886 4.35153 23.6286C5.10631 21.9409 6.02879 20.2531 7.03516 18.6497C8.71244 16.0337 10.6413 13.5864 12.9056 11.4767C20.0341 4.47249 29.8462 0.168701 40.5808 0.168701C41.0001 0.168701 41.4194 0.168701 41.8387 0.168701C42.2581 0.168701 42.7612 0.168706 43.1806 0.253095C45.4449 0.421871 47.7092 0.759421 49.8058 1.26575C51.0638 1.6033 52.3217 1.94086 53.4958 2.3628C54.3345 2.61596 55.0893 2.95352 55.9279 3.29107C56.5149 3.54424 57.102 3.7974 57.689 4.05056C57.7729 4.13495 57.8568 4.13496 58.0245 4.21935C61.8822 6.07589 65.4045 8.60753 68.4236 11.6455C68.8429 12.0674 69.2623 12.4894 69.6816 12.9957C69.9332 13.3333 70.2686 13.5864 70.5202 13.924C70.9395 14.4303 71.4427 15.021 71.8621 15.5274C73.4555 17.5527 74.7973 19.7468 75.9714 22.0252C77.3132 24.7257 78.4035 27.5949 79.1582 30.5485C79.8292 33.4177 80.2485 36.7088 80.2485 39.9999Z" fill="url(#paint0_radial_168_73184)"/>
<path fill-rule="evenodd" clip-rule="evenodd" d="M57.8568 4.05057C57.689 4.05057 57.6052 4.05058 57.4374 4.13496C57.0181 4.21935 56.5988 4.13496 56.1795 4.05057C55.844 3.96618 55.6763 3.79742 55.257 3.79742C54.7538 3.71303 54.3345 3.54423 53.8313 3.45984C53.3281 3.37545 52.9088 3.20668 52.4056 3.0379C51.9863 2.86912 51.8186 2.95351 51.4831 3.0379C51.1477 3.12229 50.896 2.95353 50.5606 2.86914C50.2251 2.70036 49.8058 2.70036 49.4704 2.61597C48.464 2.4472 47.4576 2.10964 46.4513 1.85647C45.8642 1.6877 45.2772 1.6877 44.6063 1.6877C44.1031 1.6877 43.6837 1.85647 43.1806 1.85647C42.8451 1.85647 42.5935 1.77209 42.2581 1.77209C41.9226 1.6877 41.5872 1.77209 41.2517 1.77209C40.7485 1.6877 40.4969 1.60331 39.9937 1.77209C39.5744 1.85648 39.3228 1.85648 38.9035 1.94087C38.4842 1.94087 37.981 2.10964 37.5617 2.19403C36.8069 2.36281 35.9683 2.53158 35.2135 2.53158C34.7103 2.53158 34.0394 2.3628 33.6201 2.53158C33.3685 2.61597 33.2007 2.95352 32.9491 3.12229C32.5298 3.54424 32.1105 3.88178 31.775 4.30372C31.4396 4.72567 31.1041 5.23201 31.1041 5.82273C31.1041 6.32906 31.3557 6.91976 31.6073 7.3417C31.8589 7.84803 31.9428 8.26997 31.4396 8.60753C30.8526 9.02947 30.0978 9.36703 29.4269 9.6202C28.9237 9.78897 28.5044 9.87336 28.1689 9.5358C28.0012 9.45142 27.9173 9.19825 27.7496 9.02947C27.5819 8.94508 27.3303 9.02947 27.1625 9.11386C26.6593 9.28264 26.1562 9.45142 25.653 9.5358C25.3175 9.62019 25.0659 9.78896 24.7305 9.78896C24.395 9.87335 24.1434 9.6202 23.7241 9.70459C23.2209 9.78898 22.6339 10.0421 22.1307 10.0421C21.7114 10.0421 21.2082 9.87337 20.8727 9.70459C20.705 9.6202 20.6211 9.45142 20.3695 9.5358C20.2018 9.5358 19.9502 9.78897 19.8664 9.95774C19.6986 10.1265 19.6986 10.3797 19.5309 10.5485C19.3632 10.8016 19.2793 10.9704 19.1116 11.2236C18.86 11.6455 18.6084 12.0674 18.3568 12.4894C18.1891 12.7426 18.0214 13.1645 17.7698 13.4177C17.6859 13.5864 17.4343 13.6708 17.2666 13.7552C16.8473 14.0084 16.4279 14.3459 16.0086 14.5991C15.2538 15.1898 14.4991 15.8649 13.7443 16.4556C13.1572 16.8776 12.3186 17.1307 11.6477 17.4683C11.2284 17.6371 10.809 17.8058 10.3897 17.9746C10.222 18.059 9.9704 18.059 9.88653 18.2278C9.71881 18.3966 9.63495 18.5653 9.55108 18.8185C9.21563 19.2404 8.79632 19.7468 8.54473 20.2531C8.377 20.5907 8.29314 20.8438 8.12541 21.1814C7.95768 21.6033 7.70609 22.0253 7.62222 22.5316C7.28677 23.4599 7.28677 24.4725 6.86745 25.4008C6.69972 25.9071 6.36425 26.4134 6.11265 26.9198C5.69333 27.7637 5.60948 28.7763 5.52562 29.7046C5.44176 30.2109 5.52563 30.886 5.60949 31.3923C5.69335 31.9831 5.69333 32.5738 5.69333 33.1645C5.69333 33.7552 5.27402 34.4303 4.93856 34.8523C4.60311 35.2742 4.01605 35.443 3.59673 35.8649C3.26128 36.2025 2.84198 36.54 2.67425 37.0464C2.59039 37.2151 2.67425 37.4683 2.67425 37.7215C2.59039 38.2278 2.42264 38.6497 2.42264 39.1561C2.33878 39.7468 2.33877 40.3375 2.33877 41.0126C2.33877 41.3501 2.33877 41.6033 2.33877 41.9409C2.33877 42.2784 2.42265 42.5316 2.50651 42.7847C2.50651 42.9535 2.50651 43.2067 2.50651 43.3755C2.50651 43.6286 2.67425 43.8818 2.67425 44.0506C2.84198 44.6413 2.92584 45.1476 3.0097 45.7383C3.09356 46.2447 3.34516 46.751 3.42902 47.2573C3.68061 47.9324 3.76448 48.6075 3.93221 49.367C4.01607 49.8734 4.01606 50.4641 4.09992 50.9704C4.18379 51.3924 4.26766 51.8143 4.26766 52.2362C4.26766 52.9113 4.09992 53.502 4.09992 54.1772C4.09992 55.2742 4.51926 56.3712 4.77085 57.4683C4.85471 57.8058 4.93857 58.059 5.02243 58.3966C2.25492 52.9957 0.745361 46.8354 0.745361 40.3375C0.745361 32.405 3.00969 25.0632 6.95129 18.9029C8.62857 16.2869 10.5574 13.8396 12.8218 11.7299C19.9502 4.72568 29.7623 0.421875 40.4969 0.421875C41.3355 0.421875 42.2581 0.42188 43.0967 0.506268C48.3801 0.42188 53.3281 1.85648 57.8568 4.05057Z" fill="url(#paint1_linear_168_73184)"/>
<path fill-rule="evenodd" clip-rule="evenodd" d="M24.2274 54.262C23.6404 52.2366 22.9695 49.8738 22.2986 47.4265C22.8856 49.7894 23.5565 52.0679 24.2274 54.262Z" fill="url(#paint2_linear_168_73184)"/>
<path fill-rule="evenodd" clip-rule="evenodd" d="M23.0531 76.0337C23.0531 76.0337 24.6465 63.7974 25.8206 63.7974C26.7431 63.7974 28.3366 65.654 31.5234 68.1012C32.4459 68.7763 33.4523 69.5358 34.6264 70.2953C35.6327 70.9704 36.8907 71.6455 38.3164 72.3206C40.6646 73.4177 43.4321 74.5991 45.8642 75.5274C49.8058 77.0464 52.9926 78.059 52.9926 78.059L53.5797 77.6371C53.5797 77.6371 50.8121 77.0464 47.1221 75.7805C47.1221 75.7805 50.9799 69.4514 55.9278 63.713C60.8758 57.9746 79.9129 44.4725 79.9129 44.4725L80.0807 42.5316C80.0807 42.5316 74.6295 47.0886 68.5913 51.8987C68.5913 51.8987 72.6167 24.0506 73.8747 19.578L72.6167 19.0717C72.6167 19.0717 69.5976 46.4978 66.3269 53.7552C60.6242 58.3122 54.8376 62.616 53.2442 63.1223C49.638 64.3037 36.3875 53.5865 36.3036 53.5865C35.9682 42.5316 36.2198 30.2109 37.1423 27.0042C50.6444 14.0928 63.6433 7.67926 63.6433 7.67926L63.0563 7.08856C63.0563 7.08856 50.1412 16.2025 49.7219 14.5147C49.3026 12.7426 57.8567 3.96618 57.8567 3.96618L56.8503 3.79742C56.8503 3.79742 47.3737 16.0337 34.2909 28.9451C25.0659 38.059 21.9629 40.8438 20.9565 41.6877C19.2792 32.1519 19.1954 22.1097 21.9629 15.6118C27.1625 3.45987 34.4586 0.675049 34.4586 0.675049C33.2845 0.675049 30.7686 1.26576 30.7686 1.26576C30.7686 1.26576 27.1625 5.56955 25.569 8.1012C24.0595 10.6328 21.9629 15.5274 20.7049 14.7679C19.447 14.0084 15.6731 8.69193 15.6731 8.69193L15.2538 9.11387C15.2538 9.11387 18.8599 12.5738 19.5308 15.1898C20.2017 17.8059 19.6147 34.1772 17.9374 33.5021C16.2601 32.9113 4.51917 22.7848 4.51917 22.7848L4.09985 23.6286C4.09985 23.6286 16.4279 32.0674 17.9374 35.1054C18.6922 36.54 20.5372 42.0253 22.1306 47.4261C21.9629 46.6666 21.3758 43.9662 21.6274 42.8691C25.7368 36.7088 30.4332 33.5864 35.0457 28.9451C36.052 34.6835 36.052 54.8523 35.9682 64.8101L31.3557 67.0886C30.0138 65.8227 28.8397 64.4725 27.9172 62.9535C26.5754 60.675 25.2336 57.6371 24.0595 54.2616C24.7304 56.8776 25.2336 58.8185 25.2336 59.4092C25.2336 61.4346 22.2145 75.7805 22.2145 75.7805L23.0531 76.0337ZM68.5913 51.9831C67.9204 52.5738 67.1656 53.0801 66.4947 53.6708L68.5913 51.9831ZM36.3875 54.0084V54.8523C36.3875 54.5147 36.3875 54.2616 36.3875 54.0084ZM36.3875 54.8523C36.3875 54.8523 49.1348 62.7848 51.2314 64.3037C53.1603 65.654 46.9544 74.0928 46.0319 75.3586C43.5998 74.4303 40.8323 73.3333 38.1487 71.8143C37.31 69.4514 36.723 62.616 36.3875 54.8523ZM36.0521 65.5696C36.0521 68.6075 35.9682 70.5485 35.9682 70.5485C34.6264 69.7046 33.2845 68.6919 32.1104 67.6793C32.9491 66.9198 34.6264 65.7383 36.0521 65.5696Z" fill="url(#paint3_linear_168_73184)"/>
<path fill-rule="evenodd" clip-rule="evenodd" d="M13.2411 50.9706C11.3961 48.2702 0.745361 38.6499 0.745361 38.6499V41.1815C0.745361 41.1815 10.3897 46.9199 12.9895 51.6457C15.5893 56.3714 12.8218 68.8609 12.8218 68.8609L13.8282 69.8735C13.912 69.8735 15.9247 54.9368 13.2411 50.9706Z" fill="url(#paint4_linear_168_73184)"/>
<path opacity="0.3" fill-rule="evenodd" clip-rule="evenodd" d="M31.6917 1.01266C31.6917 1.01266 35.0462 37.2996 36.0526 40.3376C37.059 43.4599 46.0324 49.1139 49.7224 49.789C53.4124 50.4642 62.7214 53.9241 65.1534 53.7553C67.5855 53.6709 78.1523 52.7426 78.1523 52.7426L79.578 47.0042C79.578 47.0042 59.8699 31.6456 52.9092 17.6371C45.9485 3.6287 46.1163 0.337561 46.1163 0.337561L43.0972 0C43.0972 0 50.6449 14.6835 52.9092 21.7722C55.0897 28.9452 64.4825 35.9494 68.6757 40.0844C72.8689 44.2194 71.611 51.3924 66.5791 51.0549C61.4634 50.7173 44.1035 51.73 39.8265 38.481C37.9815 32.7426 36.3042 27.173 35.0462 17.5527C33.6205 8.18566 31.6917 1.01266 31.6917 1.01266Z" fill="url(#paint5_radial_168_73184)"/>
<path opacity="0.3" fill-rule="evenodd" clip-rule="evenodd" d="M2.33827 28.7765C2.33827 28.7765 15.9243 34.0086 21.1238 37.5529C26.3234 41.0972 40.3287 45.1478 43.2639 48.2702C46.1992 51.3925 51.231 57.131 50.8117 59.9158C50.3923 62.6162 32.7809 60.6752 25.7363 58.0592C18.6918 55.4432 6.9508 50.0423 5.35738 47.4263C3.76396 44.8946 0.912598 43.2913 0.912598 43.2913L1.33192 46.92C1.33192 46.92 18.8595 58.5656 21.2077 59.4938C23.5559 60.4221 47.541 64.9791 54.2501 63.7132C54.2501 63.7132 57.4369 61.0128 45.7798 49.3672C41.0835 44.7259 32.6971 40.9284 24.8977 37.3841C13.3245 32.0676 2.58988 27.9326 2.58988 27.9326L2.33827 28.7765Z" fill="url(#paint6_radial_168_73184)"/>
<path opacity="0.3" fill-rule="evenodd" clip-rule="evenodd" d="M50.5609 1.35015C50.5609 1.35015 51.4834 11.7299 54.838 20.2531C58.1925 28.7763 64.7339 30.2109 67.5014 33.4176C70.3528 36.54 77.7328 40.7594 80.1649 39.0717L79.9972 45.6539C79.9972 45.6539 53.4123 35.021 46.0322 0.421875L50.5609 1.35015Z" fill="url(#paint7_radial_168_73184)"/>
<path opacity="0.3" fill-rule="evenodd" clip-rule="evenodd" d="M8.62844 63.8821C8.62844 63.8821 19.9501 60.7597 33.7038 62.8694C51.5668 65.5698 55.3407 66.92 56.9342 68.861C58.5276 70.8019 59.1146 75.3589 59.1146 75.3589L61.0435 74.2618C61.0435 74.2618 60.0371 65.4011 57.9405 63.9665C55.8439 62.5319 38.9872 65.4855 21.2919 59.4939L6.448 60.5909L8.62844 63.8821Z" fill="url(#paint8_radial_168_73184)"/>
<path opacity="0.3" fill-rule="evenodd" clip-rule="evenodd" d="M61.4628 53.0806C60.7081 51.0553 49.638 48.2705 47.793 49.7894C46.2835 51.0553 56.1794 62.5321 58.6115 62.8696C61.0436 63.2072 62.2176 55.1059 61.4628 53.0806ZM57.4374 59.4097C54.586 58.9034 48.0446 52.1523 49.4703 50.8021C50.6444 49.705 59.534 52.5742 60.2049 54.262C60.7919 55.9498 60.2888 60.0004 57.4374 59.4097Z" fill="url(#paint9_radial_168_73184)"/>
<path fill-rule="evenodd" clip-rule="evenodd" d="M37.1421 40.9283C36.3034 37.8904 31.6909 1.0127 31.6909 1.0127L30.8523 1.18148C30.8523 1.18148 38.0646 37.2996 32.0264 38.3123C27.2461 39.1562 2.8417 27.0886 2.8417 27.0886L2.25467 28.8608C2.25467 28.8608 32.6134 38.3967 43.9351 48.3545C47.7928 51.73 51.0635 55.6119 53.7471 59.4093C55.0051 61.1815 53.7471 63.5444 51.6505 63.6287C20.4531 63.8819 1.24829 47.0043 1.24829 47.0043L1.49987 48.3545C1.49987 48.3545 20.537 58.4811 18.6082 59.5781C16.6793 60.6751 5.60923 59.5781 5.60923 59.5781L6.28013 60.7596C6.28013 60.7596 15.1697 60.0001 26.6591 61.6034C36.3873 62.9536 52.7408 64.9789 57.6049 65.5697C60.1208 70.1266 61.3788 73.5865 60.9595 74.346L62.8883 73.1646C59.7854 64.3882 60.4563 54.5148 65.0688 53.9241C69.6813 53.4178 77.313 55.0211 77.313 55.0211L78.0677 52.9114C52.6569 54.0085 38.0646 43.9663 37.1421 40.9283ZM35.968 42.1098C35.2132 42.1098 32.3618 40.0001 32.6973 39.6625C33.0328 39.325 34.7939 35.3587 35.381 35.865C35.968 36.4558 36.6389 42.0254 35.968 42.1098ZM19.7822 59.4093C19.7822 59.4093 19.95 58.8186 20.2016 58.7342C20.4532 58.6498 25.6527 60.422 25.3173 60.6752C25.0657 60.9283 19.7822 60.0844 19.7822 59.4093ZM59.2822 61.6878C57.3533 61.519 45.8639 50.7174 47.7928 49.7891C49.2185 49.114 59.6177 51.5612 60.5402 53.5866C61.3788 55.6119 61.1272 61.8566 59.2822 61.6878Z" fill="url(#paint10_linear_168_73184)"/>
<path fill-rule="evenodd" clip-rule="evenodd" d="M45.0251 0.675214C45.0251 0.675214 47.7927 12.574 58.6111 27.3419C69.4296 42.1098 79.5771 47.0887 79.5771 47.0887L79.9965 44.4727C79.9965 44.4727 70.6875 42.9537 59.7852 28.3545C47.0379 11.3081 47.1217 0.59082 47.1217 0.59082L45.0251 0.675214Z" fill="url(#paint11_linear_168_73184)"/>
<defs>
<radialGradient id="paint0_radial_168_73184" cx="0" cy="0" r="1" gradientUnits="userSpaceOnUse" gradientTransform="translate(15.8693 21.3) scale(70.2263 70.6652)">
<stop offset="0.00558659" stop-color="#FF7263"/>
<stop offset="0.2092" stop-color="#FC6F63"/>
<stop offset="0.3674" stop-color="#F46562"/>
<stop offset="0.5102" stop-color="#E55560"/>
<stop offset="0.6441" stop-color="#D03D5D"/>
<stop offset="0.7704" stop-color="#B6205A"/>
<stop offset="0.8771" stop-color="#9A0057"/>
<stop offset="0.986" stop-color="#9A00AE"/>
</radialGradient>
<linearGradient id="paint1_linear_168_73184" x1="0.743852" y1="29.0315" x2="57.897" y2="29.0315" gradientUnits="userSpaceOnUse">
<stop offset="0.0111732" stop-color="#FF9D85"/>
<stop offset="0.2899" stop-color="#FF9A84"/>
<stop offset="0.4943" stop-color="#FF917F"/>
<stop offset="0.6749" stop-color="#FF8178"/>
<stop offset="0.8407" stop-color="#FF6A6E"/>
<stop offset="0.9968" stop-color="#FF4E61"/>
<stop offset="1" stop-color="#FF4D61"/>
</linearGradient>
<linearGradient id="paint2_linear_168_73184" x1="24.4662" y1="49.6185" x2="22.0571" y2="52.0127" gradientUnits="userSpaceOnUse">
<stop offset="0.0111732" stop-color="#FF9D85"/>
<stop offset="0.2899" stop-color="#FF9A84"/>
<stop offset="0.4943" stop-color="#FF917F"/>
<stop offset="0.6749" stop-color="#FF8178"/>
<stop offset="0.8407" stop-color="#FF6A6E"/>
<stop offset="0.9968" stop-color="#FF4E61"/>
<stop offset="1" stop-color="#FF4D61"/>
</linearGradient>
<linearGradient id="paint3_linear_168_73184" x1="66.8628" y1="10.8252" x2="12.0635" y2="65.2841" gradientUnits="userSpaceOnUse">
<stop offset="0.0111732" stop-color="#FF9D85"/>
<stop offset="0.2899" stop-color="#FF9A84"/>
<stop offset="0.4943" stop-color="#FF917F"/>
<stop offset="0.6749" stop-color="#FF8178"/>
<stop offset="0.8407" stop-color="#FF6A6E"/>
<stop offset="0.9968" stop-color="#FF4E61"/>
<stop offset="1" stop-color="#FF4D61"/>
</linearGradient>
<linearGradient id="paint4_linear_168_73184" x1="12.1117" y1="49.5015" x2="2.82666" y2="58.7289" gradientUnits="userSpaceOnUse">
<stop offset="0.0111732" stop-color="#FF9D85"/>
<stop offset="0.2899" stop-color="#FF9A84"/>
<stop offset="0.4943" stop-color="#FF917F"/>
<stop offset="0.6749" stop-color="#FF8178"/>
<stop offset="0.8407" stop-color="#FF6A6E"/>
<stop offset="0.9968" stop-color="#FF4E61"/>
<stop offset="1" stop-color="#FF4D61"/>
</linearGradient>
<radialGradient id="paint5_radial_168_73184" cx="0" cy="0" r="1" gradientUnits="userSpaceOnUse" gradientTransform="translate(58.09 40.5771) scale(28.7504 28.93)">
<stop stop-color="white"/>
<stop offset="1" stop-color="#623964"/>
</radialGradient>
<radialGradient id="paint6_radial_168_73184" cx="0" cy="0" r="1" gradientUnits="userSpaceOnUse" gradientTransform="translate(41.6398 57.0685) scale(29.3629 29.5464)">
<stop stop-color="white"/>
<stop offset="1" stop-color="#623964"/>
</radialGradient>
<radialGradient id="paint7_radial_168_73184" cx="0" cy="0" r="1" gradientUnits="userSpaceOnUse" gradientTransform="translate(64.8699 34.4944) scale(21.5808 21.7157)">
<stop stop-color="white"/>
<stop offset="1" stop-color="#623964"/>
</radialGradient>
<radialGradient id="paint8_radial_168_73184" cx="0" cy="0" r="1" gradientUnits="userSpaceOnUse" gradientTransform="translate(36.4978 71.4236) scale(28.3792 28.5566)">
<stop stop-color="white"/>
<stop offset="1" stop-color="#623964"/>
</radialGradient>
<radialGradient id="paint9_radial_168_73184" cx="0" cy="0" r="1" gradientUnits="userSpaceOnUse" gradientTransform="translate(58.3055 60.3192) scale(8.50179 8.55494)">
<stop stop-color="white"/>
<stop offset="1" stop-color="#623964"/>
</radialGradient>
<linearGradient id="paint10_linear_168_73184" x1="1.33039" y1="37.5878" x2="78.1247" y2="37.5878" gradientUnits="userSpaceOnUse">
<stop offset="0.0111732" stop-color="#FFBB85"/>
<stop offset="0.2124" stop-color="#FEB887"/>
<stop offset="0.36" stop-color="#F9AF8C"/>
<stop offset="0.4905" stop-color="#F19F95"/>
<stop offset="0.6111" stop-color="#E588A2"/>
<stop offset="0.7249" stop-color="#D76BB2"/>
<stop offset="0.8337" stop-color="#C547C7"/>
<stop offset="0.9364" stop-color="#B01EDE"/>
<stop offset="1" stop-color="#A100EF"/>
</linearGradient>
<linearGradient id="paint11_linear_168_73184" x1="44.9973" y1="23.8293" x2="79.998" y2="23.8293" gradientUnits="userSpaceOnUse">
<stop offset="0.0111732" stop-color="#FF9D85"/>
<stop offset="0.2264" stop-color="#FD9A87"/>
<stop offset="0.3842" stop-color="#F8918D"/>
<stop offset="0.5237" stop-color="#EE8198"/>
<stop offset="0.6527" stop-color="#E16AA7"/>
<stop offset="0.7744" stop-color="#CF4DBB"/>
<stop offset="0.889" stop-color="#BA2AD3"/>
<stop offset="0.999" stop-color="#A100EF"/>
<stop offset="1" stop-color="#A100EF"/>
</linearGradient>
</defs>
</svg>
