<svg width="81" height="80" viewBox="0 0 81 80" fill="none" xmlns="http://www.w3.org/2000/svg">
<path fill-rule="evenodd" clip-rule="evenodd" d="M6.42896 26.8038C6.42896 26.8038 6.90116 23.3398 7.21596 21.4693C7.21596 21.4693 9.89179 18.1438 14.1416 15.4419L19.8081 15.719C19.8081 15.719 8.31778 23.8248 6.42896 26.8038Z" fill="url(#paint0_linear_168_72984)"/>
<path fill-rule="evenodd" clip-rule="evenodd" d="M14.142 15.4419C14.142 15.4419 14.142 18.2131 11.2301 20.4301C8.31812 22.647 7.05889 21.8849 7.05889 21.8849L6.35059 26.3189L19.7298 15.719L14.142 15.4419Z" fill="url(#paint1_linear_168_72984)"/>
<path fill-rule="evenodd" clip-rule="evenodd" d="M75.2132 44.4706C75.2132 47.5882 74.741 50.7058 73.7966 53.5463C71.9077 59.3658 68.2088 64.4926 63.3293 68.5108C59.8665 71.3513 55.6953 73.6375 51.1307 75.1617C47.0382 76.5473 42.5523 77.3094 37.9089 77.3094C37.2793 77.3094 36.571 77.3094 35.9414 77.2401C34.997 77.1708 33.9738 77.1015 33.0294 77.0322C25.8676 76.2009 19.2568 73.5682 13.9838 69.6193C12.0163 68.1644 10.2062 66.5017 8.55345 64.7004C7.37293 63.3148 6.27111 61.9292 5.3267 60.405C5.0906 60.0586 4.8545 59.643 4.6184 59.2966C4.6184 59.2966 4.6184 59.2966 4.6184 59.2273C4.3823 58.8116 4.14618 58.4652 3.98878 58.0495C3.35917 56.8025 2.80826 55.4862 2.33605 54.1698C2.02125 53.1999 1.70646 52.23 1.47036 51.2601C1.31296 50.5673 1.15556 49.8745 1.07685 49.1124C0.840752 47.5882 0.68335 46.0641 0.68335 44.4706C0.68335 43.57 0.683335 42.6694 0.840737 41.7687C0.919438 41.2145 0.998154 40.6602 1.07685 40.106C1.54906 36.8498 2.57216 33.8015 4.06748 30.961C4.77579 29.5754 5.64151 28.1898 6.58592 26.9428C8.15994 24.7951 9.97007 22.786 12.095 20.9847C18.7846 15.2345 27.9926 11.7012 38.0663 11.7012C38.4598 11.7012 38.8533 11.7012 39.2468 11.7012C39.6403 11.7012 40.1125 11.7012 40.506 11.7705C42.631 11.909 44.7559 12.1861 46.8021 12.6018C47.9826 12.8789 49.1632 13.1561 50.265 13.5025C51.052 13.7103 51.7603 13.9874 52.5473 14.2645C53.0982 14.4724 53.6491 14.6802 54.2 14.8881C54.2787 14.9573 54.3574 14.9573 54.5148 15.0266C58.1351 16.5508 61.4405 18.6292 64.2737 21.1233C64.6672 21.4697 65.0607 21.8161 65.4542 22.2317C65.6904 22.5089 66.0052 22.7167 66.2413 22.9938C66.7135 23.4095 67.107 23.8945 67.5005 24.3101C68.9958 25.9729 70.255 27.7741 71.3568 29.6447C72.616 31.8617 73.6391 34.2172 74.3475 36.642C74.8197 39.0668 75.2132 41.6994 75.2132 44.4706Z" fill="url(#paint2_radial_168_72984)"/>
<path fill-rule="evenodd" clip-rule="evenodd" d="M54.2787 14.9571C54.1213 14.9571 54.0426 14.9571 53.8852 15.0264C53.4917 15.0956 53.0982 15.0263 52.7047 14.9571C52.3899 14.8878 52.2325 14.7492 51.839 14.7492C51.3668 14.6799 50.9733 14.5414 50.5011 14.4721C50.0289 14.4028 49.6353 14.2643 49.1631 14.1257C48.7696 13.9872 48.6122 14.0564 48.2974 14.1257C47.9826 14.195 47.7465 14.0564 47.4317 13.9871C47.1169 13.8486 46.7234 13.8486 46.4086 13.7793C45.4642 13.6407 44.5198 13.3636 43.5754 13.1558C43.0245 13.0172 42.4736 13.0172 41.844 13.0172C41.3717 13.0172 40.9782 13.1558 40.506 13.1558C40.1912 13.1558 39.9551 13.0865 39.6403 13.0865C39.3255 13.0172 39.0107 13.0865 38.6959 13.0865C38.2237 13.0172 37.9876 12.9479 37.5154 13.0865C37.1219 13.1558 36.8858 13.1558 36.4923 13.2251C36.0988 13.2251 35.6266 13.3636 35.2331 13.4329C34.5248 13.5715 33.7377 13.71 33.0294 13.71C32.5572 13.71 31.9276 13.5715 31.5341 13.71C31.298 13.7793 31.1406 14.0564 30.9045 14.195C30.511 14.5414 30.1175 14.8185 29.8027 15.1649C29.4879 15.5113 29.1731 15.927 29.1731 16.412C29.1731 16.8276 29.4092 17.3126 29.6453 17.659C29.8814 18.0747 29.9601 18.4211 29.4879 18.6982C28.937 19.0446 28.2287 19.3217 27.5991 19.5296C27.1269 19.6681 26.7334 19.7374 26.4186 19.4603C26.2612 19.391 26.1825 19.1832 26.0251 19.0446C25.8676 18.9753 25.6316 19.0446 25.4742 19.1139C25.002 19.2524 24.5297 19.391 24.0575 19.4603C23.7427 19.5296 23.5066 19.6681 23.1918 19.6681C22.877 19.7374 22.6409 19.5296 22.2474 19.5988C21.7752 19.6681 21.2243 19.876 20.7521 19.876C20.3586 19.876 19.8864 19.7374 19.5716 19.5988C19.4142 19.5296 19.3355 19.391 19.0994 19.4603C18.942 19.4603 18.7059 19.6681 18.6272 19.8067C18.4698 19.9452 18.4698 20.1531 18.3124 20.2916C18.155 20.4995 18.0763 20.638 17.9189 20.8459C17.6828 21.1923 17.4467 21.5387 17.2106 21.8851C17.0532 22.0929 16.8957 22.4393 16.6596 22.6472C16.5809 22.7857 16.3448 22.855 16.1874 22.9243C15.7939 23.1321 15.4004 23.4092 15.0069 23.6171C14.2986 24.102 13.5903 24.6563 12.882 25.1412C12.3311 25.4876 11.5441 25.6955 10.9145 25.9726C10.521 26.1112 10.1275 26.2497 9.73396 26.3883C9.57656 26.4576 9.34045 26.4576 9.26175 26.5961C9.10435 26.7347 9.02565 26.8732 8.94695 27.0811C8.63215 27.4275 8.23863 27.8432 8.00253 28.2588C7.84513 28.536 7.76643 28.7438 7.60903 29.0209C7.45162 29.3673 7.21552 29.7137 7.13682 30.1294C6.82201 30.8915 6.82202 31.7228 6.42851 32.4849C6.27111 32.9006 5.95631 33.3163 5.72021 33.732C5.3267 34.4248 5.24799 35.2561 5.16929 36.0182C5.09059 36.4339 5.1693 36.9881 5.248 37.4038C5.3267 37.8888 5.3267 38.3737 5.3267 38.8587C5.3267 39.3436 4.9332 39.8979 4.6184 40.2443C4.30359 40.5907 3.75268 40.7292 3.35918 41.0756C3.04437 41.3528 2.65086 41.6299 2.49346 42.0456C2.41476 42.1841 2.49346 42.392 2.49346 42.5998C2.41476 43.0155 2.25737 43.3619 2.25737 43.7776C2.17867 44.2625 2.17866 44.7475 2.17866 45.3017C2.17866 45.5788 2.17866 45.7867 2.17866 46.0638C2.17866 46.3409 2.25735 46.5488 2.33605 46.7566C2.33605 46.8952 2.33605 47.103 2.33605 47.2416C2.33605 47.4494 2.49346 47.6572 2.49346 47.7958C2.65086 48.2808 2.72956 48.6964 2.80826 49.1814C2.88696 49.5971 3.12307 50.0128 3.20177 50.4285C3.43787 50.9827 3.51658 51.5369 3.67398 52.1605C3.75268 52.5761 3.75269 53.0611 3.83139 53.4768C3.91009 53.8232 3.98878 54.1696 3.98878 54.516C3.98878 55.0702 3.83139 55.5552 3.83139 56.1094C3.83139 57.0101 4.22488 57.9107 4.46099 58.8113C4.53969 59.0885 4.61838 59.2963 4.69708 59.5734C2.09995 55.1395 0.68335 50.0821 0.68335 44.7475C0.68335 38.2352 2.80827 32.2078 6.50722 27.1504C8.08124 25.0027 9.89136 22.9936 12.0163 21.2616C18.7059 15.5113 27.9139 11.978 37.9876 11.978C38.7746 11.978 39.6403 11.978 40.4273 12.0473C45.3068 11.978 50.0288 13.0865 54.2787 14.9571Z" fill="url(#paint3_linear_168_72984)"/>
<path opacity="0.1" fill-rule="evenodd" clip-rule="evenodd" d="M40.2703 59.8508C40.2703 59.8508 43.7331 64.354 48.3765 68.0258C53.0198 71.6976 53.6494 74.1917 53.6494 74.1917C53.6494 74.1917 62.3852 71.0048 68.6026 63.384C74.82 55.8325 40.2703 59.8508 40.2703 59.8508Z" fill="black"/>
<path opacity="0.4" fill-rule="evenodd" clip-rule="evenodd" d="M46.5668 12.5325C44.5206 12.1168 42.4744 11.8397 40.2707 11.7011C39.8772 11.7011 39.405 11.6318 39.0115 11.6318C39.8772 12.0475 40.7429 12.8096 40.9003 13.641C41.2151 15.0266 41.7661 16.2736 42.0022 17.5899C42.317 18.9062 42.2383 20.569 41.53 21.7467C41.1365 22.5088 40.5856 23.1323 39.8772 23.7558C39.405 24.1715 38.9328 24.4486 38.618 25.0029C38.3032 25.5571 37.9097 26.0421 37.5162 26.527C36.9653 27.2891 36.3357 28.0512 35.6274 28.744C35.3913 29.0211 35.1552 29.1597 34.9191 29.4368C34.683 29.7832 34.5256 30.1296 34.2108 30.4067C33.5025 31.0303 32.4794 31.4459 31.6136 31.7231C30.4331 32.1387 29.41 32.5544 28.3082 33.1087C26.7342 33.8707 25.3963 34.7714 23.5861 34.8407C22.9565 34.8407 22.3269 34.7714 21.6973 34.8407C20.9103 34.9099 20.202 35.1871 19.4937 35.3256C18.8641 35.4642 18.1558 35.5335 17.5262 35.672C16.4244 35.8106 15.5586 36.157 14.5355 36.3648C13.1976 36.6419 11.781 36.5727 10.3644 36.7805C9.10516 36.9191 8.08205 37.0576 6.82283 36.7805C4.93401 36.3648 3.91089 35.6027 4.30439 33.8015C4.54049 32.6237 4.46181 31.723 3.8322 30.8917C2.33689 33.7322 1.31376 36.8498 0.841553 40.0367C1.70726 40.3831 2.73038 40.5216 3.59609 40.5909C6.35062 40.868 9.34126 39.7595 11.8597 38.9282C13.1189 38.5125 14.4568 37.889 15.8734 37.7504C17.3688 37.6119 18.628 37.7504 20.1233 37.4733C25.1602 36.3648 30.1183 34.8407 34.683 32.4851C36.5718 31.5152 37.3588 30.1296 38.6967 28.744C39.7985 27.497 41.1364 26.527 42.4744 25.4878C43.8123 24.4486 44.9928 23.4787 45.7798 22.0931C46.6455 20.6382 47.3538 18.9755 47.7473 17.3821C48.1408 15.5808 47.5899 13.9181 46.5668 12.5325ZM46.3307 16.9664C46.252 17.3128 46.1733 17.7285 46.0946 18.0749C45.7798 18.9755 45.1502 19.8762 44.2058 20.2918C43.8123 20.4997 43.1827 20.3611 42.9466 20.0147C42.7892 19.8069 42.7892 19.5298 42.7892 19.3219C42.7105 18.837 42.6318 18.4213 42.6318 17.9363C42.6318 16.8278 42.6318 15.7194 42.4744 14.6109C42.6318 15.2344 42.4744 13.641 43.5762 13.2253C44.1271 13.0174 44.9141 13.2253 45.3076 13.5717C45.7798 14.0566 45.9372 14.8187 46.0946 15.373C46.252 15.9965 46.4094 16.4122 46.3307 16.9664Z" fill="url(#paint4_linear_168_72984)"/>
<path opacity="0.4" fill-rule="evenodd" clip-rule="evenodd" d="M40.8995 69.411C40.8208 69.411 40.6635 69.4802 40.5848 69.4802L41.2931 69.5495C41.2931 69.4802 41.1357 69.411 40.8995 69.411ZM40.8995 69.411C40.8208 69.411 40.6635 69.4802 40.5848 69.4802L41.2931 69.5495C41.2931 69.4802 41.1357 69.411 40.8995 69.411ZM74.1114 36.5029C74.1114 37.3343 73.7966 38.2349 73.7966 39.0663C73.7966 40.2441 73.5605 41.1447 73.2457 42.2532C73.0096 43.0153 72.5374 43.5695 72.3013 44.3316C71.9865 45.1629 71.5142 45.925 71.042 46.6871C70.0976 48.2113 69.0745 49.8047 68.681 51.5367C68.2875 53.1301 68.2088 54.4465 67.3431 55.9013C66.4774 57.2869 65.2182 58.4647 64.2738 59.8503C63.8802 60.4738 63.5654 60.4738 62.8571 60.8895C62.1488 61.3745 61.4405 62.0673 60.7322 62.5522C59.2369 63.5914 57.8203 64.3535 55.9314 64.977C54.7509 65.3927 53.6491 65.6698 52.3899 65.8084C51.6029 65.947 50.8159 65.8084 50.0289 65.9469C48.7697 66.1548 47.5892 66.4319 46.3299 66.7783C44.3624 67.3325 42.3162 67.679 40.3487 68.2332C38.932 68.5796 37.5941 68.8567 36.1775 69.0646C35.3118 69.2031 34.6035 69.6188 33.7378 69.4802C32.8721 69.3417 32.0063 69.0646 31.1406 68.7874C30.0388 68.5103 29.0944 68.441 27.9139 68.441C26.3399 68.441 24.451 68.6489 22.7983 68.3718C20.9882 68.0946 19.2568 67.6097 17.4467 67.3326C16.3449 67.1247 15.5578 66.709 14.5347 66.3626C13.5903 65.947 12.6459 65.8777 11.6228 65.6005C10.5997 65.3234 9.57658 64.9077 8.55347 64.6999C10.1275 66.5012 11.9376 68.1639 13.9838 69.6188C19.2568 73.5678 25.789 76.2004 33.0295 77.0318C33.9739 77.101 34.9183 77.2396 35.9414 77.2396C38.0663 76.8239 40.1125 76.2697 42.2375 75.7154C45.779 74.7455 48.8484 72.875 52.3899 71.9743C53.7278 71.6279 54.9083 71.2815 56.0889 70.7273C57.0333 70.3116 57.9777 70.2423 58.8434 69.8959C62.1488 68.6489 64.5885 65.8777 66.0839 63.1065C66.7135 61.8594 67.3431 60.4738 68.6023 59.5039C69.0745 59.0882 69.7041 58.8111 70.0976 58.3261C70.5698 57.8412 70.8846 57.2869 71.3568 56.7327C72.1438 55.8321 72.8521 54.8621 73.5605 53.9615C73.6392 53.8229 73.7179 53.7537 73.7966 53.6151C74.741 50.7053 75.2132 47.657 75.2132 44.5394C75.2132 41.6989 74.8197 39.0663 74.1114 36.5029ZM39.8764 69.6188C40.0338 69.5495 40.1913 69.411 40.3487 69.3417C40.5061 69.2724 40.7421 69.3417 40.8995 69.411C41.2144 69.3417 41.4505 69.3417 41.6866 69.4802C41.844 69.5495 42.0801 69.6881 42.1588 69.8266C42.2375 69.9652 42.1588 70.0345 42.0014 70.173C41.844 70.3116 41.7653 70.3116 41.5292 70.3116C41.1357 70.3809 40.7422 70.4502 40.27 70.3809C40.0338 70.3809 39.6403 70.3116 39.4829 70.173C39.4829 69.8959 39.719 69.7574 39.8764 69.6188ZM42.3162 73.9142C42.0801 74.1913 41.844 74.4684 41.5292 74.607C41.2144 74.8148 40.8996 74.8841 40.6635 75.0919C39.8764 75.4383 39.0894 75.854 38.3024 76.0618C37.9876 76.1311 37.5941 76.1311 37.2793 76.1311C36.8858 76.2004 36.4136 76.2004 36.0201 76.2004C35.5479 76.2004 34.997 76.2697 34.5248 76.339C34.0526 76.339 33.5017 76.4082 33.0295 76.4082C32.1637 76.4775 31.4554 76.339 30.6684 76.0618C29.9601 75.854 29.2518 75.5076 28.6222 75.1612C28.15 74.8841 27.7565 74.5377 27.4417 74.1913C27.0482 73.9142 26.8121 73.5678 26.576 73.1521C26.4973 73.0135 26.4186 72.875 26.4973 72.6671C26.4973 72.5978 26.576 72.5286 26.576 72.5286C26.7334 72.4593 26.8908 72.3207 26.9695 72.3207C27.2056 72.1822 27.5204 72.1822 27.8352 72.1129C28.5435 72.0436 29.2518 72.1129 29.9601 72.1822C30.3536 72.1822 30.7471 72.2514 31.1406 72.1822C31.6915 72.1129 32.2424 71.9743 32.7147 71.8358C33.9739 71.5586 35.2331 71.2815 36.4923 71.2122C37.7515 71.0737 39.1681 70.9351 40.4274 71.143C40.8996 71.2122 41.5292 71.3508 41.9227 71.5586C42.2375 71.7665 42.4736 72.0436 42.631 72.3207C42.8671 72.875 42.7097 73.4292 42.3162 73.9142ZM52.2325 71.0737C51.9964 71.2815 51.6816 71.4201 51.3668 71.6279C50.9733 71.905 50.5798 72.0436 50.1863 72.2514C49.8715 72.4593 49.478 72.5978 49.1632 72.7364C48.7696 72.875 48.4548 73.0135 48.0613 73.2214C47.6678 73.3599 47.2743 73.4985 46.8808 73.637C46.566 73.7063 46.2512 73.8449 45.9364 73.7756C45.7003 73.7063 45.3855 73.637 45.2281 73.4985C44.9133 73.2214 44.992 72.9442 45.0707 72.8057C45.0707 72.5978 44.992 72.2514 45.0707 71.9743C45.1494 71.8358 45.3068 71.6279 45.3855 71.4894C45.7003 70.9351 46.1725 70.5887 46.6447 70.173C47.0382 69.8266 47.5104 69.5495 48.0613 69.3417C48.691 69.1338 49.478 69.0646 50.1076 68.9953C50.8159 68.926 52.0751 68.8567 52.4686 69.6188C52.7047 70.1038 52.626 70.5887 52.2325 71.0737ZM41.3718 69.4802C41.2931 69.4802 41.1357 69.411 40.9783 69.3417C40.8996 69.3417 40.7422 69.411 40.6635 69.411L41.3718 69.4802Z" fill="url(#paint5_linear_168_72984)"/>
<path opacity="0.4" fill-rule="evenodd" clip-rule="evenodd" d="M71.1211 29.5062V29.6447C71.0424 30.5454 70.6489 31.1689 70.2554 32.0002C69.9406 32.693 69.6257 33.2473 69.2322 33.8708C68.6026 34.91 68.2878 35.8799 67.8156 37.0577C67.0286 38.7897 66.7138 40.6602 65.5333 42.2537C64.5102 43.7086 64.1954 45.4406 63.4084 46.9647C62.4639 48.6967 60.9686 49.8745 59.3946 51.1215C58.6863 51.6758 58.0567 52.3686 57.4271 52.9921C56.7188 53.6156 56.2466 54.447 55.3809 55.0012C53.6495 56.1097 51.6819 57.0796 49.9505 58.2574C48.9274 58.9502 48.2191 59.9201 47.0386 60.4743C45.9368 61.0979 44.6775 61.5135 43.5757 62.0678C42.5526 62.622 41.5295 63.1763 40.4277 63.5919C39.1685 64.0076 38.1454 63.8691 36.8074 63.9383C35.3908 64.0076 33.8955 64.354 32.5576 64.7697C31.4558 65.1161 30.5114 65.4625 29.3308 65.1161C28.5438 64.9083 27.9142 64.4233 27.1272 64.2847C25.2384 63.9383 23.1922 64.2847 21.3033 64.2155C19.808 64.1462 18.234 63.8691 16.7387 63.5919C15.3221 63.3841 14.1416 62.4835 12.8036 62.1371C11.0722 61.7214 9.10469 62.0678 7.53067 61.5135C6.82236 61.3057 6.19275 60.8207 5.64185 60.4743C5.48445 60.4051 5.40575 60.3358 5.24834 60.2665C5.01224 59.9201 4.77614 59.5044 4.54004 59.158C4.93354 59.2966 5.32705 59.4351 5.72055 59.643C7.84548 60.5436 10.5213 60.4051 12.8036 60.7515C15.4008 61.1671 17.9979 61.7214 20.595 61.9985C21.6968 62.1371 22.72 62.0678 23.8218 61.9985C25.3171 61.8599 26.8124 61.8599 28.3077 61.6521C30.8262 61.2364 33.3446 60.1972 35.9417 60.4743C36.4139 60.5436 36.9648 60.7515 37.437 60.7515C38.1453 60.7515 38.6963 60.1972 39.2472 59.8508C40.2703 59.2966 41.3721 59.3659 42.3165 58.6038C43.1822 57.8417 44.2053 57.3567 45.3071 56.8718C48.1404 55.6247 50.4227 53.5463 52.705 51.5372C54.5938 49.8745 56.404 48.1425 57.6632 46.1334C58.9224 44.1242 58.6863 41.6994 59.6307 39.621C60.339 38.0969 60.8899 36.7113 61.9918 35.395C62.5427 34.7714 63.1723 34.2172 63.7232 33.5937C64.3528 32.9702 64.6676 32.2774 65.1398 31.5153C65.612 30.6839 66.3203 29.9911 66.7138 29.0905C67.1073 28.2591 67.0286 27.5663 67.0286 26.6657C67.0286 25.765 67.0286 24.7951 67.0286 23.8252C68.6813 25.8343 70.0193 27.6356 71.1211 29.5062Z" fill="url(#paint6_linear_168_72984)"/>
<path opacity="0.4" fill-rule="evenodd" clip-rule="evenodd" d="M65.2182 22.0931C64.8246 21.7467 64.4311 21.331 64.0376 20.9846C61.2044 18.4905 57.8989 16.4814 54.2787 14.8879C54.2 14.8187 54.1213 14.8187 53.9639 14.7494C53.413 14.5415 52.8621 14.3337 52.3112 14.1259C51.5242 13.8487 50.8159 13.5716 50.0288 13.3638C50.2649 13.5023 50.5798 13.6409 50.6585 13.6409C51.1307 13.8487 51.5242 13.9873 51.839 14.3337C52.1538 14.6801 52.3112 14.9572 52.3112 15.4422C52.3112 15.8579 52.3899 16.3428 52.4686 16.7585C52.5473 17.1742 52.7834 17.5206 52.8621 17.9363C52.9408 18.1441 52.9408 18.3519 53.0195 18.6291C53.1769 19.1833 53.413 19.7375 53.5704 20.2918C53.8065 21.331 53.1769 22.1623 52.7834 23.063C52.1538 24.5179 51.7603 25.9727 51.2094 27.4969C50.8159 28.6747 50.1076 29.8524 49.0844 30.7531C48.0613 31.5844 46.566 31.7923 45.7003 32.6929C44.9133 33.5243 43.9689 34.2863 42.8671 34.702C41.6078 35.2563 40.1912 35.6719 38.8533 36.0183C37.9089 36.2955 36.8858 36.2955 35.8627 36.5033C34.6035 36.7804 33.5016 37.3347 32.3998 37.7503C31.1406 38.2353 30.0388 38.7895 28.7796 39.2745C27.5204 39.7595 26.4186 40.383 25.1593 40.7987C24.5297 41.0065 23.9001 41.1451 23.3492 41.2836C22.09 41.6993 20.9095 42.3921 19.5716 42.5307C19.0994 42.5999 18.6272 42.6692 18.155 42.6692C17.7614 42.6692 17.4467 42.7385 17.1318 42.8078C15.9513 43.2235 15.243 44.3319 13.9051 44.4012C12.6459 44.4012 11.4654 44.3319 10.2849 44.4705C9.65525 44.5398 9.10435 44.4705 8.55345 44.5398C8.39605 44.5398 8.15993 44.6091 8.00253 44.5398C7.84513 44.4705 7.60904 44.3319 7.37293 44.1934C6.90073 43.9855 6.50722 43.7084 6.11371 43.4313C5.3267 42.8771 4.30359 43.2235 3.43788 43.0156C3.20178 42.9463 2.80827 43.0156 2.57217 42.8771C2.02126 42.5999 1.31294 41.9764 0.840737 41.63C0.762036 42.5307 0.68335 43.4313 0.68335 44.3319C0.68335 45.9254 0.840752 47.4495 1.07685 48.9737C1.15556 49.6665 1.31296 50.3593 1.47036 51.1214C1.70646 52.0913 2.02125 53.1305 2.33605 54.0312C2.80826 55.3475 3.35917 56.6638 3.98878 57.9108C5.01189 58.0494 6.035 58.188 7.05811 58.0494C8.55343 57.8416 9.97005 57.6337 11.4654 57.703C12.882 57.7723 14.1412 58.188 15.4791 58.3958C16.9744 58.6036 18.5485 58.8115 20.1225 58.8807C21.5391 58.95 22.9557 59.0886 24.2936 59.2271C25.3168 59.3657 26.4186 59.5043 27.4417 59.5736C30.1962 59.7121 32.872 59.0886 35.5479 58.8807C36.8858 58.7422 38.2237 58.4651 39.5616 58.188C40.3486 58.0494 41.1356 57.8416 41.844 57.4259C42.7884 56.8716 43.418 56.1096 44.205 55.486C45.1494 54.7932 46.0938 54.1004 47.0382 53.4769C47.8252 52.9227 48.6122 52.2992 49.478 51.8142C50.1076 51.4678 50.8159 51.0521 51.4455 50.6364C52.626 49.8051 53.6491 48.8351 54.6722 47.7959C56.0888 46.3411 56.6397 44.3319 57.1906 42.5307C57.7416 40.8679 58.0563 39.2745 59.0795 37.7503C59.5517 37.0575 59.9452 36.2262 60.1813 35.3948C60.3387 34.9099 60.4174 34.2863 60.6535 33.8014C61.047 33.0393 61.9127 32.4158 62.3849 31.723C62.7784 31.1687 63.2506 30.6145 63.4867 29.9217C64.0376 28.6747 64.4311 27.4276 64.6672 26.042C64.8246 25.0721 65.2181 24.1022 65.533 23.1323C65.6116 22.9937 65.6116 22.7859 65.6903 22.6473C65.6903 22.578 65.4543 22.3009 65.2182 22.0931ZM16.6596 44.5398C16.7383 44.4012 18.155 43.9163 18.3124 43.847C18.3124 43.847 18.3124 43.847 18.2337 43.847L17.2892 44.1934C18.3123 43.9163 20.1225 44.8169 19.2568 45.7868C19.0207 46.0639 18.3124 46.2025 17.9189 46.2718C17.5254 46.3411 17.2892 46.2025 17.0531 45.9254C16.817 45.6483 16.6596 45.2326 16.6596 44.8862C16.6596 44.8169 16.6596 44.6091 16.6596 44.5398ZM5.5628 53.3383C4.46098 53.0612 3.75267 52.7148 3.12306 51.8835C2.65085 51.3292 2.33607 50.8443 2.17866 50.2207C2.09996 49.6665 1.86385 49.2508 2.02125 48.6966C2.09995 48.2809 2.33607 47.7959 2.57217 47.4495C2.80827 47.0339 3.20177 46.5489 3.20177 46.4103C4.30358 46.3411 5.32669 46.2718 6.34981 46.2718C7.53032 46.2718 8.78954 46.4103 9.97006 46.4103C10.521 46.4103 11.0719 46.4103 11.6228 46.3411C12.1737 46.2718 12.6459 46.1332 13.1968 46.0639C14.1412 45.9254 15.0069 45.8561 15.8726 46.2025C16.5022 46.4796 16.817 47.1724 17.1318 47.7267C17.2893 48.0731 17.4466 48.2809 17.4466 48.6966C17.4466 49.1815 17.4466 49.5972 17.3679 50.0129C17.3679 50.1515 17.2892 50.3593 17.2892 50.4979C16.5022 51.9528 14.456 52.4377 12.882 52.992C10.521 53.8233 7.92383 53.8926 5.5628 53.3383ZM22.3261 56.5252C21.8539 57.6337 19.8077 57.9801 18.6272 58.0494C18.0763 58.0494 17.368 57.9801 16.8171 57.703C16.5022 57.5644 16.2661 57.2873 16.03 57.0102C15.8726 56.8024 15.6365 56.4559 15.0069 56.5945C15.1643 55.971 15.3217 55.4167 15.6365 54.8625C15.8726 54.5854 16.1874 54.3775 16.5022 54.1004C17.0531 53.6847 17.6828 53.2691 18.3124 52.992C19.3355 52.507 20.4373 52.8534 21.3817 53.2691C22.09 53.5462 22.5622 53.9619 22.7196 54.5854C22.9557 55.3475 22.6409 55.8324 22.3261 56.5252ZM36.1775 56.3174C35.784 57.0795 35.2331 57.2873 34.4461 57.703C33.5017 58.1187 32.2424 58.4651 31.2193 58.4651C30.6684 58.4651 30.1175 58.2572 29.6453 58.0494C29.3305 57.9108 28.937 57.8415 28.7009 57.6337C27.9926 57.0102 27.8352 56.1788 28.3074 56.3174C27.9926 55.7632 27.8352 55.2089 27.7565 54.6547C27.9139 54.5854 27.9926 54.4468 27.9926 54.3083C28.3861 53.6847 29.0944 53.1305 29.8814 52.7841C31.1406 52.1606 32.7933 52.022 34.2099 52.5763C34.8396 52.7841 35.2331 53.0612 35.6266 53.4769C35.8627 53.6847 36.0988 53.8233 36.3349 54.1004C36.571 54.6547 36.4136 55.6939 36.1775 56.3174ZM40.3486 56.1788C40.1125 56.3174 39.719 56.5945 39.4829 56.5945C39.2468 56.5252 38.8533 56.1788 38.8533 55.9017L38.6959 55.7631C39.0107 55.2782 39.3255 54.8625 39.6403 54.3776C40.1125 54.5854 40.5847 54.5161 40.8995 55.0011C41.293 55.486 40.7421 55.9017 40.3486 56.1788ZM50.9733 34.3556C50.5798 34.8406 50.0289 35.3255 49.3993 35.5334C48.6122 35.8105 47.5104 36.0876 47.4317 34.9791C47.4317 34.3556 47.5104 33.8707 47.8252 33.3164C48.2974 32.4851 48.6909 32.2772 49.6353 31.8615C49.9501 31.8615 50.3437 32.0001 50.5798 32.0694C51.052 32.2079 51.5242 32.6236 51.6029 33.1086C51.6816 33.5935 51.2881 34.0092 50.9733 34.3556ZM60.8109 29.7139C60.4174 30.8223 59.8665 31.8615 59.3156 32.8315C58.686 34.0785 58.6073 35.3948 58.2137 36.7111C58.0563 37.4732 57.5841 38.3046 56.7971 38.5817C56.4036 38.7203 56.0888 38.651 55.6953 38.651C55.3018 38.651 54.6722 38.7895 54.6722 39.0667C54.4361 38.5124 54.1213 37.8196 53.9639 37.2654C53.8065 36.6419 53.7278 35.9491 53.6491 35.2563C53.4917 34.5635 53.4917 33.8707 53.413 33.1779C53.3343 32.5543 53.1769 31.8615 53.1769 31.238C53.1769 29.0903 54.5935 26.3884 56.8758 25.4185C57.5842 25.1414 58.2924 25.0028 59.0795 25.0721C59.9452 25.2107 60.4961 25.4185 60.8896 26.1806C61.3618 27.2198 61.1257 28.6054 60.8109 29.7139Z" fill="url(#paint7_linear_168_72984)"/>
<path opacity="0.4" fill-rule="evenodd" clip-rule="evenodd" d="M50.084 32.5615C50.0053 32.6309 49.8479 32.6309 49.7692 32.7003C49.5331 32.7003 49.3757 32.6309 49.2183 32.7003L50.084 32.5615Z" fill="url(#paint8_linear_168_72984)"/>
<path fill-rule="evenodd" clip-rule="evenodd" d="M39.3027 48.4962C37.7287 47.8034 39.5388 41.6374 41.1128 40.2518C42.6868 38.8662 46.8579 42.0531 47.3302 44.6165C47.8811 47.2491 43.0016 50.0203 39.3027 48.4962Z" fill="url(#paint9_linear_168_72984)"/>
<path opacity="0.4" fill-rule="evenodd" clip-rule="evenodd" d="M3.12419 46.4104C3.045 46.4104 2.96582 46.4104 2.96582 46.4104C3.12421 46.3411 3.12419 46.3411 3.12419 46.4104Z" fill="url(#paint10_linear_168_72984)"/>
<path fill-rule="evenodd" clip-rule="evenodd" d="M45.0708 12.255L51.603 9.96875C51.603 9.96875 61.9915 13.502 68.6024 21.3307L68.9959 26.3188C68.9959 26.3188 56.5611 22.0928 45.0708 12.255Z" fill="url(#paint11_linear_168_72984)"/>
<path fill-rule="evenodd" clip-rule="evenodd" d="M68.839 62.8984C68.839 62.8984 63.33 68.1637 59.2375 69.2722L55.8534 70.1728C55.8534 70.1728 40.3493 65.254 39.4836 56.7325C38.7753 49.5274 52.7054 38.5119 56.483 37.1955C60.2607 35.8792 64.6679 36.6413 64.6679 36.6413L68.839 62.8984Z" fill="url(#paint12_linear_168_72984)"/>
<path fill-rule="evenodd" clip-rule="evenodd" d="M64.6679 36.6416C61.3625 35.741 47.275 41.4912 43.4186 54.308C42.6316 56.9407 49.7934 66.8477 58.3718 69.2725C61.2051 70.1039 74.2694 60.0583 74.8203 53.2688C75.3712 46.4794 69.5474 38.0272 64.6679 36.6416Z" fill="url(#paint13_linear_168_72984)"/>
<path fill-rule="evenodd" clip-rule="evenodd" d="M44.3629 55.8321C46.4092 41.2833 61.441 36.503 64.7465 37.4037C67.1075 38.0965 70.5704 41.1448 72.6166 44.1238C70.5704 40.3827 67.501 37.3344 64.7465 36.5723C61.441 35.6717 47.3536 41.4219 43.4972 54.2387C43.2611 55.1393 43.8907 56.9406 45.3073 59.019C44.4416 57.7027 44.2055 56.5249 44.3629 55.8321Z" fill="url(#paint14_linear_168_72984)"/>
<path opacity="0.3" fill-rule="evenodd" clip-rule="evenodd" d="M16.6602 71.4893C16.6602 71.4893 20.0443 72.5977 22.4841 71.9742C22.4841 71.9742 23.4285 64.9769 20.4378 60.4737C17.4472 55.9705 12.3316 62.76 12.3316 62.76L11.1511 67.0553C11.1511 67.0553 13.9844 70.0344 16.6602 71.4893Z" fill="black"/>
<path fill-rule="evenodd" clip-rule="evenodd" d="M19.5722 70.3814L21.6971 69.8965C21.6971 69.8965 22.7203 66.0168 20.9101 61.5829C18.8639 56.5947 11.3086 52.8536 10.2068 52.7843C9.10498 52.715 8.00317 54.932 8.00317 54.932L19.5722 70.3814Z" fill="url(#paint15_linear_168_72984)"/>
<path fill-rule="evenodd" clip-rule="evenodd" d="M53.649 74.1914L50.0288 78.2789C50.0288 78.2789 43.8114 80.9116 37.5153 79.6645L32.9507 76.9626L53.649 74.1914Z" fill="url(#paint16_linear_168_72984)"/>
<path fill-rule="evenodd" clip-rule="evenodd" d="M6.42906 57.9799C6.82256 56.4558 8.31789 53.9617 9.6558 53.6846C10.9937 53.4074 17.4472 58.8113 18.9425 62.2753C20.4378 65.7393 19.6508 69.5497 19.5721 70.3118C19.4934 71.0739 12.2529 68.9262 8.55399 66.2935C4.93375 63.6609 6.42906 57.9799 6.42906 57.9799Z" fill="url(#paint17_linear_168_72984)"/>
<path fill-rule="evenodd" clip-rule="evenodd" d="M18.942 62.2753C17.4467 58.8113 11.0719 53.4768 9.65532 53.6846C9.10441 53.7539 8.5535 54.2388 8.0813 54.7931C8.3961 54.516 8.71089 54.3774 9.0257 54.3081C10.3636 54.031 16.8958 58.3264 18.3911 61.7904C20.2013 66.0165 19.1781 69.0648 19.0207 70.4504C19.3355 70.4504 19.5716 70.4504 19.5716 70.3118C19.6503 69.5497 20.4373 65.7393 18.942 62.2753Z" fill="url(#paint18_linear_168_72984)"/>
<path fill-rule="evenodd" clip-rule="evenodd" d="M40.7431 47.1721C39.4839 46.6179 40.9005 41.4912 42.1597 40.3134C43.419 39.2049 46.7244 41.8376 47.1966 43.9853C47.6688 46.1329 43.7338 48.4192 40.7431 47.1721Z" fill="url(#paint19_linear_168_72984)"/>
<path fill-rule="evenodd" clip-rule="evenodd" d="M51.603 9.96875C51.603 9.96875 51.9178 13.4327 56.4037 17.7281C60.8897 22.0235 68.6024 21.3307 68.6024 21.3307L68.9959 26.3188C68.9959 26.3188 52.6261 19.9451 45.0708 12.255L51.603 9.96875Z" fill="url(#paint20_linear_168_72984)"/>
<path fill-rule="evenodd" clip-rule="evenodd" d="M64.4319 40.9375C64.2745 41.076 63.8023 41.3532 64.1958 41.561C64.2745 41.6303 64.3532 41.561 64.4319 41.6303C64.5106 41.6303 64.5106 41.6996 64.5893 41.6996C64.8254 41.561 64.7467 40.8682 64.4319 40.9375Z" fill="#0EDBFF"/>
<path fill-rule="evenodd" clip-rule="evenodd" d="M79.8577 35.1176C79.7003 35.2562 79.2281 35.5333 79.6216 35.7412C79.7003 35.8104 79.779 35.7412 79.8577 35.8104C79.9364 35.8104 79.9364 35.8797 80.0151 35.8797C80.3299 35.6719 80.1725 35.0484 79.8577 35.1176Z" fill="#0EDBFF"/>
<path fill-rule="evenodd" clip-rule="evenodd" d="M73.0892 59.227C72.9318 59.3656 72.4595 59.6427 72.853 59.8505C72.9317 59.9198 73.0105 59.8505 73.0892 59.9198C73.1679 59.9198 73.1678 59.9891 73.2465 59.9891C73.5613 59.8505 73.404 59.1577 73.0892 59.227Z" fill="#0EDBFF"/>
<path fill-rule="evenodd" clip-rule="evenodd" d="M65.77 43.3624C65.9274 43.293 66.0061 43.293 66.1635 43.293C66.1635 43.4318 66.3209 43.7093 66.0848 43.8481C65.9274 43.9175 65.9274 43.6399 65.8487 43.5705L65.77 43.3624Z" fill="#0EDBFF"/>
<path fill-rule="evenodd" clip-rule="evenodd" d="M41.2939 44.8169C41.53 44.8861 41.7661 45.0247 42.0022 45.094C42.0809 45.0247 42.1596 45.0247 42.317 45.0247C42.4744 44.9554 42.5531 44.8169 42.5531 44.6783C42.6318 44.4705 42.5531 44.3319 42.3957 44.1933C42.317 44.1241 42.2383 43.9855 42.1596 43.9162C42.0809 43.8469 41.8448 43.8469 41.6874 43.9162C41.53 43.9855 41.4513 44.1241 41.3726 44.2626C41.2939 44.4012 41.1365 44.5397 41.1365 44.6783C41.1365 44.8169 41.2939 44.9554 41.3726 45.094L41.2939 44.8169Z" fill="#0EDBFF"/>
<path fill-rule="evenodd" clip-rule="evenodd" d="M6.508 61.167C6.7441 61.2362 6.9802 61.3748 7.2163 61.4441C7.295 61.3748 7.3737 61.3748 7.5311 61.3748C7.6885 61.3055 7.76722 61.167 7.76722 61.0284C7.84592 60.8206 7.76721 60.682 7.60981 60.5434C7.53111 60.4742 7.45241 60.3356 7.37371 60.2663C7.29501 60.197 7.0589 60.197 6.9015 60.2663C6.7441 60.3356 6.6654 60.4742 6.5867 60.6127C6.508 60.7513 6.35059 60.8898 6.35059 61.0284C6.35059 61.167 6.508 61.3055 6.5867 61.4441L6.508 61.167Z" fill="#0EDBFF"/>
<path fill-rule="evenodd" clip-rule="evenodd" d="M74.27 69.6884C74.5061 69.7577 74.7422 69.8963 74.9783 69.9656C75.057 69.8963 75.1357 69.8963 75.2931 69.8963C75.4505 69.827 75.5292 69.6884 75.5292 69.5499C75.6079 69.342 75.5292 69.2035 75.3718 69.0649C75.2931 68.9956 75.2144 68.8571 75.1357 68.7878C75.057 68.7185 74.8209 68.7185 74.6635 68.7878C74.5061 68.8571 74.4273 68.9956 74.3486 69.1342C74.2699 69.2728 74.1125 69.4113 74.1125 69.5499C74.1125 69.6884 74.2699 69.827 74.3486 69.9656L74.27 69.6884Z" fill="#0EDBFF"/>
<path fill-rule="evenodd" clip-rule="evenodd" d="M69.3903 63.7304C69.6264 63.7997 69.8625 63.9383 70.0986 64.0076C70.1773 63.9383 70.256 63.9383 70.4134 63.9383C70.5708 63.869 70.6495 63.7304 70.6495 63.5919C70.7282 63.384 70.6495 63.2455 70.4921 63.1069C70.4134 63.0376 70.3347 62.8991 70.256 62.8298C70.1773 62.7605 69.9412 62.7605 69.7838 62.8298C69.6264 62.8991 69.5477 63.0376 69.469 63.1762C69.3903 63.3148 69.2329 63.4533 69.2329 63.5919C69.2329 63.7304 69.3903 63.869 69.469 64.0076L69.3903 63.7304Z" fill="#0EDBFF"/>
<path fill-rule="evenodd" clip-rule="evenodd" d="M1.78607 22.4393C2.41568 22.6472 3.04528 22.855 3.67489 23.1321C3.911 22.9936 4.14709 22.9936 4.3832 22.855C4.698 22.6472 4.9341 22.3008 5.0915 22.0237C5.2489 21.5387 5.0128 21.1923 4.7767 20.8459C4.6193 20.6381 4.46191 20.2917 4.22581 20.0838C3.91101 19.876 3.3601 19.9453 3.04529 20.0838C2.65179 20.2224 2.41568 20.5688 2.17958 20.8459C1.94348 21.123 1.70736 21.608 1.62866 21.9544C1.62866 22.3008 1.94348 22.7165 2.25828 22.9243L1.78607 22.4393Z" fill="#0EDBFF"/>
<path fill-rule="evenodd" clip-rule="evenodd" d="M42.8681 2.48669C43.4977 2.69453 44.1273 2.90237 44.7569 3.17949C44.993 3.04093 45.2291 3.04094 45.4652 2.90238C45.78 2.69454 46.0161 2.34813 46.1735 2.07101C46.3309 1.58605 46.0948 1.23965 45.8587 0.893254C45.7013 0.685413 45.5439 0.339014 45.3078 0.131174C44.993 -0.0766659 44.4421 -0.00738588 44.1273 0.131174C43.7338 0.269734 43.4977 0.616133 43.2616 0.893254C43.0255 1.17037 42.7894 1.65534 42.7107 2.00174C42.7107 2.34814 43.0255 2.76381 43.3403 2.97165L42.8681 2.48669Z" fill="#0EDBFF"/>
<path fill-rule="evenodd" clip-rule="evenodd" d="M48.2986 50.2206C48.2199 50.2899 48.1412 50.3592 48.0625 50.4977C48.1412 50.6363 48.2199 50.7056 48.3773 50.7748C48.456 50.7748 48.5347 50.7748 48.6134 50.7748C48.6921 50.7056 48.6134 50.6363 48.6921 50.567C48.7708 50.4284 48.7708 50.3591 48.6921 50.2206C48.6134 50.1513 48.6134 50.082 48.5347 50.082C48.456 50.082 48.2986 50.082 48.2986 50.1513V50.2206Z" fill="#0EDBFF"/>
<path fill-rule="evenodd" clip-rule="evenodd" d="M48.8491 53.6851C48.8491 53.7544 48.613 54.1708 48.8491 54.032C49.0065 53.9626 49.0065 53.7544 48.8491 53.6851C48.9278 53.6851 48.9278 53.6851 48.8491 53.6851Z" fill="#0EDBFF"/>
<path fill-rule="evenodd" clip-rule="evenodd" d="M61.2051 59.9198C61.0477 60.128 61.0477 60.1974 60.969 60.4055C61.0477 60.4749 61.2051 60.4749 61.2838 60.4749C61.4412 60.4749 61.4412 60.4055 61.4412 60.3361C61.4412 60.2668 61.5199 60.128 61.4412 60.0586C61.3625 59.9198 61.2838 59.8504 61.2051 59.9198Z" fill="#0EDBFF"/>
<path fill-rule="evenodd" clip-rule="evenodd" d="M50.8167 50.6363C50.8954 50.7057 50.9741 50.7751 50.9741 50.9139C50.8167 50.9139 50.8167 50.8445 50.8167 50.7057C50.8167 50.5669 50.8954 50.6363 50.9741 50.4976C50.9741 50.4976 50.9741 50.4976 51.0528 50.4976L50.8167 50.6363Z" fill="#0EDBFF"/>
<path fill-rule="evenodd" clip-rule="evenodd" d="M62.6221 41.3526C62.5434 41.4219 62.4647 41.4912 62.386 41.5604C62.4647 41.6297 62.386 41.7683 62.5434 41.7683C62.6221 41.7683 62.7008 41.699 62.7795 41.5604C62.8582 41.4912 62.8582 41.4219 62.8582 41.2833C62.8582 41.214 62.8582 41.0062 62.7795 41.1448L62.6221 41.3526Z" fill="#0EDBFF"/>
<path fill-rule="evenodd" clip-rule="evenodd" d="M60.969 17.1744C61.1264 17.1744 61.2051 17.105 61.3625 17.105C61.3625 17.105 61.4412 17.105 61.5199 17.105C61.6773 17.105 61.6773 17.105 61.6773 17.1744C61.756 17.2438 61.756 17.3825 61.756 17.4519C61.6773 17.8683 61.0477 17.2438 61.2838 17.105L60.969 17.1744Z" fill="#0EDBFF"/>
<path fill-rule="evenodd" clip-rule="evenodd" d="M10.9157 17.936C10.6796 18.0053 10.3647 18.0053 10.3647 18.2131C10.3647 18.4209 10.6796 18.5595 10.837 18.6288C11.1518 18.6981 11.624 18.7673 11.7814 18.4209C11.8601 18.2131 11.7814 17.8667 11.7027 17.7281C11.4666 17.3817 10.9157 17.5203 10.5222 17.6589L10.9157 17.936Z" fill="#0EDBFF"/>
<path fill-rule="evenodd" clip-rule="evenodd" d="M64.0388 60.3357C63.9601 59.7122 63.8027 59.0887 64.4323 58.7423C64.7471 58.5345 65.3767 58.5345 65.7702 58.7423C66.0063 58.8809 66.2424 59.158 66.3211 59.3658C66.5572 59.7122 66.4785 59.7122 66.3998 59.9893C66.1637 60.6821 65.9276 61.0978 65.2193 61.0978C64.1962 61.0978 64.0388 60.405 64.0388 59.5737V60.3357Z" fill="#0EDBFF"/>
<path fill-rule="evenodd" clip-rule="evenodd" d="M64.511 42.6702C64.8258 42.6008 65.0619 42.462 65.2193 42.2538C64.9832 42.1151 64.5897 41.9069 64.511 42.2538V42.6702Z" fill="#0EDBFF"/>
<path fill-rule="evenodd" clip-rule="evenodd" d="M8.08228 58.6736C8.39708 58.6042 8.63318 58.4654 8.79058 58.2573C8.55448 58.1185 8.16098 57.9103 8.08228 58.2573V58.6736Z" fill="#0EDBFF"/>
<path fill-rule="evenodd" clip-rule="evenodd" d="M8.08228 63.9392C8.39708 63.8698 8.63318 63.7311 8.79058 63.5229C8.55448 63.3841 8.16098 63.1759 8.08228 63.5229V63.9392Z" fill="#0EDBFF"/>
<path fill-rule="evenodd" clip-rule="evenodd" d="M50.2662 45.0941C50.581 44.817 50.9745 44.2628 51.4467 44.5399C51.7616 44.7477 51.8402 45.1634 51.5254 45.3712C51.2893 45.5098 51.0532 45.5791 50.7384 45.6484C50.5023 45.7176 50.1875 45.5791 50.2662 45.302V45.0941Z" fill="#0EDBFF"/>
<path fill-rule="evenodd" clip-rule="evenodd" d="M59.6315 58.6727C59.9463 58.3956 60.3398 57.8414 60.812 58.1185C61.1268 58.3263 61.2055 58.742 60.8907 58.9499C60.6546 59.0884 60.4185 59.1577 60.1037 59.227C59.8676 59.2963 59.5528 59.1577 59.6315 58.8806V58.6727Z" fill="#0EDBFF"/>
<path fill-rule="evenodd" clip-rule="evenodd" d="M58.2146 13.6406C58.6081 13.7099 59.3951 13.7099 59.3164 14.2641C59.3164 14.5413 58.8442 14.8877 58.5294 14.7491C58.2146 14.6105 58.0572 14.472 57.8211 14.2641C57.6637 14.1256 57.585 13.7792 57.9785 13.7099L58.2146 13.6406Z" fill="#0EDBFF"/>
<path fill-rule="evenodd" clip-rule="evenodd" d="M56.6405 62.2064C56.9553 61.9293 57.3488 61.3751 57.821 61.6522C58.1358 61.86 58.2145 62.2757 57.8997 62.4835C57.6636 62.6221 57.4275 62.6914 57.1127 62.7607C56.8766 62.8299 56.5618 62.6914 56.6405 62.4143V62.2064Z" fill="#0EDBFF"/>
<path fill-rule="evenodd" clip-rule="evenodd" d="M43.891 44.6089C43.5762 44.8167 42.9466 45.0246 42.8679 45.5095C42.8679 45.7866 42.9466 45.9252 43.2614 46.0638C43.4975 46.133 43.8123 46.133 44.0484 46.0638C44.3632 45.9252 44.7567 45.6481 44.9142 45.371C44.9929 45.1631 44.9929 45.0246 44.9142 44.8167C44.8354 44.6782 44.7568 44.5396 44.5994 44.5396C44.1271 44.401 43.8911 44.8167 43.5762 44.9553L43.891 44.6089Z" fill="#0EDBFF"/>
<path fill-rule="evenodd" clip-rule="evenodd" d="M45.0717 43.5003C45.2291 43.5696 45.4652 43.6389 45.5439 43.7774C45.3865 43.8467 45.1504 43.9853 44.9143 43.916C44.6782 43.8467 44.5995 43.6389 44.6782 43.431C44.6782 43.2925 44.9143 43.0846 45.0717 43.1539C45.1504 43.1539 45.1504 43.2925 45.1504 43.2925C45.2291 43.431 45.2291 43.3617 45.1504 43.5003H45.0717Z" fill="#0EDBFF"/>
<path fill-rule="evenodd" clip-rule="evenodd" d="M54.8305 41.6295C53.8861 42.3223 53.0204 43.223 52.5482 44.2622C52.3121 44.8164 52.7056 44.8164 53.2565 44.7471C54.2796 44.5393 55.3814 44.3314 56.4045 44.0543C57.0341 43.9158 57.8998 43.6387 58.2933 43.1537C58.6081 42.8073 58.7655 42.1838 58.6868 41.7681C58.6081 41.1446 58.0572 40.9367 57.4276 40.7289C55.9323 40.3825 53.8861 41.7681 53.3352 42.9458L54.8305 41.6295Z" fill="#0EDBFF"/>
<path fill-rule="evenodd" clip-rule="evenodd" d="M49.6362 46.3413C49.951 46.3413 50.1871 46.4106 50.5019 46.5491C50.4232 46.6184 50.4232 46.757 50.4232 46.8263C50.3445 46.9648 50.1871 47.1034 50.1084 47.1727C49.8723 47.3112 49.4788 47.3805 49.2427 47.2419C48.4556 46.9648 49.6362 46.1335 49.951 46.4799L49.6362 46.3413Z" fill="#0EDBFF"/>
<path fill-rule="evenodd" clip-rule="evenodd" d="M5.87867 72.598C5.79997 72.6673 5.72128 72.7366 5.64258 72.8751C5.72128 73.0137 5.79998 73.083 5.95738 73.1523C6.03608 73.1523 6.11479 73.1523 6.19349 73.1523C6.2722 73.083 6.19348 73.0137 6.27218 72.9444C6.35088 72.8059 6.35088 72.7366 6.27218 72.598C6.19348 72.5288 6.19349 72.4595 6.11479 72.4595C6.03609 72.4595 5.87867 72.4595 5.87867 72.5287V72.598Z" fill="#0EDBFF"/>
<path fill-rule="evenodd" clip-rule="evenodd" d="M6.50825 76.062C6.50825 76.1314 6.27215 76.5477 6.50825 76.409C6.66566 76.3396 6.58696 76.1314 6.50825 76.062C6.50825 76.1314 6.50825 76.062 6.50825 76.062Z" fill="#0EDBFF"/>
<path fill-rule="evenodd" clip-rule="evenodd" d="M8.39697 73.0143C8.47567 73.0837 8.55438 73.1531 8.55438 73.2918C8.39698 73.2918 8.39697 73.2224 8.39697 73.0837C8.39697 72.9449 8.47568 73.0143 8.55438 72.8755C8.55438 72.8755 8.55437 72.8755 8.63307 72.8755L8.39697 73.0143Z" fill="#0EDBFF"/>
<path fill-rule="evenodd" clip-rule="evenodd" d="M7.21648 68.7183C7.53128 68.7183 7.76739 68.7875 8.0822 68.9261C8.00349 68.9954 8.00349 69.1339 8.00349 69.2032C7.92479 69.3418 7.76739 69.4803 7.68869 69.5496C7.45259 69.6882 7.05908 69.7575 6.82297 69.6189C6.03596 69.3418 7.21647 68.5104 7.53128 68.8568L7.21648 68.7183Z" fill="#0EDBFF"/>
<path fill-rule="evenodd" clip-rule="evenodd" d="M56.6407 14.2641C56.8768 14.4026 57.1916 14.5412 57.4277 14.7491C57.6638 15.0262 57.8999 15.234 58.0573 15.5111C58.136 15.6497 58.3721 15.9961 58.0573 15.9961C57.7425 16.0654 57.1129 15.6497 56.7981 15.4419C56.3259 15.1647 55.9324 14.9569 55.6176 14.5412C55.4602 14.3334 55.2241 13.987 55.3815 13.7791C55.5389 13.5713 55.6963 13.5713 55.9324 13.5713C56.1685 13.5713 56.3259 13.6406 56.562 13.7791C56.6407 13.8484 57.1129 14.2641 56.9555 14.3334L56.6407 14.2641Z" fill="#0EDBFF"/>
<path fill-rule="evenodd" clip-rule="evenodd" d="M60.1036 40.4521C59.9462 40.5214 59.0018 41.0064 59.474 41.2142C59.7101 41.3528 60.261 41.2835 60.4971 41.2142C60.7332 41.1449 60.9693 41.0064 60.8119 40.7985C60.4971 40.3136 59.7888 40.5907 59.3953 40.7985L60.1036 40.4521Z" fill="#0EDBFF"/>
<path fill-rule="evenodd" clip-rule="evenodd" d="M67.1865 11.978C66.8717 12.1859 64.3533 13.3636 65.5338 13.9179C66.1634 14.195 67.4226 14.1257 68.0522 13.8486C68.6031 13.6407 69.2327 13.2943 68.8392 12.7401C68.1309 11.5623 66.3208 12.2551 65.3764 12.7401L67.1865 11.978Z" fill="#0EDBFF"/>
<path fill-rule="evenodd" clip-rule="evenodd" d="M8.47559 61.5134C8.55429 61.9984 8.71168 62.5526 9.18389 62.899C9.7348 63.2454 10.2857 63.1069 10.8366 62.8297C11.2301 62.6219 11.5449 62.4141 11.9384 62.2062C12.1745 62.0677 12.3319 62.0677 12.3319 61.7905C12.3319 61.5134 12.0171 61.0977 11.8597 60.8899C11.6236 60.6128 11.1514 60.3357 10.8366 60.1971C10.0496 59.92 8.55429 60.1971 8.55429 61.0977L8.47559 61.5134Z" fill="#0EDBFF"/>
<path fill-rule="evenodd" clip-rule="evenodd" d="M60.5757 62.5528C60.6544 62.8992 60.7331 63.3149 61.0479 63.5227C61.4414 63.7998 61.8349 63.6613 62.2284 63.4534C62.4645 63.3149 62.7793 63.1763 63.0154 63.0378C63.1728 62.9685 63.3302 62.9685 63.3302 62.7606C63.3302 62.5528 63.0941 62.2757 63.0154 62.1371C62.858 61.9293 62.5432 61.7214 62.3071 61.6522C61.7562 61.4443 60.7331 61.6522 60.7331 62.2757L60.5757 62.5528Z" fill="#0EDBFF"/>
<path fill-rule="evenodd" clip-rule="evenodd" d="M51.6821 10.5229C51.6821 10.5229 53.4135 16.8967 58.2143 19.3215C64.2743 22.3698 68.5241 21.3306 68.5241 21.3306C68.5241 21.3306 63.0938 21.1921 58.0569 18.1438C53.8858 15.5804 51.6821 10.5229 51.6821 10.5229Z" fill="url(#paint21_linear_168_72984)"/>
<path opacity="0.2" fill-rule="evenodd" clip-rule="evenodd" d="M40.2703 59.8506L43.497 55.6938C43.497 55.6938 47.6682 66.0859 58.3715 69.342L56.0105 70.6583C56.0892 70.6583 45.071 67.8871 40.2703 59.8506Z" fill="black"/>
<path opacity="0.3" fill-rule="evenodd" clip-rule="evenodd" d="M46.4089 13.6406C46.4089 13.6406 61.913 27.3581 73.0886 33.4547C73.0886 33.4547 71.9868 29.7136 68.9961 26.2496C68.9961 26.3189 59.6307 23.617 46.4089 13.6406Z" fill="black"/>
<defs>
<linearGradient id="paint0_linear_168_72984" x1="13.1314" y1="26.8362" x2="13.1314" y2="15.4693" gradientUnits="userSpaceOnUse">
<stop stop-color="#9A00B3"/>
<stop offset="1" stop-color="#7F72FF"/>
</linearGradient>
<linearGradient id="paint1_linear_168_72984" x1="10.274" y1="27.412" x2="14.1177" y2="14.082" gradientUnits="userSpaceOnUse">
<stop stop-color="#5B008B"/>
<stop offset="1" stop-color="#8E00FF"/>
</linearGradient>
<radialGradient id="paint2_radial_168_72984" cx="0" cy="0" r="1" gradientUnits="userSpaceOnUse" gradientTransform="translate(14.8081 29.0946) scale(59.8926 52.7232)">
<stop offset="0.00558659" stop-color="#60DBFF"/>
<stop offset="0.0937306" stop-color="#60D5FF"/>
<stop offset="0.211" stop-color="#5FC4FF"/>
<stop offset="0.3446" stop-color="#5DA9FF"/>
<stop offset="0.4903" stop-color="#5A82FF"/>
<stop offset="0.6442" stop-color="#5751FF"/>
<stop offset="0.6844" stop-color="#5643FF"/>
<stop offset="0.7432" stop-color="#563DF8"/>
<stop offset="0.8282" stop-color="#552EE5"/>
<stop offset="0.9287" stop-color="#5315C6"/>
<stop offset="1" stop-color="#5200AB"/>
</radialGradient>
<linearGradient id="paint3_linear_168_72984" x1="0.613935" y1="35.4417" x2="54.2485" y2="35.4417" gradientUnits="userSpaceOnUse">
<stop offset="0.0111732" stop-color="#81E0FF"/>
<stop offset="0.3224" stop-color="#82DDFF"/>
<stop offset="0.5506" stop-color="#86D4FF"/>
<stop offset="0.7523" stop-color="#8BC4FF"/>
<stop offset="0.9375" stop-color="#94ADFF"/>
<stop offset="1" stop-color="#97A4FF"/>
</linearGradient>
<linearGradient id="paint4_linear_168_72984" x1="0.954803" y1="26.1516" x2="47.8455" y2="26.1516" gradientUnits="userSpaceOnUse">
<stop stop-color="#B8C2FF"/>
<stop offset="1" stop-color="#7D72B3"/>
</linearGradient>
<linearGradient id="paint5_linear_168_72984" x1="8.56441" y1="56.876" x2="75.1848" y2="56.876" gradientUnits="userSpaceOnUse">
<stop stop-color="#B8C2FF"/>
<stop offset="1" stop-color="#7D72B3"/>
</linearGradient>
<linearGradient id="paint6_linear_168_72984" x1="4.62968" y1="44.7461" x2="71.1163" y2="44.7461" gradientUnits="userSpaceOnUse">
<stop stop-color="#B8C2FF"/>
<stop offset="1" stop-color="#7D72B3"/>
</linearGradient>
<linearGradient id="paint7_linear_168_72984" x1="0.615588" y1="36.5669" x2="65.9689" y2="36.5669" gradientUnits="userSpaceOnUse">
<stop stop-color="#B8C2FF"/>
<stop offset="1" stop-color="#7D72B3"/>
</linearGradient>
<linearGradient id="paint8_linear_168_72984" x1="49.1663" y1="32.6635" x2="50.0634" y2="32.6635" gradientUnits="userSpaceOnUse">
<stop stop-color="#E8DDFF"/>
<stop offset="1" stop-color="#AA8AD8"/>
</linearGradient>
<linearGradient id="paint9_linear_168_72984" x1="41.6027" y1="49.1946" x2="44.1297" y2="40.4309" gradientUnits="userSpaceOnUse">
<stop stop-color="#5B008B"/>
<stop offset="1" stop-color="#8E00FF"/>
</linearGradient>
<linearGradient id="paint10_linear_168_72984" x1="2.95307" y1="46.4178" x2="3.1405" y2="46.4178" gradientUnits="userSpaceOnUse">
<stop stop-color="#E8DDFF"/>
<stop offset="1" stop-color="#AA8AD8"/>
</linearGradient>
<linearGradient id="paint11_linear_168_72984" x1="45.0472" y1="18.1314" x2="68.9768" y2="18.1314" gradientUnits="userSpaceOnUse">
<stop stop-color="#7F72FF"/>
<stop offset="1" stop-color="#9A00B3"/>
</linearGradient>
<linearGradient id="paint12_linear_168_72984" x1="50.4831" y1="68.6987" x2="60.0992" y2="35.3501" gradientUnits="userSpaceOnUse">
<stop stop-color="#280077"/>
<stop offset="1" stop-color="#812CFF"/>
</linearGradient>
<linearGradient id="paint13_linear_168_72984" x1="53.9579" y1="68.0354" x2="63.1311" y2="36.2245" gradientUnits="userSpaceOnUse">
<stop stop-color="#7A00B3"/>
<stop offset="1" stop-color="#B136FF"/>
</linearGradient>
<linearGradient id="paint14_linear_168_72984" x1="57.9469" y1="59.1087" x2="57.9469" y2="36.5693" gradientUnits="userSpaceOnUse">
<stop stop-color="#8E00B3"/>
<stop offset="1" stop-color="#E05CFF"/>
</linearGradient>
<linearGradient id="paint15_linear_168_72984" x1="12.6702" y1="68.3548" x2="16.6423" y2="54.5793" gradientUnits="userSpaceOnUse">
<stop stop-color="#280077"/>
<stop offset="1" stop-color="#812CFF"/>
</linearGradient>
<linearGradient id="paint16_linear_168_72984" x1="43.3279" y1="80.0358" x2="43.3279" y2="74.1986" gradientUnits="userSpaceOnUse">
<stop stop-color="#7A00B3"/>
<stop offset="0.9162" stop-color="#7006FC"/>
<stop offset="1" stop-color="#7006F9"/>
</linearGradient>
<linearGradient id="paint17_linear_168_72984" x1="12.9709" y1="70.5078" x2="12.9709" y2="53.7297" gradientUnits="userSpaceOnUse">
<stop stop-color="#7A00B3"/>
<stop offset="1" stop-color="#B136FF"/>
</linearGradient>
<linearGradient id="paint18_linear_168_72984" x1="13.9694" y1="70.5012" x2="13.9694" y2="53.7298" gradientUnits="userSpaceOnUse">
<stop stop-color="#8E00B3"/>
<stop offset="1" stop-color="#E05CFF"/>
</linearGradient>
<linearGradient id="paint19_linear_168_72984" x1="42.5806" y1="47.7364" x2="44.6708" y2="40.4877" gradientUnits="userSpaceOnUse">
<stop stop-color="#A400CA"/>
<stop offset="1" stop-color="#B136FF"/>
</linearGradient>
<linearGradient id="paint20_linear_168_72984" x1="55.8066" y1="22.5056" x2="58.8231" y2="12.0445" gradientUnits="userSpaceOnUse">
<stop stop-color="#5B008B"/>
<stop offset="1" stop-color="#8E00FF"/>
</linearGradient>
<linearGradient id="paint21_linear_168_72984" x1="60.1355" y1="21.504" x2="60.1355" y2="10.5303" gradientUnits="userSpaceOnUse">
<stop stop-color="#B000D9"/>
<stop offset="1" stop-color="#E05CFF"/>
</linearGradient>
</defs>
</svg>
