<svg width="67" height="66" viewBox="0 0 67 66" fill="none" xmlns="http://www.w3.org/2000/svg">
<path fill-rule="evenodd" clip-rule="evenodd" d="M66.6017 32.999C66.6017 42.5056 62.577 51.0407 56.1236 57.0778C53.0704 59.9228 49.3927 62.2127 45.368 63.7393C41.7596 65.1271 37.8043 65.8904 33.7103 65.8904C32.253 65.8904 30.7958 65.821 29.408 65.6129C23.0934 64.7802 17.2646 62.1433 12.6153 58.188C9.21518 55.343 6.37014 51.804 4.3578 47.8487C3.10876 45.3507 2.13728 42.6444 1.51276 39.7994C1.02702 37.5788 0.818848 35.3583 0.818848 32.999C0.818848 26.4763 2.69241 20.4392 5.95379 15.3737C7.34162 13.2225 8.93762 11.2102 10.8112 9.47542C16.7094 3.71595 24.8282 0.177002 33.7103 0.177002C34.4042 0.177002 35.1675 0.177004 35.8614 0.246395C39.6085 0.454568 43.1475 1.35665 46.4782 2.74448C47.0334 2.95265 47.5885 3.23021 48.1436 3.50778C51.3356 5.03438 54.25 7.11612 56.7481 9.6142C62.8546 15.5125 66.6017 23.8394 66.6017 32.999Z" fill="url(#paint0_radial_168_75083)"/>
<path fill-rule="evenodd" clip-rule="evenodd" d="M16.3624 54.7879C13.5867 54.7879 8.52116 50.7632 6.09247 45.6283C3.10865 39.1749 3.03926 32.3746 4.49647 31.1255C4.91282 30.7786 5.46795 30.5704 6.16186 30.5704C6.5782 30.5704 7.13334 30.6398 7.61907 30.7786C11.0886 31.8194 15.946 36.6074 18.0277 41.4648C20.0401 46.1834 19.485 49.9305 18.8604 52.2205C18.4441 54.3716 17.2644 54.7879 16.3624 54.7879Z" fill="url(#paint1_linear_168_75083)"/>
<path fill-rule="evenodd" clip-rule="evenodd" d="M18.4442 52.0816C18.0972 53.4001 17.4727 54.2328 16.3625 54.2328C14.0032 54.2328 9.00699 50.4856 6.64769 45.3507C3.59448 38.8973 3.80266 32.5133 4.91292 31.5418C5.46804 31.0561 6.43952 30.9867 7.54978 31.3337C11.0887 32.3745 16.4318 36.885 17.5421 41.6036C18.583 45.5589 19.0687 49.7223 18.4442 52.0816Z" fill="url(#paint2_linear_168_75083)"/>
<path fill-rule="evenodd" clip-rule="evenodd" d="M7.06414 28.4192C6.71719 28.4192 6.37023 28.2804 6.16206 28.0029C5.25997 26.962 6.57841 23.2843 7.13354 21.9658C8.03562 19.8841 9.0071 18.7738 9.83979 18.7738C10.1867 18.7738 10.4643 18.9126 10.7419 19.1208L10.8807 19.2596C11.8521 20.2311 12.3379 22.521 11.4358 24.3251C10.7419 25.6436 8.72953 27.9335 7.34171 28.2804C7.34171 28.4192 7.20293 28.4192 7.06414 28.4192Z" fill="url(#paint3_linear_168_75083)"/>
<path fill-rule="evenodd" clip-rule="evenodd" d="M11.2276 24.1864C10.603 25.4354 8.5213 27.7253 7.27226 28.0723C6.9253 28.1416 6.64774 28.1417 6.50896 27.9335C5.60687 26.8232 8.24374 19.2596 10.0479 19.1902C10.3255 19.1902 10.603 19.329 10.8112 19.5371C11.5745 20.3004 12.0603 22.4516 11.2276 24.1864Z" fill="url(#paint4_linear_168_75083)"/>
<path fill-rule="evenodd" clip-rule="evenodd" d="M53.5562 53.9551C52.446 53.9551 51.6133 53.5388 51.2663 52.7061C50.5724 51.1795 50.9194 45.5588 53.1399 40.632C56.4013 33.2766 60.9811 31.3336 62.8547 31.3336C62.9934 31.3336 63.1322 31.3336 63.2016 31.3336C63.271 31.3336 63.3404 31.3336 63.4098 31.403C63.8955 31.5418 64.3813 31.9581 64.6588 32.5827C65.9773 35.2889 65.214 41.9505 63.0628 46.5997C61.1893 50.9713 56.5401 53.9551 53.5562 53.9551Z" fill="url(#paint5_linear_168_75083)"/>
<path fill-rule="evenodd" clip-rule="evenodd" d="M62.6463 46.4609C60.0094 52.151 53.0009 54.996 51.8212 52.4979C51.1967 51.2489 51.4743 45.9058 53.6948 40.9096C57.0256 33.4848 61.6054 31.75 63.2014 31.9581H63.2708C65.5607 32.5827 65.2137 40.8402 62.6463 46.4609Z" fill="url(#paint6_linear_168_75083)"/>
<path fill-rule="evenodd" clip-rule="evenodd" d="M62.1609 30.9173C61.8833 30.9173 61.6751 30.8479 61.467 30.7092C60.0791 29.8765 59.177 24.5333 60.1485 22.868C60.4261 22.3822 60.773 22.2434 60.9812 22.2434C61.0506 22.2434 61.1894 22.2434 61.3282 22.2434C62.8548 22.2434 64.3814 24.0476 64.9365 26.4069C65.2835 28.0723 64.5896 29.4601 63.7569 30.154C63.2711 30.6398 62.716 30.9173 62.1609 30.9173Z" fill="url(#paint7_linear_168_75083)"/>
<path fill-rule="evenodd" clip-rule="evenodd" d="M63.4098 29.7376C62.8546 30.2928 62.2301 30.5009 61.8138 30.2234C60.7035 29.5988 59.8708 24.6027 60.7035 23.1455C60.8423 22.9373 60.9811 22.7985 61.1199 22.7985C62.2301 22.5903 63.8261 24.0476 64.3812 26.5456C64.6588 27.8641 64.1037 29.0437 63.4098 29.7376Z" fill="url(#paint8_linear_168_75083)"/>
<path fill-rule="evenodd" clip-rule="evenodd" d="M35.7918 65.4741C35.5837 65.4741 35.3755 65.4741 35.1673 65.4741C31.7671 65.4047 29.1997 63.9475 28.7833 62.6985C28.6445 62.2127 28.7139 61.727 29.0609 61.4494C30.1018 60.5474 34.4734 60.478 35.3755 60.478C38.2205 60.478 41.6901 60.7555 41.9676 62.074C42.037 62.4209 42.037 62.9067 41.4819 63.5312C40.7186 64.2945 39.6777 65.4741 35.7918 65.4741Z" fill="url(#paint9_linear_168_75083)"/>
<path fill-rule="evenodd" clip-rule="evenodd" d="M41.0655 63.0454C40.2328 63.9475 39.2613 64.9884 35.1673 64.919C31.212 64.7802 28.4363 62.6985 29.4078 61.8658C30.7262 60.7555 40.9961 60.6861 41.3431 62.2127C41.4819 62.4209 41.4125 62.7678 41.0655 63.0454Z" fill="url(#paint10_linear_168_75083)"/>
<path fill-rule="evenodd" clip-rule="evenodd" d="M51.7519 33.4848C49.5314 33.4848 47.866 32.4439 46.9639 30.5704C44.8822 25.9906 44.8822 17.1085 46.4088 13.5695C46.8251 12.6674 47.2415 12.1123 47.7966 11.9041C48.3517 11.696 48.9069 11.5572 49.5314 11.5572C51.4744 11.5572 53.4867 12.8756 55.3603 15.3043C58.4135 19.329 60.5646 25.8518 59.7319 28.7662C59.4543 29.6683 58.691 30.7092 57.442 31.5419C55.7072 32.7215 53.6255 33.4848 51.7519 33.4848Z" fill="url(#paint11_linear_168_75083)"/>
<path fill-rule="evenodd" clip-rule="evenodd" d="M59.1769 28.558C58.9687 29.3907 58.2054 30.2928 57.0952 31.0561C54.2501 33.1378 49.254 34.2481 47.4498 30.3622C45.4375 25.9212 45.4375 17.2473 46.8947 13.7777C47.1722 13.0838 47.5886 12.598 48.0049 12.3899C54.1807 9.8224 60.3566 24.2558 59.1769 28.558Z" fill="url(#paint12_linear_168_75083)"/>
<path fill-rule="evenodd" clip-rule="evenodd" d="M18.4443 52.0816C15.2523 53.2612 10.2561 49.2365 7.68863 42.6444C5.39872 36.8849 7.1335 32.3051 7.61924 31.3336C11.1582 32.3745 16.5013 36.8849 17.6116 41.6035C18.583 45.5588 19.0688 49.7223 18.4443 52.0816Z" fill="#FFFF45"/>
<path fill-rule="evenodd" clip-rule="evenodd" d="M41.0659 63.0454C34.2656 65.1272 29.4082 61.7964 29.4082 61.7964C30.7266 60.6861 40.9965 60.6167 41.3435 62.1434C41.4823 62.4209 41.4129 62.7679 41.0659 63.0454Z" fill="#FFFF45"/>
<path fill-rule="evenodd" clip-rule="evenodd" d="M61.536 45.9058C56.8868 53.4694 51.7519 52.4979 51.7519 52.4979C51.1274 51.2489 51.4049 45.9058 53.6255 40.9096C56.9562 33.4848 61.536 31.75 63.132 31.9581H63.2014C64.1729 34.8032 64.8668 40.4933 61.536 45.9058Z" fill="#FFFF45"/>
<path fill-rule="evenodd" clip-rule="evenodd" d="M57.0952 31.0561C54.2501 33.1379 49.254 34.2481 47.4498 30.3622C45.4375 25.9212 45.4375 17.2473 46.8947 13.7777C48.1437 13.639 50.5724 14.0553 53.2787 18.08C57.1646 23.6313 58.4136 27.8641 57.0952 31.0561Z" fill="#FFFF45"/>
<path fill-rule="evenodd" clip-rule="evenodd" d="M63.4098 29.7377C62.8546 30.2928 62.2301 30.501 61.8138 30.2234C60.7035 29.5989 59.8708 24.6027 60.7035 23.1455C61.5362 23.6312 62.8546 24.6721 63.2016 26.5457C63.3404 27.7253 63.4098 28.8356 63.4098 29.7377Z" fill="#FFFF45"/>
<path fill-rule="evenodd" clip-rule="evenodd" d="M11.2278 24.1864C10.6032 25.4354 8.5215 27.7253 7.27246 28.0723C7.34185 27.5865 8.31333 21.6883 10.742 19.5372C11.5747 20.3005 12.0605 22.4516 11.2278 24.1864Z" fill="#FFFF45"/>
<path opacity="0.3" fill-rule="evenodd" clip-rule="evenodd" d="M50.7808 40.7708C50.4338 41.5341 50.0868 42.228 49.6011 42.922C49.1848 43.4077 48.699 43.824 48.4215 44.3792C47.3806 46.3221 47.5888 48.5426 47.0336 50.555C46.6867 51.6652 45.854 52.5673 45.507 53.6776C45.3682 54.1633 45.4376 54.6491 45.4376 55.2042C45.4376 55.8287 45.0907 56.2451 44.7437 56.7308C44.3274 57.2859 43.7723 57.6329 43.1477 57.9105C42.662 58.1186 42.1069 58.0492 41.5517 58.0492C40.3721 58.0492 39.2618 57.9105 38.0822 57.5635C37.0413 57.2859 36.0698 56.8002 35.029 56.4532C34.335 56.2451 33.7799 56.3145 33.086 56.4532C32.4615 56.592 31.7676 56.5226 31.1431 56.5226C30.0328 56.5226 28.9919 57.1472 28.0205 57.6329C27.3265 57.9799 26.8408 58.3962 26.5632 59.1595C26.2163 60.0616 26.2163 60.8943 25.1754 61.2412C24.5509 61.4494 23.7876 61.2412 23.1631 61.1025C22.6079 60.9637 21.9834 61.0331 21.4283 61.0331C20.318 61.0331 19.2772 60.6861 18.2363 60.2004C17.0567 59.5758 16.0158 58.6738 15.1137 57.7717C14.628 57.2859 13.934 57.0084 13.4483 56.5226C12.7544 55.8981 11.9911 55.2736 11.3666 54.6491C10.3257 53.6082 9.21545 52.5673 8.10519 51.5959C7.2725 50.9713 6.57858 50.1386 5.88467 49.3753C5.32954 48.7508 4.98259 47.8487 4.56624 47.0854C3.73354 45.6282 3.03963 43.9628 2.62329 42.2974C2.13755 40.4239 1.58242 38.4115 1.65181 36.4686C1.65181 34.8032 1.44364 33.2766 1.44364 31.6112C1.30485 34.7338 1.44364 37.3013 1.79059 39.73C1.30485 37.5094 1.09668 35.2889 1.09668 32.9296C1.09668 26.4069 2.97024 20.3698 6.23163 15.3043C7.61945 13.1531 9.21545 11.1408 11.089 9.40602C16.9873 3.64655 25.106 0.107605 33.9881 0.107605C34.682 0.107605 35.4453 0.107604 36.1392 0.176995C39.8863 0.385169 43.4253 1.28726 46.7561 2.67508C47.5888 3.57716 48.4215 4.61803 49.046 5.6589C49.3235 6.07525 49.4623 6.56098 49.7399 6.97733C49.9481 7.39368 50.2256 7.53246 50.1562 8.0182C50.0868 8.29576 49.9481 8.64272 49.8093 8.92028C49.4623 9.82237 48.4215 10.4469 47.6582 10.9326C46.5479 11.6265 45.2989 11.9041 44.1192 12.5286C43.3559 12.945 43.1477 13.2919 42.5926 13.9164C42.315 14.2634 41.9681 14.4716 41.7599 14.8185C41.1354 15.79 40.7884 17.1778 40.8578 18.2881C40.9272 20.5086 42.662 22.1046 43.0783 24.1863C43.4253 25.9905 43.1477 27.9335 43.7723 29.6682C44.3968 31.6806 46.1316 33.2766 47.7969 34.4562C48.4909 34.942 49.1154 35.3583 49.7399 35.9135C50.295 36.4686 51.0583 36.7461 51.4747 37.4401C51.8216 38.5503 51.1971 39.73 50.7808 40.7708Z" fill="url(#paint13_linear_168_75083)"/>
<path fill-rule="evenodd" clip-rule="evenodd" d="M48.1436 3.43841C48.0048 3.43841 47.9354 3.43841 47.7966 3.5078C47.4497 3.57719 47.1027 3.5078 46.7557 3.43841C46.4782 3.36902 46.3394 3.23024 45.9924 3.23024C45.5761 3.16085 45.2291 3.02206 44.8128 2.95267C44.3965 2.88328 44.0495 2.7445 43.6331 2.60572C43.2862 2.46693 43.1474 2.53632 42.8698 2.60572C42.5923 2.67511 42.3841 2.53632 42.1065 2.46693C41.829 2.32815 41.482 2.32815 41.2045 2.25876C40.3718 2.11998 39.5391 1.84241 38.7064 1.63424C38.2206 1.49546 37.7349 1.49546 37.1798 1.49546C36.7634 1.49546 36.4165 1.63424 36.0001 1.63424C35.7226 1.63424 35.5144 1.56485 35.2368 1.56485C34.9593 1.49546 34.6817 1.56485 34.4041 1.56485C33.9878 1.49546 33.7796 1.42607 33.3633 1.56485C33.0163 1.63424 32.8081 1.63424 32.4612 1.70363C32.1142 1.70363 31.6979 1.84241 31.3509 1.9118C30.7264 2.05059 30.0325 2.18937 29.408 2.18937C28.9916 2.18937 28.4365 2.05059 28.0895 2.18937C27.8813 2.25876 27.7426 2.53633 27.5344 2.67511C27.1874 3.02206 26.8405 3.29963 26.5629 3.64658C26.2854 3.99354 26.0078 4.40989 26.0078 4.89562C26.0078 5.31197 26.216 5.79771 26.4241 6.14467C26.6323 6.56101 26.7017 6.90797 26.2854 7.18553C25.7996 7.53249 25.1751 7.81005 24.62 8.01823C24.2036 8.15701 23.8567 8.2264 23.5791 7.94884C23.4403 7.87945 23.3709 7.67127 23.2321 7.53249C23.0934 7.4631 22.8852 7.53249 22.7464 7.60188C22.3301 7.74066 21.9137 7.87945 21.4974 7.94884C21.2198 8.01823 21.0116 8.15701 20.7341 8.15701C20.4565 8.2264 20.2483 8.01823 19.9014 8.08762C19.485 8.15701 18.9993 8.36518 18.5829 8.36518C18.236 8.36518 17.8196 8.2264 17.5421 8.08762C17.4033 8.01823 17.3339 7.87945 17.1257 7.94884C16.9869 7.94884 16.7788 8.15701 16.7094 8.29579C16.5706 8.43457 16.5706 8.64275 16.4318 8.78153C16.293 8.9897 16.2236 9.12849 16.0849 9.33666C15.8767 9.68362 15.6685 10.0306 15.4603 10.3775C15.3215 10.5857 15.1828 10.9327 14.9746 11.1408C14.9052 11.2796 14.697 11.349 14.5582 11.4184C14.2113 11.6266 13.8643 11.9041 13.5174 12.1123C12.8929 12.598 12.2683 13.1532 11.6438 13.6389C11.1581 13.9859 10.4642 14.194 9.90904 14.4716C9.56208 14.6104 9.21512 14.7492 8.86817 14.888C8.72939 14.9573 8.52121 14.9573 8.45182 15.0961C8.31304 15.2349 8.24365 15.3737 8.17426 15.5819C7.89669 15.9288 7.54974 16.3452 7.34156 16.7615C7.20278 17.0391 7.13339 17.2473 6.99461 17.5248C6.85582 17.8718 6.64765 18.2187 6.57826 18.6351C6.3007 19.3984 6.30069 20.2311 5.95374 20.9944C5.81496 21.4107 5.53739 21.8271 5.32922 22.2434C4.98226 22.9373 4.91287 23.77 4.84348 24.5333C4.77409 24.9497 4.84348 25.5048 4.91287 25.9212C4.98226 26.4069 4.98226 26.8926 4.98226 27.3784C4.98226 27.8641 4.63531 28.4192 4.35774 28.7662C4.08018 29.1131 3.59444 29.2519 3.24748 29.5989C2.96992 29.8764 2.62296 30.154 2.48418 30.5704C2.41479 30.7091 2.48418 30.9173 2.48418 31.1255C2.41479 31.5418 2.27601 31.8888 2.27601 32.3051C2.20662 32.7909 2.20662 33.2766 2.20662 33.8317C2.20662 34.1093 2.20662 34.3175 2.20662 34.595C2.20662 34.8726 2.27601 35.0808 2.3454 35.289C2.3454 35.4277 2.3454 35.6359 2.3454 35.7747C2.3454 35.9829 2.48418 36.191 2.48418 36.3298C2.62296 36.8156 2.69235 37.2319 2.76175 37.7177C2.83114 38.134 3.03931 38.5503 3.1087 38.9667C3.31688 39.5218 3.38627 40.0769 3.52505 40.7015C3.59444 41.1178 3.59444 41.6036 3.66383 42.0199C3.73322 42.3669 3.80261 42.7138 3.80261 43.0608C3.80261 43.6159 3.66383 44.1016 3.66383 44.6568C3.66383 45.5589 4.01079 46.4609 4.21896 47.363C4.28835 47.6406 4.35774 47.8488 4.42713 48.1263C2.13722 43.6853 0.888184 38.6197 0.888184 33.2766C0.888184 26.7538 2.76175 20.7168 6.02313 15.6513C7.41095 13.5001 9.00695 11.4878 10.8805 9.75301C16.7788 3.99354 24.8975 0.45459 33.7796 0.45459C34.4735 0.45459 35.2368 0.454589 35.9307 0.52398C40.233 0.52398 44.3964 1.63424 48.1436 3.43841Z" fill="url(#paint14_linear_168_75083)"/>
<path opacity="0.3" fill-rule="evenodd" clip-rule="evenodd" d="M45.2988 58.0492C45.9234 57.6329 46.5479 57.2859 47.2418 56.8696C47.9357 56.4532 48.6296 56.2451 49.3929 55.8981C49.9481 55.6899 50.0174 55.6899 50.4338 56.0369C50.8501 56.3838 51.3359 56.4532 51.8216 56.4532C52.5155 56.4532 53.2788 56.5226 53.3482 57.4247C53.4176 58.6738 51.6134 59.7146 50.7114 60.2004C50.0174 60.6167 49.2541 60.8943 48.4908 61.2412C47.8663 61.5188 47.1724 61.8658 46.4785 61.9351C45.854 62.0045 45.507 61.727 45.0907 61.3106C44.6049 60.7555 44.6743 60.2698 44.6743 59.6452C44.6743 58.8125 44.6743 58.2574 45.2988 58.0492Z" fill="url(#paint15_linear_168_75083)"/>
<path opacity="0.3" fill-rule="evenodd" clip-rule="evenodd" d="M55.0826 12.0429C55.5683 13.0144 55.9153 14.3328 56.6786 15.1655C57.0949 15.5819 57.3725 15.6512 57.9276 15.6512C58.2052 15.6512 58.6909 15.7206 58.9685 15.6512C59.3154 15.5125 59.3154 15.0961 59.3154 14.7492C59.246 13.4307 58.4133 12.2511 57.5807 11.349C57.0255 10.7245 56.1928 10.0306 55.2907 10.1693C55.0132 10.7939 54.9438 11.4184 55.0826 12.0429Z" fill="url(#paint16_linear_168_75083)"/>
<path fill-rule="evenodd" clip-rule="evenodd" d="M36.9717 63.8087C36.9023 63.9475 36.7635 64.0169 36.8329 64.1557C36.9023 64.2251 37.041 64.2944 37.1104 64.2944C37.2492 64.3638 37.5268 64.2945 37.6656 64.2251C37.8044 64.1557 37.735 64.0169 37.6656 63.8781C37.5268 63.6699 37.3186 63.6005 37.1104 63.7393L36.9717 63.8087Z" fill="#FFFF45"/>
<path fill-rule="evenodd" clip-rule="evenodd" d="M15.4603 8.64276C15.1133 8.78154 14.9745 8.78154 14.6276 9.05911C14.35 9.26728 14.0725 9.47545 13.7949 9.75302C13.4479 10.1 13.3092 10.4469 13.2398 10.7939C13.101 11.1408 13.0316 11.5572 13.1704 11.7654C13.2398 11.8348 13.4479 11.8348 13.6561 11.8348C13.9337 11.7654 14.2112 11.5572 14.4888 11.4184C14.8358 11.2102 15.1133 10.8633 15.3909 10.5163C15.5991 10.2388 15.6685 9.96119 15.8072 9.68363C15.8766 9.47546 15.946 9.33668 16.0154 9.19789C16.0848 9.05911 16.0848 8.92033 16.0154 8.85094C15.946 8.64276 15.8766 8.64276 15.4603 8.64276Z" fill="#FFFF45"/>
<path fill-rule="evenodd" clip-rule="evenodd" d="M19.3465 8.01823C19.2077 8.15701 18.9302 8.36519 19.1383 8.50397C19.2077 8.57336 19.2771 8.50397 19.3465 8.57336C19.4159 8.57336 19.4159 8.64275 19.4853 8.57336C19.6935 8.57336 19.6241 7.94884 19.3465 8.01823Z" fill="#FFFF45"/>
<path fill-rule="evenodd" clip-rule="evenodd" d="M20.3872 10.1C20.4566 10.0306 20.5954 10.0306 20.6648 10.0306C20.6648 10.1694 20.8036 10.3775 20.5954 10.5163C20.4566 10.5857 20.526 10.3081 20.4566 10.3081L20.3872 10.1Z" fill="#FFFF45"/>
<path fill-rule="evenodd" clip-rule="evenodd" d="M22.3994 10.1C22.6076 10.1694 22.7464 10.2388 22.9545 10.3082C23.0239 10.2388 23.0933 10.2388 23.1627 10.2388C23.2321 10.1694 23.3015 10.0306 23.3709 9.9612C23.4403 9.82241 23.3709 9.68363 23.3015 9.54485C23.2321 9.47546 23.2321 9.33668 23.1627 9.26728C23.0933 9.19789 22.8852 9.19789 22.8158 9.26728C22.677 9.33668 22.6076 9.40607 22.5382 9.54485C22.4688 9.61424 22.3994 9.82241 22.3994 9.89181C22.3994 10.0306 22.4688 10.1694 22.6076 10.2388L22.3994 10.1Z" fill="#FFFF45"/>
<path fill-rule="evenodd" clip-rule="evenodd" d="M24.0649 48.1264C24.2731 48.1958 24.4119 48.2652 24.6201 48.3345C24.6895 48.2652 24.7589 48.2652 24.8282 48.2652C24.8976 48.1958 24.967 48.057 25.0364 47.9876C25.1058 47.8488 25.0364 47.71 24.967 47.5712C24.8976 47.5019 24.8976 47.3631 24.8282 47.2937C24.7589 47.2243 24.5507 47.2243 24.4813 47.2937C24.3425 47.3631 24.2731 47.4325 24.2037 47.5712C24.1343 47.6406 24.0649 47.8488 24.0649 47.9182C24.0649 48.057 24.1343 48.1958 24.2731 48.2652L24.0649 48.1264Z" fill="#FFFF45"/>
<path fill-rule="evenodd" clip-rule="evenodd" d="M17.0563 11.9042C16.9869 11.9736 16.9175 12.043 16.8481 12.1123C16.9175 12.1817 16.9869 12.3205 17.1257 12.3205C17.1951 12.3205 17.2645 12.3205 17.2645 12.3205C17.3339 12.2511 17.2645 12.1817 17.3339 12.1817C17.4033 12.043 17.4033 12.043 17.3339 11.9042C17.2645 11.8348 17.2645 11.8348 17.1951 11.8348C17.1257 11.8348 17.0563 11.8348 16.9869 11.9042H17.0563Z" fill="#FFFF45"/>
<path fill-rule="evenodd" clip-rule="evenodd" d="M17.4728 14.888C17.4728 14.888 17.334 15.3043 17.4728 15.1655C17.6116 15.0961 17.6116 14.9574 17.4728 14.888C17.5422 14.888 17.5422 14.888 17.4728 14.888Z" fill="#FFFF45"/>
<path fill-rule="evenodd" clip-rule="evenodd" d="M14.7663 19.8842C14.6275 20.0229 14.6275 20.0923 14.5581 20.3005C14.6275 20.3699 14.6969 20.3699 14.7663 20.3699C14.9051 20.3699 14.9051 20.3005 14.9051 20.2311C14.9051 20.1617 14.9745 20.0923 14.9051 20.0229C14.9051 19.8842 14.8357 19.8148 14.7663 19.8842Z" fill="#FFFF45"/>
<path fill-rule="evenodd" clip-rule="evenodd" d="M18.9302 12.2511C18.9996 12.3205 19.069 12.3899 19.069 12.4593C18.9996 12.4593 18.9302 12.3899 18.9302 12.3205C18.9302 12.1817 18.9302 12.2511 18.9996 12.1123L18.9302 12.2511Z" fill="#FFFF45"/>
<path fill-rule="evenodd" clip-rule="evenodd" d="M17.9587 8.36519C17.8893 8.43458 17.8199 8.50398 17.7505 8.57337C17.8199 8.64276 17.7505 8.71215 17.8893 8.71215C17.9587 8.71215 18.0281 8.64276 18.0974 8.57337C18.1668 8.50398 18.1668 8.43458 18.1668 8.36519C18.1668 8.2958 18.1668 8.15702 18.0974 8.2958L17.9587 8.36519Z" fill="#FFFF45"/>
<path fill-rule="evenodd" clip-rule="evenodd" d="M30.5879 6.35287C30.5879 6.28348 30.6573 6.1447 30.6573 6.07531L30.7267 6.00592C30.7961 5.93653 30.7961 5.93652 30.8655 5.93652C30.9348 5.93652 31.0042 5.93653 31.143 6.00592C31.4206 6.21409 30.7267 6.42226 30.6573 6.21409L30.5879 6.35287Z" fill="#FFFF45"/>
<path fill-rule="evenodd" clip-rule="evenodd" d="M32.9471 7.25499C32.8777 7.39377 32.8083 7.60194 32.9471 7.74072C33.0858 7.81012 33.3634 7.67134 33.4328 7.60194C33.641 7.46316 33.8491 7.11621 33.641 6.90803C33.5716 6.76925 33.2246 6.69986 33.0858 6.69986C32.7389 6.69986 32.6695 7.11621 32.6001 7.46316L32.9471 7.25499Z" fill="#FFFF45"/>
<path fill-rule="evenodd" clip-rule="evenodd" d="M33.9878 3.99355C33.9185 3.71599 33.9185 3.43842 34.1266 3.29964C34.2654 3.23025 34.4736 3.16086 34.6124 3.29964C34.6818 3.36903 34.7512 3.50781 34.8205 3.5772C34.8899 3.71599 34.8899 3.71599 34.8205 3.85477C34.7512 4.13233 34.6818 4.34051 34.3348 4.34051C33.9185 4.34051 33.9185 4.06294 33.9185 3.64659V3.99355H33.9878Z" fill="#FFFF45"/>
<path fill-rule="evenodd" clip-rule="evenodd" d="M37.5269 8.85094C37.735 8.78155 37.9432 8.71216 38.082 8.50399C37.9432 8.43459 37.5962 8.22642 37.5269 8.50399V8.85094Z" fill="#FFFF45"/>
<path fill-rule="evenodd" clip-rule="evenodd" d="M25.314 52.5674C25.5221 52.498 25.7303 52.4286 25.8691 52.2204C25.7303 52.1511 25.3834 51.9429 25.314 52.2204V52.5674Z" fill="#FFC445"/>
<path fill-rule="evenodd" clip-rule="evenodd" d="M47.8662 57.286C48.0744 57.2166 48.2826 57.1472 48.4213 56.9391C48.2826 56.8697 47.9356 56.6615 47.8662 56.9391V57.286Z" fill="#FFC445"/>
<path fill-rule="evenodd" clip-rule="evenodd" d="M40.2331 13.0838C40.4413 12.8063 40.7189 12.3899 41.1352 12.5981C41.3434 12.7369 41.4128 13.1532 41.2046 13.292C40.9964 13.4308 40.8576 13.5002 40.5801 13.5696C40.4413 13.639 40.1637 13.5002 40.2331 13.2226V13.0838Z" fill="#FFFF45"/>
<path fill-rule="evenodd" clip-rule="evenodd" d="M25.5915 19.1209C25.7997 18.8433 26.0773 18.4269 26.4936 18.6351C26.7018 18.7739 26.7712 19.1902 26.563 19.329C26.3548 19.4678 26.216 19.5372 25.9385 19.6066C25.7997 19.676 25.5221 19.5372 25.5915 19.2596V19.1209Z" fill="#FFC445"/>
<path fill-rule="evenodd" clip-rule="evenodd" d="M49.8786 8.36521C50.0868 8.08765 50.3644 7.6713 50.7807 7.87947C50.9889 8.01826 51.0583 8.4346 50.8501 8.57339C50.6419 8.71217 50.5032 8.78156 50.2256 8.85095C50.0868 8.92034 49.8092 8.78156 49.8786 8.504V8.36521Z" fill="#FFC445"/>
<path fill-rule="evenodd" clip-rule="evenodd" d="M36.2776 30.7786C36.4857 30.501 36.7633 30.0847 37.1796 30.2928C37.3878 30.4316 37.4572 30.848 37.249 30.9867C37.0409 31.1255 36.9021 31.1949 36.6245 31.2643C36.4857 31.3337 36.2082 31.1949 36.2776 30.9174V30.7786Z" fill="#FFC445"/>
<path fill-rule="evenodd" clip-rule="evenodd" d="M24.4117 10.0306C24.1342 10.1694 23.7178 10.3776 23.6484 10.7939C23.6484 11.0021 23.7178 11.1409 23.926 11.2103C24.0648 11.2797 24.3423 11.2797 24.5505 11.2103C24.8281 11.0715 25.1056 10.8633 25.175 10.6551C25.2444 10.447 25.2444 10.3082 25.175 10.1694C25.1056 10.1 25.0363 9.96123 24.8975 9.89184C24.5505 9.75305 24.3423 10.1 24.0648 10.2388L24.4117 10.0306Z" fill="#FFFF45"/>
<path fill-rule="evenodd" clip-rule="evenodd" d="M25.2444 9.05911C25.3831 9.1285 25.5219 9.1979 25.5913 9.33668C25.4525 9.40607 25.3138 9.47546 25.175 9.47546C24.9668 9.40607 24.9668 9.19789 24.9668 9.05911C24.9668 8.98972 25.175 8.78155 25.2444 8.85094C25.3138 8.85094 25.3138 8.92033 25.3138 8.98972C25.3831 9.05911 25.3831 9.05911 25.3138 9.1979H25.2444V9.05911Z" fill="#FFFF45"/>
<path fill-rule="evenodd" clip-rule="evenodd" d="M10.603 15.1656C10.3254 15.4431 10.0479 15.7207 9.90908 16.0676C9.83969 16.2758 9.97847 16.2758 10.1173 16.2064C10.4642 16.137 10.7418 16.0676 11.0887 15.9983C11.2969 15.9289 11.5745 15.8595 11.6439 15.7207C11.7133 15.5819 11.7826 15.3737 11.7826 15.235C11.7826 15.0268 11.5745 14.9574 11.4357 14.888C11.0193 14.7492 10.3948 15.0268 10.256 15.4431L10.603 15.1656Z" fill="#FFFF45"/>
<path fill-rule="evenodd" clip-rule="evenodd" d="M10.8113 16.6228C11.0195 16.6228 11.2276 16.6922 11.4358 16.7615C11.3664 16.8309 11.3664 16.9003 11.3664 16.9697C11.297 17.1085 11.2276 17.1779 11.0889 17.2473C10.8807 17.3861 10.6031 17.3861 10.3949 17.3167C9.77042 17.1085 10.7419 16.4146 10.8807 16.6228H10.8113Z" fill="#FFFF45"/>
<path fill-rule="evenodd" clip-rule="evenodd" d="M29.6161 3.43845C29.8242 3.29967 30.0324 3.23027 30.2406 3.16088C30.5182 3.09149 30.7957 3.09149 31.0733 3.09149C31.2121 3.09149 31.559 3.09149 31.4202 3.29966C31.3508 3.57723 30.7957 3.7854 30.5875 3.85479C30.2406 3.99358 29.8936 4.20175 29.4773 4.27114C29.2691 4.27114 28.9222 4.34053 28.7834 4.13236C28.714 3.92419 28.714 3.7854 28.8528 3.64662C28.9222 3.50784 29.0609 3.43845 29.2691 3.36906C29.3385 3.36906 29.8242 3.23028 29.8242 3.36906L29.6161 3.43845Z" fill="#FFFF45"/>
<path fill-rule="evenodd" clip-rule="evenodd" d="M25.9385 3.50781C25.8691 3.5772 25.1058 3.99355 25.4528 4.20172C25.661 4.27112 26.0079 4.27112 26.2161 4.20172C26.3549 4.13233 26.563 3.99355 26.4243 3.78538C26.2161 3.36903 25.661 3.6466 25.3834 3.78538L25.9385 3.50781Z" fill="#FFFF45"/>
<path fill-rule="evenodd" clip-rule="evenodd" d="M15.5991 30.7092C15.6685 30.9867 15.7379 31.3337 16.0155 31.5419C16.293 31.75 16.64 31.6806 16.8482 31.4725C17.0563 31.3337 17.2645 31.1949 17.4033 31.1255C17.5421 31.0561 17.6115 31.0561 17.6115 30.8479C17.6115 30.6398 17.4727 30.4316 17.3339 30.2928C17.1951 30.154 16.9869 29.9459 16.7788 29.8765C16.3624 29.7377 15.5991 29.8765 15.5991 30.4316V30.7092Z" fill="#FFD32F"/>
<path fill-rule="evenodd" clip-rule="evenodd" d="M39.1924 31.0562C39.2618 31.3337 39.3312 31.6807 39.6087 31.8889C39.8863 32.097 40.2333 32.0277 40.4414 31.8195C40.6496 31.6807 40.8578 31.5419 40.9966 31.4725C41.1353 31.4031 41.2047 31.4031 41.2047 31.195C41.2047 30.9868 41.0659 30.7786 40.9272 30.6398C40.7884 30.5011 40.5802 30.2929 40.372 30.2235C39.9557 30.0847 39.1924 30.2235 39.1924 30.7786V31.0562Z" fill="#FFBA00"/>
<path fill-rule="evenodd" clip-rule="evenodd" d="M5.60691 42.922C5.60691 42.922 5.32935 44.1016 6.16204 45.6283C6.99473 47.1549 7.61926 47.0161 7.61926 47.0161C7.61926 47.0161 6.85595 44.2404 5.60691 42.922Z" fill="#FFFF59"/>
<path fill-rule="evenodd" clip-rule="evenodd" d="M59.246 26.7538C59.246 26.7538 58.2745 29.5295 58.1357 29.9458C58.1357 29.8764 59.6624 29.4601 59.246 26.7538Z" fill="#FFFF59"/>
<path fill-rule="evenodd" clip-rule="evenodd" d="M64.4505 27.5865C64.4505 27.5865 63.7566 28.0723 63.4097 29.3907C63.4097 29.3907 64.2424 29.807 64.4505 27.5865Z" fill="#FFFF59"/>
<path fill-rule="evenodd" clip-rule="evenodd" d="M53.834 53.4001C53.834 53.4001 56.9566 51.3877 58.7608 51.2489C58.7608 51.2489 56.679 53.747 53.834 53.4001Z" fill="#FFFF59"/>
<defs>
<radialGradient id="paint0_radial_168_75083" cx="0" cy="0" r="1" gradientUnits="userSpaceOnUse" gradientTransform="translate(13.387 17.6464) scale(52.8081 52.8081)">
<stop offset="0.00558659" stop-color="#FFB80B"/>
<stop offset="0.258" stop-color="#FFB60C"/>
<stop offset="0.384" stop-color="#FEAE10"/>
<stop offset="0.4821" stop-color="#FCA117"/>
<stop offset="0.5656" stop-color="#FA8E21"/>
<stop offset="0.6392" stop-color="#F7762E"/>
<stop offset="0.662" stop-color="#F66D33"/>
<stop offset="0.7209" stop-color="#EF6836"/>
<stop offset="0.8061" stop-color="#DC593D"/>
<stop offset="0.9068" stop-color="#BD4049"/>
<stop offset="0.9832" stop-color="#A02A54"/>
</radialGradient>
<linearGradient id="paint1_linear_168_75083" x1="3.62589" y1="42.6933" x2="19.5434" y2="42.6933" gradientUnits="userSpaceOnUse">
<stop offset="0.0111732" stop-color="#FFA90B"/>
<stop offset="0.3713" stop-color="#FFA60E"/>
<stop offset="0.6354" stop-color="#FF9D16"/>
<stop offset="0.868" stop-color="#FF8D25"/>
<stop offset="1" stop-color="#FF8031"/>
</linearGradient>
<linearGradient id="paint2_linear_168_75083" x1="4.18743" y1="42.6932" x2="18.7026" y2="42.6932" gradientUnits="userSpaceOnUse">
<stop offset="0.0111732" stop-color="#FFE00B"/>
<stop offset="0.3061" stop-color="#FFDD0D"/>
<stop offset="0.5224" stop-color="#FFD412"/>
<stop offset="0.7136" stop-color="#FFC41B"/>
<stop offset="0.8891" stop-color="#FFAD27"/>
<stop offset="1" stop-color="#FF9B31"/>
</linearGradient>
<linearGradient id="paint3_linear_168_75083" x1="5.78276" y1="23.6974" x2="12.1205" y2="23.4964" gradientUnits="userSpaceOnUse">
<stop offset="0.0111732" stop-color="#FFA90B"/>
<stop offset="0.3713" stop-color="#FFA60E"/>
<stop offset="0.6354" stop-color="#FF9D16"/>
<stop offset="0.868" stop-color="#FF8D25"/>
<stop offset="1" stop-color="#FF8031"/>
</linearGradient>
<linearGradient id="paint4_linear_168_75083" x1="6.17311" y1="23.685" x2="11.7163" y2="23.5092" gradientUnits="userSpaceOnUse">
<stop offset="0.0111732" stop-color="#FFE00B"/>
<stop offset="0.3061" stop-color="#FFDD0D"/>
<stop offset="0.5224" stop-color="#FFD412"/>
<stop offset="0.7136" stop-color="#FFC41B"/>
<stop offset="0.8891" stop-color="#FFAD27"/>
<stop offset="1" stop-color="#FF9B31"/>
</linearGradient>
<linearGradient id="paint5_linear_168_75083" x1="58.1551" y1="53.9676" x2="58.1551" y2="31.4158" gradientUnits="userSpaceOnUse">
<stop offset="0.0111732" stop-color="#FF8E0B"/>
<stop offset="0.3475" stop-color="#FD8B0D"/>
<stop offset="0.5941" stop-color="#F98215"/>
<stop offset="0.8113" stop-color="#F17221"/>
<stop offset="1" stop-color="#E65D31"/>
</linearGradient>
<linearGradient id="paint6_linear_168_75083" x1="51.5115" y1="42.6916" x2="64.7847" y2="42.6916" gradientUnits="userSpaceOnUse">
<stop offset="0.0111732" stop-color="#FFE00B"/>
<stop offset="0.3061" stop-color="#FFDD0D"/>
<stop offset="0.5224" stop-color="#FFD412"/>
<stop offset="0.7136" stop-color="#FFC41B"/>
<stop offset="0.8891" stop-color="#FFAD27"/>
<stop offset="1" stop-color="#FF9B31"/>
</linearGradient>
<linearGradient id="paint7_linear_168_75083" x1="62.3997" y1="30.8905" x2="62.3997" y2="22.1868" gradientUnits="userSpaceOnUse">
<stop offset="0.0111732" stop-color="#FFA90B"/>
<stop offset="0.3713" stop-color="#FFA60E"/>
<stop offset="0.6354" stop-color="#FF9D16"/>
<stop offset="0.868" stop-color="#FF8D25"/>
<stop offset="1" stop-color="#FF8031"/>
</linearGradient>
<linearGradient id="paint8_linear_168_75083" x1="62.3949" y1="30.32" x2="62.3949" y2="22.7572" gradientUnits="userSpaceOnUse">
<stop offset="0.0111732" stop-color="#FFE00B"/>
<stop offset="0.3061" stop-color="#FFDD0D"/>
<stop offset="0.5224" stop-color="#FFD412"/>
<stop offset="0.7136" stop-color="#FFC41B"/>
<stop offset="0.8891" stop-color="#FFAD27"/>
<stop offset="1" stop-color="#FF9B31"/>
</linearGradient>
<linearGradient id="paint9_linear_168_75083" x1="35.3578" y1="65.4766" x2="35.3578" y2="60.4062" gradientUnits="userSpaceOnUse">
<stop offset="0.0111732" stop-color="#FFA90B"/>
<stop offset="0.3713" stop-color="#FFA60E"/>
<stop offset="0.6354" stop-color="#FF9D16"/>
<stop offset="0.868" stop-color="#FF8D25"/>
<stop offset="1" stop-color="#FF8031"/>
</linearGradient>
<linearGradient id="paint10_linear_168_75083" x1="35.3571" y1="64.9064" x2="35.3571" y2="60.9764" gradientUnits="userSpaceOnUse">
<stop offset="0.0111732" stop-color="#FFE00B"/>
<stop offset="0.3061" stop-color="#FFDD0D"/>
<stop offset="0.5224" stop-color="#FFD412"/>
<stop offset="0.7136" stop-color="#FFC41B"/>
<stop offset="0.8891" stop-color="#FFAD27"/>
<stop offset="1" stop-color="#FF9B31"/>
</linearGradient>
<linearGradient id="paint11_linear_168_75083" x1="51.2534" y1="33.4917" x2="54.0976" y2="12.0687" gradientUnits="userSpaceOnUse">
<stop offset="0.0111732" stop-color="#FFA90B"/>
<stop offset="0.3713" stop-color="#FFA60E"/>
<stop offset="0.6354" stop-color="#FF9D16"/>
<stop offset="0.868" stop-color="#FF8D25"/>
<stop offset="1" stop-color="#FF8031"/>
</linearGradient>
<linearGradient id="paint12_linear_168_75083" x1="51.3271" y1="32.927" x2="54.0213" y2="12.6336" gradientUnits="userSpaceOnUse">
<stop offset="0.0111732" stop-color="#FFE00B"/>
<stop offset="0.3061" stop-color="#FFDD0D"/>
<stop offset="0.5224" stop-color="#FFD412"/>
<stop offset="0.7136" stop-color="#FFC41B"/>
<stop offset="0.8891" stop-color="#FFAD27"/>
<stop offset="1" stop-color="#FF9B31"/>
</linearGradient>
<linearGradient id="paint13_linear_168_75083" x1="0.873518" y1="30.7335" x2="51.435" y2="30.7335" gradientUnits="userSpaceOnUse">
<stop offset="0.0111732" stop-color="#FFE00B"/>
<stop offset="0.3061" stop-color="#FFDD0D"/>
<stop offset="0.5224" stop-color="#FFD412"/>
<stop offset="0.7136" stop-color="#F67C27"/>
<stop offset="0.8891" stop-color="#ED6930"/>
<stop offset="1" stop-color="#E76332"/>
</linearGradient>
<linearGradient id="paint14_linear_168_75083" x1="0.873195" y1="24.0023" x2="48.1631" y2="24.0023" gradientUnits="userSpaceOnUse">
<stop offset="0.0111732" stop-color="#FFE00B"/>
<stop offset="0.3061" stop-color="#FFDD0D"/>
<stop offset="0.5224" stop-color="#FFD412"/>
<stop offset="0.7136" stop-color="#FFC41B"/>
<stop offset="0.8891" stop-color="#FFAD27"/>
<stop offset="1" stop-color="#FF9B31"/>
</linearGradient>
<linearGradient id="paint15_linear_168_75083" x1="44.6974" y1="58.8442" x2="53.369" y2="58.8442" gradientUnits="userSpaceOnUse">
<stop offset="0.0111732" stop-color="#FFE00B"/>
<stop offset="0.3061" stop-color="#FFDD0D"/>
<stop offset="0.5224" stop-color="#FFD412"/>
<stop offset="0.7136" stop-color="#FFC41B"/>
<stop offset="0.8891" stop-color="#FFAD27"/>
<stop offset="1" stop-color="#FF9B31"/>
</linearGradient>
<linearGradient id="paint16_linear_168_75083" x1="54.9933" y1="12.9463" x2="59.2612" y2="12.9463" gradientUnits="userSpaceOnUse">
<stop offset="0.0111732" stop-color="#FFE00B"/>
<stop offset="0.3061" stop-color="#FFDD0D"/>
<stop offset="0.5224" stop-color="#FFD412"/>
<stop offset="0.7136" stop-color="#FFC41B"/>
<stop offset="0.8891" stop-color="#FFAD27"/>
<stop offset="1" stop-color="#FF9B31"/>
</linearGradient>
</defs>
</svg>
