<svg width="80" height="80" viewBox="0 0 80 80" fill="none" xmlns="http://www.w3.org/2000/svg">
<path fill-rule="evenodd" clip-rule="evenodd" d="M79.5033 39.9577C79.5033 43.8437 78.9996 47.5607 77.9921 51.0243C75.9773 58.1204 72.0315 64.3717 66.8265 69.2714C63.1326 72.7349 58.6831 75.5227 53.8978 77.3812C49.5322 79.0707 44.747 80 39.7938 80C39.1221 80 38.3666 80 37.6949 79.9155C36.6875 79.831 35.5961 79.7465 34.5887 79.6621C26.8651 78.6483 19.897 75.4382 14.2722 70.623C12.1734 68.849 10.2425 66.8215 8.47948 64.6251C7.22019 63.0201 6.04485 61.246 4.95346 59.3875C4.70161 58.9651 4.44976 58.5428 4.28185 58.0359C4.28185 58.0359 4.28185 58.0359 4.28185 57.9514C4.03 57.4446 3.77814 57.0222 3.61023 56.5153C2.93861 54.9947 2.35094 53.3896 1.84722 51.7846C1.51141 50.6019 1.17561 49.4192 0.923754 48.2365C0.755849 47.3918 0.587944 46.547 0.503991 45.6177C0.252134 43.7592 0.0842285 41.9007 0.0842285 39.9577C0.0842285 38.8595 0.168178 37.7613 0.252131 36.6631C0.336083 35.9873 0.420039 35.3115 0.503991 34.6357C1.00771 30.6653 2.09908 26.9482 3.69418 23.4847C4.44975 21.7951 5.37324 20.1056 6.38067 18.5005C8.05972 15.8817 9.99062 13.4319 12.2573 11.32C19.3933 4.30834 29.2157 0 39.9617 0C40.3814 0 40.8012 0 41.221 0C41.6407 0 42.1444 5.15483e-06 42.5642 0.0844824C44.8309 0.253437 47.0976 0.591344 49.1964 1.09821C50.4557 1.43612 51.715 1.77403 52.8903 2.19641C53.7299 2.44985 54.4854 2.78775 55.325 3.12566C55.9126 3.37909 56.5003 3.63253 57.088 3.88596C57.1719 3.97044 57.2559 3.97044 57.4238 4.05491C61.2856 5.91341 64.8116 8.44773 67.8339 11.4889C68.2536 11.9113 68.6734 12.3337 69.0932 12.7561C69.345 13.094 69.6808 13.3474 69.9327 13.6853C70.4364 14.1922 70.8562 14.7835 71.2759 15.2904C72.871 17.3178 74.2143 19.5142 75.3896 21.7951C76.7328 24.4984 77.8242 27.3706 78.5798 30.3273C79.0835 33.3685 79.5033 36.5787 79.5033 39.9577Z" fill="url(#paint0_radial_733_21248)"/>
<path d="M49.9517 29.5672C49.9517 29.2293 51.071 29.4264 51.6307 29.5672H54.1493C55.1567 29.5672 53.7295 30.4119 52.89 30.8342C52.4702 30.975 51.4628 31.2566 50.7912 31.2566C49.9517 31.2566 49.9517 29.9896 49.9517 29.5672Z" fill="url(#paint1_linear_733_21248)"/>
<path fill-rule="evenodd" clip-rule="evenodd" d="M57.1717 3.97023C57.0038 3.97023 56.9198 3.97024 56.7519 4.05472C56.3321 4.13919 55.9124 4.05471 55.4926 3.97023C55.1568 3.88576 54.9889 3.7168 54.5691 3.7168C54.0654 3.63232 53.6457 3.46337 53.1419 3.37889C52.6382 3.29442 52.2185 3.12546 51.7148 2.95651C51.295 2.78755 51.1271 2.87203 50.7913 2.95651C50.4555 3.04099 50.2036 2.87203 49.8678 2.78756C49.532 2.6186 49.1122 2.6186 48.7764 2.53412C47.769 2.36517 46.7615 2.02726 45.7541 1.77383C45.1665 1.60488 44.5788 1.60487 43.9072 1.60487C43.4035 1.60487 42.9837 1.77383 42.48 1.77383C42.1442 1.77383 41.8923 1.68935 41.5565 1.68935C41.2207 1.60487 40.8849 1.68935 40.5491 1.68935C40.0453 1.60487 39.7935 1.52039 39.2898 1.68935C38.87 1.77383 38.6182 1.77382 38.1984 1.8583C37.7786 1.8583 37.2749 2.02726 36.8551 2.11174C36.0996 2.28069 35.2601 2.44964 34.5045 2.44964C34.0008 2.44964 33.3291 2.28068 32.9094 2.44964C32.6575 2.53412 32.4896 2.87204 32.2378 3.04099C31.818 3.46338 31.3982 3.80128 31.0624 4.22367C30.7266 4.64605 30.3908 5.15291 30.3908 5.74425C30.3908 6.25111 30.6427 6.84247 30.8945 7.26485C31.1464 7.77172 31.2303 8.1941 30.7266 8.53201C30.139 8.9544 29.3834 9.29229 28.7118 9.54573C28.208 9.71468 27.7883 9.79918 27.4525 9.46127C27.2846 9.37679 27.2006 9.12335 27.0327 8.9544C26.8648 8.86992 26.6129 8.95441 26.445 9.03888C25.9413 9.20784 25.4376 9.37679 24.9339 9.46127C24.5981 9.54575 24.3462 9.71469 24.0104 9.71469C23.6746 9.79917 23.4227 9.54573 23.003 9.63021C22.4993 9.71469 21.9116 9.96811 21.4079 9.96811C20.9881 9.96811 20.4844 9.79916 20.1486 9.63021C19.9807 9.54573 19.8967 9.37679 19.6449 9.46127C19.477 9.46127 19.2251 9.7147 19.1412 9.88366C18.9733 10.0526 18.9733 10.306 18.8054 10.475C18.6375 10.7284 18.5535 10.8974 18.3856 11.1508C18.1337 11.5732 17.8819 11.9956 17.63 12.418C17.4621 12.6714 17.2942 13.0938 17.0424 13.3472C16.9584 13.5162 16.7065 13.6007 16.5386 13.6851C16.1189 13.9386 15.6991 14.2765 15.2794 14.5299C14.5238 15.1212 13.7682 15.797 13.0126 16.3884C12.425 16.8108 11.5854 17.0642 10.9138 17.4021C10.4941 17.5711 10.0743 17.74 9.65454 17.909C9.48663 17.9935 9.23477 17.9935 9.15082 18.1624C8.98291 18.3314 8.89897 18.5003 8.81501 18.7538C8.4792 19.1762 8.05944 19.683 7.80759 20.1899C7.63968 20.5278 7.55573 20.7812 7.38782 21.1191C7.21992 21.5415 6.96806 21.9639 6.8841 22.4708C6.54829 23.4 6.5483 24.4137 6.12854 25.343C5.96063 25.8498 5.62481 26.3567 5.37296 26.8636C4.95319 27.7083 4.86924 28.7221 4.78529 29.6513C4.70134 30.1582 4.7853 30.834 4.86925 31.3409C4.9532 31.9322 4.95319 32.5236 4.95319 33.1149C4.95319 33.7062 4.53344 34.3821 4.19763 34.8045C3.86182 35.2268 3.27414 35.3958 2.85438 35.8182C2.51857 36.1561 2.09882 36.494 1.93091 37.0008C1.84696 37.1698 1.93091 37.4232 1.93091 37.6767C1.84696 38.1835 1.67905 38.6059 1.67905 39.1128C1.5951 39.7041 1.59509 40.2955 1.59509 40.9713C1.59509 41.3092 1.59509 41.5626 1.59509 41.9005C1.59509 42.2384 1.67906 42.4919 1.76301 42.7453C1.76301 42.9143 1.76301 43.1677 1.76301 43.3366C1.76301 43.5901 1.93091 43.8435 1.93091 44.0125C2.09882 44.6038 2.18276 45.1107 2.26672 45.702C2.35067 46.2089 2.60253 46.7157 2.68648 47.2226C2.93834 47.8984 3.02229 48.5742 3.1902 49.3345C3.27415 49.8414 3.27415 50.4327 3.3581 50.9396C3.44205 51.362 3.526 51.7844 3.526 52.2067C3.526 52.8826 3.3581 53.4739 3.3581 54.1497C3.3581 55.2479 3.77787 56.3461 4.02972 57.4444C4.11368 57.7823 4.19763 58.0357 4.28158 58.3736C1.51115 52.9671 0 46.8002 0 40.2955C0 32.3546 2.26671 25.0051 6.21248 18.8382C7.89153 16.2194 9.82244 13.7696 12.0892 11.6577C19.2251 4.64604 29.0476 0.337708 39.7935 0.337708C40.633 0.337708 41.5565 0.337713 42.396 0.42219C47.6011 0.337713 52.6382 1.68935 57.1717 3.97023Z" fill="url(#paint2_linear_733_21248)"/>
<path d="M47.4331 33.3685C49.4479 33.7064 52.1904 34.6357 53.3097 35.0581H55.8282C56.6677 35.0581 61.2851 38.4372 62.1246 40.5491C62.9641 42.661 65.4827 40.5491 67.5815 40.5491C69.6803 40.5491 64.6432 47.7297 62.9641 49.4192C61.2851 51.1088 64.2234 54.4879 64.6432 55.3326C65.063 56.1774 63.3839 57.4446 62.9641 60.8237C62.5444 64.2027 61.2851 68.849 60.4456 71.8057C59.7739 74.1711 56.5278 76.1704 54.9887 76.8743C54.429 77.1559 52.9739 77.2122 51.6306 75.1848C49.9514 72.6505 49.112 68.4266 48.6922 66.7371C48.2724 65.0475 52.0503 56.1774 44.4946 55.3326C36.9389 54.4879 41.1367 61.6684 31.4821 54.4879C21.8276 47.3073 32.7414 33.3685 33.5809 32.1014C34.4205 30.8342 36.5193 32.1014 40.2971 30.8342C43.3194 29.8205 46.3137 30.4118 47.4331 30.8342C46.5935 31.5382 45.4182 33.0306 47.4331 33.3685Z" fill="url(#paint3_linear_733_21248)"/>
<path d="M5.91619 57.0384C6.19117 56.2198 4.88498 53.5137 4.19751 52.263C4.7704 51.467 6.19117 50.0799 7.29113 50.8985C8.66607 51.9218 12.7909 49.5341 14.1658 49.8752C15.5408 50.2163 18.6344 50.5574 18.9781 51.5807C19.3219 52.6041 19.3219 54.9918 20.0093 56.0151C20.5593 56.8338 20.0093 59.0851 19.6656 60.1084C19.551 60.4495 19.1156 61.1999 18.2907 61.4728C17.2594 61.8139 19.6656 61.8139 21.728 62.4961C23.7904 63.1783 22.4155 66.5894 23.1029 68.2949C23.7904 70.0004 27.5715 73.0704 28.259 73.7526C28.9464 74.4348 28.259 75.4581 27.5715 75.117C26.884 74.7759 19.3219 68.636 15.8845 67.9538C13.1346 67.408 8.09318 62.0413 5.91619 59.4262C5.80161 58.9713 5.6412 57.8571 5.91619 57.0384Z" fill="url(#paint4_linear_733_21248)"/>
<path d="M15.1115 23.6536V21.964V19.8521C15.1115 19.0074 14.2719 19.0073 13.4324 17.7402C12.5929 16.473 13.4324 16.8954 14.6917 16.473C15.951 16.0506 15.5312 17.3178 15.5312 17.7402C15.5312 18.1626 17.2103 19.0073 17.63 19.0073C18.0498 19.0073 19.7289 19.0073 19.3091 19.8521C18.8893 20.6969 18.8893 21.1193 17.63 22.8088C16.6226 24.1604 15.5312 23.9352 15.1115 23.6536Z" fill="url(#paint5_linear_733_21248)"/>
<path d="M14.2716 20.697C14.6074 20.359 13.0123 19.1482 12.1728 18.585C12.0329 19.289 11.5851 20.8659 10.9135 21.5417C10.074 22.3865 12.1728 22.3865 13.0123 22.8089C13.8518 23.2313 13.8518 21.1193 14.2716 20.697Z" fill="url(#paint6_linear_733_21248)"/>
<path d="M67.5816 55.7549C68.5891 55.7549 69.4006 54.0654 69.6805 53.2206C70.0293 52.3758 70.9398 52.3758 71.3595 52.7982C71.7793 53.2206 71.3595 57.8668 70.1002 59.9788C68.841 62.0907 67.5816 61.6683 66.7422 61.6683C65.9028 61.6683 66.7421 59.9788 67.5816 59.134C68.4212 58.2892 66.3224 55.7549 67.5816 55.7549Z" fill="url(#paint7_linear_733_21248)"/>
<path fill-rule="evenodd" clip-rule="evenodd" d="M55.8282 31.2562C55.8282 32.6078 54.9887 33.2273 54.5689 33.3681L57.0876 34.6357C56.9477 34.2132 57.0876 33.3681 58.7666 33.3681C59.8161 33.3681 60.7605 35.0577 61.705 36.7473C62.6495 38.4369 63.5939 40.1265 64.6433 40.1265C66.7421 40.1265 71.7793 37.17 73.0386 35.9028C74.046 34.8891 72.6188 33.2277 71.7793 32.5237C71.4994 33.3685 70.1842 34.2977 67.1619 31.2562C63.384 27.4543 64.6433 26.6101 67.1619 28.2995C69.1768 29.651 70.52 29.4259 70.9398 29.1444C71.4994 28.8628 73.2065 28.6374 75.5571 29.9892C77.9078 31.341 77.9358 40.6899 77.656 45.1953C78.4955 41.8162 79.8387 34.0443 78.4955 29.9892C74.2979 17.3174 69.2607 12.6714 64.6433 8.44752C60.9494 5.06842 51.6307 1.68946 47.4331 0.422363C46.3136 0.985545 43.9069 2.5343 43.2354 4.22384C42.4465 6.20877 42.0282 6.32797 39.5412 7.03663C39.3821 7.08197 39.2145 7.12973 39.0378 7.18055C37.0093 7.76386 36.9814 7.74301 36.33 7.25727C36.0378 7.03939 35.6202 6.72797 34.8404 6.33558C32.9708 5.39486 30.4068 6.54928 28.1794 7.55214C27.4065 7.90014 26.6741 8.22989 26.0253 8.44752C23.5069 9.29229 21.408 11.8266 21.408 12.6714C21.408 12.9706 21.1972 13.2169 20.9997 13.4477C20.6397 13.8684 20.3236 14.2378 21.408 14.7833C22.5109 15.3382 23.4326 15.1641 24.4111 14.9793C24.9224 14.8828 25.4491 14.7833 26.0253 14.7833C27.7046 14.7833 26.8647 16.0505 26.0253 16.8952C25.186 17.74 23.5066 18.1624 21.408 18.5848C20.2861 18.8106 20.1237 19.5191 19.895 20.5169C19.6958 21.3857 19.4464 22.4737 18.4696 23.6532C17.2625 25.1109 16.8508 25.637 16.7668 25.7652C16.0654 25.769 14.9547 25.9417 15.9509 26.6101L15.9531 26.6116C17.2117 27.4561 18.4686 28.2995 16.7904 28.2995C16.0565 28.2995 15.5631 28.8643 15.1001 29.3944C14.5038 30.0772 13.9577 30.7024 13.0125 29.9892C11.7532 29.039 10.9663 30.2268 9.94317 31.771C9.60213 32.2858 9.23485 32.8401 8.81509 33.3681C7.73903 34.7216 8.04221 35.5547 8.39875 36.5345C8.59855 37.0835 8.81509 37.6785 8.81509 38.437C8.81509 39.5302 9.26502 39.4916 9.93198 39.4344C10.5534 39.381 11.3633 39.3116 12.1732 40.1265C13.7258 41.6888 16.7141 39.6394 18.1511 38.654C18.2681 38.5738 18.3748 38.5006 18.4696 38.437C19.7289 37.5922 21.8277 31.2562 21.408 29.9892C21.052 28.9149 23.714 27.2331 25.2996 26.2312C25.584 26.0515 25.8338 25.8937 26.0253 25.7652C26.9329 25.1562 27.8404 25.8639 29.2194 26.939C29.7538 27.3557 30.359 27.8276 31.0625 28.2995C32.6067 29.3353 32.5729 29.4186 32.4124 29.8147C32.3111 30.0647 32.1594 30.4392 32.3218 31.2562C32.5317 32.3121 32.7416 31.8897 33.1089 31.1506C33.4762 30.4115 34.0009 29.3556 34.8404 29.1444C36.5195 28.7221 35.6799 27.0325 33.1614 26.6101C30.6428 26.1877 28.1242 23.6532 29.3835 23.6532H34.8404C36.9392 23.6532 38.1983 24.9206 37.3588 25.7652C36.5193 26.6098 40.7169 28.2995 41.9762 28.2995C42.8957 28.2995 42.2486 26.9483 41.5056 25.3969C41.231 24.8237 40.9434 24.2231 40.7169 23.6532C40.1315 22.1807 41.5868 22.7616 42.8062 23.2483C43.3357 23.4597 43.8207 23.6532 44.0748 23.6532C44.9142 23.6532 45.3341 24.498 44.0748 25.7652C42.8155 27.0323 47.4329 28.2995 48.6922 28.2995H53.7294C55.8282 28.2995 55.8282 29.5667 55.8282 31.2562ZM46.1736 23.231C47.1531 23.3718 49.2799 23.5689 49.9515 23.231C50.6231 22.8931 52.7499 23.935 53.7293 24.4982C54.289 24.639 55.3244 24.7516 54.9886 24.0758C54.5689 23.231 52.0503 20.2743 50.3712 20.6967C48.6922 21.1191 45.7539 22.8084 46.1736 23.231Z" fill="url(#paint8_linear_733_21248)"/>
<defs>
<radialGradient id="paint0_radial_733_21248" cx="0" cy="0" r="1" gradientUnits="userSpaceOnUse" gradientTransform="translate(15.114 21.1954) scale(63.8891 64.2885)">
<stop offset="0.00558659" stop-color="#0CB9C4"/>
<stop offset="0.2058" stop-color="#0C96C1"/>
<stop offset="0.3613" stop-color="#0B79B7"/>
<stop offset="0.5018" stop-color="#096EA7"/>
<stop offset="0.6334" stop-color="#075E8F"/>
<stop offset="0.7576" stop-color="#044A72"/>
<stop offset="0.8715" stop-color="#003C74"/>
</radialGradient>
<linearGradient id="paint1_linear_733_21248" x1="52.2237" y1="29.3806" x2="52.2237" y2="31.2566" gradientUnits="userSpaceOnUse">
<stop stop-color="#43991F"/>
<stop offset="1" stop-color="#4BFF00" stop-opacity="0"/>
</linearGradient>
<linearGradient id="paint2_linear_733_21248" x1="-0.0277043" y1="28.9349" x2="57.1858" y2="28.9349" gradientUnits="userSpaceOnUse">
<stop stop-color="#2CB3FF"/>
<stop offset="0.0885417" stop-color="#2CA6FF"/>
<stop offset="0.2325" stop-color="#2DCAFC"/>
<stop offset="0.3947" stop-color="#32AEF3"/>
<stop offset="0.5382" stop-color="#3A7EE3"/>
<stop offset="0.6707" stop-color="#446ACD"/>
<stop offset="0.7958" stop-color="#4268B1"/>
<stop offset="0.9136" stop-color="#1F598E"/>
<stop offset="1" stop-color="#005D72"/>
</linearGradient>
<linearGradient id="paint3_linear_733_21248" x1="47.8018" y1="30.2745" x2="47.8018" y2="77.0172" gradientUnits="userSpaceOnUse">
<stop stop-color="#43991F"/>
<stop offset="1" stop-color="#4BFF00" stop-opacity="0"/>
</linearGradient>
<linearGradient id="paint4_linear_733_21248" x1="16.3706" y1="49.8416" x2="16.3706" y2="75.1847" gradientUnits="userSpaceOnUse">
<stop stop-color="#43991F"/>
<stop offset="1" stop-color="#4BFF00" stop-opacity="0"/>
</linearGradient>
<linearGradient id="paint5_linear_733_21248" x1="16.2352" y1="16.388" x2="16.2352" y2="23.8672" gradientUnits="userSpaceOnUse">
<stop stop-color="#43991F"/>
<stop offset="1" stop-color="#4BFF00" stop-opacity="0"/>
</linearGradient>
<linearGradient id="paint6_linear_733_21248" x1="12.5182" y1="18.585" x2="12.5182" y2="22.8644" gradientUnits="userSpaceOnUse">
<stop stop-color="#43991F"/>
<stop offset="1" stop-color="#4BFF00" stop-opacity="0"/>
</linearGradient>
<linearGradient id="paint7_linear_733_21248" x1="68.9557" y1="52.5208" x2="68.9557" y2="61.7028" gradientUnits="userSpaceOnUse">
<stop stop-color="#43991F"/>
<stop offset="1" stop-color="#4BFF00" stop-opacity="0"/>
</linearGradient>
<linearGradient id="paint8_linear_733_21248" x1="43.5671" y1="0.422363" x2="43.5671" y2="45.1953" gradientUnits="userSpaceOnUse">
<stop stop-color="#43991F"/>
<stop offset="1" stop-color="#4BFF00" stop-opacity="0"/>
</linearGradient>
</defs>
</svg>
