<svg width="93" height="76" viewBox="0 0 93 76" fill="none" xmlns="http://www.w3.org/2000/svg">
<path d="M69.7026 66.2801L72.2155 73.9507L20.5522 73.886L23.0801 66.2202L69.7026 66.2801Z" fill="#FCBC1D"/>
<path d="M18.5527 58.1758C19.5557 58.1758 20.3706 59.0864 20.3706 60.2127C20.3706 61.3365 19.5557 62.2495 18.5527 62.2495C17.5475 62.2495 16.7349 61.3365 16.7349 60.2127C16.7349 59.0864 17.5475 58.1758 18.5527 58.1758Z" fill="#FCBC1D"/>
<path d="M32.4795 58.1758C33.4846 58.1758 34.2973 59.0864 34.2973 60.2127C34.2973 61.3365 33.4846 62.2495 32.4795 62.2495C31.4764 62.2495 30.6616 61.3365 30.6616 60.2127C30.6616 59.0864 31.4764 58.1758 32.4795 58.1758Z" fill="#FCBC1D"/>
<path d="M46.4082 58.1758C47.4112 58.1758 48.226 59.0864 48.226 60.2127C48.226 61.3365 47.4112 62.2495 46.4082 62.2495C45.403 62.2495 44.5903 61.3365 44.5903 60.2127C44.5903 59.0864 45.403 58.1758 46.4082 58.1758Z" fill="#FCBC1D"/>
<path d="M60.3354 58.1758C61.3406 58.1758 62.1533 59.0864 62.1533 60.2127C62.1533 61.3365 61.3406 62.2495 60.3354 62.2495C59.3324 62.2495 58.5176 61.3365 58.5176 60.2127C58.5176 59.0864 59.3324 58.1758 60.3354 58.1758Z" fill="#FCBC1D"/>
<path d="M74.2641 58.1758C75.2672 58.1758 76.082 59.0864 76.082 60.2127C76.082 61.3365 75.2672 62.2495 74.2641 62.2495C73.259 62.2495 72.4463 61.3365 72.4463 60.2127C72.4463 59.0864 73.259 58.1758 74.2641 58.1758Z" fill="#FCBC1D"/>
<path d="M6.08019 47.6272L86.7264 47.7302L88.8629 47.7326C90.4583 47.735 91.75 49.1848 91.7479 50.9724C91.7458 52.7553 90.454 54.2027 88.8607 54.2027C88.8586 54.2027 88.8586 54.2027 88.8565 54.2027L86.7328 54.2003L6.07591 54.0972L3.95223 54.0948C2.35894 54.0924 1.0672 52.6427 1.06934 50.8574C1.07148 49.0722 2.36322 47.6248 3.95437 47.6248C3.95651 47.6248 3.95651 47.6248 3.95865 47.6248L6.08019 47.6272Z" fill="#FCBC1D"/>
<path opacity="0.25" d="M6.07591 54.15L3.95223 54.1476C2.35894 54.1452 1.0672 52.6954 1.06934 50.9101C1.07148 49.1249 2.36322 47.6775 3.95437 47.6775C3.95651 47.6775 3.95651 47.6775 3.95865 47.6775L6.08018 47.6799L20.8048 47.6871C19.3056 47.7997 18.1186 49.1992 18.1165 50.9101C18.1143 52.6954 19.4061 54.1452 20.9994 54.1476L23.1231 54.15" fill="black"/>
<path d="M6.07568 54.0972L86.7325 54.2003C85.4023 61.116 79.9081 66.2921 73.3382 66.2849L69.7025 66.2801L23.08 66.2202L19.4444 66.2154C15.6632 66.2106 12.2435 64.49 9.77126 61.7127C7.94486 59.6615 6.63601 57.0351 6.07568 54.0972ZM76.0821 60.2126C76.0821 59.0864 75.2673 58.1758 74.2642 58.1758C73.2591 58.1758 72.4464 59.0864 72.4464 60.2126C72.4464 61.3365 73.2591 62.2495 74.2642 62.2495C75.2673 62.2495 76.0821 61.3365 76.0821 60.2126ZM62.1531 60.2126C62.1531 59.0864 61.3404 58.1758 60.3352 58.1758C59.3322 58.1758 58.5174 59.0864 58.5174 60.2126C58.5174 61.3365 59.3322 62.2495 60.3352 62.2495C61.3404 62.2495 62.1531 61.3365 62.1531 60.2126ZM48.2262 60.2126C48.2262 59.0864 47.4114 58.1758 46.4084 58.1758C45.4032 58.1758 44.5905 59.0864 44.5905 60.2126C44.5905 61.3365 45.4032 62.2495 46.4084 62.2495C47.4114 62.2495 48.2262 61.3365 48.2262 60.2126ZM34.2972 60.2126C34.2972 59.0864 33.4846 58.1758 32.4794 58.1758C31.4764 58.1758 30.6615 59.0864 30.6615 60.2126C30.6615 61.3365 31.4764 62.2495 32.4794 62.2495C33.4846 62.2495 34.2972 61.3365 34.2972 60.2126ZM20.3704 60.2126C20.3704 59.0864 19.5556 58.1758 18.5525 58.1758C17.5474 58.1758 16.7347 59.0864 16.7347 60.2126C16.7347 61.3365 17.5474 62.2495 18.5525 62.2495C19.5556 62.2495 20.3704 61.3365 20.3704 60.2126Z" fill="#F73E3E"/>
<path d="M86.7263 47.6799V47.7303L6.08008 47.6272C7.42101 40.7354 12.8981 35.5786 19.4509 35.5786H73.3448C77.1259 35.5786 80.5477 37.2943 83.0243 40.0692C84.8528 42.1181 86.1638 44.742 86.7263 47.6799Z" fill="#F73E3E"/>
<path d="M81.028 44.8475C80.7239 44.8475 80.4223 44.7032 80.2108 44.4228C80.0483 44.2077 79.8755 43.997 79.6973 43.7972C78.0014 41.8969 75.7453 40.8507 73.3447 40.8507C72.754 40.8507 72.2754 40.3141 72.2754 39.6525C72.2754 38.9909 72.754 38.4543 73.3447 38.4543C76.3166 38.4543 79.1099 39.75 81.2094 42.1027C81.4296 42.3496 81.6433 42.6098 81.8441 42.876C82.2254 43.3814 82.169 44.1374 81.7177 44.5645C81.5171 44.7545 81.2718 44.8475 81.028 44.8475Z" fill="white"/>
<g opacity="0.25">
<path opacity="0.25" d="M20.5566 73.886L23.0845 66.2202L32.1481 66.2322L29.6245 73.886" fill="black"/>
<path opacity="0.25" d="M32.1523 66.2202L28.5166 66.2154C24.7355 66.2106 21.3158 64.49 18.8435 61.7127C17.0192 59.6639 15.7125 57.0423 15.1501 54.1092L6.08008 54.0972C6.6404 57.0351 7.94925 59.6615 9.77566 61.7127C12.2479 64.49 15.6676 66.2106 19.4488 66.2154L23.0844 66.2202L32.148 66.2322" fill="black"/>
<path opacity="0.25" d="M6.08447 47.6272C7.4254 40.7354 12.9025 35.5786 19.4553 35.5786H28.5231C21.9703 35.5786 16.4933 40.7354 15.1523 47.6272" fill="black"/>
</g>
<path d="M73.9861 32.9618V35.5785H73.3445H19.4507H18.8091V32.9618C18.8091 15.888 31.1619 2.04932 46.3976 2.04932C61.6333 2.04932 73.9861 15.888 73.9861 32.9618Z" fill="#61CCF2"/>
<path opacity="0.25" d="M51.8512 2.65319C39.2267 5.48803 29.7162 17.98 29.7162 32.9618V35.5785H18.8091V32.9618C18.8091 15.888 31.1619 2.04932 46.3976 2.04932C48.2646 2.04932 50.0889 2.2578 51.8512 2.65319Z" fill="black"/>
<path d="M73.3514 67.483C73.3464 67.483 73.3422 67.483 73.3373 67.483L69.7013 67.4782C69.1106 67.4775 68.6327 66.9403 68.6333 66.2786C68.6339 65.6175 69.1126 65.0819 69.7026 65.0819C69.7031 65.0819 69.7035 65.0819 69.7039 65.0819L73.3396 65.0867C73.3437 65.0867 73.3477 65.0867 73.3518 65.0867C79.2589 65.0867 84.4456 60.4041 85.6875 53.9479C85.8118 53.3009 86.3794 52.8895 86.9581 53.0292C87.5353 53.1687 87.9025 53.8061 87.778 54.4528C86.3252 62.0051 80.259 67.483 73.3514 67.483Z" fill="#333333"/>
<path d="M23.0798 67.4183C23.0794 67.4183 23.079 67.4183 23.0786 67.4183L19.4429 67.4135C15.4999 67.4085 11.7961 65.6844 9.01398 62.5589C7.00088 60.2979 5.62316 57.4585 5.02969 54.3477C4.90629 53.7006 5.27435 53.0639 5.852 52.9254C6.42879 52.7869 6.99767 53.1998 7.12128 53.8468C7.62835 56.5053 8.80632 58.9328 10.5281 60.8663C12.907 63.5387 16.0739 65.0127 19.4454 65.017L23.0811 65.0218C23.6716 65.0225 24.15 65.5598 24.1492 66.2214C24.1485 66.883 23.6699 67.4183 23.0798 67.4183Z" fill="#333333"/>
<path d="M86.7251 48.8783C86.2318 48.8783 85.7882 48.4937 85.6806 47.9313C85.1718 45.2735 83.992 42.848 82.2682 40.9166C79.8855 38.2468 76.7165 36.7767 73.3447 36.7767C72.754 36.7767 72.2754 36.2401 72.2754 35.5785C72.2754 34.9169 72.754 34.3804 73.3447 34.3804C77.2877 34.3804 80.9938 36.0997 83.7802 39.2221C85.7961 41.4806 87.1762 44.3186 87.7716 47.4288C87.8954 48.0758 87.5278 48.7127 86.9503 48.8517C86.8748 48.8697 86.7996 48.8783 86.7251 48.8783Z" fill="#333333"/>
<path d="M6.07001 48.8785C5.97249 48.8785 5.87326 48.8634 5.77488 48.8318C5.2229 48.6545 4.89718 48.0223 5.02935 47.4027C5.03234 47.3866 5.03555 47.3708 5.03876 47.3552C6.50908 39.8361 12.5679 34.3804 19.4511 34.3804C20.0416 34.3804 20.5204 34.9169 20.5204 35.5785C20.5204 36.2401 20.0416 36.7767 19.4511 36.7767C13.5608 36.7767 8.37719 41.4473 7.12501 47.8824C7.12373 47.8896 7.12223 47.8968 7.12052 47.9037C7.11367 47.9409 7.10597 47.9763 7.09742 48.0099C6.9629 48.5361 6.53496 48.8785 6.07001 48.8785Z" fill="#333333"/>
<path d="M74.3539 48.908C74.3537 48.908 74.3537 48.908 74.3535 48.908L66.2266 48.9049C65.6361 48.9047 65.1575 48.3681 65.1577 47.7065C65.1579 47.0449 65.6366 46.5086 66.227 46.5086C66.2273 46.5086 66.2273 46.5086 66.2275 46.5086L74.3543 46.5117C74.9448 46.512 75.4234 47.0485 75.4232 47.7101C75.423 48.372 74.9444 48.908 74.3539 48.908Z" fill="#333333"/>
<path d="M88.8607 55.4011L3.95115 55.2932C2.89466 55.2918 1.9019 54.8293 1.15573 53.9913C0.409126 53.1531 -0.00128019 52.0395 2.99994e-06 50.8562C0.0029971 48.4139 1.777 46.4269 3.95436 46.4269L61.7974 46.5004C62.3881 46.5012 62.8661 47.0382 62.8655 47.7C62.8648 48.3612 62.3862 48.8968 61.7962 48.8968C61.7957 48.8968 61.7953 48.8968 61.7949 48.8968L3.95735 48.8232C2.95433 48.8232 2.13972 49.7367 2.13843 50.8593C2.13779 51.4023 2.32621 51.9135 2.66925 52.2986C3.01228 52.6837 3.46824 52.8962 3.9535 52.8969L88.8573 53.0048C89.8616 53.0048 90.6773 52.0925 90.6786 50.9712C90.6792 50.4268 90.4906 49.915 90.1475 49.5296C89.8045 49.1443 89.3477 48.9317 88.8614 48.931L79.1179 48.9188C78.5272 48.9181 78.0492 48.3811 78.0499 47.7192C78.0505 47.0581 78.5291 46.5225 79.1192 46.5225C79.1196 46.5225 79.12 46.5225 79.1205 46.5225L88.8639 46.5347C89.9215 46.5362 90.9149 46.9989 91.6613 47.8369C92.4081 48.6753 92.8187 49.7896 92.8172 50.9741C92.8142 53.415 91.0393 55.4011 88.8607 55.4011Z" fill="#333333"/>
<path d="M73.9866 36.7767H18.8096C18.2191 36.7767 17.7402 36.2402 17.7402 35.5785V32.9618C17.7402 15.2559 30.5961 0.851166 46.3981 0.851166C50.6664 0.851166 54.7739 1.87775 58.6061 3.90239C59.1401 4.18468 59.369 4.89854 59.1172 5.49714C58.8653 6.09574 58.2282 6.35166 57.694 6.06986C54.1494 4.19714 50.349 3.24748 46.3983 3.24748C31.7755 3.24748 19.8791 16.5772 19.8791 32.9618V34.3804H72.9177V32.9618C72.9177 24.741 69.8361 16.8116 64.463 11.2073C64.0308 10.7566 64.0066 9.99837 64.4089 9.51408C64.8116 9.02978 65.4878 9.00247 65.9203 9.45345C71.7263 15.5094 75.0564 24.0779 75.0564 32.9618V35.5785C75.0559 36.2404 74.5771 36.7767 73.9866 36.7767Z" fill="#333333"/>
<path d="M70.3506 33.0718C69.812 33.0718 69.3488 32.6174 69.2889 32.004L69.2528 31.6352C69.2485 31.5908 69.2466 31.5468 69.2466 31.5034C69.2466 30.9 69.6521 30.381 70.1996 30.3139C70.786 30.2398 71.3147 30.7167 71.379 31.3745L71.415 31.7433C71.4194 31.7876 71.4214 31.8317 71.4214 31.8753C71.4214 32.4784 71.0159 32.9977 70.4684 33.0648C70.4286 33.0696 70.3893 33.0718 70.3506 33.0718Z" fill="white"/>
<path d="M72.2155 75.1489C72.2151 75.1489 72.2147 75.1489 72.2143 75.1489L68.2105 75.1438C67.62 75.1431 67.1418 74.6061 67.1425 73.9445C67.1431 73.2831 67.6217 72.7475 68.2118 72.7475C68.2122 72.7475 68.2126 72.7475 68.2131 72.7475L70.6834 72.7506L68.9558 67.4773L23.8248 67.4193L22.087 72.6895L63.7221 72.7382C64.3128 72.7389 64.791 73.2759 64.7904 73.9375C64.7897 74.5987 64.3111 75.1345 63.7211 75.1345C63.7206 75.1345 63.7204 75.1345 63.72 75.1345L20.5512 75.0842C20.2015 75.0839 19.8743 74.892 19.6746 74.5704C19.4748 74.2488 19.428 73.8381 19.5492 73.4707L22.0771 65.8049C22.2324 65.334 22.6334 65.0268 23.0814 65.022L69.7039 65.0819C70.152 65.0824 70.5521 65.3961 70.7065 65.8672L73.2194 73.5378C73.3398 73.9056 73.2923 74.3161 73.092 74.6372C72.8922 74.9579 72.5648 75.1489 72.2155 75.1489Z" fill="#333333"/>
<path d="M18.5527 63.4479C16.9607 63.4479 15.6655 61.9967 15.6655 60.2129C15.6655 58.429 16.9607 56.9778 18.5527 56.9778C20.1447 56.9778 21.4399 58.429 21.4399 60.2129C21.4399 61.9967 20.1447 63.4479 18.5527 63.4479ZM18.5527 59.3742C18.1399 59.3742 17.8042 59.7504 17.8042 60.2129C17.8042 60.6753 18.1399 61.0516 18.5527 61.0516C18.9655 61.0516 19.3012 60.6753 19.3012 60.2129C19.3012 59.7504 18.9655 59.3742 18.5527 59.3742Z" fill="#333333"/>
<path d="M60.3354 63.4479C58.7434 63.4479 57.4482 61.9967 57.4482 60.2129C57.4482 58.429 58.7434 56.9778 60.3354 56.9778C61.9274 56.9778 63.2226 58.429 63.2226 60.2129C63.2226 61.9967 61.9274 63.4479 60.3354 63.4479ZM60.3354 59.3742C59.9227 59.3742 59.5869 59.7504 59.5869 60.2129C59.5869 60.6753 59.9227 61.0516 60.3354 61.0516C60.7482 61.0516 61.0839 60.6753 61.0839 60.2129C61.0839 59.7504 60.748 59.3742 60.3354 59.3742Z" fill="#333333"/>
<path d="M32.4795 63.4479C30.8874 63.4479 29.5923 61.9967 29.5923 60.2129C29.5923 58.429 30.8874 56.9778 32.4795 56.9778C34.0715 56.9778 35.3666 58.429 35.3666 60.2129C35.3666 61.9967 34.0715 63.4479 32.4795 63.4479ZM32.4795 59.3742C32.0667 59.3742 31.7309 59.7504 31.7309 60.2129C31.7309 60.6753 32.0667 61.0516 32.4795 61.0516C32.8922 61.0516 33.228 60.6753 33.228 60.2129C33.228 59.7504 32.8922 59.3742 32.4795 59.3742Z" fill="#333333"/>
<path d="M74.2646 63.4479C72.6726 63.4479 71.3774 61.9967 71.3774 60.2129C71.3774 58.429 72.6726 56.9778 74.2646 56.9778C75.8566 56.9778 77.1518 58.429 77.1518 60.2129C77.1518 61.9967 75.8566 63.4479 74.2646 63.4479ZM74.2646 59.3742C73.8519 59.3742 73.5161 59.7504 73.5161 60.2129C73.5161 60.6753 73.8519 61.0516 74.2646 61.0516C74.6774 61.0516 75.0131 60.6753 75.0131 60.2129C75.0131 59.7504 74.6772 59.3742 74.2646 59.3742Z" fill="#333333"/>
<path d="M46.4082 63.4479C44.8162 63.4479 43.521 61.9967 43.521 60.2129C43.521 58.429 44.8162 56.9778 46.4082 56.9778C48.0002 56.9778 49.2953 58.429 49.2953 60.2129C49.2953 61.9967 48.0002 63.4479 46.4082 63.4479ZM46.4082 59.3742C45.9954 59.3742 45.6596 59.7504 45.6596 60.2129C45.6596 60.6753 45.9954 61.0516 46.4082 61.0516C46.8209 61.0516 47.1567 60.6753 47.1567 60.2129C47.1567 59.7504 46.8209 59.3742 46.4082 59.3742Z" fill="#333333"/>
<path d="M69.7952 28.4059C69.3037 28.4059 68.8615 28.0242 68.7518 27.4642C67.0195 18.6136 61.1579 11.3731 53.4545 8.56826C52.8926 8.36362 52.5855 7.68786 52.7679 7.05835C52.9506 6.42907 53.5541 6.08496 54.1153 6.28913C62.5379 9.35569 68.9468 17.2729 70.8408 26.9509C70.9674 27.5972 70.6023 28.236 70.0253 28.3779C69.9481 28.3968 69.8711 28.4059 69.7952 28.4059Z" fill="white"/>
<path d="M49.937 7.61356C49.8848 7.61356 49.8317 7.60925 49.7785 7.60038C48.667 7.41514 47.5295 7.32121 46.3979 7.32121C45.8075 7.32121 45.3286 6.78467 45.3286 6.12305C45.3286 5.46143 45.8075 4.9249 46.3979 4.9249C47.6347 4.9249 48.8777 5.02746 50.0931 5.22995C50.6771 5.32724 51.0803 5.93686 50.9935 6.59129C50.9143 7.18606 50.4579 7.61356 49.937 7.61356Z" fill="white"/>
</svg>
