<svg width="94" height="104" viewBox="0 0 94 104" fill="none" xmlns="http://www.w3.org/2000/svg">
<path d="M69.6897 48.9467V87.3628H59.2467H34.5258H24.0806V48.9467H24.0873H34.6931H69.4599H69.6897Z" fill="#EAC16E"/>
<path d="M69.69 37.174V48.9467H69.4602H34.6934V37.174H69.4602H69.69Z" fill="#1AA5E2"/>
<path d="M69.6897 26.5295V37.174H69.4599H34.6931H24.0873H24.0806V26.5295H69.6897Z" fill="#EAC16E"/>
<path d="M56.3198 9.29101L69.6897 26.5295H24.0806L37.4528 9.29101H56.3175H56.3198Z" fill="#FCB20D"/>
<path d="M57.3214 92.1258L60.7102 102.763H33.0601L36.4511 92.1258H57.3214Z" fill="#F24125"/>
<path d="M59.2468 87.3628V92.1258H57.3215H36.4512H34.5259V87.3628H59.2468Z" fill="#FCB20D"/>
<path d="M52.1483 3.91435L56.3179 9.29102H37.4531L41.625 3.91435C42.9434 2.21451 44.8643 1.23716 46.8855 1.23716C47.8961 1.23716 48.8822 1.48211 49.7812 1.93738C50.6781 2.39513 51.4879 3.06319 52.1483 3.91435Z" fill="#20505B"/>
<path d="M34.6931 37.174V48.9467H24.0873H24.0806V37.174H24.0873H34.6931Z" fill="#1AA5E2"/>
<path d="M34.526 88.5999H24.0808C23.4648 88.5999 22.9653 88.0459 22.9653 87.3628V26.5295C22.9653 26.2333 23.061 25.947 23.2353 25.7226L40.7793 3.10748C42.3111 1.13274 44.5366 0 46.8854 0C48.0501 0 49.1803 0.273163 50.2445 0.812067C51.3095 1.35567 52.2336 2.12741 52.9939 3.10748L57.1635 8.48439C57.5653 9.00226 57.5122 9.7834 57.0453 10.229C56.5781 10.6746 55.8738 10.6158 55.4722 10.0979L51.3026 4.72122C50.7527 4.01233 50.0839 3.45388 49.3149 3.06146C48.5467 2.67225 47.7282 2.47431 46.8854 2.47431C45.1872 2.47431 43.578 3.2933 42.4706 4.72122L25.1963 26.9885V86.1256H34.526C35.142 86.1256 35.6415 86.6796 35.6415 87.3628C35.6415 88.0459 35.142 88.5999 34.526 88.5999Z" fill="#333333"/>
<path d="M69.6901 88.5999H59.2471C58.6312 88.5999 58.1317 88.0459 58.1317 87.3628C58.1317 86.6796 58.6312 86.1256 59.2471 86.1256H68.5747V26.9885L55.4744 10.0979C55.0726 9.57977 55.1257 8.79887 55.5926 8.35325C56.0596 7.90738 56.7639 7.96652 57.1657 8.48439L70.5357 25.7229C70.7097 25.9473 70.8054 26.2336 70.8054 26.5297V87.363C70.8056 88.0459 70.3061 88.5999 69.6901 88.5999Z" fill="#333333"/>
<path d="M39.0347 27.7667H24.0808C23.4648 27.7667 22.9653 27.2127 22.9653 26.5295C22.9653 25.8463 23.4648 25.2924 24.0808 25.2924H39.0347C39.6507 25.2924 40.1502 25.8463 40.1502 26.5295C40.1502 27.2127 39.6507 27.7667 39.0347 27.7667Z" fill="#333333"/>
<path d="M69.6898 27.7667H43.6453C43.0293 27.7667 42.5298 27.2127 42.5298 26.5295C42.5298 25.8463 43.0293 25.2924 43.6453 25.2924H69.6898C70.3058 25.2924 70.8053 25.8463 70.8053 26.5295C70.8053 27.2127 70.3058 27.7667 69.6898 27.7667Z" fill="#333333"/>
<path d="M60.7105 104H33.0603C32.6982 104 32.3585 103.805 32.1494 103.477C31.9404 103.149 31.888 102.729 32.0086 102.35L35.3997 91.7133C35.6051 91.0693 36.243 90.7318 36.823 90.9594C37.4039 91.1871 37.7082 91.894 37.5028 92.5383L34.6376 101.526H59.1332L56.27 92.5378C56.0648 91.8935 56.3693 91.1868 56.9502 90.9592C57.5309 90.731 58.1683 91.0693 58.3736 91.7136L61.7624 102.351C61.883 102.729 61.8304 103.149 61.6214 103.477C61.4121 103.805 61.0725 104 60.7105 104Z" fill="#333333"/>
<path d="M47.3633 10.5282H37.4529C36.8369 10.5282 36.3374 9.97416 36.3374 9.29101C36.3374 8.60785 36.8369 8.05386 37.4529 8.05386H47.3633C47.9793 8.05386 48.4788 8.60785 48.4788 9.29101C48.4788 9.97416 47.9793 10.5282 47.3633 10.5282Z" fill="#333333"/>
<path d="M56.3199 10.5282H50.9328C50.3169 10.5282 49.8174 9.97416 49.8174 9.29101C49.8174 8.60785 50.3169 8.05386 50.9328 8.05386H56.3176C56.9336 8.05386 57.4342 8.60785 57.4342 9.29101C57.4342 9.97416 56.9358 10.5282 56.3199 10.5282Z" fill="#333333"/>
<path d="M46.471 38.4111H24.0876C23.4717 38.4111 22.9722 37.8571 22.9722 37.174C22.9722 36.4908 23.4717 35.9368 24.0876 35.9368H46.4712C47.0872 35.9368 47.5867 36.4908 47.5867 37.174C47.5867 37.8571 47.0872 38.4111 46.471 38.4111Z" fill="#333333"/>
<path d="M69.4601 38.4111H50.9328C50.3169 38.4111 49.8174 37.8571 49.8174 37.174C49.8174 36.4908 50.3169 35.9368 50.9328 35.9368H69.4601C70.076 35.9368 70.5755 36.4908 70.5755 37.174C70.5755 37.8571 70.0762 38.4111 69.4601 38.4111Z" fill="#333333"/>
<path d="M52.5693 50.1839H24.0876C23.4717 50.1839 22.9722 49.6299 22.9722 48.9467C22.9722 48.2635 23.4717 47.7095 24.0876 47.7095H52.5693C53.1852 47.7095 53.6847 48.2635 53.6847 48.9467C53.6847 49.6299 53.1852 50.1839 52.5693 50.1839Z" fill="#333333"/>
<path d="M69.4603 50.1839H56.2873C55.6714 50.1839 55.1719 49.6299 55.1719 48.9467C55.1719 48.2635 55.6714 47.7095 56.2873 47.7095H69.4603C70.0763 47.7095 70.5758 48.2635 70.5758 48.9467C70.5758 49.6299 70.0765 50.1839 69.4603 50.1839Z" fill="#333333"/>
<path d="M62.5708 44.5622H60.4158C59.7998 44.5622 59.3003 44.0082 59.3003 43.3251C59.3003 42.6419 59.7998 42.0879 60.4158 42.0879H62.5708C63.1868 42.0879 63.6863 42.6419 63.6863 43.3251C63.6863 44.0082 63.1868 44.5622 62.5708 44.5622Z" fill="#333333"/>
<path d="M56.7016 44.5622H41.741C41.125 44.5622 40.6255 44.0082 40.6255 43.3251C40.6255 42.6419 41.125 42.0879 41.741 42.0879H56.7016C57.3175 42.0879 57.817 42.6419 57.817 43.3251C57.817 44.0082 57.3175 44.5622 56.7016 44.5622Z" fill="#333333"/>
<path d="M42.0754 58.2996H29.928C29.312 58.2996 28.8125 57.7456 28.8125 57.0624C28.8125 56.3793 29.312 55.8253 29.928 55.8253H42.0754C42.6913 55.8253 43.1909 56.3793 43.1909 57.0624C43.1909 57.7456 42.6916 58.2996 42.0754 58.2996Z" fill="#333333"/>
<path d="M36.3597 63.1418H29.928C29.312 63.1418 28.8125 62.5878 28.8125 61.9047C28.8125 61.2215 29.312 60.6675 29.928 60.6675H36.3597C36.9757 60.6675 37.4752 61.2215 37.4752 61.9047C37.4752 62.5878 36.9757 63.1418 36.3597 63.1418Z" fill="#333333"/>
<path d="M42.0756 63.1418H39.8C39.1841 63.1418 38.6846 62.5878 38.6846 61.9047C38.6846 61.2215 39.1841 60.6675 39.8 60.6675H42.0756C42.6915 60.6675 43.1911 61.2215 43.1911 61.9047C43.1911 62.5878 42.6918 63.1418 42.0756 63.1418Z" fill="#333333"/>
<path d="M42.0754 67.984H29.928C29.312 67.984 28.8125 67.43 28.8125 66.7469C28.8125 66.0637 29.312 65.5097 29.928 65.5097H42.0754C42.6913 65.5097 43.1909 66.0637 43.1909 66.7469C43.1909 67.43 42.6916 67.984 42.0754 67.984Z" fill="#333333"/>
<path d="M42.0754 72.8287H29.928C29.312 72.8287 28.8125 72.2747 28.8125 71.5916C28.8125 70.9084 29.312 70.3544 29.928 70.3544H42.0754C42.6913 70.3544 43.1909 70.9084 43.1909 71.5916C43.1909 72.2747 42.6916 72.8287 42.0754 72.8287Z" fill="#333333"/>
<path d="M34.6936 46.8436C34.0776 46.8436 33.5781 46.2896 33.5781 45.6064V37.174C33.5781 36.4908 34.0776 35.9368 34.6936 35.9368C35.3096 35.9368 35.8091 36.4908 35.8091 37.174V45.6064C35.8091 46.2896 35.3096 46.8436 34.6936 46.8436Z" fill="#333333"/>
<path d="M59.2471 93.363H34.5261C33.9101 93.363 33.4106 92.809 33.4106 92.1258V87.3628C33.4106 86.6796 33.9101 86.1256 34.5261 86.1256H59.2471C59.863 86.1256 60.3625 86.6796 60.3625 87.3628V92.1258C60.3625 92.809 59.863 93.363 59.2471 93.363ZM35.6416 90.8887H58.1316V88.5999H35.6416V90.8887Z" fill="#333333"/>
<path d="M62.5169 24.434C62.2032 24.434 61.8913 24.288 61.6707 24.0037L57.0462 18.0419C56.6444 17.524 56.6975 16.7429 57.1644 16.2973C57.6314 15.8514 58.3354 15.9105 58.7375 16.4284L63.362 22.3902C63.7637 22.9081 63.7107 23.6893 63.2437 24.1349C63.0331 24.3358 62.7743 24.434 62.5169 24.434Z" fill="white"/>
<path d="M55.1384 14.9223C55.0648 14.9223 54.9912 14.9124 54.9198 14.8976C54.8484 14.8802 54.7792 14.858 54.7123 14.8258C54.6432 14.7961 54.5785 14.7565 54.5182 14.712C54.458 14.6674 54.4 14.6155 54.3487 14.5586C54.2974 14.5017 54.2505 14.4398 54.2103 14.3705C54.1702 14.3037 54.1367 14.232 54.1077 14.1577C54.081 14.0835 54.0586 14.0043 54.0453 13.9252C54.0296 13.846 54.0229 13.7643 54.0229 13.6851C54.0229 13.3585 54.1412 13.0394 54.3487 12.8092C54.4 12.7523 54.458 12.7004 54.5182 12.6558C54.5785 12.6113 54.6432 12.5742 54.7123 12.542C54.7792 12.5123 54.8484 12.4876 54.9198 12.4727C55.0648 12.4381 55.212 12.4381 55.3571 12.4727C55.4262 12.4876 55.4976 12.5123 55.5645 12.542C55.6315 12.5742 55.6962 12.6113 55.7564 12.6558C55.8189 12.7004 55.8746 12.7523 55.9259 12.8092C56.1334 13.0394 56.2539 13.3585 56.2539 13.6851C56.2539 13.7643 56.2472 13.846 56.2316 13.9252C56.2182 14.0043 56.1959 14.0835 56.1669 14.1577C56.1401 14.232 56.1066 14.3037 56.0665 14.3705C56.0241 14.4398 55.9773 14.5017 55.9259 14.5586C55.8746 14.6155 55.8189 14.6674 55.7564 14.712C55.6962 14.7565 55.6315 14.7961 55.5645 14.8258C55.4976 14.858 55.4262 14.8802 55.3571 14.8976C55.2834 14.9124 55.2098 14.9223 55.1384 14.9223Z" fill="white"/>
<path d="M65.9177 34.8432C65.3018 34.8432 64.8022 34.2892 64.8022 33.606V30.0183C64.8022 29.3351 65.3018 28.7811 65.9177 28.7811C66.5337 28.7811 67.0332 29.3351 67.0332 30.0183V33.606C67.0332 34.2894 66.5337 34.8432 65.9177 34.8432Z" fill="white"/>
<path d="M65.9177 46.1012C65.3018 46.1012 64.8022 45.5472 64.8022 44.8641V41.2764C64.8022 40.5932 65.3018 40.0392 65.9177 40.0392C66.5337 40.0392 67.0332 40.5932 67.0332 41.2764V44.8641C67.0332 45.5475 66.5337 46.1012 65.9177 46.1012Z" fill="white"/>
<path d="M65.9177 57.3593C65.3018 57.3593 64.8022 56.8053 64.8022 56.1222V52.5344C64.8022 51.8513 65.3018 51.2973 65.9177 51.2973C66.5337 51.2973 67.0332 51.8513 67.0332 52.5344V56.1222C67.0332 56.8056 66.5337 57.3593 65.9177 57.3593Z" fill="white"/>
<path d="M65.9177 84.8241C65.3018 84.8241 64.8022 84.2701 64.8022 83.587V60.9471C64.8022 60.2639 65.3018 59.7099 65.9177 59.7099C66.5337 59.7099 67.0332 60.2639 67.0332 60.9471V83.587C67.0332 84.2704 66.5337 84.8241 65.9177 84.8241Z" fill="white"/>
<path d="M56.4361 100.464C55.9765 100.464 55.5461 100.146 55.3844 99.6383L54.2491 96.0746C54.0438 95.4302 54.3484 94.7236 54.9293 94.4959C55.51 94.2681 56.1474 94.6061 56.3526 95.2504L57.4879 98.8141C57.6932 99.4584 57.3887 100.165 56.8077 100.393C56.6848 100.441 56.5594 100.464 56.4361 100.464Z" fill="white"/>
</svg>
