<svg width="40" height="30" viewBox="0 0 40 30" fill="none" xmlns="http://www.w3.org/2000/svg">
<path d="M20.08 1.87106C10.8025 1.87106 3.28003 7.73569 3.28003 14.9685C3.28003 22.2014 10.8025 28.066 20.08 28.066C29.3575 28.066 36.88 22.2014 36.88 14.9685C36.88 7.73569 29.3575 1.87106 20.08 1.87106ZM20.08 25.8441C12.3775 25.8441 6.13003 20.9735 6.13003 14.9685C6.13003 8.96358 12.3775 4.09295 20.08 4.09295C27.7825 4.09295 34.03 8.96358 34.03 14.9685C34.03 20.9735 27.7825 25.8441 20.08 25.8441Z" fill="#00FF88"/>
<path d="M19.7833 4.09296C12.2446 4.09296 6.13 8.88129 6.13 14.7848C6.13 20.6883 12.2446 25.4766 19.7833 25.4766C27.322 25.4766 33.4367 20.6883 33.4367 14.7848C33.4367 8.88129 27.322 4.09296 19.7833 4.09296ZM26.8816 10.5799L19.1521 18.9724C19.044 19.0905 18.9016 19.1867 18.7366 19.2531C18.5716 19.3195 18.3888 19.3541 18.2033 19.3541C18.0178 19.3541 17.835 19.3195 17.67 19.2531C17.505 19.1867 17.3626 19.0905 17.2545 18.9724L12.6814 14.0059C12.5419 13.8536 12.6814 13.6409 12.92 13.6409H14.6413C15.0194 13.6409 15.3717 13.7846 15.5919 14.0231L18.2051 16.8628L23.9748 10.5972C24.195 10.3557 24.551 10.2149 24.9254 10.2149H26.6467C26.8853 10.2149 27.0247 10.4276 26.8816 10.5799Z" fill="black" fill-opacity="0.15"/>
<path d="M27.0926 10.3201H25.3338C24.9513 10.3201 24.5876 10.4633 24.3626 10.7089L18.4676 17.0823L15.7976 14.1938C15.5726 13.9511 15.2126 13.805 14.8263 13.805H13.0676C12.8238 13.805 12.6813 14.0213 12.8238 14.1763L17.4963 19.2281C17.6067 19.3482 17.7522 19.4461 17.9208 19.5136C18.0894 19.5811 18.2762 19.6164 18.4657 19.6164C18.6552 19.6164 18.842 19.5811 19.0106 19.5136C19.1792 19.4461 19.3247 19.3482 19.4351 19.2281L27.3326 10.6914C27.4788 10.5364 27.3363 10.3201 27.0926 10.3201Z" fill="#00FF88"/>
</svg>
