<svg width="78" height="76" viewBox="0 0 78 76" fill="none" xmlns="http://www.w3.org/2000/svg">
<path d="M40.7835 75.5C61.0412 75.5 77.567 59.5506 77.567 39.75C77.567 19.9494 61.0412 4 40.7835 4C20.5258 4 4 19.9494 4 39.75C4 59.5506 20.5258 75.5 40.7835 75.5Z" fill="black"/>
<path d="M36.7835 70.5C56.5175 70.5 72.567 54.9701 72.567 35.75C72.567 16.5299 56.5175 1 36.7835 1C17.0495 1 1 16.5299 1 35.75C1 54.9701 17.0495 70.5 36.7835 70.5Z" fill="#F8D044" stroke="black" stroke-width="2" stroke-linejoin="round"/>
<path d="M33.7705 51.3054C38.6197 52.0175 43.3415 51.3244 47.5 49.5401C48.3333 52.6934 47.47 57.506 42.5 58.5C36.2243 59.7551 33.847 53.8702 33.7705 51.3054Z" fill="#FF5757" stroke="black" stroke-width="2" stroke-linecap="round" stroke-linejoin="round"/>
<path d="M61.9604 30.988C60.0186 44.2102 47.3975 53.3066 33.7704 51.3054C24.8458 49.9947 17.703 44.2492 14.3815 36.7257" stroke="black" stroke-width="2" stroke-linecap="round" stroke-linejoin="round"/>
<ellipse cx="26.7056" cy="22.0521" rx="4.82602" ry="5.625" transform="rotate(-4.78466 26.7056 22.0521)" fill="black"/>
<path d="M43.75 22.625H53.5" stroke="black" stroke-width="2" stroke-linecap="round" stroke-linejoin="round"/>
</svg>
