<svg width="220" height="220" viewBox="0 0 220 220" fill="none" xmlns="http://www.w3.org/2000/svg">
<g clip-path="url(#clip0_11_4)">
<path d="M132.833 170.252C125.572 172.286 117.912 173.376 109.999 173.376C102.087 173.376 94.4268 172.286 87.1664 170.252C51.6125 160.295 25.5288 127.652 25.5288 88.9057C25.5288 42.2566 63.3504 4.43506 109.999 4.43506C156.658 4.43506 194.47 42.2566 194.47 88.9057C194.47 127.652 168.396 160.295 132.833 170.252Z" fill="#3CA523"/>
<path d="M139.545 165.534C133.075 167.451 126.249 168.477 119.198 168.477C112.146 168.477 105.321 167.45 98.8508 165.534C67.1687 156.155 43.9253 125.404 43.9253 88.9051C43.9253 44.9611 77.6285 9.33276 119.198 9.33276C160.776 9.33276 194.47 44.9611 194.47 88.9051C194.47 125.405 171.236 156.155 139.545 165.534Z" fill="#44CC27"/>
<path d="M89.843 120.157C96.9869 127.311 98.8751 137.735 95.5075 146.611C86.6315 149.979 76.2076 148.091 69.0536 140.947C61.9003 133.793 60.0215 123.37 63.3891 114.493C72.2657 111.125 82.6896 113.004 89.843 120.157Z" fill="#F24125"/>
<path d="M156.619 114.493C159.987 123.369 158.099 133.793 150.945 140.947C143.792 148.091 133.378 149.979 124.492 146.611C121.124 137.735 123.012 127.311 130.166 120.157C137.319 113.004 147.743 111.125 156.619 114.493Z" fill="#F24125"/>
<path d="M164.226 217.242H55.7668C59.7164 211.472 63.4233 206.772 66.3744 203.121C68.8015 199.778 86.9332 179.776 89.5092 170.178C96.0238 172.004 102.897 172.98 110.002 172.98C117.101 172.98 123.974 172.004 130.489 170.178C133.065 179.776 151.235 199.811 153.673 203.181C156.613 206.822 160.298 211.505 164.226 217.242Z" fill="#3CA523"/>
<path d="M146.601 217.242H73.4075C73.7991 216.359 74.2128 215.582 74.6431 214.92C76.6068 211.577 91.3074 191.575 93.398 181.977C98.6715 183.803 104.243 184.779 110.002 184.779C115.755 184.779 121.326 183.803 126.605 181.977C128.69 191.575 143.419 211.61 145.393 214.98C145.818 215.626 146.221 216.381 146.601 217.242Z" fill="#44CC27"/>
<path d="M191.359 68.8754C190.153 68.8754 189.045 68.0777 188.704 66.8586C187.868 63.8672 186.848 60.8924 185.674 58.0168C185.098 56.6069 185.773 54.9967 187.183 54.4203C188.594 53.8444 190.203 54.5201 190.78 55.93C192.035 59.0014 193.124 62.1787 194.017 65.3737C194.427 66.8404 193.57 68.3624 192.103 68.7722C191.855 68.8423 191.605 68.8754 191.359 68.8754Z" fill="#333333"/>
<path d="M109.999 176.134C101.997 176.134 94.0644 175.049 86.4223 172.908C68.46 167.878 52.2679 156.922 40.829 142.057C29.015 126.705 22.7708 108.326 22.7708 88.9056C22.7708 40.8074 61.9013 1.67688 109.999 1.67688C139.024 1.67688 166.064 16.0537 182.331 40.1345C183.184 41.3966 182.852 43.111 181.59 43.9638C180.327 44.816 178.613 44.484 177.761 43.2224C162.521 20.6619 137.189 7.19304 109.999 7.19304C64.9429 7.19304 28.2869 43.849 28.2869 88.9056C28.2869 107.098 34.1357 124.314 45.2006 138.693C55.9185 152.62 71.0863 162.884 87.91 167.596C95.0678 169.601 102.499 170.618 109.999 170.618C117.499 170.618 124.931 169.602 132.088 167.596C148.915 162.885 164.084 152.621 174.802 138.693C185.864 124.315 191.712 107.1 191.712 88.9056C191.712 85.137 191.453 81.3485 190.943 77.6455C190.735 76.1362 191.79 74.7445 193.299 74.5366C194.807 74.3286 196.2 75.3833 196.408 76.8925C196.952 80.8448 197.229 84.8865 197.229 88.9056C197.229 108.327 190.986 126.707 179.174 142.057C167.737 156.922 151.543 167.878 133.577 172.908C125.935 175.049 118.002 176.134 109.999 176.134Z" fill="#333333"/>
<path d="M156.927 36.9875C156.291 36.9875 155.652 36.7685 155.131 36.3212C153.019 34.5069 150.778 32.8046 148.47 31.2612C147.204 30.4145 146.863 28.7017 147.71 27.4352C148.558 26.1692 150.27 25.8294 151.536 26.6756C154.028 28.3415 156.447 30.1789 158.726 32.1372C159.881 33.1295 160.013 34.871 159.021 36.0266C158.475 36.6615 157.703 36.9875 156.927 36.9875Z" fill="white"/>
<path d="M182.051 91.6632C180.528 91.6632 179.293 90.4281 179.293 88.9051C179.293 73.1967 174.169 58.3858 164.475 46.0743C163.533 44.8773 163.74 43.1436 164.936 42.2014C166.133 41.2592 167.867 41.4655 168.809 42.662C179.276 55.9565 184.809 71.9467 184.809 88.9056C184.809 90.4286 183.575 91.6632 182.051 91.6632Z" fill="white"/>
<path d="M86.6877 150.985C79.4731 150.985 72.3832 148.169 67.1053 142.898C59.4235 135.216 56.9534 123.683 60.8108 113.514C61.0905 112.776 61.673 112.194 62.411 111.914C72.5784 108.056 84.1122 110.526 91.7934 118.207C91.7934 118.208 91.794 118.208 91.7945 118.208C99.4714 125.896 101.941 137.429 98.0857 147.589C97.8061 148.327 97.2235 148.909 96.4855 149.189C93.301 150.398 89.9808 150.985 86.6877 150.985ZM65.5558 116.659C63.0802 124.499 65.1531 133.145 71.0041 138.996C76.8601 144.845 85.5061 146.918 93.3413 144.445C95.8153 136.61 93.7418 127.964 87.8919 122.106C82.0403 116.256 73.3948 114.184 65.5558 116.659Z" fill="#333333"/>
<path d="M87.9658 135.171C86.8162 135.171 85.7433 134.447 85.3539 133.298C84.6748 131.295 83.5291 129.448 82.0403 127.957C79.4279 125.344 75.9488 123.905 72.2464 123.905C70.7234 123.905 69.4883 122.67 69.4883 121.147C69.4883 119.623 70.7234 118.388 72.2464 118.388C77.4222 118.388 82.2863 120.402 85.9424 124.058C88.0265 126.145 89.6295 128.727 90.5782 131.527C91.067 132.969 90.2941 134.535 88.8517 135.024C88.5582 135.123 88.2598 135.171 87.9658 135.171Z" fill="white"/>
<path d="M133.31 150.983C130.017 150.983 126.699 150.397 123.514 149.19C122.776 148.91 122.193 148.327 121.913 147.589C118.056 137.425 120.53 125.892 128.215 118.206C135.896 110.526 147.429 108.056 157.597 111.914C158.335 112.193 158.918 112.776 159.197 113.514C163.053 123.678 160.579 135.211 152.895 142.896C147.618 148.167 140.526 150.983 133.31 150.983ZM126.658 144.444C134.494 146.915 143.141 144.842 148.996 138.995C154.85 133.141 156.927 124.496 154.454 116.659C146.614 114.184 137.967 116.256 132.116 122.107C126.261 127.963 124.185 136.608 126.658 144.444Z" fill="#333333"/>
<path d="M136.017 128.766C135.31 128.766 134.605 128.497 134.066 127.958C132.989 126.881 132.989 125.135 134.066 124.057C137.722 120.402 142.586 118.388 147.762 118.388C148.567 118.388 149.379 118.439 150.175 118.537C151.687 118.724 152.761 120.102 152.573 121.614C152.386 123.126 151.011 124.198 149.497 124.012C148.925 123.941 148.341 123.905 147.762 123.905C144.059 123.905 140.58 125.345 137.966 127.959C137.428 128.497 136.722 128.766 136.017 128.766Z" fill="white"/>
<path d="M161.949 218.799C158.123 213.202 154.534 208.642 151.527 204.92C151.496 204.881 151.466 204.842 151.437 204.801C150.982 204.17 149.769 202.717 148.232 200.878C142.106 193.54 130.703 179.883 128.051 171.659L133.301 169.966C135.624 177.17 147 190.795 152.467 197.343C154.091 199.287 155.276 200.707 155.863 201.508C158.929 205.305 162.586 209.957 166.503 215.686L161.949 218.799Z" fill="#333333"/>
<path d="M58.0543 218.799L53.5007 215.685C57.4172 209.957 61.0744 205.306 64.1398 201.509C64.7289 200.702 65.9226 199.272 67.5576 197.314C73.018 190.773 84.3808 177.16 86.6959 169.967L91.9467 171.657C89.3028 179.872 77.912 193.517 71.7923 200.849C70.2456 202.702 69.0243 204.165 68.5687 204.798C68.5389 204.839 68.508 204.88 68.4766 204.919C65.4697 208.642 61.8809 213.202 58.0543 218.799Z" fill="#333333"/>
<path d="M164.226 220H55.7779C54.2548 220 53.0198 218.765 53.0198 217.242C53.0198 215.719 54.2548 214.484 55.7779 214.484H164.226C165.749 214.484 166.984 215.719 166.984 217.242C166.984 218.765 165.749 220 164.226 220Z" fill="#333333"/>
<path d="M61.1775 22.779C60.2105 22.779 59.2716 22.2693 58.7669 21.3652L49.1302 4.10293C48.3877 2.77298 48.8637 1.09276 50.1937 0.35028C51.5242 -0.392196 53.2039 0.0844005 53.9463 1.4138L63.5831 18.6755C64.3255 20.0055 63.8495 21.6857 62.5196 22.4282C62.0943 22.6659 61.6326 22.779 61.1775 22.779Z" fill="#333333"/>
<path d="M158.821 22.779C158.366 22.779 157.904 22.666 157.479 22.4288C156.149 21.6863 155.673 20.0061 156.416 18.6761L166.052 1.4144C166.795 0.0844524 168.476 -0.391592 169.805 0.350883C171.135 1.09336 171.611 2.77358 170.869 4.10353L161.232 21.3653C160.726 22.2694 159.788 22.779 158.821 22.779Z" fill="#333333"/>
<path d="M114.509 49.5506C112.986 49.5506 111.75 48.3156 111.75 46.7925C111.75 44.0554 109.523 41.828 106.786 41.828C104.049 41.828 101.821 44.0554 101.821 46.7925C101.821 48.3156 100.586 49.5506 99.0633 49.5506C97.5402 49.5506 96.3052 48.3156 96.3052 46.7925C96.3052 41.0133 101.007 36.3118 106.786 36.3118C112.565 36.3118 117.267 41.0133 117.267 46.7925C117.267 48.3156 116.032 49.5506 114.509 49.5506Z" fill="#333333"/>
<path d="M149.187 72.2033C147.664 72.2033 146.429 70.9682 146.429 69.4452C146.429 67.9442 145.209 66.7235 143.708 66.7235C142.207 66.7235 140.986 67.9442 140.986 69.4452C140.986 70.9682 139.751 72.2033 138.228 72.2033C136.705 72.2033 135.47 70.9682 135.47 69.4452C135.47 64.9026 139.165 61.2073 143.708 61.2073C148.25 61.2073 151.945 64.9026 151.945 69.4452C151.945 70.9682 150.711 72.2033 149.187 72.2033Z" fill="#333333"/>
<path d="M178.423 109.677C176.9 109.677 175.665 108.442 175.665 106.919C175.665 105.418 174.444 104.197 172.943 104.197C171.442 104.197 170.222 105.418 170.222 106.919C170.222 108.442 168.987 109.677 167.464 109.677C165.941 109.677 164.706 108.442 164.706 106.919C164.706 102.376 168.401 98.6808 172.943 98.6808C177.486 98.6808 181.181 102.376 181.181 106.919C181.181 108.442 179.947 109.677 178.423 109.677Z" fill="#333333"/>
<path d="M133.779 212.241C132.256 212.241 131.021 211.006 131.021 209.483C131.021 207.982 129.8 206.761 128.299 206.761C126.798 206.761 125.577 207.982 125.577 209.483C125.577 211.006 124.342 212.241 122.819 212.241C121.296 212.241 120.061 211.006 120.061 209.483C120.061 204.94 123.756 201.245 128.299 201.245C132.841 201.245 136.537 204.94 136.537 209.483C136.537 211.006 135.302 212.241 133.779 212.241Z" fill="#333333"/>
<path d="M76.962 76.5097C75.439 76.5097 74.204 75.2746 74.204 73.7516C74.204 71.1932 72.1227 69.112 69.5643 69.112C67.0059 69.112 64.9241 71.1932 64.9241 73.7516C64.9241 75.2746 63.6891 76.5097 62.166 76.5097C60.643 76.5097 59.408 75.2746 59.408 73.7516C59.408 68.1516 63.9638 63.5958 69.5643 63.5958C75.1643 63.5958 79.7201 68.1516 79.7201 73.7516C79.7201 75.2746 78.4851 76.5097 76.962 76.5097Z" fill="#333333"/>
</g>
<defs>
<clipPath id="clip0_11_4">
<rect width="220" height="220" fill="white"/>
</clipPath>
</defs>
</svg>
