<svg width="220" height="220" viewBox="0 0 220 220" fill="none" xmlns="http://www.w3.org/2000/svg">
<g clip-path="url(#clip0_11_251)">
<path d="M152.572 161.037C159.585 156.43 165.802 150.726 170.981 144.15C181.398 130.94 187.606 114.267 187.606 96.1487C187.606 53.2976 152.864 18.5552 110.012 18.5552C67.1516 18.5552 32.4189 53.2976 32.4189 96.1487C32.4189 114.218 38.5973 130.843 48.9464 144.033C54.1453 150.648 60.3917 156.4 67.4426 161.026" fill="#CAF5FF"/>
<path d="M67.4399 163.727C66.9318 163.727 66.4178 163.584 65.9615 163.284C58.6729 158.502 52.2343 152.586 46.8232 145.701C35.6329 131.439 29.7185 114.304 29.7185 96.1481C29.7185 51.8742 65.7379 15.8547 110.012 15.8547C134.56 15.8547 157.437 26.868 172.778 46.0711C173.709 47.2358 173.519 48.9351 172.353 49.8655C171.189 50.7969 169.489 50.6063 168.559 49.441C154.249 31.528 132.909 21.2545 110.012 21.2545C68.7154 21.2545 35.1183 54.8516 35.1183 96.1481C35.1183 113.083 40.6341 129.065 51.0701 142.367C56.1178 148.789 62.125 154.308 68.9232 158.769C70.17 159.587 70.5178 161.261 69.6997 162.508C69.1814 163.298 68.319 163.727 67.4399 163.727Z" fill="#333333"/>
<path d="M152.574 163.736C151.696 163.736 150.834 163.308 150.315 162.519C149.496 161.273 149.843 159.599 151.089 158.78C157.872 154.324 163.85 148.84 168.86 142.479C179.357 129.167 184.906 113.146 184.906 96.1487C184.906 83.3653 181.629 70.7473 175.43 59.6595C174.702 58.3581 175.168 56.7128 176.469 55.9855C177.77 55.2581 179.415 55.7231 180.143 57.0244C186.791 68.9157 190.305 82.4447 190.305 96.1487C190.305 114.372 184.356 131.549 173.101 145.822C167.732 152.638 161.324 158.517 154.055 163.293C153.597 163.593 153.083 163.736 152.574 163.736Z" fill="#333333"/>
<path d="M92.7614 34.3569C91.5719 34.3569 90.4827 33.5648 90.1571 32.3623C89.7673 30.9227 90.6183 29.4405 92.0573 29.0506C97.8814 27.4733 103.922 26.6736 110.012 26.6736C113.727 26.6736 117.458 26.9739 121.098 27.5662C122.57 27.8054 123.568 29.1932 123.329 30.6646C123.09 32.136 121.703 33.1371 120.23 32.8958C116.876 32.3498 113.438 32.0734 110.012 32.0734C104.398 32.0734 98.8323 32.8099 93.4688 34.263C93.2323 34.3261 92.9947 34.3569 92.7614 34.3569Z" fill="white"/>
<path d="M175.823 97.8836C174.332 97.8836 173.123 96.6746 173.123 95.1838C173.123 82.2017 169.212 69.7321 161.813 59.1238C154.578 48.7521 144.548 40.8652 132.807 36.3149C131.417 35.776 130.726 34.2122 131.266 32.8218C131.805 31.4313 133.368 30.7413 134.759 31.2802C147.504 36.2193 158.391 44.7795 166.242 56.0352C174.277 67.5539 178.524 81.0915 178.524 95.1838C178.523 96.6746 177.314 97.8836 175.823 97.8836Z" fill="white"/>
<path d="M60.8128 128.875C68.3503 128.875 74.4606 122.764 74.4606 115.227C74.4606 107.689 68.3503 101.579 60.8128 101.579C53.2753 101.579 47.165 107.689 47.165 115.227C47.165 122.764 53.2753 128.875 60.8128 128.875Z" fill="#F9E33D"/>
<path d="M159.211 128.875C166.749 128.875 172.859 122.764 172.859 115.227C172.859 107.689 166.749 101.579 159.211 101.579C151.674 101.579 145.563 107.689 145.563 115.227C145.563 122.764 151.674 128.875 159.211 128.875Z" fill="#F9E33D"/>
<path d="M60.8128 131.575C51.7985 131.575 44.4652 124.241 44.4652 115.227C44.4652 106.213 51.7991 98.8793 60.8128 98.8793C69.8266 98.8793 77.1605 106.213 77.1605 115.227C77.1605 124.241 69.8271 131.575 60.8128 131.575ZM60.8128 104.279C54.7759 104.279 49.8649 109.19 49.8649 115.227C49.8649 121.264 54.7765 126.175 60.8128 126.175C66.8492 126.175 71.7608 121.263 71.7608 115.227C71.7608 109.191 66.8497 104.279 60.8128 104.279Z" fill="#666666"/>
<path d="M159.211 131.575C150.197 131.575 142.863 124.241 142.863 115.227C142.863 106.213 150.197 98.8793 159.211 98.8793C168.225 98.8793 175.559 106.213 175.559 115.227C175.559 124.241 168.225 131.575 159.211 131.575ZM159.211 104.279C153.174 104.279 148.263 109.19 148.263 115.227C148.263 121.264 153.174 126.175 159.211 126.175C165.248 126.175 170.159 121.263 170.159 115.227C170.159 109.191 165.247 104.279 159.211 104.279Z" fill="#666666"/>
<path d="M105.686 170.379C79.3382 170.379 57.9024 148.943 57.9024 122.596V106.053C57.9024 79.7049 79.3382 58.2696 105.686 58.2696H114.332C140.68 58.2696 162.116 79.7054 162.116 106.053V122.596C162.116 148.944 140.68 170.379 114.332 170.379H105.686Z" fill="#8FCDF7"/>
<path d="M147.646 109.546V125.191C147.646 143.716 132.622 158.74 114.097 158.74H105.921C87.3952 158.74 72.371 143.716 72.371 125.191V109.546C72.371 91.0205 87.3952 75.9963 105.921 75.9963H114.097C132.623 75.9963 147.646 91.0205 147.646 109.546Z" fill="#D8B86F"/>
<path d="M135.688 109.546V125.191C135.688 143.716 125.437 158.74 112.798 158.74H107.22C94.5805 158.74 84.3302 143.716 84.3302 125.191V109.546C84.3302 91.0205 94.5805 75.9963 107.22 75.9963H112.798C125.437 75.9963 135.688 91.0205 135.688 109.546Z" fill="#F7D789"/>
<path d="M206.007 181.998C198.371 169.917 192.992 163.364 192.992 163.364C191.32 161.107 189.486 158.957 187.512 156.945L169.187 143.823C165.795 142.215 162.245 140.884 158.537 139.876H158.531C157.358 165.654 136.088 186.198 110.007 186.198C83.9323 186.198 62.6628 165.654 61.4899 139.876C57.7949 140.885 54.2257 142.215 50.8077 143.836L32.4891 156.958C30.5214 158.964 28.7055 161.095 27.0094 163.365C27.0094 163.365 21.6243 169.923 14.0004 181.999C10.5829 187.408 6.72375 193.916 2.70042 201.446H217.301C213.278 193.91 209.412 187.402 206.007 181.998Z" fill="#44A1E0"/>
<path d="M196.536 181.998C196.498 181.935 196.473 181.879 196.435 181.822C191.434 173.908 185.463 166.663 178.684 160.205L161.488 143.822C160.46 143.255 159.42 142.732 158.36 142.259C143.952 172.451 92.5464 195.732 61.6541 142.259C60.5946 142.744 59.5476 143.268 58.5201 143.829L41.3241 160.205C34.5453 166.662 28.5613 173.907 23.5606 181.822C23.5352 181.879 23.4974 181.935 23.4531 181.998C20.0351 187.402 16.1765 193.917 12.1596 201.446H207.842C203.819 193.916 199.96 187.402 196.536 181.998Z" fill="#53AEF9"/>
<path d="M114.332 173.079H105.686C77.8495 173.079 55.2025 150.433 55.2025 122.596V106.052C55.2025 78.2157 77.8495 55.5692 105.686 55.5692H114.332C142.168 55.5692 164.815 78.2157 164.815 106.052V122.596C164.815 150.433 142.168 173.079 114.332 173.079ZM105.686 60.9689C80.8269 60.9689 60.6022 81.1936 60.6022 106.052V122.596C60.6022 147.455 80.8269 167.679 105.686 167.679H114.332C139.191 167.679 159.416 147.455 159.416 122.596V106.052C159.416 81.1931 139.191 60.9689 114.332 60.9689H105.686Z" fill="#666666"/>
<path d="M114.097 161.44H105.92C85.9318 161.44 69.6706 145.179 69.6706 125.191V109.546C69.6706 89.5578 85.9318 73.2965 105.92 73.2965H114.097C134.085 73.2965 150.346 89.5578 150.346 109.546V125.191C150.346 145.179 134.085 161.44 114.097 161.44ZM105.921 78.6962C88.9103 78.6962 75.0708 92.5352 75.0708 109.546V125.191C75.0708 142.201 88.9098 156.04 105.921 156.04H114.097C131.107 156.04 144.947 142.201 144.947 125.191V109.546C144.947 92.5357 131.108 78.6962 114.097 78.6962H105.921Z" fill="#666666"/>
<path d="M100.082 123.235C98.5909 123.235 97.3819 122.026 97.3819 120.535V101.699C97.3819 100.208 98.5909 98.9992 100.082 98.9992C101.573 98.9992 102.782 100.208 102.782 101.699V120.535C102.782 122.026 101.573 123.235 100.082 123.235Z" fill="#666666"/>
<path d="M119.936 123.235C118.445 123.235 117.236 122.026 117.236 120.535V101.699C117.236 100.208 118.445 98.9992 119.936 98.9992C121.427 98.9992 122.636 100.208 122.636 101.699V120.535C122.636 122.026 121.427 123.235 119.936 123.235Z" fill="#666666"/>
<path d="M217.301 204.145H2.70041C1.75222 204.145 0.873146 203.648 0.385011 202.834C-0.103124 202.021 -0.128503 201.011 0.318054 200.174C3.92399 193.415 7.75996 186.814 11.7185 180.555C18.2155 170.26 33.0501 150.507 47.4274 141.791C48.597 141.082 50.1127 141.36 50.9551 142.438C65.2665 160.766 86.7925 171.277 110.013 171.277C133.185 171.277 154.677 160.808 168.979 142.555C169.827 141.472 171.354 141.201 172.523 141.923C187.299 151.056 202.38 171.188 208.29 180.558C212.302 186.924 216.134 193.524 219.683 200.174C220.129 201.011 220.104 202.021 219.616 202.834C219.128 203.648 218.249 204.145 217.301 204.145ZM7.2378 198.746H212.762C209.895 193.558 206.865 188.424 203.723 183.437C197.458 173.506 184.068 156.365 171.669 147.815C156.358 166.189 134.027 176.677 110.013 176.677C85.9399 176.677 63.5683 166.142 48.2455 147.682C35.3445 156.43 22.2253 174.024 16.2834 183.439C13.1732 188.358 10.1407 193.49 7.2378 198.746Z" fill="#333333"/>
<path d="M61.429 192.691C60.6779 192.691 59.9311 192.379 59.397 191.77L30.9594 159.304C29.9772 158.182 30.09 156.477 31.2115 155.494C32.3331 154.512 34.0383 154.624 35.0216 155.746L63.4593 188.212C64.4415 189.333 64.3286 191.039 63.2071 192.022C62.6947 192.471 62.0602 192.691 61.429 192.691Z" fill="#333333"/>
<path d="M148.535 204.145C147.903 204.145 147.269 203.925 146.757 203.477C145.635 202.495 145.522 200.789 146.504 199.667L166.702 176.6C167.684 175.478 169.39 175.365 170.512 176.348C171.634 177.33 171.747 179.036 170.765 180.158L150.567 203.224C150.034 203.834 149.286 204.145 148.535 204.145Z" fill="#333333"/>
<path d="M178.443 169.994C177.812 169.994 177.178 169.773 176.666 169.325C175.544 168.342 175.431 166.637 176.413 165.515L184.867 155.863C185.849 154.741 187.555 154.628 188.677 155.61C189.798 156.593 189.911 158.298 188.929 159.42L180.476 169.072C179.942 169.682 179.194 169.994 178.443 169.994Z" fill="#333333"/>
<path d="M124.13 155.367C127.51 155.367 130.25 152.628 130.25 149.248C130.25 145.868 127.51 143.128 124.13 143.128C120.75 143.128 118.011 145.868 118.011 149.248C118.011 152.628 120.75 155.367 124.13 155.367Z" fill="#ED6B5D"/>
<path d="M124.13 158.068C119.267 158.068 115.311 154.112 115.311 149.249C115.311 144.386 119.267 140.429 124.13 140.429C128.993 140.429 132.949 144.386 132.949 149.249C132.949 154.112 128.993 158.068 124.13 158.068ZM124.13 145.828C122.244 145.828 120.71 147.362 120.71 149.248C120.71 151.134 122.244 152.668 124.13 152.668C126.016 152.668 127.55 151.134 127.55 149.248C127.55 147.362 126.016 145.828 124.13 145.828Z" fill="#666666"/>
</g>
<defs>
<clipPath id="clip0_11_251">
<rect width="220" height="220" fill="white"/>
</clipPath>
</defs>
</svg>
