<svg width="220" height="220" viewBox="0 0 220 220" fill="none" xmlns="http://www.w3.org/2000/svg">
<g clip-path="url(#clip0_11_377)">
<path d="M110.007 200.884C160.213 200.884 200.913 160.184 200.913 109.978C200.913 59.7725 160.213 19.0726 110.007 19.0726C59.8011 19.0726 19.1012 59.7725 19.1012 109.978C19.1012 160.184 59.8011 200.884 110.007 200.884Z" fill="#4A7984"/>
<path d="M180.628 52.7409C180.628 52.7409 174.891 23.9033 133.598 7.34469C92.3064 -9.2139 56.0745 21.3858 56.0745 21.3858C56.0745 21.3858 74.17 11.2628 99.327 24.7188C124.484 38.1749 180.628 52.7409 180.628 52.7409Z" fill="#4A7984"/>
<path d="M52.7695 39.3579C52.7695 39.3579 23.932 45.0949 7.37338 86.3869C-9.18521 127.679 21.4145 163.911 21.4145 163.911C21.4145 163.911 11.2914 145.815 24.7475 120.658C38.2036 95.5014 52.7695 39.3579 52.7695 39.3579Z" fill="#4A7984"/>
<path d="M39.3865 167.215C39.3865 167.215 45.1234 196.053 86.4155 212.611C127.708 229.17 163.94 198.57 163.94 198.57C163.94 198.57 145.844 208.693 120.687 195.237C95.53 181.781 39.3865 167.215 39.3865 167.215Z" fill="#4A7984"/>
<path d="M167.244 180.599C167.244 180.599 196.081 174.862 212.64 133.57C229.199 92.2778 198.599 56.0458 198.599 56.0458C198.599 56.0458 208.722 74.1414 195.266 99.2984C181.81 124.455 167.244 180.599 167.244 180.599Z" fill="#4A7984"/>
<path d="M110.007 189.691C154.031 189.691 189.72 154.003 189.72 109.978C189.72 65.9543 154.031 30.2657 110.007 30.2657C65.9828 30.2657 30.2942 65.9543 30.2942 109.978C30.2942 154.003 65.9828 189.691 110.007 189.691Z" fill="#FCBC1D"/>
<path d="M110.007 156.625C135.769 156.625 156.653 135.741 156.653 109.978C156.653 84.2163 135.769 63.332 110.007 63.332C84.2449 63.332 63.3606 84.2163 63.3606 109.978C63.3606 135.741 84.2449 156.625 110.007 156.625Z" fill="#FCD275"/>
<path d="M189.93 36.1238C188.314 36.1238 187.005 34.8139 187.005 33.1986V20.6592C187.005 19.0439 188.314 17.734 189.93 17.734C191.546 17.734 192.855 19.0439 192.855 20.6592V33.1986C192.855 34.8139 191.546 36.1238 189.93 36.1238Z" fill="#FCBC1D"/>
<path d="M196.2 29.8539H183.661C182.045 29.8539 180.736 28.544 180.736 26.9287C180.736 25.3133 182.045 24.0034 183.661 24.0034H196.2C197.816 24.0034 199.125 25.3133 199.125 26.9287C199.125 28.544 197.816 29.8539 196.2 29.8539Z" fill="#FCBC1D"/>
<path d="M18.4383 213.61C16.823 213.61 15.5131 212.3 15.5131 210.685V198.145C15.5131 196.53 16.823 195.22 18.4383 195.22C20.0536 195.22 21.3635 196.53 21.3635 198.145V210.685C21.3635 212.301 20.0536 213.61 18.4383 213.61Z" fill="#FCBC1D"/>
<path d="M24.7082 207.34H12.1683C10.553 207.34 9.24304 206.03 9.24304 204.415C9.24304 202.8 10.553 201.49 12.1683 201.49H24.7082C26.3235 201.49 27.6334 202.8 27.6334 204.415C27.6334 206.03 26.3235 207.34 24.7082 207.34Z" fill="#FCBC1D"/>
<path d="M121.31 97.7117C120.737 97.7117 120.159 97.5438 119.652 97.1946C105.334 87.3231 86.7198 85.8979 71.0733 93.4772C69.62 94.181 67.8701 93.5743 67.1651 92.1199C66.4607 90.666 67.0686 88.9161 68.5224 88.2117C86.0598 79.7169 106.924 81.3135 122.972 92.3779C124.302 93.2946 124.637 95.1165 123.72 96.4469C123.154 97.27 122.239 97.7117 121.31 97.7117Z" fill="#333333"/>
<path d="M69.0284 207.052C68.4826 207.052 67.9309 206.899 67.4389 206.58C60.3879 202.005 54.0682 196.372 48.6559 189.84C37.213 176.03 31.8329 158.59 33.5067 140.733C35.1811 122.876 43.7088 106.74 57.5194 95.2972C58.7632 94.2664 60.6079 94.4396 61.6381 95.6834C62.669 96.9272 62.4958 98.7713 61.252 99.8021C48.6448 110.248 40.8602 124.978 39.332 141.28C37.8039 157.581 42.7148 173.501 53.1608 186.108C58.1945 192.183 64.0702 197.42 70.6233 201.673C71.9782 202.552 72.3644 204.364 71.4851 205.719C70.9246 206.582 69.9862 207.052 69.0284 207.052Z" fill="#333333"/>
<path d="M112.792 220C102.201 220 91.5715 217.968 81.449 213.873C79.9513 213.267 79.2281 211.562 79.8342 210.065C80.4404 208.566 82.1452 207.843 83.6429 208.45C105.166 217.157 129.168 215.836 149.494 204.825C150.916 204.055 152.691 204.584 153.46 206.004C154.229 207.424 153.701 209.2 152.281 209.969C139.977 216.634 126.418 220 112.792 220Z" fill="#333333"/>
<path d="M157.572 206.27C156.633 206.27 155.71 205.818 155.145 204.981C154.241 203.642 154.593 201.824 155.932 200.92C158.04 199.496 160.106 197.948 162.073 196.318C163.316 195.288 165.162 195.46 166.192 196.704C167.223 197.948 167.05 199.792 165.806 200.823C163.693 202.575 161.472 204.239 159.207 205.769C158.704 206.107 158.135 206.27 157.572 206.27Z" fill="#333333"/>
<path d="M127.877 137.15C117.233 137.15 106.708 134.033 97.7292 128.045C96.3853 127.148 96.0226 125.332 96.9189 123.988C97.8152 122.644 99.6317 122.281 100.976 123.178C112.306 130.734 126.402 133.167 139.652 129.85C141.216 129.458 142.808 130.409 143.2 131.977C143.592 133.544 142.64 135.133 141.072 135.525C136.723 136.614 132.289 137.15 127.877 137.15Z" fill="#333333"/>
<path d="M151.28 131.508C150.218 131.508 149.194 130.928 148.675 129.919C147.937 128.481 148.504 126.718 149.941 125.981C153.063 124.378 156.031 122.418 158.762 120.155C160.006 119.124 161.85 119.298 162.881 120.541C163.911 121.785 163.738 123.63 162.494 124.66C159.436 127.193 156.113 129.389 152.614 131.185C152.186 131.404 151.729 131.508 151.28 131.508Z" fill="#333333"/>
<path d="M169.989 115.782C169.352 115.782 168.709 115.575 168.172 115.147C166.907 114.143 166.696 112.302 167.701 111.037C176.31 100.198 181.016 86.5584 180.95 72.6302C180.884 58.513 175.877 44.7398 166.852 33.848C160.188 25.806 152.151 19.3108 142.964 14.5426C141.53 13.7985 140.97 12.0328 141.715 10.5988C142.458 9.1643 144.227 8.60617 145.658 9.34976C155.544 14.4806 164.191 21.4673 171.357 30.1154C181.242 42.0469 186.727 57.1358 186.8 72.6027C186.872 87.8572 181.715 102.799 172.281 114.676C171.704 115.404 170.851 115.782 169.989 115.782Z" fill="#333333"/>
<path d="M56.0762 24.3111C55.2349 24.3111 54.4006 23.9501 53.822 23.2522C52.7911 22.0084 52.9643 20.1643 54.2081 19.1334C65.4123 9.84932 78.8731 3.64782 93.133 1.19882C106.962 -1.17647 121.286 -0.00755023 134.554 4.57981C136.081 5.10752 136.891 6.77373 136.363 8.30012C135.836 9.82709 134.171 10.6368 132.643 10.1091C120.304 5.84292 106.985 4.75649 94.1235 6.96446C80.8705 9.24088 68.3586 15.0059 57.9407 23.6383C57.3949 24.0905 56.7332 24.3111 56.0762 24.3111Z" fill="#333333"/>
<path d="M128.475 118.755C128.021 118.755 127.56 118.649 127.13 118.425C125.696 117.681 125.136 115.915 125.88 114.482C134.871 97.1571 132.635 76.2516 120.183 61.2235C107.815 46.2972 89.5958 38.2317 70.2097 39.0952C68.6084 39.1637 67.2295 37.917 67.1575 36.3028C67.0855 34.6893 68.3358 33.3226 69.9499 33.2506C91.1883 32.3052 111.141 41.1406 124.689 57.4915C138.644 74.3338 141.15 97.7614 131.073 117.177C130.553 118.18 129.532 118.755 128.475 118.755Z" fill="#333333"/>
<path d="M55.4128 41.4699C54.1374 41.4699 52.965 40.6298 52.5999 39.3421C52.1588 37.7877 53.0615 36.1706 54.6154 35.7295C56.2009 35.2796 57.8209 34.8841 59.4315 34.5541C61.0117 34.2294 62.5598 35.2491 62.8845 36.8323C63.2092 38.4148 62.1894 39.9611 60.6063 40.2852C59.1372 40.5865 57.6588 40.9475 56.212 41.3576C55.9458 41.4337 55.6767 41.4699 55.4128 41.4699Z" fill="#333333"/>
<path d="M6.69346 139.912C5.45257 139.912 4.3012 139.116 3.90571 137.871C-1.04321 122.261 -1.28132 105.655 3.21711 89.8487C7.82435 73.6604 17.1354 59.4063 30.1445 48.6274C34.6131 44.9247 39.524 41.8192 44.7408 39.3971C46.2058 38.7161 47.9457 39.3533 48.6261 40.8188C49.3065 42.2843 48.67 44.0237 47.2045 44.7041C42.4434 46.9144 37.9596 49.7507 33.8771 53.1329C21.7824 63.1542 13.1266 76.4043 8.84409 91.4505C4.661 106.15 4.88157 121.59 9.48238 136.103C9.97031 137.642 9.11789 139.287 7.57805 139.775C7.28436 139.868 6.98657 139.912 6.69346 139.912Z" fill="#333333"/>
<path d="M21.4162 166.836C20.5749 166.836 19.7406 166.475 19.162 165.777C14.3248 159.939 10.3167 153.503 7.2487 146.647C6.58877 145.172 7.24928 143.441 8.7236 142.782C10.2003 142.122 11.9291 142.783 12.5884 144.257C15.4405 150.63 19.1679 156.615 23.6669 162.045C24.6977 163.288 24.5246 165.133 23.2807 166.163C22.7349 166.616 22.0732 166.836 21.4162 166.836Z" fill="#333333"/>
<path d="M89.4968 150.011C88.3402 150.011 87.2449 149.32 86.7845 148.182C79.9231 131.227 82.0152 112.111 92.3805 97.05C93.2961 95.7191 95.1173 95.3827 96.4489 96.2983C97.7799 97.2144 98.1163 99.0357 97.2007 100.367C87.9529 113.805 86.0866 130.859 92.2079 145.987C92.814 147.485 92.0915 149.191 90.5938 149.796C90.234 149.942 89.8619 150.011 89.4968 150.011Z" fill="#333333"/>
<path d="M147.086 186.742C127.765 186.743 108.586 178.47 95.3251 162.465C94.2943 161.222 94.4675 159.377 95.7113 158.347C96.9551 157.316 98.7997 157.489 99.83 158.733C121.393 184.757 160.11 188.388 186.136 166.824C204.624 151.506 214.818 128.939 214.103 104.908C214.055 103.294 215.325 101.946 216.941 101.898C218.545 101.845 219.903 103.119 219.951 104.735C220.719 130.579 209.755 154.852 189.869 171.329C177.365 181.689 162.181 186.741 147.086 186.742Z" fill="#333333"/>
<path d="M215.597 94.8631C214.224 94.8631 212.999 93.8913 212.728 92.4931C210.282 79.8514 204.617 67.893 196.347 57.9115C195.316 56.6677 195.489 54.8236 196.733 53.7928C197.979 52.7619 199.821 52.9357 200.853 54.1789C209.746 64.9139 215.84 77.7786 218.472 91.3809C218.779 92.967 217.742 94.5015 216.156 94.8087C215.968 94.8455 215.781 94.8631 215.597 94.8631Z" fill="#333333"/>
<path d="M110.007 119.926C115.501 119.926 119.954 115.472 119.954 109.978C119.954 104.485 115.501 100.031 110.007 100.031C104.513 100.031 100.059 104.485 100.059 109.978C100.059 115.472 104.513 119.926 110.007 119.926Z" fill="#F24125"/>
<path d="M110.007 122.851C102.909 122.851 97.134 117.076 97.134 109.978C97.134 102.881 102.909 97.1056 110.007 97.1056C117.105 97.1056 122.88 102.881 122.88 109.978C122.88 117.076 117.105 122.851 110.007 122.851ZM110.007 102.956C106.134 102.956 102.985 106.106 102.985 109.978C102.985 113.851 106.134 117.001 110.007 117.001C113.879 117.001 117.029 113.85 117.029 109.978C117.029 106.107 113.879 102.956 110.007 102.956Z" fill="#333333"/>
<path d="M157.246 154.014C157.052 154.014 156.865 153.997 156.672 153.956C156.485 153.921 156.304 153.862 156.128 153.792C155.953 153.716 155.783 153.628 155.625 153.523C155.461 153.418 155.315 153.295 155.174 153.16C155.04 153.026 154.922 152.873 154.812 152.715C154.706 152.552 154.619 152.382 154.543 152.207C154.472 152.031 154.413 151.85 154.379 151.662C154.338 151.475 154.32 151.282 154.32 151.089C154.32 150.896 154.337 150.709 154.379 150.516C154.414 150.328 154.472 150.147 154.543 149.972C154.619 149.796 154.706 149.626 154.812 149.463C154.922 149.305 155.04 149.153 155.174 149.018C155.314 148.883 155.461 148.761 155.625 148.655C155.784 148.55 155.953 148.462 156.128 148.386C156.304 148.316 156.484 148.257 156.672 148.222C157.053 148.146 157.439 148.146 157.819 148.222C158.006 148.257 158.187 148.316 158.363 148.386C158.539 148.462 158.715 148.55 158.872 148.655C159.031 148.761 159.182 148.883 159.317 149.018C159.451 149.153 159.574 149.305 159.679 149.463C159.785 149.626 159.872 149.796 159.948 149.972C160.019 150.147 160.078 150.328 160.112 150.516C160.153 150.709 160.171 150.896 160.171 151.089C160.171 151.282 160.154 151.475 160.112 151.662C160.077 151.85 160.019 152.031 159.948 152.207C159.872 152.382 159.785 152.552 159.679 152.715C159.574 152.873 159.451 153.026 159.317 153.16C159.183 153.295 159.031 153.418 158.872 153.523C158.714 153.628 158.539 153.716 158.363 153.792C158.187 153.862 158.007 153.921 157.819 153.956C157.631 153.996 157.438 154.014 157.246 154.014Z" fill="white"/>
<path d="M199.954 121.252C199.187 121.252 198.432 120.942 197.889 120.397C197.339 119.848 197.029 119.099 197.029 118.326C197.029 118.133 197.046 117.946 197.087 117.753C197.122 117.566 197.181 117.384 197.251 117.209C197.327 117.033 197.414 116.864 197.52 116.7C197.631 116.542 197.754 116.39 197.889 116.255C198.567 115.577 199.58 115.267 200.527 115.46C200.715 115.495 200.896 115.553 201.071 115.624C201.248 115.7 201.417 115.787 201.58 115.893C201.739 115.998 201.891 116.121 202.026 116.255C202.16 116.39 202.283 116.542 202.388 116.7C202.494 116.864 202.581 117.033 202.657 117.209C202.727 117.384 202.786 117.566 202.821 117.753C202.862 117.946 202.88 118.133 202.88 118.326C202.88 119.093 202.57 119.848 202.026 120.397C201.891 120.532 201.739 120.655 201.58 120.76C201.417 120.866 201.248 120.953 201.071 121.029C200.896 121.1 200.715 121.158 200.527 121.193C200.34 121.234 200.147 121.252 199.954 121.252Z" fill="white"/>
<path d="M44.3314 56.8965C43.565 56.8965 42.8102 56.5864 42.2661 56.0423C42.1316 55.9078 42.0087 55.7557 41.8976 55.5977C41.7923 55.4339 41.7045 55.2642 41.6343 55.0887C41.5582 54.9132 41.4997 54.7318 41.4646 54.5446C41.4295 54.3515 41.4061 54.1643 41.4061 53.9713C41.4061 53.7782 41.4295 53.591 41.4646 53.3979C41.4997 53.2107 41.5582 53.0293 41.6343 52.8538C41.7045 52.6783 41.7923 52.5086 41.8976 52.3448C42.0087 52.1869 42.1316 52.0348 42.2661 51.9002C42.4007 51.7656 42.547 51.6428 42.7108 51.5375C42.8687 51.4322 43.0384 51.3444 43.2139 51.2683C43.3894 51.1981 43.5767 51.1396 43.7639 51.1045C44.1383 51.0285 44.5244 51.0285 44.9047 51.1045C45.0919 51.1396 45.2733 51.1981 45.4488 51.2683C45.6302 51.3444 45.7998 51.4322 45.9578 51.5375C46.1158 51.6428 46.2679 51.7656 46.4024 51.9002C46.9465 52.4443 47.2566 53.199 47.2566 53.9713C47.2566 54.7435 46.9465 55.4924 46.4024 56.0423C45.8583 56.5858 45.1036 56.8965 44.3314 56.8965Z" fill="white"/>
<path d="M145.545 110.721C145.352 110.721 145.164 110.703 144.971 110.662C144.784 110.627 144.603 110.569 144.427 110.499C144.252 110.422 144.082 110.335 143.924 110.229C143.76 110.124 143.614 110.001 143.474 109.867C142.929 109.323 142.619 108.568 142.619 107.796C142.619 107.023 142.929 106.269 143.474 105.725C143.613 105.59 143.76 105.467 143.924 105.362C144.083 105.256 144.252 105.169 144.427 105.093C144.603 105.022 144.783 104.964 144.971 104.929C145.352 104.853 145.738 104.853 146.118 104.929C146.305 104.964 146.487 105.022 146.662 105.093C146.844 105.169 147.014 105.256 147.171 105.362C147.33 105.467 147.481 105.59 147.616 105.725C148.16 106.269 148.47 107.023 148.47 107.796C148.47 108.568 148.16 109.323 147.616 109.867C147.482 110.001 147.33 110.124 147.171 110.229C147.013 110.335 146.843 110.422 146.662 110.499C146.487 110.569 146.306 110.627 146.118 110.662C145.93 110.703 145.737 110.721 145.545 110.721Z" fill="white"/>
<path d="M141.449 91.4143C141.256 91.4143 141.069 91.3967 140.876 91.3558C140.689 91.3207 140.507 91.2621 140.332 91.1919C140.156 91.1159 139.987 91.0281 139.829 90.9228C139.665 90.8175 139.519 90.6946 139.384 90.5601C139.249 90.4255 139.127 90.2734 139.015 90.1155C138.909 89.9516 138.822 89.782 138.746 89.6065C138.676 89.4309 138.617 89.2496 138.582 89.0624C138.541 88.8693 138.524 88.6821 138.524 88.489C138.524 88.296 138.541 88.1087 138.582 87.9157C138.618 87.7285 138.676 87.5471 138.746 87.3716C138.822 87.1961 138.909 87.0264 139.015 86.8626C139.126 86.7046 139.249 86.5584 139.384 86.418C139.518 86.2834 139.664 86.1664 139.829 86.0552C139.987 85.9499 140.157 85.8622 140.332 85.7861C140.507 85.7159 140.688 85.6574 140.876 85.6223C141.256 85.5462 141.642 85.5462 142.023 85.6223C142.21 85.6574 142.391 85.7159 142.567 85.7861C142.749 85.8622 142.918 85.9499 143.076 86.0552C143.234 86.1664 143.386 86.2834 143.521 86.418C144.065 86.9679 144.375 87.7168 144.375 88.489C144.375 89.2613 144.065 90.0101 143.521 90.5601C143.386 90.6946 143.234 90.8175 143.076 90.9228C142.918 91.0281 142.748 91.1159 142.567 91.1919C142.391 91.2621 142.21 91.3207 142.023 91.3558C141.835 91.3961 141.642 91.4143 141.449 91.4143Z" fill="white"/>
<path d="M120.388 84.9788C120.2 84.9788 120.007 84.9612 119.814 84.9203C119.627 84.8852 119.446 84.8267 119.27 84.7565C119.095 84.6804 118.925 84.5926 118.761 84.4873C118.603 84.382 118.456 84.2592 118.317 84.1246C117.772 83.5805 117.462 82.8258 117.462 82.0535C117.462 81.2813 117.772 80.5266 118.317 79.9825C118.456 79.8479 118.603 79.7309 118.761 79.6197C118.925 79.5144 119.095 79.4267 119.27 79.3506C119.446 79.2804 119.626 79.2219 119.814 79.1868C120.768 78.9937 121.78 79.3038 122.459 79.9825C122.593 80.117 122.716 80.2691 122.821 80.4271C122.927 80.5909 123.015 80.7606 123.091 80.9361C123.161 81.1116 123.22 81.293 123.254 81.4802C123.295 81.6733 123.313 81.8605 123.313 82.0535C123.313 82.8258 123.003 83.5805 122.459 84.1246C121.915 84.6681 121.16 84.9788 120.388 84.9788Z" fill="white"/>
<path d="M78.8491 123.007C78.0827 123.007 77.3279 122.697 76.7838 122.153C76.6493 122.018 76.5264 121.866 76.4153 121.708C76.31 121.544 76.2222 121.375 76.152 121.199C76.0759 121.023 76.0174 120.842 75.9823 120.655C75.9414 120.462 75.9238 120.275 75.9238 120.082C75.9238 119.309 76.2398 118.555 76.7838 118.01C76.9184 117.876 77.0647 117.753 77.2285 117.648C77.3864 117.542 77.5561 117.455 77.7316 117.379C77.9071 117.308 78.0944 117.25 78.2757 117.215C78.656 117.139 79.0421 117.139 79.4224 117.215C79.6096 117.25 79.791 117.308 79.9665 117.379C80.1479 117.455 80.3175 117.542 80.4755 117.648C80.6335 117.753 80.7856 117.876 80.9201 118.01C81.4642 118.555 81.7743 119.309 81.7743 120.082C81.7743 120.275 81.7567 120.462 81.7158 120.655C81.6807 120.842 81.6222 121.023 81.552 121.199C81.4759 121.375 81.3882 121.544 81.2829 121.708C81.1776 121.866 81.0547 122.018 80.9201 122.153C80.3702 122.696 79.6213 123.007 78.8491 123.007Z" fill="white"/>
<path d="M95.0375 139.581C94.8445 139.581 94.6514 139.564 94.4642 139.529C94.277 139.488 94.0956 139.435 93.9201 139.359C93.7387 139.289 93.5691 139.195 93.4111 139.09C93.2531 138.984 93.101 138.862 92.9665 138.727C92.8319 138.592 92.709 138.44 92.6037 138.282C92.4984 138.124 92.4107 137.955 92.3346 137.779C92.2644 137.598 92.2059 137.417 92.1708 137.229C92.1299 137.042 92.1123 136.849 92.1123 136.656C92.1123 135.89 92.4224 135.135 92.9665 134.591C93.101 134.456 93.2531 134.333 93.4111 134.228C93.5691 134.123 93.7387 134.029 93.9201 133.959C94.0956 133.883 94.277 133.83 94.4642 133.789C95.412 133.596 96.4241 133.912 97.1027 134.591C97.2373 134.725 97.3602 134.872 97.4655 135.035C97.5766 135.193 97.6644 135.363 97.7346 135.539C97.8107 135.714 97.8692 135.901 97.9043 136.088C97.9452 136.276 97.9628 136.469 97.9628 136.656C97.9628 136.849 97.9452 137.042 97.9043 137.229C97.8692 137.417 97.8107 137.598 97.7346 137.779C97.6644 137.955 97.5766 138.124 97.4655 138.282C97.3602 138.44 97.2373 138.592 97.1027 138.727C96.5587 139.271 95.8039 139.581 95.0375 139.581Z" fill="white"/>
<path d="M72.9987 103.115C72.2323 103.115 71.4776 102.805 70.9335 102.261C70.7989 102.127 70.6761 101.974 70.5649 101.816C70.4596 101.653 70.3719 101.483 70.2958 101.307C70.2256 101.132 70.1671 100.951 70.132 100.763C70.091 100.57 70.0735 100.383 70.0735 100.19C70.0735 99.9969 70.091 99.8097 70.132 99.6167C70.1671 99.4294 70.2256 99.2481 70.2958 99.0726C70.3719 98.8971 70.4596 98.7215 70.5649 98.5636C70.6761 98.4056 70.7989 98.2535 70.9335 98.1189C71.6122 97.4403 72.6243 97.1302 73.5721 97.3233C73.7593 97.3584 73.9407 97.4169 74.1162 97.4871C74.2975 97.5631 74.4672 97.6509 74.6252 97.7562C74.7831 97.8615 74.9352 97.9844 75.0698 98.1189C75.6139 98.663 75.924 99.4177 75.924 100.19C75.924 100.383 75.9064 100.57 75.8655 100.763C75.8304 100.951 75.7719 101.132 75.7016 101.307C75.6256 101.483 75.5378 101.653 75.4325 101.816C75.3272 101.974 75.2044 102.127 75.0698 102.261C74.5257 102.805 73.771 103.115 72.9987 103.115Z" fill="white"/>
<path d="M112.782 142.898C112.595 142.898 112.402 142.881 112.209 142.84C112.027 142.805 111.84 142.746 111.664 142.676C111.489 142.6 111.319 142.512 111.161 142.407C110.998 142.302 110.851 142.179 110.717 142.044C110.582 141.91 110.459 141.758 110.348 141.6C110.242 141.436 110.155 141.266 110.079 141.091C110.009 140.915 109.95 140.734 109.915 140.547C109.874 140.353 109.857 140.166 109.857 139.973C109.857 139.78 109.874 139.587 109.915 139.4C109.95 139.213 110.009 139.031 110.079 138.856C110.155 138.68 110.242 138.511 110.348 138.347C110.459 138.189 110.582 138.043 110.717 137.902C110.851 137.768 110.997 137.645 111.161 137.539C111.32 137.434 111.49 137.346 111.664 137.27C111.84 137.2 112.021 137.142 112.209 137.106C113.162 136.913 114.174 137.223 114.854 137.902C114.988 138.043 115.11 138.189 115.216 138.347C115.322 138.511 115.409 138.68 115.485 138.856C115.555 139.031 115.614 139.213 115.649 139.4C115.69 139.587 115.708 139.78 115.708 139.973C115.708 140.166 115.69 140.353 115.649 140.547C115.614 140.734 115.555 140.915 115.485 141.091C115.409 141.266 115.322 141.436 115.216 141.6C115.11 141.758 114.988 141.91 114.854 142.044C114.309 142.588 113.554 142.898 112.782 142.898Z" fill="white"/>
<path d="M105.568 150.504C105.375 150.504 105.182 150.486 104.995 150.446C104.808 150.41 104.626 150.352 104.451 150.282C104.269 150.206 104.1 150.118 103.942 150.013C103.784 149.907 103.632 149.784 103.497 149.65C102.953 149.106 102.643 148.351 102.643 147.579C102.643 146.807 102.953 146.052 103.497 145.508C103.632 145.373 103.784 145.25 103.942 145.145C104.1 145.04 104.269 144.952 104.451 144.876C104.626 144.806 104.808 144.747 104.995 144.712C105.949 144.519 106.955 144.829 107.634 145.508C107.768 145.642 107.891 145.794 108.002 145.952C108.107 146.116 108.195 146.286 108.265 146.461C108.341 146.637 108.4 146.818 108.435 147.005C108.476 147.199 108.494 147.386 108.494 147.579C108.494 148.351 108.178 149.106 107.634 149.65C107.089 150.193 106.335 150.504 105.568 150.504Z" fill="white"/>
<path d="M129.748 146.994C128.981 146.994 128.227 146.684 127.683 146.14C127.548 146.005 127.426 145.853 127.314 145.695C127.209 145.531 127.121 145.361 127.045 145.186C126.975 145.01 126.916 144.829 126.881 144.642C126.841 144.449 126.823 144.262 126.823 144.069C126.823 143.296 127.132 142.542 127.683 141.997C127.817 141.863 127.963 141.746 128.128 141.635C128.286 141.529 128.456 141.442 128.631 141.366C128.806 141.295 128.987 141.237 129.175 141.202C129.555 141.126 129.941 141.126 130.322 141.202C130.509 141.237 130.69 141.295 130.866 141.366C131.048 141.442 131.217 141.529 131.375 141.635C131.533 141.746 131.685 141.863 131.82 141.997C131.954 142.132 132.077 142.284 132.182 142.442C132.288 142.606 132.375 142.776 132.451 142.951C132.521 143.127 132.58 143.308 132.615 143.495C132.656 143.688 132.674 143.875 132.674 144.069C132.674 144.262 132.657 144.449 132.615 144.642C132.58 144.829 132.521 145.01 132.451 145.186C132.375 145.361 132.288 145.531 132.182 145.695C132.077 145.853 131.954 146.005 131.82 146.14C131.685 146.274 131.533 146.397 131.375 146.502C131.217 146.608 131.047 146.695 130.866 146.771C130.69 146.842 130.509 146.9 130.322 146.935C130.134 146.976 129.941 146.994 129.748 146.994Z" fill="white"/>
<path d="M102.836 75.618C102.649 75.618 102.456 75.6004 102.263 75.5595C102.081 75.5244 101.894 75.4659 101.719 75.3957C101.543 75.3196 101.374 75.2319 101.216 75.1265C101.052 75.0212 100.905 74.8984 100.771 74.7638C100.636 74.6293 100.513 74.4771 100.402 74.3192C100.297 74.1612 100.209 73.9857 100.139 73.8102C100.063 73.6347 100.004 73.4533 99.9694 73.2661C99.9343 73.0789 99.9109 72.8858 99.9109 72.6928C99.9109 72.4997 99.9343 72.3125 99.9694 72.1194C100.004 71.9322 100.063 71.7508 100.139 71.5753C100.209 71.3998 100.297 71.2301 100.402 71.0722C100.513 70.9084 100.636 70.7621 100.771 70.6217C100.905 70.4871 101.052 70.3701 101.216 70.259C101.374 70.1537 101.543 70.0659 101.719 69.9898C101.894 69.9196 102.081 69.8611 102.263 69.826C103.216 69.633 104.223 69.943 104.907 70.6217C105.042 70.7621 105.165 70.9084 105.27 71.0722C105.375 71.2301 105.463 71.3998 105.539 71.5753C105.609 71.7508 105.668 71.9322 105.703 72.1194C105.744 72.3125 105.761 72.4997 105.761 72.6928C105.761 72.8858 105.744 73.0789 105.703 73.2661C105.668 73.4533 105.609 73.6347 105.539 73.8102C105.463 73.9857 105.375 74.1612 105.27 74.3192C105.165 74.4771 105.042 74.6293 104.907 74.7638C104.363 75.3073 103.608 75.618 102.836 75.618Z" fill="white"/>
<path d="M131.503 125.932C131.31 125.932 131.123 125.914 130.93 125.874C130.743 125.838 130.561 125.78 130.386 125.71C130.21 125.634 130.041 125.546 129.883 125.441C129.719 125.335 129.573 125.212 129.432 125.078C129.298 124.943 129.18 124.791 129.07 124.633C128.964 124.469 128.877 124.3 128.8 124.124C128.73 123.949 128.671 123.767 128.637 123.58C128.596 123.387 128.578 123.2 128.578 123.007C128.578 122.814 128.595 122.627 128.637 122.433C128.672 122.246 128.73 122.065 128.8 121.889C128.877 121.714 128.964 121.544 129.07 121.38C129.18 121.222 129.298 121.07 129.432 120.936C129.572 120.801 129.718 120.678 129.883 120.573C130.041 120.468 130.211 120.38 130.386 120.304C130.561 120.234 130.742 120.175 130.93 120.14C131.31 120.064 131.696 120.064 132.077 120.14C132.264 120.175 132.445 120.234 132.621 120.304C132.797 120.38 132.967 120.468 133.13 120.573C133.288 120.678 133.44 120.801 133.575 120.936C134.119 121.486 134.429 122.24 134.429 123.007C134.429 123.2 134.412 123.387 134.37 123.58C134.335 123.767 134.276 123.949 134.206 124.124C134.13 124.3 134.043 124.469 133.937 124.633C133.832 124.791 133.709 124.943 133.575 125.078C133.44 125.212 133.288 125.335 133.13 125.441C132.967 125.546 132.797 125.634 132.621 125.71C132.445 125.78 132.265 125.838 132.077 125.874C131.889 125.914 131.696 125.932 131.503 125.932Z" fill="white"/>
<path d="M71.2436 70.9376C70.4772 70.9376 69.7225 70.6276 69.1784 70.0835C68.6343 69.5335 68.3184 68.7847 68.3184 68.0124C68.3184 67.8193 68.3359 67.6321 68.3769 67.4391C68.412 67.2518 68.4705 67.0705 68.5465 66.895C68.6167 66.7194 68.7045 66.5498 68.8098 66.386C68.921 66.228 69.0438 66.0759 69.1784 65.9413C69.857 65.2627 70.8633 64.9526 71.8169 65.1457C72.0042 65.1808 72.1855 65.2393 72.361 65.3095C72.5424 65.3855 72.7121 65.4733 72.87 65.5786C73.028 65.6839 73.1801 65.8068 73.3147 65.9413C73.4492 66.0759 73.5721 66.228 73.6774 66.386C73.7827 66.5439 73.8705 66.7194 73.9465 66.895C74.0167 67.0705 74.0752 67.2518 74.1103 67.4391C74.1513 67.6321 74.1688 67.8193 74.1688 68.0124C74.1688 68.2055 74.1513 68.3985 74.1103 68.5857C74.0752 68.773 74.0167 68.9543 73.9465 69.1298C73.8705 69.3054 73.7827 69.475 73.6774 69.6388C73.5721 69.7968 73.4492 69.9489 73.3147 70.0835C73.1801 70.218 73.028 70.335 72.87 70.4462C72.7121 70.5515 72.5424 70.6393 72.361 70.7153C72.1855 70.7855 72.0042 70.844 71.8169 70.8791C71.6297 70.9195 71.4367 70.9376 71.2436 70.9376Z" fill="white"/>
<path d="M46.0865 89.6591C45.3142 89.6591 44.5654 89.349 44.0213 88.805C43.8867 88.6645 43.7639 88.5183 43.6527 88.3545C43.5474 88.1965 43.4596 88.0268 43.3836 87.8513C43.3134 87.6758 43.2549 87.4945 43.2198 87.3072C43.1788 87.1142 43.1613 86.927 43.1613 86.7339C43.1613 86.5408 43.1788 86.3536 43.2198 86.1605C43.2549 85.9733 43.3134 85.792 43.3836 85.6165C43.4596 85.4409 43.5474 85.2713 43.6527 85.1075C43.7639 84.9495 43.8867 84.7974 44.0213 84.6628C44.6999 83.9842 45.7062 83.6741 46.6598 83.8672C46.8471 83.9023 47.0284 83.9608 47.2039 84.031C47.3853 84.107 47.555 84.1948 47.7129 84.3001C47.8709 84.4054 48.023 84.5283 48.1576 84.6628C48.2921 84.7974 48.415 84.9495 48.5203 85.1075C48.6256 85.2713 48.7134 85.4409 48.7894 85.6165C48.8596 85.792 48.9181 85.9733 48.9532 86.1605C48.9942 86.3536 49.0117 86.5408 49.0117 86.7339C49.0117 86.927 48.9942 87.1142 48.9532 87.3072C48.9181 87.4945 48.8596 87.6758 48.7894 87.8513C48.7134 88.0268 48.6256 88.1965 48.5203 88.3545C48.415 88.5183 48.2921 88.6645 48.1576 88.805C48.023 88.9395 47.8709 89.0624 47.7129 89.1677C47.555 89.273 47.3853 89.3607 47.2039 89.4368C47.0284 89.507 46.8471 89.5655 46.6598 89.6006C46.4726 89.641 46.2796 89.6591 46.0865 89.6591Z" fill="white"/>
<path d="M49.0117 158.695C48.8244 158.695 48.6314 158.677 48.4383 158.636C48.2569 158.601 48.0697 158.543 47.8942 158.472C47.7187 158.396 47.549 158.309 47.3911 158.203C47.2273 158.092 47.081 157.975 46.9464 157.841C46.4024 157.291 46.0864 156.542 46.0864 155.769C46.0864 155.576 46.104 155.389 46.1449 155.196C46.18 155.009 46.2385 154.828 46.3146 154.652C46.3848 154.477 46.4726 154.307 46.5779 154.143C46.689 153.985 46.8119 153.839 46.9464 153.698C47.081 153.564 47.2273 153.441 47.3911 153.336C47.549 153.23 47.7187 153.143 47.8942 153.067C48.0697 152.996 48.2569 152.938 48.4383 152.903C48.8186 152.827 49.2047 152.827 49.585 152.903C49.7722 152.938 49.9536 152.996 50.1291 153.067C50.3105 153.143 50.4801 153.23 50.6381 153.336C50.7961 153.441 50.9482 153.564 51.0827 153.698C51.2173 153.839 51.3401 153.985 51.4455 154.143C51.5508 154.307 51.6385 154.477 51.7146 154.652C51.7848 154.828 51.8433 155.009 51.8784 155.196C51.9193 155.389 51.9369 155.576 51.9369 155.769C51.9369 155.963 51.9193 156.156 51.8784 156.343C51.8433 156.53 51.7848 156.711 51.7146 156.887C51.6385 157.062 51.5508 157.238 51.4455 157.396C51.3401 157.554 51.2173 157.706 51.0827 157.841C50.5386 158.384 49.7839 158.695 49.0117 158.695Z" fill="white"/>
<path d="M150.81 56.3114C150.623 56.3114 150.43 56.2939 150.237 56.2529C150.049 56.2178 149.868 56.1593 149.693 56.0891C149.517 56.013 149.347 55.9253 149.184 55.82C149.025 55.7147 148.873 55.5918 148.739 55.4572C148.604 55.3168 148.487 55.1706 148.376 55.0126C148.27 54.8488 148.183 54.6791 148.107 54.5036C148.037 54.3281 147.978 54.1467 147.943 53.9595C147.902 53.7665 147.885 53.5792 147.885 53.3862C147.885 52.6139 148.194 51.8651 148.739 51.3151C148.873 51.1805 149.025 51.0577 149.184 50.9524C149.347 50.8471 149.517 50.7593 149.693 50.6833C149.868 50.613 150.055 50.5545 150.237 50.5194C151.19 50.3264 152.197 50.6365 152.882 51.3151C153.426 51.8651 153.736 52.6139 153.736 53.3862C153.736 53.5792 153.718 53.7665 153.677 53.9595C153.642 54.1467 153.583 54.3281 153.513 54.5036C153.437 54.6791 153.35 54.8488 153.244 55.0126C153.139 55.1706 153.016 55.3168 152.882 55.4572C152.337 56.0007 151.582 56.3114 150.81 56.3114Z" fill="white"/>
<path d="M118.632 37.5899C118.445 37.5899 118.252 37.5724 118.059 37.5314C117.872 37.4963 117.69 37.4378 117.515 37.3676C117.339 37.2915 117.17 37.2038 117.006 37.0985C116.847 36.9873 116.701 36.8703 116.561 36.7357C116.017 36.1917 115.707 35.4369 115.707 34.6647C115.707 33.8924 116.017 33.1377 116.561 32.5995C116.701 32.4591 116.847 32.342 117.006 32.2309C117.17 32.1256 117.339 32.0378 117.515 31.9618C117.69 31.8916 117.871 31.8331 118.059 31.7979C118.439 31.7219 118.825 31.7219 119.206 31.7979C119.393 31.8331 119.574 31.8916 119.75 31.9618C119.926 32.0378 120.095 32.1256 120.259 32.2309C120.417 32.342 120.569 32.4591 120.704 32.5995C121.248 33.1377 121.558 33.8924 121.558 34.6647C121.558 35.4369 121.248 36.1917 120.704 36.7357C120.569 36.8703 120.417 36.9873 120.259 37.0985C120.095 37.2038 119.926 37.2915 119.75 37.3676C119.574 37.4378 119.393 37.4963 119.206 37.5314C119.018 37.5718 118.825 37.5899 118.632 37.5899Z" fill="white"/>
<path d="M168.361 87.3189C168.174 87.3189 167.981 87.3014 167.788 87.2604C167.601 87.2253 167.419 87.1668 167.244 87.0966C167.068 87.0206 166.899 86.9328 166.741 86.8275C166.577 86.7222 166.431 86.5993 166.296 86.4648C165.746 85.9148 165.436 85.166 165.436 84.3937C165.436 83.6214 165.746 82.8667 166.296 82.3226C166.43 82.1881 166.576 82.0652 166.741 81.9599C166.899 81.8546 167.069 81.7668 167.244 81.6908C167.419 81.6206 167.6 81.5621 167.788 81.527C168.168 81.4509 168.554 81.4509 168.935 81.527C169.122 81.5621 169.303 81.6206 169.479 81.6908C169.655 81.7668 169.83 81.8546 169.988 81.9599C170.146 82.0652 170.298 82.1881 170.433 82.3226C170.977 82.8667 171.287 83.6214 171.287 84.3937C171.287 85.166 170.977 85.9148 170.433 86.4648C170.298 86.5993 170.146 86.7222 169.988 86.8275C169.83 86.9328 169.655 87.0206 169.479 87.0966C169.303 87.1668 169.122 87.2253 168.935 87.2604C168.747 87.3008 168.554 87.3189 168.361 87.3189Z" fill="white"/>
<path d="M91.7202 184.437C91.5329 184.437 91.3399 184.419 91.1468 184.378C90.9655 184.343 90.7782 184.285 90.6027 184.214C90.4272 184.138 90.2575 184.051 90.0996 183.945C89.9358 183.84 89.7895 183.717 89.6549 183.583C89.5204 183.442 89.3975 183.296 89.2864 183.138C89.1811 182.974 89.0933 182.804 89.0172 182.629C88.947 182.453 88.8885 182.272 88.8534 182.085C88.8125 181.892 88.7949 181.705 88.7949 181.512C88.7949 180.739 89.1108 179.985 89.6549 179.44C89.7895 179.306 89.9358 179.183 90.0996 179.078C90.2575 178.972 90.4272 178.885 90.6027 178.809C90.7782 178.738 90.9655 178.68 91.1468 178.645C91.5271 178.569 91.9132 178.569 92.2935 178.645C92.4807 178.68 92.6621 178.738 92.8376 178.809C93.019 178.885 93.1886 178.972 93.3466 179.078C93.5046 179.183 93.6567 179.306 93.7912 179.44C94.3353 179.985 94.6454 180.739 94.6454 181.512C94.6454 181.705 94.6278 181.892 94.5869 182.085C94.5518 182.272 94.4933 182.453 94.4231 182.629C94.347 182.804 94.2593 182.974 94.154 183.138C94.0487 183.296 93.9258 183.442 93.7912 183.583C93.6567 183.717 93.5046 183.84 93.3466 183.945C93.1886 184.051 93.019 184.138 92.8376 184.214C92.6621 184.285 92.4807 184.343 92.2935 184.378C92.1063 184.419 91.9132 184.437 91.7202 184.437Z" fill="white"/>
</g>
<defs>
<clipPath id="clip0_11_377">
<rect width="220" height="220" fill="white"/>
</clipPath>
</defs>
</svg>
