<svg width="220" height="220" viewBox="0 0 220 220" fill="none" xmlns="http://www.w3.org/2000/svg">
<g clip-path="url(#clip0_11_1137)">
<path d="M104.885 141.923C91.4593 179.758 191.71 153.237 191.624 180.533C207.405 162.28 216.949 138.487 216.949 112.466C216.949 81.3013 203.256 53.3278 181.555 34.2455H181.549C181.549 34.2455 114.649 36.3509 114.649 65.6425C114.649 94.9341 203.744 71.7449 196.421 101.036C189.098 130.328 118.31 104.088 104.885 141.923Z" fill="#20CE55"/>
<path d="M60.9473 165.722C75.5931 110.8 18.2304 115.682 19.4509 95.5443C20.6714 75.4063 62.1678 96.1545 66.4395 71.7449C70.7112 47.3352 37.9107 40.1466 37.9107 40.1466L37.9046 40.1405C19.817 58.8688 8.68622 84.3708 8.68622 112.466C8.68622 144.15 22.8377 172.526 45.1665 191.627C52.4405 184.883 58.0975 176.401 60.9473 165.722Z" fill="#20CE55"/>
<path d="M73.4389 16.0359C59.9465 21.5525 47.8698 29.8213 37.9046 40.1405L37.9107 40.1466C37.9107 40.1466 70.7111 47.3352 66.4395 71.7449C62.1678 96.1545 20.6713 75.4063 19.4509 95.5443C18.2304 115.682 75.5931 110.8 60.9473 165.722C58.0975 176.401 52.4405 184.884 45.1664 191.627C54.7838 199.859 65.9269 206.37 78.1073 210.672V210.666C114.801 184.817 149.335 210.007 149.335 210.007V210.013C165.817 203.844 180.323 193.61 191.624 180.533C191.71 153.237 91.4594 179.758 104.885 141.923C118.31 104.088 189.098 130.328 196.421 101.036C203.744 71.7449 114.649 94.9341 114.649 65.6425C114.649 36.3509 181.549 34.2455 181.549 34.2455C173.055 26.7701 163.327 20.6555 152.715 16.2556V16.2617C152.715 16.2617 119.506 39.6767 73.445 16.0481L73.4389 16.0359Z" fill="#1AA5E2"/>
<path d="M191.625 183.584C191.622 183.584 191.618 183.584 191.615 183.584C189.93 183.578 188.568 182.208 188.574 180.523C188.604 170.941 168.553 169.75 149.162 168.598C146.651 168.449 144.133 168.299 141.639 168.131C139.958 168.017 138.687 166.562 138.801 164.881C138.914 163.2 140.363 161.931 142.05 162.042C144.527 162.209 147.029 162.357 149.524 162.506C160.626 163.165 171.113 163.788 179.294 165.889C189.523 168.515 194.698 173.445 194.676 180.541C194.67 182.224 193.306 183.584 191.625 183.584Z" fill="#333333"/>
<path d="M132.707 167.389C132.604 167.389 132.5 167.383 132.395 167.373C130.483 167.178 128.745 166.972 127.081 166.741C125.412 166.51 124.246 164.969 124.478 163.3C124.709 161.631 126.247 160.465 127.919 160.697C129.508 160.917 131.175 161.115 133.013 161.302C134.69 161.473 135.911 162.97 135.74 164.646C135.579 166.218 134.254 167.389 132.707 167.389Z" fill="#333333"/>
<path d="M115.344 164.112C115.018 164.112 114.688 164.06 114.362 163.949C108.044 161.804 103.994 158.741 101.981 154.586C100.132 150.77 100.141 146.166 102.009 140.902C109.791 118.971 134.559 116.812 156.411 114.907C160.26 114.571 163.896 114.254 167.423 113.839C169.096 113.643 170.613 114.839 170.81 116.513C171.007 118.187 169.81 119.703 168.136 119.9C164.517 120.326 160.837 120.646 156.941 120.986C135.942 122.817 114.229 124.71 107.76 142.943C106.44 146.662 106.346 149.6 107.472 151.925C108.736 154.534 111.632 156.578 116.324 158.171C117.92 158.713 118.774 160.446 118.232 162.041C117.801 163.312 116.615 164.112 115.344 164.112Z" fill="#333333"/>
<path d="M186.407 115.497C185.263 115.497 184.165 114.85 183.645 113.746C182.926 112.222 183.579 110.404 185.103 109.685C189.752 107.493 192.407 104.51 193.461 100.296C194.283 97.0058 193.439 95.3289 192.731 94.3537C188.53 88.5583 172.193 87.3915 157.78 86.3626C147.061 85.5974 135.978 84.8059 127.484 82.3063C116.942 79.2039 111.597 73.5976 111.597 65.6425C111.597 33.761 178.6 31.2853 181.453 31.1956L181.549 31.1943C183.234 31.1943 184.603 32.5607 184.603 34.2455C184.603 35.9091 183.275 37.2614 181.62 37.2961C180.88 37.3224 164.682 37.9412 148.757 41.9401C134.589 45.4984 117.698 52.4985 117.698 65.6425C117.698 77.3823 138.295 78.853 158.214 80.2754C175.487 81.5087 191.801 82.6743 197.672 90.7722C199.872 93.8076 200.447 97.5099 199.38 101.776C197.89 107.736 193.962 112.253 187.705 115.204C187.286 115.403 186.843 115.497 186.407 115.497Z" fill="#333333"/>
<path d="M45.167 194.678C44.3475 194.678 43.5298 194.35 42.9287 193.701C41.7832 192.465 41.8565 190.535 43.0922 189.389C50.4816 182.539 55.4972 174.311 57.9992 164.935C63.1454 145.637 59.8537 132.654 47.3255 122.84C45.9988 121.801 45.7657 119.883 46.8049 118.556C47.8442 117.229 49.7622 116.997 51.0888 118.035C65.6113 129.412 69.6804 144.815 63.8953 166.508C61.0919 177.015 55.488 186.219 47.2406 193.864C46.6536 194.409 45.9091 194.678 45.167 194.678Z" fill="#333333"/>
<path d="M38.9396 116.847C38.4331 116.847 37.9205 116.72 37.4475 116.455C36.1898 115.748 34.9431 115.068 33.7245 114.403C24.5287 109.386 15.8426 104.647 16.4052 95.36C16.7451 89.7531 19.6816 85.9537 25.1341 84.0669C29.385 82.5956 34.6099 82.4272 40.1418 82.2484C53.5085 81.8169 61.7461 80.8595 63.4335 71.2189C64.9639 62.4723 61.2073 55.1469 52.2673 49.4479C45.1451 44.9077 37.3322 43.1441 37.2541 43.1264C35.6101 42.7627 34.5703 41.1352 34.9321 39.4906C35.294 37.846 36.9209 36.8055 38.5637 37.1662C38.9201 37.2443 47.3804 39.1366 55.4076 44.2132C66.5683 51.2713 71.4221 60.9735 69.4449 72.2709C66.7806 87.4946 52.1196 87.9675 40.3389 88.3477C28.2207 88.7389 22.8707 89.5548 22.4966 95.7292C22.1842 100.885 27.6703 104.149 36.6475 109.047C37.8881 109.723 39.1568 110.416 40.4371 111.135C41.906 111.96 42.4283 113.82 41.6027 115.289C41.0425 116.286 40.0069 116.847 38.9396 116.847Z" fill="#333333"/>
<path opacity="0.25" d="M51.4397 112.466C51.4397 101.573 53.1222 91.0737 56.2259 81.2049C58.9604 82.0427 61.8627 82.4961 64.8718 82.4961C81.1518 82.4961 94.3495 69.2984 94.3495 53.0184C94.3495 45.7083 91.6827 39.025 87.2768 33.8733C100.434 22.4313 116.485 14.2308 134.195 10.5377C127.293 9.09139 120.147 8.33469 112.818 8.33469C95.8464 8.33469 79.8239 12.3977 65.6675 19.6004C64.2243 19.3831 62.7475 19.269 61.2445 19.269C45.5405 19.269 32.7096 31.5501 31.8205 47.0313C17.3559 64.9132 8.68683 87.6765 8.68683 112.467C8.68683 169.976 55.3093 216.599 112.818 216.599C120.147 216.599 127.293 215.842 134.195 214.396C86.9375 204.54 51.4397 162.646 51.4397 112.466Z" fill="black"/>
<path d="M78.1103 213.718C77.1516 213.718 76.2076 213.267 75.6132 212.424C74.6429 211.046 74.9725 209.143 76.3504 208.172C96.3303 194.097 115.704 194.727 128.437 197.734C130.077 198.121 131.093 199.764 130.705 201.404C130.318 203.044 128.672 204.059 127.035 203.672C110.285 199.717 94.4154 202.91 79.8642 213.161C79.3308 213.537 78.7175 213.718 78.1103 213.718Z" fill="#333333"/>
<path d="M149.332 213.059C148.709 213.059 148.081 212.869 147.539 212.474C147.453 212.411 142.887 209.143 135.53 206.306C133.957 205.7 133.174 203.934 133.781 202.361C134.387 200.788 136.152 200.005 137.725 200.611C145.92 203.771 150.924 207.389 151.133 207.541C152.494 208.534 152.793 210.443 151.8 211.804C151.202 212.625 150.273 213.059 149.332 213.059Z" fill="#333333"/>
<path d="M114.797 29.6321C102.883 29.6321 88.2398 27.0673 72.0525 18.7631L74.8376 13.3338C93.1992 22.7535 111.572 25.6979 129.445 22.0871C142.809 19.3868 150.882 13.8208 150.962 13.7646L154.473 18.7558C154.113 19.0096 145.484 25.0101 130.969 28.0046C126.424 28.9419 120.977 29.6321 114.797 29.6321Z" fill="#333333"/>
<path d="M112.818 219.649C100.559 219.649 88.5382 217.597 77.0906 213.549C64.6582 209.158 53.2497 202.562 43.1826 193.945C19.3209 173.533 5.63501 143.835 5.63501 112.466C5.63501 84.5404 16.3155 58.1023 35.7095 38.0211C46.1453 27.215 58.4508 18.8681 72.2844 13.2117C85.1678 7.95085 98.8049 5.28349 112.818 5.28349C127.049 5.28349 140.866 8.02713 153.886 13.4381C164.723 17.9313 174.709 24.1613 183.565 31.9553L179.534 36.5364C171.181 29.1866 161.765 23.3112 151.547 19.0743C139.271 13.9727 126.241 11.3859 112.818 11.3859C99.6 11.3859 86.7392 13.9007 74.5923 18.8607C61.5484 24.1943 49.9428 32.067 40.099 42.2598C21.8095 61.1975 11.7368 86.1307 11.7368 112.466C11.7368 142.049 24.644 170.057 47.1491 189.308C56.6439 197.435 67.4012 203.655 79.1227 207.795C89.9167 211.612 101.253 213.547 112.817 213.547C125.026 213.547 136.952 211.397 148.263 207.156C164.045 201.249 178.24 191.353 189.315 178.538C205.168 160.202 213.898 136.738 213.898 112.466C213.898 83.4127 201.375 55.7376 179.54 36.537L183.57 31.9541C206.722 52.313 220 81.6589 220 112.466C220 138.203 210.742 163.085 193.932 182.528C182.19 196.115 167.138 206.607 150.403 212.871C138.407 217.369 125.76 219.649 112.818 219.649Z" fill="#333333"/>
<path d="M32.5289 62.3581C48.809 62.3581 62.0066 49.1605 62.0066 32.8804C62.0066 16.6003 48.809 3.40271 32.5289 3.40271C16.2488 3.40271 3.05121 16.6003 3.05121 32.8804C3.05121 49.1605 16.2488 62.3581 32.5289 62.3581Z" fill="#FCBC1D"/>
<path opacity="0.25" d="M3.05121 32.8786C3.05121 49.1598 16.2446 62.3594 32.5259 62.3594C35.0523 62.3594 37.5115 62.042 39.8488 61.444C27.113 58.1853 17.697 46.6334 17.697 32.8786C17.697 19.1237 27.113 7.57798 39.8488 4.31929C37.5115 3.72125 35.0523 3.40392 32.5259 3.40392C16.2446 3.40392 3.05121 16.5973 3.05121 32.8786Z" fill="black"/>
<path opacity="0.47" d="M29.2147 42.7584C29.2147 46.4565 32.1072 49.4772 35.7503 49.6846C34.7129 48.4764 34.0966 46.908 34.0966 45.1994C34.0966 41.3671 37.2027 38.2609 41.035 38.2609C41.1693 38.2609 41.3035 38.267 41.4378 38.2731C40.1746 36.7719 38.2767 35.82 36.1531 35.82C32.3208 35.82 29.2147 38.9261 29.2147 42.7584Z" fill="black"/>
<path d="M36.1519 52.7487C30.6445 52.7487 26.1635 48.2677 26.1635 42.7602C26.1635 37.2528 30.6438 32.7718 36.1519 32.7718C41.6599 32.7718 46.1403 37.2528 46.1403 42.7602C46.1403 44.4451 44.774 45.8114 43.0891 45.8114C41.4042 45.8114 40.0379 44.4451 40.0379 42.7602C40.0379 40.6177 38.2944 38.8742 36.1519 38.8742C34.0093 38.8742 32.2659 40.6177 32.2659 42.7602C32.2659 44.9028 34.0087 46.6462 36.1519 46.6462C37.8368 46.6462 39.2031 48.0126 39.2031 49.6975C39.2031 51.3823 37.8368 52.7487 36.1519 52.7487Z" fill="#333333"/>
<path d="M31.5128 30.2472C31.3114 30.2472 31.1162 30.2289 30.9148 30.1862C30.7195 30.1496 30.5303 30.0886 30.3473 30.0153C30.1642 29.936 29.9872 29.8445 29.8163 29.7346C29.6516 29.6248 29.499 29.4966 29.3526 29.3563C28.785 28.7888 28.4616 28.0015 28.4616 27.196C28.4616 27.0008 28.4799 26.7994 28.5226 26.6041C28.5592 26.4088 28.6203 26.2135 28.6935 26.0305C28.7728 25.8474 28.8644 25.6704 28.9742 25.5057C29.0841 25.3348 29.2122 25.1822 29.3526 25.0419C29.499 24.9015 29.6516 24.7734 29.8163 24.6574C29.9872 24.5476 30.1642 24.456 30.3473 24.3828C30.5303 24.3035 30.7195 24.2425 30.9148 24.2058C31.9095 24.0045 32.9591 24.3279 33.6731 25.0419C33.8134 25.1822 33.9355 25.3348 34.0514 25.5057C34.1613 25.6704 34.2528 25.8474 34.3321 26.0305C34.4054 26.2135 34.4664 26.4088 34.503 26.6041C34.5457 26.7994 34.564 27.0008 34.564 27.196C34.564 28.0015 34.2406 28.7888 33.6731 29.3563C33.0994 29.9238 32.3183 30.2472 31.5128 30.2472Z" fill="#333333"/>
<path d="M29.8224 17.4322C29.023 17.4322 28.2358 17.1087 27.6683 16.5412C27.5279 16.4009 27.3998 16.2422 27.2899 16.0774C27.1801 15.9127 27.0825 15.7357 27.0092 15.5526C26.9299 15.3634 26.875 15.1743 26.8323 14.979C26.7957 14.7837 26.7712 14.5823 26.7712 14.381C26.7712 14.1857 26.7957 13.9843 26.8323 13.789C26.875 13.5937 26.9299 13.3985 27.0092 13.2154C27.0825 13.0323 27.1801 12.8554 27.2899 12.6906C27.3998 12.5197 27.5279 12.3672 27.6683 12.2268C27.8087 12.0864 27.9612 11.9583 28.1321 11.8485C28.2968 11.7386 28.4738 11.641 28.6569 11.5677C28.84 11.4884 29.0352 11.4335 29.2305 11.3908C29.6211 11.3114 30.0299 11.3114 30.4205 11.3908C30.6158 11.4335 30.8049 11.4884 30.9941 11.5677C31.1772 11.641 31.3542 11.7386 31.5189 11.8485C31.6837 11.9583 31.8423 12.0864 31.9827 12.2268C32.1231 12.3672 32.2512 12.5197 32.3611 12.6906C32.4709 12.8554 32.5685 13.0323 32.6418 13.2154C32.7211 13.3985 32.776 13.5937 32.8187 13.789C32.8553 13.9843 32.8737 14.1857 32.8737 14.381C32.8737 15.1865 32.5502 15.9737 31.9827 16.5412C31.4152 17.1087 30.628 17.4322 29.8224 17.4322Z" fill="#333333"/>
<path d="M18.8381 26.5858C18.0387 26.5858 17.2515 26.2624 16.684 25.6948C16.1165 25.1273 15.7869 24.3401 15.7869 23.5346C15.7869 22.7352 16.1165 21.9479 16.684 21.3804C17.2515 20.8129 18.0387 20.4834 18.8381 20.4834C19.6437 20.4834 20.4309 20.8129 20.9984 21.3804C21.5659 21.9479 21.8893 22.7352 21.8893 23.5346C21.8893 24.3401 21.5659 25.1273 20.9984 25.6948C20.4309 26.2624 19.6437 26.5858 18.8381 26.5858Z" fill="#333333"/>
<path d="M161.476 37.5549C160.923 37.5549 160.363 37.4041 159.86 37.0893C156.257 34.8326 152.465 32.8212 148.587 31.1095C147.046 30.4291 146.348 28.6277 147.028 27.0862C147.708 25.5447 149.509 24.8466 151.051 25.527C155.196 27.3565 159.249 29.5064 163.099 31.9181C164.527 32.8127 164.959 34.6953 164.065 36.1239C163.486 37.0472 162.492 37.5549 161.476 37.5549Z" fill="white"/>
<path d="M175.571 182.635C174.757 182.635 173.944 182.31 173.343 181.668C172.192 180.437 172.256 178.507 173.486 177.356C191.412 160.585 201.693 136.933 201.693 112.466C201.693 87.8595 191.826 64.9553 173.908 47.9735C172.685 46.8141 172.633 44.8833 173.792 43.6597C174.952 42.4362 176.883 42.3849 178.106 43.5438C197.251 61.6893 207.796 86.1661 207.796 112.466C207.796 138.616 196.81 163.891 177.655 181.811C177.067 182.363 176.318 182.635 175.571 182.635Z" fill="white"/>
<path d="M162.737 192.681C161.738 192.681 160.76 192.191 160.175 191.291C159.258 189.877 159.659 187.987 161.073 187.07C162.627 186.061 164.172 184.988 165.665 183.88C167.018 182.877 168.929 183.159 169.933 184.513C170.938 185.866 170.655 187.777 169.301 188.781C167.707 189.965 166.056 191.111 164.395 192.188C163.883 192.521 163.307 192.681 162.737 192.681Z" fill="white"/>
<path d="M47.3322 50.7343C46.5511 50.7343 45.7706 50.4365 45.1744 49.8403C43.9826 48.6485 43.9826 46.717 45.1744 45.5252C49.3753 41.3243 51.2073 35.3183 50.0753 29.4582C49.7555 27.8038 50.8381 26.2032 52.4924 25.8834C54.1438 25.5618 55.7469 26.6456 56.0666 28.3006C57.5837 36.1525 55.125 44.2047 49.4894 49.8403C48.8939 50.4365 48.1127 50.7343 47.3322 50.7343Z" fill="white"/>
<path d="M47.3303 21.1302C47.135 21.1302 46.9336 21.1058 46.7383 21.0692C46.543 21.0326 46.3478 20.9716 46.1647 20.8922C45.9816 20.819 45.8047 20.7214 45.6399 20.6115C45.469 20.5017 45.3165 20.3735 45.1761 20.2332C44.6086 19.6656 44.2791 18.8845 44.2791 18.079C44.2791 17.8776 44.2974 17.6763 44.3401 17.481C44.3767 17.2857 44.4377 17.0965 44.517 16.9135C44.5903 16.7243 44.6818 16.5473 44.7978 16.3825C44.9076 16.2178 45.0358 16.0591 45.1761 15.9188C45.3165 15.7784 45.469 15.6503 45.6399 15.5404C45.8047 15.4306 45.9816 15.339 46.1647 15.2597C46.3478 15.1865 46.543 15.1254 46.7383 15.0888C47.1289 15.0095 47.5316 15.0095 47.9283 15.0888C48.1236 15.1254 48.3127 15.1865 48.4958 15.2597C48.685 15.339 48.862 15.4306 49.0267 15.5404C49.1915 15.6503 49.3502 15.7784 49.4905 15.9188C49.6309 16.0591 49.759 16.2178 49.8689 16.3825C49.9787 16.5473 50.0702 16.7243 50.1496 16.9135C50.2228 17.0965 50.2838 17.2857 50.3204 17.481C50.3632 17.6763 50.3815 17.8776 50.3815 18.079C50.3815 18.8845 50.058 19.6656 49.4905 20.2332C49.3502 20.3735 49.1915 20.5017 49.0267 20.6115C48.862 20.7214 48.685 20.819 48.4958 20.8922C48.3127 20.9716 48.1236 21.0326 47.9283 21.0692C47.733 21.1058 47.5316 21.1302 47.3303 21.1302Z" fill="white"/>
<path d="M32.5289 65.4093C14.5927 65.4093 0 50.8172 0 32.8804C0 14.9436 14.5927 0.351501 32.5289 0.351501C50.4651 0.351501 65.0578 14.9442 65.0578 32.8804C65.0578 50.8166 50.4657 65.4093 32.5289 65.4093ZM32.5289 6.45392C17.9576 6.45392 6.10241 18.3085 6.10241 32.8804C6.10241 47.4524 17.9576 59.3069 32.5289 59.3069C47.1003 59.3069 58.9554 47.4524 58.9554 32.8804C58.9554 18.3085 47.1009 6.45392 32.5289 6.45392Z" fill="#333333"/>
</g>
<defs>
<clipPath id="clip0_11_1137">
<rect width="220" height="220" fill="white"/>
</clipPath>
</defs>
</svg>
