<svg width="50" height="50" viewBox="0 0 50 50" fill="none" xmlns="http://www.w3.org/2000/svg">
<path fill-rule="evenodd" clip-rule="evenodd" d="M49.5897 25.277C49.5897 27.6453 49.2788 29.9106 48.6569 32.0215C47.4131 36.3462 44.9775 40.1561 41.7645 43.1422C39.4843 45.2531 36.7377 46.9521 33.7838 48.0848C31.089 49.1145 28.1352 49.6808 25.0776 49.6808C24.6631 49.6808 24.1966 49.6808 23.7821 49.6293C23.1602 49.5778 22.4865 49.5263 21.8646 49.4749C17.097 48.857 12.7957 46.9006 9.32359 43.966C8.02802 42.8848 6.83611 41.6492 5.74784 40.3106C4.9705 39.3323 4.24498 38.2512 3.57128 37.1185C3.41582 36.8611 3.26035 36.6037 3.15671 36.2947C3.15671 36.2947 3.15671 36.2947 3.15671 36.2433C3.00124 35.9343 2.84577 35.6769 2.74213 35.368C2.32755 34.4413 1.96479 33.4631 1.65385 32.4848C1.44656 31.7641 1.23928 31.0433 1.08381 30.3225C0.980163 29.8076 0.876517 29.2928 0.824695 28.7265C0.669227 27.5938 0.565582 26.4611 0.565582 25.277C0.565582 24.6077 0.617403 23.9384 0.669226 23.2691C0.721048 22.8572 0.772872 22.4453 0.824695 22.0334C1.13563 19.6136 1.80932 17.3483 2.79394 15.2374C3.26035 14.2077 3.8304 13.178 4.45227 12.1998C5.48872 10.6038 6.68064 9.11071 8.07985 7.82359C12.4848 3.55035 18.548 0.924622 25.1813 0.924622C25.4404 0.924622 25.6995 0.924622 25.9586 0.924622C26.2177 0.924622 26.5287 0.924625 26.7878 0.97611C28.187 1.07908 29.5862 1.28502 30.8818 1.59393C31.6591 1.79987 32.4364 2.00581 33.162 2.26323C33.6802 2.41769 34.1466 2.62362 34.6648 2.82956C35.0276 2.98402 35.3903 3.13847 35.7531 3.29293C35.8049 3.34441 35.8567 3.34441 35.9604 3.3959C38.3442 4.52856 40.5207 6.07311 42.3864 7.92657C42.6455 8.18399 42.9046 8.44142 43.1637 8.69884C43.3192 8.90478 43.5265 9.05924 43.6819 9.26518C43.9929 9.57409 44.252 9.93448 44.5111 10.2434C45.4957 11.479 46.3249 12.8176 47.0504 14.2077C47.8795 15.8552 48.5532 17.6057 49.0196 19.4077C49.3306 21.2611 49.5897 23.2176 49.5897 25.277Z" fill="url(#paint0_radial_65_2806)"/>
<path d="M31.3481 18.9444C31.3481 18.7385 32.0391 18.8586 32.3845 18.9444H33.9392C34.5611 18.9444 33.6801 19.4592 33.1619 19.7166C32.9028 19.8024 32.2809 19.974 31.8663 19.974C31.3481 19.974 31.3481 19.2018 31.3481 18.9444Z" fill="url(#paint1_linear_65_2806)"/>
<path fill-rule="evenodd" clip-rule="evenodd" d="M35.8049 3.34441C35.7012 3.34441 35.6494 3.34441 35.5457 3.39589C35.2866 3.44738 35.0275 3.39589 34.7684 3.34441C34.5611 3.29292 34.4575 3.18995 34.1984 3.18995C33.8874 3.13846 33.6283 3.0355 33.3174 2.98401C33.0064 2.93253 32.7473 2.82956 32.4364 2.72659C32.1773 2.62362 32.0736 2.6751 31.8663 2.72659C31.659 2.77807 31.5036 2.67511 31.2963 2.62362C31.089 2.52065 30.8299 2.52065 30.6226 2.46916C30.0007 2.36619 29.3789 2.16026 28.757 2.0058C28.3942 1.90283 28.0315 1.90283 27.6169 1.90283C27.306 1.90283 27.0468 2.0058 26.7359 2.0058C26.5286 2.0058 26.3731 1.95432 26.1659 1.95432C25.9586 1.90283 25.7513 1.95432 25.544 1.95432C25.2331 1.90283 25.0776 1.85135 24.7667 1.95432C24.5075 2.0058 24.3521 2.0058 24.093 2.05728C23.8338 2.05728 23.5229 2.16026 23.2638 2.21174C22.7974 2.31471 22.2792 2.41768 21.8128 2.41768C21.5018 2.41768 21.0872 2.31471 20.8281 2.41768C20.6727 2.46916 20.569 2.67511 20.4136 2.77808C20.1544 3.0355 19.8953 3.24144 19.688 3.49886C19.4808 3.75629 19.2735 4.06519 19.2735 4.42558C19.2735 4.73449 19.4289 5.0949 19.5844 5.35232C19.7399 5.66123 19.7917 5.91865 19.4808 6.12459C19.118 6.38202 18.6516 6.58795 18.237 6.7424C17.9261 6.84537 17.667 6.89687 17.4597 6.69093C17.356 6.63945 17.3042 6.48499 17.2006 6.38202C17.0969 6.33053 16.9414 6.38202 16.8378 6.43351C16.5269 6.53648 16.2159 6.63945 15.905 6.69093C15.6977 6.74242 15.5422 6.84538 15.335 6.84538C15.1277 6.89686 14.9722 6.74241 14.7131 6.79389C14.4021 6.84538 14.0394 6.99983 13.7284 6.99983C13.4693 6.99983 13.1584 6.89686 12.9511 6.79389C12.8475 6.74241 12.7956 6.63945 12.6402 6.69093C12.5365 6.69093 12.3811 6.84539 12.3292 6.94836C12.2256 7.05133 12.2256 7.20577 12.1219 7.30874C12.0183 7.4632 11.9665 7.56617 11.8628 7.72063C11.7074 7.97805 11.5519 8.23548 11.3964 8.4929C11.2928 8.64736 11.1891 8.90477 11.0337 9.05922C10.9819 9.16219 10.8264 9.21369 10.7227 9.26518C10.4636 9.41963 10.2045 9.62557 9.9454 9.78002C9.479 10.1404 9.0126 10.5523 8.5462 10.9127C8.18344 11.1701 7.66521 11.3246 7.25063 11.5305C6.99152 11.6335 6.73241 11.7365 6.47329 11.8394C6.36965 11.8909 6.21418 11.8909 6.16236 11.9939C6.05871 12.0968 6.00689 12.1998 5.95507 12.3543C5.74778 12.6117 5.48867 12.9206 5.3332 13.2295C5.22955 13.4354 5.17773 13.5899 5.07409 13.7958C4.97044 14.0533 4.81497 14.3107 4.76315 14.6196C4.55586 15.1859 4.55586 15.8038 4.29675 16.3701C4.1931 16.679 3.98581 16.9879 3.83034 17.2968C3.57123 17.8117 3.51941 18.4295 3.46759 18.9958C3.41576 19.3047 3.46759 19.7166 3.51941 20.0255C3.57123 20.3859 3.57123 20.7463 3.57123 21.1067C3.57123 21.4671 3.31212 21.879 3.10483 22.1364C2.89754 22.3938 2.53478 22.4968 2.27567 22.7542C2.06838 22.9601 1.80927 23.1661 1.70562 23.475C1.6538 23.578 1.70562 23.7324 1.70562 23.8869C1.6538 24.1958 1.55015 24.4532 1.55015 24.7621C1.49833 25.1225 1.49833 25.4829 1.49833 25.8948C1.49833 26.1007 1.49833 26.2552 1.49833 26.4611C1.49833 26.6671 1.55016 26.8215 1.60198 26.976C1.60198 27.0789 1.60198 27.2334 1.60198 27.3364C1.60198 27.4908 1.70562 27.6453 1.70562 27.7482C1.80927 28.1086 1.86109 28.4176 1.91291 28.7779C1.96473 29.0869 2.1202 29.3958 2.17202 29.7047C2.32749 30.1165 2.37932 30.5284 2.48296 30.9918C2.53478 31.3007 2.53478 31.6611 2.5866 31.97C2.63843 32.2274 2.69025 32.4848 2.69025 32.7423C2.69025 33.1542 2.5866 33.5146 2.5866 33.9264C2.5866 34.5957 2.84572 35.265 3.00119 35.9343C3.05301 36.1403 3.10483 36.2947 3.15665 36.5007C1.44651 33.2056 0.513702 29.4473 0.513702 25.4829C0.513702 20.6433 1.91291 16.1641 4.34857 12.4057C5.38502 10.8097 6.57694 9.31665 7.97614 8.02953C12.3811 3.75628 18.4443 1.13055 25.0776 1.13055C25.5958 1.13055 26.1659 1.13056 26.6841 1.18204C29.8971 1.13056 33.0064 1.95431 35.8049 3.34441Z" fill="url(#paint2_linear_65_2806)"/>
<path d="M29.7935 21.2612C31.0373 21.4672 32.7301 22.0335 33.4211 22.2909H34.9757C35.4939 22.2909 38.3441 24.3503 38.8624 25.6374C39.3806 26.9246 40.9353 25.6374 42.2308 25.6374C43.5264 25.6374 40.417 30.0137 39.3806 31.0434C38.3441 32.0731 40.1579 34.1325 40.417 34.6473C40.6762 35.1622 39.6397 35.9344 39.3806 37.9938C39.1215 40.0532 38.3441 42.8849 37.8259 44.6869C37.4113 46.1284 35.4075 47.3469 34.4575 47.7759C34.112 47.9476 33.2138 47.9819 32.3846 46.7463C31.348 45.2017 30.8299 42.6275 30.5708 41.5978C30.3117 40.5681 32.6437 35.1622 27.9796 34.6473C23.3156 34.1325 25.9068 38.5087 19.9473 34.1325C13.9877 29.7562 20.7246 21.2612 21.2428 20.489C21.761 19.7167 23.0566 20.489 25.3886 19.7167C27.2542 19.0989 29.1026 19.4593 29.7935 19.7167C29.2753 20.1457 28.5498 21.0553 29.7935 21.2612Z" fill="url(#paint3_linear_65_2806)"/>
<path d="M4.16568 35.6868C4.33542 35.1879 3.52913 33.5386 3.10477 32.7764C3.4584 32.2913 4.33542 31.4459 5.01441 31.9448C5.86314 32.5685 8.40932 31.1133 9.25805 31.3212C10.1068 31.5291 12.0164 31.7369 12.2286 32.3606C12.4408 32.9843 12.4408 34.4395 12.8651 35.0631C13.2046 35.5621 12.8651 36.9341 12.653 37.5578C12.5822 37.7657 12.3135 38.223 11.8042 38.3893C11.1677 38.5972 12.653 38.5972 13.9261 39.013C15.1992 39.4288 14.3504 41.5077 14.7748 42.5471C15.1992 43.5865 17.5332 45.4575 17.9575 45.8733C18.3819 46.2891 17.9575 46.9127 17.5332 46.7048C17.1088 46.4969 12.4408 42.755 10.319 42.3392C8.6215 42.0066 5.5095 38.7358 4.16568 37.142C4.09495 36.8648 3.99593 36.1857 4.16568 35.6868Z" fill="url(#paint4_linear_65_2806)"/>
<path d="M9.84195 15.3404V14.3107V13.0236C9.84195 12.5088 9.32372 12.5088 8.80549 11.7365C8.28727 10.9642 8.80549 11.2216 9.58283 10.9642C10.3602 10.7068 10.1011 11.4791 10.1011 11.7365C10.1011 11.9939 11.1375 12.5088 11.3966 12.5088C11.6557 12.5088 12.6922 12.5088 12.4331 13.0236C12.174 13.5385 12.174 13.7959 11.3966 14.8256C10.7748 15.6493 10.1011 15.5121 9.84195 15.3404Z" fill="url(#paint5_linear_65_2806)"/>
<path d="M9.32341 13.5385C9.53069 13.3326 8.54607 12.5946 8.02784 12.2514C7.94147 12.6804 7.66508 13.6415 7.2505 14.0534C6.73228 14.5682 8.02784 14.5682 8.54607 14.8256C9.06429 15.0831 9.06429 13.796 9.32341 13.5385Z" fill="url(#paint6_linear_65_2806)"/>
<path d="M42.231 34.9045C42.8528 34.9045 43.3538 33.8748 43.5265 33.36C43.7419 32.8451 44.3039 32.8451 44.563 33.1026C44.8221 33.36 44.563 36.1917 43.7856 37.4788C43.0083 38.7659 42.231 38.5085 41.7128 38.5085C41.1947 38.5085 41.7127 37.4788 42.231 36.9639C42.7492 36.4491 41.4536 34.9045 42.231 34.9045Z" fill="url(#paint7_linear_65_2806)"/>
<path fill-rule="evenodd" clip-rule="evenodd" d="M34.9757 19.9736C34.9757 20.7974 34.4574 21.175 34.1983 21.2608L35.7531 22.0333C35.6667 21.7758 35.7531 21.2608 36.7895 21.2608C37.4373 21.2608 38.0203 22.2905 38.6033 23.3202C39.1863 24.3499 39.7693 25.3797 40.4171 25.3797C41.7127 25.3797 44.822 23.5778 45.5994 22.8055C46.2212 22.1877 45.3403 21.1752 44.822 20.7461C44.6493 21.261 43.8374 21.8273 41.9718 19.9736C39.6398 17.6566 40.4171 17.1421 41.9718 18.1717C43.2155 18.9953 44.0447 18.8582 44.3038 18.6866C44.6493 18.515 45.703 18.3776 47.154 19.2015C48.6051 20.0253 48.6224 25.723 48.4496 28.4689C48.9678 26.4095 49.797 21.6728 48.9678 19.2015C46.3767 11.4786 43.2674 8.64708 40.4171 6.07283C38.1369 4.01344 32.3846 1.95412 29.7935 1.18188C29.1025 1.52512 27.6169 2.46901 27.2024 3.4987C26.7154 4.70842 26.4572 4.78107 24.922 5.21297C24.8238 5.2406 24.7203 5.26971 24.6112 5.30068C23.3591 5.65618 23.3418 5.64347 22.9398 5.34744C22.7594 5.21465 22.5016 5.02485 22.0203 4.78571C20.8662 4.21239 19.2835 4.91595 17.9085 5.52715C17.4314 5.73924 16.9793 5.9402 16.5789 6.07283C15.0243 6.58768 13.7286 8.13223 13.7286 8.64708C13.7286 8.82946 13.5985 8.97954 13.4766 9.12021C13.2544 9.37662 13.0593 9.60174 13.7286 9.9342C14.4095 10.2724 14.9784 10.1663 15.5824 10.0537C15.898 9.99483 16.2232 9.9342 16.5789 9.9342C17.6154 9.9342 17.097 10.7065 16.5789 11.2213C16.0607 11.7362 15.0241 11.9936 13.7286 12.251C13.0361 12.3886 12.9359 12.8205 12.7947 13.4285C12.6718 13.958 12.5178 14.6211 11.9148 15.34C11.1697 16.2284 10.9156 16.549 10.8637 16.6272C10.4308 16.6295 9.74512 16.7347 10.36 17.1421L10.3614 17.143C11.1383 17.6577 11.9142 18.1717 10.8783 18.1717C10.4252 18.1717 10.1207 18.5159 9.8349 18.839C9.46679 19.2551 9.12971 19.6362 8.54626 19.2015C7.76892 18.6224 7.28315 19.3463 6.65159 20.2874C6.44107 20.6011 6.21435 20.939 5.95524 21.2608C5.29101 22.0857 5.47816 22.5934 5.69824 23.1905C5.82157 23.5251 5.95524 23.8877 5.95524 24.35C5.95524 25.0163 6.23298 24.9927 6.64468 24.9579C7.02829 24.9254 7.52822 24.883 8.02814 25.3797C8.98655 26.3318 10.8312 25.0828 11.7182 24.4823C11.7904 24.4333 11.8563 24.3887 11.9148 24.35C12.6922 23.8351 13.9877 19.9736 13.7286 19.2015C13.5089 18.5468 15.1521 17.5217 16.1309 16.9112C16.3064 16.8016 16.4606 16.7054 16.5789 16.6271C17.1391 16.256 17.6993 16.6873 18.5505 17.3425C18.8804 17.5965 19.254 17.8841 19.6882 18.1717C20.6414 18.8029 20.6206 18.8537 20.5215 19.0951C20.459 19.2475 20.3653 19.4757 20.4655 19.9736C20.5951 20.6172 20.7247 20.3597 20.9514 19.9093C21.1781 19.4588 21.502 18.8153 22.0203 18.6866C23.0567 18.4292 22.5385 17.3995 20.9838 17.1421C19.4291 16.8847 17.8745 15.34 18.6518 15.34H22.0203C23.3158 15.34 24.093 16.1124 23.5748 16.6271C23.0566 17.1419 25.6477 18.1717 26.4251 18.1717C26.9927 18.1717 26.5932 17.3482 26.1346 16.4027C25.9651 16.0533 25.7875 15.6873 25.6477 15.34C25.2864 14.4426 26.1847 14.7966 26.9374 15.0932C27.2642 15.222 27.5636 15.34 27.7205 15.34C28.2387 15.34 28.4979 15.8549 27.7205 16.6271C26.9432 17.3994 29.7934 18.1717 30.5708 18.1717H33.6801C34.9757 18.1717 34.9757 18.9439 34.9757 19.9736ZM29.0161 15.0826C29.6207 15.1685 30.9335 15.2886 31.3481 15.0826C31.7627 14.8767 33.0755 15.5117 33.6801 15.8549C34.0256 15.9407 34.6647 16.0094 34.4574 15.5975C34.1983 15.0826 32.6437 13.2807 31.6072 13.5381C30.5708 13.7955 28.757 14.8251 29.0161 15.0826Z" fill="url(#paint8_linear_65_2806)"/>
<defs>
<radialGradient id="paint0_radial_65_2806" cx="0" cy="0" r="1" gradientUnits="userSpaceOnUse" gradientTransform="translate(9.84322 13.8422) scale(39.4377 39.1808)">
<stop offset="0.00558659" stop-color="#0CB9C4"/>
<stop offset="0.2058" stop-color="#0C96C1"/>
<stop offset="0.3613" stop-color="#0B79B7"/>
<stop offset="0.5018" stop-color="#096EA7"/>
<stop offset="0.6334" stop-color="#075E8F"/>
<stop offset="0.7576" stop-color="#044A72"/>
<stop offset="0.8715" stop-color="#003C74"/>
</radialGradient>
<linearGradient id="paint1_linear_65_2806" x1="32.7506" y1="18.8307" x2="32.7506" y2="19.974" gradientUnits="userSpaceOnUse">
<stop stop-color="#43991F"/>
<stop offset="1" stop-color="#4BFF00" stop-opacity="0"/>
</linearGradient>
<linearGradient id="paint2_linear_65_2806" x1="0.496601" y1="18.5592" x2="35.8136" y2="18.5592" gradientUnits="userSpaceOnUse">
<stop stop-color="#2CB3FF"/>
<stop offset="0.0885417" stop-color="#2CA6FF"/>
<stop offset="0.2325" stop-color="#2DCAFC"/>
<stop offset="0.3947" stop-color="#32AEF3"/>
<stop offset="0.5382" stop-color="#3A7EE3"/>
<stop offset="0.6707" stop-color="#446ACD"/>
<stop offset="0.7958" stop-color="#4268B1"/>
<stop offset="0.9136" stop-color="#1F598E"/>
<stop offset="1" stop-color="#005D72"/>
</linearGradient>
<linearGradient id="paint3_linear_65_2806" x1="30.0212" y1="19.3755" x2="30.0212" y2="47.863" gradientUnits="userSpaceOnUse">
<stop stop-color="#43991F"/>
<stop offset="1" stop-color="#4BFF00" stop-opacity="0"/>
</linearGradient>
<linearGradient id="paint4_linear_65_2806" x1="10.619" y1="31.3007" x2="10.619" y2="46.7461" gradientUnits="userSpaceOnUse">
<stop stop-color="#43991F"/>
<stop offset="1" stop-color="#4BFF00" stop-opacity="0"/>
</linearGradient>
<linearGradient id="paint5_linear_65_2806" x1="10.5356" y1="10.9124" x2="10.5356" y2="15.4706" gradientUnits="userSpaceOnUse">
<stop stop-color="#43991F"/>
<stop offset="1" stop-color="#4BFF00" stop-opacity="0"/>
</linearGradient>
<linearGradient id="paint6_linear_65_2806" x1="8.24104" y1="12.2514" x2="8.24104" y2="14.8595" gradientUnits="userSpaceOnUse">
<stop stop-color="#43991F"/>
<stop offset="1" stop-color="#4BFF00" stop-opacity="0"/>
</linearGradient>
<linearGradient id="paint7_linear_65_2806" x1="43.0792" y1="32.9335" x2="43.0792" y2="38.5295" gradientUnits="userSpaceOnUse">
<stop stop-color="#43991F"/>
<stop offset="1" stop-color="#4BFF00" stop-opacity="0"/>
</linearGradient>
<linearGradient id="paint8_linear_65_2806" x1="27.4071" y1="1.18188" x2="27.4071" y2="28.4689" gradientUnits="userSpaceOnUse">
<stop stop-color="#43991F"/>
<stop offset="1" stop-color="#4BFF00" stop-opacity="0"/>
</linearGradient>
</defs>
</svg>
