<svg width="70" height="70" viewBox="0 0 70 70" fill="none" xmlns="http://www.w3.org/2000/svg">
<path d="M51.0662 6.06616C51.8428 6.06616 52.4724 6.69576 52.4724 7.47241L52.4724 15.9099C52.4724 16.6866 51.8428 17.3162 51.0662 17.3162L15.9099 17.3162C15.1333 17.3162 14.5037 16.6866 14.5037 15.9099L14.5037 7.47241C14.5037 6.69576 15.1333 6.06616 15.9099 6.06616L51.0662 6.06616Z" fill="#C52229"/>
<path fill-rule="evenodd" clip-rule="evenodd" d="M53.8787 7.47241L53.8787 15.9099C53.8787 17.4632 52.6195 18.7224 51.0662 18.7224L15.9099 18.7224C14.3566 18.7224 13.0974 17.4632 13.0974 15.9099L13.0974 7.47241C13.0974 5.91911 14.3566 4.65991 15.9099 4.65991L51.0662 4.65991C52.6195 4.65991 53.8787 5.91911 53.8787 7.47241ZM52.4724 7.47241C52.4724 6.69576 51.8428 6.06616 51.0662 6.06616L15.9099 6.06616C15.1333 6.06616 14.5037 6.69576 14.5037 7.47241L14.5037 15.9099C14.5037 16.6866 15.1333 17.3162 15.9099 17.3162L51.0662 17.3162C51.8428 17.3162 52.4724 16.6866 52.4724 15.9099L52.4724 7.47241Z" fill="#9B0F15"/>
<path fill-rule="evenodd" clip-rule="evenodd" d="M15.7812 6.76929C15.7812 6.38096 16.096 6.06616 16.4844 6.06616H50.8902C51.2785 6.06616 51.5933 6.38096 51.5933 6.76929C51.5933 7.15761 51.2785 7.47241 50.8902 7.47241H16.4844C16.096 7.47241 15.7812 7.15761 15.7812 6.76929Z" fill="#DF3840"/>
<path fill-rule="evenodd" clip-rule="evenodd" d="M15.5142 10.8562C15.5142 10.4679 15.829 10.1531 16.2173 10.1531H50.6231C51.0114 10.1531 51.3262 10.4679 51.3262 10.8562C51.3262 11.2445 51.0114 11.5593 50.6231 11.5593H16.2173C15.829 11.5593 15.5142 11.2445 15.5142 10.8562Z" fill="#AF1B22"/>
<path fill-rule="evenodd" clip-rule="evenodd" d="M15.5142 8.26343C15.5142 7.8751 15.829 7.5603 16.2173 7.5603H50.6231C51.0114 7.5603 51.3262 7.8751 51.3262 8.26343C51.3262 8.65175 51.0114 8.96655 50.6231 8.96655H16.2173C15.829 8.96655 15.5142 8.65175 15.5142 8.26343Z" fill="#AF1B22"/>
<path fill-rule="evenodd" clip-rule="evenodd" d="M15.5142 13.405C15.5142 13.0167 15.829 12.7019 16.2173 12.7019H50.6231C51.0114 12.7019 51.3262 13.0167 51.3262 13.405C51.3262 13.7934 51.0114 14.1082 50.6231 14.1082H16.2173C15.829 14.1082 15.5142 13.7934 15.5142 13.405Z" fill="#AF1B22"/>
<path fill-rule="evenodd" clip-rule="evenodd" d="M15.7812 15.7341C15.7812 15.3458 16.096 15.031 16.4844 15.031H50.8902C51.2785 15.031 51.5933 15.3458 51.5933 15.7341C51.5933 16.1225 51.2785 16.4373 50.8902 16.4373H16.4844C16.096 16.4373 15.7812 16.1225 15.7812 15.7341Z" fill="#AF1B22"/>
<path d="M16.6838 6.61937C16.1346 6.07019 15.2443 6.07019 14.6951 6.61937L8.72887 12.5856C8.1797 13.1348 8.1797 14.0251 8.72887 14.5743L32.7144 38.5598C33.2635 39.109 34.1539 39.109 34.7031 38.5598L40.6693 32.5936C41.2185 32.0444 41.2185 31.154 40.6693 30.6049L16.6838 6.61937Z" fill="#F1333B"/>
<path fill-rule="evenodd" clip-rule="evenodd" d="M13.7007 5.62497L7.7345 11.5912C6.63615 12.6895 6.63615 14.4703 7.7345 15.5687L31.72 39.5541C32.8183 40.6525 34.5991 40.6525 35.6975 39.5541L41.6637 33.5879C42.762 32.4896 42.762 30.7088 41.6637 29.6105L17.6782 5.62497C16.5798 4.52662 14.7991 4.52662 13.7007 5.62497ZM14.6951 6.61934C15.2443 6.07016 16.1346 6.07016 16.6838 6.61934L40.6693 30.6048C41.2185 31.154 41.2185 32.0444 40.6693 32.5936L34.7031 38.5598C34.1539 39.109 33.2635 39.109 32.7144 38.5598L8.72887 14.5743C8.1797 14.0251 8.1797 13.1347 8.72887 12.5855L14.6951 6.61934Z" fill="#9B0F15"/>
<path d="M50.2926 6.64678C50.8395 6.08471 51.7404 6.07853 52.2949 6.63304L58.2609 12.5991C58.8048 13.1429 58.8108 14.0228 58.2745 14.5741L34.9648 38.5323C34.418 39.0943 33.5171 39.1005 32.9625 38.546L26.9965 32.58C26.4527 32.0361 26.4466 31.1562 26.983 30.605L50.2926 6.64678Z" fill="#F1333B"/>
<path fill-rule="evenodd" clip-rule="evenodd" d="M53.2893 5.63889L59.2553 11.6049C60.343 12.6926 60.3551 14.4524 59.2824 15.5549L35.9728 39.5131C34.8791 40.6372 33.0772 40.6496 31.9682 39.5406L26.0022 33.5746C24.9144 32.4869 24.9024 30.7271 25.9751 29.6246L49.2847 5.66636C50.3784 4.54223 52.1803 4.52987 53.2893 5.63889ZM52.2949 6.63326C51.7404 6.07875 50.8395 6.08493 50.2926 6.64699L26.983 30.6052C26.4466 31.1565 26.4527 32.0363 26.9965 32.5802L32.9625 38.5462C33.5171 39.1007 34.418 39.0946 34.9648 38.5325L58.2745 14.5743C58.8108 14.023 58.8048 13.1431 58.2609 12.5993L52.2949 6.63326Z" fill="#9B0F15"/>
<path fill-rule="evenodd" clip-rule="evenodd" d="M51.429 7.23663C51.7048 7.50997 51.7069 7.95515 51.4335 8.23099L37.0634 22.7329C36.7901 23.0088 36.3449 23.0108 36.0691 22.7375C35.7932 22.4642 35.7912 22.019 36.0645 21.7431L50.4346 7.24117C50.708 6.96534 51.1532 6.9633 51.429 7.23663Z" fill="#FE666D"/>
<path fill-rule="evenodd" clip-rule="evenodd" d="M8.90858 13.1276C9.18316 12.853 9.62836 12.853 9.90295 13.1276L19.0436 22.2682C19.3182 22.5428 19.3182 22.988 19.0436 23.2626C18.769 23.5372 18.3238 23.5372 18.0492 23.2626L8.90858 14.1219C8.63399 13.8474 8.63399 13.4022 8.90858 13.1276Z" fill="#FE666D"/>
<path d="M54.2893 11.2688C54.0078 11.5504 53.5569 11.5559 53.2822 11.2813C53.0076 11.0066 53.0131 10.5557 53.2947 10.2742C53.5762 9.99264 54.0271 9.98707 54.3018 10.2617C54.5764 10.5364 54.5709 10.9873 54.2893 11.2688Z" fill="#DB1B24"/>
<path d="M52.1508 13.0096C51.8006 13.3598 51.2397 13.3667 50.898 13.025C50.5564 12.6834 50.5633 12.1225 50.9135 11.7723C51.2637 11.4221 51.8246 11.4152 52.1662 11.7568C52.5079 12.0985 52.501 12.6594 52.1508 13.0096Z" fill="#DB1B24"/>
<path d="M54.4293 13.5597C54.2542 13.7348 53.9737 13.7383 53.8029 13.5674C53.6321 13.3966 53.6355 13.1162 53.8106 12.9411C53.9857 12.766 54.2662 12.7625 54.437 12.9333C54.6078 13.1042 54.6044 13.3846 54.4293 13.5597Z" fill="#DB1B24"/>
<path d="M49.3641 19.4999C49.189 19.675 48.9085 19.6785 48.7377 19.5076C48.5669 19.3368 48.5703 19.0564 48.7454 18.8813C48.9206 18.7062 49.201 18.7027 49.3718 18.8735C49.5426 19.0444 49.5392 19.3248 49.3641 19.4999Z" fill="#DB1B24"/>
<path d="M51.9068 15.4635C51.7317 15.6386 51.4513 15.6421 51.2804 15.4713C51.1096 15.3004 51.1131 15.02 51.2882 14.8449C51.4633 14.6698 51.7437 14.6663 51.9145 14.8371C52.0854 15.008 52.0819 15.2884 51.9068 15.4635Z" fill="#DB1B24"/>
<path d="M49.3563 21.921C49.1812 22.0961 48.9007 22.0996 48.7299 21.9288C48.5591 21.7579 48.5625 21.4775 48.7376 21.3024C48.9127 21.1273 49.1932 21.1238 49.364 21.2947C49.5348 21.4655 49.5314 21.7459 49.3563 21.921Z" fill="#DB1B24"/>
<path d="M49.9981 14.9291C49.823 15.1042 49.5426 15.1077 49.3717 14.9368C49.2009 14.766 49.2044 14.4856 49.3795 14.3105C49.5546 14.1354 49.835 14.1319 50.0059 14.3027C50.1767 14.4736 50.1732 14.754 49.9981 14.9291Z" fill="#DB1B24"/>
<path d="M51.4249 19.9389C51.2498 20.114 50.9693 20.1174 50.7985 19.9466C50.6277 19.7758 50.6311 19.4953 50.8062 19.3202C50.9813 19.1451 51.2618 19.1417 51.4326 19.3125C51.6034 19.4833 51.6 19.7638 51.4249 19.9389Z" fill="#DB1B24"/>
<path d="M56.5521 12.4498C56.377 12.6249 56.0965 12.6284 55.9257 12.4576C55.7549 12.2867 55.7583 12.0063 55.9334 11.8312C56.1085 11.6561 56.389 11.6526 56.5598 11.8235C56.7306 11.9943 56.7272 12.2747 56.5521 12.4498Z" fill="#DB1B24"/>
<path d="M54.233 16.1239C53.948 16.4088 53.4916 16.4145 53.2136 16.1364C52.9356 15.8584 52.9412 15.402 53.2262 15.1171C53.5112 14.8321 53.9676 14.8265 54.2456 15.1045C54.5236 15.3825 54.518 15.8389 54.233 16.1239Z" fill="#DB1B24"/>
<path d="M56.9496 14.4141C56.6646 14.6991 56.2082 14.7047 55.9302 14.4267C55.6522 14.1487 55.6578 13.6923 55.9428 13.4073C56.2277 13.1224 56.6841 13.1167 56.9621 13.3948C57.2402 13.6728 57.2345 14.1292 56.9496 14.4141Z" fill="#DB1B24"/>
<path d="M51.4464 17.9376C51.1614 18.2225 50.705 18.2282 50.427 17.9502C50.149 17.6721 50.1546 17.2157 50.4396 16.9308C50.7246 16.6458 51.1809 16.6402 51.459 16.9182C51.737 17.1962 51.7314 17.6526 51.4464 17.9376Z" fill="#DB1B24"/>
<path d="M53.4222 18.247C53.2471 18.4221 52.9667 18.4255 52.7958 18.2547C52.625 18.0839 52.6285 17.8034 52.8036 17.6283C52.9787 17.4532 53.2591 17.4498 53.4299 17.6206C53.6008 17.7914 53.5973 18.0719 53.4222 18.247Z" fill="#DB1B24"/>
<path d="M52.7344 42.8906C52.7344 53.3754 44.2348 61.875 33.75 61.875C23.2652 61.875 14.7656 53.3754 14.7656 42.8906C14.7656 32.4058 23.2652 23.9062 33.75 23.9062C44.2348 23.9062 52.7344 32.4058 52.7344 42.8906Z" fill="#FFBB0D"/>
<path fill-rule="evenodd" clip-rule="evenodd" d="M54.1406 42.8906C54.1406 54.1521 45.0114 63.2812 33.75 63.2812C22.4886 63.2812 13.3594 54.1521 13.3594 42.8906C13.3594 31.6292 22.4886 22.5 33.75 22.5C45.0114 22.5 54.1406 31.6292 54.1406 42.8906ZM33.75 61.875C44.2348 61.875 52.7344 53.3754 52.7344 42.8906C52.7344 32.4058 44.2348 23.9062 33.75 23.9062C23.2652 23.9062 14.7656 32.4058 14.7656 42.8906C14.7656 53.3754 23.2652 61.875 33.75 61.875Z" fill="#E89B05"/>
<path fill-rule="evenodd" clip-rule="evenodd" d="M16.1719 43.5937C15.7836 43.5937 15.4688 43.2789 15.4688 42.8906C15.4688 32.7942 23.6535 24.6094 33.75 24.6094C34.1383 24.6094 34.4531 24.9242 34.4531 25.3125C34.4531 25.7008 34.1383 26.0156 33.75 26.0156C24.4302 26.0156 16.875 33.5708 16.875 42.8906C16.875 43.2789 16.5602 43.5937 16.1719 43.5937Z" fill="#E8AA0A"/>
<path fill-rule="evenodd" clip-rule="evenodd" d="M51.3281 42.1875C51.7164 42.1875 52.0312 42.5023 52.0312 42.8906C52.0312 52.9871 43.8465 61.1719 33.75 61.1719C33.3617 61.1719 33.0469 60.8571 33.0469 60.4687C33.0469 60.0804 33.3617 59.7656 33.75 59.7656C43.0698 59.7656 50.625 52.2104 50.625 42.8906C50.625 42.5023 50.9398 42.1875 51.3281 42.1875Z" fill="#E8AA0A"/>
<path d="M47.8125 42.8906C47.8125 50.6571 41.5165 56.9531 33.75 56.9531C25.9835 56.9531 19.6875 50.6571 19.6875 42.8906C19.6875 35.1241 25.9835 28.8281 33.75 28.8281C41.5165 28.8281 47.8125 35.1241 47.8125 42.8906Z" fill="#FFDD28"/>
<path fill-rule="evenodd" clip-rule="evenodd" d="M49.2187 42.8906C49.2187 51.4338 42.2932 58.3594 33.75 58.3594C25.2068 58.3594 18.2812 51.4338 18.2812 42.8906C18.2812 34.3475 25.2068 27.4219 33.75 27.4219C42.2932 27.4219 49.2187 34.3475 49.2187 42.8906ZM33.75 56.9531C41.5165 56.9531 47.8125 50.6571 47.8125 42.8906C47.8125 35.1241 41.5165 28.8281 33.75 28.8281C25.9835 28.8281 19.6875 35.1241 19.6875 42.8906C19.6875 50.6571 25.9835 56.9531 33.75 56.9531Z" fill="#E89B05"/>
<path fill-rule="evenodd" clip-rule="evenodd" d="M33.75 54.8437C40.3515 54.8437 45.7031 49.4922 45.7031 42.8906C45.7031 42.5023 46.0179 42.1875 46.4063 42.1875C46.7946 42.1875 47.1094 42.5023 47.1094 42.8906C47.1094 50.2688 41.1282 56.25 33.75 56.25C33.3617 56.25 33.0469 55.9352 33.0469 55.5469C33.0469 55.1585 33.3617 54.8437 33.75 54.8437Z" fill="#ECC704"/>
<path fill-rule="evenodd" clip-rule="evenodd" d="M33.75 30.9375C27.1485 30.9375 21.7969 36.2891 21.7969 42.8906C21.7969 43.2789 21.4821 43.5937 21.0937 43.5937C20.7054 43.5937 20.3906 43.2789 20.3906 42.8906C20.3906 35.5124 26.3718 29.5312 33.75 29.5312C34.1383 29.5312 34.4531 29.846 34.4531 30.2344C34.4531 30.6227 34.1383 30.9375 33.75 30.9375Z" fill="#FFEF9C"/>
<path d="M28.324 41.148V39.24H31.648V48H29.512V41.148H28.324ZM33.0517 43.5C33.0517 42.124 33.3157 41.04 33.8437 40.248C34.3797 39.456 35.2397 39.06 36.4237 39.06C37.6077 39.06 38.4637 39.456 38.9917 40.248C39.5277 41.04 39.7957 42.124 39.7957 43.5C39.7957 44.892 39.5277 45.984 38.9917 46.776C38.4637 47.568 37.6077 47.964 36.4237 47.964C35.2397 47.964 34.3797 47.568 33.8437 46.776C33.3157 45.984 33.0517 44.892 33.0517 43.5ZM37.7797 43.5C37.7797 42.692 37.6917 42.072 37.5157 41.64C37.3397 41.2 36.9757 40.98 36.4237 40.98C35.8717 40.98 35.5077 41.2 35.3317 41.64C35.1557 42.072 35.0677 42.692 35.0677 43.5C35.0677 44.044 35.0997 44.496 35.1637 44.856C35.2277 45.208 35.3557 45.496 35.5477 45.72C35.7477 45.936 36.0397 46.044 36.4237 46.044C36.8077 46.044 37.0957 45.936 37.2877 45.72C37.4877 45.496 37.6197 45.208 37.6837 44.856C37.7477 44.496 37.7797 44.044 37.7797 43.5Z" fill="#141A1B"/>
</svg>
