<svg width="220" height="220" viewBox="0 0 220 220" fill="none" xmlns="http://www.w3.org/2000/svg">
<g clip-path="url(#clip0_11_1693)">
<path d="M110 217.374C169.301 217.374 217.374 169.301 217.374 110C217.374 50.6987 169.301 2.62579 110 2.62579C50.6988 2.62579 2.62585 50.6987 2.62585 110C2.62585 169.301 50.6988 217.374 110 217.374Z" fill="#53AEF9"/>
<path d="M110 220C49.3454 220 0 170.655 0 110C0 49.3458 49.3454 0.000976562 110 0.000976562C170.654 0.000976562 220 49.3463 220 110.001C220 170.655 170.654 220 110 220ZM110 5.25266C52.2417 5.25266 5.25169 52.2427 5.25169 110C5.25169 167.758 52.2417 214.748 110 214.748C167.758 214.748 214.748 167.758 214.748 110C214.748 52.2421 167.758 5.25266 110 5.25266Z" fill="#333333"/>
<path d="M110 203.615C161.702 203.615 203.615 161.702 203.615 110C203.615 58.2981 161.702 16.3853 110 16.3853C58.2976 16.3853 16.3848 58.2981 16.3848 110C16.3848 161.702 58.2976 203.615 110 203.615Z" fill="#20505B"/>
<path d="M110 206.241C56.9325 206.241 13.7589 163.067 13.7589 110C13.7589 56.933 56.9325 13.7594 110 13.7594C163.067 13.7594 206.241 56.9325 206.241 110C206.241 163.068 163.067 206.241 110 206.241ZM110 19.0111C59.8283 19.0111 19.0106 59.8288 19.0106 110C19.0106 160.172 59.8283 200.989 110 200.989C160.172 200.989 200.989 160.172 200.989 110C200.989 59.8288 160.172 19.0111 110 19.0111Z" fill="#333333"/>
<path d="M165.893 108.959C158.784 89.8873 163.258 94.3623 144.187 87.2531C163.258 80.1439 158.784 84.6178 165.893 65.5468C173.003 84.6178 168.528 80.1434 187.6 87.2531C168.528 94.3623 173.003 89.8879 165.893 108.959Z" fill="#FCBC1D"/>
<path d="M187.599 89.88C187.294 89.88 186.984 89.8264 186.682 89.714C185.114 89.1295 183.561 88.5691 181.793 87.9505C180.425 87.471 179.704 85.9732 180.183 84.6041C180.662 83.2361 182.16 82.5145 183.529 82.9934C185.33 83.6242 186.914 84.1955 188.516 84.7927C189.875 85.2995 190.566 86.8114 190.059 88.1705C189.666 89.2272 188.664 89.88 187.599 89.88Z" fill="#333333"/>
<path d="M165.893 111.585C164.797 111.585 163.816 110.904 163.433 109.877C162.356 106.99 161.537 104.619 160.878 102.713C159.461 98.6151 158.75 96.5585 157.669 95.4772C156.588 94.3959 154.531 93.6848 150.434 92.2684C148.529 91.6099 146.157 90.7901 143.27 89.7135C142.242 89.3307 141.561 88.3496 141.561 87.2531C141.561 86.1565 142.242 85.1755 143.27 84.7927C146.157 83.7166 148.528 82.8968 150.433 82.2382C154.531 80.8213 156.588 80.1103 157.669 79.0289C158.75 77.9476 159.461 75.8911 160.878 71.7932C161.537 69.8879 162.356 67.5162 163.433 64.6293C163.816 63.6021 164.797 62.921 165.893 62.921C166.99 62.921 167.971 63.6021 168.354 64.6293C169.43 67.5162 170.25 69.8879 170.909 71.7932C172.947 77.6903 173.392 78.8341 175.317 79.8944C176.587 80.5945 177.05 82.1915 176.35 83.4614C175.65 84.7307 174.054 85.1939 172.783 84.4938C169.028 82.4252 168.062 79.6308 165.945 73.5089C165.928 73.459 165.911 73.4096 165.893 73.3592C165.876 73.4096 165.859 73.4595 165.841 73.5094C162.488 83.2082 161.848 83.8479 152.149 87.2011C152.099 87.2184 152.05 87.2352 152 87.2531C152.05 87.2704 152.1 87.2877 152.15 87.3051C161.849 90.6583 162.488 91.2979 165.841 100.997C165.858 101.047 165.876 101.096 165.893 101.146C165.911 101.096 165.928 101.046 165.945 100.996C169.299 91.2974 169.938 90.6577 179.637 87.3045C181.516 86.6549 183.854 85.8467 186.682 84.7927C188.04 84.2864 189.553 84.9775 190.06 86.3356C190.566 87.6942 189.875 89.2067 188.517 89.7135C185.63 90.7896 183.259 91.6094 181.353 92.2679C177.255 93.6848 175.199 94.3959 174.118 95.4767C173.037 96.5575 172.326 98.6146 170.909 102.712C170.25 104.617 169.431 106.989 168.355 109.876C167.971 110.904 166.99 111.585 165.893 111.585Z" fill="#333333"/>
<path d="M131.063 188.797C122.696 166.354 127.961 171.62 105.519 163.254C127.961 154.888 122.696 160.153 131.063 137.71C139.429 160.153 134.163 154.887 156.606 163.254C134.164 171.62 139.429 166.355 131.063 188.797Z" fill="#FCBC1D"/>
<path d="M131.063 191.423C129.966 191.423 128.985 190.742 128.602 189.715C127.338 186.323 126.374 183.535 125.599 181.295C123.909 176.405 123.06 173.951 121.713 172.604C120.365 171.256 117.911 170.407 113.022 168.717C110.782 167.943 107.994 166.979 104.601 165.714C103.574 165.332 102.893 164.351 102.893 163.254C102.893 162.157 103.574 161.176 104.601 160.794C107.993 159.529 110.781 158.565 113.02 157.791C117.91 156.101 120.364 155.253 121.712 153.904C123.06 152.557 123.909 150.103 125.599 145.213C126.374 142.973 127.338 140.185 128.602 136.793C128.985 135.766 129.966 135.085 131.063 135.085C132.159 135.085 133.14 135.766 133.523 136.793C134.787 140.184 135.751 142.971 136.525 145.211C137.592 148.296 138.362 150.524 139.123 152.025C139.779 153.319 139.263 154.899 137.97 155.555C136.677 156.211 135.095 155.694 134.44 154.401C133.516 152.579 132.696 150.209 131.562 146.928C131.404 146.471 131.238 145.99 131.063 145.486C130.888 145.991 130.722 146.472 130.564 146.93C126.65 158.25 126.058 158.842 114.737 162.756C114.28 162.914 113.799 163.08 113.295 163.255C113.8 163.43 114.281 163.596 114.739 163.755C126.058 167.669 126.65 168.26 130.564 179.58C130.722 180.038 130.888 180.519 131.063 181.023C131.239 180.518 131.404 180.037 131.563 179.579C135.477 168.26 136.068 167.668 147.388 163.754C147.846 163.596 148.327 163.43 148.832 163.254C148.326 163.079 147.844 162.913 147.386 162.754C145.579 162.129 144.017 161.589 142.711 161.088C141.357 160.569 140.68 159.051 141.199 157.696C141.719 156.342 143.238 155.665 144.591 156.185C145.816 156.654 147.266 157.156 149.103 157.791C151.343 158.565 154.131 159.529 157.524 160.794C158.551 161.177 159.233 162.158 159.233 163.254C159.233 164.351 158.551 165.332 157.524 165.715C154.132 166.979 151.345 167.943 149.105 168.717C144.215 170.408 141.761 171.256 140.413 172.604C139.065 173.951 138.217 176.405 136.527 181.295C135.752 183.535 134.788 186.323 133.524 189.715C133.14 190.742 132.159 191.423 131.063 191.423Z" fill="#333333"/>
<path d="M47.3156 155.152C41.295 139.002 45.0841 142.791 28.9352 136.771C45.0846 130.751 41.2955 134.54 47.3156 118.391C53.3356 134.54 49.547 130.751 65.6959 136.771C49.5465 142.791 53.3356 139.003 47.3156 155.152Z" fill="#FCBC1D"/>
<path d="M47.3156 157.778C46.2191 157.778 45.2381 157.096 44.8552 156.069C43.9425 153.62 43.2472 151.609 42.6889 149.994C41.5467 146.69 40.9175 144.87 40.0673 144.02C39.2175 143.17 37.3973 142.541 34.0935 141.399C32.478 140.84 30.4672 140.145 28.0183 139.232C26.9911 138.849 26.3099 137.868 26.3099 136.772C26.3099 135.675 26.9911 134.694 28.0183 134.311C30.4672 133.399 32.4775 132.703 34.0929 132.145C37.3973 131.002 39.217 130.373 40.0673 129.523C40.9175 128.673 41.5467 126.853 42.6889 123.549C43.2472 121.934 43.9425 119.923 44.8552 117.474C45.2381 116.447 46.2191 115.766 47.3156 115.766C48.4122 115.766 49.3932 116.447 49.7761 117.474C50.6888 119.923 51.3841 121.934 51.9424 123.549C53.0846 126.853 53.7143 128.673 54.564 129.523C55.4143 130.373 57.234 131.002 60.5383 132.145C62.1538 132.703 64.1641 133.398 66.613 134.311C67.6402 134.694 68.3213 135.675 68.3213 136.771C68.3213 137.868 67.6402 138.849 66.613 139.232C64.1641 140.144 62.1538 140.84 60.5383 141.398C57.234 142.54 55.4143 143.169 54.5645 144.019C53.7143 144.869 53.0851 146.689 51.9429 149.993C51.3841 151.609 50.6888 153.619 49.7761 156.069C49.3927 157.096 48.4117 157.778 47.3156 157.778ZM36.7755 136.772C43.9357 139.284 44.8032 140.151 47.3151 147.311C49.827 140.151 50.6946 139.283 57.8547 136.772C50.6941 134.259 49.827 133.392 47.3151 126.232C44.8038 133.391 43.9351 134.26 36.7755 136.772Z" fill="#333333"/>
<path d="M67.01 78.7711C59.9003 59.699 64.3747 64.174 45.3037 57.0648C64.3747 49.9556 59.9003 54.4295 67.01 35.3585C74.1192 54.4295 69.6448 49.9551 88.7163 57.0648C69.6448 64.174 74.1197 59.6996 67.01 78.7711Z" fill="#FCBC1D"/>
<path d="M67.01 81.3964C65.9134 81.3964 64.9324 80.7152 64.5496 79.688C63.4735 76.8012 62.6537 74.43 61.9946 72.5242C60.5777 68.4263 59.8666 66.3697 58.7858 65.2884C57.705 64.2071 55.648 63.496 51.5506 62.0796C49.6453 61.4211 47.2736 60.6013 44.3862 59.5247C43.359 59.1418 42.6779 58.1608 42.6779 57.0643C42.6779 55.9677 43.359 54.9867 44.3862 54.6038C47.2731 53.5278 49.6442 52.708 51.5495 52.0489C55.6474 50.632 57.704 49.9209 58.7853 48.8401C59.8666 47.7593 60.5777 45.7022 61.9946 41.6049C62.6532 39.6996 63.473 37.3279 64.5496 34.441C64.9324 33.4138 65.914 32.7327 67.01 32.7327C68.1065 32.7327 69.0875 33.4138 69.4704 34.441C70.3768 36.8731 71.11 38.9622 71.7071 40.6858C72.1818 42.056 71.4561 43.5522 70.0864 44.0269C68.941 44.4234 67.7111 43.9828 67.0588 43.0296C67.0252 43.1279 66.9916 43.225 66.958 43.3211C63.6048 53.0199 62.9646 53.6596 53.2658 57.0128C53.2164 57.0301 53.1665 57.0469 53.1161 57.0648C53.1665 57.0821 53.2164 57.0994 53.2663 57.1168C62.9651 60.47 63.6048 61.1096 66.958 70.8084C66.9753 70.8583 66.9921 70.9082 67.01 70.9586C67.0273 70.9082 67.0446 70.8583 67.062 70.8084C70.4152 61.1096 71.0554 60.47 80.7542 57.1168C80.8035 57.1 80.8534 57.0826 80.9033 57.0653C80.8534 57.048 80.8041 57.0312 80.7547 57.0138C75.4316 55.1737 72.7595 54.2499 70.7644 51.6997C69.8706 50.5574 70.0722 48.9073 71.2145 48.0135C72.3567 47.1197 74.0068 47.3219 74.9006 48.4636C75.8932 49.7324 77.5102 50.3353 82.471 52.0505C84.3757 52.709 86.7474 53.5288 89.6337 54.6049C90.661 54.9877 91.3421 55.9688 91.3421 57.0653C91.3421 58.1619 90.661 59.1429 89.6337 59.5257C86.7469 60.6018 84.3757 61.4216 82.4704 62.0801C78.3725 63.497 76.316 64.2081 75.2346 65.2889C74.1533 66.3697 73.4422 68.4268 72.0259 72.5242C71.3673 74.4295 70.5475 76.8012 69.4709 79.688C69.0875 80.7147 68.1065 81.3964 67.01 81.3964Z" fill="#333333"/>
<path d="M90.4597 93.5666C89.0097 93.5666 87.8339 92.3908 87.8339 90.9408V73.0331C87.8339 71.5831 89.0097 70.4072 90.4597 70.4072C91.9097 70.4072 93.0855 71.5831 93.0855 73.0331V90.9408C93.0855 92.3908 91.9097 93.5666 90.4597 93.5666Z" fill="#FCBC1D"/>
<path d="M99.4133 84.613H81.5056C80.0556 84.613 78.8798 83.4372 78.8798 81.9872C78.8798 80.5372 80.0556 79.3613 81.5056 79.3613H99.4133C100.863 79.3613 102.039 80.5372 102.039 81.9872C102.039 83.4372 100.863 84.613 99.4133 84.613Z" fill="#FCBC1D"/>
<path d="M146.453 66.2542C145.003 66.2542 143.828 65.0784 143.828 63.6284V52.3724C143.828 50.9224 145.003 49.7466 146.453 49.7466C147.904 49.7466 149.079 50.9224 149.079 52.3724V63.6289C149.079 65.0789 147.903 66.2542 146.453 66.2542Z" fill="#FCBC1D"/>
<path d="M152.081 60.6265H140.825C139.374 60.6265 138.199 59.4507 138.199 58.0007C138.199 56.5507 139.374 55.3748 140.825 55.3748H152.081C153.532 55.3748 154.707 56.5507 154.707 58.0007C154.707 59.4507 153.532 60.6265 152.081 60.6265Z" fill="#FCBC1D"/>
<path d="M137.797 190.959C136.717 190.959 135.706 190.288 135.323 189.213C134.837 187.846 135.55 186.345 136.916 185.858C139.126 185.072 141.327 184.177 143.458 183.199C144.774 182.593 146.335 183.172 146.94 184.49C147.545 185.808 146.967 187.367 145.649 187.972C143.377 189.014 141.032 189.968 138.678 190.806C138.387 190.909 138.089 190.959 137.797 190.959Z" fill="white"/>
<path d="M156.868 181.232C156.031 181.232 155.209 180.833 154.7 180.09C153.88 178.894 154.185 177.26 155.382 176.44C177.363 161.377 190.486 136.54 190.486 110C190.486 89.9713 183.052 70.7633 169.552 55.9131C168.577 54.8402 168.656 53.1791 169.729 52.2038C170.803 51.2281 172.463 51.3079 173.438 52.3803C187.818 68.1989 195.738 88.6616 195.738 110C195.738 138.272 181.761 164.729 158.35 180.771C157.897 181.083 157.379 181.232 156.868 181.232Z" fill="white"/>
<path d="M157.222 44.268C156.706 44.268 156.185 44.1163 155.729 43.8001C151.204 40.6643 146.348 37.9891 141.296 35.848C139.961 35.2824 139.337 33.741 139.903 32.4061C140.468 31.0711 142.01 30.4472 143.345 31.0128C148.728 33.2936 153.901 36.1437 158.72 39.4832C159.912 40.3093 160.209 41.9452 159.383 43.1374C158.872 43.8731 158.054 44.268 157.222 44.268Z" fill="white"/>
</g>
<defs>
<clipPath id="clip0_11_1693">
<rect width="220" height="220" fill="white"/>
</clipPath>
</defs>
</svg>
