<svg width="40" height="50" viewBox="0 0 40 50" fill="none" xmlns="http://www.w3.org/2000/svg">
<path d="M14.2318 2.06702C14.0363 1.71574 13.6842 1.50079 13.3042 1.50079H2.84691C2.00613 1.50079 1.4868 2.48975 1.91938 3.2671L13.6016 24.2599C13.7971 24.6111 14.1492 24.8261 14.5291 24.8261H24.9865C25.8273 24.8261 26.3466 23.8371 25.914 23.0598L14.2318 2.06702Z" fill="#C52229"/>
<path fill-rule="evenodd" clip-rule="evenodd" d="M13.3041 0.334534H2.84681C1.16523 0.334534 0.126564 2.31245 0.99173 3.86714L12.6739 24.8599C13.0649 25.5625 13.7691 25.9923 14.529 25.9923H24.9864C26.6679 25.9923 27.7066 24.0144 26.8414 22.4597L15.1592 1.46699C14.7682 0.764417 14.0641 0.334534 13.3041 0.334534ZM13.3041 1.5008C13.6841 1.5008 14.0362 1.71574 14.2317 2.06702L25.9139 23.0598C26.3465 23.8371 25.8272 24.8261 24.9864 24.8261H14.529C14.1491 24.8261 13.797 24.6111 13.6015 24.2599L1.91927 3.2671C1.48669 2.48976 2.00602 1.5008 2.84681 1.5008H13.3041Z" fill="#9B0F15"/>
<path d="M25.4999 2.06702C25.6954 1.71574 26.0475 1.50079 26.4274 1.50079H36.8848C37.7256 1.50079 38.2449 2.48975 37.8123 3.2671L26.1301 24.2599C25.9346 24.6111 25.5825 24.8261 25.2026 24.8261H14.7452C13.9044 24.8261 13.3851 23.8371 13.8177 23.0598L25.4999 2.06702Z" fill="#F1333B"/>
<path fill-rule="evenodd" clip-rule="evenodd" d="M26.4275 0.334534H36.8849C38.5665 0.334534 39.6051 2.31245 38.74 3.86714L27.0577 24.8599C26.6668 25.5625 25.9626 25.9923 25.2027 25.9923H14.7453C13.0637 25.9923 12.0251 24.0144 12.8903 22.4597L24.5725 1.46699C24.9634 0.764417 25.6676 0.334534 26.4275 0.334534ZM26.4275 1.5008C26.0476 1.5008 25.6955 1.71574 25.5 2.06702L13.8178 23.0598C13.3852 23.8371 13.9045 24.8261 14.7453 24.8261H25.2027C25.5826 24.8261 25.9347 24.6111 26.1302 24.2599L37.8124 3.2671C38.245 2.48976 37.7257 1.5008 36.8849 1.5008H26.4275Z" fill="#9B0F15"/>
<path fill-rule="evenodd" clip-rule="evenodd" d="M26.6276 2.16277C26.8859 2.32449 26.9737 2.68136 26.8237 2.95987L21.9562 11.9984C21.8062 12.2769 21.4752 12.3716 21.2169 12.2099C20.9586 12.0482 20.8707 11.6913 21.0207 11.4128L25.8883 2.37425C26.0383 2.09574 26.3693 2.00106 26.6276 2.16277Z" fill="#FE666D"/>
<path fill-rule="evenodd" clip-rule="evenodd" d="M2.82796 2.16277C2.56964 2.32449 2.48183 2.68136 2.63182 2.95987L7.49941 11.9984C7.6494 12.2769 7.98039 12.3716 8.2387 12.2099C8.49701 12.0482 8.58483 11.6913 8.43484 11.4128L3.56725 2.37425C3.41726 2.09574 3.08627 2.00106 2.82796 2.16277Z" fill="#DF3840"/>
<path d="M13.1053 3.41419C13.1053 3.82682 12.8026 4.16133 12.4292 4.16133C12.0559 4.16133 11.7532 3.82682 11.7532 3.41419C11.7532 3.00156 12.0559 2.66705 12.4292 2.66705C12.8026 2.66705 13.1053 3.00156 13.1053 3.41419Z" fill="#AA161D"/>
<path d="M10.7307 3.59642C10.7307 4.10969 10.3542 4.52579 9.88977 4.52579C9.42533 4.52579 9.04883 4.10969 9.04883 3.59642C9.04883 3.08314 9.42533 2.66705 9.88977 2.66705C10.3542 2.66705 10.7307 3.08314 10.7307 3.59642Z" fill="#AA161D"/>
<path d="M12.835 6.25696C12.835 6.77023 12.4585 7.18632 11.994 7.18632C11.5296 7.18632 11.1531 6.77023 11.1531 6.25696C11.1531 5.74368 11.5296 5.32759 11.994 5.32759C12.4585 5.32759 12.835 5.74368 12.835 6.25696Z" fill="#AA161D"/>
<path d="M14.7575 4.99046C14.7575 5.24709 14.5692 5.45514 14.337 5.45514C14.1048 5.45514 13.9165 5.24709 13.9165 4.99046C13.9165 4.73382 14.1048 4.52577 14.337 4.52577C14.5692 4.52577 14.7575 4.73382 14.7575 4.99046Z" fill="#AA161D"/>
<path d="M10.3104 5.79227C10.3104 6.04891 10.1222 6.25696 9.88996 6.25696C9.65773 6.25696 9.46948 6.04891 9.46948 5.79227C9.46948 5.53564 9.65773 5.32759 9.88996 5.32759C10.1222 5.32759 10.3104 5.53564 10.3104 5.79227Z" fill="#AA161D"/>
<path d="M7.96717 2.94949C7.96717 3.20612 7.77891 3.41417 7.54669 3.41417C7.31447 3.41417 7.12622 3.20612 7.12622 2.94949C7.12622 2.69285 7.31447 2.4848 7.54669 2.4848C7.77891 2.4848 7.96717 2.69285 7.96717 2.94949Z" fill="#AA161D"/>
<path d="M14.337 8.23409C14.337 8.49073 14.1488 8.69878 13.9166 8.69878C13.6843 8.69878 13.4961 8.49073 13.4961 8.23409C13.4961 7.97746 13.6843 7.76941 13.9166 7.76941C14.1488 7.76941 14.337 7.97746 14.337 8.23409Z" fill="#AA161D"/>
<path d="M12.1737 8.69877C12.1737 8.95541 11.9855 9.16345 11.7532 9.16345C11.521 9.16345 11.3328 8.95541 11.3328 8.69877C11.3328 8.44213 11.521 8.23409 11.7532 8.23409C11.9855 8.23409 12.1737 8.44213 12.1737 8.69877Z" fill="#AA161D"/>
<path d="M16.3669 7.01321C16.3669 7.43087 16.0605 7.76946 15.6826 7.76946C15.3047 7.76946 14.9983 7.43087 14.9983 7.01321C14.9983 6.59554 15.3047 6.25696 15.6826 6.25696C16.0605 6.25696 16.3669 6.59554 16.3669 7.01321Z" fill="#AA161D"/>
<path d="M17.2589 9.16352C17.2589 9.42016 17.0707 9.6282 16.8384 9.6282C16.6062 9.6282 16.418 9.42016 16.418 9.16352C16.418 8.90688 16.6062 8.69884 16.8384 8.69884C17.0707 8.69884 17.2589 8.90688 17.2589 9.16352Z" fill="#AA161D"/>
<path d="M34.4685 32.4068C34.4685 41.1023 27.9306 48.1514 19.8657 48.1514C11.8008 48.1514 5.26294 41.1023 5.26294 32.4068C5.26294 23.7113 11.8008 16.6622 19.8657 16.6622C27.9306 16.6622 34.4685 23.7113 34.4685 32.4068Z" fill="#FFBB0D"/>
<path fill-rule="evenodd" clip-rule="evenodd" d="M35.5501 32.4068C35.5501 41.7464 28.5279 49.3176 19.8656 49.3176C11.2033 49.3176 4.18115 41.7464 4.18115 32.4068C4.18115 23.0672 11.2033 15.496 19.8656 15.496C28.5279 15.496 35.5501 23.0672 35.5501 32.4068ZM19.8656 48.1514C27.9305 48.1514 34.4684 41.1023 34.4684 32.4068C34.4684 23.7113 27.9305 16.6622 19.8656 16.6622C11.8007 16.6622 5.26284 23.7113 5.26284 32.4068C5.26284 41.1023 11.8007 48.1514 19.8656 48.1514Z" fill="#E89B05"/>
<path fill-rule="evenodd" clip-rule="evenodd" d="M6.34457 32.9899C6.04587 32.9899 5.80372 32.7289 5.80372 32.4068C5.80372 24.0334 12.0995 17.2454 19.8657 17.2454C20.1644 17.2454 20.4065 17.5064 20.4065 17.8285C20.4065 18.1505 20.1644 18.4116 19.8657 18.4116C12.6969 18.4116 6.88541 24.6775 6.88541 32.4068C6.88541 32.7289 6.64326 32.9899 6.34457 32.9899Z" fill="#E8AA0A"/>
<path fill-rule="evenodd" clip-rule="evenodd" d="M33.3869 31.8237C33.6856 31.8237 33.9277 32.0847 33.9277 32.4068C33.9277 40.7802 27.632 47.5682 19.8658 47.5682C19.5671 47.5682 19.325 47.3072 19.325 46.9851C19.325 46.663 19.5671 46.402 19.8658 46.402C27.0346 46.402 32.846 40.1361 32.846 32.4068C32.846 32.0847 33.0882 31.8237 33.3869 31.8237Z" fill="#E8AA0A"/>
<path d="M30.6826 32.4068C30.6826 38.8479 25.8397 44.0695 19.8657 44.0695C13.8917 44.0695 9.04883 38.8479 9.04883 32.4068C9.04883 25.9657 13.8917 20.7442 19.8657 20.7442C25.8397 20.7442 30.6826 25.9657 30.6826 32.4068Z" fill="#FFDD28"/>
<path fill-rule="evenodd" clip-rule="evenodd" d="M31.7641 32.4068C31.7641 39.492 26.437 45.2357 19.8656 45.2357C13.2942 45.2357 7.96704 39.492 7.96704 32.4068C7.96704 25.3216 13.2942 19.5779 19.8656 19.5779C26.437 19.5779 31.7641 25.3216 31.7641 32.4068ZM19.8656 44.0694C25.8396 44.0694 30.6825 38.8479 30.6825 32.4068C30.6825 25.9657 25.8396 20.7442 19.8656 20.7442C13.8916 20.7442 9.04873 25.9657 9.04873 32.4068C9.04873 38.8479 13.8916 44.0694 19.8656 44.0694Z" fill="#E89B05"/>
<path fill-rule="evenodd" clip-rule="evenodd" d="M19.8656 42.32C24.9435 42.32 29.0599 37.8817 29.0599 32.4068C29.0599 32.0847 29.3021 31.8237 29.6008 31.8237C29.8995 31.8237 30.1416 32.0847 30.1416 32.4068C30.1416 38.5258 25.5409 43.4863 19.8656 43.4863C19.5669 43.4863 19.3247 43.2252 19.3247 42.9032C19.3247 42.5811 19.5669 42.32 19.8656 42.32Z" fill="#ECC704"/>
<path fill-rule="evenodd" clip-rule="evenodd" d="M19.8656 22.4936C14.7877 22.4936 10.6713 26.9319 10.6713 32.4068C10.6713 32.7289 10.4291 32.9899 10.1304 32.9899C9.83174 32.9899 9.5896 32.7289 9.5896 32.4068C9.5896 26.2878 14.1903 21.3273 19.8656 21.3273C20.1643 21.3273 20.4065 21.5884 20.4065 21.9104C20.4065 22.2325 20.1643 22.4936 19.8656 22.4936Z" fill="#FFEF9C"/>
<path d="M20.4784 37.6345C19.8761 37.6345 19.3392 37.5237 18.8676 37.3021C18.3988 37.0805 18.0267 36.7751 17.7511 36.3859C17.4755 35.9967 17.3321 35.5507 17.3207 35.0479H19.1105C19.1304 35.3859 19.2724 35.6601 19.5366 35.8703C19.8008 36.0805 20.1147 36.1857 20.4784 36.1857C20.7682 36.1857 21.0238 36.1217 21.2454 35.9939C21.4699 35.8632 21.6446 35.6828 21.7696 35.4527C21.8974 35.2197 21.9613 34.9527 21.9613 34.6516C21.9613 34.3447 21.896 34.0749 21.7653 33.8419C21.6375 33.6089 21.4599 33.4271 21.2326 33.2964C21.0054 33.1658 20.7454 33.099 20.4528 33.0962C20.1971 33.0962 19.9486 33.1487 19.7071 33.2538C19.4684 33.3589 19.2824 33.5024 19.1488 33.6842L17.5082 33.3902L17.9216 28.7879H23.2568V30.2964H19.4429L19.217 32.4825H19.2682C19.4216 32.2666 19.6531 32.0876 19.9628 31.9456C20.2724 31.8035 20.619 31.7325 21.0025 31.7325C21.5281 31.7325 21.9968 31.8561 22.4088 32.1033C22.8207 32.3504 23.146 32.6899 23.3846 33.1217C23.6233 33.5507 23.7412 34.045 23.7383 34.6047C23.7412 35.1928 23.6048 35.7155 23.3292 36.1729C23.0565 36.6274 22.6744 36.9854 22.1829 37.2467C21.6943 37.5053 21.1261 37.6345 20.4784 37.6345Z" fill="black"/>
</svg>
