<svg width="83" height="77" viewBox="0 0 83 77" fill="none" xmlns="http://www.w3.org/2000/svg">
<path d="M81.8257 24.5641C82.0846 24.1852 82.0523 23.6786 81.7474 23.3356L65.7474 5.33564C65.5498 5.11335 65.2635 4.99055 64.9663 5.00057L20.4663 6.50057C20.171 6.51052 19.8952 6.65056 19.7129 6.88312L5.21294 25.3831C4.92187 25.7545 4.92999 26.2788 5.23243 26.641L45.7324 75.141C45.9333 75.3815 46.2352 75.5139 46.5482 75.4988C46.8612 75.4837 47.149 75.3228 47.3257 75.0641L81.8257 24.5641Z" fill="black" stroke="black" stroke-width="2" stroke-linejoin="round"/>
<path d="M77.8257 20.5641C78.0846 20.1852 78.0523 19.6786 77.7474 19.3356L61.7474 1.33564C61.5498 1.11335 61.2635 0.990548 60.9663 1.00057L16.4663 2.50057C16.171 2.51052 15.8952 2.65056 15.7129 2.88312L1.21294 21.3831C0.921871 21.7545 0.929992 22.2788 1.23243 22.641L41.7324 71.141C41.9333 71.3815 42.2352 71.5139 42.5482 71.4988C42.8612 71.4837 43.149 71.3228 43.3257 71.0641L77.8257 20.5641Z" fill="#F8D044" stroke="black" stroke-width="2" stroke-linejoin="round"/>
<path d="M2 22L16.5 3.5L27.5 3.12921L20 24L42.5 70.5L2 22Z" fill="white"/>
<path d="M77 20L42.5 70.5L60.5 22L50 2.37079L61 2L77 20Z" fill="#FF9432"/>
<path d="M77 20L60 22L20 24.5L2 22" stroke="black" stroke-width="2" stroke-linecap="round" stroke-linejoin="round"/>
<path d="M42.5 70.5L60.5 21.5L49.875 2.375" stroke="black" stroke-width="2" stroke-linecap="round" stroke-linejoin="round"/>
<path d="M42.5 70.5L20 24L27.625 3.125" stroke="black" stroke-width="2" stroke-linecap="round" stroke-linejoin="round"/>
</svg>
