<svg width="62" height="62" viewBox="0 0 62 62" fill="none" xmlns="http://www.w3.org/2000/svg">
<path d="M51.6666 28.4167C51.6666 39.8305 42.4138 49.0833 30.9999 49.0833C19.586 49.0833 10.3333 39.8305 10.3333 28.4167C10.3333 17.0028 19.586 7.75 30.9999 7.75C42.4138 7.75 51.6666 17.0028 51.6666 28.4167Z" fill="#FFBB0D"/>
<path fill-rule="evenodd" clip-rule="evenodd" d="M53.1975 28.4168C53.1975 40.6761 43.2594 50.6143 31 50.6143C18.7407 50.6143 8.80249 40.6761 8.80249 28.4168C8.80249 16.1574 18.7407 6.21924 31 6.21924C43.2594 6.21924 53.1975 16.1574 53.1975 28.4168ZM31 49.0834C42.4139 49.0834 51.6667 39.8306 51.6667 28.4168C51.6667 17.0029 42.4139 7.7501 31 7.7501C19.5861 7.7501 10.3334 17.0029 10.3334 28.4168C10.3334 39.8306 19.5861 49.0834 31 49.0834Z" fill="#E89B05"/>
<path fill-rule="evenodd" clip-rule="evenodd" d="M11.8644 29.1821C11.4417 29.1821 11.099 28.8394 11.099 28.4167C11.099 17.4255 20.009 8.51546 31.0002 8.51546C31.4229 8.51546 31.7656 8.85816 31.7656 9.2809C31.7656 9.70363 31.4229 10.0463 31.0002 10.0463C20.8545 10.0463 12.6298 18.271 12.6298 28.4167C12.6298 28.8394 12.2871 29.1821 11.8644 29.1821Z" fill="#E8AA0A"/>
<path fill-rule="evenodd" clip-rule="evenodd" d="M50.1359 27.6514C50.5586 27.6514 50.9013 27.9941 50.9013 28.4168C50.9013 39.4079 41.9912 48.318 31.0001 48.318C30.5773 48.318 30.2346 47.9753 30.2346 47.5526C30.2346 47.1299 30.5773 46.7872 31.0001 46.7872C41.1457 46.7872 49.3704 38.5625 49.3704 28.4168C49.3704 27.9941 49.7131 27.6514 50.1359 27.6514Z" fill="#E8AA0A"/>
<path d="M46.3087 28.4168C46.3087 36.8715 39.4548 43.7254 31 43.7254C22.5453 43.7254 15.6914 36.8715 15.6914 28.4168C15.6914 19.9621 22.5453 13.1082 31 13.1082C39.4548 13.1082 46.3087 19.9621 46.3087 28.4168Z" fill="#FFDD28"/>
<path fill-rule="evenodd" clip-rule="evenodd" d="M47.8397 28.4167C47.8397 37.7169 40.3003 45.2562 31.0001 45.2562C21.6999 45.2562 14.1606 37.7169 14.1606 28.4167C14.1606 19.1165 21.6999 11.5771 31.0001 11.5771C40.3003 11.5771 47.8397 19.1165 47.8397 28.4167ZM31.0001 43.7253C39.4549 43.7253 46.3088 36.8714 46.3088 28.4167C46.3088 19.9619 39.4549 13.108 31.0001 13.108C22.5454 13.108 15.6915 19.9619 15.6915 28.4167C15.6915 36.8714 22.5454 43.7253 31.0001 43.7253Z" fill="#E89B05"/>
<path fill-rule="evenodd" clip-rule="evenodd" d="M31 41.4291C38.1865 41.4291 44.0123 35.6033 44.0124 28.4168C44.0124 27.994 44.355 27.6513 44.7778 27.6513C45.2005 27.6513 45.5432 27.994 45.5432 28.4168C45.5432 36.4487 39.032 42.96 31 42.96C30.5773 42.96 30.2346 42.6173 30.2346 42.1945C30.2346 41.7718 30.5773 41.4291 31 41.4291Z" fill="#ECC704"/>
<path fill-rule="evenodd" clip-rule="evenodd" d="M31 15.4044C23.8135 15.4044 17.9877 21.2302 17.9877 28.4167C17.9877 28.8395 17.645 29.1822 17.2222 29.1822C16.7995 29.1822 16.4568 28.8395 16.4568 28.4167C16.4568 20.3848 22.968 13.8735 31 13.8735C31.4227 13.8735 31.7654 14.2162 31.7654 14.639C31.7654 15.0617 31.4227 15.4044 31 15.4044Z" fill="#FFEF9C"/>
<path d="M7.60587 48.7946L5.63429 44.8514C5.41958 44.422 5.73183 43.9167 6.21194 43.9167L14.8545 43.9167C15.2111 43.9167 15.5003 44.2059 15.5003 44.5626L15.5003 53.6042C15.5003 53.9609 15.2111 54.2501 14.8545 54.2501L6.21194 54.2501C5.73183 54.2501 5.41958 53.7448 5.63429 53.3154L7.60587 49.3722C7.69679 49.1904 7.69679 48.9764 7.60587 48.7946Z" fill="#C52229"/>
<path d="M54.3947 48.7946L56.3663 44.8514C56.581 44.422 56.2687 43.9167 55.7886 43.9167L47.1461 43.9167C46.7894 43.9167 46.5003 44.2059 46.5003 44.5626L46.5003 53.6042C46.5003 53.9609 46.7894 54.2501 47.1461 54.2501L55.7886 54.2501C56.2687 54.2501 56.581 53.7448 56.3663 53.3154L54.3947 49.3722C54.3038 49.1904 54.3038 48.9764 54.3947 48.7946Z" fill="#C52229"/>
<path fill-rule="evenodd" clip-rule="evenodd" d="M6.30604 49.0833L4.47887 45.429C3.83475 44.1407 4.7715 42.625 6.21182 42.625L14.8543 42.625C15.9244 42.625 16.7918 43.4925 16.7918 44.5625L16.7918 53.6042C16.7918 54.6742 15.9244 55.5417 14.8543 55.5417L6.21182 55.5417C4.7715 55.5417 3.83475 54.0259 4.47887 52.7377L6.30604 49.0833ZM6.45008 49.3714C6.45021 49.3717 6.45033 49.3719 6.45046 49.3722L7.02812 49.0833L6.45045 49.3722L6.45008 49.3714ZM55.6943 49.0833L57.5215 45.429C58.1656 44.1407 57.2288 42.625 55.7885 42.625L47.146 42.625C46.0759 42.625 45.2085 43.4924 45.2085 44.5625L45.2085 53.6042C45.2085 54.6742 46.0759 55.5417 47.146 55.5417L55.7885 55.5417C57.2288 55.5417 58.1656 54.0259 57.5215 52.7377L55.6943 49.0833ZM56.3662 44.8513L54.3946 48.7945C54.3037 48.9763 54.3037 49.1903 54.3946 49.3722L56.3662 53.3153C56.5809 53.7448 56.2686 54.25 55.7885 54.25L47.146 54.25C46.7893 54.25 46.5002 53.9608 46.5002 53.6042L46.5002 44.5625C46.5002 44.2058 46.7893 43.9167 47.146 43.9167L55.7885 43.9167C56.2686 43.9167 56.5809 44.4219 56.3662 44.8513ZM5.63417 44.8513L7.60576 48.7945C7.69667 48.9763 7.69667 49.1903 7.60576 49.3722L5.63417 53.3153C5.41946 53.7448 5.73171 54.25 6.21182 54.25L14.8543 54.25C15.211 54.25 15.5002 53.9608 15.5002 53.6042L15.5002 44.5625C15.5002 44.2058 15.211 43.9167 14.8543 43.9167L6.21182 43.9167C5.73172 43.9167 5.41946 44.4219 5.63417 44.8513Z" fill="#9B0F15"/>
<path fill-rule="evenodd" clip-rule="evenodd" d="M6.55795 44.5007C6.67622 44.3131 6.88251 44.1992 7.10433 44.1992H9.84912C10.2058 44.1992 10.495 44.4884 10.495 44.8451C10.495 45.2017 10.2058 45.4909 9.84912 45.4909H8.1291L9.463 48.2799C9.61689 48.6017 9.4808 48.9873 9.15902 49.1412C8.83724 49.2951 8.45164 49.159 8.29774 48.8372L6.5217 45.1237C6.426 44.9236 6.43968 44.6884 6.55795 44.5007Z" fill="#DF3840"/>
<path d="M49.0835 51.0208L49.0835 41.9791C49.0835 41.6224 48.7943 41.3333 48.4377 41.3333L13.5627 41.3333C13.206 41.3333 12.9168 41.6224 12.9168 41.9791L12.9168 51.0207C12.9168 51.3774 13.206 51.6666 13.5627 51.6666L48.4377 51.6666C48.7943 51.6666 49.0835 51.3774 49.0835 51.0208Z" fill="#F1333B"/>
<path fill-rule="evenodd" clip-rule="evenodd" d="M50.3752 41.9792L50.3752 51.0209C50.3752 52.091 49.5078 52.9584 48.4377 52.9584L13.5627 52.9584C12.4927 52.9584 11.6252 52.091 11.6252 51.0209L11.6252 41.9792C11.6252 40.9092 12.4927 40.0417 13.5627 40.0417L48.4377 40.0417C49.5078 40.0417 50.3752 40.9092 50.3752 41.9792ZM49.0836 41.9792L49.0836 51.0209C49.0836 51.3776 48.7944 51.6667 48.4377 51.6667L13.5627 51.6667C13.2061 51.6667 12.9169 51.3776 12.9169 51.0209L12.9169 41.9792C12.9169 41.6226 13.2061 41.3334 13.5627 41.3334L48.4377 41.3334C48.7944 41.3334 49.0836 41.6226 49.0836 41.9792Z" fill="#9B0F15"/>
<path d="M47.2992 46.7452C46.9335 46.7452 46.6371 46.4559 46.6371 46.0992C46.6371 45.7424 46.9335 45.4531 47.2992 45.4531C47.665 45.4531 47.9614 45.7424 47.9614 46.0992C47.9614 46.4559 47.665 46.7452 47.2992 46.7452Z" fill="#DB1B24"/>
<path d="M44.7798 46.4868C44.3249 46.4868 43.9561 46.127 43.9561 45.6832C43.9561 45.2394 44.3249 44.8796 44.7798 44.8796C45.2347 44.8796 45.6035 45.2394 45.6035 45.6832C45.6035 46.127 45.2347 46.4868 44.7798 46.4868Z" fill="#DB1B24"/>
<path d="M45.9024 48.3241C45.6749 48.3241 45.4905 48.1442 45.4905 47.9223C45.4905 47.7004 45.6749 47.5205 45.9024 47.5205C46.1298 47.5205 46.3142 47.7004 46.3142 47.9223C46.3142 48.1442 46.1298 48.3241 45.9024 48.3241Z" fill="#DB1B24"/>
<path d="M45.1917 44.0743C44.9642 44.0743 44.7798 43.8945 44.7798 43.6725C44.7798 43.4506 44.9642 43.2708 45.1917 43.2708C45.4191 43.2708 45.6035 43.4506 45.6035 43.6725C45.6035 43.8945 45.4191 44.0743 45.1917 44.0743Z" fill="#DB1B24"/>
<path d="M43.0274 47.9222C42.7999 47.9222 42.6155 47.7424 42.6155 47.5205C42.6155 47.2985 42.7999 47.1187 43.0274 47.1187C43.2548 47.1187 43.4392 47.2985 43.4392 47.5205C43.4392 47.7424 43.2548 47.9222 43.0274 47.9222Z" fill="#DB1B24"/>
<path d="M42.6155 45.8551C42.388 45.8551 42.2037 45.6752 42.2037 45.4533C42.2037 45.2314 42.388 45.0515 42.6155 45.0515C42.843 45.0515 43.0273 45.2314 43.0273 45.4533C43.0273 45.6752 42.843 45.8551 42.6155 45.8551Z" fill="#DB1B24"/>
<path d="M39.8079 50.516C39.5804 50.516 39.396 50.3361 39.396 50.1142C39.396 49.8923 39.5804 49.7124 39.8079 49.7124C40.0353 49.7124 40.2197 49.8923 40.2197 50.1142C40.2197 50.3361 40.0353 50.516 39.8079 50.516Z" fill="#DB1B24"/>
<path d="M48.0017 48.9821C47.7743 48.9821 47.5899 48.8022 47.5899 48.5803C47.5899 48.3584 47.7743 48.1785 48.0017 48.1785C48.2292 48.1785 48.4136 48.3584 48.4136 48.5803C48.4136 48.8022 48.2292 48.9821 48.0017 48.9821Z" fill="#DB1B24"/>
<path d="M44.1095 49.862C43.7394 49.862 43.4393 49.5692 43.4393 49.2081C43.4393 48.847 43.7394 48.5542 44.1095 48.5542C44.4797 48.5542 44.7798 48.847 44.7798 49.2081C44.7798 49.5692 44.4797 49.862 44.1095 49.862Z" fill="#DB1B24"/>
<path d="M46.9843 50.5158C46.6141 50.5158 46.314 50.2231 46.314 49.8619C46.314 49.5008 46.6141 49.208 46.9843 49.208C47.3545 49.208 47.6545 49.5008 47.6545 49.8619C47.6545 50.2231 47.3545 50.5158 46.9843 50.5158Z" fill="#DB1B24"/>
<path d="M41.1215 49.2299C40.7513 49.2299 40.4512 48.9372 40.4512 48.576C40.4512 48.2149 40.7513 47.9221 41.1215 47.9221C41.4917 47.9221 41.7917 48.2149 41.7917 48.576C41.7917 48.9372 41.4917 49.2299 41.1215 49.2299Z" fill="#DB1B24"/>
<path d="M42.2036 50.7145C41.9762 50.7145 41.7918 50.5346 41.7918 50.3127C41.7918 50.0908 41.9762 49.9109 42.2036 49.9109C42.4311 49.9109 42.6155 50.0908 42.6155 50.3127C42.6155 50.5346 42.4311 50.7145 42.2036 50.7145Z" fill="#DB1B24"/>
<path fill-rule="evenodd" clip-rule="evenodd" d="M13.3206 42.2618C13.3206 41.9051 13.6097 41.616 13.9664 41.616H38.1851C38.5418 41.616 38.831 41.9051 38.831 42.2618C38.831 42.6185 38.5418 42.9076 38.1851 42.9076H14.6122V47.4285C14.6122 47.7852 14.3231 48.0743 13.9664 48.0743C13.6097 48.0743 13.3206 47.7852 13.3206 47.4285V42.2618Z" fill="#FE666D"/>
<path d="M24.468 31.356C24.74 31.14 24.864 31.04 24.84 31.056C25.624 30.408 26.24 29.876 26.688 29.46C27.144 29.044 27.528 28.608 27.84 28.152C28.152 27.696 28.308 27.252 28.308 26.82C28.308 26.492 28.232 26.236 28.08 26.052C27.928 25.868 27.7 25.776 27.396 25.776C27.092 25.776 26.852 25.892 26.676 26.124C26.508 26.348 26.424 26.668 26.424 27.084H24.444C24.46 26.404 24.604 25.836 24.876 25.38C25.156 24.924 25.52 24.588 25.968 24.372C26.424 24.156 26.928 24.048 27.48 24.048C28.432 24.048 29.148 24.292 29.628 24.78C30.116 25.268 30.36 25.904 30.36 26.688C30.36 27.544 30.068 28.34 29.484 29.076C28.9 29.804 28.156 30.516 27.252 31.212H30.492V32.88H24.468V31.356ZM31.3955 28.5C31.3955 27.124 31.6595 26.04 32.1875 25.248C32.7235 24.456 33.5835 24.06 34.7675 24.06C35.9515 24.06 36.8075 24.456 37.3355 25.248C37.8715 26.04 38.1395 27.124 38.1395 28.5C38.1395 29.892 37.8715 30.984 37.3355 31.776C36.8075 32.568 35.9515 32.964 34.7675 32.964C33.5835 32.964 32.7235 32.568 32.1875 31.776C31.6595 30.984 31.3955 29.892 31.3955 28.5ZM36.1235 28.5C36.1235 27.692 36.0355 27.072 35.8595 26.64C35.6835 26.2 35.3195 25.98 34.7675 25.98C34.2155 25.98 33.8515 26.2 33.6755 26.64C33.4995 27.072 33.4115 27.692 33.4115 28.5C33.4115 29.044 33.4435 29.496 33.5075 29.856C33.5715 30.208 33.6995 30.496 33.8915 30.72C34.0915 30.936 34.3835 31.044 34.7675 31.044C35.1515 31.044 35.4395 30.936 35.6315 30.72C35.8315 30.496 35.9635 30.208 36.0275 29.856C36.0915 29.496 36.1235 29.044 36.1235 28.5Z" fill="#141A1B"/>
</svg>
