<svg width="32" height="32" viewBox="0 0 32 32" fill="none" xmlns="http://www.w3.org/2000/svg">
<rect width="32" height="32" fill="#141A1B"/>
<path d="M15.7223 7.7218C15.6755 7.66583 12.9667 6.40955 10.5134 8.28146C8.25834 10.0026 7.47547 13.2374 7.77506 13.3151C8.1418 13.4099 9.14656 11.8666 11.0751 11.0179C11.7592 10.717 12.8476 11.0179 12.8476 11.0179L15.7223 7.7218Z" fill="#0FE983"/>
<path opacity="0.1" d="M12.8499 11.0174C12.527 10.9353 12.1955 10.8911 11.8623 10.8858C12.2876 9.99557 13.0817 8.33502 13.5973 7.25916C14.8107 7.27035 15.6996 7.69108 15.7266 7.72005L12.8499 11.0174Z" fill="black"/>
<path d="M20.1847 12.9847C20.2321 13.04 21.0288 15.918 18.7803 18.0316C16.7135 19.9752 13.3944 20.2182 13.3667 19.9101C13.3331 19.5328 15.0207 18.794 16.1729 17.0301C16.5811 16.4046 16.4633 15.2813 16.4633 15.2813L20.1847 12.9847Z" fill="#0FE983"/>
<path opacity="0.1" d="M20.2901 15.176L16.4277 16.2999C16.4794 15.9629 16.4906 15.621 16.4613 15.2813L20.1827 12.9847C20.2124 13.0163 20.4876 13.9704 20.2901 15.176Z" fill="black"/>
<path d="M13.879 16.5027L11.2334 13.3824C11.2334 13.3824 12.6161 9.68271 15.8924 7.19782C17.5299 5.958 19.4479 5.03028 21.171 4.41662C23.5446 3.56594 25.5305 3.321 25.8379 3.68182C26.1454 4.04264 25.5746 5.96393 24.3512 8.16768C23.463 9.76173 22.2331 11.5052 20.7424 12.9182C17.7544 15.7468 13.879 16.5027 13.879 16.5027Z" fill="#C7C7C7"/>
<path d="M20.3061 11.5824C19.9503 11.8844 19.5129 12.074 19.0492 12.1274C18.5856 12.1807 18.1165 12.0954 17.7014 11.8821C17.2863 11.6688 16.9437 11.3371 16.7171 10.9291C16.4905 10.5211 16.39 10.055 16.4284 9.5899C16.4667 9.12477 16.6422 8.68146 16.9325 8.31605C17.2229 7.95065 17.6151 7.67958 18.0595 7.53713C18.504 7.39468 18.9807 7.38726 19.4293 7.51581C19.878 7.64435 20.2784 7.90309 20.58 8.25928C20.9838 8.73649 21.1818 9.35444 21.1304 9.97747C21.0791 10.6005 20.7826 11.1777 20.3061 11.5824Z" fill="#A6A6A6"/>
<path d="M20.4345 11.363C20.0786 11.6647 19.6412 11.8541 19.1777 11.9073C18.7141 11.9604 18.2452 11.8749 17.8303 11.6616C17.4153 11.4482 17.0729 11.1166 16.8464 10.7087C16.6199 10.3008 16.5195 9.83482 16.5578 9.36981C16.5961 8.90479 16.7714 8.46157 17.0616 8.0962C17.3518 7.73083 17.7439 7.45973 18.1881 7.31716C18.6324 7.1746 19.109 7.16698 19.5576 7.29527C20.0062 7.42357 20.4067 7.68201 20.7084 8.03791C21.1129 8.51524 21.3112 9.13363 21.2599 9.75714C21.2085 10.3807 20.9116 10.9583 20.4345 11.363Z" fill="#0FE983"/>
<path d="M19.968 10.8106C19.7214 11.0203 19.4181 11.1521 19.0965 11.1894C18.775 11.2266 18.4496 11.1677 18.1615 11.02C17.8735 10.8722 17.6357 10.6424 17.4784 10.3595C17.321 10.0766 17.251 9.75343 17.2774 9.43079C17.3038 9.10815 17.4252 8.80059 17.6265 8.54701C17.8277 8.29343 18.0996 8.10524 18.4078 8.00624C18.716 7.90725 19.0466 7.9019 19.3579 7.99088C19.6691 8.07985 19.947 8.25916 20.1563 8.5061C20.4366 8.8368 20.5742 9.26522 20.5389 9.6973C20.5036 10.1294 20.2983 10.5298 19.968 10.8106Z" fill="white"/>
<path d="M19.9688 10.8108C19.8144 10.9423 19.6369 11.0439 19.4454 11.1104L18.1285 11.0031C17.9503 10.9065 17.7918 10.7774 17.661 10.6225C17.565 10.51 17.485 10.3849 17.4233 10.2505L20.2612 10.4816C20.1792 10.6042 20.0809 10.715 19.9688 10.8108Z" fill="#EBEBEB"/>
<path d="M20.2974 8.69909L17.6782 8.48576C17.731 8.42513 17.7882 8.36857 17.8494 8.31654C18.18 8.03607 18.6085 7.89835 19.0406 7.93366C19.4728 7.96897 19.8732 8.17442 20.1539 8.50485C20.2066 8.56586 20.2546 8.63079 20.2974 8.69909Z" fill="#EBEBEB"/>
<path d="M20.4399 10.1422L17.3058 9.88611C17.2954 9.83808 17.2877 9.7895 17.2827 9.7406L20.4853 10.004C20.4728 10.0487 20.457 10.0955 20.4399 10.1422Z" fill="#EBEBEB"/>
<path d="M24.3511 8.16773L21.1709 4.4147C23.5445 3.56599 25.5303 3.32106 25.8378 3.68187C26.1453 4.04269 25.5771 5.96398 24.3511 8.16773Z" fill="#0FE983"/>
<path d="M22.1063 4.73342C22.0856 4.75109 22.06 4.76222 22.033 4.76538C22.0059 4.76854 21.9785 4.76361 21.9543 4.75119C21.93 4.73878 21.91 4.71945 21.8968 4.69565C21.8835 4.67185 21.8776 4.64465 21.8799 4.6175C21.8821 4.59035 21.8923 4.56447 21.9092 4.54314C21.9262 4.5218 21.9491 4.50598 21.975 4.49766C22.0009 4.48934 22.0288 4.48891 22.0549 4.49642C22.0811 4.50393 22.1045 4.51904 22.1221 4.53984C22.1456 4.56764 22.1571 4.60362 22.1542 4.6399C22.1512 4.67618 22.134 4.70981 22.1063 4.73342Z" fill="white"/>
<path d="M22.6709 5.40098C22.6571 5.41306 22.6411 5.42228 22.6238 5.4281C22.6065 5.43392 22.5881 5.43623 22.5699 5.43488C22.5516 5.43354 22.5339 5.42858 22.5176 5.42028C22.5013 5.41198 22.4868 5.40051 22.475 5.38655C22.4631 5.37259 22.4542 5.35641 22.4487 5.33896C22.4432 5.32152 22.4413 5.30315 22.443 5.28494C22.4447 5.26672 22.45 5.24903 22.4586 5.23289C22.4672 5.21675 22.4789 5.20249 22.4931 5.19094C22.5211 5.16818 22.5568 5.15729 22.5927 5.16062C22.6286 5.16395 22.6617 5.18123 22.685 5.20874C22.7083 5.23625 22.7199 5.2718 22.7172 5.30775C22.7146 5.3437 22.6979 5.37717 22.6709 5.40098Z" fill="white"/>
<path d="M23.2372 6.06803C23.2163 6.08509 23.1908 6.0956 23.1639 6.09828C23.1371 6.10095 23.11 6.09566 23.0861 6.08307C23.0622 6.07048 23.0426 6.05114 23.0296 6.02747C23.0167 6.00379 23.0109 5.97682 23.0132 5.94991C23.0154 5.92301 23.0255 5.89736 23.0422 5.87616C23.0589 5.85495 23.0815 5.83913 23.1072 5.83067C23.1328 5.8222 23.1604 5.82147 23.1864 5.82855C23.2125 5.83563 23.2359 5.85023 23.2537 5.87051C23.266 5.88437 23.2753 5.90058 23.2812 5.91816C23.287 5.93574 23.2893 5.95433 23.2877 5.97279C23.2862 5.99126 23.2809 6.00922 23.2722 6.02559C23.2636 6.04196 23.2516 6.0564 23.2372 6.06803Z" fill="white"/>
<path d="M23.803 6.73557C23.7822 6.7527 23.7567 6.76331 23.7298 6.76607C23.703 6.76884 23.6759 6.76365 23.652 6.75114C23.6281 6.73863 23.6083 6.71936 23.5953 6.69572C23.5822 6.67208 23.5764 6.64513 23.5786 6.61821C23.5807 6.5913 23.5907 6.56561 23.6074 6.54435C23.624 6.52309 23.6466 6.5072 23.6722 6.49865C23.6978 6.49011 23.7254 6.48928 23.7514 6.49629C23.7775 6.50329 23.8009 6.51781 23.8188 6.53804C23.8311 6.5519 23.8404 6.56808 23.8463 6.58563C23.8521 6.60318 23.8544 6.62172 23.8529 6.64016C23.8514 6.6586 23.8463 6.67655 23.8377 6.69294C23.8291 6.70934 23.8173 6.72383 23.803 6.73557Z" fill="white"/>
<path d="M24.3721 7.40325C24.3513 7.42084 24.3258 7.43187 24.2988 7.43497C24.2718 7.43807 24.2444 7.43309 24.2202 7.42066C24.196 7.40823 24.1761 7.38891 24.1629 7.36514C24.1496 7.34137 24.1438 7.31421 24.146 7.2871C24.1482 7.25999 24.1584 7.23414 24.1752 7.21281C24.1921 7.19149 24.215 7.17565 24.2409 7.1673C24.2667 7.15894 24.2945 7.15845 24.3207 7.16587C24.3469 7.1733 24.3702 7.18831 24.3879 7.20902C24.3996 7.2228 24.4085 7.23876 24.4141 7.25599C24.4196 7.27322 24.4217 7.29137 24.4203 7.30941C24.4188 7.32746 24.4138 7.34503 24.4055 7.36114C24.3972 7.37724 24.3859 7.39155 24.3721 7.40325Z" fill="white"/>
<path d="M11.9935 13.3094C11.9656 13.3321 11.9298 13.343 11.8939 13.3397C11.8581 13.3364 11.8249 13.3191 11.8016 13.2916C11.7783 13.2641 11.7668 13.2285 11.7694 13.1926C11.7721 13.1566 11.7887 13.1231 11.8158 13.0993C11.8295 13.0873 11.8455 13.078 11.8629 13.0722C11.8802 13.0664 11.8985 13.0641 11.9168 13.0654C11.935 13.0668 11.9528 13.0717 11.9691 13.08C11.9854 13.0883 11.9999 13.0998 12.0117 13.1138C12.0235 13.1277 12.0324 13.1439 12.0379 13.1614C12.0434 13.1788 12.0454 13.1972 12.0437 13.2154C12.042 13.2336 12.0367 13.2513 12.0281 13.2674C12.0195 13.2836 12.0077 13.2978 11.9935 13.3094Z" fill="#A6A6A6"/>
<path d="M12.5628 13.977C12.5419 13.9942 12.5165 14.0048 12.4896 14.0075C12.4628 14.0103 12.4357 14.0051 12.4117 13.9926C12.3878 13.9801 12.3681 13.9608 12.355 13.9372C12.342 13.9135 12.3362 13.8866 12.3383 13.8597C12.3405 13.8328 12.3505 13.8071 12.3672 13.7858C12.3838 13.7645 12.4063 13.7487 12.4319 13.7401C12.4576 13.7316 12.4851 13.7307 12.5112 13.7377C12.5373 13.7447 12.5607 13.7593 12.5786 13.7795C12.5908 13.7934 12.6002 13.8095 12.606 13.8271C12.6119 13.8446 12.6141 13.8632 12.6127 13.8816C12.6112 13.9001 12.606 13.918 12.5975 13.9344C12.5889 13.9508 12.5771 13.9653 12.5628 13.977Z" fill="#A6A6A6"/>
<path d="M13.1279 14.6461C13.1072 14.6636 13.0817 14.6747 13.0547 14.6778C13.0276 14.6809 13.0003 14.6759 12.9761 14.6635C12.9519 14.651 12.9319 14.6317 12.9187 14.6079C12.9055 14.5842 12.8996 14.557 12.9018 14.5299C12.904 14.5028 12.9142 14.4769 12.9311 14.4556C12.948 14.4343 12.9708 14.4184 12.9967 14.4101C13.0226 14.4017 13.0504 14.4012 13.0765 14.4087C13.1027 14.4161 13.1261 14.4311 13.1437 14.4518C13.1555 14.4656 13.1644 14.4816 13.1699 14.4988C13.1755 14.516 13.1776 14.5342 13.1761 14.5522C13.1747 14.5703 13.1697 14.5878 13.1614 14.6039C13.1531 14.62 13.1417 14.6343 13.1279 14.6461Z" fill="#A6A6A6"/>
<path d="M13.6937 15.3116C13.6728 15.3287 13.6473 15.3394 13.6205 15.3421C13.5936 15.3449 13.5665 15.3397 13.5426 15.3272C13.5187 15.3147 13.499 15.2954 13.4859 15.2718C13.4728 15.2481 13.467 15.2212 13.4692 15.1943C13.4713 15.1673 13.4814 15.1417 13.498 15.1204C13.5147 15.0991 13.5372 15.0832 13.5628 15.0747C13.5884 15.0662 13.616 15.0653 13.6421 15.0723C13.6681 15.0793 13.6916 15.0939 13.7095 15.1141C13.7217 15.1279 13.731 15.1441 13.7369 15.1617C13.7428 15.1792 13.745 15.1978 13.7435 15.2162C13.7421 15.2347 13.7369 15.2526 13.7283 15.269C13.7197 15.2854 13.708 15.2999 13.6937 15.3116Z" fill="#A6A6A6"/>
<path d="M14.2592 15.9787C14.2383 15.9957 14.2128 16.0062 14.1859 16.0089C14.159 16.0116 14.132 16.0063 14.1081 15.9937C14.0842 15.9811 14.0646 15.9618 14.0516 15.9381C14.0386 15.9144 14.0329 15.8875 14.0351 15.8606C14.0374 15.8337 14.0475 15.808 14.0642 15.7868C14.0809 15.7656 14.1035 15.7498 14.1291 15.7413C14.1548 15.7328 14.1823 15.7321 14.2084 15.7392C14.2344 15.7463 14.2578 15.7609 14.2757 15.7812C14.288 15.795 14.2973 15.8112 14.3032 15.8288C14.309 15.8464 14.3112 15.865 14.3097 15.8834C14.3082 15.9019 14.3029 15.9199 14.2942 15.9362C14.2855 15.9526 14.2736 15.967 14.2592 15.9787Z" fill="#A6A6A6"/>
<path opacity="0.2" d="M25.6891 3.58904C23.8574 3.72073 20.6851 4.82952 17.3475 7.44742C14.8811 9.38122 13.0816 12.7655 12.2428 14.5729L11.2334 13.3825C11.2334 13.3825 12.6161 9.68278 15.8924 7.19788C17.5299 5.95806 19.4479 5.03034 21.171 4.41669C23.2984 3.65357 25.1137 3.37703 25.6891 3.58904Z" fill="white"/>
<path d="M12.697 17.0111L10.5459 14.4735L11.3828 13.559L13.736 16.3349L12.697 17.0111Z" fill="#0FE983"/>
<path opacity="0.1" d="M13.7357 16.3348L13.2294 16.664L11.0625 13.9085L11.3825 13.5596L13.7357 16.3348Z" fill="black"/>
<path d="M24.3173 8.50673L23.3342 8.44089L22.872 9.37717L22.9142 8.33422L22.02 7.92073L23.0129 7.93061L23.4646 7.05029L23.4409 8.03925L24.3173 8.50673Z" fill="#FCFCFC"/>
<path d="M24.0754 4.87558L23.5256 4.83937L23.2675 5.36282L23.2912 4.77945L22.7915 4.54834L23.3466 4.55361L23.5987 4.06177L23.5856 4.61485L24.0754 4.87558Z" fill="#FCFCFC"/>
<path d="M19.6301 16.0372L19.081 16.0003L18.8229 16.5238L18.8459 15.9411L18.3462 15.71L18.9012 15.7152L19.1541 15.2234L19.1403 15.7765L19.6301 16.0372Z" fill="#FCFCFC"/>
<path d="M9.8518 11.1812L9.30202 11.1444L9.04391 11.6678L9.06762 11.0851L8.56787 10.854L9.12292 10.8593L9.3751 10.3674L9.36193 10.9199L9.8518 11.1812Z" fill="#FCFCFC"/>
<path opacity="0.6" d="M12.224 16.4447C11.2265 17.1169 10.3462 17.9749 9.70356 19C9.0442 20.0304 8.67167 21.218 8.6244 22.4403C8.6086 23.0599 8.68425 23.6785 8.84892 24.276C9.01836 24.8846 9.27472 25.4657 9.61006 26.0011C9.95345 26.5461 10.3653 27.0448 10.8354 27.4852C11.3139 27.9328 11.8373 28.33 12.3972 28.6703C11.7933 28.3944 11.2196 28.0565 10.6853 27.6623C10.1446 27.2615 9.65772 26.7928 9.23674 26.2677C8.36407 25.1811 7.83215 23.8607 7.70787 22.4726C7.58409 21.0695 7.88038 19.6295 8.49403 18.3449C9.10768 17.0603 10.0249 15.9193 11.1086 14.9869L12.224 16.4447Z" fill="#0FE983"/>
<path d="M10.5181 17.9742L10.1257 18.0467L10.0381 18.4602L9.95053 18.0467L9.55811 17.9736L9.94921 17.8781L10.0381 17.4877L10.1276 17.8781L10.5181 17.9742Z" fill="white"/>
<path d="M9.0747 25.7194L8.85545 25.7602L8.80672 25.9913L8.75734 25.7602L8.53809 25.7194L8.75668 25.6661L8.80672 25.4481L8.85676 25.6661L9.0747 25.7194Z" fill="white"/>
<path d="M8.95605 23.7132L8.73679 23.7534L8.68807 23.9851L8.63935 23.7534L8.41943 23.7132L8.63803 23.6599L8.68807 23.4413L8.73811 23.6599L8.95605 23.7132Z" fill="white"/>
<path d="M10.229 16.6845L10.0097 16.7253L9.96036 16.9564L9.91164 16.7253L9.69238 16.6845L9.91098 16.6311L9.96036 16.4132L10.0104 16.6311L10.229 16.6845Z" fill="white"/>
<path d="M9.5935 26.2197C9.57955 26.2235 9.56724 26.2318 9.55846 26.2433C9.54968 26.2548 9.54492 26.2688 9.54492 26.2833C9.54492 26.2977 9.54968 26.3118 9.55846 26.3233C9.56724 26.3347 9.57955 26.343 9.5935 26.3468C9.60745 26.343 9.61976 26.3347 9.62854 26.3233C9.63732 26.3118 9.64207 26.2977 9.64207 26.2833C9.64207 26.2688 9.63732 26.2548 9.62854 26.2433C9.61976 26.2318 9.60745 26.2235 9.5935 26.2197Z" fill="white"/>
<path d="M11.408 16.375C11.394 16.3788 11.3817 16.3871 11.3729 16.3985C11.3641 16.41 11.3594 16.4241 11.3594 16.4385C11.3594 16.453 11.3641 16.467 11.3729 16.4785C11.3817 16.49 11.394 16.4983 11.408 16.5021C11.4219 16.4983 11.4342 16.49 11.443 16.4785C11.4518 16.467 11.4565 16.453 11.4565 16.4385C11.4565 16.4241 11.4518 16.41 11.443 16.3985C11.4342 16.3871 11.4219 16.3788 11.408 16.375Z" fill="white"/>
<path d="M7.9851 22.0448C7.97115 22.0486 7.95884 22.0569 7.95006 22.0683C7.94128 22.0798 7.93652 22.0939 7.93652 22.1083C7.93652 22.1228 7.94128 22.1368 7.95006 22.1483C7.95884 22.1598 7.97115 22.1681 7.9851 22.1719C7.99905 22.1681 8.01136 22.1598 8.02014 22.1483C8.02892 22.1368 8.03367 22.1228 8.03367 22.1083C8.03367 22.0939 8.02892 22.0798 8.02014 22.0683C8.01136 22.0569 7.99905 22.0486 7.9851 22.0448Z" fill="white"/>
<path d="M9.47991 25.8887C9.46889 25.89 9.45874 25.8953 9.45137 25.9036C9.44401 25.912 9.43994 25.9227 9.43994 25.9338C9.43994 25.9449 9.44401 25.9556 9.45137 25.9639C9.45874 25.9722 9.46889 25.9775 9.47991 25.9789C9.49094 25.9775 9.50109 25.9722 9.50845 25.9639C9.51582 25.9556 9.51988 25.9449 9.51988 25.9338C9.51988 25.9227 9.51582 25.912 9.50845 25.9036C9.50109 25.8953 9.49094 25.89 9.47991 25.8887Z" fill="white"/>
<path d="M7.96225 19.8232C7.95038 19.8232 7.93899 19.828 7.93059 19.8364C7.9222 19.8448 7.91748 19.8561 7.91748 19.868C7.91748 19.8799 7.9222 19.8913 7.93059 19.8997C7.93899 19.9081 7.95038 19.9128 7.96225 19.9128C7.97413 19.9128 7.98552 19.9081 7.99391 19.8997C8.00231 19.8913 8.00703 19.8799 8.00703 19.868C8.00703 19.8561 8.00231 19.8448 7.99391 19.8364C7.98552 19.828 7.97413 19.8232 7.96225 19.8232Z" fill="white"/>
<path d="M8.42013 24.423C8.38929 24.4252 8.36045 24.4391 8.33939 24.4617C8.31834 24.4844 8.30664 24.5142 8.30664 24.5451C8.30664 24.576 8.31834 24.6058 8.33939 24.6285C8.36045 24.6511 8.38929 24.665 8.42013 24.6673C8.45098 24.665 8.47982 24.6511 8.50087 24.6285C8.52193 24.6058 8.53363 24.576 8.53363 24.5451C8.53363 24.5142 8.52193 24.4844 8.50087 24.4617C8.47982 24.4391 8.45098 24.4252 8.42013 24.423Z" fill="white"/>
<path d="M8.53782 19.4097C8.50552 19.4097 8.47454 19.4225 8.45169 19.4453C8.42885 19.4682 8.41602 19.4992 8.41602 19.5315C8.41602 19.5638 8.42885 19.5948 8.45169 19.6176C8.47454 19.6405 8.50552 19.6533 8.53782 19.6533C8.57013 19.6533 8.60111 19.6405 8.62396 19.6176C8.6468 19.5948 8.65963 19.5638 8.65963 19.5315C8.65963 19.4992 8.6468 19.4682 8.62396 19.4453C8.60111 19.4225 8.57013 19.4097 8.53782 19.4097Z" fill="white"/>
</svg>
