<svg width="80" height="78" viewBox="0 0 80 78" fill="none" xmlns="http://www.w3.org/2000/svg">
<g filter="url(#filter0_d_750_21263)">
<path d="M41.3003 57.902L55.3873 66.902C57.204 68.0552 59.4401 66.3395 58.909 64.2302L54.8283 48.0864C54.7179 47.6389 54.7355 47.1692 54.8789 46.7313C55.0223 46.2934 55.2857 45.9052 55.6388 45.6114L68.2724 35.0083C69.9214 33.6302 69.0829 30.8458 66.9308 30.7051L50.4401 29.6364C49.9901 29.6101 49.5575 29.4524 49.1952 29.1827C48.8328 28.913 48.5564 28.5429 48.3997 28.1177L42.2506 12.5364C42.0879 12.0861 41.7913 11.6972 41.4013 11.4223C41.0113 11.1474 40.5467 11 40.0705 11C39.5943 11 39.1297 11.1474 38.7397 11.4223C38.3497 11.6972 38.0531 12.0861 37.8904 12.5364L31.7413 28.1177C31.5846 28.5429 31.3082 28.913 30.9458 29.1827C30.5835 29.4524 30.1509 29.6101 29.7009 29.6364L13.2102 30.7051C11.0581 30.8458 10.2196 33.6302 11.8686 35.0083L24.5022 45.6114C24.8553 45.9052 25.1187 46.2934 25.2621 46.7313C25.4055 47.1692 25.4231 47.6389 25.3127 48.0864L21.5394 63.0489C20.8966 65.5802 23.5798 67.6333 25.732 66.2552L38.8407 57.902C39.2083 57.6668 39.6349 57.5419 40.0705 57.5419C40.5061 57.5419 40.9327 57.6668 41.3003 57.902V57.902Z" fill="#AFB6C2"/>
<path d="M41.3003 57.902L55.3873 66.902C57.204 68.0552 59.4401 66.3395 58.909 64.2302L54.8283 48.0864C54.7179 47.6389 54.7355 47.1692 54.8789 46.7313C55.0223 46.2934 55.2857 45.9052 55.6388 45.6114L68.2724 35.0083C69.9214 33.6302 69.0829 30.8458 66.9308 30.7051L50.4401 29.6364C49.9901 29.6101 49.5575 29.4524 49.1952 29.1827C48.8328 28.913 48.5564 28.5429 48.3997 28.1177L42.2506 12.5364C42.0879 12.0861 41.7913 11.6972 41.4013 11.4223C41.0113 11.1474 40.5467 11 40.0705 11C39.5943 11 39.1297 11.1474 38.7397 11.4223C38.3497 11.6972 38.0531 12.0861 37.8904 12.5364L31.7413 28.1177C31.5846 28.5429 31.3082 28.913 30.9458 29.1827C30.5835 29.4524 30.1509 29.6101 29.7009 29.6364L13.2102 30.7051C11.0581 30.8458 10.2196 33.6302 11.8686 35.0083L24.5022 45.6114C24.8553 45.9052 25.1187 46.2934 25.2621 46.7313C25.4055 47.1692 25.4231 47.6389 25.3127 48.0864L21.5394 63.0489C20.8966 65.5802 23.5798 67.6333 25.732 66.2552L38.8407 57.902C39.2083 57.6668 39.6349 57.5419 40.0705 57.5419C40.5061 57.5419 40.9327 57.6668 41.3003 57.902V57.902Z" stroke="#AFB6C2" stroke-width="0.822375" stroke-linecap="round" stroke-linejoin="round"/>
</g>
<defs>
<filter id="filter0_d_750_21263" x="0.722075" y="0.720304" width="78.697" height="76.8375" filterUnits="userSpaceOnUse" color-interpolation-filters="sRGB">
<feFlood flood-opacity="0" result="BackgroundImageFix"/>
<feColorMatrix in="SourceAlpha" type="matrix" values="0 0 0 0 0 0 0 0 0 0 0 0 0 0 0 0 0 0 127 0" result="hardAlpha"/>
<feOffset/>
<feGaussianBlur stdDeviation="4.93425"/>
<feComposite in2="hardAlpha" operator="out"/>
<feColorMatrix type="matrix" values="0 0 0 0 0.708333 0 0 0 0 0.708333 0 0 0 0 0.135764 0 0 0 1 0"/>
<feBlend mode="normal" in2="BackgroundImageFix" result="effect1_dropShadow_750_21263"/>
<feBlend mode="normal" in="SourceGraphic" in2="effect1_dropShadow_750_21263" result="shape"/>
</filter>
</defs>
</svg>
