<svg width="35" height="34" viewBox="0 0 35 34" fill="none" xmlns="http://www.w3.org/2000/svg">
<g filter="url(#filter0_d_168_73199)">
<path d="M16.9194 3H29.8386V5H16.9194V3ZM16.9194 21H29.8386V23H16.9194V21ZM5.98769 12H18.9069V14H5.98769V12ZM8.96905 8C8.18284 8 7.41429 7.76541 6.76058 7.32588C6.10686 6.88635 5.59736 6.26164 5.29649 5.53074C4.99562 4.79983 4.9169 3.99556 5.07028 3.21964C5.22366 2.44372 5.60226 1.73098 6.15819 1.17157C6.71413 0.612164 7.42243 0.231202 8.19354 0.0768607C8.96464 -0.0774802 9.76392 0.00173312 10.4903 0.304484C11.2166 0.607234 11.8375 1.11992 12.2743 1.77772C12.7111 2.43552 12.9442 3.20888 12.9442 4C12.9442 5.06087 12.5254 6.07828 11.7799 6.82843C11.0344 7.57857 10.0233 8 8.96905 8ZM8.96905 2C8.57595 2 8.19167 2.1173 7.86481 2.33706C7.53796 2.55683 7.28321 2.86918 7.13277 3.23463C6.98234 3.60009 6.94298 4.00222 7.01967 4.39018C7.09636 4.77814 7.28566 5.13451 7.56362 5.41422C7.84159 5.69392 8.19574 5.8844 8.5813 5.96157C8.96685 6.03874 9.36648 5.99914 9.72967 5.84776C10.0928 5.69639 10.4033 5.44004 10.6217 5.11114C10.8401 4.78224 10.9566 4.39556 10.9566 4C10.9566 3.46957 10.7472 2.96086 10.3745 2.58579C10.0017 2.21072 9.49619 2 8.96905 2ZM8.96905 26C8.18284 26 7.41429 25.7654 6.76058 25.3259C6.10686 24.8864 5.59736 24.2616 5.29649 23.5307C4.99562 22.7998 4.9169 21.9956 5.07028 21.2196C5.22366 20.4437 5.60226 19.731 6.15819 19.1716C6.71413 18.6122 7.42243 18.2312 8.19354 18.0769C8.96464 17.9225 9.76392 18.0017 10.4903 18.3045C11.2166 18.6072 11.8375 19.1199 12.2743 19.7777C12.7111 20.4355 12.9442 21.2089 12.9442 22C12.9442 23.0609 12.5254 24.0783 11.7799 24.8284C11.0344 25.5786 10.0233 26 8.96905 26ZM8.96905 20C8.57595 20 8.19167 20.1173 7.86481 20.3371C7.53796 20.5568 7.28321 20.8692 7.13277 21.2346C6.98234 21.6001 6.94298 22.0022 7.01967 22.3902C7.09636 22.7781 7.28566 23.1345 7.56362 23.4142C7.84159 23.6939 8.19574 23.8844 8.5813 23.9616C8.96685 24.0387 9.36648 23.9991 9.72967 23.8478C10.0928 23.6964 10.4033 23.44 10.6217 23.1111C10.8401 22.7822 10.9566 22.3956 10.9566 22C10.9566 21.4696 10.7472 20.9609 10.3745 20.5858C10.0017 20.2107 9.49619 20 8.96905 20ZM26.8573 17C26.071 17 25.3025 16.7654 24.6488 16.3259C23.9951 15.8864 23.4856 15.2616 23.1847 14.5307C22.8838 13.7998 22.8051 12.9956 22.9585 12.2196C23.1119 11.4437 23.4905 10.731 24.0464 10.1716C24.6023 9.61216 25.3106 9.2312 26.0817 9.07686C26.8528 8.92252 27.6521 9.00173 28.3785 9.30448C29.1048 9.60723 29.7257 10.1199 30.1625 10.7777C30.5993 11.4355 30.8324 12.2089 30.8324 13C30.8324 14.0609 30.4136 15.0783 29.6681 15.8284C28.9226 16.5786 27.9115 17 26.8573 17ZM26.8573 11C26.4641 11 26.0799 11.1173 25.753 11.3371C25.4262 11.5568 25.1714 11.8692 25.021 12.2346C24.8705 12.6001 24.8312 13.0022 24.9079 13.3902C24.9846 13.7781 25.1739 14.1345 25.4518 14.4142C25.7298 14.6939 26.0839 14.8844 26.4695 14.9616C26.855 15.0387 27.2547 14.9991 27.6179 14.8478C27.981 14.6964 28.2915 14.44 28.5099 14.1111C28.7283 13.7822 28.8448 13.3956 28.8448 13C28.8448 12.4696 28.6354 11.9609 28.2627 11.5858C27.8899 11.2107 27.3844 11 26.8573 11Z" fill="#263238"/>
</g>
<defs>
<filter id="filter0_d_168_73199" x="0.993896" y="0" width="33.8386" height="34" filterUnits="userSpaceOnUse" color-interpolation-filters="sRGB">
<feFlood flood-opacity="0" result="BackgroundImageFix"/>
<feColorMatrix in="SourceAlpha" type="matrix" values="0 0 0 0 0 0 0 0 0 0 0 0 0 0 0 0 0 0 127 0" result="hardAlpha"/>
<feOffset dy="4"/>
<feGaussianBlur stdDeviation="2"/>
<feComposite in2="hardAlpha" operator="out"/>
<feColorMatrix type="matrix" values="0 0 0 0 0 0 0 0 0 0 0 0 0 0 0 0 0 0 0.25 0"/>
<feBlend mode="normal" in2="BackgroundImageFix" result="effect1_dropShadow_168_73199"/>
<feBlend mode="normal" in="SourceGraphic" in2="effect1_dropShadow_168_73199" result="shape"/>
</filter>
</defs>
</svg>
