<svg width="81" height="80" viewBox="0 0 81 80" fill="none" xmlns="http://www.w3.org/2000/svg">
<path fill-rule="evenodd" clip-rule="evenodd" d="M78.9672 39.495C78.9672 43.3441 78.4822 47.0258 77.5121 50.4565C75.5719 57.4853 71.8532 63.6773 66.7602 68.5305C63.2032 71.9612 58.9186 74.7225 54.2298 76.5634C50.0261 78.2369 45.4181 79.1573 40.6485 79.1573C40.0018 79.1573 39.2742 79.1574 38.6275 79.0737C37.6574 78.99 36.6064 78.9063 35.6364 78.8226C28.2798 77.8185 21.4891 74.6389 16.0728 69.8693C14.0518 68.1121 12.1924 66.1039 10.4948 63.9283C9.28214 62.3385 8.15036 60.5813 7.18027 58.7404C6.93774 58.3221 6.69522 57.82 6.4527 57.4016C6.21018 56.8996 5.96766 56.4812 5.80598 55.9791C5.15925 54.473 4.59336 52.8831 4.10831 51.2933C3.78495 50.1218 3.46158 48.9504 3.21906 47.7789C3.05737 46.9421 2.89569 46.1054 2.81485 45.185C2.57233 43.3441 2.41064 41.5032 2.41064 39.5787C2.41064 38.4909 2.41065 37.4031 2.57234 36.3153C2.65318 35.6459 2.65317 34.9765 2.81485 34.3071C3.2999 30.3743 4.35082 26.6926 5.8868 23.2619C6.61437 21.5884 7.50364 19.9149 8.47373 18.4087C10.0906 15.8147 11.9499 13.3881 14.1326 11.2126C21.0041 4.26747 30.4625 0 40.8102 0C41.2144 0 41.6186 0 42.0228 0C42.427 0 42.9121 1.91394e-06 43.3163 0.0836778C45.499 0.251029 47.6817 0.585733 49.7027 1.08779C50.9153 1.42249 52.128 1.75719 53.2597 2.17557C54.0681 2.4266 54.7957 2.7613 55.6041 3.09601C56.17 3.34703 56.7359 3.59806 57.3018 3.84909C57.3826 3.93277 57.4634 3.93277 57.6251 4.01644C61.3438 5.85731 64.7392 8.36758 67.6495 11.3799C68.0537 11.7983 68.4579 12.2167 68.8621 12.6351C69.1046 12.9698 69.428 13.2208 69.6705 13.5555C70.1555 14.0575 70.5597 14.6433 70.9639 15.1453C72.4999 17.1535 73.7934 19.3291 74.9252 21.5884C76.2186 24.266 77.2695 27.111 77.9971 30.0396C78.563 33.052 78.9672 36.2316 78.9672 39.495Z" fill="url(#paint0_radial_168_73050)"/>
<path opacity="0.4" fill-rule="evenodd" clip-rule="evenodd" d="M2.32983 39.4949C2.32983 39.4949 11.384 56.0628 20.1149 58.6567C28.8457 61.2507 38.7892 59.5771 42.1845 60.916C45.5799 62.2548 47.4392 67.61 47.4392 67.61L48.7326 68.3631C48.7326 68.3631 51.6429 63.6773 53.4214 66.4386C53.4214 66.4386 52.6939 62.5058 54.8766 57.7363C57.0593 52.9668 58.4336 47.8625 61.1013 46.189C63.7691 44.5155 68.6196 43.7624 72.5 45.3523C76.3803 46.9421 78.3205 46.6074 78.3205 46.6074L78.6439 44.7665L78.9672 43.093C78.9672 43.093 75.2485 43.6787 72.3383 41.7542C72.3383 41.7542 72.7425 42.5073 75.006 38.0725C77.2696 33.6376 77.027 29.6212 77.027 29.6212L76.7037 25.9395C76.7037 25.9395 75.4911 38.7419 70.2364 42.4236C70.2364 42.4236 58.5953 39.9133 53.664 54.1382C53.664 54.1382 52.8555 63.5936 47.9242 63.3426C43.0738 63.0915 44.7714 56.8995 37.6574 56.8158C30.6242 56.7322 26.3397 59.7445 19.3873 55.6444C12.435 51.5443 2.32983 39.4949 2.32983 39.4949Z" fill="#7D72B3"/>
<path opacity="0.4" fill-rule="evenodd" clip-rule="evenodd" d="M38.628 79.0736C38.628 79.0736 43.4785 71.6265 48.7331 71.6265C54.0687 71.6265 56.4939 73.6347 60.6976 71.1244C64.9014 68.6141 66.599 67.0243 68.5392 65.6855C70.4794 64.3467 70.8028 63.9283 70.8028 63.9283L71.692 62.7568C71.692 62.7568 68.7818 61.2507 66.1949 63.4262C63.6079 65.6018 58.9191 70.5387 55.2004 70.455C51.4817 70.455 51.6434 68.1958 47.5205 69.9529C43.3168 71.7101 34.5859 77.8185 34.5859 77.8185C34.5859 77.8185 36.1219 78.9899 38.628 79.0736Z" fill="#7D72B3"/>
<path opacity="0.4" fill-rule="evenodd" clip-rule="evenodd" d="M4.4314 52.4648L4.91645 53.8037C4.91645 53.8037 12.3538 58.0711 17.1235 64.0121C21.8123 69.9531 22.7015 73.9695 22.7015 73.9695C22.7015 73.9695 23.5099 70.4552 19.4679 63.7611C15.345 57.1507 6.61411 53.469 4.4314 52.4648Z" fill="#7D72B3"/>
<path fill-rule="evenodd" clip-rule="evenodd" d="M57.4634 3.84904C57.3018 3.84904 57.2209 3.84904 57.0592 3.93271C56.655 4.01639 56.2508 3.93271 55.8466 3.84904C55.5233 3.76536 55.3616 3.59801 54.9574 3.59801C54.4723 3.51433 54.0681 3.34698 53.5831 3.26331C53.098 3.17963 52.6938 3.01228 52.2088 2.84493C51.8046 2.67758 51.6429 2.76125 51.3195 2.84493C50.9962 2.9286 50.7537 2.76125 50.4303 2.67757C50.1069 2.51022 49.7027 2.51022 49.3793 2.42655C48.4092 2.2592 47.4392 1.92449 46.4691 1.67346C45.9032 1.50611 45.3373 1.50611 44.6905 1.50611C44.2055 1.50611 43.8013 1.67346 43.3163 1.67346C42.9929 1.67346 42.7504 1.58979 42.427 1.58979C42.1036 1.50611 41.7803 1.58979 41.4569 1.58979C40.9719 1.50611 40.7293 1.42244 40.2443 1.58979C39.8401 1.67346 39.5976 1.67347 39.1934 1.75714C38.7892 1.75714 38.3041 1.92449 37.8999 2.00817C37.1723 2.17552 36.3639 2.34287 35.6364 2.34287C35.1513 2.34287 34.5046 2.17552 34.1004 2.34287C33.8579 2.42655 33.6962 2.76125 33.4536 2.9286C33.0494 3.34698 32.6452 3.68169 32.3219 4.10006C31.9985 4.51844 31.6751 5.0205 31.6751 5.60623C31.6751 6.10828 31.9177 6.69402 32.1602 7.11239C32.4027 7.61445 32.4836 8.03283 31.9985 8.36753C31.4326 8.78591 30.7051 9.12062 30.0583 9.37164C29.5733 9.53899 29.1691 9.62267 28.8457 9.28797C28.684 9.20429 28.6032 8.95326 28.4415 8.78591C28.2798 8.70224 28.0373 8.78591 27.8756 8.86959C27.3906 9.03694 26.9055 9.20429 26.4205 9.28797C26.0971 9.37164 25.8546 9.53899 25.5312 9.53899C25.2078 9.62267 24.9653 9.37164 24.5611 9.45532C24.0761 9.539 23.5102 9.79002 23.0251 9.79002C22.6209 9.79002 22.1359 9.62267 21.8125 9.45532C21.6508 9.37164 21.57 9.20429 21.3275 9.28797C21.1658 9.28797 20.9233 9.539 20.8424 9.70635C20.6807 9.8737 20.6807 10.1247 20.5191 10.2921C20.3574 10.5431 20.2765 10.7105 20.1148 10.9615C19.8723 11.3799 19.6298 11.7982 19.3873 12.2166C19.2256 12.4676 19.0639 12.886 18.8214 13.1371C18.7405 13.3044 18.498 13.3881 18.3364 13.4718C17.9322 13.7228 17.5279 14.0575 17.1237 14.3085C16.3962 14.8942 15.6686 15.5637 14.941 16.1494C14.3751 16.5678 13.5667 16.8188 12.92 17.1535C12.5158 17.3208 12.1116 17.4882 11.7074 17.6556C11.5457 17.7392 11.3032 17.7392 11.2223 17.9066C11.0606 18.0739 10.9798 18.2413 10.899 18.4923C10.5756 18.9107 10.1714 19.4127 9.92886 19.9148C9.76718 20.2495 9.68634 20.5005 9.52465 20.8352C9.36297 21.2536 9.12047 21.672 9.03963 22.174C8.71626 23.0945 8.71624 24.0986 8.31204 25.019C8.15036 25.5211 7.827 26.0231 7.58447 26.5252C7.18027 27.362 7.09944 28.3661 7.0186 29.2865C6.93776 29.7886 7.01858 30.458 7.09942 30.96C7.18026 31.5457 7.18027 32.1315 7.18027 32.7172C7.18027 33.3029 6.77607 33.9723 6.4527 34.3907C6.12934 34.8091 5.56344 34.9765 5.15924 35.3948C4.83587 35.7295 4.43166 36.0642 4.26998 36.5663C4.18914 36.7337 4.26998 36.9847 4.26998 37.2357C4.18914 37.7378 4.02747 38.1561 4.02747 38.6582C3.94663 39.2439 3.94662 39.8297 3.94662 40.4991C3.94662 40.8338 3.94662 41.0848 3.94662 41.4195C3.94662 41.7542 4.02747 42.0052 4.10831 42.2563C4.10831 42.4236 4.10831 42.6746 4.10831 42.842C4.10831 43.093 4.26998 43.344 4.26998 43.5114C4.43166 44.0971 4.51252 44.5992 4.59336 45.1849C4.67421 45.687 4.91673 46.189 4.99757 46.6911C5.24009 47.3605 5.32092 48.0299 5.4826 48.783C5.56344 49.285 5.56345 49.8708 5.64429 50.3728C5.72513 50.7912 5.80598 51.2096 5.80598 51.628C5.80598 52.2974 5.64429 52.8831 5.64429 53.5525C5.64429 54.6403 6.04849 55.7281 6.29101 56.8159C6.37185 57.1506 6.45271 57.4016 6.53355 57.7363C3.86579 52.381 2.41064 46.2727 2.41064 39.8297C2.41064 31.9641 4.59335 24.6843 8.39288 18.576C10.0097 15.982 11.8691 13.5554 14.0518 11.4635C20.9233 4.51845 30.3817 0.250977 40.7293 0.250977C41.5378 0.250977 42.427 0.250975 43.2354 0.334651C48.2476 0.250975 53.098 1.67347 57.4634 3.84904Z" fill="url(#paint1_linear_168_73050)"/>
<path opacity="0.4" fill-rule="evenodd" clip-rule="evenodd" d="M11.7073 17.3209C11.7073 17.3209 20.3573 25.2701 31.675 25.5211C43.0736 25.7721 47.2774 24.9354 51.0769 20.5842C54.8765 16.2331 58.9185 8.86963 58.9185 8.86963C58.9185 8.86963 54.068 11.2962 50.6727 16.0658C47.3582 20.7516 31.5134 28.7845 11.7073 17.3209Z" fill="#7D72B3"/>
<g opacity="0.25">
<path opacity="0.4" fill-rule="evenodd" clip-rule="evenodd" d="M12.4347 17.4885C11.303 18.911 10.3329 20.2498 9.60531 21.9233C8.95858 23.3458 8.71606 25.0193 8.47354 26.6092C8.31185 27.5296 8.23101 28.45 8.06933 29.4542C7.98849 30.2909 7.74598 31.1277 7.82682 31.9644C7.9885 33.1359 8.06934 34.391 8.63523 35.3951C9.20112 36.4829 9.767 37.487 10.4946 38.4911C11.2221 39.4116 12.1114 39.9136 13.324 39.9973C13.9707 40.081 14.6175 39.9136 15.2642 39.9973C16.1534 40.081 17.0427 40.2483 17.932 40.4157C19.7105 40.7504 21.7315 40.7504 23.0249 39.2442C24.0759 37.9891 24.5609 36.4829 25.2077 34.9768C25.9352 33.3869 26.8245 32.1318 28.1179 31.044C29.088 30.2909 29.9773 29.3705 30.8665 28.5337C31.2707 28.199 31.5133 27.7806 31.9983 27.4459C32.4834 27.1949 32.7259 26.8602 33.1301 26.4418C33.5343 26.1071 33.9385 25.8561 34.2619 25.4377C34.8277 24.7683 35.2319 23.9315 35.4745 23.1785C35.7978 22.3417 35.8787 21.5049 36.0404 20.5845C36.1212 19.7478 35.8787 18.911 35.6362 18.0742C35.1511 16.5681 33.8577 15.564 32.7259 14.6435C31.2707 13.4721 29.4922 12.97 27.7137 12.5516C26.0969 12.2169 24.0759 12.1333 22.3782 12.468C20.5997 12.8027 18.8212 13.0537 17.2044 13.8068C15.9918 14.3925 15.2642 15.1456 14.2941 16.066C13.8091 16.4844 13.2432 16.8191 12.7581 17.3212C12.1922 17.9906 11.6263 18.7436 12.4347 17.4885Z" fill="black"/>
<path opacity="0.4" fill-rule="evenodd" clip-rule="evenodd" d="M29.7344 10.1247C29.9769 9.70633 30.2194 9.03693 30.5428 8.70222C30.7045 8.4512 30.947 8.28384 31.1895 8.11649C31.8363 7.53076 32.5638 7.11238 33.3722 6.86135C33.8573 6.694 34.3423 6.694 34.7465 6.86135C35.2316 6.94503 36.04 7.27973 36.3634 7.61444C37.0101 8.28384 36.6059 9.37163 36.3634 10.1247C36.2017 10.8778 35.9592 11.6309 35.3124 12.0493C34.9082 12.384 34.3423 12.635 33.8573 12.7187C33.6148 12.8023 33.2914 12.8023 32.968 12.8023C32.7255 12.8023 32.483 12.886 32.3213 12.886C31.7554 12.886 30.947 12.4676 30.7853 11.9656C30.7045 11.7146 30.6236 11.3799 30.462 11.1288C30.3811 10.8778 30.3003 10.7104 30.2194 10.4594C30.0577 10.041 29.9769 9.62266 29.7344 10.1247Z" fill="black"/>
<path opacity="0.4" fill-rule="evenodd" clip-rule="evenodd" d="M36.1212 14.3091C35.9595 14.7275 35.8787 15.2295 35.8787 15.6479C36.0403 15.7316 36.1212 15.9826 36.3637 16.15C36.5254 16.2336 36.7679 16.2336 37.0104 16.2336C37.4146 16.2336 37.738 16.2336 37.8188 15.7316C37.8997 15.3132 37.4955 14.9785 37.1721 14.7275C36.9296 14.5601 36.5254 14.1417 36.2829 14.4764L36.1212 14.3091Z" fill="black"/>
<path opacity="0.4" fill-rule="evenodd" clip-rule="evenodd" d="M41.3758 20.7517C40.8908 21.0864 40.3249 21.4211 39.8398 21.8395C39.2739 22.3416 38.7889 22.9273 38.3038 23.5967C37.738 24.3498 37.0104 25.1865 37.1721 26.2743C37.3338 27.2784 37.6571 28.1989 38.3847 28.8683C39.2739 29.705 40.6483 29.705 41.6992 30.2071C42.5884 30.6255 43.1543 31.5459 43.5585 32.4663C44.2053 33.8052 45.6604 34.0562 46.9539 34.3072C47.7623 34.4746 48.6515 34.5582 49.4599 34.7256C50.5917 34.8929 51.7235 35.0603 52.8553 35.2276C54.9571 35.395 57.059 35.8971 59.1609 35.7297C61.4244 35.5624 63.4455 34.7256 65.224 33.3868C66.7599 32.299 68.2151 30.2908 68.6193 28.3662C69.0235 26.358 68.3768 24.0988 67.4875 22.2579C66.2749 19.915 64.8198 17.8231 63.2029 15.7312C62.3137 14.5597 61.3436 13.5556 60.3735 12.4678C59.5651 11.4637 58.7566 10.6269 57.8674 9.79019C55.7655 7.94932 53.1786 6.44315 50.43 6.2758C49.3791 6.19213 48.3282 6.35948 47.2772 6.77786C46.388 7.11256 45.7412 7.61462 45.0945 8.3677C43.4777 10.1249 42.5884 12.3841 41.8609 14.6434C41.5375 15.7312 41.2141 16.9026 41.3758 17.9904C41.3758 18.3251 41.6183 18.5761 41.6183 18.9109C41.6183 19.2456 41.6183 19.4966 41.6183 19.8313C41.6183 19.9986 41.6183 20.166 41.5375 20.3333C41.4567 20.5007 41.2141 20.7517 41.3758 20.7517Z" fill="black"/>
<path opacity="0.4" fill-rule="evenodd" clip-rule="evenodd" d="M32.645 28.6173C31.5941 29.2867 30.4623 29.7888 29.6539 30.7929C29.4922 30.9602 29.3306 31.2112 29.4114 31.4623C29.4922 31.7133 29.8156 31.8807 30.0581 31.9643C30.8665 32.299 31.8366 32.4664 32.7259 32.299C33.5343 32.1317 34.5044 31.6296 34.9086 30.8765C35.4745 29.9561 34.8278 28.4499 33.696 28.5336C33.5343 28.5336 33.3726 28.6173 33.2109 28.6173C33.0493 28.6173 32.9684 28.6173 32.8067 28.6173C32.645 28.6173 32.6451 28.6173 32.4834 28.701C32.3217 28.8683 32.16 29.0357 32.645 28.6173Z" fill="black"/>
<path opacity="0.4" fill-rule="evenodd" clip-rule="evenodd" d="M10.4944 43.9298C10.0902 44.3481 9.60514 44.6829 9.36262 45.1849C9.12009 45.687 8.95841 46.189 8.87756 46.7748C8.79672 47.2768 8.63504 47.7789 8.79672 48.2809C8.87756 48.6993 9.12009 49.1177 9.28177 49.6197C9.44345 50.2055 9.68598 50.7075 9.76682 51.2932C9.9285 52.0463 10.171 52.6321 10.4944 53.3015C10.8178 53.9709 11.1411 54.5566 11.5453 55.1423C11.9495 55.8117 12.3537 56.2301 12.8388 56.8159C14.6173 58.6567 16.7191 60.6649 19.3061 60.9996C20.5995 61.167 21.9738 60.8323 22.9439 59.8282C23.9949 58.7404 24.6416 57.2342 24.8841 55.7281C25.0458 54.4729 24.965 53.1341 24.3182 52.0463C23.7523 51.1259 23.1864 50.2055 22.5397 49.4524C22.0547 48.9503 21.5696 48.5319 21.0037 48.0299C20.5187 47.5278 20.0336 47.0258 19.4678 46.6911C18.4977 45.938 17.6084 45.1849 16.6383 44.5155C15.7491 43.8461 14.779 43.1767 13.728 42.9257C13.0005 42.7583 12.1921 42.591 11.4645 42.9257C11.1411 43.093 10.8986 43.1767 10.7369 43.4277C10.6561 43.5951 10.4944 43.8461 10.4944 44.0134C10.3327 43.8461 10.2519 43.8461 10.4944 43.9298Z" fill="black"/>
<path opacity="0.4" fill-rule="evenodd" clip-rule="evenodd" d="M17.2851 42.1726C17.2851 42.5073 17.366 42.842 17.366 43.0931C17.366 43.1767 17.4468 43.2604 17.4468 43.4278C17.5276 43.5114 17.7702 43.5114 17.851 43.5114C18.1744 43.5114 18.4977 43.3441 18.7403 43.1767C19.1445 42.842 19.3061 42.1726 18.9019 41.8379C18.6594 41.5869 18.2552 41.4195 17.851 41.5032C17.6893 41.5869 16.8001 42.0053 17.1234 42.34L17.2851 42.1726Z" fill="black"/>
<path opacity="0.4" fill-rule="evenodd" clip-rule="evenodd" d="M68.5383 33.4705C68.7 32.8011 68.7 32.299 69.1042 31.797C69.5084 31.3786 69.9127 30.8765 70.236 30.4582C70.8828 29.6214 71.2869 28.5336 71.5295 27.5295C71.772 26.6091 71.5295 25.6886 71.9337 24.7682C72.0145 24.5172 72.1762 24.1825 72.3379 24.0151C72.4996 23.9315 72.9846 24.0151 73.1463 24.0988C73.308 24.1825 73.5505 24.4335 73.7122 24.6009C73.9547 24.8519 74.1972 25.1029 74.5206 25.4376C75.8141 26.8601 76.5416 29.0357 76.4608 30.9602C76.4608 32.1317 76.2991 33.1358 75.9757 34.2236C75.814 34.642 75.6524 35.0603 75.4098 35.4787C75.1673 35.9808 74.7631 36.2318 74.3589 36.5665C73.0654 37.4033 71.1252 37.1522 69.9935 36.0644C69.5893 35.6461 69.4276 35.144 69.1042 34.642C68.8617 34.3073 68.7 33.9726 68.6192 33.4705C68.6192 33.3868 68.6192 33.3868 68.5383 33.4705Z" fill="black"/>
<path opacity="0.4" fill-rule="evenodd" clip-rule="evenodd" d="M68.5383 18.5761C68.7809 19.3292 68.8617 20.1659 69.6701 20.5843C69.8318 20.668 70.0743 20.7516 70.236 20.7516C70.3977 20.7516 70.5594 20.668 70.7211 20.5006C71.5295 19.9149 71.0444 18.4924 70.5594 17.823C70.236 17.4883 69.8318 17.3209 69.4276 17.1536C69.2659 17.0699 69.2659 17.0699 69.1042 17.1536C68.9425 17.2373 68.8617 17.2373 68.7808 17.4046C68.7 17.4883 68.7 17.7393 68.7 17.823C68.7 17.9903 68.6192 18.074 68.6192 18.1577C68.5384 18.4087 68.6192 18.6597 68.7 18.9108L68.5383 18.5761Z" fill="black"/>
<path opacity="0.4" fill-rule="evenodd" clip-rule="evenodd" d="M62.5561 50.7912C62.3944 51.2933 62.2327 51.879 61.9902 52.3811C61.7477 52.9668 61.5051 53.4688 61.2626 54.0546C60.6967 55.4771 60.3734 57.0669 59.9692 58.5731C59.565 60.1629 59.3225 61.8364 59.1608 63.4263C59.0799 64.263 58.9182 65.0998 58.9991 65.9365C58.9991 66.5223 58.9991 67.2754 59.2416 67.8611C59.4033 68.1958 59.7266 68.7815 60.05 68.9489C60.5351 69.1999 61.1009 68.7815 61.5051 68.5305C63.0411 67.6937 64.4154 66.5223 65.6281 65.2671C66.8407 64.012 68.0533 62.8405 69.1042 61.418C69.5893 60.7486 70.0743 60.1629 70.4785 59.4098C70.8019 58.8241 71.0444 58.1547 71.2869 57.569C71.5295 56.9832 71.772 56.3975 72.0145 55.8118C72.3378 55.1424 72.5804 54.3893 72.8229 53.6362C73.2271 52.2137 73.6313 50.7912 73.1463 49.3687C72.7421 48.1136 71.772 47.1931 70.4785 46.9421C69.8318 46.7748 69.0234 46.6074 68.3766 46.6074C67.7299 46.6911 67.0023 46.8584 66.3556 47.1095C65.7897 47.3605 65.2238 47.6115 64.7388 47.9462C64.4963 48.1136 64.2538 48.3646 64.0112 48.6156C63.607 49.034 63.2837 49.4524 62.9603 49.9545C62.7986 50.2055 62.7178 50.3728 62.4752 50.5402C62.3944 50.9586 62.2327 51.3769 62.5561 50.7912Z" fill="black"/>
<path opacity="0.4" fill-rule="evenodd" clip-rule="evenodd" d="M56.4928 69.1167C55.6843 69.4514 55.0376 69.7024 54.31 70.2882C53.5016 70.9576 52.6932 71.5433 52.1273 72.4637C51.8848 72.7984 51.4806 73.3005 51.8039 73.7189C52.0465 74.0536 52.5315 74.0536 52.9357 74.0536C53.5016 74.0536 54.0675 73.9699 54.5526 73.7189C55.0376 73.5515 55.4418 73.2168 55.9269 73.0495C56.4119 72.8821 57.0586 72.5474 57.382 72.129C57.5437 71.878 57.7053 71.5433 57.867 71.2923C58.0287 71.0412 58.0287 70.9576 58.0287 70.6229C58.0287 70.2882 57.7862 69.8698 57.6245 69.7024C57.4628 69.5351 57.0586 69.2841 56.8161 69.3677C56.6544 69.3677 56.4927 69.4514 56.3311 69.5351C56.0077 69.5351 55.7652 69.9535 56.4928 69.1167Z" fill="black"/>
<path opacity="0.4" fill-rule="evenodd" clip-rule="evenodd" d="M55.5231 64.2633C55.3614 63.5939 55.1997 63.1755 55.1997 62.5061C55.2805 61.9203 55.2806 61.4183 55.5231 60.9162C55.6848 60.6652 56.0081 59.9958 56.2506 59.9121C56.3315 59.9121 56.574 59.9121 56.6548 59.9121C57.059 59.9958 57.3016 60.4978 57.3824 60.9162C57.5441 61.502 57.3824 62.1714 57.4632 62.8408C57.4632 63.3428 57.3824 63.7612 57.2207 64.1796C57.0591 64.5143 56.8166 64.5143 56.4932 64.5143C56.1698 64.5143 56.0081 64.4306 55.7656 64.1796C55.6848 64.0959 55.5231 64.0959 55.4422 64.0122C55.2805 63.8449 55.2806 63.6775 55.5231 64.2633Z" fill="black"/>
<path opacity="0.4" fill-rule="evenodd" clip-rule="evenodd" d="M54.7953 39.1603C54.7144 39.5787 54.7144 40.0808 54.7144 40.4991C54.8761 40.4991 55.0378 40.8338 55.1995 40.8338C55.5228 40.9175 55.7654 40.7502 56.0079 40.5828C56.4929 40.1644 56.6546 39.4113 56.493 38.8256C56.4121 38.2399 55.7654 38.1562 55.2803 38.2399C55.1187 38.2399 54.8761 38.3236 54.7953 38.4072C54.4719 38.6583 54.4719 38.993 54.4719 39.3277L54.7953 39.1603Z" fill="black"/>
<path opacity="0.4" fill-rule="evenodd" clip-rule="evenodd" d="M18.2555 66.4385C18.498 65.9364 18.7406 65.4344 19.0639 65.016C19.4681 64.5139 19.8723 64.0956 20.2766 63.6772C20.8424 63.1751 21.4083 62.6731 21.9742 62.2547C22.5401 61.8363 23.0252 61.4179 23.591 60.9996C24.5611 60.3302 25.6121 59.9118 26.7438 59.4934C27.6331 59.1587 28.6032 59.075 29.5733 59.2424C30.5434 59.4097 31.5135 59.9954 32.1602 60.6649C32.8069 61.3343 33.5345 62.171 33.9387 63.0078C34.828 64.765 34.4237 66.7732 33.8579 68.5304C33.6153 69.3671 33.0495 70.2876 32.4027 70.8733C31.9985 71.208 31.5943 71.3754 31.1093 71.459C30.6242 71.5427 29.9775 71.7937 29.4924 71.7937C27.148 72.1284 24.8037 71.9611 22.6209 71.1243C21.7317 70.7896 20.9233 70.3713 20.034 69.9529C19.3873 69.6182 18.8214 69.1998 18.4172 68.6141C18.0938 68.1957 17.8513 67.61 17.8513 67.0242C17.8513 66.7732 17.9321 66.5222 18.013 66.2711C18.1747 66.4385 18.2555 66.3548 18.2555 66.4385Z" fill="black"/>
<path opacity="0.4" fill-rule="evenodd" clip-rule="evenodd" d="M35.5553 67.5268C35.3936 67.9452 35.3128 68.4472 35.2319 68.8656C35.3936 68.9493 35.3936 69.2003 35.4744 69.3677C35.6361 69.535 35.717 69.6187 35.9595 69.6187C36.202 69.6187 36.4445 69.6187 36.6062 69.6187C36.9296 69.535 37.0104 69.4514 37.1721 69.2003C37.3338 68.9493 37.4146 68.7819 37.4146 68.4472C37.4146 68.1962 37.3338 67.9452 37.1721 67.7778C37.0913 67.6105 36.9296 67.4431 36.7679 67.3595C36.4445 67.1084 36.202 67.2758 35.9595 67.4431L35.5553 67.5268Z" fill="black"/>
<path opacity="0.4" fill-rule="evenodd" clip-rule="evenodd" d="M73.3891 46.8585C73.0657 46.6075 72.7424 46.2728 72.4998 45.8544C72.4998 45.6871 72.4998 45.5197 72.4998 45.3524C72.419 44.934 72.3381 44.5993 72.419 44.1809C72.5807 43.1768 73.3891 42.5074 74.3592 42.4237C75.0059 42.34 75.8952 42.8421 76.2185 43.4278C76.5419 44.0135 76.7036 44.683 76.7036 45.3524C76.7036 45.8544 76.6228 46.5238 76.2994 46.9422C76.0569 47.2769 75.6527 47.2769 75.3293 47.2769C74.9251 47.2769 74.5209 47.1932 74.1975 47.1096C73.8741 47.0259 73.5508 46.8585 73.3891 46.8585Z" fill="black"/>
</g>
<path opacity="0.4" fill-rule="evenodd" clip-rule="evenodd" d="M6.77612 35.2276C6.77612 35.2276 28.199 44.2646 39.8401 43.5952C51.4813 42.8421 56.4126 35.9807 61.1014 29.705C65.7093 23.4294 67.4878 15.8148 67.4878 15.8148C67.4878 15.8148 58.6761 33.3868 47.7626 38.0726L41.457 39.4114C41.457 39.4114 44.7715 36.9012 47.035 34.3072C49.2986 31.7133 58.1103 28.0315 58.9995 25.0192C59.8079 22.0069 59.7271 17.07 61.1822 13.8903C62.6374 10.7106 64.0117 8.11667 64.0117 8.11667L60.2121 7.44727L58.4336 11.7984C58.4336 11.7984 57.9486 18.9945 56.5743 22.8436C55.2 26.7764 41.942 37.4032 38.9509 39.1604C35.9598 40.9176 9.52472 37.1522 6.77612 35.2276Z" fill="#7D72B3"/>
<path opacity="0.4" fill-rule="evenodd" clip-rule="evenodd" d="M45.0954 73.2163C45.1762 73.2163 46.5505 72.5469 46.9548 72.5469C47.1164 72.5469 47.2781 72.7142 47.4398 72.7979C47.844 73.0489 48.0865 73.3 48.0057 73.802C47.9249 74.4714 47.2781 75.3082 46.5505 75.5592C45.6613 75.8939 44.6912 75.4755 44.3678 74.8061C44.0445 74.1367 44.8529 73.0489 45.823 72.9653L45.0954 73.2163Z" fill="#7D72B3"/>
<path fill-rule="evenodd" clip-rule="evenodd" d="M27.1484 33.7212C26.6634 34.6416 25.3699 36.2315 25.7741 37.5703C25.9358 38.156 26.34 38.6581 26.5825 39.2438C27.2293 40.6663 28.5227 42.0888 30.1395 41.0847C31.9989 39.9132 31.1905 37.8213 30.3821 36.3151C30.0587 35.7294 29.6545 35.06 29.0886 34.7253C28.7652 34.5579 28.2802 34.3906 27.9568 34.3069C27.3101 34.0559 27.7143 33.7212 27.1484 33.7212Z" fill="#FF9F84"/>
<path fill-rule="evenodd" clip-rule="evenodd" d="M39.3556 4.60193C39.2747 5.10399 39.2747 5.52237 39.3556 6.02442C39.5172 6.02442 39.5981 6.1081 39.7598 6.1081C39.9214 6.1081 40.1639 6.02442 40.3256 5.85707C40.649 5.68972 40.7298 5.27134 40.7298 4.93664C40.7298 4.60193 40.7298 4.26723 40.4065 4.09988C40.0023 3.84885 39.5981 4.0162 39.4364 4.43458V4.60193H39.3556Z" fill="#FFEF84"/>
<path fill-rule="evenodd" clip-rule="evenodd" d="M31.2713 47.6951C31.3521 47.4441 31.4329 46.6073 31.6755 46.2726C31.8371 46.0216 32.2413 45.8542 32.5647 45.6869C33.2114 45.4359 33.939 45.5195 34.4241 46.0216C35.3941 46.8583 35.3133 48.1972 34.4241 49.1176C34.0198 49.536 33.454 49.9544 32.8881 49.9544C32.5647 49.9544 32.2413 50.038 31.9988 49.8707C31.6755 49.7033 31.4329 49.3686 31.3521 49.0339C31.1904 48.4482 31.2713 48.0298 31.5946 47.5278L31.2713 47.6951Z" fill="#FF9F84"/>
<path fill-rule="evenodd" clip-rule="evenodd" d="M24.2381 47.2769C24.2381 47.6953 23.9956 48.783 24.6424 48.9504C24.9657 49.0341 25.2891 48.6157 25.2891 48.3647C25.3699 48.1136 25.2891 47.6953 25.2083 47.4442C25.0466 47.1095 24.7232 46.8585 24.4807 47.1932H24.2381V47.2769Z" fill="#FF9F84"/>
<path fill-rule="evenodd" clip-rule="evenodd" d="M7.9082 39.5785C7.98904 40.2479 7.98905 41.3356 8.39325 41.9214C8.55494 42.1724 8.71663 42.4234 9.04 42.5071C9.36336 42.5908 9.52504 42.4234 9.68672 42.1724C10.0101 41.754 10.0101 41.503 10.0101 41.0009C10.0101 40.5826 9.8484 40.0805 9.68672 39.6621C9.52504 39.4111 9.2825 39.1601 9.12082 38.9927C8.95914 38.8254 8.79747 38.7417 8.4741 38.7417C8.0699 38.7417 8.15074 39.2438 8.0699 39.5785H7.9082Z" fill="#FF9F84"/>
<path fill-rule="evenodd" clip-rule="evenodd" d="M64.6587 36.3149C64.6587 36.2312 64.7396 35.0598 64.9821 34.8087C65.0629 34.7251 65.3054 34.6414 65.3863 34.5577C65.7096 34.3904 66.1138 34.3067 66.518 34.474C67.0031 34.7251 67.4881 35.4781 67.3264 36.0639C67.1648 36.817 66.3563 37.319 65.7096 37.319C64.982 37.319 64.4162 36.3986 64.8204 35.7292L64.6587 36.3149Z" fill="#FF9F84"/>
<path fill-rule="evenodd" clip-rule="evenodd" d="M25.2891 45.6871C25.2891 45.6871 25.3699 45.1014 25.4508 44.934C25.5316 44.8504 25.6124 44.8504 25.6933 44.8504C25.855 44.7667 26.0975 44.7667 26.2592 44.8504C26.5017 45.0177 26.7442 45.3524 26.6634 45.6871C26.5825 46.0218 26.1783 46.3565 25.855 46.3565C25.5316 46.3565 25.2082 45.8545 25.3699 45.5198L25.2891 45.6871Z" fill="#FF9F84"/>
<path fill-rule="evenodd" clip-rule="evenodd" d="M42.7507 52.9669C42.7507 52.9669 42.8316 52.3812 42.9124 52.2138C42.9933 52.1301 43.0741 52.1301 43.1549 52.1301C43.3166 52.0465 43.5592 52.0465 43.7208 52.1301C43.9634 52.2975 44.2059 52.6322 44.125 52.9669C44.0442 53.3016 43.64 53.6363 43.3166 53.6363C42.9933 53.6363 42.6699 53.1342 42.8316 52.7995L42.7507 52.9669Z" fill="#FF9F84"/>
<path fill-rule="evenodd" clip-rule="evenodd" d="M54.5535 21.0021C54.5535 21.0021 54.6343 20.4163 54.7152 20.249C54.796 20.1653 54.8768 20.1653 54.9577 20.1653C55.1194 20.0816 55.3619 20.0816 55.5236 20.1653C55.7661 20.3326 56.0086 20.6674 55.9278 21.0021C55.8469 21.3368 55.4427 21.6715 55.1194 21.6715C54.796 21.6715 54.4726 21.1694 54.6343 20.8347L54.5535 21.0021Z" fill="#FF9F84"/>
<path fill-rule="evenodd" clip-rule="evenodd" d="M30.5439 67.359C30.5439 67.359 30.6248 66.7732 30.7056 66.6059C30.7865 66.5222 30.8673 66.5222 30.9482 66.5222C31.1098 66.4386 31.3524 66.4386 31.514 66.5222C31.7566 66.6896 31.9991 67.0243 31.9183 67.359C31.8374 67.6937 31.4332 68.0284 31.1098 68.0284C30.7865 68.0284 30.4631 67.5263 30.6248 67.1916L30.5439 67.359Z" fill="#FF9F84"/>
<path fill-rule="evenodd" clip-rule="evenodd" d="M62.1528 46.189C61.5869 46.6073 61.1826 46.7747 60.8593 47.2767C60.6168 47.6951 60.2934 48.0298 60.1317 48.5319C59.9701 48.8666 59.8083 49.4523 59.8083 49.787C59.8892 50.7911 61.1018 49.9544 61.506 49.6197C61.991 49.2013 62.4761 48.6156 62.4761 47.9462C62.4761 47.6951 62.4761 47.3604 62.3953 47.1094C62.3144 47.0257 62.3144 46.8584 62.2336 46.7747C62.0719 46.6073 61.9911 46.6073 62.1528 46.189Z" fill="#FF9F84"/>
<path fill-rule="evenodd" clip-rule="evenodd" d="M74.3597 50.7915C74.4405 50.3731 74.198 51.9629 74.2789 52.0466C74.4406 52.0466 74.6022 52.0466 74.7639 52.0466C74.9256 52.0466 75.0064 51.8793 75.1681 51.7956C75.4915 51.5446 75.734 51.3772 75.734 50.9588C75.734 50.6241 75.6532 50.3731 75.3298 50.2057C75.1681 50.1221 75.0873 50.1221 74.9256 50.1221C74.6022 50.2057 74.3597 50.5405 74.198 50.8752L74.3597 50.7915Z" fill="#FF9F84"/>
<path fill-rule="evenodd" clip-rule="evenodd" d="M41.8615 4.76963C41.8615 4.43493 41.6999 5.60639 41.7807 5.60639C41.8615 5.60639 42.0232 5.60639 42.1041 5.60639C42.2657 5.60639 42.2657 5.52271 42.3466 5.43904C42.5891 5.27169 42.7508 5.18801 42.7508 4.85331C42.7508 4.60228 42.7508 4.43493 42.5083 4.35125C42.4274 4.35125 42.3466 4.26758 42.2657 4.26758C42.0232 4.35125 41.8615 4.5186 41.7807 4.76963H41.8615Z" fill="#FFEF84"/>
<path fill-rule="evenodd" clip-rule="evenodd" d="M62.5569 37.152C62.5569 36.8173 62.3952 37.9887 62.476 37.9887C62.5568 37.9887 62.7185 37.9887 62.7994 37.9887C62.9611 37.9887 62.9611 37.905 63.0419 37.8214C63.2844 37.654 63.4461 37.5703 63.4461 37.2356C63.4461 36.9846 63.4461 36.8173 63.2036 36.7336C63.1228 36.7336 63.0419 36.6499 62.9611 36.6499C62.7186 36.7336 62.5568 36.9009 62.476 37.152H62.5569Z" fill="#FFEF84"/>
<path fill-rule="evenodd" clip-rule="evenodd" d="M40.7298 68.0285C41.0532 68.0285 39.9214 68.0285 39.9214 68.0285C39.9214 68.1122 39.9214 68.2795 39.9214 68.3632C39.9214 68.5306 40.0022 68.5306 40.0831 68.6142C40.2448 68.7816 40.4064 68.9489 40.649 68.9489C40.8915 68.9489 41.0532 68.8653 41.0532 68.6142C41.0532 68.5306 41.134 68.4469 41.0532 68.3632C40.9723 68.1122 40.7298 67.9448 40.5681 67.9448L40.7298 68.0285Z" fill="#FFEF84"/>
<path fill-rule="evenodd" clip-rule="evenodd" d="M23.2683 33.9723C23.2683 33.6376 23.1066 34.809 23.1874 34.809C23.2683 34.809 23.43 34.809 23.5108 34.809C23.6725 34.809 23.6725 34.7254 23.7533 34.6417C23.9958 34.4743 24.1575 34.3907 24.1575 34.0559C24.1575 33.8049 24.1575 33.6376 23.915 33.5539C23.8342 33.5539 23.7533 33.4702 23.6725 33.4702C23.4299 33.5539 23.2683 33.7212 23.1874 33.9723H23.2683Z" fill="#FFEF84"/>
<path fill-rule="evenodd" clip-rule="evenodd" d="M40.1639 64.5976C40.2447 64.1793 40.0022 65.7691 40.083 65.8528C40.2447 65.8528 40.4064 65.8528 40.5681 65.8528C40.7298 65.8528 40.8106 65.6854 40.9723 65.6017C41.2957 65.3507 41.5382 65.1834 41.5382 64.765C41.5382 64.4303 41.4573 64.1792 41.134 64.0119C40.9723 63.9282 40.8914 63.9282 40.7298 63.9282C40.4064 64.0119 40.1639 64.3466 40.0022 64.6813L40.1639 64.5976Z" fill="#FF9F84"/>
<path fill-rule="evenodd" clip-rule="evenodd" d="M18.7397 38.5746C31.1084 40.5829 30.3808 44.0136 44.7706 39.9135C59.1603 35.8133 69.508 13.4719 69.508 13.4719C69.508 13.4719 70.2355 11.7984 69.5888 10.7943C69.3463 10.3759 67.4869 11.2126 67.4869 11.2126C67.8103 18.4088 58.1093 33.3031 47.115 37.5705C45.9023 37.9889 44.7706 38.1563 43.6388 38.4073C43.1537 38.1563 41.8603 36.9011 47.8425 32.7173C54.9566 27.7804 58.1093 25.9396 57.4626 20.7517C56.8159 15.5638 63.1215 7.44722 63.1215 7.44722C63.1215 7.44722 63.6066 5.27164 62.3939 3.93283C60.858 2.17564 57.4626 3.93283 57.4626 3.93283C57.4626 3.93283 56.5734 14.0576 44.2047 19.4965C31.836 24.9355 24.8836 22.2578 20.1949 20.7517C15.4252 19.2455 14.0509 11.129 14.0509 11.129C14.0509 11.129 10.0089 10.2922 8.55375 12.8861C7.50281 14.8107 9.0388 17.2373 9.0388 17.2373C9.0388 17.2373 16.557 20.0823 23.2668 22.7599C29.9766 25.4375 42.9112 23.0109 47.4383 20.7517C52.0463 18.4924 52.0463 14.8107 55.6841 11.4637C57.2201 10.1248 58.7561 9.12073 60.0495 8.535C60.0495 8.535 56.0075 14.978 56.4926 19.4965C56.9776 24.015 54.229 23.8477 47.4383 31.7969C42.6687 37.3195 38.5458 39.1604 36.5248 39.6624C31.351 40.1645 26.5813 39.5787 20.1949 37.7379C9.76636 34.8092 3.54159 30.1234 3.54159 30.1234C3.54159 30.1234 2.65233 29.705 2.32897 30.7091C2.16729 31.1275 3.13738 32.3826 3.13738 32.3826C3.13738 32.3826 6.37104 36.4827 18.7397 38.5746Z" fill="url(#paint2_linear_168_73050)"/>
<path fill-rule="evenodd" clip-rule="evenodd" d="M27.4712 76.5636C27.4712 76.5636 24.3992 74.5553 22.1357 68.447C19.8721 62.3387 20.1146 62.757 15.8301 58.908C11.5455 55.0589 4.1081 51.2935 4.1081 51.2935C4.1081 51.2935 3.62305 51.4608 3.62305 51.6282C3.62305 52.3812 4.5123 52.5486 4.5123 52.5486C4.5123 52.5486 11.4646 55.6446 15.8301 60.5815C20.1955 65.5183 24.8843 74.388 21.5698 73.8859C21.5698 73.8859 22.2973 76.0615 24.0758 76.5636C25.7735 77.0656 27.4712 76.5636 27.4712 76.5636Z" fill="url(#paint3_radial_168_73050)"/>
<path d="M57.9487 47.0261C59.4038 45.4362 61.1015 43.3443 68.0538 43.2607C75.0062 43.177 78.5632 44.7668 78.5632 44.7668C78.5632 44.7668 80.0183 44.3484 80.18 42.4239C80.3417 40.4994 78.8865 39.5789 78.8865 39.5789C78.8057 40.1646 78.0781 44.1811 72.1767 41.8382C72.1767 41.7545 74.2786 39.8299 74.6828 35.8135C75.1679 31.7971 76.5422 26.0234 76.5422 26.0234C76.5422 26.0234 77.3505 24.6009 76.8655 23.4295C76.7038 23.0111 75.3296 22.8438 75.3296 22.8438C76.5422 30.9603 73.551 40.6667 70.3174 41.8382C66.437 41.9218 61.6674 42.5913 59.4847 44.0974C56.8169 45.9383 54.1492 54.1385 52.4515 59.9121C52.0473 61.3346 51.1581 62.9245 50.0263 64.4307C45.7417 65.5184 47.116 60.1632 45.2566 58.5733C43.3973 56.9835 39.9211 57.8203 37.5767 56.9835C35.3132 56.0631 34.6664 54.2222 32.2412 53.8875C29.816 53.5528 25.9356 58.3223 21.4893 56.3978C17.0431 54.4732 2.32999 36.3992 2.32999 36.3992C2.32999 36.3992 1.03653 36.0645 0.713166 36.985C0.470643 37.7381 2.16832 39.6626 2.16832 39.6626C2.16832 39.6626 12.4351 55.6447 22.2169 57.7366C31.9987 59.8285 40.8912 57.9039 43.9632 60.5816C47.0351 63.3429 47.2777 67.694 47.2777 67.7777C44.1249 71.2921 40.3253 74.3044 38.5468 75.2248C35.4749 76.8147 30.4627 77.9025 30.4627 77.9025C31.1903 78.7392 32.5646 79.4086 34.0197 79.827C36.2024 80.4127 37.5767 79.3249 37.5767 79.3249C37.5767 79.3249 36.3641 78.2372 37.9809 76.8147C42.1038 73.2166 45.0949 71.7104 49.3795 70.6227C51.9664 69.9533 52.7749 71.2084 53.0982 70.79C57.1403 72.1288 60.2931 69.0328 63.6884 66.1042C67.0837 63.2592 71.53 62.8408 71.53 62.8408C71.53 62.8408 73.7935 62.4224 74.4403 61.4183C75.0062 60.4979 73.7127 59.4101 73.7127 59.4101C73.7127 59.4101 71.7725 60.2469 68.0538 62.1714C64.416 64.0959 60.4548 69.7022 55.9277 69.5349C53.4216 69.4512 53.9875 66.8572 53.745 66.4389C53.745 66.2715 53.745 66.1042 53.745 65.8531C53.6641 64.0123 53.2599 62.2551 53.2599 60.9163C53.2599 60.5816 53.2599 60.2468 53.3408 59.9121C53.9875 57.8203 56.4936 48.5322 57.9487 47.0261ZM50.1071 64.347C49.2987 65.4348 48.4095 66.5225 47.4394 67.6103L50.1071 64.347ZM53.5833 67.1919C53.6641 67.6103 53.745 68.0287 53.6641 68.5308C53.6641 68.7818 53.5833 68.9491 53.4216 69.0328C53.2599 69.1165 53.1791 69.1165 53.0174 69.1165C52.8557 69.2002 52.6132 69.2002 52.4515 69.2838C52.1282 69.3675 51.8048 69.2838 51.5622 69.2838C51.2389 69.2838 50.9155 69.2838 50.5921 69.2838C50.4305 69.2838 50.2688 69.2002 50.1071 69.2002C49.9454 69.2002 49.7029 69.2002 49.6221 69.1165C49.2987 68.9491 49.0562 68.5308 48.8137 68.4471C48.8137 68.1124 48.8136 67.8614 48.9753 67.6103C48.9753 67.5266 49.0562 67.443 49.0562 67.2756C49.137 67.1083 49.137 66.9409 49.2179 66.7736C49.3796 66.3552 49.5412 65.9368 49.8646 65.6021C49.9454 65.4348 50.1071 65.1837 50.1879 65.0164C50.3496 64.7654 50.5113 64.598 50.673 64.4307C50.9155 64.1796 51.158 63.9286 51.4814 63.7612C51.7239 63.5939 52.1282 63.4265 52.4515 63.5102C52.7749 63.5939 52.8557 64.0123 52.9365 64.2633C53.0174 64.4306 53.0174 64.6817 53.0982 64.849C53.1791 65.1001 53.2599 65.3511 53.3408 65.6021C53.4216 65.9368 53.4216 66.1878 53.5024 66.5225C53.5024 66.6899 53.5024 66.9409 53.5833 67.1919Z" fill="url(#paint4_linear_168_73050)"/>
<path fill-rule="evenodd" clip-rule="evenodd" d="M9.9292 11.9657C9.9292 11.9657 11.6269 15.6474 16.0731 18.9945C16.0731 18.9945 14.618 13.6392 13.567 11.4636C13.567 11.4636 12.1119 10.0412 9.9292 11.9657Z" fill="#FFFF0E"/>
<path fill-rule="evenodd" clip-rule="evenodd" d="M33.2917 23.2618C33.2917 23.2618 36.2829 22.0066 37.253 22.5087C37.253 22.425 34.3427 23.2618 33.2917 23.2618Z" fill="#FFFF0E"/>
<path fill-rule="evenodd" clip-rule="evenodd" d="M43.3976 20.3331C43.9635 20.1658 44.5294 19.9984 45.0144 19.7474C45.4995 19.58 45.9037 19.329 46.3887 19.078C46.9546 18.7433 47.5205 18.4086 48.0056 17.9902C48.1672 17.9065 48.2481 17.8229 48.4098 17.7392C48.5714 17.6555 48.7331 17.4881 48.8948 17.4045C49.0565 17.3208 49.1373 17.1534 49.299 17.0698C49.4607 16.9861 49.5415 16.8187 49.7032 16.7351C49.9457 16.5677 50.1882 16.3167 50.3499 16.1493C50.4308 16.0657 50.5116 15.982 50.6733 15.8146C50.7541 15.731 50.835 15.731 50.9158 15.731C50.9158 15.8146 50.835 15.982 50.835 16.0657C50.7542 16.233 50.6733 16.3167 50.5924 16.484C50.4308 16.8187 50.1074 16.9861 49.8649 17.3208C49.7032 17.4882 49.5415 17.6555 49.299 17.8229C49.0565 17.9902 48.7331 18.1576 48.4098 18.3249C48.0864 18.4923 47.763 18.5759 47.5205 18.7433C47.278 18.9106 46.9546 19.078 46.7121 19.1617C46.5504 19.2453 46.3079 19.4127 46.1462 19.4964C45.9845 19.58 45.8228 19.6637 45.6611 19.7474C45.4186 19.9147 45.1761 19.9984 44.9336 20.1658C44.7719 20.2494 44.6911 20.2495 44.5294 20.3331C44.2869 20.5005 43.8826 20.5842 43.5593 20.5842C43.4784 20.5842 43.3168 20.5842 43.2359 20.5842C43.1551 20.5842 43.0742 20.5005 43.0742 20.5005C43.2359 20.4168 43.3168 20.3331 43.3976 20.3331Z" fill="#FFFF0E"/>
<path fill-rule="evenodd" clip-rule="evenodd" d="M51.4818 14.8942C51.3201 14.9779 51.2393 15.0616 51.0776 15.2289C51.0776 15.3126 50.9967 15.3963 51.1584 15.3963C51.3201 15.3963 51.4009 15.3126 51.5626 15.1452C51.6435 15.0616 51.7243 14.8942 51.6435 14.8105C51.5626 14.7269 51.4009 14.8105 51.3201 14.8942H51.4818Z" fill="#FFFF0E"/>
<path fill-rule="evenodd" clip-rule="evenodd" d="M58.0292 4.09976C57.9484 4.26712 57.7867 4.43447 57.7059 4.60182C57.6251 4.76917 57.6251 4.85284 57.5442 5.0202C57.4634 5.27122 57.3825 5.60593 57.3017 5.85696C57.14 6.35901 57.0591 6.94474 56.8166 7.4468C56.7358 7.69782 56.655 7.86518 56.4933 8.1162C56.4124 8.19988 56.3316 8.36723 56.3316 8.45091C56.2508 8.53458 56.2507 8.61826 56.1699 8.78561C56.0891 8.86929 56.0891 8.95296 56.0082 9.03664C55.9274 9.12032 55.9274 9.28767 55.8465 9.37134C55.7657 9.45502 55.604 9.70604 55.6849 9.78972C55.7657 9.78972 55.7657 9.70605 55.8465 9.70605C55.9274 9.62237 56.0891 9.53869 56.1699 9.37134C56.4124 9.20399 56.5741 8.95296 56.7358 8.70194C56.8166 8.61826 56.8975 8.53458 56.9783 8.36723C57.0592 8.19988 57.2209 8.1162 57.3017 7.94885C57.4634 7.69782 57.7059 7.4468 57.8675 7.27945C57.9484 7.19577 58.0293 7.02842 58.1101 6.94474C58.191 6.86107 58.2718 6.77739 58.3526 6.61004C58.676 6.27534 58.9185 5.94063 59.2419 5.60593C59.4844 5.3549 59.6461 5.0202 59.8886 4.76917C60.0503 4.51814 60.2119 4.26712 60.2928 4.01609C60.3736 3.93241 60.4545 3.68139 60.4545 3.59771C60.3736 3.43036 60.212 3.34668 60.0503 3.34668C59.8077 3.34668 59.5653 3.34668 59.3227 3.34668C59.0802 3.43036 58.9185 3.51403 58.676 3.59771C58.5143 3.68139 58.3526 3.84874 58.1101 3.93241C58.0293 4.09976 57.8676 4.18344 58.0292 4.09976Z" fill="#FFFF0E"/>
<path fill-rule="evenodd" clip-rule="evenodd" d="M59.9696 8.86994C59.8888 9.0373 59.8079 9.20465 59.7271 9.372C59.6462 9.45567 59.5654 9.62303 59.4845 9.7067C59.3228 9.95773 59.242 10.2088 59.0803 10.3761C58.8378 10.7945 58.5145 11.2129 58.3528 11.6312C58.2719 11.7986 58.1911 11.9659 58.1103 12.1333C58.0294 12.3007 57.9486 12.5517 57.9486 12.719C57.8677 12.8864 57.8677 13.0537 57.7869 13.3048C57.7869 13.4721 57.7061 13.6395 57.7061 13.8068C57.8677 13.6395 57.9486 13.3884 58.1103 13.2211C58.1911 13.0537 58.2719 12.8864 58.4336 12.8027C58.5953 12.719 58.6761 12.5517 58.757 12.3843C58.8378 12.217 58.9995 12.1333 59.0803 11.966C59.1612 11.7986 59.242 11.7149 59.3229 11.5476C59.4037 11.4639 59.4845 11.2965 59.5654 11.1292C59.6462 10.9618 59.7271 10.7945 59.8079 10.6271C59.8887 10.2924 60.0504 9.95773 60.1313 9.62302C60.1313 9.45567 60.2121 9.28832 60.1313 9.12097C60.1313 9.03729 59.9696 8.70259 59.9696 8.86994Z" fill="#FFFF0E"/>
<path fill-rule="evenodd" clip-rule="evenodd" d="M57.3018 14.3088C57.221 14.5598 57.1401 14.7272 57.1401 14.9782C57.1401 15.0619 57.1401 15.1456 57.1401 15.1456C57.221 15.1456 57.3018 15.1456 57.3018 15.0619C57.3827 15.0619 57.3827 14.9782 57.3827 14.8945C57.4635 14.8109 57.5443 14.6435 57.4635 14.4762C57.4635 14.3088 57.3018 14.2251 57.221 14.3925L57.3018 14.3088Z" fill="#FFFF0E"/>
<path fill-rule="evenodd" clip-rule="evenodd" d="M53.3405 25.7724C52.9363 26.1908 52.3705 26.6092 52.0471 27.1112C52.0471 27.1949 51.8046 27.3623 51.8854 27.4459C51.9662 27.5296 52.1279 27.4459 52.2087 27.4459C52.4513 27.3623 52.6938 27.1949 52.9363 27.1112C53.098 27.0276 53.2597 26.8602 53.4213 26.7765C53.8256 26.5255 54.149 26.1908 54.4723 25.7724C54.634 25.6051 54.7148 25.4377 54.7957 25.2704C54.7957 25.1867 54.8765 25.0193 54.8765 25.0193C54.7957 24.7683 54.3106 25.0193 54.2298 25.103C54.1489 25.1867 53.9873 25.2704 53.9064 25.354C53.8256 25.4377 53.7448 25.5214 53.6639 25.5214C53.5831 25.6051 53.5022 25.6888 53.3405 25.7724C53.3405 25.8561 53.2597 25.9398 53.3405 25.7724Z" fill="#FFFF0E"/>
<path fill-rule="evenodd" clip-rule="evenodd" d="M51.401 27.8643C51.2393 27.9479 51.0776 28.0316 50.9968 28.1153C50.9968 28.199 50.8351 28.2826 50.9159 28.3663C50.9968 28.45 51.1585 28.3663 51.1585 28.3663C51.2393 28.3663 51.3201 28.2826 51.401 28.199C51.401 28.0316 51.401 28.0316 51.401 27.8643Z" fill="#FFFF0E"/>
<path fill-rule="evenodd" clip-rule="evenodd" d="M41.4569 37.6543C41.1336 37.9053 40.7294 38.1564 40.3252 38.4074C39.8401 38.6584 39.3551 38.8258 38.9509 39.0768C38.2233 39.4952 37.4957 39.8299 36.7682 40.1646C36.6873 40.2482 35.5555 40.6666 35.9597 40.9177C36.1214 41.0013 36.364 41.0013 36.5256 41.0013C36.6873 41.0013 36.849 41.085 37.0107 41.085C37.1724 41.085 37.334 41.085 37.4957 41.085C38.385 41.085 39.3551 40.834 40.1635 40.4993C40.3252 40.4156 40.5677 40.3319 40.7294 40.2482C40.8102 40.1646 40.891 40.0809 41.0527 39.9972C41.2144 39.8299 41.3761 39.6625 41.4569 39.4115C41.6186 39.0768 41.6995 38.8258 41.6995 38.4074C41.6995 38.24 41.6186 38.1564 41.5378 37.989C41.5378 37.9053 41.4569 37.8216 41.4569 37.6543Z" fill="#FFFF0E"/>
<path fill-rule="evenodd" clip-rule="evenodd" d="M35.1518 40.4991C34.9901 40.4154 34.7476 40.248 34.5051 40.248C34.4242 40.248 34.3434 40.248 34.2625 40.248C34.1008 40.248 33.8583 40.3317 33.6966 40.4154C33.535 40.5828 33.9392 40.7501 34.1008 40.8338C34.2625 40.9175 34.5859 40.9175 34.7476 40.8338C34.9092 40.8338 35.1518 40.6664 35.1518 40.4991C35.2326 40.4991 35.2326 40.4991 35.2326 40.4991H35.1518Z" fill="#FFFF0E"/>
<path fill-rule="evenodd" clip-rule="evenodd" d="M46.873 37.9052C47.6815 37.6542 48.4899 37.3194 49.2175 36.9011C49.5408 36.7337 49.7833 36.5664 50.1067 36.399C50.2684 36.3153 50.5109 36.148 50.6726 36.0643C50.7534 36.0643 51.2385 35.7296 51.3193 35.897C51.4002 36.0643 50.9151 36.399 50.8343 36.4827C50.6726 36.65 50.43 36.8174 50.1875 36.9847C50.0258 37.1521 49.7833 37.1521 49.6217 37.3194C49.3791 37.4868 49.1366 37.5705 48.8133 37.7378C48.6516 37.8215 48.409 37.9052 48.2474 37.9889C48.0857 38.0725 47.924 38.0725 47.7623 38.1562C47.6814 38.1562 47.5198 38.1562 47.4389 38.1562C47.2773 38.0725 46.9539 38.1562 46.873 37.9052Z" fill="#FFFF0E"/>
<path fill-rule="evenodd" clip-rule="evenodd" d="M64.901 42.5072C65.3052 42.5072 65.7903 42.5909 66.1945 42.5072C66.5178 42.4236 66.7603 42.4236 67.0837 42.3399C67.6496 42.2562 68.2963 42.0889 68.8622 42.0889C69.1047 42.0889 69.3472 42.0889 69.5897 42.0889C69.7514 42.0889 69.9131 42.0889 69.994 42.0889C70.0748 42.0889 70.2365 42.1725 70.2365 42.2562C70.3982 42.4236 70.2365 42.4236 70.1556 42.4236C69.9131 42.5072 69.7515 42.6746 69.5089 42.6746C69.1047 42.7583 68.7813 42.8419 68.3771 42.9256C68.1346 42.9256 67.8921 42.9256 67.5687 42.9256C67.2454 43.0093 66.922 43.0093 66.5178 43.0093C66.1944 43.0093 65.9519 43.0093 65.6286 43.0093C65.386 43.0093 65.2244 42.9256 64.9818 42.9256C64.8202 42.9256 64.6585 42.9256 64.5776 42.842C64.6585 42.9256 64.4968 42.7583 64.901 42.5072Z" fill="#FFFF0E"/>
<path fill-rule="evenodd" clip-rule="evenodd" d="M74.6023 42.9255C75.0873 43.0092 75.4107 43.0092 75.8958 42.9255C76.2191 42.8418 76.5425 42.8418 76.785 42.7582C77.1892 42.6745 77.6742 42.5071 78.0785 42.2561C78.321 42.0888 78.7252 41.8377 78.9677 41.9214C79.2103 42.0051 79.4528 42.2561 79.4528 42.5071C79.4528 42.8418 79.1294 43.0092 78.9677 43.1765C78.6444 43.4276 78.0785 43.5949 77.6742 43.5949C77.1892 43.5949 76.6233 43.5112 76.1383 43.4276C75.9766 43.4276 75.8149 43.3439 75.6532 43.3439C75.4915 43.2602 75.1682 43.2602 74.6023 42.9255Z" fill="#FFFF0E"/>
<path fill-rule="evenodd" clip-rule="evenodd" d="M75.734 23.3457C75.734 23.6804 75.4915 24.6008 75.8957 24.8519C76.1382 25.0192 76.219 24.6008 76.219 24.4335C76.2999 24.1825 76.1382 23.5131 75.734 23.3457Z" fill="#FFFF0E"/>
<path fill-rule="evenodd" clip-rule="evenodd" d="M3.54183 31.5456C3.94604 32.0477 4.18855 32.5498 4.6736 32.8008C4.99697 32.9681 5.23949 33.2192 5.56286 33.3028C5.88622 33.3865 6.29044 33.4702 6.61381 33.4702C6.77549 33.4702 6.85632 33.4702 6.85632 33.2192C6.85632 33.1355 6.77547 32.9681 6.69463 32.8845C6.61379 32.7171 6.45211 32.6334 6.29042 32.4661C6.12874 32.2987 6.0479 32.1314 5.88622 31.964C5.32033 31.462 4.75445 31.1273 4.02688 30.8762C3.78436 30.7926 3.78435 30.7926 3.54183 30.8762C3.38015 30.9599 3.38016 30.9599 3.29932 31.1273C3.29932 31.3783 3.46099 31.6293 3.62268 31.8803L3.54183 31.5456Z" fill="#FFFF0E"/>
<path fill-rule="evenodd" clip-rule="evenodd" d="M3.86618 39.328C4.43207 40.3321 5.15964 41.1689 5.88721 42.0893C6.37226 42.6751 6.69563 43.5118 7.26152 44.0976C7.34236 44.1812 8.39329 45.1017 8.39329 44.5996C8.39329 44.5159 8.06993 44.0139 8.06993 43.9302C7.90825 43.6792 7.74656 43.3445 7.50403 43.0935C7.34235 42.8424 7.09985 42.6751 7.01901 42.424C6.85732 42.173 6.69564 42.0057 6.53396 41.7546C6.29143 41.5036 6.12974 41.0852 5.96806 40.8342C5.80638 40.5832 5.56387 40.2485 5.40218 39.9974C5.15966 39.5791 4.83629 39.1607 4.43208 38.9933C4.35124 38.9097 4.18956 38.826 4.02788 38.9097C3.62367 39.1607 3.78534 39.6627 3.86618 39.328Z" fill="#FFFF0E"/>
<path fill-rule="evenodd" clip-rule="evenodd" d="M40.7292 57.9876C41.6185 57.8202 42.2652 57.6529 43.1545 57.9039C43.5587 57.9876 43.9629 58.1549 44.3671 58.2386C44.6096 58.3223 45.0138 58.4059 45.1755 58.5733C45.3372 58.8243 45.3372 59.159 45.0946 59.3264C44.8521 59.5774 44.2862 59.4937 43.9629 59.4937C43.3161 59.41 42.7503 59.3264 42.1035 59.159C41.7802 59.0754 41.2951 58.908 40.9718 58.657C40.8909 58.5733 40.5675 58.2386 40.7292 57.9876Z" fill="#FFFF0E"/>
<path fill-rule="evenodd" clip-rule="evenodd" d="M52.451 62.6734C52.0468 62.5897 51.9659 61.7529 52.1276 61.4182C52.2085 61.2509 52.2893 60.9162 52.5318 60.8325C52.6935 60.7488 52.7744 60.9162 52.936 60.9162C52.7744 61.3346 52.5318 61.6693 52.2893 62.004L52.451 62.6734Z" fill="#FFFF0E"/>
<path fill-rule="evenodd" clip-rule="evenodd" d="M68.5391 62.4223C69.105 62.0039 69.5092 61.7529 70.1559 61.5855C70.4792 61.5018 70.8026 61.4182 71.126 61.3345C71.5302 61.2508 71.8536 60.9998 72.2578 60.9998C72.4195 60.9998 72.5003 60.9998 72.662 60.9161C72.8237 60.9161 72.7428 60.8324 72.9045 60.9161C73.2279 61.0834 73.0662 61.3345 72.9045 61.5018C72.5003 61.8365 72.1769 62.0039 71.6919 62.0876C71.3685 62.1712 71.2068 62.3386 70.8835 62.4223C70.7218 62.5059 70.5601 62.5059 70.3984 62.5896C69.6708 62.757 68.9433 62.5896 68.5391 62.4223Z" fill="#FFFF0E"/>
<path fill-rule="evenodd" clip-rule="evenodd" d="M17.1238 60.9995C17.4472 61.7526 17.7705 62.5057 18.2556 63.1751C18.4981 63.5098 18.6598 63.7609 18.9831 63.9282C19.2257 64.0119 19.4682 64.0956 19.4682 63.6772C19.4682 63.5098 19.3065 63.1751 19.2256 63.0078C18.9023 62.422 18.4981 62.0037 18.1747 61.5016C18.013 61.3343 17.8514 60.9995 17.6897 60.9159C17.4471 60.8322 17.043 60.6648 17.1238 60.9995Z" fill="#FFFF0E"/>
<path fill-rule="evenodd" clip-rule="evenodd" d="M32.0793 77.9021C32.9685 77.7348 33.6961 77.4001 34.5045 77.1491C34.8279 76.9817 35.1512 76.9817 35.5554 76.9817L35.6363 76.898C35.7171 76.898 35.8788 76.898 35.9596 76.898C36.0405 76.898 36.4447 76.8144 36.5255 76.898C36.8489 77.1491 36.2021 77.8185 36.0405 77.9021C35.4746 78.4879 34.5853 78.8226 33.6961 78.7389C33.2919 78.6552 32.8877 78.4879 32.4835 78.4042C32.2409 78.4042 31.675 78.2368 31.675 77.9021C31.7559 77.9858 31.7559 77.9021 32.0793 77.9021Z" fill="#FFFF0E"/>
<path fill-rule="evenodd" clip-rule="evenodd" d="M46.9542 68.9492C46.2266 69.4513 45.3374 69.9533 44.7715 70.7901C44.3673 71.3758 45.0949 71.2085 45.4182 71.1248C45.6608 71.0411 45.9033 70.9574 46.065 70.7901C46.2266 70.6227 46.3883 70.5391 46.55 70.288C46.7117 70.1207 46.7925 70.037 46.9542 69.9533C47.0351 69.786 47.1159 69.535 47.2776 69.4513C47.2776 69.3676 47.1967 69.3676 47.1967 69.2839L46.9542 68.9492Z" fill="#FFFF0E"/>
<path fill-rule="evenodd" clip-rule="evenodd" d="M26.0964 56.8159C26.6623 56.5649 27.2281 56.3975 27.7132 56.0628C28.1982 55.8118 28.6833 55.4771 29.1683 55.2261C29.8151 54.8914 30.4618 54.473 31.1894 54.3893C31.4319 54.3893 31.6744 54.222 31.9169 54.3893C32.1595 54.473 32.2403 54.5567 32.402 54.724C32.8062 55.3098 31.9978 55.8118 31.5936 56.0628C31.2702 56.3139 31.0277 56.5649 30.6235 56.7322C30.2193 56.8996 29.8151 56.9833 29.4109 57.1506C28.7641 57.4017 28.0366 57.7364 27.309 57.82C26.9048 57.9037 26.5814 57.7364 26.2581 57.4853C26.0964 57.4017 25.9347 57.2343 25.8539 57.067C25.773 56.9833 25.6922 56.8159 26.0964 56.8159Z" fill="#FFFF0E"/>
<defs>
<radialGradient id="paint0_radial_168_73050" cx="0" cy="0" r="1" gradientUnits="userSpaceOnUse" gradientTransform="translate(16.9364 20.9609) scale(61.5213 63.6786)">
<stop offset="0.00558659" stop-color="#DE6863"/>
<stop offset="0.2018" stop-color="#DB6563"/>
<stop offset="0.3542" stop-color="#D15D62"/>
<stop offset="0.4919" stop-color="#C14F60"/>
<stop offset="0.6209" stop-color="#A93B5E"/>
<stop offset="0.7437" stop-color="#8B225B"/>
<stop offset="0.8606" stop-color="#670357"/>
<stop offset="0.8715" stop-color="#630057"/>
</radialGradient>
<linearGradient id="paint1_linear_168_73050" x1="2.35624" y1="28.627" x2="57.4493" y2="28.627" gradientUnits="userSpaceOnUse">
<stop offset="0.0111732" stop-color="#FF7D85"/>
<stop offset="0.2983" stop-color="#FC7B84"/>
<stop offset="0.5089" stop-color="#F3757F"/>
<stop offset="0.695" stop-color="#E36B77"/>
<stop offset="0.8659" stop-color="#CC5C6C"/>
<stop offset="1" stop-color="#B54D61"/>
</linearGradient>
<linearGradient id="paint2_linear_168_73050" x1="2.18022" y1="22.4355" x2="69.8427" y2="22.4355" gradientUnits="userSpaceOnUse">
<stop offset="0.00558659" stop-color="#FFB80B"/>
<stop offset="0.388" stop-color="#FFB60C"/>
<stop offset="0.5789" stop-color="#FEAE10"/>
<stop offset="0.7274" stop-color="#FCA117"/>
<stop offset="0.8539" stop-color="#FA8E21"/>
<stop offset="0.9655" stop-color="#F7762E"/>
<stop offset="1" stop-color="#F66D33"/>
</linearGradient>
<radialGradient id="paint3_radial_168_73050" cx="0" cy="0" r="1" gradientUnits="userSpaceOnUse" gradientTransform="translate(8.12089 58.052) scale(19.4525 20.1346)">
<stop offset="0.00558659" stop-color="#FFB80B"/>
<stop offset="0.388" stop-color="#FFB60C"/>
<stop offset="0.5789" stop-color="#FEAE10"/>
<stop offset="0.7274" stop-color="#FCA117"/>
<stop offset="0.8539" stop-color="#FA8E21"/>
<stop offset="0.9655" stop-color="#F7762E"/>
<stop offset="1" stop-color="#F66D33"/>
</radialGradient>
<linearGradient id="paint4_linear_168_73050" x1="0.877193" y1="51.3363" x2="80.2114" y2="51.3363" gradientUnits="userSpaceOnUse">
<stop offset="0.00558659" stop-color="#FFB80B"/>
<stop offset="0.388" stop-color="#FFB60C"/>
<stop offset="0.5789" stop-color="#FEAE10"/>
<stop offset="0.7274" stop-color="#FCA117"/>
<stop offset="0.8539" stop-color="#FA8E21"/>
<stop offset="0.9655" stop-color="#F7762E"/>
<stop offset="1" stop-color="#F66D33"/>
</linearGradient>
</defs>
</svg>
