<svg width="37" height="36" viewBox="0 0 37 36" fill="none" xmlns="http://www.w3.org/2000/svg">
<path d="M22.8801 33.2167L22.3032 31.0421C24.4759 30.4546 26.4669 29.3269 28.0933 27.7627C29.7196 26.1985 30.9291 24.248 31.6105 22.0905C32.2919 19.933 32.4234 17.6378 31.9929 15.4158C31.5623 13.1938 30.5836 11.1164 29.1466 9.37457L30.8661 7.93457C32.5438 9.96671 33.6867 12.3908 34.1896 14.9838C34.6925 17.5768 34.5393 20.2554 33.744 22.7732C32.9486 25.291 31.5368 27.567 29.6384 29.392C27.74 31.217 25.416 32.5322 22.8801 33.2167Z" fill="#141A1B"/>
<path d="M12.1181 32.625H9.88208V28.3275L10.781 28.1475C12.411 27.8179 14.3541 26.5725 14.3541 22.5V20.9452L9.88208 18.6952V16.1798L14.3541 13.9298V13.5C14.3541 7.34963 18.7423 3.375 25.5343 3.375H27.7703V7.6725L26.8714 7.8525C25.2413 8.18213 23.2982 9.4275 23.2982 13.5V13.9298L27.7703 16.1798V18.6952L23.2982 20.9452V22.5C23.2982 28.6504 18.91 32.625 12.1181 32.625ZM12.1181 30.375C17.6355 30.375 21.0622 27.3577 21.0622 22.5V19.5548L25.2704 17.4375L21.0622 15.3202V13.5C21.0622 8.34975 23.7287 6.534 25.5343 5.895V5.625C20.0169 5.625 16.5902 8.64225 16.5902 13.5V15.3202L12.382 17.4375L16.5902 19.5548V22.5C16.5902 27.6502 13.9237 29.466 12.1181 30.105V30.375Z" fill="#141A1B"/>
<path d="M6.78621 28.0655C5.10824 26.033 3.96527 23.6085 3.4625 21.0151C2.95973 18.4217 3.1133 15.7427 3.90909 13.2247C4.70488 10.7067 6.11732 8.43052 8.01641 6.60571C9.9155 4.7809 12.2402 3.46607 14.7766 2.78223L15.3535 4.95573C13.1799 5.54242 11.1878 6.66971 9.56044 8.2339C7.93311 9.7981 6.7228 11.749 6.04087 13.907C5.35893 16.0651 5.22727 18.3611 5.65799 20.5838C6.08871 22.8064 7.06797 24.8844 8.50571 26.6266L6.78621 28.0655Z" fill="#141A1B"/>
</svg>
