<svg width="48" height="49" viewBox="0 0 48 49" fill="none" xmlns="http://www.w3.org/2000/svg">
<g filter="url(#filter0_d_720_9694)">
<g filter="url(#filter1_d_720_9694)">
<path d="M24.0969 40.25C33.9484 40.25 41.9347 32.5269 41.9347 23C41.9347 13.4731 33.9484 5.75002 24.0969 5.75002C14.2453 5.75002 6.25903 13.4731 6.25903 23C6.25903 32.5269 14.2453 40.25 24.0969 40.25Z" stroke="#263238" stroke-width="3.70724" stroke-linecap="round" stroke-linejoin="round" shape-rendering="crispEdges"/>
</g>
<path d="M22.6104 22.2812H24.0968V31.625H25.5833" stroke="#263238" stroke-width="3.70724" stroke-linecap="round" stroke-linejoin="round"/>
<path d="M23.7252 17.9688C25.3671 17.9688 26.6981 16.6816 26.6981 15.0938C26.6981 13.5059 25.3671 12.2188 23.7252 12.2188C22.0832 12.2188 20.7522 13.5059 20.7522 15.0938C20.7522 16.6816 22.0832 17.9688 23.7252 17.9688Z" fill="#263238"/>
</g>
<defs>
<filter id="filter0_d_720_9694" x="0.405518" y="1.89639" width="47.3828" height="46.2072" filterUnits="userSpaceOnUse" color-interpolation-filters="sRGB">
<feFlood flood-opacity="0" result="BackgroundImageFix"/>
<feColorMatrix in="SourceAlpha" type="matrix" values="0 0 0 0 0 0 0 0 0 0 0 0 0 0 0 0 0 0 127 0" result="hardAlpha"/>
<feOffset dy="2"/>
<feGaussianBlur stdDeviation="2"/>
<feComposite in2="hardAlpha" operator="out"/>
<feColorMatrix type="matrix" values="0 0 0 0 0 0 0 0 0 0 0 0 0 0 0 0 0 0 0.1 0"/>
<feBlend mode="normal" in2="BackgroundImageFix" result="effect1_dropShadow_720_9694"/>
<feBlend mode="normal" in="SourceGraphic" in2="effect1_dropShadow_720_9694" result="shape"/>
</filter>
<filter id="filter1_d_720_9694" x="2.40552" y="3.89639" width="43.3828" height="42.2072" filterUnits="userSpaceOnUse" color-interpolation-filters="sRGB">
<feFlood flood-opacity="0" result="BackgroundImageFix"/>
<feColorMatrix in="SourceAlpha" type="matrix" values="0 0 0 0 0 0 0 0 0 0 0 0 0 0 0 0 0 0 127 0" result="hardAlpha"/>
<feOffset dy="2"/>
<feGaussianBlur stdDeviation="1"/>
<feComposite in2="hardAlpha" operator="out"/>
<feColorMatrix type="matrix" values="0 0 0 0 0 0 0 0 0 0 0 0 0 0 0 0 0 0 0.2 0"/>
<feBlend mode="normal" in2="BackgroundImageFix" result="effect1_dropShadow_720_9694"/>
<feBlend mode="normal" in="SourceGraphic" in2="effect1_dropShadow_720_9694" result="shape"/>
</filter>
</defs>
</svg>
