<svg width="38" height="36" viewBox="0 0 38 36" fill="none" xmlns="http://www.w3.org/2000/svg">
<g filter="url(#filter0_d_168_73205)">
<path fill-rule="evenodd" clip-rule="evenodd" d="M7.27956 0.225367C8.04944 0.531367 8.66304 1.12087 8.99167 1.86787C9.15714 2.25037 9.24217 2.65987 9.23757 3.07612C9.24193 3.58283 9.11577 4.08244 8.87074 4.52879C8.62572 4.97514 8.26975 5.35383 7.83571 5.62987C7.32188 5.9602 6.71991 6.13474 6.10521 6.13162C5.69338 6.13371 5.28521 6.05579 4.90434 5.90239C4.52347 5.74898 4.17746 5.52313 3.88635 5.23791C3.59524 4.95269 3.36481 4.61376 3.2084 4.24076C3.052 3.86775 2.97272 3.46808 2.97515 3.06487C2.97205 2.46195 3.1516 1.87166 3.49112 1.36865C3.83064 0.865628 4.31488 0.472466 4.88261 0.238867C5.64852 -0.0748784 6.51001 -0.0797303 7.27956 0.225367ZM6.59472 4.19662C6.81936 4.10137 7.01098 3.94442 7.14639 3.74475C7.2818 3.54509 7.3552 3.31128 7.3577 3.07162C7.3595 2.8061 7.27371 2.5471 7.11308 2.33315C6.95245 2.11921 6.72557 1.96175 6.46618 1.88419C6.2068 1.80664 5.92878 1.81313 5.67347 1.90272C5.41816 1.9923 5.19921 2.16018 5.04919 2.38138C4.89917 2.60258 4.82609 2.86529 4.84083 3.13043C4.85557 3.39556 4.95733 3.64896 5.13099 3.85291C5.30464 4.05687 5.5409 4.2005 5.80463 4.26243C6.06836 4.32435 6.34546 4.30127 6.59472 4.19662ZM15.454 0.245617L3.22795 12.2179L4.80447 13.7636L17.0306 1.79362L15.454 0.247867V0.245617ZM27.1056 18.0004H29.4037V23.6254H35.1491V25.8754H29.4037V31.5004H27.1056V25.8754H21.3602V23.6254H27.1056V18.0004ZM13.9327 19.1816L15.5575 20.7724L11.4943 24.7504L15.5575 28.7284L13.9327 30.3191L9.86956 26.3411L5.80646 30.3191L4.18167 28.7284L8.24478 24.7504L4.18167 20.7724L5.80646 19.1816L9.86956 23.1596L13.9327 19.1816ZM17.0352 9.74287C16.7971 9.18668 16.3956 8.71225 15.8817 8.37977C15.3678 8.04729 14.7646 7.87173 14.1487 7.87537C13.5329 7.87233 12.93 8.04812 12.4162 8.38053C11.9024 8.71294 11.5008 9.18703 11.2622 9.74287C11.0595 10.2095 10.9783 10.7181 11.0258 11.2231C11.0733 11.728 11.248 12.2135 11.5343 12.6361C11.8206 13.0587 12.2095 13.4051 12.6662 13.6443C13.1229 13.8835 13.6331 14.008 14.151 14.0066C14.6694 14.0095 15.1803 13.8859 15.6377 13.647C16.095 13.4081 16.4844 13.0614 16.7707 12.6383C17.0569 12.2151 17.231 11.7289 17.2771 11.2233C17.3233 10.7178 17.2401 10.209 17.0352 9.74287ZM15.3047 11.4191C15.1767 11.7118 14.939 11.9453 14.6405 12.0716C14.4103 12.1666 14.1564 12.1923 13.9112 12.1454C13.666 12.0985 13.4407 11.9812 13.2639 11.8084C13.1488 11.6974 13.0573 11.5651 12.995 11.4191C12.8954 11.1938 12.8674 10.9444 12.9144 10.7032C12.9615 10.4621 13.0816 10.2404 13.259 10.0669C13.4364 9.89345 13.6631 9.77622 13.9094 9.73047C14.1558 9.68472 14.4105 9.71255 14.6405 9.81037C14.7884 9.87249 14.9232 9.96099 15.0381 10.0714C15.2137 10.245 15.3327 10.4657 15.3802 10.7056C15.4277 10.9456 15.4014 11.1938 15.3047 11.4191ZM32.8509 4.50037H23.6584V6.75037H32.8509V4.50037Z" fill="#141A1B"/>
</g>
<defs>
<filter id="filter0_d_168_73205" x="0.975098" y="0" width="36.1741" height="35.5004" filterUnits="userSpaceOnUse" color-interpolation-filters="sRGB">
<feFlood flood-opacity="0" result="BackgroundImageFix"/>
<feColorMatrix in="SourceAlpha" type="matrix" values="0 0 0 0 0 0 0 0 0 0 0 0 0 0 0 0 0 0 127 0" result="hardAlpha"/>
<feOffset dy="2"/>
<feGaussianBlur stdDeviation="1"/>
<feComposite in2="hardAlpha" operator="out"/>
<feColorMatrix type="matrix" values="0 0 0 0 0 0 0 0 0 0 0 0 0 0 0 0 0 0 0.2 0"/>
<feBlend mode="normal" in2="BackgroundImageFix" result="effect1_dropShadow_168_73205"/>
<feBlend mode="normal" in="SourceGraphic" in2="effect1_dropShadow_168_73205" result="shape"/>
</filter>
</defs>
</svg>
