<svg width="81" height="80" viewBox="0 0 81 80" fill="none" xmlns="http://www.w3.org/2000/svg">
<path fill-rule="evenodd" clip-rule="evenodd" d="M80.236 49.1428L79.9158 50.204C79.9158 50.2856 79.9158 50.2856 79.8357 50.3673C79.0351 53.1428 77.9942 55.755 76.7132 58.204C74.6316 62.204 71.8293 65.8775 68.6268 68.9795C64.8638 72.5714 60.3802 75.4285 55.4163 77.3061C50.9328 79.0204 46.1289 80 41.0849 80C40.3644 80 39.6438 80 38.9232 79.9183C37.8824 79.8367 36.8416 79.7551 35.8007 79.5918C28.9953 78.6938 22.7504 76.0816 17.4662 72.1632C16.9858 71.7551 16.5054 71.4285 16.0251 71.0204C16.9858 70.204 18.9073 70.1224 18.9073 70.1224L16.1852 67.9183L9.37976 64.1632C8.09875 62.4489 6.8978 60.653 5.85697 58.7754C5.61678 58.2856 5.3766 57.8775 5.13641 57.3877C5.13641 57.3877 5.13641 57.3877 5.13641 57.3061C4.89621 56.8163 4.65603 56.3265 4.41584 55.8367C3.69527 54.2856 3.13481 52.653 2.57436 50.9387C2.17404 49.7142 1.8538 48.4897 1.61361 47.2652C1.45349 46.3673 1.29336 45.4693 1.13323 44.5713C0.893037 42.6938 0.73291 40.7346 0.73291 38.7754C0.73291 38.2856 0.73291 37.8775 0.73291 37.3877C0.73291 36.7346 0.812979 35.9999 0.812979 35.3469C0.893042 34.6938 0.973091 34.0407 0.973091 33.3876C0.973091 33.306 0.973091 33.306 0.973091 33.2244C1.13322 32.3264 1.21329 31.4285 1.45348 30.5305C1.69367 29.2244 2.01393 27.9999 2.41425 26.7754C2.89463 25.0611 3.53513 23.3468 4.2557 21.7958C4.97627 20.2448 5.77691 18.6938 6.65761 17.2244C9.37977 15.755 11.1412 14.9387 11.1412 14.9387C11.1412 14.9387 58.1385 5.46925 58.8591 4.65292C59.5796 3.8366 63.1024 4.32638 63.1024 4.32638C65.3442 5.79577 67.3458 7.51006 69.2673 9.38761C69.7477 9.79578 70.148 10.2856 70.5483 10.6937C70.7885 11.0203 71.1088 11.3468 71.349 11.6733C71.8293 12.2448 72.2297 12.7346 72.71 13.306C74.3113 15.4285 75.7524 17.6325 76.9534 19.9999C77.4338 20.8978 77.8341 21.8774 78.2344 22.7754C81.8373 37.2244 77.3537 49.5509 77.3537 49.5509C78.5547 49.3061 79.5154 49.2244 80.236 49.1428Z" fill="url(#paint0_radial_168_73151)"/>
<path fill-rule="evenodd" clip-rule="evenodd" d="M80.236 49.1428L79.9158 50.204C79.9158 50.2856 79.9158 50.2856 79.8357 50.3673C79.0351 53.1428 77.9942 55.755 76.7132 58.204C74.6316 62.204 71.8293 65.8775 68.6268 68.9795C64.8638 72.5714 60.3802 75.4285 55.4163 77.3061C50.9328 79.0204 46.1289 80 41.0849 80C40.3644 80 39.6438 80 38.9232 79.9183C37.8824 79.8367 36.8416 79.7551 35.8007 79.5918C28.9953 78.6938 22.7504 76.0816 17.4662 72.1632C16.9858 71.7551 16.5054 71.4285 16.0251 71.0204C16.9858 70.204 18.9073 70.1224 18.9073 70.1224L16.1852 67.9183L9.37976 64.1632C8.09875 62.4489 6.8978 60.653 5.85697 58.7754C5.61678 58.2856 5.3766 57.8775 5.13641 57.3877C5.13641 57.3877 5.13641 57.3877 5.13641 57.3061C4.89621 56.8163 4.65603 56.3265 4.41584 55.8367C3.69527 54.2856 3.13481 52.653 2.57436 50.9387C2.17404 49.7142 1.8538 48.4897 1.61361 47.2652C1.45349 46.3673 1.29336 45.4693 1.13323 44.5713C0.893037 42.6938 0.73291 40.7346 0.73291 38.7754C0.73291 38.2856 0.73291 37.8775 0.73291 37.3877C0.73291 36.7346 0.812979 35.9999 0.812979 35.3469C0.893042 34.6938 0.973091 34.0407 0.973091 33.3876C0.973091 33.306 0.973091 33.306 0.973091 33.2244C1.13322 32.3264 1.21329 31.4285 1.45348 30.5305C1.69367 29.2244 2.01393 27.9999 2.41425 26.7754C2.89463 25.0611 3.53513 23.3468 4.2557 21.7958C4.97627 20.2448 5.77691 18.6938 6.65761 17.2244C9.37977 15.755 11.1412 14.9387 11.1412 14.9387C11.1412 14.9387 58.1385 5.46925 58.8591 4.65292C59.5796 3.8366 63.1024 4.32638 63.1024 4.32638C65.3442 5.79577 67.3458 7.51006 69.2673 9.38761C69.7477 9.79578 70.148 10.2856 70.5483 10.6937C70.7885 11.0203 71.1088 11.3468 71.349 11.6733C71.8293 12.2448 72.2297 12.7346 72.71 13.306C74.3113 15.4285 75.7524 17.6325 76.9534 19.9999C77.4338 20.8978 77.8341 21.8774 78.2344 22.7754C81.8373 37.2244 77.3537 49.5509 77.3537 49.5509C78.5547 49.3061 79.5154 49.2244 80.236 49.1428Z" fill="url(#paint1_radial_168_73151)"/>
<path fill-rule="evenodd" clip-rule="evenodd" d="M79.1154 38.8572C79.1154 40.3266 79.0353 41.796 78.8752 43.1837C78.635 45.3878 78.2347 47.5103 77.6743 49.5511C77.6743 49.6327 77.6743 49.6327 77.6743 49.7144C76.9537 52.3266 75.9128 54.7756 74.7119 57.0613C72.7103 60.8164 70.1483 64.245 67.1059 67.1838C63.5831 70.5307 59.3397 73.2246 54.696 75.0205C50.5327 76.6532 45.9691 77.5511 41.2453 77.5511C40.6048 77.5511 39.8843 77.5511 39.2437 77.4695C38.283 77.3879 37.2421 77.3063 36.2814 77.2246C29.8763 76.4083 24.0317 73.8777 19.0677 70.2042C18.3471 69.6328 17.6266 69.0613 16.906 68.4899C16.7459 68.3266 16.5057 68.1634 16.3456 68.0001C14.5842 66.3675 12.9028 64.6532 11.4617 62.694C10.2607 61.143 9.13983 59.4287 8.099 57.6328C7.85881 57.2246 7.61863 56.8164 7.4585 56.3266C7.4585 56.3266 7.4585 56.3266 7.4585 56.245C7.21831 55.7552 6.97813 55.347 6.818 54.8572C6.17749 53.3879 5.61704 51.8368 5.13666 50.2858C4.81641 49.1429 4.49615 48.0001 4.25596 46.8572C4.09583 46.0409 3.9357 45.2246 3.85564 44.3266C3.61545 42.5307 3.45532 40.7348 3.45532 38.8572C3.45532 38.449 3.45532 37.9592 3.45532 37.5511C3.45532 36.898 3.53539 36.245 3.53539 35.6735C3.61545 35.0205 3.61544 34.449 3.6955 33.796C3.6955 33.7143 3.6955 33.7144 3.6955 33.6327C3.77557 32.8164 3.93569 31.9184 4.09582 31.1021C4.33601 29.8776 4.65627 28.7348 4.97653 27.5103C5.45691 25.8776 6.01736 24.3266 6.73793 22.7755C7.45851 21.1429 8.33919 19.5102 9.29995 17.9592C9.94046 16.898 10.661 15.8368 11.4617 14.8572C12.5025 13.4694 13.7034 12.1633 14.9044 10.9388C21.7098 4.16327 31.0772 0 41.3254 0C41.7257 0 42.126 0 42.5263 0C42.9267 0 43.407 4.98125e-06 43.8074 0.0816378C45.0083 0.163271 46.1292 0.326536 47.3301 0.489802C47.3301 0.489802 47.3302 0.489802 47.4102 0.489802C48.371 0.653067 49.3317 0.81633 50.2124 1.06123C51.4134 1.38776 52.6143 1.71429 53.7352 2.12246C54.5359 2.36736 55.2565 2.69389 56.0571 3.02042C56.6175 3.26532 57.178 3.51021 57.7384 3.75511C57.8185 3.83675 57.8986 3.83674 58.0587 3.91838C61.7416 5.7143 65.1043 8.16328 67.9866 11.1021C68.3869 11.5102 68.7872 11.9184 69.1875 12.3266C69.4277 12.6531 69.748 12.898 69.9882 13.2245C70.3885 13.7143 70.8689 14.2857 71.2692 14.7755C72.7904 16.7347 74.0714 18.8572 75.1923 21.0613C76.4733 23.6735 77.5141 26.449 78.2347 29.3062C78.7151 31.1021 78.9553 32.9797 79.1955 34.9388C79.0353 36.3266 79.1154 37.5511 79.1154 38.8572Z" fill="url(#paint2_radial_168_73151)"/>
<path fill-rule="evenodd" clip-rule="evenodd" d="M22.6702 23.4286C22.6702 23.4286 21.6294 25.7143 22.5101 28C23.3107 30.2857 25.7126 28.8163 28.5148 28C31.3171 27.1837 34.1994 24.2449 36.0408 22.3673C37.8823 20.4898 39.6437 17.9592 39.4836 15.5102C39.3234 13.0612 36.7614 11.4285 36.7614 11.4285C36.7614 11.4285 37.7221 10.204 36.9215 15.102C36.1209 19.9183 35.0801 21.7143 34.0392 22.449C32.9984 23.1837 29.956 25.0612 28.2747 26.1224C26.5933 27.1837 24.6718 28.2449 23.5509 28C22.35 27.5918 21.7895 25.0612 22.6702 23.4286Z" fill="url(#paint3_radial_168_73151)"/>
<path fill-rule="evenodd" clip-rule="evenodd" d="M27.7944 21.7144C27.7944 21.7144 26.3533 23.0205 26.7536 24.0817C27.1539 25.143 29.8761 24.4899 31.6375 22.2042C33.3989 19.9185 32.0378 18.1226 32.0378 18.1226C32.0378 18.1226 31.3973 21.8777 29.7159 22.5307C28.0346 23.1838 27.4742 22.9389 27.4742 22.9389C27.4742 22.9389 27.0738 22.6124 27.7944 21.7144Z" fill="url(#paint4_radial_168_73151)"/>
<path fill-rule="evenodd" clip-rule="evenodd" d="M23.4712 23.3467C23.4712 23.3467 24.8323 21.714 26.4336 20.2446C28.0348 18.6936 30.757 18.1222 30.757 18.1222C30.757 18.1222 29.1557 17.2242 27.0741 18.4487C25.0725 19.7548 23.4712 23.3467 23.4712 23.3467Z" fill="url(#paint5_radial_168_73151)"/>
<path fill-rule="evenodd" clip-rule="evenodd" d="M17.7065 23.4285C17.7065 23.4285 20.9891 19.755 24.9123 18.204C28.8354 16.653 30.1965 16.1632 31.9579 14.6938C33.7193 13.2244 35.6408 12.0815 35.6408 12.0815C35.6408 12.0815 31.7977 12.2448 25.9531 16.0815C20.1085 19.755 17.7065 22.204 17.7065 23.4285Z" fill="url(#paint6_radial_168_73151)"/>
<path fill-rule="evenodd" clip-rule="evenodd" d="M9.78052 22.694C9.78052 22.694 15.385 16.9797 19.7885 14.6939C24.192 12.4082 27.1543 11.0205 31.0774 9.95925C35.0005 8.97966 41.0854 7.18374 41.0854 7.18374L42.2063 6.6123C42.2063 6.6123 29.6363 6.8572 21.4698 11.9184C13.3033 16.9797 9.78052 22.694 9.78052 22.694Z" fill="url(#paint7_radial_168_73151)"/>
<path fill-rule="evenodd" clip-rule="evenodd" d="M16.5854 29.3059C16.5854 29.3059 17.5462 37.2243 18.9073 37.5508C20.2683 37.8773 25.0722 37.8774 32.2779 34.1222C39.4836 30.3671 40.9247 31.2651 44.9279 27.1018C48.9311 22.9386 50.6124 18.2038 51.8134 15.1018C53.0944 11.9997 53.4147 8.40791 53.0143 7.34668C53.0143 7.34668 54.3754 8.16302 54.3754 11.2651C54.3754 14.3671 53.4947 19.5916 52.2137 22.5304C50.9327 25.5508 47.57 30.2855 43.5669 32.5712C39.5637 34.8569 31.4773 39.3467 23.631 39.2651C15.7047 39.1835 16.9857 38.612 16.1851 36.9794C15.3044 35.3467 16.5854 29.3059 16.5854 29.3059Z" fill="url(#paint8_radial_168_73151)"/>
<path opacity="0.5" fill-rule="evenodd" clip-rule="evenodd" d="M4.2561 36.0001C4.2561 36.0001 5.69726 39.1838 6.41783 42.1226C7.21846 45.0614 7.05833 49.9594 10.3409 50.7757C13.6235 51.5104 18.1872 53.7145 19.8685 53.143C21.6299 52.5716 28.035 51.4287 31.6378 52.1634C35.2407 52.8981 41.7259 52.49 43.9676 51.3471C46.2094 50.2042 51.1733 47.1838 53.4952 46.2859C55.817 45.3879 59.0196 42.7757 61.8218 39.9185C64.624 37.0614 64.544 33.796 65.2645 32.1634C65.9851 30.5307 67.3462 24.0817 67.1861 21.143C67.0259 18.2042 65.2645 12.7348 65.2645 12.7348L63.6633 11.0205C63.6633 11.0205 65.6649 18.5307 64.7842 23.9185C63.9035 29.2246 64.7041 31.4287 61.1012 36.4899C57.4984 41.6328 52.3743 45.6328 46.6898 47.5104C41.0053 49.4696 37.3224 49.2246 31.4777 49.7961C25.9533 50.2859 19.0679 49.9594 16.3457 49.2247C13.8637 48.5716 10.5811 46.9389 8.09914 42.8573C5.45705 38.6124 4.2561 36.0001 4.2561 36.0001Z" fill="#7D72B3"/>
<path opacity="0.4" fill-rule="evenodd" clip-rule="evenodd" d="M16.8257 27.6734C16.8257 27.6734 17.3862 36.2448 18.427 36.9795C19.4678 37.7142 21.7897 38.0408 23.8713 37.3061C26.033 36.5714 33.2388 34.1224 34.5198 33.3877C35.8008 32.653 43.4068 28.7346 44.928 27.5101C46.4492 26.3673 48.4508 22.204 49.1714 21.3877C49.892 20.5713 51.7334 15.4285 52.2138 13.4693C52.7743 11.5101 53.0945 9.22439 53.0945 9.22439C53.0945 9.22439 53.2547 8.16315 52.374 7.75499C51.4933 7.42846 51.3331 7.75499 51.3331 7.75499C51.3331 7.75499 51.173 9.06112 50.3724 12.7346C49.5717 16.4081 38.8432 28.9795 33.3989 32.3265C27.9546 35.5918 22.8305 35.755 20.989 35.5101C19.0675 35.2652 16.7457 29.1428 16.8257 27.6734Z" fill="#7D72B3"/>
<path opacity="0.4" fill-rule="evenodd" clip-rule="evenodd" d="M16.5858 29.306C16.5858 29.306 16.826 23.9999 18.1871 22.204C19.5481 20.408 24.1118 16.7346 26.7539 15.3468C29.476 13.9591 33.3191 11.9999 34.6802 11.6733C36.0412 11.3468 37.002 11.6733 37.002 11.6733C37.002 11.6733 35.4007 10.7754 31.6378 11.755C27.8748 12.7345 23.6314 16.2448 21.5497 17.3876C19.4681 18.4489 16.3456 21.1427 15.545 22.5305C14.8244 23.755 16.5858 29.306 16.5858 29.306Z" fill="#7D72B3"/>
<path opacity="0.4" fill-rule="evenodd" clip-rule="evenodd" d="M7.29834 23.6736L18.9076 13.3062L26.1133 9.95927C26.1133 9.95927 33.2389 7.51029 36.5215 6.69396C39.8041 5.87763 47.0899 5.71436 47.0899 5.71436L50.933 6.12252C50.933 6.12252 44.2877 2.44905 34.3598 5.14293C24.512 7.83681 17.9468 11.2654 15.0645 14.0409C12.2623 16.7348 7.85878 22.2858 7.29834 23.6736Z" fill="#7D72B3"/>
<path fill-rule="evenodd" clip-rule="evenodd" d="M6.97805 24.0813C6.97805 24.0813 0.733089 31.7548 3.7755 36.4895C6.81792 41.2242 8.179 48.0813 9.0597 49.6324C9.9404 51.1834 20.0284 53.6324 22.1101 53.1426C24.1917 52.6528 29.2357 51.3466 32.5183 52.5711C32.5183 52.5711 38.363 52.0814 39.9642 52.0814C41.6456 52.0814 44.688 50.612 45.4086 50.2854C46.1291 49.9589 50.0523 48.6528 52.0538 47.8364C54.0554 47.0201 57.338 44.4079 58.619 43.4283C59.9001 42.3671 63.3428 38.2038 64.0634 36.8977C64.7039 35.5915 66.7055 28.0813 67.1858 24.4895C67.6662 20.8976 66.2251 14.0405 65.0241 11.6731C63.8232 9.30578 60.3004 7.10169 60.3004 7.10169L60.5406 6.04045L63.3428 4.32617C63.3428 4.32617 68.2267 10.7752 68.627 16.4078C68.8672 19.6731 69.6678 26.6935 68.7871 29.714C68.1466 32.1629 65.8248 39.1834 63.7431 41.714C61.7415 44.2446 55.6567 50.6936 52.4542 51.9997C49.2516 53.2242 39.644 54.9385 34.0395 55.0201C29.8762 55.1017 20.749 54.3671 16.2654 54.2038C11.7819 54.0405 8.57933 51.1834 6.81793 49.714C5.05654 48.2446 5.61697 44.3262 3.85557 41.1425C2.01411 38.0405 1.05335 33.8772 1.45367 31.5915C1.85398 29.4691 6.97805 24.0813 6.97805 24.0813Z" fill="url(#paint9_radial_168_73151)"/>
<path fill-rule="evenodd" clip-rule="evenodd" d="M17.9467 53.3876C16.9859 53.1427 16.1052 52.6529 15.1444 52.408C14.584 52.2447 14.1036 52.1631 13.5432 51.9998C12.9827 51.8366 12.4223 51.7549 11.8618 51.7549C10.7409 51.6733 9.62004 51.4284 8.89947 50.5304C8.25896 49.7141 7.85866 48.8161 7.61847 47.7549C7.21815 46.3671 6.89788 44.9794 6.49756 43.6733C6.09725 42.3671 5.61686 41.3059 4.89629 40.1631C4.6561 39.7549 4.41591 39.2651 4.09566 38.8569C3.85547 38.4488 3.45517 38.1222 3.21498 37.6324C2.65453 36.4896 2.49438 35.2651 2.49438 33.959C2.49438 33.3059 2.65453 32.6529 2.81466 31.9998C2.97479 31.1835 3.21498 30.4487 3.61529 29.7141C4.01561 29.061 4.33586 28.3263 4.73618 27.6732C5.61688 26.1222 6.49758 24.5712 7.5384 23.1834C8.89948 21.4691 10.4207 19.7549 12.022 18.2039C12.9027 17.3059 13.9435 16.4896 14.9843 15.6732C15.865 15.0202 16.6656 14.2855 17.4663 13.6324C18.9074 12.4896 20.5888 11.7548 22.2701 10.9385C24.2717 9.95892 26.2733 8.97934 28.3549 8.24464C30.8369 7.34668 33.3189 6.61198 35.8809 6.04055C38.8433 5.46912 41.8857 5.30586 44.848 5.30586C46.4493 5.30586 48.2107 5.14259 49.812 5.71402C50.6927 6.04055 51.7335 6.44872 52.4541 6.93851C52.6142 7.10178 52.6943 7.10178 52.8544 7.26504C52.9344 7.34667 52.9344 7.50996 53.0145 7.59159C53.1746 7.91812 53.2547 8.32628 53.2547 8.65281C53.2547 8.97934 53.0946 9.30588 53.0946 9.63241C53.0946 10.1222 52.9344 10.612 52.9344 11.1018C52.9344 11.6732 52.7743 12.0814 52.6942 12.6528C52.5341 13.6324 52.374 14.612 51.9737 15.5916C51.4132 16.9794 51.0129 18.4487 50.4525 19.7549C50.2924 20.163 49.9721 20.4896 49.7319 20.8977C49.5718 21.3059 49.4116 21.5508 49.1715 21.9589C48.7711 22.612 48.4509 23.3467 47.9705 23.9181C47.0097 25.2243 46.129 26.612 44.848 27.6732C43.3268 28.8977 41.7256 29.959 40.0442 30.8569C38.9233 31.4284 37.8024 31.9182 36.6815 32.4896C35.7208 32.9794 34.68 33.5508 33.6391 34.0406C31.0771 35.2651 28.2749 36.163 25.5527 37.061C24.7521 37.3059 24.0315 37.5508 23.2309 37.7141C22.5103 37.7957 21.6296 38.0406 20.909 38.0406C20.1084 38.0406 19.3077 37.7957 18.5071 37.5508C17.2261 37.1426 17.066 35.6733 16.9859 34.4488C16.9058 33.5508 16.8258 32.6528 16.6656 31.8365C16.5055 31.1018 16.5055 30.4487 16.3454 29.7141C16.1853 28.9794 16.1052 28.2447 16.1052 27.51C16.1052 26.5304 16.4255 25.7141 16.6656 24.7345C16.8258 24.163 16.8258 23.51 17.146 22.9385C17.4663 22.1222 18.1068 21.3875 18.8274 20.8161C19.4679 20.2447 20.1885 19.5916 20.829 19.0202C21.2293 18.612 21.7096 18.3671 22.11 18.0406C22.8305 17.4691 23.6312 16.9794 24.5119 16.5712C25.1524 16.2447 25.6328 15.6732 26.2733 15.2651C26.9138 14.8569 27.6344 14.4487 28.2749 14.0406C28.8353 13.714 29.4758 13.5508 30.1163 13.3059C30.5967 13.1426 31.0771 12.8161 31.5575 12.6528C32.0379 12.4895 32.5182 12.4079 32.9986 12.2446C33.479 12.0814 33.8793 11.9181 34.3597 11.7548C34.9201 11.5916 35.4806 11.4283 35.961 11.4283C37.0018 11.4283 37.4822 11.9181 37.8024 12.9793C38.2027 14.3671 37.7224 15.5916 37.242 16.8977C36.8417 17.959 36.3613 18.9385 36.041 19.9998C35.5607 21.3875 34.2796 22.1222 33.2388 23.1018C32.1179 24.0814 30.7568 25.061 29.4758 25.6324C29.0755 25.7957 28.5951 25.959 28.1948 26.1222C27.8745 26.2855 27.4742 26.5304 27.154 26.6937C26.9138 26.8569 26.7536 27.0202 26.5135 27.1835C26.3533 27.3467 26.1131 27.3467 25.873 27.51C25.3926 27.8365 24.9122 28.1631 24.3518 28.408C23.8714 28.6528 22.8305 28.8161 22.5103 28.163C22.3501 27.8365 22.3502 27.4284 22.2701 27.1018C22.19 26.6937 22.19 26.2855 22.19 25.8773C22.19 25.4692 22.2701 25.1426 22.3502 24.7345C22.4302 24.3263 22.5904 23.9998 22.7505 23.5916C23.1508 22.4487 23.8714 21.6324 24.5119 20.7344C24.9122 20.163 25.3125 19.5916 25.7929 19.0202C26.5135 18.2039 27.5543 17.8773 28.515 17.5508C29.3957 17.3059 30.7568 17.061 31.6375 17.5508C32.3581 18.0406 31.8777 19.0202 31.6375 19.5916C31.4774 19.9181 31.3974 20.2447 31.2372 20.5712C31.1572 20.8161 31.1571 21.1426 30.997 21.3875C30.6768 21.8773 30.1163 22.2039 29.636 22.612C29.4758 22.7753 29.1556 23.0202 28.9154 23.1018C28.5951 23.1835 28.2749 23.1834 27.9546 23.2651C27.7945 23.2651 27.7144 23.51 27.5543 23.4283C27.3942 23.3467 27.3942 23.1834 27.3942 23.0202C27.3942 22.8569 27.4742 22.6936 27.5543 22.5304C27.5543 22.5304 27.5543 22.4487 27.5543 22.3671C27.7144 21.8773 28.2749 21.3059 28.515 20.8977C28.9154 21.061 28.6752 21.3059 28.5951 21.5508C28.515 21.714 28.515 21.8773 28.515 22.0406C28.515 22.2038 28.2749 22.4488 28.435 22.612C28.5151 22.6937 28.9154 22.5304 28.9954 22.5304C29.9562 22.2038 30.5167 21.1426 30.8369 20.2447C30.997 19.5916 30.997 18.612 30.3565 18.2855C29.8761 18.1222 29.2356 18.2039 28.7552 18.2039C26.9138 18.2039 25.7929 20.2447 24.7521 21.5508C24.1116 22.4487 23.5511 23.4283 23.1508 24.4896C22.9106 25.2243 22.7505 25.959 22.5903 26.6937C22.4302 27.2651 22.2701 28.0814 23.0707 27.9998C23.5511 27.9182 24.0315 27.6733 24.5119 27.51C24.9122 27.3467 25.2325 27.2651 25.6328 27.0202C26.1932 26.6937 26.9138 26.612 27.4742 26.2855C27.9546 26.0406 28.435 25.7957 28.9154 25.5508C30.1163 24.8977 31.3973 23.6732 32.198 22.612C32.7584 21.8773 33.6391 21.3059 34.2796 20.6528C35.0002 19.9998 35.3204 19.1018 35.8008 18.2855C36.2812 17.3875 36.5214 16.5712 36.7616 15.6732C36.9217 14.8569 37.4822 13.8773 37.1619 12.9793C36.9217 12.0814 35.7208 12.0814 35.0002 12.163C34.3597 12.2446 33.7192 12.4079 33.0787 12.5712C31.9578 12.9793 30.917 13.4691 29.8761 13.9589C28.1948 14.6936 26.7537 15.8365 25.2325 16.8161C24.4318 17.3059 23.5511 17.714 22.8305 18.2855C22.2701 18.6936 21.7897 19.2651 21.2293 19.6732C20.829 19.9998 20.5888 20.4079 20.1084 20.6528C19.5479 21.061 19.0676 21.4691 18.6672 21.9589C18.347 22.3671 17.9467 22.9385 17.7865 23.4283C17.6264 23.8365 17.7865 24.2447 17.7865 24.6528C17.7865 25.2243 17.6264 25.7957 17.6264 26.3671C17.6264 26.9386 17.6264 27.5916 17.6264 28.163C17.6264 29.3875 17.4663 30.5304 17.4663 31.6733C17.4663 32.408 17.6264 33.2243 17.7865 33.8773C17.8666 34.4488 18.1068 34.9386 18.1868 35.51C18.1868 35.9182 18.2669 36.4079 18.5872 36.6528C18.7473 36.7345 18.9875 36.8161 19.1476 36.8978C19.3077 36.9794 19.4679 37.061 19.628 37.061C19.7081 37.061 19.7881 37.1426 19.9483 37.1426C20.0283 37.1426 20.1084 37.3059 20.1084 37.3059C20.2685 37.3876 20.5888 37.3059 20.7489 37.3059C21.2293 37.2243 21.7096 37.1427 22.11 36.9794C23.3109 36.8161 24.4318 36.8161 25.5527 36.408C26.8337 35.9182 28.0347 35.1835 29.2356 34.6937C31.0771 33.8773 33.1587 33.3059 34.9201 32.3263C35.7208 31.9181 36.6015 31.4284 37.4021 31.1018C39.4037 30.2039 41.4854 29.4692 43.1667 28.0814C43.8072 27.5916 44.3676 26.9386 44.9281 26.3671C45.2483 26.0406 45.5686 25.7141 45.8888 25.3059C46.7695 24.163 47.5702 22.9385 48.2107 21.7141C48.5309 21.2243 48.6911 20.5712 48.9313 20.0814C49.4116 19.2651 49.892 18.5304 50.3724 17.7141C50.7727 16.8977 51.0129 16.0814 51.2531 15.1834C51.4132 14.612 51.5734 14.2038 51.4933 13.6324C51.4933 12.4896 51.5734 11.51 52.0537 10.4487C52.2939 9.87731 52.6943 9.06098 52.4541 8.40792C52.374 8.08139 51.8936 7.99975 51.6534 7.91812C51.0129 7.67322 50.3724 7.50994 49.7319 7.26504C49.1714 7.02014 48.7711 6.69362 48.1306 6.61199C47.8904 6.53036 47.6502 6.53035 47.41 6.53035C46.7695 6.53035 46.2892 7.02015 45.6487 6.93851C45.4885 6.93851 45.3284 6.85688 45.0882 6.85688C44.768 6.77524 44.4477 6.85688 44.1274 6.85688C43.4069 6.85688 42.7664 6.69363 42.0458 6.69363C41.2452 6.69363 40.4445 6.77524 39.6439 6.85688C38.8433 6.93851 38.1227 6.85688 37.322 6.85688C36.8417 6.85688 36.5214 7.10178 36.1211 7.26504C35.7208 7.42831 35.3204 7.50994 34.9201 7.6732C34.5198 7.83647 34.1996 7.91812 33.7992 7.99976C33.2388 7.99976 32.7584 7.9181 32.198 8.08137C31.5575 8.24463 30.917 8.48955 30.2765 8.73445C28.5951 9.46914 26.9138 10.4487 25.1524 11.0202C24.2717 11.2651 23.391 11.4283 22.5903 11.7548C22.2701 11.9181 22.0299 12.0814 21.7096 12.3263C21.1492 12.7344 20.5888 13.061 20.0283 13.3875C18.7473 14.2038 17.5463 15.1018 16.2653 16.0814C14.8242 17.1426 13.4631 18.2855 12.2621 19.6732C10.1805 22.1222 8.01878 24.5712 6.17731 27.2651C5.29661 28.4896 4.33585 29.8773 3.77541 31.2651V31.3467C3.45515 32.163 3.29503 32.9794 3.37509 33.8773C3.37509 33.8773 3.37509 33.8773 3.37509 33.959C3.45515 34.6937 3.77542 35.51 4.01561 36.1631C4.33587 36.8161 4.49597 37.4692 4.89629 38.1222C5.29661 38.7753 5.85705 39.3467 6.09725 40.0814C6.4175 40.9794 6.73776 41.959 7.05802 42.9386C7.37827 44.0814 7.69853 45.3059 7.85865 46.5304C8.01878 47.2651 8.09883 48.0814 8.49915 48.7345C8.97953 49.7141 10.0204 50.0406 10.9011 50.6121C11.3814 50.9386 11.6216 51.0202 12.1821 51.0202C12.9027 51.1018 13.7033 51.2651 14.4239 51.51C15.9451 51.9998 17.5463 52.3263 19.1476 52.3263C20.1084 52.3263 21.0691 52.0814 21.9498 51.9182C22.8305 51.8365 23.7112 51.7549 24.5919 51.5917C25.3926 51.4284 26.1932 51.2651 26.9938 51.2651C27.7945 51.2651 28.6752 51.4284 29.3957 51.5917C30.7568 51.9998 32.0378 52.2447 33.3989 52.2447C34.2796 52.2447 35.0803 51.9998 35.961 51.9998C36.7616 51.9182 37.4822 52.0814 38.2828 52.1631C39.6439 52.2447 41.005 51.9182 42.286 51.4284C43.1667 51.1018 43.8873 50.6937 44.6879 50.2039C45.3284 49.7957 45.9689 49.7141 46.6094 49.5508C47.9705 49.1427 49.3316 48.6529 50.6126 47.9182C52.2139 46.9386 53.575 45.5508 55.1762 44.5712C56.0569 43.9998 57.0978 43.5916 57.9785 43.0202C58.699 42.5304 59.4196 41.959 59.98 41.3059C60.7006 40.5712 61.3411 39.8365 62.0617 39.1018C62.6221 38.5304 62.8623 37.7957 63.1025 37.1426C63.5829 36.0814 63.743 35.0202 63.9031 33.8773C64.0633 32.7345 64.5437 31.7549 65.024 30.7753C65.6645 29.4692 66.1449 28.2447 66.225 26.7753C66.305 25.6324 66.4652 24.5712 66.4652 23.4283C66.4652 22.6937 66.3851 22.0406 66.225 21.3059C66.1449 20.6528 65.9848 19.9998 65.9047 19.3467C65.7446 18.5304 65.7446 17.7141 65.5845 16.8977C65.4244 16.2447 65.2642 15.51 65.1041 14.7753C64.944 14.2855 64.7838 13.7957 64.6237 13.3059C64.3035 12.4896 63.8231 11.6732 63.2626 10.9385C63.0225 10.612 62.7022 10.5304 62.462 10.3671C62.2218 10.2038 62.2218 10.0406 61.9816 9.95894C61.6614 9.79567 61.3411 9.6324 61.0209 9.46914C60.4604 9.1426 59.9 9.06098 59.3395 8.73445C58.8591 8.48955 58.3788 8.08137 57.8984 7.75484C57.3379 7.42831 56.7775 7.18342 56.2971 6.69363C55.8167 6.20383 55.4965 5.6324 55.0962 5.22423C54.6158 4.73444 53.9753 4.40791 53.4949 3.99974C52.6142 3.26505 51.4933 3.18341 50.5325 2.77525C50.0521 2.53035 49.4917 2.53035 49.0113 2.36709C48.3708 2.20382 47.9705 1.87729 47.33 1.79566C46.7695 1.71403 46.2091 1.71402 45.5686 1.55076C45.2483 1.46913 44.9281 1.3875 44.5278 1.3875C43.8872 1.30586 43.1667 1.38749 42.5262 1.46912C41.9657 1.55075 41.3252 1.46912 40.7648 1.46912C40.2844 1.46912 39.724 1.55075 39.2436 1.46912C37.8024 1.22422 36.2812 1.30586 34.8401 1.3875C33.479 1.46913 32.1179 1.55075 30.8369 2.04055C29.716 2.44871 28.6752 2.77525 27.5543 3.18341C26.8337 3.50995 26.1932 3.9181 25.4726 4.32627C23.7913 5.30586 22.2701 6.44873 20.7489 7.50995C18.9875 8.73445 17.3062 10.0406 15.6248 11.3467C14.5039 12.163 13.383 13.061 12.3422 13.8773C11.8618 14.2855 11.3814 14.6936 10.9811 15.1018C12.022 13.714 13.2229 12.4079 14.4239 11.1834C21.2293 4.40791 30.5967 0.244629 40.8449 0.244629C41.2452 0.244629 41.6455 0.244629 42.0458 0.244629C42.4461 0.244629 42.9265 0.244634 43.3268 0.326267C44.5278 0.407899 45.6487 0.571165 46.8496 0.734431C46.8496 0.734431 46.8496 0.734431 46.9297 0.734431C48.2107 1.06096 49.4917 1.46912 50.8528 1.87728C51.9737 2.20382 53.0145 2.53034 54.0553 2.85688C54.7759 3.10177 55.4164 3.4283 56.137 3.6732C56.7775 3.9181 57.418 4.163 57.9785 4.48953C58.9392 5.06096 59.8199 5.71404 60.6205 6.3671C61.181 6.77526 61.7414 7.34668 62.2218 7.83648C62.9424 8.57117 63.5829 9.3875 64.1433 10.2038C65.4243 12.2446 66.4652 14.5304 66.9456 16.9794C67.3459 19.0202 67.3459 21.1426 67.2658 23.1834C67.1858 24.2447 67.0256 25.4692 66.7854 26.5304C66.5452 27.7549 66.1449 28.8161 65.9848 30.0406C65.9047 30.612 65.9848 31.2651 65.9047 31.8365C65.8247 32.3263 65.6646 32.8161 65.5845 33.3059C65.4244 34.2855 65.1041 35.3467 64.6237 36.2447C63.9832 37.5508 63.1826 38.612 62.2218 39.6733C61.181 40.8978 60.1402 42.1222 59.0193 43.2651C57.9784 44.4896 56.6974 45.4692 55.3363 46.2855C54.2955 46.9386 53.1746 47.7549 52.0537 48.1631C50.9329 48.5712 49.7319 49.2243 48.5309 49.3876C47.6502 49.4692 46.9297 49.7957 46.2091 50.3672C45.8088 50.6937 45.4085 51.1019 45.0081 51.51C44.6078 51.8365 44.2075 51.9182 43.7271 52.0815C42.6863 52.408 41.6455 52.3263 40.5246 52.3263C38.9233 52.3263 37.4021 52.4896 35.8809 52.6529C35.0803 52.7345 34.2796 52.8161 33.5591 52.7345C32.8385 52.6529 32.1179 52.4896 31.4774 52.408C30.6768 52.3264 29.9562 52.3263 29.1556 52.1631C28.5151 52.0814 28.0347 52.0814 27.4742 52.1631C26.9938 52.2447 26.5135 52.1631 25.953 52.1631C25.4726 52.2447 24.9122 52.3264 24.4318 52.408C22.5103 52.8978 20.3486 53.959 17.9467 53.3876Z" fill="#00C4FF"/>
<path fill-rule="evenodd" clip-rule="evenodd" d="M16.1055 71.1022C16.1055 71.1022 24.9925 72.6532 28.9957 72.5715C35.0805 72.4083 42.1261 73.143 47.5705 73.3063C53.0148 73.4695 62.5423 68.8981 64.3037 68.0817C66.0651 67.2654 70.2284 64.8164 73.9114 60.6532C77.5943 56.4899 79.0354 49.7144 79.0354 49.7144H77.5142C77.5142 49.7144 76.9538 52.6531 74.712 55.9185C73.3509 57.8776 71.4294 59.5919 68.7873 61.9593C64.9443 65.3062 59.9803 67.9185 54.9363 69.2246C48.211 70.9389 42.2863 70.4491 38.1229 71.1022C32.1982 72.0001 18.9077 69.8777 18.9077 69.8777L16.1055 71.1022Z" fill="url(#paint10_radial_168_73151)"/>
<path fill-rule="evenodd" clip-rule="evenodd" d="M13.7839 66.6123C13.7839 66.6123 15.2251 70.3674 16.1058 71.1021C16.1058 71.1021 18.0273 71.1837 18.9881 70.2041L16.2659 68.0001L13.7839 66.6123Z" fill="url(#paint11_radial_168_73151)"/>
<path fill-rule="evenodd" clip-rule="evenodd" d="M79.195 42.6938C79.195 42.6938 80.1558 46.9388 80.2358 49.2245C80.2358 49.2245 78.7146 50.204 77.5938 49.7142C77.5938 49.7142 78.9548 44.4898 79.195 42.6938Z" fill="url(#paint12_radial_168_73151)"/>
<path fill-rule="evenodd" clip-rule="evenodd" d="M53.4949 2.28564C53.4949 2.28564 61.4212 3.10198 63.2626 4.4081C63.2626 4.4081 61.9816 5.87748 60.4604 6.12238C60.5405 6.04075 54.1354 2.44891 53.4949 2.28564Z" fill="#EE8CFF"/>
<path fill-rule="evenodd" clip-rule="evenodd" d="M6.73755 17.3062L10.0202 16.8164L11.3012 15.1021C11.3012 15.0204 8.97933 16.0817 6.73755 17.3062Z" fill="#FF61C7"/>
<path opacity="0.5" fill-rule="evenodd" clip-rule="evenodd" d="M9.38037 64.2449C9.38037 64.2449 24.7526 68.8163 36.6821 69.0612C48.6916 69.3061 53.1752 66.6122 58.3793 64.4898C63.5834 62.449 72.0701 57.7959 74.6322 54.2857C77.1942 50.8571 79.1958 42.6938 79.1958 42.6938C79.1958 42.6938 76.7138 54.9387 74.6322 57.0612C72.4705 59.1836 63.023 65.7959 61.3416 66.6122C59.6603 67.4286 55.1767 70.9388 46.9302 69.9592C46.9302 69.9592 41.4058 70.7755 39.4042 70.6122C37.4026 70.449 34.2801 72.4898 28.5956 70.6122C28.5956 70.6122 20.6693 70.2041 18.988 69.7959C17.2266 69.4694 9.38037 64.2449 9.38037 64.2449Z" fill="#54469B"/>
<path fill-rule="evenodd" clip-rule="evenodd" d="M13.1426 47.7549C13.1426 47.7549 25.8727 50.0407 35.08 49.0611C44.2873 48.0815 49.2512 45.7141 51.8933 43.9998C54.5354 42.2855 59.6595 36.6529 61.581 34.0406C63.5026 31.51 64.4633 25.061 64.4633 25.061C64.4633 25.061 64.7836 31.2651 63.2624 34.0406C61.6611 36.7345 56.2968 41.8774 54.0551 43.3468C51.8133 44.8162 45.4882 48.408 42.2056 48.9794C38.923 49.5509 33.4787 51.2651 29.4755 50.5304C25.6325 49.8774 16.0249 50.0407 13.1426 47.7549Z" fill="#B04FE2"/>
<path fill-rule="evenodd" clip-rule="evenodd" d="M30.7566 68.5715C30.7566 68.5715 43.9671 67.6735 48.5307 66.6123C53.0943 65.5511 59.0991 63.1021 63.2624 61.4694C67.4257 59.9184 70.6282 56.8164 72.9501 55.1021C75.2719 53.3878 78.2343 46.2041 78.2343 46.2041C78.2343 46.2041 76.3127 53.3062 73.4305 55.5919C70.5482 57.8776 63.1023 62.1225 54.7757 65.9592C45.4082 70.2041 38.2025 68.9796 30.7566 68.5715Z" fill="#8B40E0"/>
<path fill-rule="evenodd" clip-rule="evenodd" d="M76.9535 51.5919C77.1937 50.9389 77.3539 50.2858 77.5941 49.7144C76.8735 52.3266 75.8327 54.7756 74.6317 57.0613C74.3115 57.3878 73.8311 57.7144 73.5108 58.0409C73.1906 58.4491 72.8703 58.7756 72.5501 59.1838C70.7887 60.8981 68.8671 62.4491 66.7855 63.7552C64.7038 65.143 62.6222 66.4491 60.3003 67.5103C58.5389 68.3266 56.6975 68.9797 54.856 69.4695C53.3348 69.8777 51.7335 70.0409 50.2123 70.1226C49.4117 70.2042 48.6911 70.2858 47.8905 70.3675C46.9297 70.4491 45.8889 70.4491 45.0082 70.6124C43.3269 70.9389 41.6455 71.1838 39.9642 71.2654C38.5231 71.3471 37.0819 71.592 35.6408 71.592C33.7993 71.592 31.9578 71.2654 30.1164 71.2654C28.355 71.2654 26.5135 71.1838 24.7521 71.0205C23.7113 70.9389 22.6705 70.694 21.6296 70.6124C20.749 70.5307 19.8682 70.2858 18.9875 70.2042C18.267 69.6328 17.5464 69.0613 16.8258 68.4899C16.6657 68.3266 16.4255 68.1634 16.2654 68.0001C17.3062 68.3267 18.267 68.6532 19.3078 68.9797C20.7489 69.4695 22.3502 69.7144 23.7914 69.8777C24.9923 70.0409 26.5135 70.1226 27.7145 69.796C28.9955 69.4695 29.8762 69.8777 30.9971 70.3675C31.5575 70.6124 32.0379 70.694 32.5983 70.8573C33.399 71.1022 33.9594 71.0205 34.7601 70.9389C35.4806 70.8572 36.2012 70.694 36.8417 70.6124C37.4022 70.4491 38.0427 70.2042 38.6031 70.1226C39.6439 69.9593 40.7648 69.796 41.8057 70.0409C43.0066 70.2858 44.2076 70.3675 45.4085 70.2042C46.6895 69.9593 47.8104 69.8777 49.0914 69.8777C49.4918 69.8777 49.8921 69.9593 50.2924 69.9593C50.7728 70.0409 51.1731 69.8777 51.6535 69.8777C52.4541 69.796 53.2548 69.6328 54.0554 69.3879C54.776 69.143 55.4965 68.8164 56.2171 68.5715C57.6582 68.0001 58.8592 67.5103 60.1402 66.6124C61.181 65.8777 62.382 65.3879 63.4228 64.6532C64.4636 64.0001 65.3443 63.1021 66.3852 62.5307C67.5061 61.8777 68.4668 60.9797 69.5076 60.245C70.1482 59.7552 70.7887 59.1838 71.4292 58.694C71.9896 58.2858 72.6301 57.9593 73.1906 57.4695C74.0713 56.6531 74.952 55.8368 75.5925 54.694C76.1529 53.7144 76.6333 52.6532 76.9535 51.5919Z" fill="#00C4FF"/>
<path fill-rule="evenodd" clip-rule="evenodd" d="M36.2815 30.1221C36.2815 30.1221 45.4087 22.4486 49.2518 15.02C49.3319 15.02 38.6033 26.2037 36.2815 30.1221Z" fill="#FF77F4"/>
<path fill-rule="evenodd" clip-rule="evenodd" d="M26.6738 39.1835C26.6738 39.1835 32.4384 39.1835 38.8435 36.4896C45.2486 33.7958 48.4511 28.1631 48.4511 28.1631C48.4511 28.1631 44.1277 32.408 39.4039 34.7753C34.6802 37.1427 31.1574 37.7141 26.6738 39.1835Z" fill="#F9C6FF"/>
<path fill-rule="evenodd" clip-rule="evenodd" d="M49.4919 26.8568C49.4919 26.8568 50.1324 25.1425 51.3334 22.2038C52.5343 19.265 53.4951 17.6323 53.4951 17.6323C53.4951 17.6323 53.1749 22.2038 49.4919 26.8568Z" fill="#EA9CF4"/>
<path fill-rule="evenodd" clip-rule="evenodd" d="M24.6721 54.7753C24.6721 54.7753 32.6785 56.7345 43.1668 54.7753C53.6551 52.8161 54.0554 52.163 56.9377 49.7957C59.82 47.51 61.9017 44.5712 63.0226 43.4283C64.1434 42.2855 65.5846 38.4487 65.5846 38.4487C65.5846 38.4487 62.6222 43.8365 58.3789 47.51C54.1355 51.1018 50.6127 52.8977 43.4871 54.0406C36.4415 55.1018 28.275 54.9386 24.6721 54.7753Z" fill="#D374F4"/>
<path fill-rule="evenodd" clip-rule="evenodd" d="M31.7178 72.5715C31.7178 72.5715 39.0036 73.2245 41.9659 73.7959C44.9283 74.449 50.6128 74.3674 53.8954 73.1429C57.178 71.9184 63.5831 68.4082 63.5831 68.4082C63.5831 68.4082 57.5783 71.8368 50.3726 72.6531C43.2469 73.3878 38.8434 72.1633 31.7178 72.5715Z" fill="#D374F4"/>
<path fill-rule="evenodd" clip-rule="evenodd" d="M65.7446 67.347C65.7446 67.347 70.3883 64.1633 72.6301 62.1225C72.6301 62.0409 70.2282 65.4695 65.7446 67.347Z" fill="#D374F4"/>
<path fill-rule="evenodd" clip-rule="evenodd" d="M30.5974 27.0205C30.5974 27.0205 35.8816 22.9388 37.563 20.0817C39.2443 17.1429 39.4044 15.5103 39.4044 15.5103C39.4044 15.5103 40.125 18.3674 37.0025 21.9592C33.8 25.5511 30.5974 27.0205 30.5974 27.0205Z" fill="#F2C4F8"/>
<path fill-rule="evenodd" clip-rule="evenodd" d="M5.77726 48.3267C5.6972 50.1226 6.65796 52.1634 9.78044 53.3879C12.9029 54.6124 15.3048 54.2858 15.3048 54.2858C15.3048 54.2858 11.702 53.5511 9.70037 52.1634C7.69878 50.6124 5.77726 48.3267 5.77726 48.3267Z" fill="#F5CEFA"/>
<defs>
<radialGradient id="paint0_radial_168_73151" cx="0" cy="0" r="1" gradientUnits="userSpaceOnUse" gradientTransform="translate(15.9242 24.3962) scale(61.984 63.1989)">
<stop offset="0.00558659" stop-color="#FF9AFF"/>
<stop offset="0.0930098" stop-color="#FB94FF"/>
<stop offset="0.2093" stop-color="#F183FF"/>
<stop offset="0.3418" stop-color="#E068FF"/>
<stop offset="0.4864" stop-color="#C841FF"/>
<stop offset="0.639" stop-color="#A910FF"/>
<stop offset="0.6844" stop-color="#9F00FF"/>
<stop offset="0.7432" stop-color="#9900F8"/>
<stop offset="0.8282" stop-color="#8700E5"/>
<stop offset="0.9287" stop-color="#6A00C6"/>
<stop offset="1" stop-color="#5200AB"/>
</radialGradient>
<radialGradient id="paint1_radial_168_73151" cx="0" cy="0" r="1" gradientUnits="userSpaceOnUse" gradientTransform="translate(15.9242 24.3962) scale(61.984 63.1989)">
<stop offset="0.00558659" stop-color="#FF9AFF"/>
<stop offset="0.0930098" stop-color="#FB94FF"/>
<stop offset="0.2093" stop-color="#F183FF"/>
<stop offset="0.3418" stop-color="#E068FF"/>
<stop offset="0.4864" stop-color="#C841FF"/>
<stop offset="0.639" stop-color="#A910FF"/>
<stop offset="0.6844" stop-color="#9F00FF"/>
<stop offset="0.7432" stop-color="#9900F8"/>
<stop offset="0.8282" stop-color="#8700E5"/>
<stop offset="0.9287" stop-color="#6A00C6"/>
<stop offset="1" stop-color="#5200AB"/>
</radialGradient>
<radialGradient id="paint2_radial_168_73151" cx="0" cy="0" r="1" gradientUnits="userSpaceOnUse" gradientTransform="translate(17.6822 20.7395) scale(60.9296 62.1238)">
<stop offset="0.00558659" stop-color="#FF9AFF"/>
<stop offset="0.0930098" stop-color="#FB94FF"/>
<stop offset="0.2093" stop-color="#F183FF"/>
<stop offset="0.3418" stop-color="#E068FF"/>
<stop offset="0.4864" stop-color="#C841FF"/>
<stop offset="0.639" stop-color="#A910FF"/>
<stop offset="0.6844" stop-color="#9F00FF"/>
<stop offset="0.7432" stop-color="#9900F8"/>
<stop offset="0.8282" stop-color="#8700E5"/>
<stop offset="0.9287" stop-color="#6A00C6"/>
<stop offset="1" stop-color="#5200AB"/>
</radialGradient>
<radialGradient id="paint3_radial_168_73151" cx="0" cy="0" r="1" gradientUnits="userSpaceOnUse" gradientTransform="translate(25.6944 14.1691) scale(13.6241 13.8911)">
<stop offset="0.630208" stop-color="white"/>
<stop offset="1" stop-color="#EF9AFF"/>
</radialGradient>
<radialGradient id="paint4_radial_168_73151" cx="0" cy="0" r="1" gradientUnits="userSpaceOnUse" gradientTransform="translate(27.8621 19.1908) scale(4.73961 4.83249)">
<stop stop-color="white"/>
<stop offset="1" stop-color="#F7ABFF"/>
</radialGradient>
<radialGradient id="paint5_radial_168_73151" cx="0" cy="0" r="1" gradientUnits="userSpaceOnUse" gradientTransform="translate(24.9474 18.7431) scale(4.99437 5.09225)">
<stop stop-color="white"/>
<stop offset="1" stop-color="#F9D0FD"/>
</radialGradient>
<radialGradient id="paint6_radial_168_73151" cx="0" cy="0" r="1" gradientUnits="userSpaceOnUse" gradientTransform="translate(21.4148 13.8389) scale(11.5368 11.7629)">
<stop stop-color="white"/>
<stop offset="1" stop-color="#F7C2FC"/>
</radialGradient>
<radialGradient id="paint7_radial_168_73151" cx="0" cy="0" r="1" gradientUnits="userSpaceOnUse" gradientTransform="translate(16.4839 9.26709) scale(19.5601 19.9435)">
<stop stop-color="white"/>
<stop offset="1" stop-color="#F5AEFE"/>
</radialGradient>
<radialGradient id="paint8_radial_168_73151" cx="0" cy="0" r="1" gradientUnits="userSpaceOnUse" gradientTransform="translate(23.7331 12.4256) scale(27.2545 27.7887)">
<stop offset="0.744792" stop-color="white"/>
<stop offset="0.9998" stop-color="#E886FF"/>
<stop offset="0.9999" stop-color="#ED8CFF"/>
</radialGradient>
<radialGradient id="paint9_radial_168_73151" cx="0" cy="0" r="1" gradientUnits="userSpaceOnUse" gradientTransform="translate(15.2348 12.63) scale(46.0453 46.9477)">
<stop offset="0.84375" stop-color="#EEADFE"/>
<stop offset="1" stop-color="#B439EE"/>
</radialGradient>
<radialGradient id="paint10_radial_168_73151" cx="0" cy="0" r="1" gradientUnits="userSpaceOnUse" gradientTransform="translate(29.0373 53.518) scale(36.2904 37.0017)">
<stop offset="0.572917" stop-color="#EEB9FF"/>
<stop offset="1" stop-color="#7801BD"/>
</radialGradient>
<radialGradient id="paint11_radial_168_73151" cx="0" cy="0" r="1" gradientUnits="userSpaceOnUse" gradientTransform="translate(14.7469 67.7938) scale(3.91671 3.99348)">
<stop stop-color="#6D00C2"/>
<stop offset="0.3995" stop-color="#6600BC"/>
<stop offset="0.976" stop-color="#5300AC"/>
<stop offset="1" stop-color="#5200AB"/>
</radialGradient>
<radialGradient id="paint12_radial_168_73151" cx="0" cy="0" r="1" gradientUnits="userSpaceOnUse" gradientTransform="translate(78.0916 44.5738) scale(4.09099 4.17118)">
<stop stop-color="#1F0081"/>
<stop offset="0.73" stop-color="#260087"/>
<stop offset="1" stop-color="#2A008B"/>
</radialGradient>
</defs>
</svg>
