<svg width="67" height="67" viewBox="0 0 67 67" fill="none" xmlns="http://www.w3.org/2000/svg">
<path fill-rule="evenodd" clip-rule="evenodd" d="M66.0684 33.3002C66.0684 36.4922 65.6521 39.5454 64.8194 42.3905C63.154 48.2193 59.962 53.3543 55.5903 57.379C52.5371 60.224 48.8594 62.5139 44.8347 64.0405C41.2264 65.4284 37.2711 66.1917 33.177 66.1917C32.6219 66.1917 31.9973 66.1917 31.4422 66.1223C30.6095 66.0529 29.7075 65.9835 28.8748 65.9141C22.5602 65.0814 16.7313 62.4445 12.0821 58.4892C10.3473 57.032 8.75131 55.3666 7.2941 53.5625C6.25323 52.244 5.28175 50.7868 4.44906 49.2602C4.24088 48.9133 4.03271 48.4969 3.82454 48.1499C3.61637 47.7336 3.4082 47.3866 3.26942 46.9703C2.71429 45.7213 2.22855 44.4028 1.8122 43.0844C1.53463 42.1129 1.25707 41.1414 1.04889 40.17C0.91011 39.4761 0.771327 38.7821 0.701936 38.0188C0.493763 36.4922 0.35498 34.9656 0.35498 33.3696C0.35498 32.4675 0.354989 31.5655 0.493771 30.6634C0.563162 30.1082 0.563154 29.5531 0.701936 28.998C1.11828 25.7366 2.02036 22.6834 3.33879 19.8384C3.96331 18.4505 4.72662 17.0627 5.55932 15.8137C6.94714 13.6625 8.54314 11.6502 10.4167 9.84602C16.3149 4.08656 24.4337 0.547607 33.3158 0.547607C33.6627 0.547607 34.0097 0.547607 34.3567 0.547607C34.7036 0.547607 35.12 0.547609 35.4669 0.617C37.3405 0.755783 39.214 1.03335 40.9488 1.44969C41.9897 1.72726 43.0306 2.00482 44.002 2.35178C44.696 2.55995 45.3205 2.83752 46.0144 3.11508C46.5001 3.32325 46.9859 3.53143 47.4716 3.7396C47.541 3.80899 47.6104 3.80899 47.7491 3.87839C50.9411 5.40499 53.8556 7.48672 56.3537 9.98481C56.7006 10.3318 57.0476 10.6787 57.3945 11.0257C57.6027 11.3032 57.8803 11.5114 58.0884 11.789C58.5048 12.2053 58.8517 12.6911 59.1987 13.1074C60.5171 14.7728 61.6274 16.577 62.5989 18.4505C63.7091 20.671 64.6112 23.0303 65.2357 25.459C65.7215 27.9571 66.0684 30.594 66.0684 33.3002Z" fill="url(#paint0_radial_168_75183)"/>
<path fill-rule="evenodd" clip-rule="evenodd" d="M47.6104 3.7395C47.4716 3.7395 47.4022 3.7395 47.2634 3.80889C46.9164 3.87828 46.5695 3.80889 46.2225 3.7395C45.945 3.6701 45.8062 3.53132 45.4592 3.53132C45.0429 3.46193 44.6959 3.32315 44.2796 3.25376C43.8632 3.18437 43.5163 3.04558 43.0999 2.9068C42.753 2.76802 42.6142 2.83741 42.3366 2.9068C42.0591 2.97619 41.8509 2.83741 41.5734 2.76802C41.2958 2.62924 40.9488 2.62924 40.6712 2.55985C39.8385 2.42106 39.0059 2.1435 38.1732 1.93532C37.6874 1.79654 37.2017 1.79654 36.6466 1.79654C36.2302 1.79654 35.8833 1.93532 35.4669 1.93532C35.1894 1.93532 34.9812 1.86593 34.7036 1.86593C34.426 1.79654 34.1485 1.86593 33.8709 1.86593C33.4546 1.79654 33.2464 1.72715 32.83 1.86593C32.4831 1.93533 32.2749 1.93533 31.928 2.00472C31.581 2.00472 31.1647 2.1435 30.8177 2.21289C30.1932 2.35167 29.4993 2.49046 28.8748 2.49046C28.4584 2.49046 27.9033 2.35167 27.5563 2.49046C27.3482 2.55985 27.2094 2.83741 27.0012 2.97619C26.6542 3.32315 26.3073 3.60071 26.0297 3.94767C25.7522 4.29463 25.4746 4.71097 25.4746 5.19671C25.4746 5.61306 25.6828 6.09879 25.8909 6.44575C26.0991 6.8621 26.1685 7.20905 25.7522 7.48662C25.2664 7.83357 24.6419 8.11114 24.0868 8.31931C23.6704 8.4581 23.3235 8.52749 23.0459 8.24992C22.9071 8.18053 22.8377 7.97236 22.6989 7.83357C22.5602 7.76418 22.352 7.83358 22.2132 7.90297C21.7969 8.04175 21.3805 8.18053 20.9642 8.24992C20.6866 8.31931 20.4784 8.4581 20.2009 8.4581C19.9233 8.52749 19.7151 8.31931 19.3682 8.38871C18.9518 8.4581 18.4661 8.66627 18.0497 8.66627C17.7028 8.66627 17.2864 8.52749 17.0089 8.38871C16.8701 8.31931 16.8007 8.18053 16.5925 8.24992C16.4537 8.24992 16.2456 8.4581 16.1762 8.59688C16.0374 8.73566 16.0374 8.94383 15.8986 9.08262C15.7598 9.29079 15.6904 9.42957 15.5516 9.63774C15.3435 9.9847 15.1353 10.3317 14.9271 10.6786C14.7883 10.8868 14.6496 11.2337 14.4414 11.4419C14.372 11.5807 14.1638 11.6501 14.0251 11.7195C13.6781 11.9277 13.3311 12.2052 12.9842 12.4134C12.3597 12.8991 11.7351 13.4543 11.1106 13.94C10.6249 14.287 9.93096 14.4951 9.37583 14.7727C9.02888 14.9115 8.68192 15.0503 8.33497 15.189C8.19618 15.2584 7.98801 15.2584 7.91861 15.3972C7.77983 15.536 7.71045 15.6748 7.64105 15.8829C7.36349 16.2299 7.01653 16.6463 6.80835 17.0626C6.66957 17.3402 6.60018 17.5483 6.4614 17.8259C6.32261 18.1729 6.11446 18.5198 6.04507 18.9362C5.7675 19.6995 5.76748 20.5322 5.42053 21.2955C5.28175 21.7118 5.00419 22.1282 4.79601 22.5445C4.44906 23.2384 4.37968 24.0711 4.31029 24.8344C4.2409 25.2508 4.31027 25.8059 4.37966 26.2222C4.44905 26.708 4.44906 27.1937 4.44906 27.6794C4.44906 28.1652 4.1021 28.7203 3.82454 29.0673C3.54697 29.4142 3.06123 29.553 2.71428 29.9C2.43671 30.1775 2.08975 30.4551 1.95097 30.8714C1.88158 31.0102 1.95097 31.2184 1.95097 31.4266C1.88158 31.8429 1.7428 32.1899 1.7428 32.6062C1.67341 33.092 1.67341 33.5777 1.67341 34.1328C1.67341 34.4104 1.67341 34.6186 1.67341 34.8961C1.67341 35.1737 1.74281 35.3819 1.8122 35.59C1.8122 35.7288 1.8122 35.937 1.8122 36.0758C1.8122 36.284 1.95097 36.4921 1.95097 36.6309C2.08975 37.1166 2.15916 37.533 2.22855 38.0187C2.29794 38.4351 2.50612 38.8514 2.57551 39.2678C2.78368 39.8229 2.85305 40.378 2.99184 41.0026C3.06123 41.4189 3.06124 41.9046 3.13063 42.321C3.20002 42.6679 3.26942 43.0149 3.26942 43.3619C3.26942 43.917 3.13063 44.4027 3.13063 44.9579C3.13063 45.8599 3.47758 46.762 3.68575 47.6641C3.75514 47.9417 3.82454 48.1498 3.89393 48.4274C1.60403 43.9864 0.35498 38.9208 0.35498 33.5777C0.35498 27.0549 2.22854 21.0179 5.48992 15.9523C6.87775 13.8012 8.47374 11.7889 10.3473 10.0541C16.2456 4.29463 24.3643 0.755676 33.2464 0.755676C33.9403 0.755676 34.7036 0.755675 35.3975 0.825066C39.6998 0.755675 43.8632 1.93533 47.6104 3.7395Z" fill="url(#paint1_linear_168_75183)"/>
<path fill-rule="evenodd" clip-rule="evenodd" d="M21.5891 28.5121C21.1727 29.2754 20.0625 30.5938 20.4094 31.7041C20.5482 32.1898 20.8952 32.6062 21.1033 33.0919C21.6585 34.2716 22.7687 35.4512 24.1566 34.6185C25.7525 33.6471 25.0586 31.9123 24.3647 30.6632C24.0872 30.1775 23.7402 29.6224 23.2545 29.3448C22.9769 29.206 22.5606 29.0672 22.283 28.9979C21.7279 28.7897 22.0748 28.5121 21.5891 28.5121Z" fill="#FF9F84"/>
<path fill-rule="evenodd" clip-rule="evenodd" d="M25.1279 40.1005C25.1973 39.8923 25.2667 39.1984 25.4749 38.9208C25.6137 38.7127 25.9606 38.5739 26.2382 38.4351C26.7933 38.2269 27.4178 38.2963 27.8342 38.7127C28.6669 39.4066 28.5975 40.5168 27.8342 41.2801C27.4872 41.6271 27.0015 41.974 26.5158 41.974C26.2382 41.974 25.9606 42.0434 25.7525 41.9046C25.4749 41.7659 25.2667 41.4883 25.1973 41.2107C25.0585 40.725 25.1279 40.378 25.4055 39.9617L25.1279 40.1005Z" fill="#FF9F84"/>
<path fill-rule="evenodd" clip-rule="evenodd" d="M19.091 39.7535C19.091 40.1005 18.8828 41.0025 19.4379 41.1413C19.7155 41.2107 19.993 40.8638 19.993 40.6556C20.0624 40.4474 19.9931 40.1005 19.9237 39.8923C19.7849 39.6147 19.5073 39.4065 19.2991 39.6841H19.091V39.7535Z" fill="#FF9F84"/>
<path fill-rule="evenodd" clip-rule="evenodd" d="M5.07373 33.3695C5.14312 33.9246 5.14313 34.8267 5.49008 35.3125C5.62886 35.5206 5.76766 35.7288 6.04522 35.7982C6.32279 35.8676 6.46156 35.7288 6.60034 35.5206C6.87791 35.1737 6.87791 34.9655 6.87791 34.5492C6.87791 34.2022 6.73913 33.7859 6.60034 33.4389C6.46156 33.2307 6.25338 33.0226 6.1146 32.8838C5.97582 32.745 5.83704 32.6756 5.55948 32.6756C5.21252 32.6756 5.28191 33.0919 5.21252 33.3695H5.07373Z" fill="#FF9F84"/>
<path fill-rule="evenodd" clip-rule="evenodd" d="M53.7866 30.6633C53.7866 30.5939 53.856 29.6224 54.0642 29.4142C54.1336 29.3448 54.3418 29.2754 54.4112 29.206C54.6887 29.0673 55.0357 28.9979 55.3826 29.1367C55.799 29.3448 56.2153 29.9693 56.0765 30.4551C55.9377 31.0796 55.2438 31.4959 54.6887 31.4959C54.0642 31.4959 53.5785 30.7327 53.9254 30.1775L53.7866 30.6633Z" fill="#FF9F84"/>
<path fill-rule="evenodd" clip-rule="evenodd" d="M19.9932 38.4351C19.9932 38.4351 20.0626 37.9494 20.132 37.8106C20.2013 37.7412 20.2707 37.7412 20.3401 37.7412C20.4789 37.6718 20.6871 37.6718 20.8259 37.7412C21.034 37.88 21.2422 38.1575 21.1728 38.4351C21.1034 38.7127 20.7565 38.9902 20.4789 38.9902C20.2013 38.9902 19.9238 38.5739 20.0626 38.2963L19.9932 38.4351Z" fill="#FF9F84"/>
<path fill-rule="evenodd" clip-rule="evenodd" d="M34.9814 44.4719C34.9814 44.4719 35.0508 43.9862 35.1202 43.8474C35.1896 43.778 35.259 43.778 35.3284 43.778C35.4672 43.7086 35.6754 43.7086 35.8141 43.778C36.0223 43.9168 36.2305 44.1944 36.1611 44.4719C36.0917 44.7495 35.7448 45.0271 35.4672 45.0271C35.1896 45.0271 34.9121 44.6107 35.0508 44.3332L34.9814 44.4719Z" fill="#FF9F84"/>
<path fill-rule="evenodd" clip-rule="evenodd" d="M45.1128 17.9647C45.1128 17.9647 45.1822 17.479 45.2516 17.3402C45.321 17.2708 45.3904 17.2708 45.4597 17.2708C45.5985 17.2014 45.8067 17.2014 45.9455 17.2708C46.1537 17.4096 46.3618 17.6872 46.2925 17.9647C46.2231 18.2423 45.8761 18.5199 45.5985 18.5199C45.321 18.5199 45.0434 18.1035 45.1822 17.826L45.1128 17.9647Z" fill="#FF9F84"/>
<path fill-rule="evenodd" clip-rule="evenodd" d="M24.5034 56.4074C24.5034 56.4074 24.5728 55.9216 24.6422 55.7828C24.7116 55.7134 24.781 55.7135 24.8504 55.7135C24.9892 55.6441 25.1973 55.6441 25.3361 55.7135C25.5443 55.8522 25.7525 56.1298 25.6831 56.4074C25.6137 56.6849 25.2667 56.9625 24.9892 56.9625C24.7116 56.9625 24.434 56.5461 24.5728 56.2686L24.5034 56.4074Z" fill="#FF9F84"/>
<path fill-rule="evenodd" clip-rule="evenodd" d="M51.6354 38.8513C51.1497 39.1983 50.8027 39.3371 50.5251 39.7534C50.317 40.1004 50.0394 40.3779 49.9006 40.7943C49.7618 41.0718 49.623 41.5576 49.623 41.8351C49.6924 42.6678 50.7333 41.9739 51.0802 41.6964C51.4966 41.3494 51.9129 40.8637 51.9129 40.3085C51.9129 40.1004 51.913 39.8228 51.8436 39.6146C51.7742 39.5452 51.7742 39.4064 51.7048 39.3371C51.566 39.1983 51.4966 39.1983 51.6354 38.8513Z" fill="#FF9F84"/>
<path fill-rule="evenodd" clip-rule="evenodd" d="M62.1134 42.668C62.1828 42.321 61.9746 43.6394 62.044 43.7088C62.1828 43.7088 62.3216 43.7088 62.4604 43.7088C62.5991 43.7088 62.6685 43.57 62.8073 43.5006C63.0849 43.2925 63.2931 43.1537 63.2931 42.8067C63.2931 42.5292 63.2237 42.321 62.9461 42.1822C62.8073 42.1128 62.7379 42.1128 62.5991 42.1128C62.3216 42.1822 62.1134 42.4598 61.9746 42.7373L62.1134 42.668Z" fill="#FF9F84"/>
<path fill-rule="evenodd" clip-rule="evenodd" d="M33.2466 56.9624C33.5242 56.9624 32.5527 56.9624 32.5527 56.9624C32.5527 57.0318 32.5527 57.1706 32.5527 57.24C32.5527 57.3788 32.6221 57.3788 32.6915 57.4482C32.8303 57.5869 32.9691 57.7257 33.1773 57.7257C33.3854 57.7257 33.5242 57.6563 33.5242 57.4482C33.5242 57.3788 33.5936 57.3094 33.5242 57.24C33.4548 57.0318 33.2467 56.893 33.1079 56.893L33.2466 56.9624Z" fill="#FFEF84"/>
<path fill-rule="evenodd" clip-rule="evenodd" d="M32.7609 54.1175C32.8303 53.7706 32.6221 55.089 32.6915 55.1584C32.8302 55.1584 32.969 55.1584 33.1078 55.1584C33.2466 55.1584 33.316 55.0196 33.4548 54.9502C33.7323 54.7421 33.9405 54.6033 33.9405 54.2563C33.9405 53.9788 33.8711 53.7706 33.5935 53.6318C33.4548 53.5624 33.3854 53.5624 33.2466 53.5624C32.969 53.6318 32.7609 53.9094 32.6221 54.1869L32.7609 54.1175Z" fill="#FF9F84"/>
<g opacity="0.25">
<path opacity="0.4" fill-rule="evenodd" clip-rule="evenodd" d="M9.18165 13.3329C8.21018 14.5125 7.37748 15.6228 6.75296 17.0106C6.19783 18.1903 5.98966 19.5781 5.78149 20.8965C5.64271 21.6598 5.57332 22.4231 5.43453 23.2558C5.36514 23.9497 5.15698 24.6436 5.22637 25.3375C5.36515 26.309 5.43454 27.3499 5.92028 28.1826C6.40602 29.0847 6.89175 29.9174 7.51627 30.7501C8.14079 31.5134 8.90409 31.9297 9.94496 31.9991C10.5001 32.0685 11.0552 31.9297 11.6103 31.9991C12.3736 32.0685 13.137 32.2073 13.9003 32.3461C15.4269 32.6236 17.1616 32.6236 18.2719 31.3746C19.174 30.3337 19.5903 29.0847 20.1455 27.8356C20.77 26.5172 21.5333 25.4763 22.6435 24.5742C23.4762 23.9497 24.2395 23.1864 25.0029 22.4925C25.3498 22.2149 25.558 21.868 25.9743 21.5904C26.3907 21.3823 26.5988 21.1047 26.9458 20.7577C27.2928 20.4802 27.6397 20.272 27.9173 19.925C28.403 19.3699 28.75 18.676 28.9581 18.0515C29.2357 17.3576 29.3051 16.6636 29.4439 15.9003C29.5133 15.2064 29.3051 14.5125 29.0969 13.8186C28.6806 12.5696 27.5703 11.7369 26.5988 10.9736C25.3498 10.0021 23.8232 9.58575 22.2966 9.23879C20.9088 8.96123 19.174 8.89184 17.7168 9.1694C16.1902 9.44697 14.6636 9.65514 13.2757 10.2797C12.2349 10.7654 11.6104 11.3899 10.7777 12.1532C10.3613 12.5002 9.87556 12.7777 9.45921 13.1941C8.97347 13.7492 8.48774 14.3737 9.18165 13.3329Z" fill="black"/>
<path opacity="0.4" fill-rule="evenodd" clip-rule="evenodd" d="M24.0312 7.22648C24.2394 6.87953 24.4476 6.3244 24.7252 6.04683C24.8639 5.83866 25.0721 5.69987 25.2803 5.56109C25.8354 5.07535 26.4599 4.7284 27.1539 4.52022C27.5702 4.38144 27.9866 4.38144 28.3335 4.52022C28.7499 4.58962 29.4438 4.86718 29.7213 5.14475C30.2765 5.69988 29.9295 6.60196 29.7213 7.22648C29.5826 7.851 29.3744 8.47552 28.8193 8.82248C28.4723 9.10004 27.9866 9.30822 27.5702 9.37761C27.362 9.447 27.0845 9.447 26.8069 9.447C26.5987 9.447 26.3906 9.51639 26.2518 9.51639C25.766 9.51639 25.0721 9.16943 24.9333 8.75309C24.864 8.54491 24.7946 8.26735 24.6558 8.05918C24.5864 7.851 24.517 7.71222 24.4476 7.50404C24.3088 7.15709 24.2394 6.81013 24.0312 7.22648Z" fill="black"/>
<path opacity="0.4" fill-rule="evenodd" clip-rule="evenodd" d="M29.5134 10.696C29.3746 11.043 29.3052 11.4594 29.3052 11.8063C29.444 11.8757 29.5134 12.0839 29.7215 12.2227C29.8603 12.292 30.0685 12.292 30.2766 12.292C30.6236 12.292 30.9012 12.292 30.9706 11.8757C31.04 11.5287 30.693 11.2512 30.4154 11.043C30.2073 10.9042 29.8603 10.5573 29.6521 10.8348L29.5134 10.696Z" fill="black"/>
<path opacity="0.4" fill-rule="evenodd" clip-rule="evenodd" d="M34.0235 16.0392C33.6072 16.3167 33.1214 16.5943 32.7051 16.9413C32.2193 17.3576 31.803 17.8433 31.3866 18.3985C30.9009 19.023 30.2764 19.7169 30.4152 20.619C30.554 21.4517 30.8315 22.215 31.456 22.7701C32.2193 23.464 33.399 23.464 34.3011 23.8804C35.0644 24.2273 35.5501 24.9906 35.8971 25.7539C36.4522 26.8642 37.7012 27.0724 38.8115 27.2805C39.5054 27.4193 40.2687 27.4887 40.9626 27.6275C41.9341 27.7663 42.9056 27.9051 43.8771 28.0438C45.6812 28.1826 47.4854 28.599 49.2896 28.4602C51.2325 28.3214 52.9673 27.6275 54.4939 26.5172C55.8124 25.6152 57.0614 23.9498 57.4084 22.3538C57.7553 20.6884 57.2002 18.8148 56.4369 17.2882C55.396 15.3453 54.147 13.6105 52.7591 11.8757C51.9958 10.9042 51.1631 10.0715 50.3304 9.16945C49.6365 8.33675 48.9426 7.64284 48.1793 6.94893C46.3751 5.42232 44.1546 4.17328 41.7953 4.0345C40.8933 3.96511 39.9912 4.10389 39.0891 4.45085C38.3258 4.72841 37.7706 5.14476 37.2155 5.76928C35.8277 7.22649 35.0644 9.10005 34.4399 10.9736C34.1623 11.8757 33.8847 12.8472 34.0235 13.7493C34.0235 14.0268 34.2317 14.235 34.2317 14.5126C34.2317 14.7901 34.2317 14.9983 34.2317 15.2759C34.2317 15.4147 34.2317 15.5534 34.1623 15.6922C34.0929 15.831 33.8847 16.0392 34.0235 16.0392Z" fill="black"/>
<path opacity="0.4" fill-rule="evenodd" clip-rule="evenodd" d="M26.5295 22.5619C25.6274 23.117 24.6559 23.5334 23.962 24.3661C23.8232 24.5049 23.6844 24.713 23.7538 24.9212C23.8232 25.1294 24.1008 25.2682 24.3089 25.3376C25.0029 25.6151 25.8355 25.7539 26.5988 25.6151C27.2928 25.4763 28.1255 25.06 28.4724 24.4355C28.9582 23.6722 28.403 22.4231 27.4316 22.4925C27.2928 22.4925 27.154 22.5619 27.0152 22.5619C26.8764 22.5619 26.807 22.5619 26.6682 22.5619C26.5295 22.5619 26.5295 22.5619 26.3907 22.6313C26.2519 22.7701 26.1131 22.9089 26.5295 22.5619Z" fill="black"/>
<path opacity="0.4" fill-rule="evenodd" clip-rule="evenodd" d="M7.5166 35.2605C7.16964 35.6074 6.7533 35.885 6.54513 36.3014C6.33695 36.7177 6.19817 37.1341 6.12878 37.6198C6.05939 38.0361 5.9206 38.4525 6.05938 38.8688C6.12877 39.2158 6.33695 39.5627 6.47573 39.9791C6.61451 40.4648 6.82269 40.8812 6.89208 41.3669C7.03087 41.9914 7.23904 42.4772 7.5166 43.0323C7.79416 43.5874 8.07172 44.0732 8.41868 44.5589C8.76563 45.114 9.11259 45.461 9.52894 45.9467C11.0555 47.4733 12.8597 49.1387 15.0802 49.4163C16.1905 49.5551 17.3701 49.2775 18.2028 48.4448C19.1049 47.5427 19.66 46.2937 19.8682 45.0446C20.007 44.0038 19.9376 42.8935 19.3825 41.9914C18.8968 41.2281 18.411 40.4648 17.8559 39.8403C17.4395 39.424 17.0232 39.077 16.5375 38.6607C16.1211 38.2443 15.7048 37.828 15.219 37.5504C14.3863 36.9259 13.623 36.3014 12.7903 35.7462C12.027 35.1911 11.1943 34.636 10.2922 34.4278C9.66773 34.289 8.97382 34.1502 8.3493 34.4278C8.07174 34.5666 7.86355 34.636 7.72476 34.8441C7.65537 34.9829 7.5166 35.1911 7.5166 35.3299C7.37782 35.1911 7.30843 35.1911 7.5166 35.2605Z" fill="black"/>
<path opacity="0.4" fill-rule="evenodd" clip-rule="evenodd" d="M13.345 33.8033C13.345 34.0808 13.4144 34.3584 13.4144 34.5666C13.4144 34.636 13.4838 34.7054 13.4838 34.8442C13.5532 34.9135 13.7614 34.9135 13.8308 34.9135C14.1084 34.9135 14.3859 34.7748 14.5941 34.636C14.941 34.3584 15.0798 33.8033 14.7329 33.5257C14.5247 33.3175 14.1777 33.1788 13.8308 33.2482C13.692 33.3175 12.9287 33.6645 13.2063 33.9421L13.345 33.8033Z" fill="black"/>
<path opacity="0.4" fill-rule="evenodd" clip-rule="evenodd" d="M57.3394 26.5866C57.4781 26.0315 57.4781 25.6152 57.8251 25.1988C58.1721 24.8519 58.519 24.4355 58.7966 24.0886C59.3517 23.3947 59.6987 22.4926 59.9068 21.6599C60.115 20.8966 59.9068 20.1333 60.2538 19.37C60.3232 19.1618 60.462 18.8842 60.6007 18.7454C60.7395 18.6761 61.1559 18.7454 61.2947 18.8148C61.4334 18.8842 61.6416 19.0924 61.7804 19.2312C61.9886 19.4394 62.1968 19.6475 62.4743 19.9251C63.5846 21.1047 64.2091 22.9089 64.1397 24.5049C64.1397 25.4764 64.0009 26.3091 63.7234 27.2112C63.5846 27.5581 63.4458 27.9051 63.2376 28.252C63.0294 28.6684 62.6825 28.8766 62.3355 29.1541C61.2253 29.848 59.5599 29.6399 58.5884 28.7378C58.2414 28.3908 58.1027 27.9745 57.8251 27.5581C57.6169 27.2806 57.4782 27.003 57.4088 26.5866C57.4088 26.5173 57.4087 26.5173 57.3394 26.5866Z" fill="black"/>
<path opacity="0.4" fill-rule="evenodd" clip-rule="evenodd" d="M57.3394 14.235C57.5475 14.8595 57.6169 15.5534 58.3108 15.9004C58.4496 15.9698 58.6578 16.0392 58.7966 16.0392C58.9354 16.0392 59.0741 15.9698 59.2129 15.831C59.9068 15.3452 59.4905 14.1656 59.0741 13.6105C58.7966 13.3329 58.4496 13.1941 58.1027 13.0553C57.9639 12.9859 57.9639 12.9859 57.8251 13.0553C57.6863 13.1247 57.6169 13.1247 57.5475 13.2635C57.4781 13.3329 57.4781 13.5411 57.4781 13.6105C57.4781 13.7493 57.4088 13.8186 57.4088 13.888C57.3394 14.0962 57.4088 14.3044 57.4781 14.5126L57.3394 14.235Z" fill="black"/>
<path opacity="0.4" fill-rule="evenodd" clip-rule="evenodd" d="M52.204 40.9506C52.0652 41.3669 51.9264 41.8527 51.7182 42.269C51.5101 42.7547 51.3019 43.1711 51.0937 43.6568C50.608 44.8365 50.3304 46.1549 49.9834 47.404C49.6365 48.7224 49.4283 50.1102 49.2895 51.4286C49.2201 52.1226 49.0814 52.8165 49.1507 53.5104C49.1507 53.9961 49.1507 54.6206 49.3589 55.1064C49.4977 55.3839 49.7753 55.8697 50.0528 56.0085C50.4692 56.2166 50.9549 55.8697 51.3019 55.6615C52.6203 54.9676 53.8 53.9961 54.8408 52.9553C55.8817 51.9144 56.9226 50.9429 57.8246 49.7633C58.241 49.2081 58.6573 48.7224 59.0043 48.0979C59.2819 47.6121 59.49 47.057 59.6982 46.5713C59.9064 46.0855 60.1145 45.5998 60.3227 45.114C60.6003 44.5589 60.8084 43.9344 61.0166 43.3099C61.3636 42.1302 61.7105 40.9506 61.2942 39.7709C60.9472 38.7301 60.1146 37.9668 59.0043 37.7586C58.4492 37.6198 57.7552 37.481 57.2001 37.481C56.645 37.5504 56.0205 37.6892 55.4653 37.8974C54.9796 38.1055 54.4939 38.3137 54.0775 38.5913C53.8693 38.7301 53.6612 38.9382 53.453 39.1464C53.1061 39.4934 52.8285 39.8403 52.5509 40.2567C52.4121 40.4648 52.3427 40.6036 52.1346 40.7424C52.0652 41.0894 51.9264 41.4363 52.204 40.9506Z" fill="black"/>
<path opacity="0.4" fill-rule="evenodd" clip-rule="evenodd" d="M47.0001 56.1472C46.3062 56.4248 45.751 56.633 45.1265 57.1187C44.4326 57.6739 43.7387 58.1596 43.2529 58.9229C43.0448 59.2005 42.6978 59.6168 42.9754 59.9638C43.1835 60.2413 43.5999 60.2413 43.9469 60.2413C44.4326 60.2413 44.9183 60.1719 45.3347 59.9638C45.751 59.825 46.098 59.5474 46.5143 59.4086C46.9307 59.2698 47.4858 58.9923 47.7634 58.6453C47.9022 58.4372 48.0409 58.1596 48.1797 57.9514C48.3185 57.7432 48.3185 57.6739 48.3185 57.3963C48.3185 57.1187 48.1103 56.7718 47.9715 56.633C47.8328 56.4942 47.4858 56.286 47.2776 56.3554C47.1388 56.3554 47.0001 56.4248 46.8613 56.4942C46.5837 56.4942 46.3756 56.8412 47.0001 56.1472Z" fill="black"/>
<path opacity="0.4" fill-rule="evenodd" clip-rule="evenodd" d="M46.1672 52.1226C46.0284 51.5674 45.8896 51.2205 45.8896 50.6654C45.959 50.1796 45.9591 49.7633 46.1672 49.3469C46.306 49.1387 46.5836 48.5836 46.7917 48.5142C46.8611 48.5142 47.0693 48.5142 47.1387 48.5142C47.4856 48.5836 47.6938 49 47.7632 49.3469C47.902 49.8327 47.7632 50.3878 47.8326 50.9429C47.8326 51.3593 47.7632 51.7062 47.6244 52.0532C47.4856 52.3307 47.2775 52.3307 46.9999 52.3307C46.7224 52.3307 46.5836 52.2613 46.3754 52.0532C46.306 51.9838 46.1672 51.9838 46.0978 51.9144C45.959 51.7756 45.9591 51.6368 46.1672 52.1226Z" fill="black"/>
<path opacity="0.4" fill-rule="evenodd" clip-rule="evenodd" d="M45.5427 31.3052C45.4733 31.6522 45.4733 32.0685 45.4733 32.4155C45.6121 32.4155 45.7508 32.693 45.8896 32.693C46.1672 32.7624 46.3754 32.6236 46.5835 32.4848C46.9999 32.1379 47.1387 31.5134 46.9999 31.0276C46.9305 30.5419 46.3754 30.4725 45.959 30.5419C45.8203 30.5419 45.6121 30.6113 45.5427 30.6807C45.2651 30.8888 45.2651 31.1664 45.2651 31.444L45.5427 31.3052Z" fill="black"/>
<path opacity="0.4" fill-rule="evenodd" clip-rule="evenodd" d="M14.178 53.9267C14.3862 53.5104 14.5944 53.094 14.8719 52.7471C15.2189 52.3307 15.5658 51.9838 15.9128 51.6368C16.3985 51.2205 16.8843 50.8041 17.37 50.4572C17.8557 50.1102 18.2721 49.7633 18.7578 49.4163C19.5905 48.8612 20.4926 48.5142 21.4641 48.1673C22.2274 47.8897 23.0601 47.8203 23.8928 47.9591C24.7255 48.0979 25.5582 48.5836 26.1133 49.1387C26.6684 49.6939 27.2929 50.3878 27.6399 51.0817C28.4032 52.5389 28.0562 54.2043 27.5705 55.6615C27.3623 56.3554 26.8766 57.1187 26.3215 57.6045C25.9745 57.882 25.6276 58.0208 25.2112 58.0902C24.7949 58.1596 24.2397 58.3678 23.8234 58.3678C21.811 58.6453 19.7987 58.5066 17.9251 57.8127C17.1618 57.5351 16.4679 57.1881 15.7046 56.8412C15.1495 56.5636 14.6637 56.2167 14.3168 55.7309C14.0392 55.384 13.8311 54.8982 13.8311 54.4125C13.8311 54.2043 13.9004 53.9961 13.9698 53.788C14.1086 53.9267 14.178 53.8574 14.178 53.9267Z" fill="black"/>
<path opacity="0.4" fill-rule="evenodd" clip-rule="evenodd" d="M29.0276 54.8288C28.8888 55.1758 28.8194 55.5921 28.75 55.9391C28.8888 56.0084 28.8888 56.2166 28.9582 56.3554C29.0969 56.4942 29.1663 56.5636 29.3745 56.5636C29.5827 56.5636 29.7909 56.5636 29.9296 56.5636C30.2072 56.4942 30.2766 56.4248 30.4154 56.2166C30.5542 56.0085 30.6235 55.8697 30.6235 55.5921C30.6235 55.3839 30.5542 55.1758 30.4154 55.037C30.346 54.8982 30.2072 54.7594 30.0684 54.69C29.7909 54.4818 29.5827 54.6206 29.3745 54.7594L29.0276 54.8288Z" fill="black"/>
<path opacity="0.4" fill-rule="evenodd" clip-rule="evenodd" d="M61.5026 37.6892C61.225 37.4811 60.9474 37.2035 60.7393 36.8565C60.7393 36.7178 60.7393 36.579 60.7393 36.4402C60.6699 36.0932 60.6005 35.8157 60.6699 35.4687C60.8086 34.636 61.5026 34.0809 62.3353 34.0115C62.8904 33.9421 63.6537 34.3585 63.9312 34.8442C64.2088 35.3299 64.3476 35.8851 64.3476 36.4402C64.3476 36.8565 64.2782 37.4117 64.0007 37.7586C63.7925 38.0362 63.4455 38.0362 63.168 38.0362C62.821 38.0362 62.474 37.9668 62.1965 37.8974C61.9189 37.828 61.6413 37.6892 61.5026 37.6892Z" fill="black"/>
</g>
<defs>
<radialGradient id="paint0_radial_168_75183" cx="0" cy="0" r="1" gradientUnits="userSpaceOnUse" gradientTransform="translate(12.8234 17.9302) scale(52.8077 52.8077)">
<stop offset="0.00558659" stop-color="#DE6863"/>
<stop offset="0.2018" stop-color="#DB6563"/>
<stop offset="0.3542" stop-color="#D15D62"/>
<stop offset="0.4919" stop-color="#C14F60"/>
<stop offset="0.6209" stop-color="#A93B5E"/>
<stop offset="0.7437" stop-color="#8B225B"/>
<stop offset="0.8606" stop-color="#670357"/>
<stop offset="0.8715" stop-color="#630057"/>
</radialGradient>
<linearGradient id="paint1_linear_168_75183" x1="0.30828" y1="24.2875" x2="47.5982" y2="24.2875" gradientUnits="userSpaceOnUse">
<stop offset="0.0111732" stop-color="#FF7D85"/>
<stop offset="0.2983" stop-color="#FC7B84"/>
<stop offset="0.5089" stop-color="#F3757F"/>
<stop offset="0.695" stop-color="#E36B77"/>
<stop offset="0.8659" stop-color="#CC5C6C"/>
<stop offset="1" stop-color="#B54D61"/>
</linearGradient>
</defs>
</svg>
