<svg width="33" height="33" viewBox="0 0 33 33" fill="none" xmlns="http://www.w3.org/2000/svg">
<path d="M30.0931 0.3125H2.51542C1.9061 0.313112 1.32192 0.556946 0.891066 0.990492C0.460213 1.42404 0.217894 2.01187 0.217285 2.625V30.375C0.217894 30.9881 0.460213 31.576 0.891066 32.0095C1.32192 32.4431 1.9061 32.6869 2.51542 32.6875H30.0931C30.7024 32.6869 31.2866 32.4431 31.7174 32.0095C32.1483 31.576 32.3906 30.9881 32.3912 30.375V2.625C32.3906 2.01187 32.1483 1.42404 31.7174 0.990492C31.2866 0.556946 30.7024 0.313112 30.0931 0.3125ZM30.0931 15.3438H17.4533V2.625H30.0931V15.3438ZM15.1552 2.625V15.3438H2.51542V2.625H15.1552ZM2.51542 17.6562H15.1552V30.375H2.51542V17.6562ZM17.4533 30.375V17.6562H30.0931V30.375H17.4533Z" fill="#141A1B"/>
</svg>
