<svg width="53" height="37" viewBox="0 0 53 37" fill="none" xmlns="http://www.w3.org/2000/svg">
<g filter="url(#filter0_d_724_21244)">
<rect width="48" height="32" rx="9.82838" fill="#0FE983"/>
<rect x="0.24571" y="0.24571" width="47.5086" height="31.5086" rx="9.58267" stroke="#202B2C" stroke-width="0.491419"/>
<rect x="0.24571" y="0.24571" width="47.5086" height="31.5086" rx="9.58267" stroke="black" stroke-opacity="0.2" stroke-width="0.491419"/>
</g>
<path d="M38.3125 10.6492L35.1532 7.46055C34.872 7.17578 34.3702 7 33.8354 7H14.1624C13.6276 7 13.1259 7.17578 12.8447 7.46055L9.67979 10.6492C8.04773 12.2945 9.49232 14.5832 12.5414 14.8469C12.762 14.8645 12.988 14.875 13.2086 14.875C14.6477 14.875 15.9268 14.4742 16.8035 13.8555C17.6802 14.4742 18.9594 14.875 20.3985 14.875C21.8375 14.875 23.1167 14.4742 23.9934 13.8555C24.8701 14.4742 26.1493 14.875 27.5884 14.875C29.033 14.875 30.3066 14.4742 31.1833 13.8555C32.0655 14.4742 33.3392 14.875 34.7782 14.875C35.0043 14.875 35.2249 14.8645 35.4454 14.8469C38.5055 14.5867 39.9556 12.298 38.3181 10.6492H38.3125ZM35.6715 15.9613H35.666C35.3737 15.9859 35.076 16 34.7727 16C34.089 16 33.4329 15.9332 32.8209 15.8137V20.5H15.177V15.8102C14.5594 15.9332 13.8978 16 13.2141 16C12.9108 16 12.6076 15.9859 12.3153 15.9613H12.3098C12.0838 15.9402 11.8632 15.9156 11.6482 15.8805V22.75C11.6482 23.991 13.2306 25 15.177 25H32.8209C34.7672 25 36.3497 23.991 36.3497 22.75V15.8805C36.1291 15.9156 35.9086 15.9437 35.6715 15.9613V15.9613Z" fill="#141A1B"/>
<defs>
<filter id="filter0_d_724_21244" x="0" y="0" width="52.9142" height="36.9142" filterUnits="userSpaceOnUse" color-interpolation-filters="sRGB">
<feFlood flood-opacity="0" result="BackgroundImageFix"/>
<feColorMatrix in="SourceAlpha" type="matrix" values="0 0 0 0 0 0 0 0 0 0 0 0 0 0 0 0 0 0 127 0" result="hardAlpha"/>
<feOffset dx="2.4571" dy="2.4571"/>
<feGaussianBlur stdDeviation="1.22855"/>
<feComposite in2="hardAlpha" operator="out"/>
<feColorMatrix type="matrix" values="0 0 0 0 0 0 0 0 0 0 0 0 0 0 0 0 0 0 0.25 0"/>
<feBlend mode="normal" in2="BackgroundImageFix" result="effect1_dropShadow_724_21244"/>
<feBlend mode="normal" in="SourceGraphic" in2="effect1_dropShadow_724_21244" result="shape"/>
</filter>
</defs>
</svg>
