<svg width="117" height="112" viewBox="0 0 117 112" fill="none" xmlns="http://www.w3.org/2000/svg">
<path d="M60.2412 9.11448L58.4479 5.48289L56.6546 9.11448L41.836 39.1238L8.71406 43.9084L4.69947 44.4883L7.60385 47.3199L31.5747 70.69L25.9078 103.661L25.2216 107.654L28.8085 105.771L58.4479 90.2117L88.0873 105.771L91.6743 107.654L90.988 103.661L85.3213 70.6908L109.291 47.3544L112.196 44.5258L108.184 43.9422L75.0604 39.1249L60.2412 9.11448Z" fill="url(#paint0_linear_31_97)" stroke="#B47700" stroke-width="4"/>
<path d="M43.3779 42.4375L44.1589 42.3246L44.5084 41.617L58.4479 13.3878L72.3875 41.617L72.7365 42.3238L73.5165 42.4372L104.67 46.9681L82.1255 68.9174L81.5598 69.4681L81.6936 70.2462L87.024 101.26L59.1451 86.6247L58.4479 86.2587L57.7507 86.6247L29.8719 101.26L35.2023 70.2462L35.3359 69.4688L34.7711 68.9181L12.2254 46.9375L43.3779 42.4375Z" stroke="white" stroke-opacity="0.7" stroke-width="3"/>
<defs>
<linearGradient id="paint0_linear_31_97" x1="32.0104" y1="26.1563" x2="83.4167" y2="99.5938" gradientUnits="userSpaceOnUse">
<stop stop-color="#FCE12B"/>
<stop offset="1" stop-color="#F0A81B"/>
</linearGradient>
</defs>
</svg>
