<svg width="38" height="50" viewBox="0 0 38 50" fill="none" xmlns="http://www.w3.org/2000/svg">
<path d="M34.0006 22.9221H30.9422V13.3734C30.9422 6.37097 25.4372 0.641724 18.7088 0.641724C11.9804 0.641724 6.47536 6.37097 6.47536 13.3734V22.9221H3.417C1.88782 22.9221 0.358643 24.5136 0.358643 26.105V48.3854C0.358643 49.9769 1.88782 51.5684 3.417 51.5684H34.0006C35.5298 51.5684 37.0589 49.9769 37.0589 48.3854V26.105C37.0589 24.5136 35.5298 22.9221 34.0006 22.9221ZM21.7672 45.2025H15.6504L16.8738 38.2001C15.3446 37.5635 14.1213 35.6538 14.1213 34.0623C14.1213 31.516 16.2621 29.288 18.7088 29.288C21.1555 29.288 23.2963 31.516 23.2963 34.0623C23.2963 35.9721 22.3788 37.5635 20.5438 38.2001L21.7672 45.2025ZM24.8255 22.9221H12.5921V13.3734C12.5921 9.87218 15.3446 7.00755 18.7088 7.00755C22.073 7.00755 24.8255 9.87218 24.8255 13.3734V22.9221Z" fill="#AFB6C2"/>
</svg>
