<svg width="101" height="101" viewBox="0 0 101 101" fill="none" xmlns="http://www.w3.org/2000/svg">
<path d="M86.7792 39.9399L87.0432 40.8609L87.9613 41.1347L99.1135 44.4604C99.1498 44.4843 99.1806 44.5158 99.2037 44.5526L100.686 43.6222L99.2037 44.5526C99.2366 44.605 99.2526 44.6661 99.2497 44.7276L99.2477 44.7691V44.8106V56.2847C99.247 56.3482 99.2262 56.4101 99.1881 56.4615C99.1506 56.512 99.0982 56.5499 99.0379 56.5697C99.0362 56.5702 99.0344 56.5708 99.0327 56.5713L87.6945 59.9324L86.7823 60.2028L86.5133 61.1153C85.7594 63.6721 84.7342 66.1411 83.455 68.4802L83.0004 69.3115L83.448 70.1466L89.0393 80.5778C89.0395 80.5783 89.0397 80.5787 89.04 80.5792C89.07 80.6364 89.0809 80.7016 89.0712 80.7652C89.0614 80.8294 89.0311 80.889 88.9844 80.935L88.977 80.9424L80.9228 88.9887L80.9154 88.9961C80.8693 89.0427 80.8092 89.0734 80.7438 89.0834C80.6789 89.0933 80.6125 89.0822 80.5546 89.0518C80.5542 89.0515 80.5538 89.0513 80.5534 89.0511L70.0761 83.4642L69.2457 83.0215L68.4185 83.47C66.0858 84.7349 63.6251 85.7484 61.0779 86.4934L60.1621 86.7613L59.8912 87.6761L56.5255 99.041C56.506 99.1002 56.4685 99.1523 56.4178 99.1898L57.4593 100.596L56.4178 99.1898C56.366 99.2281 56.3033 99.2493 56.2385 99.25H44.8603C44.7955 99.2493 44.7328 99.2281 44.681 99.1898L43.6395 100.596L44.681 99.1898C44.6302 99.1522 44.5927 99.1 44.5732 99.0407C44.5726 99.039 44.5721 99.0372 44.5715 99.0355L41.2072 87.7085L40.9346 86.7907L40.0147 86.5253C37.4453 85.784 34.9627 84.7704 32.6091 83.5016L31.783 83.0563L30.955 83.498L20.5454 89.0511C20.4872 89.082 20.4204 89.0934 20.355 89.0834C20.2896 89.0734 20.2295 89.0427 20.1834 88.9961L20.176 88.9887L12.1218 80.9424L12.1144 80.935C12.0677 80.889 12.0374 80.8294 12.0276 80.7652C12.0178 80.7011 12.0289 80.6354 12.0596 80.5778L12.0651 80.5672L17.5919 69.9959L18.0331 69.1519L17.5639 68.323C16.2205 65.95 15.141 63.4373 14.3448 60.8298L14.0712 59.9339L13.1739 59.6647L1.96499 56.302C1.9638 56.3016 1.96261 56.3012 1.96142 56.3009C1.90046 56.2812 1.84743 56.2431 1.80961 56.1922C1.77153 56.1409 1.75077 56.0791 1.75 56.0157V44.6482C1.75077 44.5848 1.77153 44.523 1.80961 44.4717C1.8476 44.4205 1.90094 44.3823 1.96226 44.3627C1.96317 44.3624 1.96408 44.3621 1.96499 44.3619L13.1093 40.9983L14.0126 40.7257L14.2812 39.8213C15.0689 37.1695 16.1486 34.6131 17.5005 32.1991L17.971 31.359L17.5131 30.5119L12.058 20.4197C12.0286 20.3629 12.018 20.2983 12.0276 20.2353C12.0373 20.1721 12.0668 20.1134 12.1121 20.0677L20.2952 12.0945L20.3068 12.0833L20.3182 12.0718C20.3643 12.0252 20.4244 11.9944 20.4898 11.9844C20.5541 11.9746 20.6197 11.9855 20.6772 12.0152L30.7793 17.4649L31.624 17.9206L32.4623 17.4533C34.8891 16.1004 37.4591 15.0216 40.1249 14.2369L41.0312 13.9701L41.3054 13.0661L44.6726 1.96501C44.6729 1.96415 44.6732 1.96328 44.6734 1.96242C44.6927 1.90203 44.7306 1.84887 44.7821 1.81071C44.8338 1.77243 44.8964 1.75129 44.9611 1.75052H56.3457H56.3653L56.3849 1.75008C56.45 1.74862 56.5137 1.76784 56.5669 1.80475C56.6146 1.83787 56.6515 1.88363 56.6737 1.93637L60.0289 13.031L60.3014 13.9322L61.2035 14.2014C63.8472 14.9903 66.3953 16.0689 68.8014 17.4176L69.6366 17.8858L70.4813 17.4349L80.7556 11.9494C80.7559 11.9492 80.7562 11.949 80.7566 11.9489C80.8146 11.9184 80.881 11.9072 80.946 11.9171C81.0114 11.9271 81.0715 11.9578 81.1176 12.0044L81.1224 12.0093L89.1766 20.0893L89.1866 20.0992C89.2332 20.1452 89.2635 20.2048 89.2734 20.269C89.2832 20.333 89.2721 20.3986 89.2416 20.456C89.2416 20.4561 89.2415 20.4562 89.2415 20.4563L83.7168 30.7882L83.273 31.618L83.7207 32.4458C85.008 34.8263 86.0335 37.3389 86.7792 39.9399ZM39.3815 67.3517C42.7173 69.5784 46.6389 70.7668 50.6505 70.7668C56.0298 70.7668 61.1891 68.632 64.9934 64.8315C68.7977 61.0309 70.9353 55.8758 70.9353 50.5003C70.9353 46.4915 69.7454 42.573 67.5162 39.2401C65.2871 35.9072 62.1189 33.3099 58.4126 31.7762C54.7062 30.2424 50.628 29.8412 46.6935 30.623C42.7589 31.4049 39.1446 33.3348 36.3076 36.169C33.4706 39.0032 31.5384 42.6145 30.7555 46.5461C29.9727 50.4778 30.3745 54.5531 31.91 58.2565C33.4456 61.9599 36.0457 65.125 39.3815 67.3517Z" fill="#027558" stroke="#0FE983" stroke-width="3.5"/>
</svg>
