<svg width="41" height="23" viewBox="0 0 41 23" fill="none" xmlns="http://www.w3.org/2000/svg">
<path d="M6.28394 0.0814819L10.773 7.66829H10.9469L15.4577 0.0814819H20.7728L13.9794 11.2117L20.925 22.3419H15.512L10.9469 14.7442H10.773L6.20785 22.3419H0.81665L7.78391 11.2117L0.947083 0.0814819H6.28394Z" fill="#00FF88"/>
<path d="M23.751 22.3419V0.0814819H32.5334C34.2218 0.0814819 35.6602 0.40394 36.8486 1.04886C38.037 1.68652 38.9427 2.57419 39.5659 3.71185C40.1963 4.84226 40.5115 6.14658 40.5115 7.62482C40.5115 9.10305 40.1927 10.4074 39.555 11.5378C38.9174 12.6682 37.9935 13.5486 36.7834 14.179C35.5805 14.8095 34.124 15.1247 32.4139 15.1247H26.8162V11.353H31.653C32.5588 11.353 33.3052 11.1972 33.8921 10.8856C34.4863 10.5668 34.9283 10.1284 35.2182 9.57043C35.5153 9.00523 35.6638 8.35669 35.6638 7.62482C35.6638 6.8857 35.5153 6.24078 35.2182 5.69007C34.9283 5.13211 34.4863 4.70096 33.8921 4.39662C33.2979 4.08503 32.5443 3.92924 31.6313 3.92924H28.4574V22.3419H23.751Z" fill="#00FF88"/>
</svg>
