<svg width="220" height="220" viewBox="0 0 220 220" fill="none" xmlns="http://www.w3.org/2000/svg">
<g clip-path="url(#clip0_11_711)">
<path d="M45.5993 92.0333L17.7345 42.1365L66.3454 68.7153L51.291 31.6288L90.9119 49.2176L86.1812 24.6035L199.71 138.132C208.955 146.627 214.455 158.732 214.455 171.789C214.455 190.386 203.344 206.982 186.151 214.068C180.818 216.268 175.167 217.423 169.358 217.5L168.739 217.505C161.471 217.505 154.587 215.801 148.479 212.755C148.145 212.588 147.81 212.421 147.481 212.248C147.146 212.081 146.817 211.899 146.492 211.711C146.163 211.534 145.839 211.346 145.514 211.148C145.251 210.996 144.992 210.839 144.734 210.677C144.526 210.55 144.323 210.423 144.12 210.292C143.841 210.114 143.568 209.937 143.299 209.754C142.949 209.521 142.605 209.283 142.265 209.035C141.971 208.827 141.677 208.614 141.393 208.401C141.099 208.183 140.815 207.965 140.531 207.742C139.959 207.286 139.391 206.82 138.838 206.343C138.565 206.105 138.291 205.862 138.017 205.613L27.6957 95.2916L45.5993 92.0333Z" fill="#FCBC1D"/>
<path d="M133.162 171.787C133.162 186.553 142.158 199.219 154.967 204.599C159.203 206.381 163.857 207.365 168.74 207.365C174.038 207.365 179.065 206.207 183.584 204.13C188.561 201.843 192.921 198.439 196.338 194.242C201.328 188.118 204.319 180.302 204.319 171.787C204.319 161.409 199.876 152.068 192.787 145.565C186.456 139.755 178.011 136.21 168.74 136.21C168.579 136.21 168.42 136.212 168.261 136.212C163.639 136.275 159.229 137.217 155.193 138.882C142.263 144.209 133.162 156.934 133.162 171.787Z" fill="#F24125"/>
<path d="M191.91 157.761C191.118 157.761 190.339 157.392 189.844 156.698C188.799 155.233 187.598 153.875 186.277 152.662C185.088 151.571 183.794 150.588 182.429 149.739C181.24 149 180.876 147.437 181.615 146.249C182.355 145.06 183.917 144.696 185.106 145.435C186.737 146.449 188.284 147.624 189.704 148.927C191.286 150.378 192.721 152.002 193.971 153.755C194.784 154.895 194.519 156.477 193.379 157.29C192.933 157.608 192.419 157.761 191.91 157.761Z" fill="white"/>
<path d="M180.623 200.217C179.663 200.217 178.745 199.67 178.318 198.74C177.734 197.469 178.291 195.964 179.563 195.379C183.149 193.731 186.367 191.236 188.869 188.162C192.676 183.49 194.687 177.828 194.687 171.788C194.687 169.566 194.398 167.346 193.829 165.188C193.472 163.835 194.279 162.448 195.632 162.09C196.988 161.734 198.373 162.541 198.73 163.894C199.411 166.473 199.756 169.129 199.756 171.787C199.756 179.008 197.35 185.776 192.799 191.362C189.811 195.033 185.966 198.015 181.679 199.984C181.336 200.142 180.977 200.217 180.623 200.217Z" fill="white"/>
<path opacity="0.27" d="M133.162 171.788C133.162 186.553 142.158 199.219 154.967 204.599C159.103 206.339 163.637 207.318 168.393 207.363C164.815 207.302 161.405 206.325 158.291 204.599C148.573 199.218 141.75 186.552 141.75 171.788C141.75 156.934 148.653 144.209 158.463 138.881C161.524 137.217 164.871 136.274 168.376 136.211H168.261C163.639 136.274 159.229 137.217 155.193 138.881C142.263 144.209 133.162 156.934 133.162 171.788Z" fill="#333333"/>
<path d="M204.179 177.535C204.103 177.535 204.026 177.531 203.95 177.524C202.556 177.399 201.527 176.168 201.651 174.774C201.74 173.786 201.785 172.781 201.785 171.788C201.785 158.442 193.835 146.48 181.532 141.312C177.481 139.608 173.177 138.743 168.741 138.743C167.341 138.743 166.207 137.609 166.207 136.209C166.207 134.81 167.341 133.675 168.741 133.675C173.856 133.675 178.82 134.672 183.496 136.639C197.685 142.599 206.853 156.396 206.853 171.787C206.853 172.931 206.802 174.088 206.7 175.225C206.582 176.543 205.476 177.535 204.179 177.535Z" fill="#333333"/>
<path d="M201.314 188.65C200.973 188.65 200.626 188.58 200.293 188.434C199.013 187.869 198.432 186.374 198.996 185.093C199.491 183.969 199.928 182.804 200.294 181.63C200.71 180.293 202.133 179.548 203.467 179.963C204.804 180.38 205.549 181.801 205.133 183.137C204.711 184.493 204.207 185.839 203.635 187.136C203.217 188.085 202.288 188.65 201.314 188.65Z" fill="#333333"/>
<path d="M168.74 209.9C164.216 209.9 159.788 209.115 155.578 207.566C154.264 207.083 153.591 205.626 154.075 204.313C154.558 202.999 156.015 202.326 157.329 202.809C160.976 204.151 164.815 204.832 168.74 204.832L169.219 204.83C173.389 204.772 177.472 203.938 181.321 202.351C186.817 200.087 191.614 196.366 195.195 191.591C196.035 190.472 197.624 190.244 198.743 191.084C199.863 191.924 200.09 193.512 199.25 194.632C195.122 200.136 189.59 204.426 183.252 207.037C178.81 208.869 174.1 209.832 169.253 209.898L168.74 209.9Z" fill="#333333"/>
<path d="M144.693 200.545C144.081 200.545 143.467 200.324 142.98 199.878C135.13 192.676 130.628 182.437 130.628 171.788C130.628 156.943 139.346 143.343 152.838 137.142C154.109 136.557 155.615 137.115 156.199 138.387C156.783 139.658 156.226 141.163 154.954 141.748C143.256 147.125 135.696 158.916 135.696 171.788C135.696 181.021 139.6 189.898 146.407 196.143C147.438 197.09 147.507 198.693 146.561 199.724C146.062 200.269 145.378 200.545 144.693 200.545Z" fill="#333333"/>
<path d="M100.476 170.687C99.8275 170.687 99.1782 170.439 98.684 169.944L3.79641 75.0569C2.80647 74.0669 2.80647 72.4622 3.79641 71.4727C4.78533 70.4833 6.39113 70.4833 7.38006 71.4727L102.268 166.36C103.258 167.35 103.258 168.955 102.268 169.944C101.773 170.439 101.124 170.687 100.476 170.687Z" fill="#333333"/>
<path d="M168.756 220C156.059 220 143.745 215.005 134.634 205.894L107.554 178.814C106.564 177.824 106.564 176.22 107.554 175.23C108.543 174.241 110.149 174.241 111.138 175.23L138.218 202.31C148.208 212.299 162.507 216.76 176.466 214.241C177.84 213.991 179.161 214.907 179.411 216.285C179.659 217.662 178.744 218.981 177.367 219.229C174.499 219.747 171.618 220 168.756 220Z" fill="#333333"/>
<path d="M188.774 215.402C187.834 215.402 186.931 214.877 186.493 213.976C185.88 212.717 186.404 211.201 187.663 210.588C191.956 208.499 195.859 205.714 199.263 202.31C212.699 188.874 215.736 167.828 206.648 151.132C205.979 149.902 206.433 148.364 207.662 147.694C208.893 147.024 210.431 147.48 211.1 148.708C215.974 157.663 217.894 168.194 216.506 178.361C215.072 188.871 210.348 198.392 202.847 205.894C199.043 209.697 194.681 212.81 189.881 215.146C189.524 215.319 189.146 215.402 188.774 215.402Z" fill="#333333"/>
<path d="M201.055 142.008C200.406 142.008 199.757 141.76 199.263 141.266L127.916 69.9181C126.926 68.9282 126.926 67.3234 127.916 66.334C128.905 65.3446 130.511 65.3446 131.499 66.334L202.846 137.681C203.836 138.671 203.836 140.276 202.846 141.265C202.352 141.76 201.703 142.008 201.055 142.008Z" fill="#333333"/>
<path d="M124.301 65.2538C123.653 65.2538 123.003 65.0065 122.509 64.5117L62.3235 4.32673C61.3336 3.33679 61.3336 1.73201 62.3235 0.742576C63.3124 -0.247363 64.9182 -0.247363 65.9072 0.742576L126.092 60.9276C127.082 61.9175 127.082 63.5223 126.092 64.5117C125.598 65.0065 124.949 65.2538 124.301 65.2538Z" fill="#333333"/>
<path d="M83.6067 44.4463C82.9584 44.4463 82.3091 44.199 81.8149 43.7038L68.6507 30.5396C67.6607 29.5496 67.6607 27.9453 68.6507 26.9554C69.6396 25.966 71.2454 25.9655 72.2343 26.9554L85.3985 40.1196C86.3884 41.1095 86.3884 42.7138 85.3985 43.7038C84.9038 44.199 84.255 44.4463 83.6067 44.4463Z" fill="#333333"/>
<path d="M166.566 127.406C165.918 127.406 165.269 127.158 164.775 126.663L89.0801 50.9689C88.0902 49.9789 88.0902 48.3742 89.0801 47.3847C90.069 46.3948 91.6748 46.3948 92.6637 47.3847L168.358 123.079C169.348 124.069 169.348 125.674 168.358 126.663C167.864 127.158 167.215 127.406 166.566 127.406Z" fill="#333333"/>
<path d="M103.848 86.7202C103.2 86.7202 102.55 86.4728 102.056 85.9781L49.4998 33.4207C48.5098 32.4307 48.5098 30.8259 49.4998 29.8365C50.4887 28.8471 52.0945 28.8466 53.0834 29.8365L105.64 82.3935C106.63 83.3834 106.63 84.9882 105.64 85.9776C105.146 86.4728 104.497 86.7202 103.848 86.7202Z" fill="#333333"/>
<path d="M142.132 125.004C141.484 125.004 140.835 124.757 140.34 124.262L110.843 94.7639C109.853 93.774 109.853 92.1692 110.843 91.1798C111.831 90.1903 113.437 90.1903 114.426 91.1798L143.924 120.678C144.914 121.668 144.914 123.272 143.924 124.262C143.429 124.756 142.781 125.004 142.132 125.004Z" fill="#333333"/>
<path d="M147.796 130.669C147.132 130.669 146.478 130.401 146.007 129.929C145.89 129.813 145.784 129.681 145.693 129.544C145.601 129.407 145.52 129.26 145.46 129.103C145.394 128.951 145.348 128.794 145.313 128.632C145.282 128.469 145.261 128.302 145.261 128.135C145.261 127.466 145.535 126.817 146.007 126.346C146.123 126.229 146.25 126.123 146.392 126.026C146.529 125.935 146.676 125.859 146.828 125.793C146.98 125.732 147.142 125.682 147.304 125.651C147.628 125.585 147.968 125.585 148.292 125.651C148.454 125.682 148.617 125.732 148.768 125.793C148.921 125.859 149.068 125.935 149.204 126.026C149.341 126.123 149.473 126.229 149.59 126.346C150.062 126.817 150.33 127.471 150.33 128.135C150.33 128.302 150.315 128.469 150.284 128.632C150.249 128.794 150.203 128.951 150.137 129.103C150.076 129.26 149.995 129.407 149.904 129.544C149.813 129.681 149.706 129.813 149.59 129.929C149.474 130.046 149.341 130.152 149.204 130.244C149.068 130.335 148.921 130.411 148.768 130.477C148.616 130.538 148.454 130.588 148.292 130.619C148.131 130.654 147.964 130.669 147.796 130.669Z" fill="#333333"/>
<path d="M51.0989 56.0027C50.4506 56.0027 49.8013 55.7554 49.3071 55.2606L38.4832 44.4372C37.4932 43.4473 37.4932 41.8425 38.4832 40.853C39.4721 39.8631 41.0779 39.8631 42.0668 40.853L52.8908 51.677C53.8807 52.6669 53.8807 54.2717 52.8908 55.2611C52.3965 55.7554 51.7472 56.0027 51.0989 56.0027Z" fill="#333333"/>
<path d="M56.6743 61.5764C56.0052 61.5764 55.3513 61.3078 54.8799 60.8364C54.4085 60.365 54.1399 59.7111 54.1399 59.0471C54.1399 58.8798 54.1551 58.7125 54.1906 58.5503C54.2215 58.3881 54.2717 58.2259 54.3325 58.0739C54.3984 57.9218 54.4744 57.7748 54.5657 57.6379C54.6569 57.496 54.7634 57.3693 54.8799 57.2527C55.4679 56.6647 56.3494 56.3961 57.171 56.5583C57.3332 56.5938 57.4904 56.6394 57.643 56.7053C57.795 56.7661 57.942 56.8472 58.0784 56.9385C58.2203 57.0297 58.347 57.1361 58.4641 57.2527C58.5852 57.3693 58.6917 57.496 58.7834 57.6379C58.8747 57.7748 58.9507 57.9218 59.0166 58.0739C59.0774 58.2259 59.1281 58.3881 59.158 58.5503C59.1935 58.7125 59.2092 58.8798 59.2092 59.0471C59.2092 59.2093 59.194 59.3765 59.158 59.5387C59.1276 59.701 59.0774 59.8581 59.0166 60.0152C58.9507 60.1673 58.8747 60.3143 58.7834 60.4511C58.6871 60.588 58.5852 60.7198 58.4641 60.8364C58.3475 60.9529 58.2208 61.0594 58.0784 61.1506C57.9415 61.2419 57.7945 61.323 57.643 61.3838C57.4904 61.4497 57.3338 61.4953 57.171 61.5308C57.0088 61.5612 56.8416 61.5764 56.6743 61.5764Z" fill="#333333"/>
<path d="M131.116 136.02C130.467 136.02 129.818 135.773 129.324 135.278L61.1342 67.0877C60.1442 66.0978 60.1442 64.493 61.1342 63.5035C62.1231 62.5141 63.7289 62.5141 64.7178 63.5035L132.907 131.693C133.897 132.683 133.897 134.288 132.907 135.277C132.413 135.773 131.764 136.02 131.116 136.02Z" fill="#333333"/>
<path d="M108.575 135.512C107.927 135.512 107.278 135.264 106.784 134.77L15.9429 43.9288C14.953 42.9389 14.953 41.3341 15.9429 40.3447C16.9318 39.3547 18.5376 39.3547 19.5265 40.3447L110.367 131.185C111.357 132.175 111.357 133.78 110.367 134.77C109.872 135.264 109.224 135.512 108.575 135.512Z" fill="#333333"/>
<path d="M126.928 153.865C126.28 153.865 125.631 153.617 125.137 153.123L111.789 139.775C110.799 138.785 110.799 137.18 111.789 136.191C112.778 135.201 114.384 135.201 115.372 136.191L128.72 149.539C129.71 150.528 129.71 152.133 128.72 153.123C128.225 153.617 127.577 153.865 126.928 153.865Z" fill="#333333"/>
<path d="M46.1316 95.1005C45.4833 95.1005 44.834 94.8531 44.3398 94.3584L25.942 75.9601C24.9521 74.9702 24.9521 73.3654 25.942 72.376C26.931 71.3866 28.5368 71.3866 29.5257 72.376L47.9234 90.7737C48.9134 91.7637 48.9134 93.3685 47.9234 94.3579C47.4292 94.8526 46.7799 95.1005 46.1316 95.1005Z" fill="#333333"/>
<path d="M80.0926 129.061C79.4443 129.061 78.795 128.814 78.3008 128.319L53.0414 103.06C52.0515 102.07 52.0515 100.465 53.0414 99.4759C54.0303 98.4864 55.6361 98.4864 56.6251 99.4759L81.8845 124.735C82.8744 125.725 82.8744 127.33 81.8845 128.319C81.3902 128.814 80.7409 129.061 80.0926 129.061Z" fill="#333333"/>
<path d="M123.516 172.484C122.867 172.484 122.218 172.237 121.724 171.742L83.3697 133.388C82.3797 132.398 82.3797 130.793 83.3697 129.804C84.3586 128.814 85.9644 128.814 86.9533 129.804L125.307 168.158C126.297 169.148 126.297 170.752 125.307 171.742C124.813 172.237 124.164 172.484 123.516 172.484Z" fill="#333333"/>
<path opacity="0.27" d="M185.969 173.391C188.348 173.391 190.277 171.462 190.277 169.082C190.277 166.703 188.348 164.774 185.969 164.774C183.589 164.774 181.66 166.703 181.66 169.082C181.66 171.462 183.589 173.391 185.969 173.391Z" fill="#333333"/>
<path opacity="0.27" d="M161.905 162.239C165.265 162.239 167.988 159.516 167.988 156.157C167.988 152.798 165.265 150.074 161.905 150.074C158.546 150.074 155.823 152.798 155.823 156.157C155.823 159.516 158.546 162.239 161.905 162.239Z" fill="#333333"/>
<path opacity="0.27" d="M163.286 190.371C167.975 190.371 171.776 186.57 171.776 181.881C171.776 177.192 167.975 173.391 163.286 173.391C158.597 173.391 154.796 177.192 154.796 181.881C154.796 186.57 158.597 190.371 163.286 190.371Z" fill="#333333"/>
</g>
<defs>
<clipPath id="clip0_11_711">
<rect width="220" height="220" fill="white"/>
</clipPath>
</defs>
</svg>
