<svg width="298" height="52" viewBox="0 0 298 52" fill="none" xmlns="http://www.w3.org/2000/svg">
<path d="M160.52 0.832031C165.992 0.832031 170.72 1.86403 174.704 3.92803C178.736 5.94403 181.808 8.84803 183.92 12.64C186.08 16.432 187.16 20.896 187.16 26.032C187.16 31.168 186.08 35.632 183.92 39.424C181.808 43.168 178.736 46.048 174.704 48.064C170.72 50.032 165.992 51.016 160.52 51.016H144.896V0.832031H160.52ZM160.52 45.616C167 45.616 171.944 43.912 175.352 40.504C178.76 37.048 180.464 32.224 180.464 26.032C180.464 19.792 178.736 14.92 175.28 11.416C171.872 7.91203 166.952 6.16003 160.52 6.16003H151.448V45.616H160.52Z" fill="#20925D"/>
<path d="M230.794 11.56V51.016H224.242V45.184C222.994 47.2 221.242 48.784 218.986 49.936C216.778 51.04 214.33 51.592 211.642 51.592C208.57 51.592 205.81 50.968 203.362 49.72C200.914 48.424 198.97 46.504 197.53 43.96C196.138 41.416 195.442 38.32 195.442 34.672V11.56H201.922V33.808C201.922 37.696 202.906 40.696 204.874 42.808C206.842 44.872 209.53 45.904 212.938 45.904C216.442 45.904 219.202 44.824 221.218 42.664C223.234 40.504 224.242 37.36 224.242 33.232V11.56H230.794Z" fill="#20925D"/>
<path d="M255.825 51.664C252.801 51.664 250.089 51.16 247.689 50.152C245.289 49.096 243.393 47.656 242.001 45.832C240.609 43.96 239.841 41.824 239.697 39.424H246.465C246.657 41.392 247.569 43 249.201 44.248C250.881 45.496 253.065 46.12 255.753 46.12C258.249 46.12 260.217 45.568 261.657 44.464C263.097 43.36 263.817 41.968 263.817 40.288C263.817 38.56 263.049 37.288 261.513 36.472C259.977 35.608 257.601 34.768 254.385 33.952C251.457 33.184 249.057 32.416 247.185 31.648C245.361 30.832 243.777 29.656 242.433 28.12C241.137 26.536 240.489 24.472 240.489 21.928C240.489 19.912 241.089 18.064 242.289 16.384C243.489 14.704 245.193 13.384 247.401 12.424C249.609 11.416 252.129 10.912 254.961 10.912C259.329 10.912 262.857 12.016 265.545 14.224C268.233 16.432 269.673 19.456 269.865 23.296H263.313C263.169 21.232 262.329 19.576 260.793 18.328C259.305 17.08 257.289 16.456 254.745 16.456C252.393 16.456 250.521 16.96 249.129 17.968C247.737 18.976 247.041 20.296 247.041 21.928C247.041 23.224 247.449 24.304 248.265 25.168C249.129 25.984 250.185 26.656 251.433 27.184C252.729 27.664 254.505 28.216 256.761 28.84C259.593 29.608 261.897 30.376 263.673 31.144C265.449 31.864 266.961 32.968 268.209 34.456C269.505 35.944 270.177 37.888 270.225 40.288C270.225 42.448 269.625 44.392 268.425 46.12C267.225 47.848 265.521 49.216 263.313 50.224C261.153 51.184 258.657 51.664 255.825 51.664Z" fill="#20925D"/>
<path d="M287.466 16.96V40.216C287.466 42.136 287.874 43.504 288.69 44.32C289.506 45.088 290.922 45.472 292.938 45.472H297.762V51.016H291.858C288.21 51.016 285.474 50.176 283.65 48.496C281.826 46.816 280.914 44.056 280.914 40.216V16.96H275.802V11.56H280.914V1.62403H287.466V11.56H297.762V16.96H287.466Z" fill="#20925D"/>
<path d="M17.352 51.336C14.04 51.336 11.064 50.76 8.424 49.608C5.832 48.408 3.792 46.776 2.304 44.712C0.816 42.6 0.0479999 40.176 0 37.44H6.984C7.224 39.792 8.184 41.784 9.864 43.416C11.592 45 14.088 45.792 17.352 45.792C20.472 45.792 22.92 45.024 24.696 43.488C26.52 41.904 27.432 39.888 27.432 37.44C27.432 35.52 26.904 33.96 25.848 32.76C24.792 31.56 23.472 30.648 21.888 30.024C20.304 29.4 18.168 28.728 15.48 28.008C12.168 27.144 9.504 26.28 7.488 25.416C5.52 24.552 3.816 23.208 2.376 21.384C0.984 19.512 0.288 17.016 0.288 13.896C0.288 11.16 0.984 8.736 2.376 6.624C3.768 4.512 5.712 2.88 8.208 1.728C10.752 0.576 13.656 0 16.92 0C21.624 0 25.464 1.176 28.44 3.528C31.464 5.88 33.168 9 33.552 12.888H26.352C26.112 10.968 25.104 9.288 23.328 7.848C21.552 6.36 19.2 5.616 16.272 5.616C13.536 5.616 11.304 6.336 9.576 7.776C7.848 9.168 6.984 11.136 6.984 13.68C6.984 15.504 7.488 16.992 8.496 18.144C9.552 19.296 10.824 20.184 12.312 20.808C13.848 21.384 15.984 22.056 18.72 22.824C22.032 23.736 24.696 24.648 26.712 25.56C28.728 26.424 30.456 27.792 31.896 29.664C33.336 31.488 34.056 33.984 34.056 37.152C34.056 39.6 33.408 41.904 32.112 44.064C30.816 46.224 28.896 47.976 26.352 49.32C23.808 50.664 20.808 51.336 17.352 51.336Z" fill="#00FF88"/>
<path d="M51.6898 16.776V40.032C51.6898 41.952 52.0978 43.32 52.9138 44.136C53.7298 44.904 55.1458 45.288 57.1618 45.288H61.9858V50.832H56.0818C52.4338 50.832 49.6978 49.992 47.8738 48.312C46.0498 46.632 45.1378 43.872 45.1378 40.032V16.776H40.0258V11.376H45.1378V1.44H51.6898V11.376H61.9858V16.776H51.6898Z" fill="#00FF88"/>
<path d="M67.4764 30.96C67.4764 26.928 68.2924 23.4 69.9244 20.376C71.5564 17.304 73.7884 14.928 76.6204 13.248C79.5004 11.568 82.6924 10.728 86.1964 10.728C89.6524 10.728 92.6524 11.472 95.1964 12.96C97.7404 14.448 99.6364 16.32 100.884 18.576V11.376H107.508V50.832H100.884V43.488C99.5884 45.792 97.6444 47.712 95.0524 49.248C92.5084 50.736 89.5324 51.48 86.1244 51.48C82.6204 51.48 79.4524 50.616 76.6204 48.888C73.7884 47.16 71.5564 44.736 69.9244 41.616C68.2924 38.496 67.4764 34.944 67.4764 30.96ZM100.884 31.032C100.884 28.056 100.284 25.464 99.0844 23.256C97.8844 21.048 96.2524 19.368 94.1884 18.216C92.1724 17.016 89.9404 16.416 87.4924 16.416C85.0444 16.416 82.8124 16.992 80.7964 18.144C78.7804 19.296 77.1724 20.976 75.9724 23.184C74.7724 25.392 74.1724 27.984 74.1724 30.96C74.1724 33.984 74.7724 36.624 75.9724 38.88C77.1724 41.088 78.7804 42.792 80.7964 43.992C82.8124 45.144 85.0444 45.72 87.4924 45.72C89.9404 45.72 92.1724 45.144 94.1884 43.992C96.2524 42.792 97.8844 41.088 99.0844 38.88C100.284 36.624 100.884 34.008 100.884 31.032Z" fill="#00FF88"/>
<path d="M125.133 17.784C126.285 15.528 127.917 13.776 130.029 12.528C132.189 11.28 134.805 10.656 137.877 10.656V17.424H136.149C128.805 17.424 125.133 21.408 125.133 29.376V50.832H118.581V11.376H125.133V17.784Z" fill="#00FF88"/>
</svg>
