<svg width="78" height="90" viewBox="0 0 78 90" fill="none" xmlns="http://www.w3.org/2000/svg">
<path d="M43.789 49.513H34.5127V59.9746H43.789V49.513Z" fill="#967E4A"/>
<path d="M26.0578 24.1833C25.7874 24.1833 25.5183 24.0612 25.3245 23.822L17.9321 14.686C17.5729 14.2421 17.6097 13.5626 18.0146 13.1686C18.4193 12.7748 19.0386 12.815 19.398 13.2591L26.7904 22.395C27.1496 22.8389 27.1128 23.5184 26.7079 23.9125C26.5213 24.0939 26.2891 24.1833 26.0578 24.1833Z" fill="#333333"/>
<path d="M51.9439 24.1833C51.7126 24.1833 51.4804 24.0939 51.2938 23.9124C50.8891 23.5184 50.8521 22.8391 51.2113 22.395L58.6015 13.2591C58.9608 12.8152 59.5801 12.7744 59.985 13.1684C60.3897 13.5624 60.4267 14.2417 60.0677 14.6858L52.6773 23.8217C52.4836 24.0612 52.2144 24.1833 51.9439 24.1833Z" fill="#333333"/>
<path d="M34.9824 4.2262H43.0176C43.0176 6.65957 41.2205 8.63293 39 8.63293C36.7815 8.63293 34.9824 6.65957 34.9824 4.2262Z" fill="#FCBC1D"/>
<path d="M56.3265 36.0987C59.1388 37.1649 61.1594 40.0927 61.1594 43.5407C61.1594 47.8894 57.9453 51.4148 53.9806 51.4148C52.1443 51.4148 50.4667 50.6581 49.1987 49.4113C53.0752 46.3438 55.7543 41.5738 56.3265 36.0987Z" fill="#FCBC1D"/>
<path d="M21.6737 36.0987C22.2459 41.5738 24.9269 46.3438 28.8015 49.4113C27.5315 50.6581 25.8559 51.4148 24.0196 51.4148C20.0549 51.4148 16.8428 47.8894 16.8428 43.5407C16.8428 40.0927 18.8614 37.1649 21.6737 36.0987Z" fill="#D89E1D"/>
<path d="M0.97998 83.9644H9.26405C9.26405 85.1574 8.8231 86.2365 8.10973 87.019C7.39832 87.7993 6.41254 88.283 5.32486 88.283H4.91918C2.7438 88.283 0.97998 86.3505 0.97998 83.9644Z" fill="#E4C882"/>
<path d="M39.0002 83.9644H43.0746C43.0746 85.1574 42.6336 86.2365 41.9203 87.019C41.2089 87.7993 40.2251 88.283 39.1374 88.283H38.7297C36.5543 88.283 34.7905 86.3505 34.7905 83.9644H39.0002Z" fill="#E4C882"/>
<path d="M68.7378 83.9644H77.0199C77.0199 86.3505 75.2581 88.283 73.0827 88.283H72.675C71.5873 88.283 70.6035 87.7993 69.8902 87.019C69.1787 86.2365 68.7378 85.1574 68.7378 83.9644Z" fill="#E4C882"/>
<path d="M45.5518 27.943L46.6434 36.5437H31.3569L32.4446 27.9688L34.0203 15.5526L34.4926 11.823H39.0002H43.5077L43.98 15.5526L45.5518 27.943Z" fill="#FCD275"/>
<path d="M46.6434 36.5436V51.0945C45.6772 51.6104 44.662 52.0317 43.6057 52.3477C42.1398 52.7884 40.5954 53.0227 39.0002 53.0227C37.4068 53.0227 35.8606 52.7884 34.3946 52.3477C33.3383 52.0317 32.3212 51.6104 31.3569 51.0923V36.5436H46.6434Z" fill="#E5A71C"/>
<path d="M32.4444 27.9688L31.3567 36.5436L21.6655 31.7736H21.6636C21.8635 29.7723 22.3475 27.8656 23.0668 26.0986L32.4444 27.9688Z" fill="#20505B"/>
<path d="M56.3365 31.7736L46.6434 36.5436L45.5518 27.943L54.802 26.0986L54.9137 26.0449C55.6447 27.8269 56.1347 29.753 56.3365 31.7736Z" fill="#20505B"/>
<path d="M25.254 22.1154C27.4568 19.0263 30.5063 16.6983 34.0202 15.5526L32.4445 27.9688L23.0669 26.0986C23.647 24.6691 24.3839 23.3342 25.254 22.1154Z" fill="#CC8C0D"/>
<path d="M31.3566 36.5437V51.0923C30.4571 50.613 29.6026 50.0498 28.801 49.4113C24.9265 46.3438 22.2455 41.5738 21.6732 36.0987C21.5968 35.3743 21.5576 34.637 21.5576 33.891C21.5576 33.1752 21.5929 32.468 21.6634 31.7737H21.6654L31.3566 36.5437Z" fill="#CC8C0D"/>
<path d="M52.7481 22.1154C53.6065 23.3191 54.3356 24.6369 54.9137 26.0449L54.802 26.0986L45.5517 27.943L43.98 15.5526C47.4959 16.6983 50.5453 19.0263 52.7481 22.1154Z" fill="#FCBC1D"/>
<path d="M56.4421 33.891C56.4421 34.637 56.4029 35.3743 56.3264 36.0987C55.7542 41.5738 53.0751 46.3438 49.1986 49.4113C48.3951 50.0498 47.5407 50.613 46.6431 51.0945V36.5437L56.3362 31.7737C56.4068 32.468 56.4421 33.1752 56.4421 33.891Z" fill="#FCBC1D"/>
<path d="M38.9999 57.3542V75.3766H20.5327V70.7593V58.1001V57.3542H34.3944H38.9999Z" fill="#CC8C0D"/>
<path d="M57.4672 70.7593V75.3766H39V57.3542H43.6055H57.4672V58.1001V70.7593Z" fill="#FCBC1D"/>
<path d="M57.467 76.4514H20.5326C19.9915 76.4514 19.5527 75.9701 19.5527 75.3766V57.3542C19.5527 56.7607 19.9915 56.2794 20.5326 56.2794H57.467C58.0081 56.2794 58.4469 56.7607 58.4469 57.3542V75.3766C58.4469 75.9701 58.0081 76.4514 57.467 76.4514ZM21.5125 74.3018H56.4871V58.429H21.5125V74.3018Z" fill="#333333"/>
<path d="M38.9999 85.0392C38.4588 85.0392 38.02 84.5579 38.02 83.9644V66.2801C38.02 65.6866 38.4588 65.2053 38.9999 65.2053C39.541 65.2053 39.9798 65.6866 39.9798 66.2801V83.9644C39.9798 84.5579 39.541 85.0392 38.9999 85.0392Z" fill="#333333"/>
<path d="M38.9999 63.4855C38.4588 63.4855 38.02 63.0042 38.02 62.4107V57.3542C38.02 56.7607 38.4588 56.2794 38.9999 56.2794C39.541 56.2794 39.9798 56.7607 39.9798 57.3542V62.4107C39.9798 63.0042 39.541 63.4855 38.9999 63.4855Z" fill="#333333"/>
<path d="M5.32452 84.5923C5.20066 84.5923 5.07465 84.5663 4.95294 84.5117C4.45221 84.2864 4.21292 83.6585 4.41831 83.1093L12.7026 60.9681C12.7896 60.7355 12.9479 60.544 13.1506 60.4264L20.0746 56.4045C20.5526 56.1265 21.1458 56.3264 21.399 56.8514C21.6522 57.3759 21.4699 58.0264 20.9915 58.3041L14.3809 62.1442L6.23152 83.9253C6.07591 84.341 5.71021 84.5923 5.32452 84.5923Z" fill="#333333"/>
<path d="M20.4257 71.8341C20.1376 71.8341 19.8523 71.6954 19.6587 71.4291L12.8425 62.0459C12.5052 61.5816 12.575 60.9056 12.9983 60.5356C13.4216 60.1657 14.038 60.2422 14.3752 60.7065L21.1914 70.0896C21.5287 70.554 21.4589 71.23 21.0356 71.6C20.8553 71.7575 20.6397 71.8341 20.4257 71.8341Z" fill="#333333"/>
<path d="M7.49704 78.7819C7.02591 78.7819 6.61043 78.4083 6.53126 77.8816C6.44326 77.2958 6.80484 76.7427 7.33869 76.6462L20.2244 74.316C20.7586 74.2191 21.2627 74.6161 21.3507 75.2017C21.4387 75.7874 21.0771 76.3405 20.5432 76.4371L7.65755 78.7673C7.60366 78.7771 7.54996 78.7819 7.49704 78.7819Z" fill="#333333"/>
<path d="M5.32477 89.3578H4.9191C2.20673 89.3578 0 86.9384 0 83.9644C0 83.3709 0.438799 82.8896 0.9799 82.8896H9.26397C9.80507 82.8896 10.2439 83.3709 10.2439 83.9644C10.2439 85.4049 9.73197 86.7596 8.80263 87.7791C7.87447 88.7972 6.63921 89.3578 5.32477 89.3578ZM2.12677 85.0392C2.53226 86.3013 3.63072 87.2082 4.9191 87.2082H5.32477C6.11575 87.2082 6.85871 86.8711 7.41666 86.2589C7.73592 85.9087 7.97344 85.4928 8.11827 85.039L2.12677 85.0392Z" fill="#333333"/>
<path d="M72.6758 84.5923C72.2901 84.5923 71.9244 84.3408 71.7688 83.9251L63.6213 62.1438L57.009 58.3037C56.5308 58.0259 56.3481 57.3754 56.6013 56.8509C56.8547 56.3264 57.4478 56.1261 57.9258 56.4038L64.8517 60.4258C65.0543 60.5434 65.2129 60.7351 65.2999 60.9677L73.582 83.1088C73.7874 83.6581 73.5481 84.286 73.0474 84.5113C72.9255 84.5665 72.7995 84.5923 72.6758 84.5923Z" fill="#333333"/>
<path d="M57.5759 71.8341C57.3619 71.8341 57.1464 71.7575 56.9661 71.6C56.5427 71.23 56.473 70.5537 56.8103 70.0896L63.6264 60.7065C63.9637 60.2422 64.5805 60.1659 65.0034 60.5356C65.4267 60.9056 65.4965 61.5818 65.1592 62.0459L58.343 71.4291C58.1496 71.6954 57.864 71.8341 57.5759 71.8341Z" fill="#333333"/>
<path d="M49.7285 35.0254L52.0205 26.6919L55.3085 27.0896L56.1816 30.5778" fill="white"/>
<path d="M70.5031 78.7819C70.4501 78.7819 70.3964 78.7772 70.3425 78.7675L57.4569 76.4373C56.9228 76.3408 56.5614 75.7877 56.6494 75.2019C56.7374 74.6161 57.2407 74.2191 57.7757 74.3163L70.6614 76.6465C71.1954 76.743 71.5568 77.2961 71.4688 77.8818C71.3897 78.4081 70.974 78.7819 70.5031 78.7819Z" fill="#333333"/>
<path d="M73.0831 89.3578H72.6754C71.3635 89.3578 70.1287 88.7974 69.1986 87.78C68.269 86.7578 67.7583 85.4034 67.7583 83.9644C67.7583 83.3709 68.1971 82.8896 68.7382 82.8896H77.0203C77.5614 82.8896 78.0002 83.3709 78.0002 83.9644C78.0002 86.9384 75.7945 89.3578 73.0831 89.3578ZM69.8835 85.0392C70.0283 85.493 70.2655 85.9092 70.5843 86.26C71.1427 86.8707 71.8858 87.2082 72.6752 87.2082H73.0829C74.3703 87.2082 75.4682 86.3013 75.8734 85.0392H69.8835Z" fill="#333333"/>
<path d="M39.1373 89.3578H38.7296C36.0173 89.3578 33.8105 86.9384 33.8105 83.9644C33.8105 83.3709 34.2493 82.8896 34.7904 82.8896H43.0745C43.6156 82.8896 44.0544 83.3709 44.0544 83.9644C44.0544 85.4049 43.5425 86.7596 42.6132 87.7791C41.6848 88.7972 40.4503 89.3578 39.1373 89.3578ZM35.9373 85.0392C36.3428 86.3013 37.4415 87.2082 38.7296 87.2082H39.1373C39.9271 87.2082 40.6693 86.8711 41.2274 86.2589C41.5467 85.9087 41.7842 85.4928 41.929 85.0392H35.9373Z" fill="#333333"/>
<path d="M39 54.0975C37.3464 54.0975 35.7097 53.8576 34.1356 53.3845C33.0274 53.053 31.9471 52.6063 30.9259 52.0577C29.985 51.5562 29.0756 50.9582 28.2257 50.2813C24.0305 46.9599 21.2868 41.8348 20.7002 36.2212C20.6193 35.4549 20.5781 34.6705 20.5781 33.8912C20.5781 33.1376 20.6158 32.385 20.6898 31.6548C20.8964 29.5868 21.3952 27.5696 22.1722 25.6605C22.7782 24.1674 23.5556 22.7512 24.4826 21.4529C26.8601 18.1188 30.0618 15.722 33.7411 14.5225C34.2607 14.3533 34.8055 14.6775 34.9597 15.2465C35.114 15.8155 34.8184 16.4139 34.2997 16.5829C31.0127 17.6547 28.1518 19.7968 26.0262 22.7777C25.1978 23.938 24.5034 25.2022 23.9623 26.5357C23.2679 28.2418 22.8225 30.043 22.6379 31.8906C22.5716 32.5441 22.5379 33.2165 22.5379 33.891C22.5379 34.5879 22.5748 35.2891 22.6471 35.9751C23.1713 40.9906 25.6234 45.5697 29.3751 48.5399C30.1345 49.1446 30.9447 49.6777 31.7854 50.1254C32.6987 50.6162 33.6625 51.0145 34.6528 51.3107C37.4659 52.1564 40.5357 52.1562 43.3471 51.311C44.3315 51.0165 45.2961 50.6183 46.2148 50.128C47.056 49.6766 47.8673 49.1424 48.6244 48.5407C52.3772 45.5712 54.8293 40.9919 55.3536 35.9762C55.4261 35.2885 55.4629 34.5873 55.4629 33.8908C55.4629 33.2169 55.4294 32.5445 55.3632 31.8925C55.176 30.0202 54.7245 28.2016 54.0205 26.4858C53.4798 25.1687 52.7919 23.9208 51.9767 22.7775C49.8507 19.7964 46.9892 17.6543 43.7012 16.5827C43.1824 16.4135 42.8867 15.8153 43.041 15.2462C43.1952 14.6772 43.7404 14.3529 44.2594 14.522C47.9397 15.7215 51.1422 18.1181 53.5204 21.4531C54.4325 22.7325 55.2021 24.1287 55.8075 25.6034C56.5957 27.5251 57.1017 29.5617 57.3108 31.6563C57.3849 32.3852 57.4225 33.1378 57.4225 33.8908C57.4225 34.6696 57.3814 35.4538 57.3002 36.2221C56.7135 41.836 53.9696 46.9614 49.7723 50.2828C48.926 50.9552 48.0177 51.5536 47.074 52.0599C46.0441 52.6098 44.9645 53.0552 43.8637 53.3847C42.2902 53.8574 40.6535 54.0975 39 54.0975Z" fill="#333333"/>
<path d="M34.3945 58.429C33.8534 58.429 33.4146 57.9477 33.4146 57.3542V52.3477C33.4146 51.7542 33.8534 51.2729 34.3945 51.2729C34.9356 51.2729 35.3744 51.7542 35.3744 52.3477V57.3542C35.3744 57.9477 34.9356 58.429 34.3945 58.429Z" fill="#333333"/>
<path d="M43.6054 58.429C43.0643 58.429 42.6255 57.9477 42.6255 57.3542V52.3477C42.6255 51.7542 43.0643 51.2729 43.6054 51.2729C44.1465 51.2729 44.5853 51.7542 44.5853 52.3477V57.3542C44.5853 57.9477 44.1465 58.429 43.6054 58.429Z" fill="#333333"/>
<path d="M24.0195 52.4896C19.5219 52.4896 15.8628 48.4752 15.8628 43.5407C15.8628 39.7268 18.0693 36.3279 21.3536 35.0828C21.8647 34.8889 22.423 35.1864 22.5998 35.7475C22.7766 36.3085 22.5053 36.9205 21.9938 37.1144C19.499 38.0602 17.8228 40.6428 17.8228 43.5407C17.8228 47.2899 20.6028 50.34 24.0197 50.34C25.546 50.34 27.0121 49.7258 28.1482 48.6106C28.5513 48.2149 29.171 48.2523 29.5318 48.6947C29.8928 49.137 29.8585 49.8163 29.4552 50.2123C27.9591 51.6807 26.0287 52.4896 24.0195 52.4896Z" fill="#333333"/>
<path d="M53.9807 52.4896C51.9691 52.4896 50.0385 51.6807 48.5446 50.2116C48.1417 49.8155 48.1078 49.136 48.4689 48.6938C48.8301 48.2516 49.4498 48.2146 49.8528 48.6108C50.9867 49.7258 52.4528 50.3398 53.9807 50.3398C57.3988 50.3398 60.1795 47.2897 60.1795 43.5405C60.1795 40.643 58.5025 38.0607 56.0065 37.1142C55.495 36.9203 55.2236 36.3083 55.4006 35.7472C55.5775 35.1862 56.1355 34.8885 56.6468 35.0826C59.9322 36.3281 62.1395 39.7271 62.1395 43.5405C62.1393 48.475 58.4794 52.4896 53.9807 52.4896Z" fill="#333333"/>
<path d="M55.7818 49.2955C55.4 49.2955 55.0373 49.0493 54.8791 48.6396C54.6681 48.093 54.9009 47.4621 55.3991 47.2305C56.7552 46.6003 57.6315 45.1521 57.6315 43.5405C57.6315 43.0014 57.5345 42.4769 57.3434 41.9814C57.1325 41.4347 57.3655 40.804 57.8639 40.5727C58.3627 40.3408 58.9375 40.597 59.1482 41.1437C59.4421 41.9057 59.5913 42.712 59.5913 43.5405C59.5913 46.0169 58.2459 48.2424 56.1636 49.2099C56.0389 49.268 55.9094 49.2955 55.7818 49.2955Z" fill="white"/>
<path d="M46.6422 37.6185C46.1609 37.6185 45.7411 37.2294 45.6729 36.6918L42.6544 12.8978H35.3457L32.3274 36.6918C32.253 37.2797 31.7585 37.6903 31.2219 37.6081C30.6859 37.5265 30.3118 36.9835 30.3864 36.3955L33.5221 11.6751C33.5895 11.1437 34.0036 10.7481 34.4928 10.7481H43.5079C43.997 10.7481 44.4111 11.1437 44.4786 11.6751L47.6142 36.3955C47.6889 36.9835 47.3148 37.5265 46.7788 37.6084C46.7327 37.6152 46.6871 37.6185 46.6422 37.6185Z" fill="#333333"/>
<path d="M46.643 52.1693C46.1019 52.1693 45.6631 51.688 45.6631 51.0945V43.7808C45.6631 43.1873 46.1019 42.706 46.643 42.706C47.1841 42.706 47.6229 43.1873 47.6229 43.7808V51.0945C47.6229 51.688 47.1841 52.1693 46.643 52.1693Z" fill="#333333"/>
<path d="M46.643 41.9893C46.1019 41.9893 45.6631 41.508 45.6631 40.9145V37.6185H38.1708C37.6297 37.6185 37.1909 37.1372 37.1909 36.5437C37.1909 35.9502 37.6297 35.4689 38.1708 35.4689H46.643C47.1841 35.4689 47.6229 35.9502 47.6229 36.5437V40.9145C47.6229 41.508 47.1841 41.9893 46.643 41.9893Z" fill="#333333"/>
<path d="M31.3569 52.1672C30.8158 52.1672 30.377 51.6859 30.377 51.0923V36.5437C30.377 35.9502 30.8158 35.4689 31.3569 35.4689H34.5127C35.0538 35.4689 35.4926 35.9502 35.4926 36.5437C35.4926 37.1372 35.0538 37.6185 34.5127 37.6185H32.3368V51.0923C32.3368 51.6859 31.898 52.1672 31.3569 52.1672Z" fill="#333333"/>
<path d="M46.6438 37.6187C46.2695 37.6187 45.9124 37.3822 45.7491 36.9835C45.5277 36.4418 45.7484 35.8057 46.242 35.5628L55.9352 30.7928C56.4289 30.5496 57.0088 30.7919 57.2304 31.3334C57.4519 31.8751 57.2312 32.5112 56.7375 32.7541L47.0444 37.5241C46.9141 37.5884 46.7778 37.6187 46.6438 37.6187Z" fill="#333333"/>
<path d="M31.3564 37.6187C31.2224 37.6187 31.0861 37.5882 30.9558 37.5241L21.2646 32.7541C20.7707 32.5112 20.5501 31.8751 20.7717 31.3336C20.9932 30.7921 21.5731 30.5499 22.0668 30.793L31.758 35.563C32.2518 35.8059 32.4725 36.442 32.2509 36.9835C32.0878 37.3824 31.7305 37.6187 31.3564 37.6187Z" fill="#333333"/>
<path d="M32.4457 29.0438C32.3875 29.0438 32.3285 29.038 32.2694 29.0262L22.8917 27.156C22.3592 27.0499 22.0061 26.4903 22.1029 25.9063C22.1997 25.3222 22.7093 24.9353 23.2423 25.041L32.62 26.9112C33.1524 27.0174 33.5056 27.5769 33.4088 28.161C33.3225 28.6801 32.91 29.0438 32.4457 29.0438Z" fill="#333333"/>
<path d="M45.3924 26.9121L45.7432 29.0269L55.1218 27.1552L54.771 25.0404L45.3924 26.9121Z" fill="#333333"/>
<path d="M38.9999 9.70773C36.2443 9.70773 34.0024 7.24877 34.0024 4.22618C34.0024 3.63267 34.4412 3.15137 34.9823 3.15137H43.0175C43.5586 3.15137 43.9974 3.63267 43.9974 4.22618C43.9974 7.24856 41.7556 9.70773 38.9999 9.70773ZM36.1243 5.30099C36.5329 6.61248 37.6677 7.5581 38.9999 7.5581C40.3322 7.5581 41.4669 6.61248 41.8755 5.30099H36.1243Z" fill="#333333"/>
<path d="M38.9999 12.8977C38.4588 12.8977 38.02 12.4164 38.02 11.8229V8.63289C38.02 8.03938 38.4588 7.55807 38.9999 7.55807C39.541 7.55807 39.9798 8.03938 39.9798 8.63289V11.8229C39.9798 12.4164 39.541 12.8977 38.9999 12.8977Z" fill="#333333"/>
<path d="M42.2211 72.9439C41.68 72.9439 41.2412 72.4626 41.2412 71.8691V64.9292C41.2412 64.3357 41.68 63.8544 42.2211 63.8544C42.7622 63.8544 43.201 64.3357 43.201 64.9292V71.8691C43.201 72.4626 42.7624 72.9439 42.2211 72.9439Z" fill="white"/>
<path d="M42.2211 62.9125C41.68 62.9125 41.2412 62.4312 41.2412 61.8376V60.4045C41.2412 59.811 41.68 59.3297 42.2211 59.3297C42.7622 59.3297 43.201 59.811 43.201 60.4045V61.8376C43.201 62.4312 42.7624 62.9125 42.2211 62.9125Z" fill="white"/>
<path d="M42.9979 32.7986C42.5166 32.7986 42.0968 32.4095 42.0286 31.8716L40.5417 20.1478C40.467 19.5599 40.8412 19.0169 41.3772 18.9352C41.9122 18.8531 42.4082 19.2637 42.4827 19.8516L43.9696 31.5754C44.0443 32.1634 43.6701 32.7063 43.1341 32.788C43.0885 32.7953 43.043 32.7986 42.9979 32.7986Z" fill="white"/>
<path d="M41.0375 17.3412C40.5562 17.3412 40.1364 16.9522 40.0682 16.4143L39.8669 14.8283C39.7922 14.2404 40.1664 13.6974 40.7024 13.6155C41.2378 13.5336 41.7334 13.944 41.8079 14.5319L42.0092 16.1181C42.0838 16.706 41.7097 17.249 41.1737 17.3307C41.128 17.338 41.0824 17.3412 41.0375 17.3412Z" fill="white"/>
<path d="M38.9999 5.30101C38.4588 5.30101 38.02 4.81971 38.02 4.2262V1.07484C38.02 0.481332 38.4588 3.05176e-05 38.9999 3.05176e-05C39.541 3.05176e-05 39.9798 0.481332 39.9798 1.07484V4.2262C39.9798 4.81971 39.541 5.30101 38.9999 5.30101Z" fill="#333333"/>
</svg>
