<svg width="64" height="106" viewBox="0 0 64 106" fill="none" xmlns="http://www.w3.org/2000/svg">
<path d="M50.148 63.9647C51.0566 64.5841 64.8478 74.2857 61.8704 93.9239C61.8704 93.9239 59.2336 87.8147 49.0815 85.9814C50.4542 78.886 50.6787 71.4143 50.148 63.9647Z" fill="#53AEF9"/>
<path d="M61.8701 93.9238L48.1851 89.9402C48.5257 88.6345 48.8245 87.3166 49.0812 85.9813C59.2333 87.8145 61.8701 93.9238 61.8701 93.9238Z" fill="#399EE2"/>
<path d="M50.1477 63.9646C50.6786 71.4142 50.4539 78.8859 49.0812 85.9813C48.8246 87.3166 48.5257 88.6345 48.1851 89.9402C47.7135 91.7412 47.1581 93.5127 46.5162 95.2468H43.6647H20.3356H17.4842C16.8422 93.5127 16.2867 91.7414 15.8153 89.9377C15.4747 88.6345 15.1758 87.3142 14.9191 85.9813C13.5464 78.8859 13.3217 71.4116 13.8526 63.9621C14.5736 53.894 16.6795 43.8678 19.215 34.8824C23.1849 36.4035 27.4957 37.2359 31.999 37.2359C36.5022 37.2359 40.813 36.4035 44.7854 34.8824C47.3209 43.8678 49.4267 53.8938 50.1477 63.9646Z" fill="#399EE2"/>
<path d="M44.2592 63.9646C44.6178 71.4142 44.4659 78.8859 43.5386 85.9813C43.3652 87.3166 43.1634 88.6345 42.9331 89.9402C42.6145 91.7412 42.2392 93.5127 41.8058 95.2468H39.8796H24.1209H22.1947C21.761 93.5127 21.3857 91.7414 21.0673 89.9377C20.8371 88.6345 20.6355 87.3142 20.4618 85.9813C19.5346 78.8859 19.3827 71.4116 19.7413 63.9621C20.2282 53.894 21.6509 43.8678 23.3637 34.8824C26.0456 36.4035 28.9574 37.2359 31.9994 37.2359C35.0415 37.2359 37.9533 36.4035 40.6367 34.8824C42.3494 43.8678 43.772 53.8938 44.2592 63.9646Z" fill="#53AEF9"/>
<path d="M43.6642 95.2468L46.9849 104.141H17.0151L20.3356 95.2468H43.6642Z" fill="#E81F1F"/>
<path d="M39.484 95.2468L41.6147 104.141H22.3853L24.516 95.2468H39.484Z" fill="#F73E3E"/>
<path d="M44.7852 34.8824C43.415 35.4051 42.0077 35.8485 40.5659 36.2003C37.8206 36.8792 34.9518 37.2359 31.9988 37.2359C29.0461 37.2359 26.177 36.8792 23.4341 36.2003C21.9897 35.8485 20.5826 35.4076 19.2148 34.8824C19.7628 32.9402 20.3308 31.0449 20.9086 29.2092C21.7999 29.5659 22.7109 29.8805 23.6417 30.1506C26.2934 30.9211 29.098 31.3348 31.999 31.3348C34.9 31.3348 37.7047 30.9211 40.3588 30.1506C41.2896 29.8805 42.2006 29.5659 43.0919 29.2092C43.6694 31.0447 44.2372 32.9399 44.7852 34.8824Z" fill="#399EE2"/>
<path d="M41.1682 35.7493C40.9681 35.9053 40.7683 36.0541 40.5658 36.2003C37.8204 36.8792 34.9516 37.2359 31.9986 37.2359C29.0459 37.2359 26.1769 36.8792 23.4339 36.2003C23.2314 36.0541 23.0316 35.9055 22.8315 35.7493C23.0958 33.8516 23.3673 31.9812 23.6413 30.1503C26.293 30.9208 29.0976 31.3346 31.9986 31.3346C34.8996 31.3346 37.7043 30.9208 40.3584 30.1503C40.6324 31.9812 40.9039 33.8516 41.1682 35.7493Z" fill="#80C8F9"/>
<path d="M43.0915 29.209C41.4844 29.8531 39.8079 30.3609 38.0747 30.7152C36.1118 31.1214 34.0801 31.3346 31.9986 31.3346C29.9174 31.3346 27.8855 31.1216 25.9226 30.7152C24.192 30.3609 22.5156 29.8531 20.9082 29.209C26.0436 12.9078 31.9986 1.23414 31.9986 1.23414C31.9986 1.23414 37.9536 12.9078 43.0915 29.209Z" fill="#E81F1F"/>
<path d="M38.0749 30.7154C36.112 31.1216 34.0803 31.3348 31.9989 31.3348C29.9176 31.3348 27.8857 31.1218 25.9229 30.7154C28.7597 13.4998 31.9989 1.23414 31.9989 1.23414C31.9989 1.23414 35.238 13.4998 38.0749 30.7154Z" fill="#F73E3E"/>
<path d="M31.999 42.4753C37.6158 42.4753 42.1684 47.0436 42.1684 52.6798C42.1684 58.316 37.6158 62.8842 31.999 62.8842C26.3822 62.8842 21.8296 58.316 21.8296 52.6798C21.8296 47.0436 26.3824 42.4753 31.999 42.4753ZM38.754 52.6798C38.754 48.9364 35.7295 45.9017 31.9992 45.9017C28.2689 45.9017 25.2444 48.9366 25.2444 52.6798C25.2444 56.423 28.2689 59.4579 31.9992 59.4579C35.7295 59.4579 38.754 56.4232 38.754 52.6798Z" fill="#399EE2"/>
<path d="M31.999 68.1242C37.6158 68.1242 42.1684 72.6925 42.1684 78.3262C42.1684 83.9624 37.6158 88.5307 31.999 88.5307C26.3822 88.5307 21.8296 83.9622 21.8296 78.3262C21.8296 72.6925 26.3824 68.1242 31.999 68.1242ZM38.754 78.3262C38.754 74.5828 35.7295 71.5481 31.9992 71.5481C28.2689 71.5481 25.2442 74.5828 25.2442 78.3262C25.2442 82.0721 28.2686 85.107 31.999 85.107C35.7293 85.107 38.754 82.0718 38.754 78.3262Z" fill="#399EE2"/>
<path d="M27.2221 47.8871C24.5842 50.5341 24.5842 54.8261 27.2221 57.4728C28.5419 58.7972 30.2703 59.4594 31.9985 59.4594C33.7268 59.4594 35.455 58.7972 36.7748 57.4728C39.4127 54.8258 39.4127 50.5339 36.7748 47.8871C35.455 46.5627 33.7268 45.9005 31.9985 45.9005C30.2703 45.9005 28.5419 46.5627 27.2221 47.8871Z" fill="white"/>
<path d="M36.7759 73.5336C34.138 70.8867 29.8608 70.8867 27.2231 73.5336C24.5835 76.1824 24.5835 80.4742 27.2214 83.1211C29.8592 85.7681 34.1365 85.7681 36.7759 83.1194C39.4136 80.4724 39.4136 76.1806 36.7759 73.5336Z" fill="white"/>
<path d="M15.8154 89.9377L2.13037 93.9238C2.13037 93.9238 4.76715 87.8145 14.9192 85.9813C15.1759 87.3141 15.4746 88.6347 15.8154 89.9377Z" fill="#399EE2"/>
<path d="M13.8526 63.9623C13.3217 71.4119 13.5464 78.8863 14.9191 85.9814C4.767 87.8147 2.13022 93.9239 2.13022 93.9239C-0.852051 74.2683 12.9662 64.5643 13.8526 63.9623Z" fill="#53AEF9"/>
<path d="M46.5158 96.361H43.6641C43.0509 96.361 42.5539 95.8621 42.5539 95.247C42.5539 94.6318 43.0509 94.1329 43.6641 94.1329H45.7378C46.2523 92.6784 46.7135 91.1762 47.1111 89.6573C47.4453 88.3764 47.7415 87.0683 47.9911 85.7704C49.2505 79.2597 49.6036 71.9504 49.0405 64.0442C48.4043 55.159 46.6133 45.4494 43.7172 35.1859C43.1918 33.3248 42.6252 31.4269 42.033 29.5446C38.2147 17.4302 33.8997 7.80085 31.9988 3.77891C30.0979 7.80085 25.7836 17.4302 21.9671 29.5448C21.3758 31.4236 20.8091 33.3215 20.2829 35.1859C17.387 45.4492 15.596 55.1579 14.9598 64.042C14.3963 71.9486 14.7493 79.2588 16.0088 85.7691C16.261 87.0781 16.557 88.3851 16.889 89.6551C17.286 91.1738 17.7469 92.6766 18.2621 94.1329H20.3357C20.9488 94.1329 21.446 94.6318 21.446 95.247C21.446 95.8621 20.9488 96.361 20.3357 96.361H17.4843C17.0202 96.361 16.6052 96.0714 16.4435 95.6349C15.7961 93.8856 15.2232 92.0641 14.7413 90.2204C14.3972 88.9033 14.0901 87.5482 13.829 86.1926C12.5324 79.4914 12.1679 71.9847 12.7452 63.8827C13.3922 54.8471 15.2094 44.988 18.1466 34.5788C18.6789 32.6931 19.2519 30.7734 19.8499 28.8735C24.9543 12.6706 30.9508 0.844064 31.0107 0.72642C31.2004 0.354328 31.5821 0.120155 31.9986 0.120155C32.4152 0.120155 32.7969 0.354328 32.9869 0.726643C33.0471 0.844287 39.0432 12.6706 44.15 28.8733C44.749 30.7772 45.3219 32.6967 45.8533 34.579C48.7907 44.9882 50.6079 54.8482 51.2549 63.8849C51.832 71.9865 51.4672 79.4923 50.1707 86.1938C49.9122 87.538 49.6054 88.8938 49.2588 90.2226C48.7756 92.0672 48.2029 93.888 47.5566 95.6349C47.3951 96.0714 46.9799 96.361 46.5158 96.361Z" fill="#333333"/>
<path d="M2.13013 95.0382C1.92052 95.0382 1.71269 94.9785 1.53239 94.8629C1.26305 94.6902 1.08075 94.409 1.03279 94.0917C-0.235967 85.7306 1.34632 77.8123 5.60823 71.1933C8.85074 66.1576 12.5265 63.5178 13.2303 63.0396C13.2503 63.026 13.2705 63.0131 13.2912 63.0011C13.7979 62.6613 14.4707 62.8032 14.8135 63.3092C15.1566 63.8152 15.0158 64.5128 14.5144 64.8609C14.5144 64.8609 14.4931 64.8756 14.45 64.9019C13.952 65.2439 10.4892 67.7188 7.47318 72.4028C3.66779 78.3126 2.18476 85.0657 3.05783 92.4939L15.5058 88.8682C15.5138 88.8659 15.5218 88.8635 15.5298 88.8615L15.5669 88.8517C16.1595 88.6942 16.7675 89.0473 16.9254 89.6418C17.083 90.2362 16.7304 90.8465 16.138 91.0049L16.1129 91.0116L2.43989 94.9943C2.33819 95.0235 2.23405 95.0382 2.13013 95.0382Z" fill="#333333"/>
<path d="M61.8699 95.0382C61.7662 95.0382 61.6621 95.0237 61.5604 94.9941L47.8756 91.0104C47.868 91.0082 47.8605 91.006 47.8529 91.0035L47.8134 90.9911C47.2281 90.8072 46.9024 90.182 47.0858 89.5949C47.2692 89.0074 47.8934 88.6812 48.4771 88.8648L48.5053 88.8737L60.9422 92.4941C61.8135 85.0717 60.3327 78.3226 56.5333 72.4165C53.5124 67.7204 50.0185 65.2262 49.5425 64.8992C49.5021 64.8738 49.4834 64.8611 49.4834 64.8611C48.9789 64.515 48.8433 63.8221 49.1854 63.3141C49.5258 62.8088 50.2031 62.6695 50.7104 63.0042C50.7251 63.0133 50.7577 63.0338 50.7715 63.0434C51.478 63.5249 55.1653 66.1817 58.3989 71.2082C62.6544 77.8237 64.2342 85.7368 62.9675 94.0919C62.9193 94.4092 62.7372 94.6901 62.4677 94.863C62.2876 94.9785 62.0798 95.0382 61.8699 95.0382Z" fill="#333333"/>
<path d="M31.999 32.4487C28.0253 32.4487 24.1557 31.7067 20.4978 30.2437C19.9282 30.016 19.6504 29.3679 19.8776 28.7964C20.1045 28.2249 20.7502 27.9464 21.32 28.1741C24.7155 29.5321 28.3084 30.2206 31.9992 30.2206C35.6916 30.2206 39.2856 29.5321 42.6809 28.1741C43.2515 27.9459 43.8963 28.2251 44.1233 28.7964C44.3502 29.3679 44.0724 30.016 43.5031 30.2437C39.8449 31.7069 35.9742 32.4487 31.999 32.4487Z" fill="#333333"/>
<path d="M40.5658 37.3171C40.0662 37.3171 39.6125 36.9767 39.4882 36.468C39.3423 35.8704 39.7067 35.2673 40.3022 35.1209C41.6849 34.7811 43.06 34.3504 44.3896 33.8415C44.9616 33.6218 45.6042 33.9104 45.8227 34.4852C46.0412 35.0601 45.7538 35.7038 45.181 35.9232C43.7657 36.4651 42.3019 36.9232 40.8307 37.285C40.7421 37.3067 40.6533 37.3171 40.5658 37.3171Z" fill="#333333"/>
<path d="M36.608 38.0126C36.062 38.0126 35.5859 37.6084 35.5096 37.0505C35.4258 36.4409 35.8504 35.8788 36.4579 35.795C36.7648 35.7527 37.0701 35.7063 37.374 35.656C37.9802 35.5552 38.5502 35.967 38.6501 36.5741C38.7498 37.1813 38.3402 37.7544 37.7353 37.8546C37.4118 37.9081 37.0869 37.9574 36.7605 38.0024C36.7093 38.0093 36.6582 38.0126 36.608 38.0126Z" fill="#333333"/>
<path d="M31.9991 38.3498C27.4565 38.3498 23.0221 37.5332 18.819 35.923C18.2461 35.7035 17.959 35.0596 18.1779 34.4847C18.3967 33.9099 19.0381 33.622 19.6112 33.8415C23.5603 35.3546 27.7283 36.1217 31.9993 36.1217C32.448 36.1217 32.9035 36.113 33.3533 36.0957C33.9682 36.0723 34.4815 36.5517 34.5051 37.1665C34.5284 37.7812 34.0508 38.2988 33.4379 38.3222C32.9598 38.3405 32.4758 38.3498 31.9991 38.3498Z" fill="#333333"/>
<path d="M31.9989 89.6447C25.7792 89.6447 20.7192 84.5673 20.7192 78.3262C20.7192 72.0864 25.7792 67.0101 31.9989 67.0101C33.8762 67.0101 35.7359 67.4827 37.3761 68.3766C37.915 68.6703 38.1146 69.3467 37.822 69.8873C37.5297 70.4278 36.8554 70.6283 36.3167 70.3347C35.0002 69.6175 33.5074 69.2382 31.9989 69.2382C27.0035 69.2382 22.9397 73.315 22.9397 78.3262C22.9397 83.3387 27.0035 87.4166 31.9989 87.4166C36.9942 87.4166 41.058 83.3387 41.058 78.3262C41.058 75.8989 40.1157 73.6169 38.4048 71.9004C37.9712 71.4654 37.9712 70.76 38.4046 70.3249C38.8382 69.8897 39.541 69.8895 39.9747 70.3249C42.1052 72.4623 43.2785 75.304 43.2785 78.3264C43.2787 84.5671 38.2187 89.6447 31.9989 89.6447Z" fill="#333333"/>
<path d="M31.9989 63.9986C25.7792 63.9986 20.7192 58.9212 20.7192 52.6801C20.7192 46.439 25.7792 41.3616 31.9989 41.3616C33.7776 41.3616 35.5498 41.788 37.1234 42.5946C37.6694 42.8745 37.8861 43.5456 37.6072 44.0934C37.3281 44.6416 36.6593 44.8586 36.1133 44.5787C34.8328 43.9226 33.4486 43.5897 31.9989 43.5897C27.0035 43.5897 22.9397 47.6675 22.9397 52.6801C22.9397 57.6926 27.0035 61.7705 31.9989 61.7705C36.9942 61.7705 41.058 57.6926 41.058 52.6801C41.058 50.2519 40.1157 47.9688 38.4048 46.252C37.9712 45.8169 37.9712 45.1117 38.4046 44.6765C38.8382 44.2416 39.5415 44.2416 39.9747 44.6765C42.1052 46.8142 43.2785 49.6566 43.2785 52.6801C43.2787 58.9212 38.2187 63.9986 31.9989 63.9986Z" fill="#333333"/>
<path d="M46.9851 105.255H17.0154C16.6513 105.255 16.3104 105.076 16.103 104.775C15.8957 104.475 15.8481 104.092 15.9758 103.75L19.2965 94.856C19.4588 94.4211 19.8731 94.1328 20.3361 94.1328H43.6647C44.1277 94.1328 44.542 94.4208 44.7045 94.856L48.0252 103.75C48.1529 104.092 48.1051 104.475 47.898 104.775C47.6901 105.076 47.3493 105.255 46.9851 105.255ZM18.6168 103.027H45.3835L42.8949 96.3608H21.1057L18.6168 103.027Z" fill="#333333"/>
<path d="M27.2221 47.8871C24.5842 50.5341 24.5842 54.8261 27.2221 57.4728C28.5419 58.7972 30.2703 59.4594 31.9985 59.4594V45.9005C30.2703 45.9005 28.5419 46.5627 27.2221 47.8871Z" fill="#C3E7FC"/>
<path d="M27.2826 73.4741C24.6447 76.121 24.6447 80.4128 27.2826 83.0598C28.6024 84.3842 30.3308 85.0464 32.059 85.0464V71.4875C30.3308 71.4875 28.6024 72.1497 27.2826 73.4741Z" fill="#C3E7FC"/>
<path d="M31.999 60.5723C29.8983 60.5723 27.923 59.7513 26.4375 58.2607C24.952 56.7701 24.1338 54.7882 24.1338 52.68C24.1338 50.5717 24.952 48.5898 26.4375 47.0992C27.923 45.6086 29.8981 44.7876 31.999 44.7876C34.1 44.7876 36.0751 45.6086 37.5604 47.0992C39.0458 48.5898 39.8641 50.5717 39.8641 52.68C39.8641 54.7882 39.0458 56.7701 37.5604 58.2607C36.0751 59.7513 34.1 60.5723 31.999 60.5723ZM31.999 47.0186C30.5535 47.0186 29.108 47.5707 28.0076 48.675C25.8067 50.8834 25.8067 54.4769 28.0076 56.6852C30.2085 58.8939 33.7896 58.8937 35.9905 56.6852C38.1912 54.4767 38.1912 50.8832 35.9905 48.675C34.89 47.5707 33.4448 47.0186 31.999 47.0186Z" fill="#333333"/>
<path d="M31.9988 86.2208C27.6621 86.2208 24.1338 82.6793 24.1338 78.3262C24.1338 73.9743 27.6621 70.4339 31.9988 70.4339C36.3358 70.4339 39.8638 73.9743 39.8638 78.3262C39.8641 82.6793 36.3358 86.2208 31.9988 86.2208ZM31.9988 72.662C28.8862 72.662 26.3542 75.2029 26.3542 78.3262C26.3542 81.4507 28.8864 83.9927 31.9988 83.9927C35.1112 83.9927 37.6434 81.4507 37.6434 78.3262C37.6436 75.2029 35.1114 72.662 31.9988 72.662Z" fill="#333333"/>
<path d="M42.013 101.505C41.5634 101.505 41.1401 101.229 40.9729 100.781L40.4527 99.3882C40.2375 98.812 40.5289 98.1699 41.1031 97.954C41.6768 97.7381 42.317 98.0304 42.5324 98.6063L43.0526 99.9996C43.2678 100.576 42.9765 101.218 42.4022 101.434C42.2739 101.482 42.1422 101.505 42.013 101.505Z" fill="white"/>
<path d="M33.5012 14.104C33.066 14.104 32.6532 13.8457 32.4756 13.4173C32.2029 12.7593 31.9376 12.1283 31.6809 11.5256C31.44 10.9599 31.7016 10.3051 32.2656 10.0633C32.8289 9.82179 33.4817 10.084 33.7228 10.65C33.9822 11.2591 34.2506 11.8968 34.5262 12.5619C34.7616 13.1301 34.4935 13.782 33.9273 14.0182C33.7877 14.0763 33.6431 14.104 33.5012 14.104Z" fill="white"/>
<path d="M38.3192 26.869C37.8576 26.869 37.4266 26.578 37.269 26.1154C36.2969 23.2661 35.2402 20.3763 34.1284 17.5266C33.905 16.9535 34.1866 16.3073 34.7577 16.083C35.3285 15.8586 35.9727 16.1413 36.1963 16.7142C37.3196 19.5938 38.3872 22.5139 39.3697 25.3935C39.5685 25.9757 39.2592 26.6092 38.679 26.8084C38.5597 26.8494 38.4383 26.869 38.3192 26.869Z" fill="white"/>
<path d="M43.2344 43.7436C42.7328 43.7436 42.2781 43.4002 42.1559 42.8896C41.9339 41.9627 41.7014 41.0262 41.4647 40.1064C41.3115 39.5106 41.6683 38.903 42.2618 38.7491C42.8558 38.5958 43.4611 38.9534 43.6145 39.5492C43.8546 40.4812 44.0901 41.4299 44.3149 42.3691C44.4583 42.9673 44.0908 43.5689 43.4948 43.7126C43.4074 43.7336 43.3201 43.7436 43.2344 43.7436Z" fill="white"/>
<path d="M44.8426 90.1732C44.7495 90.1732 44.655 90.1614 44.5606 90.1365C43.9675 89.9807 43.6125 89.3718 43.7679 88.7767C44.0827 87.5693 44.3619 86.3367 44.597 85.1132C45.7994 78.8986 46.1342 71.8937 45.5924 64.2912C45.205 58.8787 44.3656 53.0857 43.0975 47.0734C42.9705 46.4714 43.354 45.8802 43.9537 45.7528C44.5535 45.6253 45.1426 46.0101 45.2698 46.6119C46.5588 52.7234 47.4123 58.618 47.8073 64.1319C48.3629 71.9298 48.016 79.1312 46.7768 85.5363C46.5326 86.8061 46.243 88.0866 45.9157 89.3408C45.7854 89.8417 45.3351 90.1732 44.8426 90.1732Z" fill="white"/>
</svg>
