<svg width="70" height="60" viewBox="0 0 70 60" fill="none" xmlns="http://www.w3.org/2000/svg">
<path d="M32.7388 1.11903C34.1638 0.413823 35.8362 0.413823 37.2612 1.11903L62.4739 13.596C64.2114 14.4559 65.3109 16.2268 65.3109 18.1654V41.8346C65.3109 43.7732 64.2114 45.5441 62.4739 46.404L37.2612 58.881C35.8362 59.5862 34.1638 59.5862 32.7388 58.881L7.52613 46.404C5.78861 45.5441 4.68911 43.7732 4.68911 41.8346V18.1654C4.68911 16.2268 5.78861 14.4559 7.52613 13.596L32.7388 1.11903Z" fill="#6B9AAA"/>
<mask id="mask0_168_81525" style="mask-type:alpha" maskUnits="userSpaceOnUse" x="4" y="0" width="62" height="60">
<path d="M32.7388 1.11903C34.1638 0.413823 35.8362 0.413823 37.2612 1.11903L62.4739 13.596C64.2114 14.4559 65.3109 16.2268 65.3109 18.1654V41.8346C65.3109 43.7732 64.2114 45.5441 62.4739 46.404L37.2612 58.881C35.8362 59.5862 34.1638 59.5862 32.7388 58.881L7.52613 46.404C5.78861 45.5441 4.68911 43.7732 4.68911 41.8346V18.1654C4.68911 16.2268 5.78861 14.4559 7.52613 13.596L32.7388 1.11903Z" fill="#C4C4C4"/>
</mask>
<g mask="url(#mask0_168_81525)">
<rect width="72.8693" height="22.9841" transform="matrix(0.892672 -0.450706 0.566372 0.82415 -0.404297 44.7269)" fill="white" fill-opacity="0.5"/>
<rect width="64.1017" height="10.8025" transform="matrix(0.892672 -0.450706 0.566372 0.82415 -4.0459 28.1974)" fill="white" fill-opacity="0.5"/>
</g>
<path d="M32.9406 1.52701C34.2384 0.884766 35.7616 0.884766 37.0594 1.52701L62.272 14.004C63.8544 14.7871 64.8557 16.3999 64.8557 18.1654V41.8346C64.8557 43.6001 63.8544 45.2129 62.272 45.996L37.0594 58.473C35.7616 59.1152 34.2384 59.1152 32.9406 58.473L7.72803 45.996C6.14565 45.2129 5.14431 43.6001 5.14431 41.8346V18.1654C5.14431 16.3999 6.14565 14.7871 7.72803 14.004L32.9406 1.52701Z" stroke="#6B9AAA" stroke-width="0.910405"/>
<path d="M34.5559 5.52202C34.963 5.32054 35.4409 5.32054 35.848 5.52202L59.2708 17.1133C59.7673 17.359 60.0814 17.8649 60.0814 18.4188V41.2343C60.0814 41.7882 59.7673 42.2942 59.2708 42.5398L35.848 54.1311C35.4409 54.3326 34.963 54.3326 34.5559 54.1311L11.1331 42.5398C10.6366 42.2942 10.3225 41.7882 10.3225 41.2343V18.4188C10.3225 17.8649 10.6366 17.359 11.1331 17.1133L34.5559 5.52202Z" fill="url(#paint0_linear_168_81525)"/>
<path d="M34.7578 5.93C35.0377 5.79148 35.3662 5.79148 35.6461 5.93L59.0689 17.5213C59.4102 17.6902 59.6262 18.038 59.6262 18.4188V41.2343C59.6262 41.6151 59.4102 41.963 59.0689 42.1319L35.6461 53.7232C35.3662 53.8617 35.0377 53.8617 34.7578 53.7232L11.335 42.1319C10.9937 41.963 10.7777 41.6151 10.7777 41.2343V18.4188C10.7777 18.038 10.9937 17.6902 11.335 17.5213L34.7578 5.93Z" stroke="white" stroke-opacity="0.5" stroke-width="0.910405"/>
<defs>
<linearGradient id="paint0_linear_168_81525" x1="35.202" y1="5.2023" x2="35.202" y2="54.4509" gradientUnits="userSpaceOnUse">
<stop stop-color="#F3E7A8"/>
<stop offset="1" stop-color="#B8B362"/>
</linearGradient>
</defs>
</svg>
