<svg width="132" height="131" viewBox="0 0 132 131" fill="none" xmlns="http://www.w3.org/2000/svg">
<path d="M35.0162 92.2949C35.3457 93.2684 36.3419 93.8506 37.3518 93.6598L104.443 80.9821C105.069 80.864 105.604 80.4635 105.895 79.8971C106.185 79.3307 106.198 78.6619 105.929 78.085L91.4108 46.9516C91.0212 46.116 90.1242 45.6407 89.214 45.7875L25.3014 56.096C24.7026 56.1925 24.1768 56.5479 23.8638 57.0674C23.5508 57.5869 23.4824 58.2178 23.6768 58.7923L35.0162 92.2949Z" fill="black"/>
<path d="M31.8985 87.8311C32.0583 88.3033 32.5415 88.5857 33.0314 88.4932L100.123 75.8155C100.426 75.7582 100.686 75.564 100.827 75.2892C100.968 75.0145 100.974 74.6901 100.843 74.4103L86.3252 43.2769C86.1362 42.8716 85.7012 42.6411 85.2597 42.7123L21.3471 53.0207C21.0567 53.0676 20.8016 53.2399 20.6498 53.4919C20.498 53.7439 20.4648 54.0499 20.5591 54.3286L31.8985 87.8311Z" fill="#90F244" stroke="black" stroke-width="2" stroke-linejoin="round"/>
<path d="M84.1213 23.3492C83.9994 23.0851 83.7685 22.8871 83.4889 22.807C83.2093 22.7268 82.9086 22.7724 82.6653 22.9319C69.7754 31.3788 41.9311 43.0455 23.6994 46.6226C23.4136 46.6787 23.1665 46.8565 23.0226 47.1097C22.8786 47.3628 22.8522 47.6661 22.9502 47.9404L35.3037 82.5119C35.4568 82.9403 35.8797 83.2114 36.3329 83.1715C46.3963 82.2869 75.0807 75.1265 99.8484 59.4963C100.273 59.2284 100.433 58.6873 100.223 58.2315L84.1213 23.3492Z" fill="#90F244" stroke="black" stroke-width="2" stroke-linejoin="round"/>
<path d="M30.7839 48.8538C30.7839 49.8846 30.4747 52.1525 29.2377 52.9771" stroke="black" stroke-width="2" stroke-linecap="round" stroke-linejoin="round"/>
<path d="M36.4536 74.625C37.4845 74.625 40.1647 75.4496 42.6387 78.7484" stroke="black" stroke-width="2" stroke-linecap="round" stroke-linejoin="round"/>
<path d="M76.6566 31.3293C77.3438 31.8448 79.4399 32.8756 82.3263 32.8756" stroke="black" stroke-width="2" stroke-linecap="round" stroke-linejoin="round"/>
<path d="M90.5731 60.1931C90.4013 58.9904 90.47 55.8635 92.1194 52.9771" stroke="black" stroke-width="2" stroke-linecap="round" stroke-linejoin="round"/>
<ellipse cx="61.2284" cy="56.1632" rx="9.5995" ry="12.4105" transform="rotate(-21.1833 61.2284 56.1632)" fill="white" stroke="black" stroke-width="2" stroke-linejoin="round"/>
</svg>
