<svg width="220" height="220" viewBox="0 0 220 220" fill="none" xmlns="http://www.w3.org/2000/svg">
<path d="M30.4509 49.0629C42.0047 49.0629 51.371 39.6967 51.371 28.1428C51.371 16.589 42.0047 7.22272 30.4509 7.22272C18.897 7.22272 9.53076 16.589 9.53076 28.1428C9.53076 39.6967 18.897 49.0629 30.4509 49.0629Z" fill="#F9DAC5"/>
<path opacity="0.25" d="M9.53076 28.1417C9.53076 39.6965 18.8937 49.0635 30.4485 49.0635C32.2414 49.0635 33.9867 48.8382 35.6452 48.4142C26.607 46.1015 19.9242 37.9036 19.9242 28.1417C19.9242 18.3803 26.6064 10.1859 35.6452 7.87331C33.9867 7.44872 32.2414 7.22394 30.4485 7.22394C18.8937 7.22394 9.53076 16.5868 9.53076 28.1417Z" fill="black"/>
<path d="M30.4502 52.0362C17.2755 52.0362 6.55737 41.3175 6.55737 28.1428C6.55737 14.9682 17.2755 4.24945 30.4502 4.24945C43.6248 4.24945 54.3436 14.9682 54.3436 28.1428C54.3436 41.3175 43.6254 52.0362 30.4502 52.0362ZM30.4502 10.196C20.5545 10.196 12.504 18.2471 12.504 28.1428C12.504 38.0386 20.555 46.0897 30.4502 46.0897C40.3459 46.0897 48.397 38.0386 48.397 28.1428C48.397 18.2471 40.3459 10.196 30.4502 10.196Z" fill="#333333"/>
<path d="M211.473 104.446C211.473 107.36 211.348 110.25 211.105 113.104H8.89677C8.65296 110.25 8.52808 107.36 8.52808 104.446C8.52808 96.9413 9.34276 89.621 10.8948 82.5803H209.107C210.659 89.621 211.473 96.9413 211.473 104.446Z" fill="#F9DAC5"/>
<path d="M8.89673 113.104H211.105C210.777 117.005 210.23 120.841 209.469 124.599H10.532C9.77088 120.841 9.22379 117.005 8.89673 113.104Z" fill="#F9A064"/>
<path d="M10.532 124.599H209.469C207.15 136.129 202.868 146.958 196.993 156.71H23.0079C17.1327 146.958 12.8512 136.129 10.532 124.599Z" fill="#F9911E"/>
<path d="M209.106 82.5803H10.8948C12.7917 73.922 15.8007 65.6741 19.7611 57.9971H200.24C204.201 65.6741 207.21 73.922 209.106 82.5803Z" fill="#F9700B"/>
<path d="M200.24 57.9971H19.7612C21.5214 54.5778 23.4778 51.2715 25.6008 48.0901H194.401C196.524 51.2715 198.48 54.5778 200.24 57.9971Z" fill="#F9DAC5"/>
<path d="M23.0081 156.71H196.993C193.396 162.693 189.197 168.271 184.476 173.361H35.5256C30.804 168.271 26.6057 162.693 23.0081 156.71Z" fill="#F9700B"/>
<path d="M194.401 48.0901H25.6008C29.7515 41.8878 34.5683 36.1731 39.944 31.0412H180.058C185.433 36.1731 190.25 41.8878 194.401 48.0901Z" fill="#E0AA86"/>
<path d="M35.5256 173.361H184.476C178.595 179.724 171.905 185.325 164.567 190.011H55.4348C48.0967 185.325 41.4068 179.724 35.5256 173.361Z" fill="#E0AA86"/>
<path d="M180.057 31.0412H39.9438C58.1582 13.6533 82.8307 2.97327 110.001 2.97327C137.171 2.97327 161.843 13.6533 180.057 31.0412Z" fill="#F9A064"/>
<path d="M55.4348 190.011H164.567C148.814 200.079 130.088 205.918 110.001 205.918C89.9131 205.918 71.1873 200.079 55.4348 190.011Z" fill="#F9DAC5"/>
<path d="M180.058 34.0145H39.944C38.3021 34.0145 36.9707 32.683 36.9707 31.0412C36.9707 29.3993 38.3021 28.0679 39.944 28.0679H180.058C181.699 28.0679 183.031 29.3993 183.031 31.0412C183.031 32.683 181.7 34.0145 180.058 34.0145Z" fill="#333333"/>
<path d="M145.145 51.0633H25.6007C23.9589 51.0633 22.6274 49.7319 22.6274 48.0901C22.6274 46.4482 23.9589 45.1168 25.6007 45.1168H145.145C146.787 45.1168 148.118 46.4482 148.118 48.0901C148.118 49.7319 146.787 51.0633 145.145 51.0633Z" fill="#333333"/>
<path d="M194.401 51.0633H157.038C155.396 51.0633 154.065 49.7319 154.065 48.0901C154.065 46.4482 155.396 45.1168 157.038 45.1168H194.401C196.043 45.1168 197.374 46.4482 197.374 48.0901C197.374 49.7319 196.043 51.0633 194.401 51.0633Z" fill="#333333"/>
<path d="M77.6512 60.9704H19.7611C18.1193 60.9704 16.7878 59.6389 16.7878 57.9971C16.7878 56.3552 18.1193 55.0238 19.7611 55.0238H77.6512C79.293 55.0238 80.6245 56.3552 80.6245 57.9971C80.6245 59.6389 79.2936 60.9704 77.6512 60.9704Z" fill="#333333"/>
<path d="M200.24 60.9704H87.1657C85.5238 60.9704 84.1924 59.6389 84.1924 57.9971C84.1924 56.3552 85.5238 55.0238 87.1657 55.0238H200.24C201.882 55.0238 203.213 56.3552 203.213 57.9971C203.213 59.6389 201.882 60.9704 200.24 60.9704Z" fill="#333333"/>
<path d="M157.038 127.572H10.5321C8.89028 127.572 7.55884 126.241 7.55884 124.599C7.55884 122.957 8.89028 121.626 10.5321 121.626H157.038C158.68 121.626 160.012 122.957 160.012 124.599C160.012 126.241 158.681 127.572 157.038 127.572Z" fill="#333333"/>
<path d="M209.469 127.572H168.039C166.398 127.572 165.066 126.241 165.066 124.599C165.066 122.957 166.398 121.626 168.039 121.626H209.469C211.111 121.626 212.443 122.957 212.443 124.599C212.443 126.241 211.111 127.572 209.469 127.572Z" fill="#333333"/>
<path d="M43.7556 159.684H23.008C21.3661 159.684 20.0347 158.352 20.0347 156.71C20.0347 155.069 21.3661 153.737 23.008 153.737H43.7556C45.3975 153.737 46.7289 155.069 46.7289 156.71C46.7289 158.352 45.3981 159.684 43.7556 159.684Z" fill="#333333"/>
<path d="M196.993 159.684H119.872C118.23 159.684 116.899 158.352 116.899 156.71C116.899 155.069 118.23 153.737 119.872 153.737H196.993C198.635 153.737 199.967 155.069 199.967 156.71C199.967 158.352 198.635 159.684 196.993 159.684Z" fill="#333333"/>
<path d="M184.476 176.334H35.5255C33.8837 176.334 32.5522 175.003 32.5522 173.361C32.5522 171.719 33.8837 170.388 35.5255 170.388H184.476C186.118 170.388 187.449 171.719 187.449 173.361C187.449 175.003 186.118 176.334 184.476 176.334Z" fill="#333333"/>
<path d="M131.765 192.985H55.4347C53.7929 192.985 52.4614 191.653 52.4614 190.011C52.4614 188.369 53.7929 187.038 55.4347 187.038H131.765C133.407 187.038 134.738 188.369 134.738 190.011C134.738 191.653 133.407 192.985 131.765 192.985Z" fill="#333333"/>
<path d="M164.566 192.985H145.145C143.503 192.985 142.172 191.653 142.172 190.011C142.172 188.369 143.503 187.038 145.145 187.038H164.566C166.208 187.038 167.54 188.369 167.54 190.011C167.54 191.653 166.208 192.985 164.566 192.985Z" fill="#333333"/>
<path d="M133.549 85.5536H10.8949C9.25307 85.5536 7.92163 84.2221 7.92163 82.5803C7.92163 80.9384 9.25307 79.607 10.8949 79.607H133.549C135.191 79.607 136.523 80.9384 136.523 82.5803C136.523 84.2221 135.192 85.5536 133.549 85.5536Z" fill="#333333"/>
<path d="M209.107 85.5536H144.55C142.909 85.5536 141.577 84.2221 141.577 82.5803C141.577 80.9384 142.909 79.607 144.55 79.607H209.107C210.748 79.607 212.08 80.9384 212.08 82.5803C212.08 84.2221 210.748 85.5536 209.107 85.5536Z" fill="#333333"/>
<path d="M66.9475 116.077H8.89688C7.25503 116.077 5.92358 114.746 5.92358 113.104C5.92358 111.462 7.25503 110.131 8.89688 110.131H66.9475C68.5893 110.131 69.9208 111.462 69.9208 113.104C69.9208 114.746 68.5893 116.077 66.9475 116.077Z" fill="#333333"/>
<path d="M77.7719 116.077C77.5816 116.077 77.3854 116.06 77.1951 116.018C77.0048 115.982 76.8145 115.923 76.6361 115.851C76.4577 115.774 76.2852 115.685 76.1247 115.578C75.9582 115.471 75.8095 115.346 75.6727 115.209C75.1197 114.656 74.7986 113.889 74.7986 113.104C74.7986 112.319 75.1197 111.558 75.6727 110.999C75.8095 110.862 75.9582 110.743 76.1247 110.63C76.2852 110.523 76.4577 110.434 76.6361 110.357C76.8145 110.285 77.0048 110.226 77.1951 110.19C78.1584 109.994 79.1872 110.309 79.877 110.999C80.0138 111.142 80.1386 111.29 80.2457 111.451C80.3527 111.617 80.4419 111.79 80.5192 111.968C80.5906 112.147 80.65 112.331 80.6917 112.521C80.7273 112.718 80.7452 112.908 80.7452 113.104C80.7452 113.3 80.7273 113.491 80.6917 113.687C80.65 113.877 80.5906 114.062 80.5192 114.24C80.4419 114.418 80.3527 114.597 80.2457 114.757C80.1386 114.918 80.0138 115.072 79.877 115.209C79.3239 115.762 78.5568 116.077 77.7719 116.077Z" fill="#333333"/>
<path d="M211.104 116.077H87.1657C85.5238 116.077 84.1924 114.746 84.1924 113.104C84.1924 111.462 85.5238 110.131 87.1657 110.131H211.104C212.746 110.131 214.078 111.462 214.078 113.104C214.078 114.746 212.746 116.077 211.104 116.077Z" fill="#333333"/>
<path d="M154.419 31.2778C153.88 31.2778 153.335 31.131 152.844 30.8241C149.334 28.6257 145.639 26.6651 141.859 24.9971C140.357 24.334 139.677 22.5786 140.34 21.0759C141.004 19.5738 142.759 18.8935 144.261 19.5565C148.3 21.3399 152.25 23.4349 156 25.7844C157.392 26.6562 157.814 28.4907 156.942 29.8828C156.377 30.7837 155.409 31.2778 154.419 31.2778Z" fill="white"/>
<path d="M168.155 172.654C167.361 172.654 166.569 172.337 165.983 171.712C164.862 170.512 164.924 168.631 166.123 167.509C183.591 151.166 193.61 128.119 193.61 104.277C193.61 80.298 183.994 57.9792 166.534 41.4311C165.342 40.3012 165.291 38.4197 166.421 37.2274C167.551 36.0357 169.433 35.9852 170.624 37.1144C189.282 54.7966 199.556 78.6484 199.556 104.276C199.556 129.758 188.851 154.388 170.186 171.851C169.612 172.388 168.883 172.654 168.155 172.654Z" fill="white"/>
<path d="M155.648 182.443C154.675 182.443 153.721 181.966 153.151 181.088C152.258 179.711 152.649 177.87 154.027 176.976C155.543 175.992 157.048 174.946 158.501 173.868C159.819 172.889 161.682 173.165 162.661 174.484C163.639 175.803 163.364 177.664 162.045 178.643C160.492 179.795 158.884 180.912 157.264 181.963C156.764 182.288 156.203 182.443 155.648 182.443Z" fill="white"/>
<path d="M101.694 138.805C106.651 141.886 109.684 146.021 109.684 150.568C109.684 160.092 96.3724 167.813 79.9515 167.813C63.5305 167.813 50.2185 160.092 50.2185 150.568C50.2185 141.044 63.5305 133.323 79.9515 133.323C84.2425 133.323 88.3213 133.85 92.0058 134.798" fill="#EDC3A6"/>
<path d="M79.9514 170.786C61.6115 170.786 47.2451 161.905 47.2451 150.568C47.2451 139.23 61.6115 130.349 79.9514 130.349C84.397 130.349 88.7024 130.877 92.7478 131.919C94.3379 132.329 95.2953 133.95 94.8856 135.54C94.4765 137.13 92.8567 138.088 91.2647 137.678C87.7033 136.761 83.8969 136.296 79.952 136.296C65.4464 136.296 53.1923 142.832 53.1923 150.568C53.1923 158.304 65.4464 164.839 79.952 164.839C94.4575 164.839 106.712 158.304 106.712 150.568C106.712 147.251 104.372 143.97 100.125 141.33C98.7307 140.463 98.3031 138.63 99.1695 137.235C100.037 135.841 101.869 135.413 103.264 136.28C109.322 140.045 112.658 145.119 112.658 150.568C112.658 161.905 98.2912 170.786 79.9514 170.786Z" fill="#333333"/>
<path d="M79.9515 157.109C68.1439 157.109 61.6122 152.268 60.9456 150.568C61.6128 148.867 68.1439 144.026 79.9515 144.026C91.759 144.026 98.2907 148.867 98.9574 150.568C98.2907 152.268 91.759 157.109 79.9515 157.109Z" fill="#F9700B"/>
<path d="M79.9513 160.082C67.9005 160.082 59.5628 155.187 58.1772 151.653L57.7515 150.568L58.1772 149.482C59.5628 145.948 67.9005 141.053 79.9513 141.053C92.002 141.053 100.34 145.948 101.725 149.482L102.151 150.568L101.725 151.653C100.34 155.187 92.0026 160.082 79.9513 160.082ZM65.2525 150.568C67.6068 152.046 72.4413 154.136 79.9519 154.136C87.4624 154.136 92.297 152.046 94.6513 150.568C92.297 149.089 87.4624 147 79.9519 147C72.4413 147 67.6068 149.089 65.2525 150.568Z" fill="#333333"/>
<path opacity="0.25" d="M118.687 200.394C106.817 196.202 95.959 189.857 86.5872 181.835C64.8286 163.222 51.0385 135.57 51.0385 104.696C51.0385 77.3175 61.885 52.4667 79.5107 34.2166C89.2215 24.161 100.99 16.1033 114.138 10.7276C119.62 8.48873 125.345 6.72081 131.257 5.46072C124.401 3.99846 117.292 3.22302 110.001 3.22302C96.4187 3.22302 83.467 5.89304 71.6273 10.7276C58.4794 16.1033 46.7111 24.161 37.0003 34.2166C19.3747 52.4667 8.52808 77.3175 8.52808 104.696C8.52808 135.57 22.3182 163.222 44.0768 181.835C53.4486 189.857 64.3071 196.202 76.1765 200.394C86.7555 204.134 98.1432 206.168 110.001 206.168C117.288 206.168 124.396 205.395 131.25 203.935C126.956 203.019 122.761 201.834 118.687 200.394Z" fill="black"/>
<path d="M110.001 208.892C90.0178 208.892 70.5956 203.229 53.8334 192.517C46.3014 187.707 39.4069 181.941 33.342 175.379C28.4813 170.139 24.1462 164.372 20.4599 158.243C14.2903 148.002 9.96895 136.879 7.61707 125.185C6.8345 121.322 6.26779 117.34 5.93359 113.353C5.68205 110.41 5.5542 107.412 5.5542 104.446C5.5542 96.8467 6.37364 89.2749 7.99052 81.9404C9.91424 73.1609 12.9851 64.6454 17.1185 56.6341C18.8954 53.1815 20.9178 49.7509 23.127 46.4399C27.377 40.0895 32.3436 34.1863 37.8906 28.8909C57.4067 10.2602 83.0157 0 110.001 0C136.985 0 162.594 10.2602 182.111 28.8903C187.657 34.1852 192.624 40.0889 196.871 46.4363C199.083 49.7503 201.105 53.1809 202.883 56.6365C207.015 64.6454 210.087 73.1609 212.011 81.944C213.627 89.2761 214.447 96.8467 214.447 104.446C214.447 107.41 214.319 110.409 214.067 113.357C213.733 117.34 213.166 121.322 212.383 125.189C210.032 136.879 205.71 148.002 199.54 158.245C195.855 164.372 191.519 170.139 186.655 175.383C180.594 181.941 173.699 187.707 166.166 192.517C149.406 203.229 129.984 208.892 110.001 208.892ZM110.001 5.94659C84.5523 5.94659 60.4014 15.6223 41.9973 33.1921C36.7637 38.1884 32.0784 43.7568 28.0721 49.7438C25.9891 52.8658 24.082 56.1019 22.405 59.3583C18.5082 66.9122 15.6134 74.9383 13.7997 83.2171C12.275 90.1354 11.502 97.2773 11.502 104.446C11.502 107.244 11.6227 110.072 11.86 112.851C12.1751 116.615 12.7091 120.367 13.4465 124.009C15.664 135.035 19.738 145.52 25.555 155.177C29.0319 160.957 33.119 166.395 37.7056 171.34C43.4292 177.532 49.9312 182.97 57.035 187.506C72.8399 197.607 91.1547 202.946 110.001 202.946C128.847 202.946 147.161 197.607 162.965 187.507C170.07 182.969 176.572 177.532 182.292 171.343C186.881 166.395 190.969 160.958 194.445 155.179C200.263 145.52 204.337 135.035 206.554 124.013C207.292 120.367 207.826 116.615 208.141 112.856C208.379 110.071 208.499 107.243 208.499 104.446C208.499 97.2755 207.726 90.1342 206.202 83.2207L206.202 83.2171C204.388 74.9395 201.493 66.9128 197.597 59.3606C195.92 56.1013 194.012 52.8658 191.927 49.7408C187.922 43.7568 183.237 38.1878 178.004 33.1921C159.599 15.6223 135.449 5.94659 110.001 5.94659Z" fill="#333333"/>
<path d="M179.635 217.027C195.5 217.027 208.36 204.166 208.36 188.302C208.36 172.437 195.5 159.577 179.635 159.577C163.771 159.577 150.91 172.437 150.91 188.302C150.91 204.166 163.771 217.027 179.635 217.027Z" fill="#F9911E"/>
<path opacity="0.25" d="M150.91 188.3C150.91 204.165 163.767 217.028 179.632 217.028C182.094 217.028 184.491 216.719 186.768 216.136C174.358 212.96 165.182 201.704 165.182 188.3C165.182 174.896 174.358 163.645 186.768 160.47C184.491 159.887 182.094 159.578 179.632 159.578C163.767 159.578 150.91 172.434 150.91 188.3Z" fill="black"/>
<path d="M194.061 205.7C193.299 205.7 192.539 205.409 191.958 204.829C190.796 203.668 190.796 201.786 191.958 200.624C196.051 196.531 197.837 190.677 196.734 184.967C196.422 183.355 197.476 181.796 199.088 181.484C200.701 181.172 202.26 182.227 202.572 183.839C204.05 191.49 201.654 199.337 196.163 204.828C195.582 205.409 194.821 205.7 194.061 205.7Z" fill="white"/>
<path d="M179.635 220C162.156 220 147.937 205.78 147.937 188.302C147.937 170.823 162.157 156.603 179.635 156.603C197.114 156.603 211.334 170.823 211.334 188.302C211.334 205.78 197.114 220 179.635 220ZM179.635 162.55C165.436 162.55 153.884 174.102 153.884 188.302C153.884 202.501 165.436 214.053 179.635 214.053C193.835 214.053 205.387 202.501 205.387 188.302C205.387 174.102 193.835 162.55 179.635 162.55Z" fill="#333333"/>
<path d="M194.718 178.027C194.521 178.027 194.325 178.009 194.135 177.968C193.945 177.932 193.76 177.873 193.582 177.801C193.403 177.724 193.231 177.635 193.065 177.528C192.904 177.415 192.749 177.296 192.613 177.159C192.06 176.606 191.744 175.839 191.744 175.054C191.744 174.269 192.06 173.508 192.613 172.955C192.749 172.812 192.904 172.687 193.065 172.58C193.231 172.473 193.403 172.384 193.582 172.307C193.76 172.235 193.945 172.176 194.135 172.14C195.104 171.944 196.133 172.259 196.823 172.955C197.376 173.508 197.691 174.269 197.691 175.054C197.691 175.839 197.376 176.6 196.823 177.159C196.27 177.712 195.503 178.027 194.718 178.027Z" fill="white"/>
<path d="M169.326 179.111C169.135 179.111 168.939 179.093 168.749 179.052C168.558 179.016 168.368 178.957 168.19 178.885C168.011 178.808 167.839 178.719 167.678 178.612C167.512 178.505 167.363 178.38 167.226 178.243C166.673 177.69 166.352 176.923 166.352 176.138C166.352 175.353 166.673 174.586 167.226 174.033C167.363 173.896 167.512 173.771 167.678 173.664C167.839 173.557 168.011 173.468 168.19 173.391C168.368 173.319 168.558 173.26 168.749 173.224C169.129 173.147 169.528 173.147 169.908 173.224C170.099 173.26 170.283 173.319 170.467 173.391C170.646 173.468 170.818 173.557 170.979 173.664C171.139 173.771 171.294 173.896 171.431 174.033C171.984 174.586 172.299 175.353 172.299 176.138C172.299 176.923 171.984 177.69 171.431 178.243C171.294 178.38 171.139 178.505 170.979 178.612C170.818 178.719 170.646 178.808 170.467 178.885C170.283 178.957 170.099 179.016 169.908 179.052C169.718 179.093 169.522 179.111 169.326 179.111Z" fill="#333333"/>
<path d="M180.029 198.539C179.839 198.539 179.643 198.515 179.453 198.479C179.262 198.444 179.072 198.384 178.894 198.307C178.715 198.235 178.543 198.14 178.382 198.033C178.216 197.926 178.067 197.801 177.93 197.665C177.377 197.112 177.056 196.344 177.056 195.565C177.056 194.781 177.377 194.013 177.93 193.46C178.067 193.324 178.216 193.199 178.382 193.092C178.543 192.985 178.715 192.89 178.894 192.818C179.072 192.741 179.262 192.687 179.453 192.646C180.416 192.455 181.445 192.771 182.135 193.46C182.688 194.013 183.003 194.781 183.003 195.565C183.003 196.344 182.688 197.112 182.135 197.665C181.581 198.218 180.814 198.539 180.029 198.539Z" fill="#333333"/>
<path d="M168.535 200.121C168.339 200.121 168.148 200.103 167.952 200.067C167.762 200.025 167.577 199.972 167.399 199.895C167.221 199.823 167.048 199.728 166.888 199.621C166.721 199.514 166.572 199.389 166.436 199.252C165.877 198.699 165.562 197.932 165.562 197.147C165.562 196.957 165.579 196.761 165.621 196.57C165.657 196.38 165.716 196.19 165.787 196.011C165.865 195.833 165.954 195.661 166.061 195.5C166.174 195.334 166.293 195.185 166.436 195.048C166.572 194.911 166.721 194.786 166.888 194.679C167.048 194.572 167.221 194.477 167.399 194.406C167.577 194.329 167.762 194.275 167.952 194.233C168.921 194.037 169.944 194.358 170.64 195.048C170.777 195.185 170.902 195.334 171.009 195.5C171.116 195.661 171.205 195.833 171.282 196.011C171.353 196.19 171.413 196.38 171.449 196.57C171.49 196.761 171.508 196.957 171.508 197.147C171.508 197.932 171.193 198.699 170.64 199.252C170.087 199.805 169.32 200.121 168.535 200.121Z" fill="#333333"/>
</svg>
