<svg width="220" height="220" viewBox="0 0 220 220" fill="none" xmlns="http://www.w3.org/2000/svg">
<path d="M152.572 161.036C159.584 156.429 165.802 150.726 170.981 144.149C181.398 130.939 187.606 114.266 187.606 96.1477C187.606 53.2964 152.863 18.554 110.012 18.554C67.1511 18.554 32.4184 53.2964 32.4184 96.1477C32.4184 114.217 38.5968 130.842 48.9459 144.033C54.1448 150.647 60.3912 156.399 67.4422 161.026" fill="#CAF5FF"/>
<path d="M67.4389 163.727C66.9313 163.727 66.4168 163.583 65.9605 163.284C58.6714 158.501 52.2322 152.585 46.8222 145.701C35.6318 131.438 29.718 114.303 29.718 96.1477C29.718 51.8736 65.7375 15.8541 110.012 15.8541C134.56 15.8541 157.437 26.8674 172.778 46.0705C173.709 47.2353 173.518 48.9346 172.354 49.8649C171.188 50.7953 169.489 50.6063 168.559 49.4405C154.249 31.5274 132.909 21.2539 110.012 21.2539C68.7149 21.2539 35.1177 54.8511 35.1177 96.1477C35.1177 113.082 40.6335 129.065 51.0691 142.366C56.1162 148.788 62.124 154.307 68.9228 158.769C70.1696 159.587 70.5168 161.26 69.6987 162.507C69.1803 163.298 68.3185 163.727 67.4389 163.727Z" fill="#333333"/>
<path d="M152.574 163.736C151.695 163.736 150.834 163.308 150.315 162.519C149.496 161.272 149.843 159.598 151.089 158.78C157.872 154.323 163.851 148.839 168.86 142.479C179.357 129.167 184.905 113.146 184.905 96.1483C184.905 83.3649 181.629 70.7468 175.43 59.659C174.702 58.3571 175.167 56.7124 176.469 55.985C177.771 55.2566 179.415 55.7231 180.143 57.0239C186.792 68.9152 190.305 82.4448 190.305 96.1483C190.305 114.371 184.356 131.548 173.101 145.822C167.733 152.638 161.324 158.517 154.054 163.293C153.597 163.593 153.083 163.736 152.574 163.736Z" fill="#333333"/>
<path d="M105.685 170.379C79.3373 170.379 57.9014 148.943 57.9014 122.596V106.052C57.9014 79.7045 79.3373 58.2691 105.685 58.2691H114.331C140.679 58.2691 162.115 79.705 162.115 106.052V122.596C162.115 148.944 140.679 170.379 114.331 170.379H105.685Z" fill="#F78181"/>
<path d="M206.007 181.998C198.371 169.916 192.992 163.364 192.992 163.364C191.32 161.106 189.486 158.956 187.512 156.944L169.187 143.822C165.795 142.214 162.244 140.883 158.537 139.874H158.53C157.358 165.653 136.088 186.197 110.007 186.197C83.932 186.197 62.6624 165.653 61.4896 139.874C57.7945 140.883 54.2253 142.214 50.8073 143.834L32.4886 156.957C30.521 158.962 28.705 161.094 27.009 163.364C27.009 163.364 21.6238 169.922 13.9999 181.998C10.5819 187.408 6.7227 193.916 2.69989 201.445H217.301C213.277 193.909 209.412 187.402 206.007 181.998Z" fill="#CE3030"/>
<path d="M196.535 181.998C196.498 181.935 196.472 181.878 196.434 181.821C191.434 173.907 185.462 166.662 178.683 160.205L161.487 143.822C160.459 143.255 159.419 142.731 158.36 142.258C143.951 172.451 92.5456 195.732 61.6531 142.258C60.5937 142.744 59.5467 143.268 58.5191 143.829L41.3231 160.205C34.5443 166.662 28.5603 173.907 23.5596 181.821C23.5342 181.878 23.4964 181.935 23.4521 181.998C20.0346 187.402 16.1754 193.916 12.1586 201.445H207.842C203.819 193.916 199.959 187.402 196.535 181.998Z" fill="#F73E3E"/>
<path d="M114.331 173.079H105.685C77.8475 173.079 55.201 150.432 55.201 122.596V106.052C55.201 78.2152 77.8475 55.5687 105.685 55.5687H114.331C142.168 55.5687 164.815 78.2152 164.815 106.052V122.596C164.815 150.432 142.168 173.079 114.331 173.079ZM105.685 60.9684C80.826 60.9684 60.6013 81.1931 60.6013 106.052V122.596C60.6013 147.455 80.826 167.679 105.685 167.679H114.331C139.191 167.679 159.415 147.454 159.415 122.596V106.052C159.415 81.1926 139.191 60.9684 114.331 60.9684H105.685Z" fill="#666666"/>
<path d="M114.096 158.74H105.92C87.3947 158.74 72.3705 147.081 72.3705 132.705V120.565C72.3705 106.189 87.3947 94.53 105.92 94.53H114.096C132.622 94.53 147.646 106.189 147.646 120.565V132.705C147.646 147.081 132.622 158.74 114.096 158.74Z" fill="#F9911E"/>
<path d="M114.096 161.44H105.92C85.9314 161.44 69.67 148.55 69.67 132.705V120.565C69.67 104.72 85.9314 91.8301 105.92 91.8301H114.096C134.085 91.8301 150.346 104.72 150.346 120.565V132.705C150.346 148.55 134.084 161.44 114.096 161.44ZM105.92 97.2304C88.9088 97.2304 75.0698 107.698 75.0698 120.565V132.706C75.0698 145.573 88.9088 156.041 105.92 156.041H114.096C131.107 156.041 144.946 145.573 144.946 132.706V120.565C144.946 107.698 131.107 97.2298 114.096 97.2298L105.92 97.2304Z" fill="#666666"/>
<path d="M217.301 204.145H2.69983C1.7511 204.145 0.87256 203.648 0.384423 202.834C-0.103173 202.021 -0.128552 201.011 0.318006 200.174C3.92503 193.413 7.76047 186.812 11.7179 180.555C18.2149 170.26 33.0496 150.507 47.4275 141.791C48.5971 141.082 50.1128 141.36 50.9546 142.439C65.2661 160.766 86.7916 171.278 110.013 171.278C133.185 171.278 154.677 160.809 168.978 142.555C169.827 141.472 171.353 141.202 172.523 141.924C187.296 151.054 202.379 171.188 208.29 180.558C212.304 186.928 216.136 193.528 219.682 200.175C220.128 201.012 220.103 202.021 219.615 202.835C219.128 203.647 218.249 204.145 217.301 204.145ZM7.23723 198.746H212.762C209.897 193.56 206.866 188.427 203.722 183.437C197.457 173.506 184.066 156.363 171.669 147.815C156.358 166.189 134.026 176.677 110.013 176.677C85.9395 176.677 63.5679 166.142 48.245 147.682C35.3434 156.429 22.2248 174.024 16.2829 183.439C13.1737 188.355 10.1407 193.488 7.23723 198.746Z" fill="#333333"/>
<path d="M61.4279 192.691C60.6768 192.691 59.9301 192.379 59.396 191.77L30.9588 159.304C29.9761 158.182 30.0889 156.476 31.2104 155.494C32.3325 154.511 34.0383 154.624 35.0205 155.746L63.4577 188.212C64.4405 189.333 64.3276 191.039 63.2061 192.022C62.6936 192.47 62.0592 192.691 61.4279 192.691Z" fill="#333333"/>
<path d="M148.534 204.145C147.903 204.145 147.269 203.925 146.756 203.477C145.635 202.495 145.521 200.789 146.503 199.667L166.701 176.6C167.683 175.478 169.389 175.366 170.511 176.347C171.633 177.33 171.746 179.035 170.764 180.157L150.566 203.224C150.033 203.833 149.285 204.145 148.534 204.145Z" fill="#333333"/>
<path d="M178.443 169.993C177.812 169.993 177.177 169.773 176.665 169.324C175.544 168.342 175.43 166.636 176.413 165.514L184.865 155.862C185.848 154.74 187.554 154.627 188.676 155.61C189.797 156.592 189.91 158.298 188.928 159.42L180.475 169.072C179.941 169.681 179.194 169.993 178.443 169.993Z" fill="#333333"/>
<path d="M64.6602 95.8804C64.6602 95.8804 58.0066 72.5881 61.7303 50.6122C61.7303 50.6122 77.916 54.4299 94.0213 68.5259L64.6602 95.8804Z" fill="#F9911E"/>
<path d="M155.356 95.8804C155.356 95.8804 162.01 72.5881 158.286 50.6122C158.286 50.6122 142.101 54.4299 125.995 68.5259L155.356 95.8804Z" fill="#F9911E"/>
<path d="M64.6597 98.5806C64.4183 98.5806 64.1753 98.5482 63.9361 98.4818C63.0306 98.2302 62.3216 97.5255 62.0635 96.6221C61.7849 95.6469 55.2852 72.4842 59.0677 50.1617C59.1919 49.4263 59.6158 48.775 60.2373 48.363C60.8588 47.9505 61.6256 47.8139 62.3491 47.9851C63.0365 48.1471 79.3772 52.1218 95.7984 66.4948C96.3729 66.9981 96.7082 67.7211 96.7196 68.4846C96.7314 69.2487 96.4193 69.9814 95.8605 70.502L66.4994 97.8565C65.994 98.3279 65.3336 98.5806 64.6597 98.5806ZM63.9464 54.0938C62.1051 68.7438 64.6392 83.6055 66.197 90.7591L89.9542 68.625C79.2568 59.9098 68.8121 55.7213 63.9464 54.0938Z" fill="#666666"/>
<path d="M155.356 98.5803C154.683 98.5803 154.022 98.3276 153.516 97.8556L124.155 70.5011C123.596 69.9806 123.284 69.2478 123.296 68.4838C123.307 67.7202 123.643 66.9972 124.217 66.4939C140.638 52.1209 156.979 48.1462 157.666 47.9842C158.392 47.813 159.157 47.9502 159.778 48.3622C160.4 48.7742 160.824 49.4254 160.948 50.1608C164.731 72.4833 158.231 95.6466 157.952 96.6218C157.694 97.5252 156.985 98.2298 156.079 98.4815C155.841 98.5479 155.598 98.5803 155.356 98.5803ZM130.062 68.6247L153.818 90.7566C155.374 83.5965 157.907 68.7224 156.07 54.0929C151.206 55.7204 140.759 59.9095 130.062 68.6247Z" fill="#666666"/>
<path d="M112.692 136.596H107.324C104.42 136.596 101.95 134.478 101.507 131.608L100.108 122.556H119.908L118.509 131.608C118.066 134.478 115.596 136.596 112.692 136.596Z" fill="#666666"/>
<path d="M112.692 140.215H107.325C103.059 140.215 99.4902 137.155 98.839 132.94L97.4404 123.888C97.32 123.109 97.5457 122.316 98.0592 121.718C98.5728 121.12 99.3212 120.775 100.109 120.775H119.908C120.696 120.775 121.445 121.12 121.958 121.718C122.471 122.316 122.697 123.109 122.577 123.888L121.178 132.94C120.526 137.155 116.957 140.215 112.692 140.215ZM103.258 126.176L104.176 132.116C104.417 133.68 105.741 134.815 107.325 134.815H112.692C114.275 134.815 115.599 133.68 115.841 132.115L116.759 126.176H103.258Z" fill="#666666"/>
<path d="M99.9594 159.953L96.1871 156.09L101.13 151.263C105.056 147.43 107.308 142.084 107.308 136.596H112.708C112.708 143.529 109.863 150.283 104.902 155.126L99.9594 159.953Z" fill="#666666"/>
<path d="M120.057 159.953L115.114 155.126C110.153 150.282 107.308 143.528 107.308 136.596H112.708C112.708 142.083 114.96 147.429 118.886 151.263L123.829 156.09L120.057 159.953Z" fill="#666666"/>
<path d="M119.906 125.257C119.501 125.257 119.088 125.165 118.701 124.971C117.367 124.304 116.827 122.683 117.494 121.349L121.994 112.349C122.451 111.434 123.386 110.857 124.408 110.857H135.928C137.419 110.857 138.628 112.066 138.628 113.556C138.628 115.047 137.419 116.256 135.928 116.256H126.077L122.324 123.763C121.849 124.71 120.896 125.257 119.906 125.257Z" fill="#666666"/>
<path d="M100.111 125.257C99.1208 125.257 98.1672 124.71 97.6942 123.764L93.9409 116.257H84.0896C82.5982 116.257 81.3897 115.048 81.3897 113.557C81.3897 112.067 82.5982 110.858 84.0896 110.858H95.6094C96.6321 110.858 97.5668 111.435 98.0242 112.35L102.524 121.35C103.191 122.684 102.65 124.305 101.317 124.972C100.929 125.165 100.516 125.257 100.111 125.257Z" fill="#666666"/>
<path d="M89.3096 119.148C87.8181 119.148 86.6097 117.939 86.6097 116.449V113.557C86.6097 112.066 87.8181 110.857 89.3096 110.857C90.801 110.857 92.0094 112.066 92.0094 113.557V116.449C92.0094 117.94 90.8004 119.148 89.3096 119.148Z" fill="#666666"/>
<path d="M130.708 119.148C129.216 119.148 128.008 117.939 128.008 116.449V113.557C128.008 112.066 129.216 110.857 130.708 110.857C132.199 110.857 133.408 112.066 133.408 113.557V116.449C133.408 117.94 132.199 119.148 130.708 119.148Z" fill="#666666"/>
<path d="M114.43 131.209C114.251 131.209 114.079 131.193 113.9 131.155C113.728 131.123 113.56 131.069 113.398 130.999C113.236 130.934 113.08 130.853 112.934 130.756C112.783 130.653 112.648 130.54 112.524 130.416C112.399 130.291 112.286 130.156 112.183 130.005C112.086 129.859 112.005 129.703 111.935 129.541C111.87 129.379 111.816 129.206 111.784 129.033C111.746 128.86 111.73 128.682 111.73 128.509C111.73 127.797 112.015 127.1 112.524 126.598C112.647 126.474 112.782 126.36 112.934 126.263C113.08 126.166 113.237 126.085 113.398 126.015C113.56 125.95 113.727 125.896 113.9 125.864C114.251 125.793 114.608 125.793 114.959 125.864C115.132 125.896 115.299 125.95 115.461 126.015C115.629 126.085 115.786 126.166 115.931 126.263C116.077 126.36 116.217 126.474 116.342 126.598C116.844 127.1 117.13 127.797 117.13 128.509C117.13 128.682 117.114 128.86 117.076 129.033C117.043 129.206 116.989 129.379 116.924 129.541C116.854 129.703 116.774 129.859 116.676 130.005C116.579 130.156 116.465 130.291 116.342 130.416C116.218 130.54 116.077 130.653 115.931 130.756C115.785 130.853 115.628 130.934 115.461 130.999C115.299 131.069 115.132 131.123 114.959 131.155C114.786 131.193 114.608 131.209 114.43 131.209Z" fill="white"/>
<path d="M141.151 80.6105L135.826 79.7201C138.794 61.9695 155.943 48.9928 156.671 48.4485L159.9 52.7764L158.286 50.6128L159.902 52.7748C159.742 52.8958 143.758 65.0241 141.151 80.6105Z" fill="#666666"/>
<path d="M92.7604 34.3563C91.5714 34.3563 90.4818 33.5642 90.1562 32.3617C89.7663 30.9221 90.6173 29.4399 92.0569 29.05C97.8805 27.4727 103.922 26.673 110.012 26.673C113.727 26.673 117.457 26.9733 121.097 27.5656C122.569 27.8048 123.568 29.1926 123.328 30.664C123.089 32.1354 121.699 33.1349 120.23 32.8952C116.876 32.3492 113.438 32.0728 110.012 32.0728C104.398 32.0728 98.8325 32.8093 93.4678 34.2624C93.2313 34.3255 92.9943 34.3563 92.7604 34.3563Z" fill="white"/>
<path d="M175.823 97.8832C174.331 97.8832 173.123 96.6742 173.123 95.1833C173.123 82.2013 169.212 69.7316 161.812 59.1233C154.578 48.7515 144.548 40.8646 132.807 36.3143C131.416 35.7754 130.726 34.2116 131.265 32.8212C131.804 31.4313 133.368 30.7406 134.758 31.2795C147.504 36.2187 158.391 44.7789 166.241 56.0346C174.276 67.5534 178.523 81.0911 178.523 95.1833C178.522 96.6742 177.314 97.8832 175.823 97.8832Z" fill="white"/>
<path d="M78.8653 80.6105C76.2513 64.9761 60.2761 52.8963 60.1152 52.7764L63.3443 48.4485C64.0732 48.9923 81.2223 61.9695 84.1905 79.7201L78.8653 80.6105Z" fill="#666666"/>
</svg>
