<svg width="85" height="78" viewBox="0 0 85 78" fill="none" xmlns="http://www.w3.org/2000/svg">
<path d="M15.8114 62.8498L63.4883 76.7455C69.0498 78.3665 74.8724 75.172 76.4933 69.6105L84.5783 41.8705C86.1992 36.309 83.0048 30.4864 77.4432 28.8655L29.7663 14.9697C24.2048 13.3488 18.3822 16.5433 16.7613 22.1048L8.6763 49.8448C7.05537 55.4063 10.2498 61.2288 15.8114 62.8498Z" fill="black"/>
<rect x="69.3175" y="73.5452" width="68.4431" height="47.6766" rx="9" transform="rotate(-165 69.3175 73.5452)" fill="#44E2F8" stroke="black" stroke-width="2" stroke-linejoin="round"/>
<rect x="65.4693" y="64.6836" width="68.4431" height="47.6766" rx="9" transform="rotate(-163.751 65.4693 64.6836)" fill="#F8D044" stroke="black" stroke-width="2" stroke-linejoin="round"/>
<rect x="27.4581" y="20.4414" width="13.5547" height="9.94336" rx="3" transform="rotate(-163.751 27.4581 20.4414)" fill="white" stroke="black" stroke-width="2" stroke-linejoin="round"/>
<path d="M67.9841 52.4807L71.1794 41.5177L7.39038 22.926L4.19515 33.889L67.9841 52.4807Z" fill="black"/>
</svg>
