<svg width="220" height="220" viewBox="0 0 220 220" fill="none" xmlns="http://www.w3.org/2000/svg">
<g clip-path="url(#clip0_11_279)">
<path d="M191.03 186.321C195.659 186.321 199.411 182.569 199.411 177.94C199.411 173.31 195.659 169.558 191.03 169.558C186.4 169.558 182.648 173.31 182.648 177.94C182.648 182.569 186.4 186.321 191.03 186.321Z" fill="#20505B"/>
<path d="M59.9136 95.2801L158.152 128.225C149.056 155.352 119.692 169.967 92.5588 160.868C65.4313 151.772 50.8169 122.407 59.9136 95.2801Z" fill="#20505B"/>
<path d="M109.535 148.889C129.806 148.889 146.239 132.456 146.239 112.185C146.239 91.9137 129.806 75.4808 109.535 75.4808C89.2641 75.4808 72.8312 91.9137 72.8312 112.185C72.8312 132.456 89.2641 148.889 109.535 148.889Z" fill="#154047"/>
<path d="M109.535 132.282C120.634 132.282 129.632 123.284 129.632 112.185C129.632 101.085 120.634 92.0876 109.535 92.0876C98.4357 92.0876 89.4379 101.085 89.4379 112.185C89.4379 123.284 98.4357 132.282 109.535 132.282Z" fill="#092A2D"/>
<path d="M160.714 108.263L69.9044 77.806C83.2497 62.4357 105.009 55.7539 125.503 62.629C146.003 69.506 159.34 87.9524 160.714 108.263Z" fill="#20505B"/>
<path d="M158.153 128.225L177.615 134.749C164.911 172.623 123.91 193.029 86.0344 180.331C48.159 167.632 27.7576 126.633 40.4506 88.7556L59.9132 95.2801C50.8165 122.408 65.4314 151.772 92.5589 160.868C119.691 169.967 149.056 155.352 158.153 128.225Z" fill="#FCBC1D"/>
<path d="M215.801 141.197C217.42 141.982 217.799 143.556 217.362 144.865C216.881 146.305 215.407 147.426 213.523 146.791L177.615 134.75L158.153 128.225L59.9138 95.2806L40.4513 88.7561L40.4532 88.7507L4.54504 76.7085C0.955652 75.5099 2.3845 70.1337 6.09716 70.8723C14.796 72.5984 23.6186 72.0867 31.8397 69.5716C40.0696 67.0655 47.6961 62.562 53.9913 56.318C74.2887 36.1942 104.921 27.9909 133.866 37.7005C162.813 47.4047 182.309 72.4175 186.368 100.713C188.883 118.264 199.837 133.47 215.801 141.197ZM69.9045 77.806L160.714 108.263C159.34 87.9525 146.003 69.5061 125.504 62.629C105.009 55.754 83.2493 62.4357 69.9045 77.806Z" fill="#EAC16E"/>
<path d="M109.029 194.37C100.284 194.37 91.4554 192.978 82.8591 190.107L82.7596 190.074C73.0835 186.83 64.2136 181.903 56.4037 175.434C55.3555 174.565 55.209 173.011 56.0778 171.963C56.946 170.915 58.5001 170.768 59.5488 171.637C66.8898 177.718 75.2287 182.349 84.3339 185.401L84.4142 185.428C113.956 195.294 146.437 186.596 167.17 163.271C168.075 162.254 169.632 162.162 170.651 163.066C171.668 163.971 171.76 165.529 170.855 166.547C154.843 184.561 132.237 194.37 109.029 194.37ZM48.9877 167.276C48.3039 167.276 47.624 166.994 47.1368 166.44C31.3411 148.503 24.0371 124.698 27.0979 101.131C27.2729 99.7807 28.512 98.8296 29.8604 99.0036C31.2104 99.1791 32.163 100.416 31.9875 101.766C29.1095 123.926 35.9797 146.311 50.8367 163.183C51.7365 164.204 51.6379 165.762 50.6158 166.662C50.1479 167.074 49.5666 167.276 48.9877 167.276ZM175.911 158.398C175.444 158.398 174.972 158.266 174.554 157.989C173.418 157.238 173.106 155.709 173.857 154.573C175.53 152.041 177.07 149.381 178.434 146.667C179.045 145.451 180.527 144.96 181.743 145.571C182.96 146.182 183.45 147.664 182.839 148.88C181.389 151.768 179.75 154.598 177.97 157.292C177.495 158.009 176.711 158.398 175.911 158.398ZM209.865 130.581C209.305 130.581 208.743 130.392 208.28 130.003C199.253 122.417 193.351 111.745 191.661 99.9522C191.468 98.6042 192.404 97.3553 193.752 97.1621C195.102 96.9683 196.348 97.9056 196.541 99.2526C198.059 109.844 203.354 119.424 211.452 126.228C212.494 127.103 212.629 128.659 211.753 129.701C211.266 130.282 210.568 130.581 209.865 130.581ZM191.354 89.5987C190.293 89.5987 189.313 88.9084 188.993 87.84C185.808 77.2045 180.625 67.4505 173.589 58.8488C168.353 52.4471 162.207 46.8776 155.323 42.2962C154.189 41.5418 153.882 40.0114 154.637 38.8779C155.39 37.7449 156.919 37.4367 158.055 38.1911C165.348 43.0446 171.858 48.9449 177.405 55.7268C184.855 64.8344 190.343 75.1628 193.717 86.425C194.107 87.7291 193.366 89.1032 192.062 89.4937C191.826 89.5652 191.588 89.5987 191.354 89.5987ZM29.5523 64.5662C28.4957 64.5662 27.5185 63.8813 27.195 62.8183C26.7986 61.5157 27.5328 60.1381 28.8354 59.7417C32.1743 58.725 35.4028 57.2908 38.4301 55.4793C39.5991 54.7802 41.1123 55.1608 41.8114 56.3288C42.5106 57.4969 42.1299 59.011 40.9619 59.7101C37.5904 61.7277 33.9937 63.3252 30.2716 64.4582C30.032 64.5312 29.7899 64.5662 29.5523 64.5662ZM48.4888 53.2359C47.8542 53.2359 47.2202 52.9924 46.738 52.5067C45.7795 51.5399 45.7859 49.9789 46.7528 49.0204C58.2097 37.6615 72.5633 29.6436 88.2615 25.8338C104.37 21.9239 121.231 22.6453 137.022 27.9189L137.135 27.9569C139.972 28.908 142.791 30.0144 145.511 31.2445C146.752 31.8056 147.302 33.266 146.741 34.5065C146.181 35.747 144.721 36.2992 143.479 35.7372C140.91 34.5755 138.248 33.5303 135.566 32.6315L135.465 32.5979C120.55 27.6162 104.631 26.9348 89.4241 30.6257C74.5986 34.224 61.0433 41.7957 50.2243 52.5225C49.7436 52.9978 49.1159 53.2359 48.4888 53.2359Z" fill="#333333"/>
<path d="M108.97 186.554C101.103 186.554 93.1097 185.303 85.2505 182.668C46.9342 169.822 25.8599 128.763 37.3696 90.3161L3.76097 79.046C0.932355 78.1009 -0.566511 75.3196 0.199192 72.4328C0.965882 69.5445 3.64905 67.8716 6.57775 68.4544C14.7057 70.0671 23.1925 69.6377 31.1177 67.2139C39.0356 64.8029 46.3436 60.43 52.2547 54.5672C62.7009 44.2107 75.7884 36.8998 90.1035 33.4258C104.82 29.8541 120.224 30.5237 134.649 35.3635C149.076 40.1998 161.77 48.9524 171.357 60.6741C180.684 72.0773 186.718 85.8013 188.808 100.362C191.222 117.204 201.714 131.64 216.875 138.978C219.435 140.219 220.597 142.961 219.7 145.645C219.226 147.065 218.213 148.248 216.92 148.891C215.648 149.524 214.162 149.608 212.735 149.126L197.113 143.888C195.822 143.455 195.127 142.058 195.56 140.766C195.993 139.475 197.391 138.781 198.681 139.213L214.306 144.453C214.585 144.547 214.69 144.493 214.724 144.476C214.847 144.415 214.964 144.261 215.023 144.084C215.174 143.632 214.903 143.501 214.724 143.415C198.087 135.362 186.573 119.529 183.927 101.062C181.965 87.3904 176.299 74.5041 167.541 63.7961C158.542 52.7947 146.627 44.579 133.082 40.038C119.538 35.4946 105.078 34.865 91.2666 38.2172C77.8242 41.4797 65.5345 48.3444 55.7263 58.0683C49.2481 64.4937 41.2361 69.2871 32.5569 71.9299C23.8586 74.5904 14.5425 75.0617 5.61631 73.2907C5.42156 73.2517 5.0996 73.1881 4.9645 73.6979C4.8299 74.2053 5.14003 74.3088 5.32541 74.3705L41.2356 86.4127C42.5007 86.8372 43.1984 88.1911 42.8099 89.4681C42.8035 89.4898 42.7946 89.5174 42.7872 89.5391C30.5458 126.069 50.2973 165.75 86.8169 177.994C123.343 190.241 163.025 170.489 175.277 133.965C175.71 132.674 177.109 131.98 178.398 132.412L184.393 134.423C185.684 134.856 186.379 136.253 185.946 137.544C185.513 138.836 184.116 139.53 182.825 139.098L179.129 137.858C168.008 167.751 139.459 186.553 108.97 186.554Z" fill="#333333"/>
<path d="M109.086 166.05C103.277 166.05 97.4446 165.107 91.775 163.205C78.0308 158.596 66.9042 148.911 60.4453 135.934C53.9864 122.957 52.9672 108.241 57.5762 94.4961C58.0091 93.2053 59.4069 92.5101 60.6977 92.9425C61.9885 93.3754 62.6842 94.7727 62.2513 96.064C53.6018 121.859 67.5496 149.881 93.3434 158.531C105.841 162.722 119.222 161.796 131.021 155.924C142.82 150.052 151.625 139.936 155.816 127.441C156.248 126.15 157.646 125.455 158.937 125.887C160.227 126.32 160.923 127.717 160.49 129.009C155.881 142.753 146.196 153.879 133.218 160.338C125.592 164.133 117.363 166.05 109.086 166.05Z" fill="#333333"/>
<path d="M160.714 110.728C160.45 110.728 160.186 110.686 159.93 110.6L69.1205 80.1435C68.3405 79.8817 67.7424 79.2482 67.526 78.4544C67.31 77.6606 67.5038 76.811 68.0432 76.1898C82.5181 59.5184 105.381 53.2778 126.287 60.2915C139.584 64.7521 150.502 74.0401 157.031 86.4452C157.665 87.6497 157.203 89.1407 155.998 89.7747C154.793 90.4088 153.302 89.9463 152.667 88.7413C146.732 77.4643 136.807 69.0209 124.719 64.9656C106.899 58.9873 87.521 63.5998 74.3241 76.6878L157.858 104.704C157.448 101.873 156.791 99.0746 155.894 96.3476C155.469 95.0543 156.172 93.6609 157.466 93.2355C158.759 92.809 160.152 93.5135 160.578 94.8068C161.995 99.115 162.869 103.586 163.173 108.095C163.229 108.916 162.872 109.711 162.22 110.213C161.782 110.552 161.251 110.728 160.714 110.728Z" fill="#333333"/>
<path d="M177.616 137.215C177.356 137.215 177.091 137.173 176.832 137.086L132.641 122.269C131.35 121.836 130.655 120.439 131.088 119.148C131.521 117.857 132.919 117.162 134.209 117.594L178.398 132.411C179.689 132.844 180.385 134.241 179.952 135.532C179.607 136.564 178.646 137.215 177.616 137.215Z" fill="#333333"/>
<path d="M122.069 118.589C121.81 118.589 121.545 118.548 121.285 118.461L31.3426 88.3005C30.0518 87.8676 29.3561 86.4703 29.7895 85.1795C30.2224 83.8887 31.6206 83.1931 32.9105 83.6264L122.853 113.787C124.144 114.22 124.839 115.617 124.406 116.908C124.06 117.939 123.1 118.589 122.069 118.589Z" fill="#333333"/>
<path d="M25.8586 29.8857C24.4972 29.8857 23.3933 28.7817 23.3933 27.4204V16.8529C23.3933 15.4916 24.4972 14.3877 25.8586 14.3877C27.2199 14.3877 28.3238 15.4916 28.3238 16.8529V27.4209C28.3238 28.7817 27.2199 29.8857 25.8586 29.8857Z" fill="#FCBC1D"/>
<path d="M31.1424 24.6016H20.5744C19.2131 24.6016 18.1092 23.4977 18.1092 22.1364C18.1092 20.7751 19.2131 19.6711 20.5744 19.6711H31.1419C32.5032 19.6711 33.6072 20.7751 33.6072 22.1364C33.6072 23.4977 32.5037 24.6016 31.1424 24.6016Z" fill="#FCBC1D"/>
<path d="M158.488 205.612C157.127 205.612 156.023 204.508 156.023 203.147V192.58C156.023 191.218 157.127 190.114 158.488 190.114C159.85 190.114 160.954 191.218 160.954 192.58V203.147C160.954 204.509 159.85 205.612 158.488 205.612Z" fill="#FCBC1D"/>
<path d="M163.772 200.329H153.204C151.843 200.329 150.739 199.225 150.739 197.864C150.739 196.502 151.843 195.398 153.204 195.398H163.772C165.134 195.398 166.238 196.502 166.238 197.864C166.238 199.225 165.134 200.329 163.772 200.329Z" fill="#FCBC1D"/>
<path d="M186.567 130.161C186.306 130.161 186.041 130.119 185.784 130.033L165.746 123.313C164.455 122.88 163.76 121.483 164.193 120.192C164.626 118.902 166.024 118.206 167.314 118.639L181.144 123.277C178.69 118.521 176.828 113.478 175.588 108.219C175.276 106.893 176.098 105.566 177.423 105.254C178.751 104.941 180.076 105.763 180.388 107.088C182.01 113.972 184.783 120.452 188.632 126.349C189.206 127.228 189.16 128.373 188.518 129.204C188.042 129.819 187.316 130.161 186.567 130.161Z" fill="white"/>
<path d="M176.253 100.608C175.104 100.608 174.075 99.8004 173.839 98.6304C171.538 87.2355 166.294 76.6449 158.674 68.0047C151.03 59.3374 141.133 52.7922 130.052 49.0766L129.976 49.0514C113.942 43.696 96.7287 44.6017 81.5034 51.6005C80.2663 52.1685 78.8025 51.6271 78.234 50.3901C77.6655 49.153 78.2074 47.6891 79.4444 47.1207C95.8121 39.5967 114.311 38.6215 131.535 44.3739L131.614 44.4C143.521 48.3932 154.155 55.4275 162.372 64.7437C170.564 74.0322 176.2 85.4123 178.673 97.6546C178.942 98.9893 178.079 100.289 176.744 100.559C176.579 100.592 176.414 100.608 176.253 100.608Z" fill="white"/>
<path d="M47.0421 75.8624C46.1793 75.8624 45.3416 75.4088 44.8895 74.6022C44.2234 73.4144 44.6464 71.9121 45.8342 71.246C50.6251 68.5599 55.0433 65.2259 58.9665 61.3372C62.478 57.8558 66.345 54.7363 70.46 52.0664C71.6028 51.3259 73.1293 51.6503 73.8699 52.7927C74.6109 53.9346 74.286 55.4615 73.1436 56.2026C69.3116 58.689 65.7094 61.5951 62.4376 64.8393C58.1988 69.0406 53.4242 72.6433 48.2452 75.5473C47.8645 75.7608 47.4504 75.8624 47.0421 75.8624Z" fill="white"/>
<path d="M60.0596 87.7375C59.7998 87.7375 59.5355 87.6961 59.2756 87.6088L36.7739 80.0632C35.4831 79.6303 34.7874 78.233 35.2203 76.9417C35.6532 75.6509 37.05 74.9557 38.3418 75.3881L60.843 82.9337C62.1338 83.3666 62.8295 84.7639 62.3966 86.0547C62.0515 87.0862 61.0901 87.7375 60.0596 87.7375Z" fill="white"/>
<path d="M74.5231 92.5876C74.2633 92.5876 73.999 92.5462 73.7392 92.4589L67.3108 90.3033C66.02 89.8704 65.3243 88.4731 65.7572 87.1818C66.1901 85.891 67.5874 85.1953 68.8787 85.6282L75.3071 87.7838C76.5979 88.2167 77.2936 89.614 76.8607 90.9053C76.5146 91.9368 75.5536 92.5876 74.5231 92.5876Z" fill="white"/>
<path d="M153.271 118.996C153.012 118.996 152.747 118.954 152.487 118.867L83.3808 95.6928C82.09 95.2599 81.3944 93.8626 81.8273 92.5713C82.2601 91.2805 83.6574 90.5848 84.9487 91.0177L154.055 114.192C155.346 114.625 156.041 116.022 155.608 117.313C155.262 118.344 154.302 118.996 153.271 118.996Z" fill="white"/>
<path d="M63.1914 154.958C62.51 154.958 61.8321 154.678 61.3449 154.127C49.1878 140.402 43.4793 122.15 45.6837 104.052C45.8484 102.7 47.0786 101.74 48.429 101.903C49.7805 102.067 50.7429 103.297 50.5782 104.648C48.5444 121.346 53.8141 138.189 65.0354 150.858C65.9382 151.878 65.844 153.436 64.8249 154.338C64.356 154.754 63.7717 154.958 63.1914 154.958Z" fill="white"/>
<path d="M75.1691 165.374C74.7017 165.374 74.2288 165.242 73.8102 164.964C72.6545 164.199 71.5107 163.386 70.4107 162.548C69.3274 161.723 69.1179 160.177 69.9433 159.093C70.7681 158.01 72.3153 157.801 73.398 158.626C74.4122 159.398 75.4669 160.147 76.5328 160.854C77.6678 161.605 77.9789 163.135 77.227 164.27C76.7527 164.986 75.9683 165.374 75.1691 165.374Z" fill="white"/>
<path d="M109.032 175.566C102.27 175.566 95.4527 174.487 88.8237 172.273L88.7546 172.25C86.9323 171.639 85.1283 170.943 83.3834 170.179C82.1365 169.633 81.568 168.179 82.1143 166.932C82.6611 165.685 84.1151 165.117 85.3615 165.663C86.9723 166.369 88.6383 167.011 90.3132 167.573L90.3837 167.596C111.104 174.515 133.839 169.419 149.717 154.293C150.704 153.354 152.263 153.392 153.202 154.378C154.141 155.364 154.103 156.924 153.118 157.863C140.994 169.413 125.175 175.566 109.032 175.566Z" fill="white"/>
<path d="M158.59 150.373C158.086 150.373 157.576 150.218 157.137 149.898C156.038 149.094 155.798 147.552 156.601 146.453C157.991 144.551 159.278 142.546 160.426 140.492C161.09 139.303 162.59 138.878 163.781 139.543C164.969 140.207 165.394 141.709 164.73 142.897C163.485 145.125 162.09 147.301 160.583 149.362C160.1 150.022 159.35 150.373 158.59 150.373Z" fill="white"/>
<path d="M190.631 141.609C190.468 141.609 190.31 141.594 190.147 141.564C189.99 141.53 189.837 141.481 189.689 141.422C189.54 141.357 189.398 141.283 189.26 141.195C189.126 141.106 189.003 141.002 188.885 140.889C188.426 140.43 188.165 139.794 188.165 139.144C188.165 138.986 188.18 138.823 188.215 138.665C188.244 138.508 188.293 138.35 188.353 138.202C188.417 138.054 188.49 137.911 188.579 137.778C188.668 137.64 188.772 137.517 188.885 137.403C189.003 137.29 189.126 137.186 189.26 137.097C189.398 137.004 189.54 136.93 189.689 136.871C189.837 136.807 189.989 136.757 190.147 136.728C190.468 136.664 190.793 136.664 191.114 136.728C191.271 136.757 191.424 136.807 191.572 136.871C191.721 136.93 191.864 137.004 192.001 137.097C192.135 137.186 192.263 137.29 192.376 137.403C192.489 137.517 192.593 137.64 192.682 137.778C192.771 137.911 192.844 138.054 192.908 138.202C192.968 138.35 193.017 138.508 193.046 138.665C193.081 138.823 193.096 138.986 193.096 139.144C193.096 139.794 192.835 140.43 192.376 140.889C191.912 141.348 191.276 141.609 190.631 141.609Z" fill="#333333"/>
<path d="M190.444 131.457C190.185 131.457 189.922 131.416 189.663 131.329L185.786 130.034C184.495 129.603 183.798 128.206 184.229 126.915C184.661 125.623 186.059 124.928 187.348 125.357L191.225 126.652C192.516 127.083 193.213 128.48 192.782 129.771C192.437 130.804 191.476 131.457 190.444 131.457Z" fill="white"/>
<path d="M36.5956 79.9009C36.3367 79.9009 36.0734 79.86 35.8146 79.7733L31.9382 78.4785C30.6469 78.0471 29.9498 76.6503 30.3807 75.359C30.8126 74.0677 32.2094 73.3715 33.5002 73.8015L37.3765 75.0962C38.6678 75.5276 39.365 76.9244 38.9341 78.2157C38.5885 79.2482 37.627 79.9009 36.5956 79.9009Z" fill="white"/>
<path d="M191.03 188.787C185.048 188.787 180.183 183.921 180.183 177.94C180.183 171.958 185.048 167.093 191.03 167.093C197.011 167.093 201.877 171.958 201.877 177.94C201.877 183.921 197.011 188.787 191.03 188.787ZM191.03 172.023C187.767 172.023 185.113 174.677 185.113 177.94C185.113 181.202 187.767 183.856 191.03 183.856C194.292 183.856 196.946 181.202 196.946 177.94C196.946 174.677 194.292 172.023 191.03 172.023Z" fill="#333333"/>
</g>
<defs>
<clipPath id="clip0_11_279">
<rect width="220" height="220" fill="white"/>
</clipPath>
</defs>
</svg>
