<svg width="220" height="220" viewBox="0 0 220 220" fill="none" xmlns="http://www.w3.org/2000/svg">
<g clip-path="url(#clip0_11_1521)">
<path d="M132.166 57.533C135.589 57.533 138.364 54.7583 138.364 51.3355C138.364 47.9128 135.589 45.1381 132.166 45.1381C128.743 45.1381 125.969 47.9128 125.969 51.3355C125.969 54.7583 128.743 57.533 132.166 57.533Z" fill="#20CE55"/>
<path d="M109.999 157.578C136.276 157.578 157.578 136.277 157.578 110C157.578 83.7232 136.276 62.4216 109.999 62.4216C83.7225 62.4216 62.4209 83.7232 62.4209 110C62.4209 136.277 83.7225 157.578 109.999 157.578Z" fill="#F9911E"/>
<path d="M109.999 148.993C131.535 148.993 148.992 131.535 148.992 110C148.992 88.4649 131.535 71.0072 109.999 71.0072C88.4643 71.0072 71.0066 88.4649 71.0066 110C71.0066 131.535 88.4643 148.993 109.999 148.993Z" fill="#F24125"/>
<path d="M110 220C49.3456 220 0 170.654 0 110C0 49.3466 49.3456 0.00100708 110 0.00100708C138.96 0.00100708 166.317 11.2041 187.032 31.5472C188.151 32.6464 188.167 34.4449 187.068 35.5639C185.969 36.683 184.172 36.7001 183.052 35.6003C163.406 16.307 137.462 5.68153 110 5.68153C52.4778 5.68153 5.68053 52.4788 5.68053 110C5.68053 167.522 52.4778 214.32 110 214.32C167.522 214.32 214.319 167.523 214.319 110C214.319 91.0468 209.162 72.476 199.405 56.2956C198.595 54.9522 199.027 53.2065 200.37 52.3965C201.714 51.5859 203.459 52.0187 204.269 53.3622C214.56 70.4282 220 90.0135 220 110.001C219.999 170.654 170.654 220 110 220Z" fill="#333333"/>
<path d="M173.826 168.061C173.167 168.061 172.505 167.833 171.968 167.367C170.782 166.34 170.654 164.546 171.681 163.361C184.523 148.536 191.597 129.585 191.597 110C191.597 65.0074 154.993 28.4032 110 28.4032C90.3629 28.4032 71.3746 35.509 56.5325 48.4112C55.3487 49.4399 53.5548 49.3149 52.5255 48.1311C51.4962 46.9473 51.6217 45.1534 52.8055 44.1241C68.6815 30.3232 88.9933 22.7227 110 22.7227C158.125 22.7227 197.277 61.8752 197.277 110C197.277 130.952 189.712 151.223 175.975 167.08C175.413 167.728 174.622 168.061 173.826 168.061Z" fill="#333333"/>
<path d="M110 197.277C61.8745 197.277 22.722 158.124 22.722 110C22.722 94.2127 27.0018 78.7333 35.0982 65.2358C35.9048 63.89 37.6493 63.4538 38.9945 64.261C40.3396 65.0676 40.7759 66.8127 39.9693 68.1573C32.4022 80.7731 28.4026 95.2414 28.4026 110C28.4026 154.993 65.0068 191.597 110 191.597C130.142 191.597 149.497 184.167 164.502 170.674C165.669 169.626 167.464 169.721 168.513 170.887C169.563 172.054 169.467 173.85 168.3 174.898C152.251 189.33 131.546 197.277 110 197.277Z" fill="#333333"/>
<path d="M58.9968 147.55C58.0896 147.55 57.1984 147.117 56.6485 146.311C49.3183 135.574 45.4442 123.019 45.4442 110C45.4442 74.4041 74.4035 45.4448 110 45.4448C114.852 45.4448 119.692 45.9884 124.384 47.0603C125.913 47.4097 126.869 48.9326 126.52 50.4618C126.171 51.991 124.648 52.9476 123.119 52.5983C118.841 51.6207 114.427 51.1253 110 51.1253C77.5358 51.1253 51.1247 77.5364 51.1247 110C51.1247 121.871 54.6569 133.32 61.34 143.108C62.2245 144.404 61.891 146.171 60.5959 147.056C60.1062 147.39 59.5484 147.55 58.9968 147.55Z" fill="#333333"/>
<path d="M110 174.555C91.6036 174.555 74.019 166.645 61.7547 152.851C60.7129 151.679 60.818 149.884 61.9905 148.841C63.1629 147.799 64.958 147.904 66.0004 149.077C77.1876 161.659 93.2249 168.875 110 168.875C125.198 168.875 139.634 163.078 150.649 152.551C161.627 142.058 168.075 127.969 168.805 112.879C168.881 111.313 170.206 110.101 171.78 110.18C173.346 110.256 174.555 111.588 174.479 113.154C173.679 129.705 166.609 145.155 154.573 156.658C142.497 168.199 126.667 174.555 110 174.555Z" fill="#333333"/>
<path d="M171.437 106.992C169.988 106.992 168.751 105.889 168.612 104.418C166.755 84.7534 155.193 67.4193 137.682 58.0499C136.299 57.3097 135.778 55.5885 136.518 54.2053C137.259 52.8221 138.979 52.3012 140.363 53.0408C159.556 63.3117 172.231 82.3188 174.268 103.884C174.415 105.446 173.269 106.831 171.707 106.979C171.616 106.987 171.526 106.992 171.437 106.992Z" fill="#333333"/>
<path d="M110 151.833C86.933 151.833 68.1663 133.066 68.1663 109.999C68.1663 86.9325 86.9324 68.1663 110 68.1663C133.067 68.1663 151.833 86.9325 151.833 110C151.833 133.067 133.066 151.833 110 151.833ZM110 73.8474C90.0647 73.8474 73.8468 90.0653 73.8468 110C73.8468 129.935 90.0647 146.153 110 146.153C129.935 146.153 146.153 129.935 146.153 110C146.153 90.0653 129.934 73.8474 110 73.8474Z" fill="#333333"/>
<path d="M135.891 152.765C134.961 152.765 134.05 152.309 133.506 151.472C132.652 150.157 133.025 148.398 134.341 147.543C147.112 139.245 154.738 125.21 154.738 109.999C154.738 104.636 153.799 99.3917 151.948 94.4121C151.402 92.942 152.15 91.3066 153.62 90.7601C155.09 90.2148 156.725 90.9618 157.272 92.4324C159.359 98.0471 160.418 103.958 160.418 109.999C160.418 127.139 151.826 142.955 137.436 152.306C136.958 152.617 136.421 152.765 135.891 152.765Z" fill="#333333"/>
<path d="M110 160.417C91.6752 160.417 74.7677 150.452 65.8749 134.41C65.1142 133.037 65.6102 131.309 66.982 130.549C68.3533 129.789 70.0824 130.284 70.8431 131.656C78.735 145.893 93.739 154.737 110 154.737C115.413 154.737 120.702 153.782 125.721 151.897C127.189 151.346 128.827 152.09 129.378 153.558C129.929 155.027 129.186 156.664 127.717 157.215C122.058 159.34 116.097 160.417 110 160.417Z" fill="#333333"/>
<path d="M63.9695 124.932C62.709 124.932 61.5581 124.087 61.2241 122.811C60.134 118.649 59.5813 114.339 59.5813 110C59.5813 89.1831 72.6539 70.234 92.1103 62.8488C93.5776 62.2915 95.217 63.0294 95.7736 64.4961C96.3303 65.9628 95.593 67.6028 94.1263 68.1595C76.8615 74.7137 65.2618 91.5281 65.2618 110.001C65.2618 113.854 65.7521 117.681 66.7189 121.372C67.1165 122.889 66.2082 124.442 64.6909 124.839C64.4501 124.902 64.2075 124.932 63.9695 124.932Z" fill="#333333"/>
<path d="M104.34 65.5953C102.92 65.5953 101.694 64.5331 101.523 63.0885C101.338 61.5309 102.452 60.1182 104.009 59.9341C105.985 59.7001 108 59.5814 110 59.5814C111.568 59.5814 112.84 60.8532 112.84 62.4216C112.84 63.99 111.568 65.2619 110 65.2619C108.222 65.2619 106.432 65.3675 104.677 65.5749C104.564 65.5885 104.451 65.5953 104.34 65.5953Z" fill="#333333"/>
<path d="M148.227 84.5064C147.359 84.5064 146.501 84.1099 145.944 83.3589C139.726 74.9836 130.754 69.0128 120.684 66.5451C119.161 66.1719 118.228 64.6342 118.601 63.1107C118.974 61.5872 120.513 60.6561 122.035 61.0276C133.389 63.8088 143.499 70.5368 150.505 79.9728C151.44 81.2321 151.177 83.0113 149.917 83.9463C149.409 84.3235 148.815 84.5064 148.227 84.5064Z" fill="#333333"/>
<path d="M186.185 48.6674C193.888 48.6674 200.132 42.4229 200.132 34.72C200.132 27.017 193.888 20.7726 186.185 20.7726C178.482 20.7726 172.238 27.017 172.238 34.72C172.238 42.4229 178.482 48.6674 186.185 48.6674Z" fill="#F24125"/>
<path d="M41.1627 70.5738C46.3668 70.5738 50.5856 66.355 50.5856 61.1509C50.5856 55.9468 46.3668 51.728 41.1627 51.728C35.9586 51.728 31.7399 55.9468 31.7399 61.1509C31.7399 66.355 35.9586 70.5738 41.1627 70.5738Z" fill="#F9911E"/>
<path d="M179.942 206.01C188.165 206.01 194.831 199.344 194.831 191.121C194.831 182.899 188.165 176.233 179.942 176.233C171.719 176.233 165.053 182.899 165.053 191.121C165.053 199.344 171.719 206.01 179.942 206.01Z" fill="#53AEF9"/>
<path opacity="0.25" d="M194.831 191.123C194.831 199.343 188.162 206.012 179.942 206.012C173.398 206.012 167.842 201.791 165.854 195.929C167.36 196.451 168.979 196.73 170.66 196.73C178.885 196.73 185.549 190.067 185.549 181.841C185.549 180.16 185.27 178.541 184.748 177.035C190.61 179.029 194.831 184.579 194.831 191.123Z" fill="black"/>
<path opacity="0.25" d="M187.821 20.7726C194.618 20.7726 200.132 26.2872 200.132 33.084C200.132 38.4953 196.642 43.0891 191.795 44.733C192.227 43.4884 192.457 42.1495 192.457 40.759C192.457 33.9571 186.947 28.4475 180.145 28.4475C178.755 28.4475 177.417 28.6776 176.171 29.1099C177.82 24.2627 182.41 20.7726 187.821 20.7726Z" fill="black"/>
<path opacity="0.25" d="M31.7399 60.9265C31.7399 55.8481 35.86 51.728 40.9383 51.728C44.9812 51.728 48.4134 54.3354 49.6415 57.9573C48.7116 57.6346 47.7112 57.4625 46.6723 57.4625C41.5905 57.4625 37.4738 61.5792 37.4738 66.661C37.4738 67.7 37.6459 68.6997 37.9686 69.6302C34.3472 68.3981 31.7399 64.9693 31.7399 60.9265Z" fill="black"/>
<path d="M41.1628 73.414C34.4007 73.414 28.8997 67.913 28.8997 61.1515C28.8997 54.3894 34.4007 48.8883 41.1628 48.8883C47.9249 48.8883 53.4259 54.3894 53.4259 61.1515C53.4259 67.913 47.9249 73.414 41.1628 73.414ZM41.1628 54.5689C37.5329 54.5689 34.5802 57.5216 34.5802 61.1515C34.5802 64.7807 37.5329 67.7335 41.1628 67.7335C44.7926 67.7335 47.7454 64.7807 47.7454 61.1515C47.7454 57.5216 44.7926 54.5689 41.1628 54.5689Z" fill="#333333"/>
<path d="M132.166 60.3732C127.182 60.3732 123.128 56.3191 123.128 51.3355C123.128 46.352 127.182 42.2972 132.166 42.2972C137.15 42.2972 141.204 46.352 141.204 51.3355C141.204 56.3191 137.15 60.3732 132.166 60.3732ZM132.166 47.9778C130.315 47.9778 128.808 49.4837 128.808 51.3355C128.808 53.1868 130.314 54.6927 132.166 54.6927C134.018 54.6927 135.524 53.1868 135.524 51.3355C135.523 49.4837 134.017 47.9778 132.166 47.9778Z" fill="#333333"/>
<path d="M179.942 208.85C170.166 208.85 162.213 200.897 162.213 191.121C162.213 181.345 170.166 173.392 179.942 173.392C189.718 173.392 197.671 181.345 197.671 191.121C197.671 200.897 189.718 208.85 179.942 208.85ZM179.942 179.073C173.299 179.073 167.894 184.478 167.894 191.121C167.894 197.765 173.299 203.17 179.942 203.17C186.585 203.17 191.99 197.765 191.99 191.121C191.99 184.478 186.585 179.073 179.942 179.073Z" fill="#333333"/>
<path d="M186.185 51.5076C176.928 51.5076 169.397 43.977 169.397 34.72C169.397 25.463 176.928 17.9323 186.185 17.9323C195.441 17.9323 202.973 25.463 202.973 34.72C202.973 43.977 195.442 51.5076 186.185 51.5076ZM186.185 23.6128C180.06 23.6128 175.078 28.5952 175.078 34.72C175.078 40.8441 180.06 45.8271 186.185 45.8271C192.309 45.8271 197.292 40.8447 197.292 34.72C197.292 28.5952 192.31 23.6128 186.185 23.6128Z" fill="#333333"/>
</g>
<defs>
<clipPath id="clip0_11_1521">
<rect width="220" height="220" fill="white"/>
</clipPath>
</defs>
</svg>
