<svg width="70" height="70" viewBox="0 0 70 70" fill="none" xmlns="http://www.w3.org/2000/svg">
<g filter="url(#filter0_d_507_1494)">
<path d="M27.4042 6.54128C27.1406 6.10202 26.6659 5.83325 26.1537 5.83325H12.0551C10.9215 5.83325 10.2213 7.06988 10.8046 8.04189L26.5546 34.2919C26.8181 34.7311 27.2928 34.9999 27.8051 34.9999H41.9037C43.0372 34.9999 43.7374 33.7633 43.1542 32.7913L27.4042 6.54128Z" fill="#C52229"/>
<path fill-rule="evenodd" clip-rule="evenodd" d="M26.1535 4.375H12.0549C9.78782 4.375 8.38749 6.84825 9.55391 8.79228L25.3039 35.0423C25.831 35.9208 26.7804 36.4583 27.8049 36.4583H41.9035C44.1706 36.4583 45.571 33.9851 44.4046 32.0411L28.6546 5.79105C28.1274 4.91254 27.1781 4.375 26.1535 4.375ZM26.1535 5.83333C26.6658 5.83333 27.1405 6.1021 27.404 6.54136L43.154 32.7914C43.7373 33.7634 43.0371 35 41.9035 35H27.8049C27.2927 35 26.818 34.7312 26.5544 34.292L10.8044 8.04197C10.2212 7.06996 10.9214 5.83333 12.0549 5.83333H26.1535Z" fill="#9B0F15"/>
<path d="M42.5961 6.54128C42.8596 6.10202 43.3343 5.83325 43.8466 5.83325H57.9452C59.0787 5.83325 59.7789 7.06988 59.1957 8.04189L43.4457 34.2919C43.1821 34.7311 42.7074 34.9999 42.1952 34.9999H28.0966C26.963 34.9999 26.2629 33.7633 26.8461 32.7913L42.5961 6.54128Z" fill="#F1333B"/>
<path fill-rule="evenodd" clip-rule="evenodd" d="M43.8467 4.375H57.9453C60.2124 4.375 61.6128 6.84825 60.4463 8.79228L44.6963 35.0423C44.1692 35.9208 43.2198 36.4583 42.1953 36.4583H28.0967C25.8296 36.4583 24.4293 33.9851 25.5957 32.0411L41.3457 5.79105C41.8728 4.91254 42.8222 4.375 43.8467 4.375ZM43.8467 5.83333C43.3344 5.83333 42.8598 6.1021 42.5962 6.54136L26.8462 32.7914C26.263 33.7634 26.9632 35 28.0967 35H42.1953C42.7076 35 43.1823 34.7312 43.4458 34.292L59.1958 8.04197C59.779 7.06996 59.0789 5.83333 57.9453 5.83333H43.8467Z" fill="#9B0F15"/>
<path fill-rule="evenodd" clip-rule="evenodd" d="M44.1162 6.66097C44.4644 6.86318 44.5828 7.30943 44.3806 7.65768L37.8181 18.9598C37.6159 19.308 37.1697 19.4264 36.8214 19.2242C36.4731 19.022 36.3547 18.5757 36.557 18.2275L43.1195 6.9254C43.3217 6.57714 43.7679 6.45875 44.1162 6.66097Z" fill="#FE666D"/>
<path fill-rule="evenodd" clip-rule="evenodd" d="M12.0298 6.66097C11.6816 6.86318 11.5632 7.30943 11.7654 7.65768L18.3279 18.9598C18.5301 19.308 18.9763 19.4264 19.3246 19.2242C19.6729 19.022 19.7912 18.5757 19.589 18.2275L13.0265 6.9254C12.8243 6.57714 12.3781 6.45875 12.0298 6.66097Z" fill="#DF3840"/>
<path d="M25.8857 8.22575C25.8857 8.74172 25.4776 9.15999 24.9742 9.15999C24.4708 9.15999 24.0627 8.74172 24.0627 8.22575C24.0627 7.70978 24.4708 7.2915 24.9742 7.2915C25.4776 7.2915 25.8857 7.70978 25.8857 8.22575Z" fill="#AA161D"/>
<path d="M22.6843 8.45361C22.6843 9.09543 22.1767 9.61572 21.5505 9.61572C20.9244 9.61572 20.4167 9.09543 20.4167 8.45361C20.4167 7.8118 20.9244 7.2915 21.5505 7.2915C22.1767 7.2915 22.6843 7.8118 22.6843 8.45361Z" fill="#AA161D"/>
<path d="M25.5209 11.7805C25.5209 12.4223 25.0133 12.9426 24.3872 12.9426C23.761 12.9426 23.2534 12.4223 23.2534 11.7805C23.2534 11.1387 23.761 10.6184 24.3872 10.6184C25.0133 10.6184 25.5209 11.1387 25.5209 11.7805Z" fill="#AA161D"/>
<path d="M28.113 10.1968C28.113 10.5177 27.8592 10.7778 27.5461 10.7778C27.233 10.7778 26.9792 10.5177 26.9792 10.1968C26.9792 9.87587 27.233 9.61572 27.5461 9.61572C27.8592 9.61572 28.113 9.87587 28.113 10.1968Z" fill="#AA161D"/>
<path d="M22.1174 11.1995C22.1174 11.5204 21.8636 11.7805 21.5505 11.7805C21.2374 11.7805 20.9836 11.5204 20.9836 11.1995C20.9836 10.8786 21.2374 10.6184 21.5505 10.6184C21.8636 10.6184 22.1174 10.8786 22.1174 11.1995Z" fill="#AA161D"/>
<path d="M18.9585 7.64478C18.9585 7.96568 18.7047 8.22583 18.3916 8.22583C18.0785 8.22583 17.8247 7.96568 17.8247 7.64478C17.8247 7.32387 18.0785 7.06372 18.3916 7.06372C18.7047 7.06372 18.9585 7.32387 18.9585 7.64478Z" fill="#AA161D"/>
<path d="M27.5461 14.2529C27.5461 14.5738 27.2923 14.834 26.9792 14.834C26.6662 14.834 26.4124 14.5738 26.4124 14.2529C26.4124 13.932 26.6662 13.6719 26.9792 13.6719C27.2923 13.6719 27.5461 13.932 27.5461 14.2529Z" fill="#AA161D"/>
<path d="M24.6296 14.834C24.6296 15.1549 24.3758 15.415 24.0627 15.415C23.7497 15.415 23.4958 15.1549 23.4958 14.834C23.4958 14.5131 23.7497 14.2529 24.0627 14.2529C24.3758 14.2529 24.6296 14.5131 24.6296 14.834Z" fill="#AA161D"/>
<path d="M30.2829 12.7262C30.2829 13.2484 29.8698 13.6718 29.3603 13.6718C28.8508 13.6718 28.4377 13.2484 28.4377 12.7262C28.4377 12.2039 28.8508 11.7805 29.3603 11.7805C29.8698 11.7805 30.2829 12.2039 30.2829 12.7262Z" fill="#AA161D"/>
<path d="M31.4856 15.415C31.4856 15.7359 31.2318 15.9961 30.9187 15.9961C30.6056 15.9961 30.3518 15.7359 30.3518 15.415C30.3518 15.0941 30.6056 14.834 30.9187 14.834C31.2318 14.834 31.4856 15.0941 31.4856 15.415Z" fill="#AA161D"/>
<path d="M54.6875 44.479C54.6875 55.3521 45.8731 64.1665 35 64.1665C24.1269 64.1665 15.3125 55.3521 15.3125 44.479C15.3125 33.6059 24.1269 24.7915 35 24.7915C45.8731 24.7915 54.6875 33.6059 54.6875 44.479Z" fill="#FFBB0D"/>
<path fill-rule="evenodd" clip-rule="evenodd" d="M56.1459 44.4791C56.1459 56.1576 46.6786 65.6249 35.0001 65.6249C23.3216 65.6249 13.8542 56.1576 13.8542 44.4791C13.8542 32.8006 23.3216 23.3333 35.0001 23.3333C46.6786 23.3333 56.1459 32.8006 56.1459 44.4791ZM35.0001 64.1666C45.8732 64.1666 54.6876 55.3522 54.6876 44.4791C54.6876 33.606 45.8732 24.7916 35.0001 24.7916C24.127 24.7916 15.3126 33.606 15.3126 44.4791C15.3126 55.3522 24.127 64.1666 35.0001 64.1666Z" fill="#E89B05"/>
<path fill-rule="evenodd" clip-rule="evenodd" d="M16.7709 45.2083C16.3682 45.2083 16.0417 44.8818 16.0417 44.4791C16.0417 34.0087 24.5297 25.5208 35.0001 25.5208C35.4028 25.5208 35.7292 25.8472 35.7292 26.2499C35.7292 26.6526 35.4028 26.9791 35.0001 26.9791C25.3351 26.9791 17.5001 34.8141 17.5001 44.4791C17.5001 44.8818 17.1736 45.2083 16.7709 45.2083Z" fill="#E8AA0A"/>
<path fill-rule="evenodd" clip-rule="evenodd" d="M53.2293 43.75C53.632 43.75 53.9585 44.0765 53.9585 44.4792C53.9585 54.9496 45.4706 63.4375 35.0002 63.4375C34.5975 63.4375 34.271 63.111 34.271 62.7083C34.271 62.3056 34.5975 61.9792 35.0002 61.9792C44.6651 61.9792 52.5002 54.1441 52.5002 44.4792C52.5002 44.0765 52.8266 43.75 53.2293 43.75Z" fill="#E8AA0A"/>
<path d="M49.5834 44.4791C49.5834 52.5332 43.0542 59.0624 35.0001 59.0624C26.9459 59.0624 20.4167 52.5332 20.4167 44.4791C20.4167 36.4249 26.9459 29.8958 35.0001 29.8958C43.0542 29.8958 49.5834 36.4249 49.5834 44.4791Z" fill="#FFDD28"/>
<path fill-rule="evenodd" clip-rule="evenodd" d="M51.0418 44.4792C51.0418 53.3387 43.8597 60.5208 35.0002 60.5208C26.1406 60.5208 18.9585 53.3387 18.9585 44.4792C18.9585 35.6196 26.1406 28.4375 35.0002 28.4375C43.8597 28.4375 51.0418 35.6196 51.0418 44.4792ZM35.0002 59.0625C43.0543 59.0625 49.5835 52.5333 49.5835 44.4792C49.5835 36.425 43.0543 29.8958 35.0002 29.8958C26.946 29.8958 20.4168 36.425 20.4168 44.4792C20.4168 52.5333 26.946 59.0625 35.0002 59.0625Z" fill="#E89B05"/>
<path fill-rule="evenodd" clip-rule="evenodd" d="M35.0001 56.8749C41.8461 56.8749 47.3959 51.3251 47.3959 44.4791C47.3959 44.0764 47.7224 43.7499 48.1251 43.7499C48.5278 43.7499 48.8542 44.0764 48.8542 44.4791C48.8542 52.1305 42.6515 58.3333 35.0001 58.3333C34.5974 58.3333 34.2709 58.0068 34.2709 57.6041C34.2709 57.2014 34.5974 56.8749 35.0001 56.8749Z" fill="#ECC704"/>
<path fill-rule="evenodd" clip-rule="evenodd" d="M35.0002 32.0833C28.1541 32.0833 22.6043 37.6331 22.6043 44.4792C22.6043 44.8819 22.2779 45.2083 21.8752 45.2083C21.4725 45.2083 21.146 44.8819 21.146 44.4792C21.146 36.8277 27.3487 30.625 35.0002 30.625C35.4029 30.625 35.7293 30.9515 35.7293 31.3542C35.7293 31.7569 35.4029 32.0833 35.0002 32.0833Z" fill="#FFEF9C"/>
</g>
<path d="M37.708 43.028H33.964V44.684C34.124 44.508 34.348 44.364 34.636 44.252C34.924 44.14 35.236 44.084 35.572 44.084C36.172 44.084 36.668 44.22 37.06 44.492C37.46 44.764 37.752 45.116 37.936 45.548C38.12 45.98 38.212 46.448 38.212 46.952C38.212 47.888 37.948 48.632 37.42 49.184C36.892 49.728 36.148 50 35.188 50C34.548 50 33.992 49.892 33.52 49.676C33.048 49.452 32.684 49.144 32.428 48.752C32.172 48.36 32.032 47.908 32.008 47.396H34.012C34.06 47.644 34.176 47.852 34.36 48.02C34.544 48.18 34.796 48.26 35.116 48.26C35.492 48.26 35.772 48.14 35.956 47.9C36.14 47.66 36.232 47.34 36.232 46.94C36.232 46.548 36.136 46.248 35.944 46.04C35.752 45.832 35.472 45.728 35.104 45.728C34.832 45.728 34.608 45.796 34.432 45.932C34.256 46.06 34.14 46.232 34.084 46.448H32.104V41.228H37.708V43.028Z" fill="#141A1B"/>
<defs>
<filter id="filter0_d_507_1494" x="0" y="0" width="72" height="72" filterUnits="userSpaceOnUse" color-interpolation-filters="sRGB">
<feFlood flood-opacity="0" result="BackgroundImageFix"/>
<feColorMatrix in="SourceAlpha" type="matrix" values="0 0 0 0 0 0 0 0 0 0 0 0 0 0 0 0 0 0 127 0" result="hardAlpha"/>
<feOffset dx="2" dy="2"/>
<feColorMatrix type="matrix" values="0 0 0 0 0.637788 0 0 0 0 0.545996 0 0 0 0 0.47948 0 0 0 0.2 0"/>
<feBlend mode="normal" in2="BackgroundImageFix" result="effect1_dropShadow_507_1494"/>
<feBlend mode="normal" in="SourceGraphic" in2="effect1_dropShadow_507_1494" result="shape"/>
</filter>
</defs>
</svg>
