<svg width="38" height="50" viewBox="0 0 38 50" fill="none" xmlns="http://www.w3.org/2000/svg">
<path d="M34.0006 22.9221H30.9423V13.3734C30.9423 6.37097 25.4372 0.641724 18.7089 0.641724C11.9805 0.641724 6.47542 6.37097 6.47542 13.3734V22.9221H3.41706C1.88788 22.9221 0.358704 24.5136 0.358704 26.105V48.3854C0.358704 49.9769 1.88788 51.5684 3.41706 51.5684H34.0006C35.5298 51.5684 37.059 49.9769 37.059 48.3854V26.105C37.059 24.5136 35.5298 22.9221 34.0006 22.9221ZM21.7672 45.2025H15.6505L16.8738 38.2001C15.3447 37.5635 14.1213 35.6538 14.1213 34.0623C14.1213 31.516 16.2622 29.288 18.7089 29.288C21.1555 29.288 23.2964 31.516 23.2964 34.0623C23.2964 35.9721 22.3789 37.5635 20.5439 38.2001L21.7672 45.2025ZM24.8256 22.9221H12.5921V13.3734C12.5921 9.87218 15.3447 7.00755 18.7089 7.00755C22.073 7.00755 24.8256 9.87218 24.8256 13.3734V22.9221Z" fill="#AFB6C2"/>
</svg>
