<svg width="53" height="37" viewBox="0 0 53 37" fill="none" xmlns="http://www.w3.org/2000/svg">
<g filter="url(#filter0_d_889_11161)">
<rect width="48" height="32" rx="9.82838" fill="#00FF88"/>
<rect x="0.24571" y="0.24571" width="47.5086" height="31.5086" rx="9.58267" stroke="#00EAFF" stroke-width="0.491419"/>
</g>
<path d="M26.5844 8.90315L25.4781 7.2228C25.2953 6.93103 24.7234 6.92048 24.5219 7.2228L23.4156 8.90315L20.9641 9.1668C20.5281 9.21601 20.3406 9.62028 20.6641 9.86284L22.4453 11.1635L22.0234 12.995C21.9578 13.322 22.4078 13.5751 22.8109 13.4239L25.0094 12.5521L27.1937 13.4098C27.5969 13.561 28.0516 13.3079 27.9813 12.981L27.5594 11.1495L29.3406 9.86284C29.6594 9.6238 29.4766 9.21953 29.0406 9.1668L26.5891 8.90315H26.5844ZM22 16.0007C21.1703 16.0007 20.5 16.5034 20.5 17.1256V23.8751C20.5 24.4973 21.1703 25 22 25H28C28.8297 25 29.5 24.4973 29.5 23.8751V17.1256C29.5 16.5034 28.8297 16.0007 28 16.0007H22ZM11.5 18.2505C10.6703 18.2505 10 18.7532 10 19.3754V23.8751C10 24.4973 10.6703 25 11.5 25H17.5C18.3297 25 19 24.4973 19 23.8751V19.3754C19 18.7532 18.3297 18.2505 17.5 18.2505H11.5ZM31 21.6252V23.8751C31 24.4973 31.6703 25 32.5 25H38.5C39.3297 25 40 24.4973 40 23.8751V21.6252C40 21.003 39.3297 20.5003 38.5 20.5003H32.5C31.6703 20.5003 31 21.003 31 21.6252Z" fill="#141A1B"/>
<defs>
<filter id="filter0_d_889_11161" x="0" y="0" width="52.9142" height="36.9142" filterUnits="userSpaceOnUse" color-interpolation-filters="sRGB">
<feFlood flood-opacity="0" result="BackgroundImageFix"/>
<feColorMatrix in="SourceAlpha" type="matrix" values="0 0 0 0 0 0 0 0 0 0 0 0 0 0 0 0 0 0 127 0" result="hardAlpha"/>
<feOffset dx="2.4571" dy="2.4571"/>
<feGaussianBlur stdDeviation="1.22855"/>
<feComposite in2="hardAlpha" operator="out"/>
<feColorMatrix type="matrix" values="0 0 0 0 0 0 0 0 0 0 0 0 0 0 0 0 0 0 0.25 0"/>
<feBlend mode="normal" in2="BackgroundImageFix" result="effect1_dropShadow_889_11161"/>
<feBlend mode="normal" in="SourceGraphic" in2="effect1_dropShadow_889_11161" result="shape"/>
</filter>
</defs>
</svg>
