<svg width="36" height="36" viewBox="0 0 36 36" fill="none" xmlns="http://www.w3.org/2000/svg">
<path d="M18 0C8.05982 0 0 8.05982 0 18C0 27.9402 8.05982 36 18 36C27.9402 36 36 27.9402 36 18C36 8.05982 27.9402 0 18 0ZM19.2857 26.6786C19.2857 26.8554 19.1411 27 18.9643 27H17.0357C16.8589 27 16.7143 26.8554 16.7143 26.6786V15.75C16.7143 15.5732 16.8589 15.4286 17.0357 15.4286H18.9643C19.1411 15.4286 19.2857 15.5732 19.2857 15.75V26.6786ZM18 12.8571C17.4953 12.8468 17.0148 12.6391 16.6615 12.2786C16.3083 11.918 16.1104 11.4333 16.1104 10.9286C16.1104 10.4238 16.3083 9.93913 16.6615 9.57857C17.0148 9.21802 17.4953 9.0103 18 9C18.5047 9.0103 18.9852 9.21802 19.3385 9.57857C19.6917 9.93913 19.8896 10.4238 19.8896 10.9286C19.8896 11.4333 19.6917 11.918 19.3385 12.2786C18.9852 12.6391 18.5047 12.8468 18 12.8571Z" fill="#FFCE31"/>
</svg>
