<svg width="24" height="19" viewBox="0 0 24 19" fill="none" xmlns="http://www.w3.org/2000/svg">
<path d="M23.4193 3.89367C23.047 3.13173 22.51 2.44126 21.8386 1.86092C21.1667 1.27885 20.3745 0.816288 19.505 0.498386C18.6035 0.167432 17.6365 -0.0019684 16.6602 1.7256e-05C15.2906 1.7256e-05 13.9544 0.331444 12.7931 0.957474C12.5153 1.10723 12.2514 1.27172 12.0014 1.45093C11.7513 1.27172 11.4874 1.10723 11.2096 0.957474C10.0484 0.331444 8.71211 1.7256e-05 7.34251 1.7256e-05C6.35628 1.7256e-05 5.40062 0.166958 4.49774 0.498386C3.62542 0.817538 2.83921 1.27663 2.16414 1.86092C1.49183 2.4406 0.95477 3.13124 0.5834 3.89367C0.197245 4.68664 0 5.52871 0 6.39533C0 7.21285 0.188911 8.06474 0.563954 8.93137C0.877878 9.65559 1.32793 10.4068 1.903 11.1654C2.81421 12.3659 4.06713 13.618 5.62287 14.8872C8.20094 16.9912 10.754 18.4446 10.8624 18.5035L11.5208 18.8766C11.8125 19.0411 12.1875 19.0411 12.4792 18.8766L13.1376 18.5035C13.246 18.4421 15.7963 16.9912 18.3771 14.8872C19.9328 13.618 21.1858 12.3659 22.097 11.1654C22.672 10.4068 23.1249 9.65559 23.436 8.93137C23.8111 8.06474 24 7.21285 24 6.39533C24.0028 5.52871 23.8055 4.68664 23.4193 3.89367ZM12.0014 16.9347C12.0014 16.9347 2.11135 11.3348 2.11135 6.39533C2.11135 3.89367 4.45329 1.86583 7.34251 1.86583C9.3733 1.86583 11.1346 2.86748 12.0014 4.33067C12.8681 2.86748 14.6295 1.86583 16.6602 1.86583C19.5495 1.86583 21.8914 3.89367 21.8914 6.39533C21.8914 11.3348 12.0014 16.9347 12.0014 16.9347Z" fill="#F02323"/>
<path d="M17.1817 2C14.923 2 12.964 2.96562 12 4.37619C11.036 2.96562 9.07697 2 6.81826 2C3.60477 2 1 3.95491 1 6.3666C1 11.1284 12 16.5269 12 16.5269C12 16.5269 23 11.1284 23 6.3666C23 3.95491 20.3952 2 17.1817 2Z" fill="#FF0000" fill-opacity="0.15"/>
</svg>
