<svg width="30" height="18" viewBox="0 0 30 18" fill="none" xmlns="http://www.w3.org/2000/svg">
<path d="M29.3125 3.64922L26.1532 0.460547C25.872 0.175781 25.3702 0 24.8354 0H5.16244C4.62761 0 4.12586 0.175781 3.84466 0.460547L0.679789 3.64922C-0.952273 5.29453 0.492322 7.5832 3.54141 7.84687C3.76196 7.86445 3.98802 7.875 4.20857 7.875C5.64765 7.875 6.92683 7.47422 7.80352 6.85547C8.6802 7.47422 9.95938 7.875 11.3985 7.875C12.8375 7.875 14.1167 7.47422 14.9934 6.85547C15.8701 7.47422 17.1493 7.875 18.5884 7.875C20.033 7.875 21.3066 7.47422 22.1833 6.85547C23.0655 7.47422 24.3392 7.875 25.7782 7.875C26.0043 7.875 26.2249 7.86445 26.4454 7.84687C29.5055 7.58672 30.9556 5.29805 29.3181 3.64922H29.3125ZM26.6715 8.96133H26.666C26.3737 8.98594 26.076 9 25.7727 9C25.089 9 24.4329 8.9332 23.8209 8.81367V13.5H6.17697V8.81016C5.55943 8.9332 4.89779 9 4.21408 9C3.91083 9 3.60757 8.98594 3.31535 8.96133H3.30983C3.08377 8.94023 2.86322 8.91563 2.64819 8.88047V15.75C2.64819 16.991 4.23063 18 6.17697 18H23.8209C25.7672 18 27.3497 16.991 27.3497 15.75V8.88047C27.1291 8.91563 26.9086 8.94375 26.6715 8.96133V8.96133Z" fill="#141A1B"/>
</svg>
