<svg width="26" height="28" viewBox="0 0 26 28" fill="none" xmlns="http://www.w3.org/2000/svg">
<path d="M7.1582 12.18C7.8563 11.4552 8.69351 10.8788 9.61967 10.4854C10.5458 10.0919 11.5419 9.88937 12.5482 9.89002C14.5082 9.89002 16.4582 10.65 17.9382 12.18C20.9082 15.23 20.9082 20.19 17.9382 23.24C17.2407 23.9656 16.4037 24.5426 15.4773 24.9361C14.551 25.3297 13.5547 25.5317 12.5482 25.53C10.5182 25.53 8.5982 24.72 7.1582 23.24C5.7185 21.7604 4.91765 19.7744 4.9282 17.71C4.9282 15.62 5.7182 13.66 7.1582 12.18ZM11.6342 13.041C11.3758 13.0414 11.1276 13.1417 10.9416 13.3211C10.7555 13.5004 10.6461 13.7448 10.6363 14.003C10.6265 14.2612 10.717 14.5132 10.8889 14.7061C11.0607 14.8991 11.3006 15.018 11.5582 15.038V21C11.5582 21.2652 11.6636 21.5196 11.8511 21.7071C12.0386 21.8947 12.293 22 12.5582 22C12.8234 22 13.0778 21.8947 13.2653 21.7071C13.4528 21.5196 13.5582 21.2652 13.5582 21V14.041C13.5582 13.7758 13.4528 13.5214 13.2653 13.3339C13.0778 13.1464 12.8234 13.041 12.5582 13.041H11.6342Z" fill="#FFCE31"/>
<path d="M10.1062 0.93L12.5562 4.957L15.0062 0.93C15.3462 0.35 15.9562 0 16.6262 0H23.2162C24.6662 0 25.5762 1.56 24.8762 2.82C23.5593 5.15675 21.6963 7.13991 19.4462 8.6C19.0874 8.87551 18.6884 9.09439 18.2632 9.249C20.8772 11.107 22.5882 14.203 22.5882 17.71C22.5882 23.393 18.0932 28 12.5482 28C7.00321 28 2.50821 23.393 2.50821 17.71C2.50821 14.2 4.22321 11.1 6.84021 9.244C6.42125 9.09079 6.02859 8.87354 5.67621 8.6C3.42836 7.13729 1.56585 5.15472 0.24621 2.82C-0.46379 1.56 0.44621 0 1.89621 0H8.48621C9.15621 0 9.76621 0.35 10.1062 0.93ZM12.2252 7.425C13.8929 7.36824 15.5475 7.73826 17.0322 8.5C17.689 8.44958 18.3167 8.20837 18.8382 7.806L18.8682 7.782L18.9022 7.762C21.0158 6.39008 22.7659 4.52706 24.0032 2.332C24.0781 2.19513 24.1161 2.04114 24.1135 1.88515C24.111 1.72915 24.0679 1.5765 23.9885 1.44218C23.9092 1.30786 23.7962 1.19647 23.6608 1.11895C23.5254 1.04143 23.3722 1.00044 23.2162 1H16.6262C16.4726 0.999092 16.3215 1.03897 16.1883 1.11557C16.0551 1.19217 15.9447 1.30275 15.8682 1.436L15.8642 1.443L12.2242 7.425H12.2252ZM6.31821 24.11C7.12585 24.9497 8.09501 25.6173 9.16737 26.0727C10.2397 26.5282 11.3932 26.7619 12.5582 26.76C14.9082 26.76 17.1282 25.82 18.8082 24.11C22.2482 20.58 22.2482 14.84 18.8082 11.31C17.9979 10.4726 17.0275 9.80672 15.9546 9.35196C14.8818 8.8972 13.7285 8.66285 12.5632 8.66285C11.398 8.66285 10.2446 8.8972 9.17177 9.35196C8.09893 9.80672 7.1285 10.4726 6.31821 11.31C4.64751 13.0202 3.7171 15.3192 3.72821 17.71C3.72821 20.13 4.64821 22.4 6.31821 24.11Z" fill="#FFCE31"/>
</svg>
