<svg width="70" height="60" viewBox="0 0 70 60" fill="none" xmlns="http://www.w3.org/2000/svg">
<path d="M28.7905 3.07288C32.7037 1.13637 37.2963 1.13637 41.2095 3.07288L57.5204 11.1447C62.2916 13.5059 65.3109 18.3687 65.3109 23.6923V36.3077C65.3109 41.6313 62.2916 46.4941 57.5204 48.8553L41.2095 56.9271C37.2963 58.8636 32.7037 58.8636 28.7905 56.9271L12.4796 48.8553C7.70837 46.4941 4.68911 41.6313 4.68911 36.3077V23.6923C4.68911 18.3687 7.70838 13.5058 12.4797 11.1447L28.7905 3.07288Z" fill="#7AA85D"/>
<mask id="mask0_168_81507" style="mask-type:alpha" maskUnits="userSpaceOnUse" x="4" y="1" width="62" height="58">
<path d="M28.7905 3.07288C32.7037 1.13637 37.2963 1.13637 41.2095 3.07288L57.5204 11.1447C62.2916 13.5059 65.3109 18.3687 65.3109 23.6923V36.3077C65.3109 41.6313 62.2916 46.4941 57.5204 48.8553L41.2095 56.9271C37.2963 58.8636 32.7037 58.8636 28.7905 56.9271L12.4796 48.8553C7.70837 46.4941 4.68911 41.6313 4.68911 36.3077V23.6923C4.68911 18.3687 7.70838 13.5058 12.4797 11.1447L28.7905 3.07288Z" fill="#C4C4C4"/>
</mask>
<g mask="url(#mask0_168_81507)">
<rect width="72.8693" height="22.9841" transform="matrix(0.892672 -0.450706 0.566372 0.82415 -0.404297 44.7269)" fill="white" fill-opacity="0.5"/>
<rect width="64.1017" height="10.8025" transform="matrix(0.892672 -0.450706 0.566372 0.82415 -4.0459 28.1974)" fill="white" fill-opacity="0.5"/>
</g>
<path d="M29.345 4.19321C32.9087 2.4296 37.0913 2.4296 40.655 4.19321L56.9659 12.265C61.3112 14.4154 64.0609 18.8441 64.0609 23.6923V36.3077C64.0609 41.1559 61.3112 45.5846 56.9659 47.735L40.655 55.8068C37.0913 57.5704 32.9087 57.5704 29.345 55.8068L13.0341 47.735C8.6888 45.5846 5.93911 41.1559 5.93911 36.3077V23.6923C5.93911 18.8441 8.6888 14.4154 13.0341 12.265L29.345 4.19321Z" stroke="#7AA85D" stroke-width="2.5"/>
<path d="M33.4278 6.08024C34.5459 5.52695 35.858 5.52695 36.9761 6.08024L57.8555 16.4129C59.2188 17.0875 60.0814 18.4769 60.0814 19.9979V39.6552C60.0814 41.1762 59.2188 42.5656 57.8555 43.2402L36.9761 53.5729C35.858 54.1261 34.5459 54.1261 33.4278 53.5729L12.5484 43.2402C11.1851 42.5656 10.3225 41.1762 10.3225 39.6552V19.9979C10.3225 18.4769 11.1851 17.0875 12.5484 16.4129L33.4278 6.08024Z" fill="url(#paint0_linear_168_81507)"/>
<path d="M33.9822 7.20056C34.7509 6.82017 35.653 6.82017 36.4217 7.20056L57.3011 17.5332C58.2383 17.997 58.8314 18.9522 58.8314 19.9979V39.6552C58.8314 40.7009 58.2383 41.6561 57.3011 42.1199L36.4217 52.4525C35.653 52.8329 34.7509 52.8329 33.9822 52.4525L13.1028 42.1199C12.1656 41.6561 11.5725 40.7009 11.5725 39.6552V19.9979C11.5725 18.9522 12.1656 17.997 13.1028 17.5332L33.9822 7.20056Z" stroke="white" stroke-opacity="0.5" stroke-width="2.5"/>
<defs>
<linearGradient id="paint0_linear_168_81507" x1="35.202" y1="5.20227" x2="35.202" y2="54.4508" gradientUnits="userSpaceOnUse">
<stop stop-color="#B34461"/>
<stop offset="0.0001" stop-color="#CF7185"/>
<stop offset="1" stop-color="#B34461"/>
</linearGradient>
</defs>
</svg>
