<svg width="26" height="28" viewBox="0 0 26 28" fill="none" xmlns="http://www.w3.org/2000/svg">
<path d="M7.1582 12.18C7.8563 11.4552 8.69351 10.8788 9.61967 10.4854C10.5458 10.0919 11.5419 9.88937 12.5482 9.89002C14.5082 9.89002 16.4582 10.65 17.9382 12.18C20.9082 15.23 20.9082 20.19 17.9382 23.24C17.2407 23.9656 16.4037 24.5426 15.4773 24.9361C14.551 25.3297 13.5547 25.5317 12.5482 25.53C10.5182 25.53 8.5982 24.72 7.1582 23.24C5.7185 21.7604 4.91765 19.7744 4.9282 17.71C4.9282 15.62 5.7182 13.66 7.1582 12.18ZM10.4262 21.95H14.3962C14.9562 21.95 15.3962 21.49 15.3962 20.93C15.3962 20.37 14.9462 19.92 14.3862 19.92H12.5462L14.4962 17.52C15.1562 16.71 15.2962 15.62 14.8662 14.66C14.6631 14.2053 14.3377 13.8158 13.9263 13.5351C13.5149 13.2544 13.0337 13.0934 12.5362 13.07H12.4062C11.4362 13.07 10.5262 13.54 9.9662 14.33C9.6462 14.79 9.7462 15.42 10.2062 15.74C10.6662 16.06 11.2962 15.95 11.6162 15.5C11.8062 15.24 12.0962 15.09 12.4162 15.09H12.4662C12.8362 15.1 12.9962 15.37 13.0462 15.49C13.0862 15.59 13.2062 15.93 12.9462 16.25L9.6462 20.3C9.3962 20.6 9.3462 21.02 9.5162 21.37C9.59654 21.5436 9.72496 21.6905 9.88625 21.7933C10.0475 21.8961 10.2349 21.9505 10.4262 21.95Z" fill="#C0C0C0"/>
<path d="M12.5562 4.957L10.1062 0.93C9.76621 0.35 9.15621 0 8.48621 0H1.89621C0.44621 0 -0.46379 1.56 0.24621 2.82C1.56585 5.15472 3.42836 7.13729 5.67621 8.6C6.03021 8.875 6.42321 9.091 6.84021 9.244C4.22321 11.1 2.50821 14.2 2.50821 17.71C2.50821 23.393 7.00321 28 12.5482 28C18.0932 28 22.5882 23.393 22.5882 17.71C22.5882 14.203 20.8772 11.107 18.2632 9.249C18.6852 9.096 19.0832 8.878 19.4462 8.6C21.6962 7.14 23.5562 5.16 24.8762 2.82C25.5762 1.56 24.6662 0 23.2162 0H16.6262C15.9562 0 15.3462 0.35 15.0062 0.93L12.5562 4.957ZM12.5482 7.42C12.4402 7.42 12.3322 7.422 12.2252 7.425L15.8652 1.443L15.8692 1.436C15.9456 1.3029 16.0559 1.19242 16.1889 1.11583C16.3218 1.03924 16.4728 0.999269 16.6262 1H23.2162C23.3722 1.00044 23.5254 1.04143 23.6608 1.11895C23.7962 1.19647 23.9092 1.30786 23.9885 1.44218C24.0679 1.5765 24.111 1.72915 24.1135 1.88515C24.1161 2.04114 24.0781 2.19513 24.0032 2.332C22.7656 4.52717 21.0151 6.39021 18.9012 7.762L18.8692 7.782L18.8382 7.806C18.3164 8.20855 17.6883 8.44978 17.0312 8.5C15.644 7.78855 14.1072 7.4183 12.5482 7.42ZM6.31821 24.11C4.64751 22.3998 3.7171 20.1008 3.72821 17.71C3.72821 15.29 4.64821 13.02 6.31821 11.31C7.1285 10.4726 8.09893 9.80672 9.17177 9.35196C10.2446 8.8972 11.398 8.66285 12.5632 8.66285C13.7285 8.66285 14.8818 8.8972 15.9546 9.35196C17.0275 9.80672 17.9979 10.4726 18.8082 11.31C22.2482 14.84 22.2482 20.58 18.8082 24.11C17.1282 25.82 14.9082 26.76 12.5582 26.76C10.1982 26.76 7.97821 25.82 6.31821 24.11Z" fill="#C0C0C0"/>
</svg>
