<svg width="26" height="28" viewBox="0 0 26 28" fill="none" xmlns="http://www.w3.org/2000/svg">
<path d="M7.1582 12.18C5.7185 13.6596 4.91765 15.6456 4.9282 17.71C4.9282 19.8 5.7182 21.76 7.1582 23.24C7.85626 23.9648 8.69346 24.5413 9.61964 24.9348C10.5458 25.3283 11.5419 25.5307 12.5482 25.53C14.5882 25.53 16.4982 24.72 17.9382 23.24C20.9082 20.19 20.9082 15.23 17.9382 12.18C17.2407 11.4545 16.4036 10.8776 15.4773 10.484C14.551 10.0905 13.5546 9.8884 12.5482 9.89002C10.5982 9.89002 8.6382 10.65 7.1582 12.18ZM15.0082 14.464L13.9602 16.274C14.4369 16.5397 14.8341 16.9275 15.1111 17.3977C15.3881 17.8679 15.5349 18.4033 15.5362 18.949C15.5357 19.7579 15.2142 20.5334 14.6424 21.1055C14.0705 21.6775 13.295 21.9992 12.4862 22C11.8582 21.9977 11.2462 21.8022 10.7331 21.4402C10.2201 21.0781 9.83081 20.5669 9.6182 19.976C9.57484 19.8559 9.55572 19.7284 9.56195 19.6008C9.56818 19.4733 9.59964 19.3482 9.6545 19.2329C9.70937 19.1176 9.78656 19.0143 9.8816 18.929C9.97664 18.8437 10.0876 18.7781 10.2082 18.736C10.4509 18.6509 10.7174 18.6652 10.9497 18.7757C11.1819 18.8862 11.3611 19.084 11.4482 19.326C11.5243 19.5404 11.665 19.7259 11.8509 19.857C12.0368 19.9881 12.2587 20.0583 12.4862 20.058C13.0962 20.058 13.5942 19.559 13.5942 18.949C13.5942 18.339 13.0962 17.841 12.4862 17.841C12.2271 17.841 11.9786 17.7381 11.7954 17.5549C11.6121 17.3716 11.5092 17.1231 11.5092 16.864C11.5102 16.6455 11.5857 16.4338 11.7232 16.264L12.4752 14.953H11.0722C10.8186 14.9449 10.5782 14.8385 10.4017 14.6562C10.2251 14.474 10.1265 14.2302 10.1265 13.9765C10.1265 13.7228 10.2251 13.4791 10.4017 13.2968C10.5782 13.1146 10.8186 13.0081 11.0722 13H14.1632C14.3346 12.9995 14.5031 13.0443 14.6515 13.13C14.8 13.2158 14.923 13.3393 15.0082 13.488C15.0931 13.6367 15.1377 13.8049 15.1377 13.976C15.1377 14.1472 15.0931 14.3154 15.0082 14.464Z" fill="#B87333"/>
<path d="M12.5562 4.957L10.1062 0.93C9.76621 0.35 9.15621 0 8.48621 0H1.89621C0.44621 0 -0.46379 1.56 0.24621 2.82C1.56585 5.15472 3.42836 7.13729 5.67621 8.6C6.03021 8.875 6.42321 9.091 6.84021 9.244C4.22321 11.1 2.50821 14.2 2.50821 17.71C2.50821 23.393 7.00321 28 12.5482 28C18.0932 28 22.5882 23.393 22.5882 17.71C22.5882 14.203 20.8772 11.107 18.2632 9.249C18.6852 9.096 19.0832 8.878 19.4462 8.6C21.6962 7.14 23.5562 5.16 24.8762 2.82C25.5762 1.56 24.6662 0 23.2162 0H16.6262C15.9562 0 15.3462 0.35 15.0062 0.93L12.5562 4.957ZM12.5482 7.42C12.4402 7.42 12.3322 7.422 12.2252 7.425L15.8652 1.443L15.8692 1.436C15.9456 1.3029 16.0559 1.19242 16.1889 1.11583C16.3218 1.03924 16.4728 0.999269 16.6262 1H23.2162C23.3722 1.00044 23.5254 1.04143 23.6608 1.11895C23.7962 1.19647 23.9092 1.30786 23.9885 1.44218C24.0679 1.5765 24.111 1.72915 24.1135 1.88515C24.1161 2.04114 24.0781 2.19513 24.0032 2.332C22.7656 4.52717 21.0151 6.39021 18.9012 7.762L18.8692 7.782L18.8382 7.806C18.3164 8.20855 17.6883 8.44978 17.0312 8.5C15.644 7.78855 14.1072 7.4183 12.5482 7.42ZM6.31821 24.11C4.64751 22.3998 3.7171 20.1008 3.72821 17.71C3.72821 15.29 4.64821 13.02 6.31821 11.31C7.1285 10.4726 8.09893 9.80672 9.17177 9.35196C10.2446 8.8972 11.398 8.66285 12.5632 8.66285C13.7285 8.66285 14.8818 8.8972 15.9546 9.35196C17.0275 9.80672 17.9979 10.4726 18.8082 11.31C22.2482 14.84 22.2482 20.58 18.8082 24.11C17.1282 25.82 14.9082 26.76 12.5582 26.76C10.1982 26.76 7.97821 25.82 6.31821 24.11Z" fill="#B87333"/>
</svg>
