<svg width="41" height="41" viewBox="0 0 41 41" fill="none" xmlns="http://www.w3.org/2000/svg">
<path d="M28.2155 15.7452C28.3903 15.9194 28.5289 16.1264 28.6236 16.3543C28.7182 16.5822 28.7669 16.8266 28.7669 17.0733C28.7669 17.3201 28.7182 17.5645 28.6236 17.7924C28.5289 18.0203 28.3903 18.2273 28.2155 18.4015L19.4655 27.1515C19.2913 27.3263 19.0843 27.465 18.8564 27.5596C18.6285 27.6542 18.3841 27.7029 18.1373 27.7029C17.8905 27.7029 17.6462 27.6542 17.4183 27.5596C17.1904 27.465 16.9834 27.3263 16.8092 27.1515L13.0592 23.4015C12.8848 23.2271 12.7464 23.02 12.652 22.7921C12.5577 22.5642 12.5091 22.32 12.5091 22.0733C12.5091 21.8267 12.5577 21.5824 12.652 21.3546C12.7464 21.1267 12.8848 20.9196 13.0592 20.7452C13.2336 20.5708 13.4407 20.4325 13.6686 20.3381C13.8964 20.2437 14.1407 20.1951 14.3873 20.1951C14.634 20.1951 14.8782 20.2437 15.1061 20.3381C15.334 20.4325 15.541 20.5708 15.7155 20.7452L18.1389 23.1655L25.5623 15.7405C25.7368 15.5665 25.9438 15.4286 26.1716 15.3346C26.3994 15.2407 26.6435 15.1925 26.8899 15.193C27.1363 15.1934 27.3802 15.2424 27.6076 15.3372C27.8351 15.4319 28.0416 15.5706 28.2155 15.7452ZM37.5139 20.8218C37.5139 24.1593 36.5242 27.4219 34.6699 30.197C32.8157 32.9721 30.1802 35.135 27.0967 36.4122C24.0132 37.6895 20.6202 38.0237 17.3467 37.3725C14.0733 36.7214 11.0665 35.1142 8.70646 32.7542C6.34645 30.3942 4.73926 27.3874 4.08814 24.1139C3.43701 20.8405 3.77119 17.4475 5.04842 14.364C6.32565 11.2805 8.48856 8.64498 11.2636 6.79073C14.0387 4.93648 17.3013 3.94678 20.6389 3.94678C25.1129 3.95174 29.4022 5.73123 32.5658 8.89483C35.7294 12.0584 37.5089 16.3478 37.5139 20.8218ZM33.7639 20.8218C33.7639 18.2259 32.9941 15.6883 31.5519 13.5299C30.1097 11.3715 28.0599 9.68926 25.6616 8.69586C23.2633 7.70246 20.6243 7.44254 18.0783 7.94897C15.5323 8.4554 13.1937 9.70544 11.3581 11.541C9.52255 13.3766 8.27251 15.7152 7.76608 18.2612C7.25965 20.8072 7.51957 23.4462 8.51297 25.8445C9.50637 28.2428 11.1886 30.2926 13.347 31.7348C15.5054 33.177 18.043 33.9468 20.6389 33.9468C24.1187 33.9431 27.4549 32.5591 29.9156 30.0984C32.3762 27.6378 33.7602 24.3016 33.7639 20.8218Z" fill="#00FF88"/>
</svg>
