<svg width="30" height="29" viewBox="0 0 30 29" fill="none" xmlns="http://www.w3.org/2000/svg">
<path fill-rule="evenodd" clip-rule="evenodd" d="M15.0801 0C7.163 0 0.744629 6.41837 0.744629 14.3354C0.744629 22.2525 7.163 28.6709 15.0801 28.6709C22.9972 28.6709 29.4155 22.2525 29.4155 14.3354C29.4155 6.41837 22.9972 0 15.0801 0ZM19.9111 11.3472C20.1485 11.1014 20.2799 10.7722 20.2769 10.4305C20.2739 10.0888 20.1369 9.7619 19.8952 9.52028C19.6536 9.27865 19.3268 9.14159 18.9851 9.13862C18.6434 9.13565 18.3142 9.26701 18.0684 9.5044L15.0801 12.4927L12.0918 9.5044C11.9716 9.37993 11.8278 9.28065 11.6688 9.21235C11.5098 9.14405 11.3388 9.1081 11.1657 9.10659C10.9927 9.10509 10.8211 9.13806 10.6609 9.20359C10.5007 9.26912 10.3552 9.36588 10.2329 9.48825C10.1105 9.61061 10.0137 9.75612 9.94822 9.91628C9.88269 10.0764 9.84972 10.248 9.85122 10.4211C9.85272 10.5941 9.88867 10.7651 9.95698 10.9241C10.0253 11.0831 10.1246 11.2269 10.249 11.3472L13.2373 14.3354L10.249 17.3237C10.1246 17.444 10.0253 17.5878 9.95698 17.7468C9.88867 17.9058 9.85272 18.0768 9.85122 18.2498C9.84972 18.4228 9.88269 18.5945 9.94822 18.7546C10.0137 18.9148 10.1105 19.0603 10.2329 19.1826C10.3552 19.305 10.5007 19.4018 10.6609 19.4673C10.8211 19.5328 10.9927 19.5658 11.1657 19.5643C11.3388 19.5628 11.5098 19.5268 11.6688 19.4585C11.8278 19.3902 11.9716 19.291 12.0918 19.1665L15.0801 16.1782L18.0684 19.1665C18.3142 19.4039 18.6434 19.5352 18.9851 19.5323C19.3268 19.5293 19.6536 19.3922 19.8952 19.1506C20.1369 18.909 20.2739 18.5821 20.2769 18.2404C20.2799 17.8987 20.1485 17.5695 19.9111 17.3237L16.9228 14.3354L19.9111 11.3472Z" fill="#F02323"/>
</svg>
